<?xml version="1.0" encoding="utf-8"?>
<COLLADA xmlns="http://www.collada.org/2005/11/COLLADASchema" version="1.4.1" xmlns:xsi="http://www.w3.org/2001/XMLSchema-instance">
  <asset>
    <contributor>
      <author>Blender User</author>
      <authoring_tool>Blender 4.3.1 commit date:2024-12-10, commit time:07:46, hash:33d812126174</authoring_tool>
    </contributor>
    <created>2026-04-09T18:09:50</created>
    <modified>2026-04-09T18:09:50</modified>
    <unit name="inch" meter="0.0254"/>
    <up_axis>Z_UP</up_axis>
  </asset>
  <library_effects>
    <effect id="Material_003-effect">
      <profile_COMMON>
        <newparam sid="Untitled_007-surface">
          <surface type="2D">
            <init_from>Untitled_007</init_from>
          </surface>
        </newparam>
        <newparam sid="Untitled_007-sampler">
          <sampler2D>
            <source>Untitled_007-surface</source>
          </sampler2D>
        </newparam>
        <technique sid="common">
          <lambert>
            <emission>
              <color sid="emission">0 0 0 1</color>
            </emission>
            <diffuse>
              <texture texture="Untitled_007-sampler" texcoord="UVMap"/>
            </diffuse>
            <index_of_refraction>
              <float sid="ior">1.5</float>
            </index_of_refraction>
          </lambert>
        </technique>
      </profile_COMMON>
    </effect>
  </library_effects>
  <library_images>
    <image id="Untitled_007" name="Untitled_007">
      <init_from>Untitled.007.png</init_from>
    </image>
  </library_images>
  <library_materials>
    <material id="Material_003-material" name="Material.003">
      <instance_effect url="#Material_003-effect"/>
    </material>
  </library_materials>
  <library_geometries>
    <geometry id="Cube_025-mesh" name="Cube.025">
      <mesh>
        <source id="Cube_025-mesh-positions">
          <float_array id="Cube_025-mesh-positions-array" count="867">-61.14501 -13.35249 54.82455 -60.60089 -9.751667 54.82455 -54.9236 -10.60956 54.82455 -55.46772 -14.21039 54.82455 -59.78698 -13.55771 60.118 -59.24286 -9.956877 60.118 -56.28163 -10.40435 60.118 -56.82575 -14.00518 60.118 -75.608 -19.0334 -12 -70.56182 12 -12 70.56182 12 -12 75.608 -19.0334 -12 -70.56182 -12 45.02408 -70.56182 12 45.02408 70.56182 12 45.02408 70.56182 -12 45.02408 0 12 45.02408 0 12 -12 0 -12 45.02408 0 -19.0334 -12 35.28091 15.18731 45.02408 34.43313 -15.84608 -12 35.28091 15.18731 -12 35.28091 -8.812682 45.02408 -34.43313 -24.47851 -12 -35.28091 6.554881 45.02408 -35.28091 -17.44511 45.02408 -35.28091 6.554881 -12 -70.56182 -12 45.02408 70.56182 -12 45.02408 0 -12 45.02408 35.28091 -8.812682 45.02408 -35.28091 -17.44511 45.02408 -70.56182 -12 55.102 70.56182 -12 55.102 0 -12 55.102 35.28091 -8.812682 55.102 -35.28091 -17.44511 55.102 -70.56182 -7.926157 45.02408 70.56182 -7.926157 45.02408 0 -7.926157 45.02408 35.28091 -4.73884 45.02408 -35.28091 -13.37127 45.02408 -70.56182 -7.926157 55.102 70.56182 -7.926157 55.102 0 -7.926157 55.102 35.28091 -4.73884 55.102 -35.28091 -13.37127 55.102 -70.56182 -12 55.102 70.56182 -12 55.102 0 -12 55.102 35.28091 -8.812682 55.102 -35.28091 -17.44511 55.102 -70.56182 -7.926157 55.102 70.56182 -7.926157 55.102 0 -7.926157 55.102 35.28091 -4.73884 55.102 -35.28091 -13.37127 55.102 -70.56182 -12.13222 45.13266 70.56182 -12.13222 45.13266 0 -12.13222 45.13266 35.28091 -8.944899 45.13266 -35.28091 -17.57733 45.13266 -70.56182 -12.13222 48.22979 70.56182 -12.13222 48.22979 0 -12.13222 48.22979 35.28091 -8.944899 48.22979 -35.28091 -17.57733 48.22979 0 -13.17387 46.68122 -35.28091 -18.61898 46.68122 70.56182 -13.17387 46.68122 35.28091 -9.98655 46.68122 -70.56182 -13.17387 46.68122 -70.56182 8.90113 45.02408 70.61187 8.90113 45.02408 0 8.90113 45.02408 35.28091 12.08845 45.02408 -35.28091 3.456013 45.02408 -70.56182 8.90113 53.51375 70.61187 8.90113 53.51375 0 8.90113 53.51375 35.28091 12.08845 53.51375 -35.28091 3.456013 53.51375 -70.56182 11.99398 45.02408 70.61187 11.99398 45.02408 0 11.99398 45.02408 35.28091 15.18129 45.02408 -35.28091 6.54886 45.02408 -70.56182 11.99398 53.51375 70.61187 11.99398 53.51375 0 11.99398 53.51375 35.28091 15.18129 53.51375 -35.28091 6.54886 53.51375 -70.56182 8.907535 53.52634 70.56182 8.907535 53.52634 0 8.907535 53.52634 35.28091 12.09485 53.52634 -35.28091 3.462417 53.52634 -70.56182 11.99398 53.52634 70.56182 11.99398 53.52634 0 11.99398 53.52634 35.28091 15.18129 53.52634 -35.28091 6.54886 53.52634 -70.56182 11.88433 45.13266 70.56182 11.88433 45.13266 0 11.88433 45.13266 35.28091 15.07165 45.13266 -35.28091 6.439217 45.13266 -70.56182 11.88433 48.22979 70.56182 11.88433 48.22979 0 11.88433 48.22979 35.28091 15.07165 48.22979 -35.28091 6.439217 48.22979 0 13.28876 46.68122 -35.28091 7.843641 46.68122 70.56182 13.28876 46.68122 35.28091 16.47608 46.68122 -70.56182 13.28876 46.68122 71.29699 7.920137 -9.425671 71.29699 8.928421 45.06516 70.76008 12.41698 -9.425671 70.76008 12.05067 45.06516 70.76008 8.928421 53.53833 70.76008 12.05067 53.53833 -75.608 -19.0334 -41.55299 -70.56182 12 -41.55299 70.56182 12 -41.55299 75.608 -19.0334 -41.55299 0 12 -41.55299 0 -19.0334 -41.55299 34.43313 -15.84608 -41.55299 35.28091 15.18731 -41.55299 -34.43313 -24.47851 -41.55299 -35.28091 6.554881 -41.55299 -68.8728 -12.18044 54.82455 -68.32868 -8.579613 54.82455 -62.65139 -9.437507 54.82455 -63.19551 -13.03834 54.82455 -67.51477 -12.38565 60.118 -66.97065 -8.784824 60.118 -64.00943 -9.232295 60.118 -64.55355 -12.83312 60.118 -53.43194 -14.59427 54.82455 -52.88782 -10.99344 54.82455 -47.21054 -11.85134 54.82455 -47.75466 -15.45217 54.82455 -52.07391 -14.79948 60.118 -51.52979 -11.19865 60.118 -48.56857 -11.64613 60.118 -49.11269 -15.24695 60.118 -45.4957 -15.78417 54.82455 -44.95158 -12.18334 54.82455 -39.2743 -13.04124 54.82455 -39.81842 -16.64206 54.82455 -44.13768 -15.98938 60.118 -43.59355 -12.38855 60.118 -40.63233 -12.83602 60.118 -41.17646 -16.43685 60.118 -37.8607 -16.8089 54.82455 -37.78964 -13.16789 54.82455 -32.049 -13.27993 54.82455 -32.12006 -16.92094 54.82455 -36.48752 -16.8357 60.118 -36.41646 -13.19469 60.118 -33.42219 -13.25313 60.118 -33.49325 -16.89414 60.118 -29.69411 -16.45612 54.82455 -30.22258 -12.85296 54.82455 -24.54163 -12.01974 54.82455 -24.01316 -15.6229 54.82455 -28.33521 -16.25681 60.118 -28.86368 -12.65365 60.118 -25.90055 -12.21905 60.118 -25.37207 -15.82221 60.118 -21.8485 -15.20933 54.82455 -22.37697 -11.60618 54.82455 -16.69602 -10.77296 54.82455 -16.16755 -14.37611 54.82455 -20.4896 -15.01002 60.118 -21.01807 -11.40687 60.118 -18.05494 -10.97227 60.118 -17.52647 -14.57543 60.118 -14.04897 -13.95699 54.82455 -14.57744 -10.35383 54.82455 -8.896486 -9.520612 54.82455 -8.368015 -13.12377 54.82455 -12.69006 -13.75768 60.118 -13.21853 -10.15452 60.118 -10.2554 -9.719923 60.118 -9.726927 -13.32308 60.118 -6.260786 -12.77354 54.82455 -6.789257 -9.170379 54.82455 -1.108304 -8.33716 54.82455 -0.5798335 -11.94032 54.82455 -4.901882 -12.57423 60.118 -5.430355 -8.971069 60.118 -2.46722 -8.536469 60.118 -1.938747 -12.13963 60.118 0.8647375 -11.62178 54.82455 0.571167 -7.991922 54.82455 6.29421 -7.529059 54.82455 6.587782 -11.15891 54.82455 2.23371 -11.51106 60.118 1.940137 -7.881202 60.118 4.925226 -7.639779 60.118 5.218799 -11.26963 60.118 8.77471 -10.88667 54.82455 8.48114 -7.256815 54.82455 14.20418 -6.793952 54.82455 14.49775 -10.42381 54.82455 10.14368 -10.77595 60.118 9.850111 -7.146095 60.118 12.8352 -6.904671 60.118 13.12877 -10.53453 60.118 16.63907 -10.14303 54.82455 16.3455 -6.513173 54.82455 22.06854 -6.05031 54.82455 22.36211 -9.680165 54.82455 18.00804 -10.03231 60.118 17.71447 -6.402452 60.118 20.69956 -6.161027 60.118 20.99313 -9.790884 60.118 24.48763 -9.467393 54.82455 24.19405 -5.837539 54.82455 29.9171 -5.374676 54.82455 30.21067 -9.00453 54.82455 25.8566 -9.356675 60.118 25.56302 -5.726819 60.118 28.54811 -5.485394 60.118 28.84169 -9.115252 60.118 37.6707 -5.041034 55.04566 37.79713 -8.680545 55.04424 32.0595 -8.879823 54.95856 31.93307 -5.240313 54.95999 36.21937 -5.093513 60.31803 36.3458 -8.733022 60.31661 33.35311 -8.836961 60.27192 33.22668 -5.197449 60.27334 39.67538 -8.887866 54.9271 40.0148 -5.26201 54.92567 45.73089 -5.797114 54.84 45.39148 -9.422969 54.84142 41.12153 -9.021167 60.19946 41.46094 -5.395311 60.19804 44.4424 -5.674418 60.15335 44.103 -9.300277 60.15477 47.54883 -9.517212 54.80919 47.88824 -5.891357 54.80777 53.60434 -6.426463 54.72209 53.26493 -10.05232 54.72351 48.99498 -9.650513 60.08155 49.33439 -6.024658 60.08013 52.31586 -6.303765 60.03544 51.97645 -9.929624 60.03687 55.39494 -10.2108 54.69163 55.73435 -6.584949 54.69021 61.45045 -7.120055 54.60453 61.11104 -10.74591 54.60595 56.84109 -10.34411 59.96399 57.18049 -6.718251 59.96257 60.16196 -6.997357 59.91788 59.82255 -10.62322 59.9193 63.15266 -10.96363 54.69163 63.49207 -7.337776 54.69021 69.20817 -7.872881 54.60453 68.86876 -11.49874 54.60595 64.59881 -11.09693 59.96399 64.93822 -7.471078 59.96257 67.91969 -7.750184 59.91788 67.58028 -11.37604 59.9193 -70.5618 11.96859 35.95952 70.5618 11.96859 35.95952 0 11.96859 35.95952 35.2809 15.15591 35.95952 -35.2809 6.523478 35.95952 -70.5618 11.96859 45.23902 70.5618 11.96859 45.23902 0 11.96859 45.23902 35.2809 15.15591 45.23902 -35.2809 6.523478 45.23902 0 12.24862 40.59928 -35.2809 6.803505 40.59928 70.5618 12.24862 40.59928 35.2809 15.43594 40.59928 -70.5618 12.24862 40.59928 -70.77414 7.90978 -9.425669 -70.60127 8.903135 45.06516 -70.53208 12.43209 -9.425669 -70.5949 12.0712 45.06516</float_array>
          <technique_common>
            <accessor source="#Cube_025-mesh-positions-array" count="289" stride="3">
              <param name="X" type="float"/>
              <param name="Y" type="float"/>
              <param name="Z" type="float"/>
            </accessor>
          </technique_common>
        </source>
        <source id="Cube_025-mesh-normals">
          <float_array id="Cube_025-mesh-normals-array" count="867">-0.9570844 0.1446235 0.2511448 0.149414 0.9887748 -9.6251e-7 0.9570844 -0.1446232 0.251145 -0.1494147 -0.9887747 -1.50612e-6 0 0 1 -0.9847922 0.1601323 0.0673955 0.08997446 0.9959442 0 1 0 0 -0.15145 -0.981302 0.1187829 -0.08997446 0.9959442 0 -0.1525301 0.9882989 0 0.08931785 -0.9886729 0.1206159 0.1525301 0.9882988 0 -0.08997446 0.9959442 0 -0.07717841 -0.9970174 0 -0.07666307 -0.9903602 0.1153677 0 0 1 0.09217143 -0.9957432 0 0.1525301 0.9882988 0 0.1514092 -0.9810371 0.1210019 0.15253 -0.9882989 0 -0.08997482 -0.9959441 0 0.08997482 -0.9959441 0 -0.15253 -0.9882989 0 -0.15253 0.9882989 0 0.08997464 0.9959441 0 -0.08997464 0.9959441 0 0.15253 0.9882989 0 -2.12327e-7 0 1 2.73227e-7 0 1 0.1226832 -0.9924459 -2.33583e-6 1.58474e-7 -0.8297511 0.5581336 0 -1 -2.14494e-6 0 -1 -2.37121e-6 -0.07475119 -0.8274297 0.556572 0 -0.8297511 0.5581337 0.0997821 -0.8256101 0.5553482 -0.1525293 -0.988299 -2.442e-6 0 -0.8297486 -0.5581374 -0.07475095 -0.8274271 -0.5565759 0 -0.8297486 -0.5581374 0.09978157 -0.8256077 -0.555352 -0.1270221 -0.8230276 -0.5536165 0.1525301 -0.9882989 0 -0.08984833 -0.9959555 0 0.08997476 -0.9959441 0 -0.1525301 -0.9882988 0 -0.1525303 0.9882988 0 0.08984804 0.9959556 0 -0.08997446 0.9959441 0 0.1525303 0.9882988 0 1.57643e-7 0 1 -2.80254e-7 0 1 2.80254e-7 0 1 5.60508e-7 0 1 -2.80254e-7 0 1 0 1 -2.68614e-6 -0.09140044 0.7376396 0.6689797 -0.11972 0.9928077 -2.44609e-6 0 0.7407403 0.6717915 0.08997428 0.9959441 -2.60959e-6 0 1 -2.32271e-6 0.1135837 0.7359467 0.6674438 0 0.740742 0.6717897 -0.09139996 0.7376363 -0.6689833 0 0.7407387 -0.6717933 0 0.7407371 -0.6717951 0.06676942 0.7390836 -0.6702964 0.1135829 0.7359434 -0.6674476 0.9929453 0.1185535 -0.002193689 0.9836184 0.1691452 0.06232804 0.1561949 -0.9877263 0 -0.9870364 0.160497 0 -0.1525301 0.9882988 0 0.9870364 0.160497 0 -0.1311021 -0.9913689 0 1 3.508e-6 0 -0.957084 0.1446263 0.2511443 0.1494143 0.9887748 -6.01571e-7 0.9570837 -0.1446235 0.2511473 -0.1494144 -0.9887747 1.50612e-6 -0.9570842 0.1446233 0.2511453 0.1494177 0.9887742 -6.01573e-7 0.957084 -0.144625 0.2511456 -0.1494144 -0.9887747 1.00408e-6 -0.9570849 0.1446232 0.2511429 0.1494145 0.9887747 0 0.9570837 -0.1446262 0.2511453 -0.1494132 -0.9887749 -5.0204e-7 -0.9677653 0.01888775 0.2511445 0.0195136 0.9998097 -4.81256e-7 0.967765 -0.01888775 0.2511459 -0.01951354 -0.9998096 0 -1.31164e-7 0 1 -0.9577038 -0.1404644 0.2511439 -0.145117 0.9894145 -4.81259e-7 0.9577026 0.140466 0.2511475 0.1451167 -0.9894146 0 2.09861e-6 0 1 -0.9577037 -0.1404656 0.2511438 -0.1451163 0.9894147 -1.20314e-7 0.9577027 0.1404654 0.2511473 0.1451166 -0.9894146 -1.50612e-6 3.4977e-7 0 1 -0.9577034 -0.1404646 0.2511456 -0.1451157 0.9894148 -3.60944e-7 0.9577029 0.1404657 0.2511465 0.1451164 -0.9894146 0 -6.9954e-7 0 1 -0.9577035 -0.1404651 0.2511447 -0.1451166 0.9894146 -3.60943e-7 0.957703 0.1404655 0.2511465 0.1451165 -0.9894146 0 -6.99538e-7 0 1 -0.9647995 -0.07802963 0.2511446 -0.08061301 0.9967455 -3.60943e-7 0.9647989 0.07802999 0.2511463 0.08061492 -0.9967454 5.02039e-7 -0.9647995 -0.07802963 0.2511444 -0.08061331 0.9967455 -3.60943e-7 0.9647989 0.07802957 0.2511463 0.08061337 -0.9967455 -2.5102e-7 -6.99538e-7 0 1 -0.9647995 -0.07802963 0.2511442 -0.08061355 0.9967455 -7.21885e-7 0.964799 0.07803034 0.2511457 0.08061444 -0.9967454 0 -0.9647991 -0.07803344 0.2511443 -0.08061373 0.9967455 -1.20314e-7 0.9647983 0.07803332 0.2511477 0.08061385 -0.9967454 -2.5102e-7 1.22419e-6 0 1 0.9635167 0.03336501 0.2655604 0.03471577 -0.9993972 -3.90902e-4 -0.9709997 -0.03382259 0.236676 -0.03471678 0.9993972 3.90085e-4 -0.01490074 -9.07459e-4 0.9998887 -0.9598878 0.08995997 0.2655609 0.09320098 0.9956473 -3.90902e-4 0.9673687 -0.0904563 0.2366763 -0.09319984 -0.9956474 3.90086e-4 0.01489382 -0.001001715 0.9998887 -0.9598879 0.08995735 0.2655619 0.09320056 0.9956473 -3.90902e-4 0.9673684 -0.09046196 0.2366752 -0.09320181 -0.9956471 3.89818e-4 0.01489102 -9.99334e-4 0.9998887 -0.9598883 0.08995532 0.2655609 0.09320038 0.9956473 -3.90782e-4 0.9673683 -0.09045934 0.2366765 -0.09320092 -0.9956473 3.89332e-4 0.01489597 -0.001001715 0.9998885 -0.9598879 0.08995991 0.2655609 0.09320002 0.9956474 -3.9054e-4 0.9673687 -0.09045815 0.2366755 -0.09320122 -0.9956473 3.9109e-4 0.01489317 -0.001001775 0.9998886 0 1 0 -0.1212412 0.9908201 0.0598005 -0.1211675 0.9926321 0 0 0.9981837 0.06024497 0.0899747 0.9959442 0 0 1 1.24478e-7 0.1522596 0.9865454 0.05954247 0 0.9981837 0.06024461 -0.1212411 0.9908201 -0.05980026 0 0.9981837 -0.06024432 0 0.9981837 -0.06024473 0.08981257 0.9941497 -0.06000125 0.1522596 0.9865454 -0.05954223 -1 0 0 -0.9985684 0.05344665 0.002193629 -1 -4.72974e-6 0 -0.9570838 0.1446262 0.2511454 0.1494132 0.9887749 2.51019e-7 0.9570838 -0.1446263 0.2511452 -0.1494128 -0.9887749 4.81255e-7 0.08997446 0.9959441 0 0.9847922 0.1601323 0.0673955 -0.1299427 -0.9826024 0.132694 -0.1525302 0.9882989 0 0.09148406 -0.9883173 0.1218999 0.1525302 0.9882988 0 0 0 1 -0.07717841 -0.9970174 0 -0.08928894 -0.9883529 0.1232317 0.09217149 -0.9957432 0 0.1525302 0.9882989 0 0.1550049 -0.9802012 0.1232034 0 0 1 0.1525298 -0.9882989 0 -0.08997464 -0.9959441 0 0.08997464 -0.9959441 0 -0.1525298 -0.9882989 0 0.08997464 0.9959441 0 0.15253 0.9882988 0 -0.08997505 -0.995944 -2.24111e-6 -0.1270224 -0.8230301 0.5536127 -0.08984833 -0.9959555 0 -0.1525301 -0.9882988 0 -0.1525301 0.9882989 0 0.08984804 0.9959556 0 0.1525301 0.9882988 0 0.06676948 0.739087 0.6702927 0.1525307 0.9882988 -2.28976e-6 0.9855338 0.1694759 0.001139223 0.1561949 -0.9877263 0 -0.9870364 0.160497 0 0.08997446 0.9959442 0 -0.1525302 0.9882988 0 0.9870364 0.160497 0 -0.1311021 -0.9913689 0 -0.957084 0.1446236 0.2511461 0.1494137 0.9887748 0 0.9570835 -0.1446231 0.2511479 -0.1494136 -0.9887748 2.40628e-7 -0.9570838 0.1446262 0.251145 0.957084 -0.1446233 0.2511463 -0.1494142 -0.9887747 2.40629e-7 -0.9570834 0.1446277 0.2511457 0.1494142 0.9887747 -1.92503e-6 0.9570835 -0.144625 0.2511471 -0.1494137 -0.9887748 0 -0.9677653 0.01888775 0.2511445 0.01951336 0.9998096 0 0.9677651 -0.01888775 0.2511457 -0.0195139 -0.9998096 4.81256e-7 -0.9577037 -0.1404646 0.2511439 -0.1451164 0.9894146 0 0.9577034 0.1404644 0.2511458 0.1451162 -0.9894147 2.40628e-7 -2.79816e-6 0 1 -0.9577035 -0.1404664 0.2511439 -0.1451166 0.9894146 -2.5102e-7 0.9577028 0.1404644 0.2511477 0.1451133 -0.9894151 7.21888e-7 -0.9577032 -0.1404651 0.2511454 -0.145116 0.9894147 5.02039e-7 0.957703 0.1404656 0.251146 -0.9577036 -0.1404655 0.2511442 -0.1451165 0.9894146 -2.5102e-7 0.9577032 0.1404649 0.2511462 0.1451166 -0.9894146 4.81258e-7 -0.9647994 -0.0780304 0.2511442 -0.08061385 0.9967454 0 0.9647989 0.07803046 0.2511464 0.08061546 -0.9967454 -6.01572e-7 -1.22419e-6 0 1 -0.9647995 -0.07802921 0.2511442 -0.08061391 0.9967455 0 0.9647991 0.07802945 0.2511456 0.08061194 -0.9967456 1.20314e-6 -0.9647995 -0.07803028 0.2511443 -0.08061408 0.9967454 -2.5102e-7 0.964799 0.07802957 0.251146 0.08061367 -0.9967455 6.01571e-7 -1.74885e-7 0 1 -0.9647994 -0.07803195 0.2511439 -0.08061391 0.9967454 -5.02039e-7 0.9647991 0.07802885 0.2511457 0.08061307 -0.9967455 6.01573e-7 0.9635166 0.03336852 0.2655608 0.0347166 -0.9993971 -3.90085e-4 -0.9709997 -0.03382205 0.2366766 -0.03471487 0.9993972 3.91384e-4 -0.0148974 -9.07434e-4 0.9998887 -0.9598885 0.08995908 0.2655588 0.09320026 0.9956473 -3.90463e-4 0.9673686 -0.09046232 0.2366743 -0.09320151 -0.9956473 3.91142e-4 0.0148946 -0.001002907 0.9998886 -0.9598882 0.08995527 0.2655611 0.09320038 0.9956474 -3.90838e-4 0.9673692 -0.09045761 0.2366736 -0.09320074 -0.9956473 3.9109e-4 0.01489174 -0.001002788 0.9998887 -0.9598884 0.08995926 0.2655593 0.0932005 0.9956473 -3.90588e-4 0.9673682 -0.09046083 0.2366763 -0.09320145 -0.9956472 3.89699e-4 0.01489174 -0.001002907 0.9998887 -0.9598883 0.0899555 0.2655608 0.09320038 0.9956474 -3.90589e-4 0.9673684 -0.09046292 0.2366746 -0.09320098 -0.9956473 3.91382e-4 0.01489454 -0.001002967 0.9998886 0.08981257 0.9941498 0.06000149 0.1525303 0.9882988 0 -0.9999973 0.002008199 -0.001139342</float_array>
          <technique_common>
            <accessor source="#Cube_025-mesh-normals-array" count="289" stride="3">
              <param name="X" type="float"/>
              <param name="Y" type="float"/>
              <param name="Z" type="float"/>
            </accessor>
          </technique_common>
        </source>
        <source id="Cube_025-mesh-map-0">
          <float_array id="Cube_025-mesh-map-0-array" count="2040">0.08205652 0.7631298 0.05257076 0.8522347 0.05257195 0.7631296 0.1064659 0.9752889 0.1878497 0.85648 0.1622614 0.9752891 0.05257081 0.8931432 0.08205652 0.98225 0.05257123 0.9822502 0.2948665 0.85648 0.2134829 0.9752888 0.1878947 0.85648 0.05257081 0.8931432 0.08205568 0.8522348 0.08205604 0.8931431 0.4821712 0.5530293 0.2505871 0.002786219 0.4821708 0.002786934 0.9960452 0.8318425 0.8634841 0.6698184 0.8634847 0.8317478 0.09494417 0.5472604 0.3260056 -0.001742303 0.3260056 0.5472604 0.5234118 0.5435261 0.2682282 0.008487462 0.2682283 0.5435258 0.8634841 0.7255326 0.7309236 0.6698186 0.7309236 0.7255325 0.2678833 0.6686162 0.5354118 0.5293299 0.2678833 0.5293299 0.7309244 0.8318422 0.8626533 0.6698186 0.862654 0.831842 0.01304483 0.5435256 0.2639326 0.008488118 0.2639325 0.5435256 0.8626533 0.7245493 0.994383 0.6698186 0.994383 0.7245493 0.2678015 0.5293298 3.54911e-4 0.6686163 3.54911e-4 0.5293299 0.8634847 0.8318424 0.7309236 0.6698186 0.7309244 0.8318422 0.2639326 0.2345718 0.5148202 0.008488416 0.5148202 0.2345721 0.5148202 0.5435257 0.2639326 0.008488118 0.5148202 0.008488416 0.5352482 0.6686163 0.2678015 0.5293298 0.5352482 0.5293298 0.01304495 0.2345715 0.2639326 0.008488118 0.2639326 0.2345718 0.862654 0.831842 0.994383 0.6698186 0.9943836 0.8318418 0.2682283 0.5435258 0.01304495 0.00848782 0.01304483 0.5435256 3.54911e-4 0.5293299 0.2678833 0.6686162 0.2678833 0.5293299 0.501927 0.6760495 0.2509768 0.746892 0.2509777 0.6760475 0.004597604 0.6760427 0.2536193 0.7468917 0.2536203 0.6760474 0.2536193 0.7468917 0.501927 0.6760495 0.2536203 0.6760474 0.2509768 0.746892 2.79146e-5 0.6760427 0.2509777 0.6760475 0.2509768 0.746892 0.501927 0.6760495 0.2509777 0.6760475 0.2536193 0.7468917 0.004597604 0.6760427 0.2536203 0.6760474 0.501927 0.6760495 0.2536193 0.7468917 0.2536203 0.6760474 2.79146e-5 0.6760427 0.2509768 0.746892 0.2509777 0.6760475 0.5288264 0.7213879 0.3975985 0.7344256 0.2669546 0.723863 0.1354915 0.7048306 0.005344212 0.7263356 0.004477143 0.7111942 0.3979302 0.7193337 0.2669546 0.723863 0.1354915 0.7048306 0.3979302 0.7193337 0.5288264 0.7213879 0.2669546 0.723863 0.3979302 0.7193337 0.5295605 0.7062162 0.5288264 0.7213879 0.2668874 0.7087065 0.3979302 0.7193337 0.1354915 0.7048306 0.1354915 0.7048306 0.004477143 0.7111942 0.1350204 0.6895573 0.2668874 0.7087065 0.1354915 0.7048306 0.1350204 0.6895573 0.9972469 0.7114695 0.8631203 0.7240574 0.8631206 0.7114688 0.864533 0.7114688 0.7314363 0.7240557 0.8645327 0.7240573 0.864533 0.7114688 0.9972469 0.7240582 0.9972469 0.7114695 0.8631203 0.7240574 0.7289941 0.7114672 0.8631206 0.7114688 0.8631209 0.6988803 0.9972469 0.7114695 0.8631206 0.7114688 0.731437 0.6988786 0.864533 0.7114688 0.8645333 0.6988802 0.864533 0.7114688 0.9972469 0.698881 0.8645333 0.6988802 0.8631209 0.6988803 0.7289941 0.7114672 0.7289945 0.6988786 0.9886011 0.671474 0.8586996 0.7252724 0.8587002 0.6714724 0.7311644 0.6714689 0.8600676 0.7252722 0.8600681 0.6714724 0.8600676 0.7252722 0.9886011 0.671474 0.8600681 0.6714724 0.8586996 0.7252724 0.7287989 0.6714689 0.8587002 0.6714724 0.8586996 0.7252724 0.9886011 0.671474 0.8587002 0.6714724 0.8600676 0.7252722 0.7311644 0.6714689 0.8600681 0.6714724 0.9886011 0.671474 0.8600676 0.7252722 0.8600681 0.6714724 0.7287989 0.6714689 0.8586996 0.7252724 0.8587002 0.6714724 0.9347684 0.7043444 0.9345967 0.7158053 0.8669704 0.707784 0.9347684 0.7043444 1.002525 0.7059043 0.9345967 0.7158053 0.8669356 0.696274 0.9347684 0.7043444 0.8669704 0.707784 0.9347684 0.7043444 1.002905 0.6943829 1.002525 0.7059043 0.7989201 0.6933306 0.7315508 0.7096617 0.7311021 0.6981632 0.8669356 0.696274 0.8669704 0.707784 0.7989201 0.6933306 0.7989201 0.6933306 0.7311021 0.6981632 0.7986762 0.6817319 0.8669356 0.696274 0.7989201 0.6933306 0.7986762 0.6817319 0.8631206 0.7114688 0.9972469 0.7240582 0.9972469 0.7114695 0.8645327 0.7240573 0.7314366 0.7114672 0.864533 0.7114688 0.9972469 0.7114695 0.8645327 0.7240573 0.864533 0.7114688 0.8631206 0.7114688 0.7289938 0.7240558 0.8631203 0.7240574 0.8631206 0.7114688 0.9972469 0.698881 0.8631209 0.6988803 0.8645333 0.6988802 0.7314366 0.7114672 0.731437 0.6988786 0.8645333 0.6988802 0.9972469 0.7114695 0.864533 0.7114688 0.7289945 0.6988786 0.8631206 0.7114688 0.8631209 0.6988803 0.2756651 0.6688659 0.2387623 0.7601565 0.2387623 0.6688659 0.8335553 0.6698184 0.8626369 0.8317478 0.8639798 0.6698184 0.8322124 0.7851938 0.8626369 0.8317478 0.8626369 0.7851938 0.2682282 0.2347776 0.01304495 0.00848782 0.01304495 0.2347779 0.2505871 0.2321735 0.4821708 0.002786934 0.4821708 0.2321742 0.9960448 0.7255327 0.8634841 0.6698184 0.8634841 0.7255322 0.7309236 0.7245494 0.8626533 0.6698186 0.8626533 0.7245493 0.09494417 0.2336323 0.3260056 -0.001742303 0.3260056 0.2336323 0.5234115 0.2347772 0.2682282 0.008487462 0.2682282 0.2347776 0.7637601 0.6902791 0.7843876 0.7130237 0.7637601 0.7357682 0.05257076 0.8522347 0.08205652 0.7631298 0.08205568 0.8522348 0.1064659 0.9752889 0.1878497 0.85648 0.1622614 0.9752891 0.08205604 0.8931431 0.05257123 0.9822502 0.05257081 0.8931432 0.2692784 0.9752889 0.1878947 0.85648 0.2948665 0.85648 0.05257081 0.8931432 0.08205568 0.8522348 0.08205604 0.8931431 0.08205568 0.8522348 0.05257195 0.7631296 0.08205652 0.7631298 0.1064659 0.9752889 0.1878497 0.85648 0.1622614 0.9752891 0.08205604 0.8931431 0.05257123 0.9822502 0.05257081 0.8931432 0.2692784 0.9752889 0.1878947 0.85648 0.2948665 0.85648 0.05257081 0.8931432 0.08205568 0.8522348 0.08205604 0.8931431 0.08205568 0.8522348 0.05257195 0.7631296 0.08205652 0.7631298 0.1622614 0.9752891 0.08087801 0.85648 0.1878497 0.85648 0.08205604 0.8931431 0.05257123 0.9822502 0.05257081 0.8931432 0.2692784 0.9752889 0.1878947 0.85648 0.2948665 0.85648 0.08205604 0.8931431 0.05257076 0.8522347 0.08205568 0.8522348 0.05257076 0.8522347 0.08205652 0.7631298 0.08205568 0.8522348 0.1064659 0.9752889 0.1878497 0.85648 0.1622614 0.9752891 0.08205604 0.8931431 0.05257123 0.9822502 0.05257081 0.8931432 0.2692784 0.9752889 0.1878947 0.85648 0.2948665 0.85648 0.05257081 0.8931432 0.08205568 0.8522348 0.08205604 0.8931431 0.08205568 0.8522348 0.05257195 0.7631296 0.08205652 0.7631298 0.1064659 0.9752889 0.1878497 0.85648 0.1622614 0.9752891 0.08205604 0.8931431 0.05257123 0.9822502 0.05257081 0.8931432 0.2692784 0.9752889 0.1878947 0.85648 0.2948665 0.85648 0.05257081 0.8931432 0.08205568 0.8522348 0.08205604 0.8931431 0.08205568 0.8522348 0.05257195 0.7631296 0.08205652 0.7631298 0.1064659 0.9752889 0.1878497 0.85648 0.1622614 0.9752891 0.05257081 0.8931432 0.08205652 0.98225 0.05257123 0.9822502 0.2692784 0.9752889 0.1878947 0.85648 0.2948665 0.85648 0.05257081 0.8931432 0.08205568 0.8522348 0.08205604 0.8931431 0.05257076 0.8522347 0.08205652 0.7631298 0.08205568 0.8522348 0.1064659 0.9752889 0.1878497 0.85648 0.1622614 0.9752891 0.05257081 0.8931432 0.08205652 0.98225 0.05257123 0.9822502 0.2692784 0.9752889 0.1878947 0.85648 0.2948665 0.85648 0.05257081 0.8931432 0.08205568 0.8522348 0.08205604 0.8931431 0.08205568 0.8522348 0.05257195 0.7631296 0.08205652 0.7631298 0.1064659 0.9752889 0.1878497 0.85648 0.1622614 0.9752891 0.08205604 0.8931431 0.05257123 0.9822502 0.05257081 0.8931432 0.2692784 0.9752889 0.1878947 0.85648 0.2948665 0.85648 0.05257081 0.8931432 0.08205568 0.8522348 0.08205604 0.8931431 0.08205568 0.8522348 0.05257195 0.7631296 0.08205652 0.7631298 0.1064659 0.9752889 0.1878497 0.85648 0.1622614 0.9752891 0.05257081 0.8931432 0.08205652 0.98225 0.05257123 0.9822502 0.2692784 0.9752889 0.1878947 0.85648 0.2948665 0.85648 0.08205604 0.8931431 0.05257076 0.8522347 0.08205568 0.8522348 0.08205568 0.8522348 0.05257195 0.7631296 0.08205652 0.7631298 0.1064659 0.9752889 0.1878497 0.85648 0.1622614 0.9752891 0.05257081 0.8931432 0.08205652 0.98225 0.05257123 0.9822502 0.2692784 0.9752889 0.1878947 0.85648 0.2948665 0.85648 0.05257081 0.8931432 0.08205568 0.8522348 0.08205604 0.8931431 0.08205568 0.8522348 0.05257195 0.7631296 0.08205652 0.7631298 0.1064659 0.9752889 0.1878497 0.85648 0.1622614 0.9752891 0.05257081 0.8931432 0.08205652 0.98225 0.05257123 0.9822502 0.2692784 0.9752889 0.1878947 0.85648 0.2948665 0.85648 0.08205604 0.8931431 0.05257076 0.8522347 0.08205568 0.8522348 0.05257076 0.8522347 0.08205652 0.7631298 0.08205568 0.8522348 0.1064659 0.9752889 0.1878497 0.85648 0.1622614 0.9752891 0.08205604 0.8931431 0.05257123 0.9822502 0.05257081 0.8931432 0.2692784 0.9752889 0.1878947 0.85648 0.2948665 0.85648 0.05257081 0.8931432 0.08205568 0.8522348 0.08205604 0.8931431 0.08205568 0.8522348 0.05257195 0.7631296 0.08205652 0.7631298 0.1064659 0.9752889 0.1878497 0.85648 0.1622614 0.9752891 0.05257081 0.8931432 0.08205652 0.98225 0.05257123 0.9822502 0.2692784 0.9752889 0.1878947 0.85648 0.2948665 0.85648 0.05257081 0.8931432 0.08205568 0.8522348 0.08205604 0.8931431 0.05257076 0.8522347 0.08205652 0.7631298 0.08205568 0.8522348 0.1064659 0.9752889 0.1878497 0.85648 0.1622614 0.9752891 0.08205604 0.8931431 0.05257123 0.9822502 0.05257081 0.8931432 0.2692784 0.9752889 0.1878947 0.85648 0.2948665 0.85648 0.05257081 0.8931432 0.08205568 0.8522348 0.08205604 0.8931431 0.08205568 0.8522348 0.05257195 0.7631296 0.08205652 0.7631298 0.1064659 0.9752889 0.1878497 0.85648 0.1622614 0.9752891 0.05257081 0.8931432 0.08205652 0.98225 0.05257123 0.9822502 0.2134829 0.9752888 0.2948665 0.85648 0.2692784 0.9752889 0.05257081 0.8931432 0.08205568 0.8522348 0.08205604 0.8931431 0.05257076 0.8522347 0.08205652 0.7631298 0.08205568 0.8522348 0.1064659 0.9752889 0.1878497 0.85648 0.1622614 0.9752891 0.05257081 0.8931432 0.08205652 0.98225 0.05257123 0.9822502 0.2692784 0.9752889 0.1878947 0.85648 0.2948665 0.85648 0.05257081 0.8931432 0.08205568 0.8522348 0.08205604 0.8931431 0.08205568 0.8522348 0.05257195 0.7631296 0.08205652 0.7631298 0.1064659 0.9752889 0.1878497 0.85648 0.1622614 0.9752891 0.08205604 0.8931431 0.05257123 0.9822502 0.05257081 0.8931432 0.2692784 0.9752889 0.1878947 0.85648 0.2948665 0.85648 0.05257081 0.8931432 0.08205568 0.8522348 0.08205604 0.8931431 0.8631206 0.4577493 0.9972469 0.4801012 0.9972469 0.45775 0.8645327 0.4801004 0.7314366 0.4577476 0.864533 0.4577492 0.9972469 0.45775 0.8645327 0.4801004 0.864533 0.4577492 0.8631206 0.4577493 0.7289938 0.4800989 0.8631203 0.4801005 0.8631206 0.4577493 0.9972469 0.4800783 0.8631209 0.4800776 0.8645333 0.4800775 0.7314366 0.4577476 0.731437 0.4800759 0.8645333 0.4800775 0.9972469 0.45775 0.864533 0.4577492 0.7289945 0.4800759 0.8631206 0.4577493 0.8631209 0.4800776 0.7637601 0.6902791 0.7843876 0.7130237 0.7637601 0.7357682 0.7789502 0.7021963 0.7643616 0.742241 0.7643616 0.7021963 0.8626369 0.8317478 0.8335553 0.6698184 0.8639798 0.6698184 0.1887775 0.6987987 0.1547144 0.7830648 0.1547144 0.6987987 0.7689571 0.7081838 0.7839742 0.6916255 0.7839742 0.7247421 0.8281385 0.6928204 0.8368993 0.7058446 0.8281385 0.7188687 0.08205652 0.7631298 0.08205568 0.8522348 0.05257076 0.8522347 0.1064659 0.9752889 0.08087801 0.85648 0.1878497 0.85648 0.05257081 0.8931432 0.08205604 0.8931431 0.08205652 0.98225 0.2948665 0.85648 0.2692784 0.9752889 0.2134829 0.9752888 0.05257081 0.8931432 0.05257076 0.8522347 0.08205568 0.8522348 0.4821712 0.5530293 0.2505877 0.5530304 0.2505871 0.002786219 0.9960452 0.8318425 0.9960448 0.6698189 0.8634841 0.6698184 0.09494417 0.5472604 0.09494417 -0.001742303 0.3260056 -0.001742303 0.5234118 0.5435261 0.5234115 0.008487105 0.2682282 0.008487462 0.8634841 0.7255326 0.8634841 0.6698188 0.7309236 0.6698186 0.2678833 0.6686162 0.5354118 0.6686162 0.5354118 0.5293299 0.7309244 0.8318422 0.7309236 0.6698186 0.8626533 0.6698186 0.01304483 0.5435256 0.01304495 0.00848782 0.2639326 0.008488118 0.8626533 0.7245493 0.8626533 0.6698186 0.994383 0.6698186 0.2678015 0.5293298 0.2678015 0.6686163 3.54911e-4 0.6686163 0.8634847 0.8318424 0.8634841 0.6698188 0.7309236 0.6698186 0.2639326 0.2345718 0.2639326 0.008488118 0.5148202 0.008488416 0.5148202 0.5435257 0.2639325 0.5435256 0.2639326 0.008488118 0.5352482 0.6686163 0.2678015 0.6686163 0.2678015 0.5293298 0.01304495 0.2345715 0.01304495 0.00848782 0.2639326 0.008488118 0.862654 0.831842 0.8626533 0.6698186 0.994383 0.6698186 0.2682283 0.5435258 0.2682282 0.008487462 0.01304495 0.00848782 3.54911e-4 0.5293299 3.54911e-4 0.6686163 0.2678833 0.6686162 0.501927 0.6760495 0.501927 0.746894 0.2509768 0.746892 0.004597604 0.6760427 0.004596412 0.7468871 0.2536193 0.7468917 0.2536193 0.7468917 0.501927 0.746894 0.501927 0.6760495 0.2509768 0.746892 2.66172e-5 0.7468875 2.79146e-5 0.6760427 0.2509768 0.746892 0.501927 0.746894 0.501927 0.6760495 0.2536193 0.7468917 0.004596412 0.7468871 0.004597604 0.6760427 0.501927 0.6760495 0.501927 0.746894 0.2536193 0.7468917 2.79146e-5 0.6760427 2.66172e-5 0.7468875 0.2509768 0.746892 0.9972469 0.7114695 0.9972469 0.7240582 0.8631203 0.7240574 0.864533 0.7114688 0.7314366 0.7114672 0.7314363 0.7240557 0.864533 0.7114688 0.8645327 0.7240573 0.9972469 0.7240582 0.8631203 0.7240574 0.7289938 0.7240558 0.7289941 0.7114672 0.8631209 0.6988803 0.9972469 0.698881 0.9972469 0.7114695 0.731437 0.6988786 0.7314366 0.7114672 0.864533 0.7114688 0.864533 0.7114688 0.9972469 0.7114695 0.9972469 0.698881 0.8631209 0.6988803 0.8631206 0.7114688 0.7289941 0.7114672 0.9886011 0.671474 0.9886012 0.7252739 0.8586996 0.7252724 0.7311644 0.6714689 0.7311637 0.7252686 0.8600676 0.7252722 0.8600676 0.7252722 0.9886012 0.7252739 0.9886011 0.671474 0.8586996 0.7252724 0.7287983 0.7252689 0.7287989 0.6714689 0.8586996 0.7252724 0.9886012 0.7252739 0.9886011 0.671474 0.8600676 0.7252722 0.7311637 0.7252686 0.7311644 0.6714689 0.9886011 0.671474 0.9886012 0.7252739 0.8600676 0.7252722 0.7287989 0.6714689 0.7287983 0.7252689 0.8586996 0.7252724 0.8631206 0.7114688 0.8631203 0.7240574 0.9972469 0.7240582 0.8645327 0.7240573 0.7314363 0.7240557 0.7314366 0.7114672 0.9972469 0.7114695 0.9972469 0.7240582 0.8645327 0.7240573 0.8631206 0.7114688 0.7289941 0.7114672 0.7289938 0.7240558 0.8631206 0.7114688 0.9972469 0.7114695 0.9972469 0.698881 0.8645333 0.6988802 0.864533 0.7114688 0.7314366 0.7114672 0.8645333 0.6988802 0.9972469 0.698881 0.9972469 0.7114695 0.7289945 0.6988786 0.7289941 0.7114672 0.8631206 0.7114688 0.2756651 0.6688659 0.2756651 0.7601565 0.2387623 0.7601565 0.8335553 0.6698184 0.8322124 0.8317478 0.8626369 0.8317478 0.8322124 0.7851938 0.8322124 0.8317478 0.8626369 0.8317478 0.2682282 0.2347776 0.2682282 0.008487462 0.01304495 0.00848782 0.2505871 0.2321735 0.2505871 0.002786219 0.4821708 0.002786934 0.9960448 0.7255327 0.9960448 0.6698189 0.8634841 0.6698184 0.7309236 0.7245494 0.7309236 0.6698186 0.8626533 0.6698186 0.09494417 0.2336323 0.09494417 -0.001742303 0.3260056 -0.001742303 0.5234115 0.2347772 0.5234115 0.008487105 0.2682282 0.008487462 0.05257076 0.8522347 0.05257195 0.7631296 0.08205652 0.7631298 0.1064659 0.9752889 0.08087801 0.85648 0.1878497 0.85648 0.08205604 0.8931431 0.08205652 0.98225 0.05257123 0.9822502 0.2692784 0.9752889 0.2134829 0.9752888 0.1878947 0.85648 0.05257081 0.8931432 0.05257076 0.8522347 0.08205568 0.8522348 0.08205568 0.8522348 0.05257076 0.8522347 0.05257195 0.7631296 0.1064659 0.9752889 0.08087801 0.85648 0.1878497 0.85648 0.08205604 0.8931431 0.08205652 0.98225 0.05257123 0.9822502 0.2692784 0.9752889 0.2134829 0.9752888 0.1878947 0.85648 0.05257081 0.8931432 0.05257076 0.8522347 0.08205568 0.8522348 0.08205568 0.8522348 0.05257076 0.8522347 0.05257195 0.7631296 0.1622614 0.9752891 0.1064659 0.9752889 0.08087801 0.85648 0.08205604 0.8931431 0.08205652 0.98225 0.05257123 0.9822502 0.2692784 0.9752889 0.2134829 0.9752888 0.1878947 0.85648 0.08205604 0.8931431 0.05257081 0.8931432 0.05257076 0.8522347 0.05257076 0.8522347 0.05257195 0.7631296 0.08205652 0.7631298 0.1064659 0.9752889 0.08087801 0.85648 0.1878497 0.85648 0.08205604 0.8931431 0.08205652 0.98225 0.05257123 0.9822502 0.2692784 0.9752889 0.2134829 0.9752888 0.1878947 0.85648 0.05257081 0.8931432 0.05257076 0.8522347 0.08205568 0.8522348 0.08205568 0.8522348 0.05257076 0.8522347 0.05257195 0.7631296 0.1064659 0.9752889 0.08087801 0.85648 0.1878497 0.85648 0.08205604 0.8931431 0.08205652 0.98225 0.05257123 0.9822502 0.2692784 0.9752889 0.2134829 0.9752888 0.1878947 0.85648 0.05257081 0.8931432 0.05257076 0.8522347 0.08205568 0.8522348 0.08205568 0.8522348 0.05257076 0.8522347 0.05257195 0.7631296 0.1064659 0.9752889 0.08087801 0.85648 0.1878497 0.85648 0.05257081 0.8931432 0.08205604 0.8931431 0.08205652 0.98225 0.2692784 0.9752889 0.2134829 0.9752888 0.1878947 0.85648 0.05257081 0.8931432 0.05257076 0.8522347 0.08205568 0.8522348 0.05257076 0.8522347 0.05257195 0.7631296 0.08205652 0.7631298 0.1064659 0.9752889 0.08087801 0.85648 0.1878497 0.85648 0.05257081 0.8931432 0.08205604 0.8931431 0.08205652 0.98225 0.2692784 0.9752889 0.2134829 0.9752888 0.1878947 0.85648 0.05257081 0.8931432 0.05257076 0.8522347 0.08205568 0.8522348 0.08205568 0.8522348 0.05257076 0.8522347 0.05257195 0.7631296 0.1064659 0.9752889 0.08087801 0.85648 0.1878497 0.85648 0.08205604 0.8931431 0.08205652 0.98225 0.05257123 0.9822502 0.2692784 0.9752889 0.2134829 0.9752888 0.1878947 0.85648 0.05257081 0.8931432 0.05257076 0.8522347 0.08205568 0.8522348 0.08205568 0.8522348 0.05257076 0.8522347 0.05257195 0.7631296 0.1064659 0.9752889 0.08087801 0.85648 0.1878497 0.85648 0.05257081 0.8931432 0.08205604 0.8931431 0.08205652 0.98225 0.2692784 0.9752889 0.2134829 0.9752888 0.1878947 0.85648 0.08205604 0.8931431 0.05257081 0.8931432 0.05257076 0.8522347 0.08205568 0.8522348 0.05257076 0.8522347 0.05257195 0.7631296 0.1064659 0.9752889 0.08087801 0.85648 0.1878497 0.85648 0.05257081 0.8931432 0.08205604 0.8931431 0.08205652 0.98225 0.2692784 0.9752889 0.2134829 0.9752888 0.1878947 0.85648 0.05257081 0.8931432 0.05257076 0.8522347 0.08205568 0.8522348 0.08205568 0.8522348 0.05257076 0.8522347 0.05257195 0.7631296 0.1064659 0.9752889 0.08087801 0.85648 0.1878497 0.85648 0.05257081 0.8931432 0.08205604 0.8931431 0.08205652 0.98225 0.2692784 0.9752889 0.2134829 0.9752888 0.1878947 0.85648 0.08205604 0.8931431 0.05257081 0.8931432 0.05257076 0.8522347 0.05257076 0.8522347 0.05257195 0.7631296 0.08205652 0.7631298 0.1064659 0.9752889 0.08087801 0.85648 0.1878497 0.85648 0.08205604 0.8931431 0.08205652 0.98225 0.05257123 0.9822502 0.2692784 0.9752889 0.2134829 0.9752888 0.1878947 0.85648 0.05257081 0.8931432 0.05257076 0.8522347 0.08205568 0.8522348 0.08205568 0.8522348 0.05257076 0.8522347 0.05257195 0.7631296 0.1064659 0.9752889 0.08087801 0.85648 0.1878497 0.85648 0.05257081 0.8931432 0.08205604 0.8931431 0.08205652 0.98225 0.2692784 0.9752889 0.2134829 0.9752888 0.1878947 0.85648 0.05257081 0.8931432 0.05257076 0.8522347 0.08205568 0.8522348 0.05257076 0.8522347 0.05257195 0.7631296 0.08205652 0.7631298 0.1064659 0.9752889 0.08087801 0.85648 0.1878497 0.85648 0.08205604 0.8931431 0.08205652 0.98225 0.05257123 0.9822502 0.2692784 0.9752889 0.2134829 0.9752888 0.1878947 0.85648 0.05257081 0.8931432 0.05257076 0.8522347 0.08205568 0.8522348 0.08205568 0.8522348 0.05257076 0.8522347 0.05257195 0.7631296 0.1064659 0.9752889 0.08087801 0.85648 0.1878497 0.85648 0.05257081 0.8931432 0.08205604 0.8931431 0.08205652 0.98225 0.2134829 0.9752888 0.1878947 0.85648 0.2948665 0.85648 0.05257081 0.8931432 0.05257076 0.8522347 0.08205568 0.8522348 0.05257076 0.8522347 0.05257195 0.7631296 0.08205652 0.7631298 0.1064659 0.9752889 0.08087801 0.85648 0.1878497 0.85648 0.05257081 0.8931432 0.08205604 0.8931431 0.08205652 0.98225 0.2692784 0.9752889 0.2134829 0.9752888 0.1878947 0.85648 0.05257081 0.8931432 0.05257076 0.8522347 0.08205568 0.8522348 0.08205568 0.8522348 0.05257076 0.8522347 0.05257195 0.7631296 0.1064659 0.9752889 0.08087801 0.85648 0.1878497 0.85648 0.08205604 0.8931431 0.08205652 0.98225 0.05257123 0.9822502 0.2692784 0.9752889 0.2134829 0.9752888 0.1878947 0.85648 0.05257081 0.8931432 0.05257076 0.8522347 0.08205568 0.8522348 0.8631206 0.4577493 0.8631203 0.4801005 0.9972469 0.4801012 0.8645327 0.4801004 0.7314363 0.4800987 0.7314366 0.4577476 0.9972469 0.45775 0.9972469 0.4801012 0.8645327 0.4801004 0.8631206 0.4577493 0.7289941 0.4577476 0.7289938 0.4800989 0.8631206 0.4577493 0.9972469 0.45775 0.9972469 0.4800783 0.8645333 0.4800775 0.864533 0.4577492 0.7314366 0.4577476 0.8645333 0.4800775 0.9972469 0.4800783 0.9972469 0.45775 0.7289945 0.4800759 0.7289941 0.4577476 0.8631206 0.4577493 0.7789502 0.7021963 0.7789502 0.742241 0.7643616 0.742241 0.8626369 0.8317478 0.8322124 0.8317478 0.8335553 0.6698184 0.1887775 0.6987987 0.1887775 0.7830649 0.1547144 0.7830648</float_array>
          <technique_common>
            <accessor source="#Cube_025-mesh-map-0-array" count="1020" stride="2">
              <param name="S" type="float"/>
              <param name="T" type="float"/>
            </accessor>
          </technique_common>
        </source>
        <source id="Cube_025-mesh-map-1">
          <float_array id="Cube_025-mesh-map-1-array" count="2040">0.07032805 0.620846 0.08315497 0.6015605 0.08315497 0.6209571 0.08914178 0.5755105 0.07032799 0.5601564 0.08914178 0.5649839 0.1623085 0.6021224 0.1750761 0.6216564 0.1623085 0.6215175 0.167471 0.6012901 0.1487086 0.585731 0.167471 0.5811116 0.09472274 0.6078894 0.0840786 0.5949462 0.09472274 0.5949462 0.4483234 0.5028239 0.5336152 0.7021679 0.4230817 0.705226 0.3116553 4.16217e-4 0.5143273 0.1258243 0.3116549 0.1258241 0.3969415 0.5028239 0.3116548 0.7023118 0.3116548 0.5030985 0.3108224 0.5194745 0.1051717 0.3915264 0.3091343 0.3940887 0.5143273 0.1258243 0.6193634 0.251204 0.5143275 0.2512039 0.6433147 0.1277381 0.7054575 4.16236e-4 0.7285758 0.1251706 0.3116551 0.2512037 0.514328 0.3765734 0.3116555 0.3765732 0.3102712 0.2686874 0.1068731 0.1467531 0.3108224 0.1432893 0.514328 0.3765734 0.6193633 0.5019915 0.5143273 0.5019914 0.7054574 0.3767679 0.627745 0.2536576 0.7130061 0.2510901 0.3116549 0.1258241 0.5143275 0.2512039 0.3116551 0.2512037 0.1068731 0.1467531 9.69125e-4 6.44607e-4 0.1057246 4.16233e-4 0.30972 0.01790028 0.1068731 0.1467531 0.1057246 4.16233e-4 0.6352937 0.5043314 0.7054574 0.3767679 0.7205548 0.5017639 0.1063153 0.2691381 0.002117574 0.1469815 0.1068731 0.1467531 0.3116555 0.3765732 0.5143273 0.5019914 0.3116549 0.5019912 0.3091343 0.3940887 0.1063153 0.2691381 0.3102712 0.2686874 0.7130061 0.2510901 0.6433147 0.1277381 0.7285758 0.1251706 0.7689685 0.2512812 0.8035544 0.3766046 0.7678316 0.3766825 0.7684172 4.94121e-4 0.8052425 0.1258051 0.7695197 0.1258831 0.8052425 0.1258051 0.7689685 0.2512812 0.7695197 0.1258831 0.8035544 0.3766046 0.7695197 0.5020682 0.7678316 0.3766825 0.8060756 0.3765732 0.8418937 0.2512037 0.8418942 0.3765732 0.806075 0.1258241 0.8418939 4.16265e-4 0.8418935 0.1258242 0.8418937 0.2512037 0.806075 0.1258241 0.8418935 0.1258242 0.8418935 0.5019912 0.8060756 0.3765732 0.8418942 0.3765732 0.7445058 0.5021998 0.7294083 0.3772038 0.736957 0.2515259 0.7525267 0.1256064 0.7294083 8.52072e-4 0.7438808 4.16252e-4 0.7438808 0.376768 0.736957 0.2515259 0.7525267 0.1256064 0.7438808 0.376768 0.7445058 0.5021998 0.736957 0.2515259 0.7438808 0.376768 0.7589783 0.5017639 0.7445058 0.5021998 0.7514296 0.2510901 0.7438808 0.376768 0.7525267 0.1256064 0.7525267 0.1256064 0.7438808 4.16252e-4 0.7669992 0.1251706 0.7514296 0.2510901 0.7525267 0.1256064 0.7669992 0.1251706 0.9814323 0.2512167 0.9860548 0.3766046 0.9802954 0.3766181 0.9819836 0.1258186 0.9866405 4.16229e-4 0.987743 0.1258051 0.9819836 0.1258186 0.9871917 0.2512032 0.9814323 0.2512167 0.9860548 0.3766046 0.9819836 0.5020038 0.9802954 0.3766181 0.9750765 0.3766285 0.9814323 0.2512167 0.9802954 0.3766181 0.9756622 4.40163e-4 0.9819836 0.1258186 0.9767647 0.1258291 0.9819836 0.1258186 0.9762135 0.2512272 0.9767647 0.1258291 0.9750765 0.3766285 0.9819836 0.5020038 0.9767647 0.5020143 0.912593 0.2514468 0.9415491 0.3767825 0.9114561 0.3768481 0.9120414 4.81838e-4 0.9432373 0.1259831 0.9131442 0.1260486 0.9432373 0.1259831 0.912593 0.2514468 0.9131442 0.1260486 0.9415491 0.3767825 0.9131442 0.5022338 0.9114561 0.3768481 0.9440703 0.3767511 0.9742435 0.2513816 0.974244 0.3767511 0.9440698 0.126002 0.9742438 4.16223e-4 0.9742434 0.126002 0.9742435 0.2513816 0.9440698 0.126002 0.9742434 0.126002 0.9742434 0.5021691 0.9440703 0.3767511 0.974244 0.3767511 0.8536913 0.3767679 0.8427267 0.3770982 0.8502753 0.2514203 0.8536913 0.3767679 0.857824 0.5020941 0.8427267 0.3770982 0.8612401 0.2510901 0.8536913 0.3767679 0.8502753 0.2514203 0.8536913 0.3767679 0.8687888 0.5017639 0.857824 0.5020941 0.865845 0.1255008 0.8427267 7.4643e-4 0.8536914 4.16237e-4 0.8612401 0.2510901 0.8502753 0.2514203 0.865845 0.1255008 0.865845 0.1255008 0.8536914 4.16237e-4 0.8768098 0.1251706 0.8612401 0.2510901 0.865845 0.1255008 0.8768098 0.1251706 0.9940799 0.3765795 0.9885757 0.2512037 0.9940795 0.25121 0.9885755 0.1258242 0.9940797 4.22532e-4 0.9940792 0.1258304 0.9940795 0.25121 0.9885755 0.1258242 0.9940792 0.1258304 0.9940799 0.3765795 0.9885755 0.5019912 0.9885761 0.3765733 0.9940799 0.3765795 0.9995834 0.2512038 0.9995838 0.3765733 0.9995832 0.1258242 0.9940797 4.22532e-4 0.9995836 4.16273e-4 0.9995832 0.1258242 0.9940795 0.25121 0.9940792 0.1258304 0.9995832 0.5019912 0.9940799 0.3765795 0.9995838 0.3765733 4.16221e-4 0.5741747 0.01489305 0.5389209 0.01489305 0.5741281 0.5344476 0.7228978 0.5457531 0.5327752 0.5504625 0.7231025 0.5346227 0.5325257 0.5455424 0.5028239 0.5457531 0.5327752 0.1051717 0.3915264 0.001559734 0.2693665 0.1063153 0.2691381 0.5336152 0.7021679 0.4230817 0.8084238 0.4230817 0.705226 0.5143278 4.16401e-4 0.6193633 0.1258244 0.5143273 0.1258243 0.5143275 0.2512039 0.6193639 0.3765735 0.514328 0.3765734 0.4222493 0.7052557 0.3116548 0.8055551 0.3116548 0.7023118 0.1069059 0.53786 4.16204e-4 0.3917547 0.1051717 0.3915264 0.09686243 0.5709688 0.09187161 0.565575 0.09686243 0.560149 0.1419414 0.6015866 0.1291144 0.6208723 0.1291144 0.6014756 0.04984939 0.575511 0.03103566 0.5601569 0.04984939 0.5649844 0.2008711 0.6016742 0.1881036 0.6209306 0.1881036 0.6015353 0.1684573 0.5962558 0.1872197 0.5811114 0.1872197 0.6012899 0.6199935 0.6136217 0.6093494 0.6006785 0.6199935 0.6006785 0.05073308 0.6014282 0.06356 0.6209359 0.05073308 0.6208248 0.5870249 0.5391922 0.5682111 0.5238381 0.5870249 0.5286656 0.1222862 0.6016921 0.1095187 0.6209485 0.1095187 0.6015533 0.2666882 0.5962587 0.2854506 0.5811144 0.2854506 0.6012928 0.288809 0.6150684 0.2781648 0.6021252 0.288809 0.6021252 0.0310356 0.6014464 0.04386258 0.6209541 0.0310356 0.6208431 0.5870249 0.5076514 0.5682111 0.5230057 0.5682111 0.502824 0.1614761 0.6022614 0.1487086 0.6215177 0.1487086 0.6021225 0.2863345 0.5962586 0.3050969 0.5811143 0.3050969 0.6012927 0.09472268 0.5811706 0.08407855 0.5941138 0.08407855 0.5811706 0.1420574 0.5812494 0.1291145 0.6006382 0.1291145 0.5812445 0.0310356 0.5438015 0.04984939 0.5593245 0.0310356 0.5544438 0.06366765 0.5812048 0.05073308 0.6005633 0.05073308 0.5811724 0.07032805 0.5544164 0.08909159 0.5389209 0.08909159 0.5593239 0.2666882 0.6021252 0.2773324 0.6150683 0.2666882 0.6150683 0.2214185 0.6016334 0.2342028 0.6209031 0.2214185 0.6210311 0.2666882 0.5649235 0.285502 0.5802819 0.2666882 0.575453 0.01325643 0.5960325 4.16216e-4 0.6155346 4.16216e-4 0.5961412 0.5869736 0.5705073 0.5682111 0.5860704 0.5682111 0.5658776 0.2896414 0.6021252 0.3002855 0.6150684 0.2896413 0.6150684 0.2490534 0.6016424 0.2618376 0.6209121 0.2490534 0.6210402 0.2863344 0.5649235 0.3051482 0.5802819 0.2863344 0.575453 0.6015771 0.5232489 0.6144173 0.5425335 0.6015771 0.5426423 0.01917874 0.5796369 4.1623e-4 0.5952 4.16245e-4 0.5750071 0.09581995 0.6109714 0.106464 0.6239145 0.09581995 0.6239145 0.220586 0.6015053 0.2078017 0.6210311 0.2078017 0.6016334 0.1684573 0.5649206 0.1872711 0.5802791 0.1684573 0.5754501 0.01408886 0.5961412 0.02692908 0.6154258 0.01408886 0.6155346 0.5869736 0.549482 0.5682111 0.5650452 0.5682111 0.5448523 0.0840786 0.6087219 0.09472268 0.6216651 0.0840786 0.6216651 0.2350351 0.6016334 0.2478194 0.6209031 0.2350351 0.6210312 0.1487086 0.5649207 0.1675224 0.5802791 0.1487086 0.5754502 0.6144201 0.5665683 0.6015799 0.5860704 0.6015799 0.5666771 0.06949555 0.5647768 0.05073308 0.58034 0.05073308 0.5601471 0.5682111 0.607209 0.5788553 0.6201522 0.5682111 0.6201522 0.5878574 0.5029025 0.6007447 0.5222191 0.5878574 0.5222976 0.1291649 0.5437859 0.1479787 0.5592594 0.1291649 0.5543943 0.2353028 0.5812816 0.2482209 0.6006179 0.2353028 0.6006729 0.2854515 0.5436762 0.2666882 0.5592622 0.2666882 0.5389209 0.5956506 0.6201623 0.6062947 0.6072191 0.6062947 0.6201623 0.5682111 0.5869815 0.5810984 0.6062981 0.5682111 0.6063767 0.1488112 0.5437859 0.1676249 0.5592594 0.1488112 0.5543943 0.07032805 0.5812256 0.08324617 0.6005619 0.07032799 0.6006169 0.3050472 0.5436761 0.2862839 0.5592622 0.2862839 0.5389208 0.5796877 0.607209 0.5903318 0.6201522 0.5796877 0.6201522 0.5878574 0.5232086 0.6007447 0.5425252 0.5878574 0.5426037 0.1684573 0.5437859 0.1872711 0.5592594 0.1684573 0.5543943 0.2215523 0.5812816 0.2344704 0.6006179 0.2215523 0.6006729 0.2068668 0.5648291 0.1881036 0.5804151 0.1881036 0.5600738 0.6093494 0.599846 0.6199935 0.5869028 0.6199935 0.599846 0.5948182 0.5869029 0.5819309 0.6063767 0.5819309 0.5869815 0.1095187 0.5437859 0.1283325 0.5592594 0.1095187 0.5543943 0.2207198 0.5812266 0.2078017 0.600673 0.2078017 0.5812816 0.128282 0.5648472 0.1095187 0.5804331 0.1095187 0.5600919 0.1759085 0.6021224 0.1865526 0.6150656 0.1759085 0.6150656 0.5878062 0.5667018 0.6007475 0.5860521 0.5878062 0.5860704 0.1086863 0.5543916 0.08992397 0.5389209 0.1086863 0.5437533 0.0310356 0.5812029 0.04396408 0.6005823 0.0310356 0.600614 0.05068182 0.5544357 0.06949555 0.5389209 0.06949555 0.5593147 0.6199921 0.6273974 0.6093495 0.6144542 0.6199921 0.6144542 0.2010068 0.5813294 0.1881036 0.6006211 0.1881036 0.5812476 0.2069173 0.5543789 0.1881036 0.5389209 0.2069173 0.5437799 0.6144435 0.5028977 0.6015772 0.5222339 0.6015771 0.502824 0.2078018 0.5754047 0.2265635 0.5600739 0.2265635 0.5803942 0.6152407 0.5448524 0.6258838 0.5577955 0.6152406 0.5577956 0.5878061 0.5448523 0.6007094 0.5643076 0.5878061 0.5642258 0.2265635 0.5543789 0.2077498 0.5389209 0.2265635 0.5437799 0.6015418 0.5448523 0.6144082 0.5643361 0.6015418 0.5642622 0.227396 0.5648058 0.2461577 0.5803942 0.2273959 0.5754047 0.6152759 0.5093646 0.625919 0.5223077 0.6152759 0.5223078 0.2619567 0.5813084 0.2490534 0.6006002 0.2490534 0.5812267 0.2658558 0.5543789 0.2470421 0.5389209 0.2658558 0.5437799 0.5956506 0.5869029 0.608517 0.6063867 0.5956507 0.6063128 0.2469901 0.5754047 0.2657518 0.5600739 0.2657518 0.5803942 0.6152498 0.5231403 0.6258928 0.5360834 0.6152498 0.5360835 0.1095187 0.5812656 0.122422 0.600721 0.1095187 0.6006392 0.2462096 0.5543789 0.2273959 0.5389208 0.2462096 0.5437799 0.1086863 0.5907289 0.09581995 0.6100651 0.09581995 0.5906552 0.1291144 0.5754227 0.1478762 0.5600919 0.1478762 0.5804121 0.6152526 0.5665684 0.6258957 0.5795115 0.6152526 0.5795115 0.8941332 0.3765743 0.8776424 0.2512036 0.8941327 0.2512049 0.8776422 0.1258241 0.8941329 4.17479e-4 0.8941325 0.1258254 0.8941327 0.2512049 0.8776422 0.1258241 0.8941325 0.1258254 0.8941332 0.3765743 0.8776422 0.501991 0.8776428 0.3765731 0.8941332 0.3765743 0.9106231 0.2512037 0.9106236 0.3765731 0.910623 0.1258241 0.8941329 4.17479e-4 0.9106234 4.16247e-4 0.910623 0.1258241 0.8941327 0.2512049 0.8941325 0.1258254 0.910623 0.501991 0.8941332 0.3765743 0.9106236 0.3765731 0.3108224 0.5713388 0.3098273 0.555133 0.3108224 0.5389209 0.09769487 0.5897946 0.1086863 0.5601772 0.1086863 0.5898227 0.55612 0.5028239 0.5673786 0.6931704 0.5512949 0.6931809 0.01572549 0.5741126 0.03020316 0.5389579 0.03020316 0.5741496 0.03020316 0.5804023 0.0252121 0.5857971 0.0252121 0.5749821 0.3108224 0.5829863 0.3071206 0.5775694 0.3108224 0.5721713 0.07032805 0.620846 0.07032799 0.6014494 0.08315497 0.6015605 0.08914178 0.5755105 0.07032799 0.5803381 0.07032799 0.5601564 0.1623085 0.6021224 0.1750761 0.6022612 0.1750761 0.6216564 0.167471 0.6012901 0.1487086 0.596256 0.1487086 0.585731 0.09472274 0.6078894 0.08407855 0.6078894 0.0840786 0.5949462 0.4483234 0.5028239 0.5336152 0.5030421 0.5336152 0.7021679 0.3116553 4.16217e-4 0.5143278 4.16401e-4 0.5143273 0.1258243 0.3969415 0.5028239 0.4222493 0.7052557 0.3116548 0.7023118 0.3108224 0.5194745 0.1069059 0.53786 0.1051717 0.3915264 0.5143273 0.1258243 0.6193633 0.1258244 0.6193634 0.251204 0.6433147 0.1277381 0.6201964 0.002983748 0.7054575 4.16236e-4 0.3116551 0.2512037 0.5143275 0.2512039 0.514328 0.3765734 0.3102712 0.2686874 0.1063153 0.2691381 0.1068731 0.1467531 0.514328 0.3765734 0.6193639 0.3765735 0.6193633 0.5019915 0.7054574 0.3767679 0.6201964 0.3793355 0.627745 0.2536576 0.3116549 0.1258241 0.5143273 0.1258243 0.5143275 0.2512039 0.1068731 0.1467531 0.002117574 0.1469815 9.69125e-4 6.44607e-4 0.30972 0.01790028 0.3108224 0.1432893 0.1068731 0.1467531 0.6352937 0.5043314 0.6201964 0.3793355 0.7054574 0.3767679 0.1063153 0.2691381 0.001559734 0.2693665 0.002117574 0.1469815 0.3116555 0.3765732 0.514328 0.3765734 0.5143273 0.5019914 0.3091343 0.3940887 0.1051717 0.3915264 0.1063153 0.2691381 0.7130061 0.2510901 0.627745 0.2536576 0.6433147 0.1277381 0.7689685 0.2512812 0.8046913 0.2512033 0.8035544 0.3766046 0.7684172 4.94121e-4 0.8041402 4.16243e-4 0.8052425 0.1258051 0.8052425 0.1258051 0.8046913 0.2512033 0.7689685 0.2512812 0.8035544 0.3766046 0.8052425 0.5019903 0.7695197 0.5020682 0.8060756 0.3765732 0.8060752 0.2512037 0.8418937 0.2512037 0.806075 0.1258241 0.8060754 4.16233e-4 0.8418939 4.16265e-4 0.8418937 0.2512037 0.8060752 0.2512037 0.806075 0.1258241 0.8418935 0.5019912 0.806075 0.5019912 0.8060756 0.3765732 0.9814323 0.2512167 0.9871917 0.2512032 0.9860548 0.3766046 0.9819836 0.1258186 0.9808812 4.29707e-4 0.9866405 4.16229e-4 0.9819836 0.1258186 0.987743 0.1258051 0.9871917 0.2512032 0.9860548 0.3766046 0.987743 0.5019903 0.9819836 0.5020038 0.9750765 0.3766285 0.9762135 0.2512272 0.9814323 0.2512167 0.9756622 4.40163e-4 0.9808812 4.29707e-4 0.9819836 0.1258186 0.9819836 0.1258186 0.9814323 0.2512167 0.9762135 0.2512272 0.9750765 0.3766285 0.9802954 0.3766181 0.9819836 0.5020038 0.912593 0.2514468 0.9426861 0.2513812 0.9415491 0.3767825 0.9120414 4.81838e-4 0.9421344 4.16234e-4 0.9432373 0.1259831 0.9432373 0.1259831 0.9426861 0.2513812 0.912593 0.2514468 0.9415491 0.3767825 0.9432373 0.5021682 0.9131442 0.5022338 0.9440703 0.3767511 0.9440699 0.2513816 0.9742435 0.2513816 0.9440698 0.126002 0.9440702 4.16196e-4 0.9742438 4.16223e-4 0.9742435 0.2513816 0.9440699 0.2513816 0.9440698 0.126002 0.9742434 0.5021691 0.9440697 0.5021691 0.9440703 0.3767511 0.9940799 0.3765795 0.9885761 0.3765733 0.9885757 0.2512037 0.9885755 0.1258242 0.9885759 4.16263e-4 0.9940797 4.22532e-4 0.9940795 0.25121 0.9885757 0.2512037 0.9885755 0.1258242 0.9940799 0.3765795 0.9940792 0.5019975 0.9885755 0.5019912 0.9940799 0.3765795 0.9940795 0.25121 0.9995834 0.2512038 0.9995832 0.1258242 0.9940792 0.1258304 0.9940797 4.22532e-4 0.9995832 0.1258242 0.9995834 0.2512038 0.9940795 0.25121 0.9995832 0.5019912 0.9940792 0.5019975 0.9940799 0.3765795 4.16221e-4 0.5741747 4.16221e-4 0.5389675 0.01489305 0.5389209 0.5344476 0.7228978 0.5346227 0.5325257 0.5457531 0.5327752 0.5346227 0.5325257 0.5344476 0.5029253 0.5455424 0.5028239 0.1051717 0.3915264 4.16204e-4 0.3917547 0.001559734 0.2693665 0.5336152 0.7021679 0.5336152 0.8053658 0.4230817 0.8084238 0.5143278 4.16401e-4 0.6193637 4.16497e-4 0.6193633 0.1258244 0.5143275 0.2512039 0.6193634 0.251204 0.6193639 0.3765735 0.4222493 0.7052557 0.4222493 0.8084989 0.3116548 0.8055551 0.1069059 0.53786 0.002150356 0.5380885 4.16204e-4 0.3917547 0.1419414 0.6015866 0.1419414 0.6209833 0.1291144 0.6208723 0.04984939 0.575511 0.03103566 0.5803387 0.03103566 0.5601569 0.2008711 0.6016742 0.2008711 0.6210694 0.1881036 0.6209306 0.1684573 0.5962558 0.1684573 0.5857309 0.1872197 0.5811114 0.6199935 0.6136217 0.6093494 0.6136217 0.6093494 0.6006785 0.05073308 0.6014282 0.06356 0.6015393 0.06356 0.6209359 0.5870249 0.5391922 0.5682111 0.5440199 0.5682111 0.5238381 0.1222862 0.6016921 0.1222863 0.6210874 0.1095187 0.6209485 0.2666882 0.5962587 0.2666882 0.5857338 0.2854506 0.5811144 0.288809 0.6150684 0.2781648 0.6150684 0.2781648 0.6021252 0.0310356 0.6014464 0.04386258 0.6015574 0.04386258 0.6209541 0.5870249 0.5076514 0.5870249 0.5181781 0.5682111 0.5230057 0.1614761 0.6022614 0.1614761 0.6216565 0.1487086 0.6215177 0.2863345 0.5962586 0.2863345 0.5857338 0.3050969 0.5811143 0.09472268 0.5811706 0.09472268 0.5941138 0.08407855 0.5941138 0.1420574 0.5812494 0.1420574 0.6006431 0.1291145 0.6006382 0.0310356 0.5438015 0.04984939 0.5389208 0.04984939 0.5593245 0.06366765 0.5812048 0.06366765 0.6005957 0.05073308 0.6005633 0.07032805 0.5544164 0.07032805 0.5437743 0.08909159 0.5389209 0.2666882 0.6021252 0.2773324 0.6021252 0.2773324 0.6150683 0.2214185 0.6016334 0.2342028 0.6015053 0.2342028 0.6209031 0.2666882 0.5649235 0.285502 0.5600947 0.285502 0.5802819 0.01325643 0.5960325 0.01325643 0.6154258 4.16216e-4 0.6155346 0.5869736 0.5705073 0.5869736 0.5810397 0.5682111 0.5860704 0.2896414 0.6021252 0.3002855 0.6021252 0.3002855 0.6150684 0.2490534 0.6016424 0.2618376 0.6015143 0.2618376 0.6209121 0.2863344 0.5649235 0.3051482 0.5600947 0.3051482 0.5802819 0.6015771 0.5232489 0.6144173 0.5231401 0.6144173 0.5425335 0.01917874 0.5796369 0.01917874 0.5901693 4.1623e-4 0.5952 0.09581995 0.6109714 0.106464 0.6109714 0.106464 0.6239145 0.220586 0.6015053 0.220586 0.6209031 0.2078017 0.6210311 0.1684573 0.5649206 0.1872711 0.5600918 0.1872711 0.5802791 0.01408886 0.5961412 0.02692908 0.5960324 0.02692908 0.6154258 0.5869736 0.549482 0.5869736 0.5600144 0.5682111 0.5650452 0.0840786 0.6087219 0.09472268 0.6087219 0.09472268 0.6216651 0.2350351 0.6016334 0.2478194 0.6015054 0.2478194 0.6209031 0.1487086 0.5649207 0.1675224 0.5600919 0.1675224 0.5802791 0.6144201 0.5665683 0.6144201 0.5859616 0.6015799 0.5860704 0.06949555 0.5647768 0.06949555 0.5753092 0.05073308 0.58034 0.5682111 0.607209 0.5788553 0.607209 0.5788553 0.6201522 0.5878574 0.5029025 0.6007447 0.5028239 0.6007447 0.5222191 0.1291649 0.5437859 0.1479787 0.5389208 0.1479787 0.5592594 0.2353028 0.5812816 0.2482209 0.5812265 0.2482209 0.6006179 0.2854515 0.5436762 0.2854515 0.5542861 0.2666882 0.5592622 0.5956506 0.6201623 0.5956506 0.6072191 0.6062947 0.6072191 0.5682111 0.5869815 0.5810984 0.5869029 0.5810984 0.6062981 0.1488112 0.5437859 0.1676249 0.5389208 0.1676249 0.5592594 0.07032805 0.5812256 0.08324617 0.5811706 0.08324617 0.6005619 0.3050472 0.5436761 0.3050472 0.5542861 0.2862839 0.5592622 0.5796877 0.607209 0.5903318 0.607209 0.5903318 0.6201522 0.5878574 0.5232086 0.6007447 0.5231301 0.6007447 0.5425252 0.1684573 0.5437859 0.1872711 0.5389209 0.1872711 0.5592594 0.2215523 0.5812816 0.2344704 0.5812266 0.2344704 0.6006179 0.2068668 0.5648291 0.2068668 0.575439 0.1881036 0.5804151 0.6093494 0.599846 0.6093494 0.5869028 0.6199935 0.5869028 0.5948182 0.5869029 0.5948182 0.6062981 0.5819309 0.6063767 0.1095187 0.5437859 0.1283325 0.5389209 0.1283325 0.5592594 0.2207198 0.5812266 0.2207198 0.600618 0.2078017 0.600673 0.128282 0.5648472 0.128282 0.575457 0.1095187 0.5804331 0.1759085 0.6021224 0.1865526 0.6021224 0.1865526 0.6150656 0.5878062 0.5667018 0.6007475 0.5666835 0.6007475 0.5860521 0.1086863 0.5543916 0.08992397 0.5593166 0.08992397 0.5389209 0.0310356 0.5812029 0.04396408 0.5811712 0.04396408 0.6005823 0.05068182 0.5544357 0.05068176 0.5437985 0.06949555 0.5389209 0.6199921 0.6273974 0.6093494 0.6273974 0.6093495 0.6144542 0.2010068 0.5813294 0.2010068 0.600703 0.1881036 0.6006211 0.2069173 0.5543789 0.1881036 0.5592414 0.1881036 0.5389209 0.6144435 0.5028977 0.6144435 0.5223077 0.6015772 0.5222339 0.2078018 0.5754047 0.2078018 0.5648058 0.2265635 0.5600739 0.6152407 0.5448524 0.6258838 0.5448523 0.6258838 0.5577955 0.5878061 0.5448523 0.6007094 0.544934 0.6007094 0.5643076 0.2265635 0.5543789 0.2077497 0.5592414 0.2077498 0.5389209 0.6015418 0.5448523 0.6144082 0.5449261 0.6144082 0.5643361 0.227396 0.5648058 0.2461577 0.5600739 0.2461577 0.5803942 0.6152759 0.5093646 0.625919 0.5093646 0.625919 0.5223077 0.2619567 0.5813084 0.2619567 0.600682 0.2490534 0.6006002 0.2658558 0.5543789 0.2470421 0.5592414 0.2470421 0.5389209 0.5956506 0.5869029 0.608517 0.5869767 0.608517 0.6063867 0.2469901 0.5754047 0.2469901 0.5648058 0.2657518 0.5600739 0.6152498 0.5231403 0.6258928 0.5231402 0.6258928 0.5360834 0.1095187 0.5812656 0.122422 0.5813474 0.122422 0.600721 0.2462096 0.5543789 0.2273959 0.5592414 0.2273959 0.5389208 0.1086863 0.5907289 0.1086863 0.6101389 0.09581995 0.6100651 0.1291144 0.5754227 0.1291144 0.5648238 0.1478762 0.5600919 0.6152526 0.5665684 0.6258957 0.5665683 0.6258957 0.5795115 0.8941332 0.3765743 0.8776428 0.3765731 0.8776424 0.2512036 0.8776422 0.1258241 0.8776426 4.16217e-4 0.8941329 4.17479e-4 0.8941327 0.2512049 0.8776424 0.2512036 0.8776422 0.1258241 0.8941332 0.3765743 0.8941325 0.5019923 0.8776422 0.501991 0.8941332 0.3765743 0.8941327 0.2512049 0.9106231 0.2512037 0.910623 0.1258241 0.8941325 0.1258254 0.8941329 4.17479e-4 0.910623 0.1258241 0.9106231 0.2512037 0.8941327 0.2512049 0.910623 0.501991 0.8941325 0.5019923 0.8941332 0.3765743 0.09769487 0.5897946 0.09769487 0.560149 0.1086863 0.5601772 0.55612 0.5028239 0.5673786 0.5029246 0.5673786 0.6931704 0.01572549 0.5741126 0.01572549 0.5389209 0.03020316 0.5389579</float_array>
          <technique_common>
            <accessor source="#Cube_025-mesh-map-1-array" count="1020" stride="2">
              <param name="S" type="float"/>
              <param name="T" type="float"/>
            </accessor>
          </technique_common>
        </source>
        <vertices id="Cube_025-mesh-vertices">
          <input semantic="POSITION" source="#Cube_025-mesh-positions"/>
        </vertices>
        <triangles material="Material_003-material" count="340">
          <input semantic="VERTEX" source="#Cube_025-mesh-vertices" offset="0"/>
          <input semantic="NORMAL" source="#Cube_025-mesh-normals" offset="1"/>
          <input semantic="TEXCOORD" source="#Cube_025-mesh-map-0" offset="2" set="0"/>
          <input semantic="TEXCOORD" source="#Cube_025-mesh-map-1" offset="2" set="1"/>
          <p>0 0 0 5 0 1 1 0 2 6 1 3 1 1 4 5 1 5 6 2 6 3 2 7 2 2 8 3 3 9 4 3 10 0 3 11 6 4 12 4 4 13 7 4 14 12 5 15 9 5 16 8 5 17 14 6 18 22 6 19 20 6 20 15 7 21 10 7 22 14 7 23 12 8 24 24 8 25 26 8 26 22 9 27 128 9 28 17 9 29 25 4 30 12 4 31 26 4 32 16 10 33 27 10 34 25 10 35 18 11 36 21 11 37 23 11 38 27 12 39 125 12 40 9 12 41 23 4 42 16 4 43 18 4 44 20 13 45 17 13 46 16 13 47 21 14 48 127 14 49 11 14 50 15 15 51 21 15 52 11 15 53 14 16 54 23 16 55 15 16 56 19 17 57 130 17 58 21 17 59 25 18 60 9 18 61 13 18 62 26 19 63 19 19 64 18 19 65 18 4 66 25 4 67 26 4 68 30 20 69 37 20 70 32 20 71 29 21 72 36 21 73 31 21 74 36 22 75 30 22 76 31 22 77 37 23 78 28 23 79 32 23 80 47 24 81 40 24 82 42 24 83 46 25 84 39 25 85 41 25 86 40 26 87 46 26 88 41 26 89 38 27 90 47 27 91 42 27 92 54 4 93 56 4 94 55 4 95 57 28 96 53 28 97 48 28 98 51 29 99 55 29 100 57 29 101 51 4 102 54 4 103 55 4 104 51 4 105 49 4 106 54 4 107 50 4 108 51 4 109 57 4 110 57 4 111 48 4 112 52 4 113 50 4 114 57 4 115 52 4 116 68 30 117 67 31 118 69 32 119 71 33 120 64 34 121 66 35 122 71 33 123 65 36 124 68 30 125 67 31 126 72 37 127 69 32 128 62 38 129 68 30 130 69 32 131 59 39 132 71 33 133 61 40 134 71 33 135 60 41 136 61 40 137 62 38 138 72 37 139 58 42 140 75 43 141 82 43 142 77 43 143 74 44 144 81 44 145 76 44 146 81 45 147 75 45 148 76 45 149 82 46 150 73 46 151 77 46 152 92 47 153 85 47 154 87 47 155 91 48 156 84 48 157 86 48 158 85 49 159 91 49 160 86 49 161 83 50 162 92 50 163 87 50 164 96 4 165 101 4 166 100 4 167 96 4 168 99 4 169 101 4 170 95 51 171 96 51 172 100 51 173 96 52 174 94 52 175 99 52 176 102 53 177 98 53 178 93 53 179 95 4 180 100 4 181 102 4 182 102 54 183 93 54 184 97 54 185 95 55 186 102 55 187 97 55 188 114 56 189 110 57 190 113 58 191 111 59 192 115 60 193 116 61 194 113 58 195 111 59 196 116 61 197 114 56 198 108 62 199 112 63 200 114 56 201 105 64 202 107 65 203 106 66 204 115 60 205 104 67 206 106 66 207 113 58 208 116 61 209 103 68 210 114 56 211 107 65 212 39 7 213 34 7 214 29 7 215 120 69 216 119 69 217 118 69 218 121 70 219 122 70 220 119 70 221 24 71 222 129 71 223 19 71 224 9 72 225 124 72 226 8 72 227 10 6 228 131 6 229 22 6 230 17 73 231 133 73 232 27 73 233 11 74 234 126 74 235 10 74 236 8 75 237 132 75 238 24 75 239 104 76 240 115 76 241 109 76 242 139 77 243 134 77 244 138 77 245 140 78 246 135 78 247 139 78 248 141 79 249 136 79 250 140 79 251 141 80 252 134 80 253 137 80 254 140 4 255 138 4 256 141 4 257 146 81 258 143 81 259 142 81 260 148 82 261 143 82 262 147 82 263 149 83 264 144 83 265 148 83 266 149 84 267 142 84 268 145 84 269 148 4 270 146 4 271 149 4 272 154 85 273 151 85 274 150 85 275 155 86 276 152 86 277 151 86 278 157 87 279 152 87 280 156 87 281 157 88 282 150 88 283 153 88 284 157 4 285 155 4 286 154 4 287 163 89 288 158 89 289 162 89 290 164 90 291 159 90 292 163 90 293 165 91 294 160 91 295 164 91 296 165 92 297 158 92 298 161 92 299 164 93 300 162 93 301 165 93 302 170 94 303 167 94 304 166 94 305 172 95 306 167 95 307 171 95 308 173 96 309 168 96 310 172 96 311 173 97 312 166 97 313 169 97 314 172 98 315 170 98 316 173 98 317 178 99 318 175 99 319 174 99 320 180 100 321 175 100 322 179 100 323 180 101 324 177 101 325 176 101 326 181 102 327 174 102 328 177 102 329 180 103 330 178 103 331 181 103 332 187 104 333 182 104 334 186 104 335 188 105 336 183 105 337 187 105 338 188 106 339 185 106 340 184 106 341 189 107 342 182 107 343 185 107 344 188 108 345 186 108 346 189 108 347 194 109 348 191 109 349 190 109 350 196 110 351 191 110 352 195 110 353 197 111 354 192 111 355 196 111 356 197 112 357 190 112 358 193 112 359 196 113 360 194 113 361 197 113 362 202 114 363 199 114 364 198 114 365 204 115 366 199 115 367 203 115 368 204 116 369 201 116 370 200 116 371 205 117 372 198 117 373 201 117 374 205 4 375 203 4 376 202 4 377 210 118 378 207 118 379 206 118 380 212 119 381 207 119 382 211 119 383 212 120 384 209 120 385 208 120 386 213 121 387 206 121 388 209 121 389 212 122 390 210 122 391 213 122 392 218 123 393 215 123 394 214 123 395 220 124 396 215 124 397 219 124 398 220 125 399 217 125 400 216 125 401 221 126 402 214 126 403 217 126 404 221 4 405 219 4 406 218 4 407 227 127 408 222 127 409 226 127 410 228 128 411 223 128 412 227 128 413 229 129 414 224 129 415 228 129 416 229 130 417 222 130 418 225 130 419 228 131 420 226 131 421 229 131 422 234 132 423 231 132 424 230 132 425 236 133 426 231 133 427 235 133 428 236 134 429 233 134 430 232 134 431 237 135 432 230 135 433 233 135 434 236 136 435 234 136 436 237 136 437 243 137 438 238 137 439 242 137 440 244 138 441 239 138 442 243 138 443 245 139 444 240 139 445 244 139 446 245 140 447 238 140 448 241 140 449 244 141 450 242 141 451 245 141 452 250 142 453 247 142 454 246 142 455 252 143 456 247 143 457 251 143 458 252 144 459 249 144 460 248 144 461 250 145 462 249 145 463 253 145 464 252 146 465 250 146 466 253 146 467 259 147 468 254 147 469 258 147 470 260 148 471 255 148 472 259 148 473 260 149 474 257 149 475 256 149 476 261 150 477 254 150 478 257 150 479 260 151 480 258 151 481 261 151 482 266 152 483 263 152 484 262 152 485 268 153 486 263 153 487 267 153 488 269 154 489 264 154 490 268 154 491 269 155 492 262 155 493 265 155 494 268 156 495 266 156 496 269 156 497 281 157 498 277 158 499 280 159 500 278 160 501 282 161 502 283 162 503 280 159 504 278 160 505 283 162 506 281 157 507 275 163 508 279 164 509 281 157 510 272 165 511 274 166 512 273 167 513 282 161 514 271 168 515 273 167 516 280 159 517 283 162 518 270 169 519 281 157 520 274 166 521 271 7 522 282 7 523 276 7 524 73 170 525 88 170 526 83 170 527 286 171 528 287 171 529 285 171 530 28 170 531 43 170 532 38 170 533 117 170 534 103 170 535 108 170 536 58 172 537 72 172 538 63 172 539 0 173 540 4 173 541 5 173 542 6 174 543 2 174 544 1 174 545 6 175 546 7 175 547 3 175 548 3 176 549 7 176 550 4 176 551 6 4 552 5 4 553 4 4 554 12 170 555 13 170 556 9 170 557 14 177 558 10 177 559 22 177 560 15 178 561 11 178 562 10 178 563 12 179 564 8 179 565 24 179 566 22 9 567 131 9 568 128 9 569 25 4 570 13 4 571 12 4 572 16 180 573 17 180 574 27 180 575 18 181 576 19 181 577 21 181 578 27 182 579 133 182 580 125 182 581 23 183 582 20 183 583 16 183 584 20 13 585 22 13 586 17 13 587 21 184 588 130 184 589 127 184 590 15 185 591 23 185 592 21 185 593 14 4 594 20 4 595 23 4 596 19 186 597 129 186 598 130 186 599 25 187 600 27 187 601 9 187 602 26 188 603 24 188 604 19 188 605 18 189 606 16 189 607 25 189 608 30 190 609 35 190 610 37 190 611 29 191 612 34 191 613 36 191 614 36 192 615 35 192 616 30 192 617 37 193 618 33 193 619 28 193 620 47 24 621 45 24 622 40 24 623 46 194 624 44 194 625 39 194 626 40 26 627 45 26 628 46 26 629 38 195 630 43 195 631 47 195 632 68 30 633 65 36 634 67 31 635 71 33 636 70 196 637 64 34 638 71 33 639 66 35 640 65 36 641 67 31 642 63 197 643 72 37 644 62 38 645 60 41 646 68 30 647 59 39 648 70 196 649 71 33 650 71 33 651 68 30 652 60 41 653 62 38 654 69 32 655 72 37 656 75 43 657 80 43 658 82 43 659 74 198 660 79 198 661 81 198 662 81 45 663 80 45 664 75 45 665 82 199 666 78 199 667 73 199 668 92 200 669 90 200 670 85 200 671 91 201 672 89 201 673 84 201 674 85 49 675 90 49 676 91 49 677 83 202 678 88 202 679 92 202 680 114 56 681 112 63 682 110 57 683 111 59 684 109 203 685 115 60 686 113 58 687 110 57 688 111 59 689 114 56 690 117 204 691 108 62 692 114 56 693 113 58 694 105 64 695 106 66 696 116 61 697 115 60 698 106 66 699 105 64 700 113 58 701 103 68 702 117 204 703 114 56 704 39 7 705 44 7 706 34 7 707 120 205 708 121 205 709 119 205 710 121 7 711 123 7 712 122 7 713 24 206 714 132 206 715 129 206 716 9 207 717 125 207 718 124 207 719 10 208 720 126 208 721 131 208 722 17 209 723 128 209 724 133 209 725 11 210 726 127 210 727 126 210 728 8 211 729 124 211 730 132 211 731 139 212 732 135 212 733 134 212 734 140 213 735 136 213 736 135 213 737 141 214 738 137 214 739 136 214 740 141 215 741 138 215 742 134 215 743 140 4 744 139 4 745 138 4 746 146 216 747 147 216 748 143 216 749 148 86 750 144 86 751 143 86 752 149 217 753 145 217 754 144 217 755 149 218 756 146 218 757 142 218 758 148 4 759 147 4 760 146 4 761 154 219 762 155 219 763 151 219 764 155 220 765 156 220 766 152 220 767 157 221 768 153 221 769 152 221 770 157 222 771 154 222 772 150 222 773 157 4 774 156 4 775 155 4 776 163 223 777 159 223 778 158 223 779 164 224 780 160 224 781 159 224 782 165 225 783 161 225 784 160 225 785 165 226 786 162 226 787 158 226 788 164 4 789 163 4 790 162 4 791 170 227 792 171 227 793 167 227 794 172 228 795 168 228 796 167 228 797 173 229 798 169 229 799 168 229 800 173 230 801 170 230 802 166 230 803 172 231 804 171 231 805 170 231 806 178 232 807 179 232 808 175 232 809 180 233 810 176 233 811 175 233 812 180 234 813 181 234 814 177 234 815 181 235 816 178 235 817 174 235 818 180 4 819 179 4 820 178 4 821 187 236 822 183 236 823 182 236 824 188 237 825 184 237 826 183 237 827 188 238 828 189 238 829 185 238 830 189 107 831 186 107 832 182 107 833 188 4 834 187 4 835 186 4 836 194 239 837 195 239 838 191 239 839 196 240 840 192 240 841 191 240 842 197 241 843 193 241 844 192 241 845 197 242 846 194 242 847 190 242 848 196 4 849 195 4 850 194 4 851 202 243 852 203 243 853 199 243 854 204 244 855 200 244 856 199 244 857 204 245 858 205 245 859 201 245 860 205 246 861 202 246 862 198 246 863 205 247 864 204 247 865 203 247 866 210 248 867 211 248 868 207 248 869 212 249 870 208 249 871 207 249 872 212 250 873 213 250 874 209 250 875 213 251 876 210 251 877 206 251 878 212 4 879 211 4 880 210 4 881 218 252 882 219 252 883 215 252 884 220 253 885 216 253 886 215 253 887 220 254 888 221 254 889 217 254 890 221 255 891 218 255 892 214 255 893 221 256 894 220 256 895 219 256 896 227 257 897 223 257 898 222 257 899 228 258 900 224 258 901 223 258 902 229 259 903 225 259 904 224 259 905 229 260 906 226 260 907 222 260 908 228 4 909 227 4 910 226 4 911 234 261 912 235 261 913 231 261 914 236 262 915 232 262 916 231 262 917 236 263 918 237 263 919 233 263 920 237 264 921 234 264 922 230 264 923 236 265 924 235 265 925 234 265 926 243 266 927 239 266 928 238 266 929 244 267 930 240 267 931 239 267 932 245 268 933 241 268 934 240 268 935 245 269 936 242 269 937 238 269 938 244 270 939 243 270 940 242 270 941 250 271 942 251 271 943 247 271 944 252 272 945 248 272 946 247 272 947 252 273 948 253 273 949 249 273 950 250 274 951 246 274 952 249 274 953 252 275 954 251 275 955 250 275 956 259 276 957 255 276 958 254 276 959 260 277 960 256 277 961 255 277 962 260 278 963 261 278 964 257 278 965 261 279 966 258 279 967 254 279 968 260 280 969 259 280 970 258 280 971 266 281 972 267 281 973 263 281 974 268 282 975 264 282 976 263 282 977 269 283 978 265 283 979 264 283 980 269 284 981 266 284 982 262 284 983 268 285 984 267 285 985 266 285 986 281 157 987 279 164 988 277 158 989 278 160 990 276 286 991 282 161 992 280 159 993 277 158 994 278 160 995 281 157 996 284 287 997 275 163 998 281 157 999 280 159 1000 272 165 1001 273 167 1002 283 162 1003 282 161 1004 273 167 1005 272 165 1006 280 159 1007 270 169 1008 284 287 1009 281 157 1010 73 170 1011 78 170 1012 88 170 1013 286 288 1014 288 288 1015 287 288 1016 28 170 1017 33 170 1018 43 170 1019</p>
        </triangles>
      </mesh>
    </geometry>
  </library_geometries>
  <library_visual_scenes>
    <visual_scene id="Scene" name="Scene">
      <node id="Cube_011" name="Cube_011" type="NODE">
        <matrix sid="transform">0.2537649 0 0 0 0 0.2537649 0 0 0 0 0.2537649 -0.5630162 0 0 0 1</matrix>
        <instance_geometry url="#Cube_025-mesh" name="Cube_011">
          <bind_material>
            <technique_common>
              <instance_material symbol="Material_003-material" target="#Material_003-material">
                <bind_vertex_input semantic="Cube_025-mesh-map-0" input_semantic="TEXCOORD" input_set="0"/>
                <bind_vertex_input semantic="UVMap" input_semantic="TEXCOORD" input_set="1"/>
              </instance_material>
            </technique_common>
          </bind_material>
        </instance_geometry>
        <node id="prop_bush_2" name="prop_bush_2" type="NODE">
          <matrix sid="transform">3.940655 0 0 -41.67754 0 3.940655 0 15.84143 0 0 3.940655 2.218652 0 0 0 1</matrix>
        </node>
        <node id="prop_bush_3" name="prop_bush_3" type="NODE">
          <matrix sid="transform">3.940655 0 0 23.06989 0 3.940655 0 -19.65384 0 0 3.940655 2.218652 0 0 0 1</matrix>
        </node>
        <node id="prop_bush_1" name="prop_bush_1" type="NODE">
          <matrix sid="transform">3.940655 0 0 56.45222 0 3.940655 0 14.86731 0 0 3.940655 2.218652 0 0 0 1</matrix>
        </node>
      </node>
    </visual_scene>
  </library_visual_scenes>
  <scene>
    <instance_visual_scene url="#Scene"/>
  </scene>
</COLLADA>