<?xml version="1.0" encoding="utf-8"?>
<COLLADA xmlns="http://www.collada.org/2005/11/COLLADASchema" version="1.4.1" xmlns:xsi="http://www.w3.org/2001/XMLSchema-instance">
  <asset>
    <contributor>
      <author>Blender User</author>
      <authoring_tool>Blender 4.3.1 commit date:2024-12-10, commit time:07:46, hash:33d812126174</authoring_tool>
    </contributor>
    <created>2026-04-09T18:12:21</created>
    <modified>2026-04-09T18:12:21</modified>
    <unit name="inch" meter="0.0254"/>
    <up_axis>Z_UP</up_axis>
  </asset>
  <library_effects>
    <effect id="Material_004-effect">
      <profile_COMMON>
        <newparam sid="Untitled_009-surface">
          <surface type="2D">
            <init_from>Untitled_009</init_from>
          </surface>
        </newparam>
        <newparam sid="Untitled_009-sampler">
          <sampler2D>
            <source>Untitled_009-surface</source>
          </sampler2D>
        </newparam>
        <technique sid="common">
          <lambert>
            <emission>
              <color sid="emission">0 0 0 1</color>
            </emission>
            <diffuse>
              <texture texture="Untitled_009-sampler" texcoord="UVMap"/>
            </diffuse>
            <index_of_refraction>
              <float sid="ior">1.5</float>
            </index_of_refraction>
          </lambert>
        </technique>
      </profile_COMMON>
    </effect>
  </library_effects>
  <library_images>
    <image id="Untitled_009" name="Untitled_009">
      <init_from>Untitled.009.png</init_from>
    </image>
  </library_images>
  <library_materials>
    <material id="Material_004-material" name="Material.004">
      <instance_effect url="#Material_004-effect"/>
    </material>
  </library_materials>
  <library_geometries>
    <geometry id="Cube_031-mesh" name="Cube.031">
      <mesh>
        <source id="Cube_031-mesh-positions">
          <float_array id="Cube_031-mesh-positions-array" count="468">-51.83782 -12.48517 54.82455 -52.04439 -8.84994 54.82455 -45.59152 -8.788388 54.82455 -45.38496 -12.42362 54.82455 -50.29428 -12.47044 60.118 -50.50083 -8.83521 60.118 -47.13507 -8.803109 60.118 -46.92853 -12.43834 60.118 -43.45416 -12.56202 54.82455 -43.55807 -8.92441 54.82455 -37.10486 -8.961668 54.82455 -37.00095 -12.59928 54.82455 -41.91054 -12.57092 60.118 -42.01444 -8.933319 60.118 -38.64851 -8.952755 60.118 -38.54459 -12.59036 60.118 -34.69516 -12.7909 54.82455 -34.93834 -9.156895 54.82455 -28.48626 -9.060075 54.82455 -28.24309 -12.69408 54.82455 -33.1518 -12.76773 60.118 -33.39498 -9.13373 60.118 -30.02963 -9.083233 60.118 -29.78646 -12.71723 60.118 -26.18464 -12.61601 54.82455 -26.32058 -8.977783 54.82455 -19.8726 -8.89587 54.82455 -19.73666 -12.53409 54.82455 -24.64226 -12.59641 60.118 -24.77821 -8.958185 60.118 -21.41498 -8.915461 60.118 -21.27904 -12.55369 60.118 -17.72261 -12.67022 54.82455 -17.7311 -9.034682 54.82455 -11.27567 -8.867124 54.82455 -11.26718 -12.50266 54.82455 -16.17845 -12.63013 60.118 -16.18694 -8.994598 60.118 -12.81984 -8.907199 60.118 -12.81135 -12.54274 60.118 -9.135849 -12.46176 54.82455 -9.008093 -8.827439 54.82455 -2.54884 -8.791172 54.82455 -2.676598 -12.42549 54.82455 -7.590773 -12.45308 60.118 -7.463024 -8.818759 60.118 -4.093931 -8.799842 60.118 -4.221685 -12.43417 60.118 -59.36023 -19.53962 -12 -55.37511 11.49377 -11.99999 0.2467454 11.49377 -11.99999 4.231859 -19.53962 -12 -55.37511 -12.50622 45.02408 -55.37511 11.49377 45.02408 0.2467454 11.49377 45.02408 0.2467454 -12.50622 45.02408 0.3496393 11.36713 45.02408 0.3496393 11.36713 -11.99999 0.3496393 -12.63286 45.02408 4.133779 -19.66626 -12 -26.84322 -19.98353 -12 -27.51274 11.04986 45.02408 -27.51274 -12.95013 45.02408 -27.51274 11.04986 -11.99999 -55.37511 -12.50622 45.02408 0.2467454 -12.50622 45.02408 0.3496393 -12.63286 45.02408 -27.51274 -12.95013 45.02408 -55.37511 -12.50622 55.102 0.2467454 -12.50622 55.102 0.3496393 -12.63286 55.102 -27.51274 -12.95013 55.102 -55.37511 -8.432386 45.02408 0.2467454 -8.432386 45.02408 0.3496393 -8.559023 45.02408 -27.51274 -8.87629 45.02408 -55.37511 -8.432386 55.102 0.2467454 -8.432386 55.102 0.3496393 -8.559023 55.102 -27.51274 -8.87629 55.102 -55.37511 -12.50622 55.102 0.3496393 -12.63286 55.102 -27.51274 -12.95013 55.102 -55.37511 -8.432386 55.102 0.3496393 -8.559023 55.102 -27.51274 -8.87629 55.102 -55.37511 -12.63844 45.13266 0.3496393 -12.76508 45.13266 -27.51273 -13.08235 45.13266 -55.37511 -12.63844 48.22979 0.3496393 -12.76508 48.22979 -27.51273 -13.08235 48.22979 0.3496393 -13.80673 46.68122 -27.51273 -14.124 46.68122 -55.37511 -13.68009 46.68122 -55.37511 8.394903 45.02408 0.3496393 8.268263 45.02408 -27.51274 7.950997 45.02408 -55.37511 8.394903 53.51375 0.3496393 8.268263 53.51375 -27.51274 7.950997 53.51375 -55.37511 11.48775 45.02408 0.3496393 11.36111 45.02408 -27.51274 11.04384 45.02408 -55.37511 11.48775 53.51375 0.3496393 11.36111 53.51375 -27.51274 11.04384 53.51375 -55.37511 8.401308 53.52634 0.3496393 8.274668 53.52634 -27.51274 7.957402 53.52634 -55.37511 11.48775 53.52634 0.3496393 11.36111 53.52634 -27.51274 11.04384 53.52634 -55.37511 11.3781 45.13266 0.2467397 11.3781 45.13266 0.3496393 11.25147 45.13266 -27.51273 10.9342 45.13266 -55.37511 11.3781 48.22979 0.2467397 11.3781 48.22979 0.3496393 11.25147 48.22979 -27.51273 10.9342 48.22979 0.3496393 12.65589 46.68122 -27.51273 12.33862 46.68122 0.2467397 12.78253 46.68122 -55.37511 12.78253 46.68122 0.827331 7.413908 -9.425667 0.827331 8.422192 45.06516 0.4033159 11.91075 -9.425667 0.4033159 11.54444 45.06516 0.4033159 8.422192 53.53833 0.4033159 11.54444 53.53833 -59.36023 -19.53962 -41.55298 -55.37511 11.49377 -41.55298 0.2467454 11.49377 -41.55298 4.231859 -19.53962 -41.55298 0.3496393 11.36713 -41.55298 4.133779 -19.66626 -41.55298 -26.84322 -19.98353 -41.55298 -27.51274 11.04986 -41.55298 -55.37509 11.46236 35.95952 0.2467283 11.46236 35.95952 0.3496393 11.33573 35.95952 -27.51273 11.01846 35.95952 -55.37509 11.46236 45.23902 0.2467283 11.46236 45.23902 0.3496393 11.33573 45.23902 -27.51273 11.01846 45.23902 0.3496393 11.61576 40.59928 -27.51273 11.29849 40.59928 0.2467283 11.74239 40.59928 -55.37509 11.74239 40.59928 -55.54279 7.403553 -9.425663 -55.40626 8.396904 45.06516 -55.35163 11.92586 -9.425663 -55.40123 11.56497 45.06516 0.3496393 -12.63286 55.10132</float_array>
          <technique_common>
            <accessor source="#Cube_031-mesh-positions-array" count="156" stride="3">
              <param name="X" type="float"/>
              <param name="Y" type="float"/>
              <param name="Z" type="float"/>
            </accessor>
          </technique_common>
        </source>
        <source id="Cube_031-mesh-normals">
          <float_array id="Cube_031-mesh-normals-array" count="393">-0.958552 -0.05446791 0.2796629 -0.009538233 0.9999545 -1.34008e-6 0.9585529 0.0544604 0.2796613 0.009536981 -0.9999546 1.28461e-6 -6.2322e-7 0 1 -0.9596666 -0.02741056 0.2798014 0.005774438 0.9999834 -8.56382e-7 0.9596649 0.02741813 0.2798066 -0.005773782 -0.9999834 1.78672e-6 8.37447e-7 0 1 -0.9579774 -0.06410592 0.2795888 -0.01500332 0.9998875 -1.28468e-6 0.9579772 0.06410288 0.27959 0.01500427 -0.9998875 1.34015e-6 -7.40073e-7 0 1 -0.9594225 -0.03585183 0.2796843 -0.0127021 0.9999194 -2.14254e-7 0.9594225 0.03584802 0.2796845 0.01270103 -0.9999194 -1.49978e-6 9.34824e-7 0 1 -0.9599816 -0.002241551 0.2800545 -0.02594792 0.9996634 -5.34883e-7 0.9599813 0.002241551 0.2800556 0.02594763 -0.9996634 4.46385e-7 0 0 1 -0.9594127 0.03372615 0.2799819 -0.005614757 0.9999843 -7.48633e-7 0.9594119 -0.03372639 0.2799845 0.005615115 -0.9999843 -8.92528e-7 -0.9904336 0.1271855 0.05352914 1 0 0 -0.01581078 -0.9923777 0.1222151 1.48322e-7 0 1 -0.01138627 0.9999352 0 0.01593017 0.9998732 0 0.01593017 0.9998731 0 0.01016372 -0.9923458 0.1230712 0.01138627 -0.9999353 0 0.01142394 -0.9999347 0 0.01138627 -0.9999352 0 -0.01593017 -0.9998732 0 -0.01138615 0.9999353 0 0.01592999 0.9998732 0 0.01138621 -0.9999353 -2.34558e-6 -0.001894533 -0.8297496 0.5581328 -0.002261161 -0.9999974 -2.26338e-6 -0.01593011 -0.9998732 -2.38724e-6 -0.001894474 -0.829747 -0.5581366 -0.01321852 -0.829677 -0.5580874 0.01138615 -0.9999353 0 -0.01593005 -0.9998732 0 -0.01138627 0.9999353 0 0.01593023 0.9998732 0 0.002285301 0.9999974 -2.59746e-6 -0.008434355 0.7407162 0.6717652 -0.01138603 0.9999353 -2.36786e-6 0.011801 0.7406886 0.6717449 0.001673161 0.7407417 0.6717879 -0.008434355 0.7407128 -0.6717689 0.001673161 0.7407385 -0.6717915 0.01180064 0.7406854 -0.6717485 0.9955825 0.09387522 -0.001736998 0.9896882 0.1344041 0.04952603 0.01024156 -0.9999476 0 -0.9918555 0.1273681 0 -0.01138627 0.9999353 0 0.9918556 0.1273679 0 -0.01365035 -0.9999068 0 0.002273142 0.9999974 1.22308e-7 -0.01136559 0.9981192 0.06024122 -0.01138627 0.9999352 1.23601e-7 0.0159009 0.9980575 0.06023746 0.002266645 0.9981811 0.06024473 -0.01136559 0.9981192 -0.06024092 0.002266645 0.9981811 -0.06024444 0.01590096 0.9980574 -0.06023722 -1 0 0 -0.9991064 0.04223281 0.001733422 -1 -7.01599e-6 0 -1 4.72974e-6 0 0 0 1 0 0 1 1.34431e-7 0 1 -0.958553 -0.05446499 0.2796601 -0.00953722 0.9999545 0 0.9585517 0.05446636 0.2796642 0.009537994 -0.9999545 8.93387e-7 -0.9596659 -0.0274136 0.2798033 0.005773484 0.9999834 -2.23341e-7 0.9596656 0.02741199 0.2798044 -0.005775272 -0.9999833 2.35504e-6 -0.9579774 -0.06410574 0.2795886 -0.01500427 0.9998875 0 0.9579772 0.06410425 0.2795896 0.01500421 -0.9998875 2.14113e-6 -0.959423 -0.03584879 0.2796827 -0.01270258 0.9999194 -6.70522e-7 0.9594226 0.0358473 0.2796844 0.01270365 -0.9999193 8.9403e-7 -0.9599815 -0.002240836 0.2800545 -0.02594733 0.9996634 -1.33915e-6 0.959981 0.002241551 0.2800561 0.0259453 -0.9996634 2.13953e-6 -2.33706e-7 0 1 -0.9594131 0.03372395 0.2799808 -0.005614519 0.9999843 -1.11566e-6 0.9594123 -0.03372532 0.2799838 0.005612492 -0.9999843 1.71116e-6 7.40069e-7 0 1 0.9904336 0.1271852 0.05352902 -0.0135461 -0.9922727 0.1233344 0.01593017 0.9998731 0 0.0113005 -0.9923998 0.1225361 0 0 1 -0.01593017 -0.9998731 0 -0.01138615 0.9999352 0 0.01592999 0.9998732 0 0.009447991 -0.8297142 0.5581086 -0.01321858 -0.8296794 0.5580836 0.009447753 -0.8297117 -0.5581123 -0.01592999 -0.9998732 0 -0.01138627 0.9999353 0 0.01593029 0.9998731 -2.37243e-6 0.9909038 0.1345691 9.04631e-4 0.01024156 -0.9999476 0 -0.9918556 0.127368 0 -0.01138627 0.9999353 0 0.9918556 0.1273679 0 -0.01365035 -0.9999068 0 0.01592987 0.9998732 1.30755e-7 -0.9999983 0.001589596 -8.99779e-4</float_array>
          <technique_common>
            <accessor source="#Cube_031-mesh-normals-array" count="131" stride="3">
              <param name="X" type="float"/>
              <param name="Y" type="float"/>
              <param name="Z" type="float"/>
            </accessor>
          </technique_common>
        </source>
        <source id="Cube_031-mesh-map-0">
          <float_array id="Cube_031-mesh-map-0-array" count="918">0.08205652 0.7631298 0.05257076 0.8522347 0.05257195 0.7631296 0.1622614 0.9752891 0.08087801 0.85648 0.1878497 0.85648 0.08205604 0.8931431 0.05257123 0.9822502 0.05257081 0.8931432 0.1878947 0.85648 0.2692784 0.9752889 0.2134829 0.9752888 0.05257081 0.8931432 0.08205568 0.8522348 0.08205604 0.8931431 0.05257076 0.8522347 0.08205652 0.7631298 0.08205568 0.8522348 0.1064659 0.9752889 0.1878497 0.85648 0.1622614 0.9752891 0.08205604 0.8931431 0.05257123 0.9822502 0.05257081 0.8931432 0.2692784 0.9752889 0.1878947 0.85648 0.2948665 0.85648 0.05257081 0.8931432 0.08205568 0.8522348 0.08205604 0.8931431 0.05257076 0.8522347 0.08205652 0.7631298 0.08205568 0.8522348 0.1064659 0.9752889 0.1878497 0.85648 0.1622614 0.9752891 0.08205604 0.8931431 0.05257123 0.9822502 0.05257081 0.8931432 0.2692784 0.9752889 0.1878947 0.85648 0.2948665 0.85648 0.05257081 0.8931432 0.08205568 0.8522348 0.08205604 0.8931431 0.05257076 0.8522347 0.08205652 0.7631298 0.08205568 0.8522348 0.1064659 0.9752889 0.1878497 0.85648 0.1622614 0.9752891 0.08205604 0.8931431 0.05257123 0.9822502 0.05257081 0.8931432 0.2134829 0.9752888 0.2948665 0.85648 0.2692784 0.9752889 0.05257081 0.8931432 0.08205568 0.8522348 0.08205604 0.8931431 0.08205568 0.8522348 0.05257195 0.7631296 0.08205652 0.7631298 0.1064659 0.9752889 0.1878497 0.85648 0.1622614 0.9752891 0.05257081 0.8931432 0.08205652 0.98225 0.05257123 0.9822502 0.2692784 0.9752889 0.1878947 0.85648 0.2948665 0.85648 0.08205604 0.8931431 0.05257076 0.8522347 0.08205568 0.8522348 0.08205568 0.8522348 0.05257195 0.7631296 0.08205652 0.7631298 0.1064659 0.9752889 0.1878497 0.85648 0.1622614 0.9752891 0.05257081 0.8931432 0.08205652 0.98225 0.05257123 0.9822502 0.2692784 0.9752889 0.1878947 0.85648 0.2948665 0.85648 0.08205604 0.8931431 0.05257076 0.8522347 0.08205568 0.8522348 0.4821712 0.5530293 0.2505871 0.002786219 0.4821708 0.002786934 0.09494417 0.5472604 0.3260056 -0.001742303 0.3260056 0.5472604 0.5234118 0.5435261 0.2682282 0.008487462 0.2682283 0.5435258 0.2678833 0.6686162 0.5354118 0.5293299 0.2678833 0.5293299 0.7309244 0.8318422 0.8626533 0.6698186 0.862654 0.831842 0.8626533 0.7245493 0.994383 0.6698186 0.994383 0.7245493 0.862654 0.831842 0.994383 0.6698186 0.9943836 0.8318418 0.01304483 0.5435256 0.2682282 0.008487462 0.01304495 0.00848782 3.54911e-4 0.5293299 0.2678833 0.6686162 0.2678833 0.5293299 0.2509777 0.6760475 0.501927 0.746894 0.2509768 0.746892 0.2509777 0.6760475 0.501927 0.7468892 0.501927 0.746894 0.2509777 0.6760475 0.501927 0.6760495 0.501927 0.7468892 0.2509768 0.746892 2.79146e-5 0.6760427 0.2509777 0.6760475 0.2509768 0.746892 0.501927 0.6760495 0.2509777 0.6760475 2.79146e-5 0.6760427 0.2509768 0.746892 0.2509777 0.6760475 0.9972469 0.7114695 0.8631203 0.7240574 0.8631206 0.7114688 0.8631203 0.7240574 0.7289941 0.7114672 0.8631206 0.7114688 0.8631209 0.6988803 0.9972469 0.7114695 0.8631206 0.7114688 0.8631209 0.6988803 0.7289941 0.7114672 0.7289945 0.6988786 0.9886011 0.671474 0.8586996 0.7252724 0.8587002 0.6714724 0.8586996 0.7252724 0.7287989 0.6714689 0.8587002 0.6714724 0.8586996 0.7252724 0.9886011 0.671474 0.8587002 0.6714724 0.7287989 0.6714689 0.8586996 0.7252724 0.8587002 0.6714724 0.8631206 0.7114688 0.9972469 0.7240582 0.9972469 0.7114695 0.8631206 0.7114688 0.7289938 0.7240558 0.8631203 0.7240574 0.8631206 0.7114688 0.9972469 0.698881 0.8631209 0.6988803 0.7289945 0.6988786 0.8631206 0.7114688 0.8631209 0.6988803 0.2756651 0.6688659 0.2387623 0.7601565 0.2387623 0.6688659 0.8335553 0.6698184 0.8626369 0.8317478 0.8639798 0.6698184 0.8322124 0.7851938 0.8626369 0.8317478 0.8626369 0.7851938 0.2682282 0.2347776 0.01304495 0.00848782 0.01304495 0.2347779 0.4821708 0.2321742 0.2505871 0.002786219 0.4821708 0.002786934 0.7309236 0.7245494 0.8626533 0.6698186 0.8626533 0.7245493 0.09494417 0.2336323 0.3260056 -0.001742303 0.3260056 0.2336323 0.5234115 0.2347772 0.2682282 0.008487462 0.2682282 0.2347776 0.7637601 0.6902791 0.7843876 0.7130237 0.7637601 0.7357682 0.8631206 0.4577493 0.9972469 0.4801012 0.9972469 0.45775 0.8631206 0.4577493 0.7289938 0.4800989 0.8631203 0.4801005 0.8631206 0.4577493 0.9972469 0.4800783 0.8631209 0.4800776 0.7289945 0.4800759 0.8631206 0.4577493 0.8631209 0.4800776 0.7637601 0.6902791 0.7843876 0.7130237 0.7637601 0.7357682 0.7789502 0.7021963 0.7643616 0.742241 0.7643616 0.7021963 0.8626369 0.8317478 0.8335553 0.6698184 0.8639798 0.6698184 0.1887775 0.6987987 0.1547144 0.7830648 0.1547144 0.6987987 0.7689571 0.7081838 0.7839742 0.6916255 0.7839742 0.7247421 0.8281385 0.6928204 0.8368993 0.7058446 0.8281385 0.7188687 0.7989201 0.6933306 0.7315508 0.7096617 0.7311021 0.6981632 0.8669356 0.696274 0.8669704 0.707784 0.7989201 0.6933306 0.8669356 0.696274 0.7989201 0.6933306 0.7311021 0.6981632 0.7986762 0.6817319 0.8669356 0.696274 0.7311021 0.6981632 0.1354915 0.7048306 0.005344212 0.7263356 0.004477143 0.7111942 0.2668874 0.7087065 0.2669546 0.723863 0.1354915 0.7048306 0.2668874 0.7087065 0.1354915 0.7048306 0.004477143 0.7111942 0.1350204 0.6895573 0.2668874 0.7087065 0.004477143 0.7111942 0.08205652 0.7631298 0.08205568 0.8522348 0.05257076 0.8522347 0.1622614 0.9752891 0.1064659 0.9752889 0.08087801 0.85648 0.08205604 0.8931431 0.08205652 0.98225 0.05257123 0.9822502 0.1878947 0.85648 0.2948665 0.85648 0.2692784 0.9752889 0.05257081 0.8931432 0.05257076 0.8522347 0.08205568 0.8522348 0.05257076 0.8522347 0.05257195 0.7631296 0.08205652 0.7631298 0.1064659 0.9752889 0.08087801 0.85648 0.1878497 0.85648 0.08205604 0.8931431 0.08205652 0.98225 0.05257123 0.9822502 0.2692784 0.9752889 0.2134829 0.9752888 0.1878947 0.85648 0.05257081 0.8931432 0.05257076 0.8522347 0.08205568 0.8522348 0.05257076 0.8522347 0.05257195 0.7631296 0.08205652 0.7631298 0.1064659 0.9752889 0.08087801 0.85648 0.1878497 0.85648 0.08205604 0.8931431 0.08205652 0.98225 0.05257123 0.9822502 0.2692784 0.9752889 0.2134829 0.9752888 0.1878947 0.85648 0.05257081 0.8931432 0.05257076 0.8522347 0.08205568 0.8522348 0.05257076 0.8522347 0.05257195 0.7631296 0.08205652 0.7631298 0.1064659 0.9752889 0.08087801 0.85648 0.1878497 0.85648 0.08205604 0.8931431 0.08205652 0.98225 0.05257123 0.9822502 0.2134829 0.9752888 0.1878947 0.85648 0.2948665 0.85648 0.05257081 0.8931432 0.05257076 0.8522347 0.08205568 0.8522348 0.08205568 0.8522348 0.05257076 0.8522347 0.05257195 0.7631296 0.1064659 0.9752889 0.08087801 0.85648 0.1878497 0.85648 0.05257081 0.8931432 0.08205604 0.8931431 0.08205652 0.98225 0.2692784 0.9752889 0.2134829 0.9752888 0.1878947 0.85648 0.08205604 0.8931431 0.05257081 0.8931432 0.05257076 0.8522347 0.08205568 0.8522348 0.05257076 0.8522347 0.05257195 0.7631296 0.1064659 0.9752889 0.08087801 0.85648 0.1878497 0.85648 0.05257081 0.8931432 0.08205604 0.8931431 0.08205652 0.98225 0.2692784 0.9752889 0.2134829 0.9752888 0.1878947 0.85648 0.08205604 0.8931431 0.05257081 0.8931432 0.05257076 0.8522347 0.4821712 0.5530293 0.2505877 0.5530304 0.2505871 0.002786219 0.09494417 0.5472604 0.09494417 -0.001742303 0.3260056 -0.001742303 0.5234118 0.5435261 0.5234115 0.008487105 0.2682282 0.008487462 0.2678833 0.6686162 0.5354118 0.6686162 0.5354118 0.5293299 0.7309244 0.8318422 0.7309236 0.6698186 0.8626533 0.6698186 0.8626533 0.7245493 0.8626533 0.6698186 0.994383 0.6698186 0.862654 0.831842 0.8626533 0.6698186 0.994383 0.6698186 0.01304483 0.5435256 0.2682283 0.5435258 0.2682282 0.008487462 3.54911e-4 0.5293299 3.54911e-4 0.6686163 0.2678833 0.6686162 0.2509768 0.746892 2.66172e-5 0.7468875 2.79146e-5 0.6760427 0.2509768 0.746892 0.501927 0.746894 0.501927 0.6760495 2.79146e-5 0.6760427 2.66172e-5 0.7468875 0.2509768 0.746892 0.9972469 0.7114695 0.9972469 0.7240582 0.8631203 0.7240574 0.8631203 0.7240574 0.7289938 0.7240558 0.7289941 0.7114672 0.8631209 0.6988803 0.9972469 0.698881 0.9972469 0.7114695 0.8631209 0.6988803 0.8631206 0.7114688 0.7289941 0.7114672 0.9886011 0.671474 0.9886012 0.7252739 0.8586996 0.7252724 0.8586996 0.7252724 0.7287983 0.7252689 0.7287989 0.6714689 0.8586996 0.7252724 0.9886012 0.7252739 0.9886011 0.671474 0.7287989 0.6714689 0.7287983 0.7252689 0.8586996 0.7252724 0.8631206 0.7114688 0.8631203 0.7240574 0.9972469 0.7240582 0.8631206 0.7114688 0.7289941 0.7114672 0.7289938 0.7240558 0.8631206 0.7114688 0.9972469 0.7114695 0.9972469 0.698881 0.7289945 0.6988786 0.7289941 0.7114672 0.8631206 0.7114688 0.2756651 0.6688659 0.2756651 0.7601565 0.2387623 0.7601565 0.8335553 0.6698184 0.8322124 0.8317478 0.8626369 0.8317478 0.8322124 0.7851938 0.8322124 0.8317478 0.8626369 0.8317478 0.2682282 0.2347776 0.2682282 0.008487462 0.01304495 0.00848782 0.4821708 0.2321742 0.2505871 0.2321735 0.2505871 0.002786219 0.7309236 0.7245494 0.7309236 0.6698186 0.8626533 0.6698186 0.09494417 0.2336323 0.09494417 -0.001742303 0.3260056 -0.001742303 0.5234115 0.2347772 0.5234115 0.008487105 0.2682282 0.008487462 0.8631206 0.4577493 0.8631203 0.4801005 0.9972469 0.4801012 0.8631206 0.4577493 0.7289941 0.4577476 0.7289938 0.4800989 0.8631206 0.4577493 0.9972469 0.45775 0.9972469 0.4800783 0.7289945 0.4800759 0.7289941 0.4577476 0.8631206 0.4577493 0.7789502 0.7021963 0.7789502 0.742241 0.7643616 0.742241 0.8626369 0.8317478 0.8322124 0.8317478 0.8335553 0.6698184 0.1887775 0.6987987 0.1887775 0.7830649 0.1547144 0.7830648</float_array>
          <technique_common>
            <accessor source="#Cube_031-mesh-map-0-array" count="459" stride="2">
              <param name="S" type="float"/>
              <param name="T" type="float"/>
            </accessor>
          </technique_common>
        </source>
        <source id="Cube_031-mesh-map-1">
          <float_array id="Cube_031-mesh-map-1-array" count="918">0.3405317 0.7582124 0.3615524 0.7267612 0.3615524 0.758296 0.2873464 0.5703437 0.3179656 0.541946 0.3179656 0.5792724 0.2597763 0.676979 0.2387186 0.7082893 0.2387186 0.6767453 0.3187254 0.6553971 0.3492538 0.6269855 0.3492538 0.6464548 0.3381733 0.7801998 0.3187254 0.7600574 0.3381733 0.7591384 0.2597559 0.7093784 0.2387186 0.7408174 0.2387186 0.7092826 0.3187254 0.5508543 0.3493446 0.5792526 0.3187254 0.5703238 0.339772 0.6944601 0.3187254 0.7257601 0.3187253 0.6942154 0.2873464 0.6465305 0.3178749 0.618155 0.3178749 0.6554816 0.2581772 0.7950449 0.2387186 0.7746634 0.2581773 0.7739951 0.3397379 0.7268438 0.3187253 0.7582994 0.3187253 0.7267645 0.2387186 0.5714048 0.2693379 0.5997994 0.2387186 0.5908718 0.2815955 0.676975 0.260536 0.708289 0.260536 0.6767454 0.2692471 0.6475641 0.2387186 0.6759856 0.2387186 0.6386627 0.3599742 0.7801231 0.3405318 0.7600639 0.3599742 0.7590557 0.3083866 0.738159 0.2873464 0.7696825 0.2873464 0.7381485 0.3187254 0.5889342 0.3493446 0.6173107 0.3187254 0.6083888 0.3615905 0.6943749 0.3405318 0.7257582 0.3405317 0.6942153 0.3492538 0.6845126 0.3187254 0.6561567 0.3492538 0.6650577 0.2799858 0.7950927 0.2605361 0.7745126 0.2799858 0.7740331 0.2873464 0.7058527 0.3083744 0.7372223 0.2873464 0.7373889 0.3187254 0.5127558 0.3493446 0.5411657 0.3187254 0.5322333 0.2387186 0.7416912 0.2597321 0.7732169 0.2387186 0.7732354 0.2692471 0.6094397 0.2387186 0.637903 0.2387186 0.6005591 0.338203 0.7823384 0.3187253 0.8029077 0.3187253 0.7818784 0.260536 0.7094286 0.2815618 0.7408142 0.260536 0.7409645 0.2873464 0.5127608 0.3179657 0.5411863 0.2873464 0.532249 0.260536 0.7417283 0.2815107 0.7732695 0.260536 0.7732735 0.3178749 0.5889651 0.2873464 0.6173953 0.2873464 0.5800321 0.3068186 0.7712466 0.2873464 0.7914879 0.2873464 0.7704527 0.7323146 0.500241 0.8711369 0.8272678 0.6914964 0.8301932 0.8302018 3.79837e-4 0.6914964 0.3279942 0.6914964 0.001155138 0.3444443 3.79837e-4 0.1795676 0.3326255 0.1832889 6.23596e-4 0.5072309 0.6634097 0.3706081 0.8242657 0.3684067 0.6630942 0.6907367 3.79837e-4 0.5295673 0.3302277 0.5295673 3.79837e-4 0.5295673 0.3302277 0.3684067 0.501173 0.3684067 0.3302277 0.5295673 3.79837e-4 0.3684067 0.3302277 0.3684067 3.79837e-4 0.02211713 5.28515e-4 0.1795676 0.3326255 3.79832e-4 0.3325355 0.3706081 0.5019327 0.5072309 0.6634097 0.3684067 0.6630942 0.5684831 0.663115 0.5101922 0.8242599 0.5103617 0.6630882 0.5684831 0.663115 0.5101962 0.8242599 0.5101922 0.8242599 0.5684831 0.663115 0.5683137 0.8242867 0.5101962 0.8242599 0.5103617 0.6630882 0.5683137 0.5019595 0.5684831 0.663115 0.5692426 0.6631021 0.627537 0.5019326 0.627537 0.6631021 0.627537 0.8242627 0.5692426 0.6631021 0.627537 0.6631021 0.2106478 0.8261505 0.2014226 0.6649969 0.2108172 0.6649788 0.2014226 0.6649969 0.2106478 0.5038232 0.2108172 0.6649788 0.2192844 0.6650051 0.2106478 0.8261505 0.2108172 0.6649788 0.2192844 0.6650051 0.2106478 0.5038232 0.2191149 0.5038496 0.04934144 0.8261732 5.49238e-4 0.6649788 0.04951089 0.6650014 5.49238e-4 0.6649788 0.04934144 0.5038459 0.04951089 0.6650014 0.05027061 0.6649928 0.09937793 0.5038233 0.09937793 0.6649928 0.09937793 0.8261533 0.05027061 0.6649928 0.09937793 0.6649928 0.2290015 0.6649928 0.220044 0.5038395 0.2290015 0.5038233 0.2290015 0.6649928 0.220044 0.8261696 0.220044 0.6650089 0.2290015 0.6649928 0.2379589 0.5038395 0.2379589 0.6650089 0.2379589 0.8261696 0.2290015 0.6649928 0.2379589 0.6650089 0.2387186 0.5617175 0.2622629 0.5038233 0.2622629 0.561586 0.1001376 0.8649324 0.1185699 0.5527169 0.1262289 0.8649643 0.1004225 0.552594 0.1181814 0.5038233 0.1185699 0.5527169 0.1795676 0.3326255 3.79832e-4 0.5029737 3.79832e-4 0.3325355 0.6914964 0.8301932 0.8711369 0.9966949 0.6914964 0.9996203 0.6907367 0.3302277 0.5295673 0.501173 0.5295673 0.3302277 0.8718059 0.3300955 0.6914964 0.4973801 0.6914964 0.3279942 0.3676469 0.332374 0.1795676 0.5030636 0.1795676 0.3326255 0.3671044 0.5215749 0.3589876 0.5127445 0.3671044 0.5038233 0.6551346 0.663102 0.6282967 0.5019358 0.6551346 0.5019326 0.6551346 0.663102 0.6282967 0.8242658 0.6282967 0.6631053 0.6551346 0.663102 0.6819727 0.5019358 0.6819727 0.6631053 0.6819727 0.8242658 0.6551346 0.663102 0.6819727 0.6631053 0.360606 0.5755209 0.3589876 0.5489367 0.360606 0.5223345 0.2873464 0.7049124 0.3052362 0.6562552 0.3052362 0.7049264 0.160777 0.5038234 0.1796792 0.8162879 0.1535142 0.8162879 0.2630226 0.5616 0.2865867 0.5038416 0.2865867 0.5616183 0.3582279 0.5127076 0.3501043 0.5215791 0.3501043 0.5038233 0.3673909 0.5400904 0.3613657 0.5312078 0.3673909 0.5223345 0.1982919 0.6650254 0.2004933 0.8261969 0.1826403 0.8261563 0.1826403 0.5038233 0.2004933 0.5038639 0.1982919 0.6650254 0.1826403 0.5038233 0.1982919 0.6650254 0.1826403 0.8261563 0.1804389 0.6649849 0.1826403 0.5038233 0.1826403 0.8261563 0.1505531 0.6650384 0.1527546 0.8262099 0.12919 0.8261563 0.12919 0.5038233 0.1527546 0.5038769 0.1505531 0.6650384 0.12919 0.5038233 0.1505531 0.6650384 0.12919 0.8261563 0.1269886 0.6649848 0.12919 0.5038233 0.12919 0.8261563 0.3405317 0.7582124 0.3405317 0.7266776 0.3615524 0.7267612 0.2873464 0.5703437 0.2873464 0.5508746 0.3179656 0.541946 0.2597763 0.676979 0.2597763 0.7085229 0.2387186 0.7082893 0.3187254 0.6553971 0.3187254 0.6180703 0.3492538 0.6269855 0.3381733 0.7801998 0.3187254 0.7811188 0.3187254 0.7600574 0.2597559 0.7093784 0.259756 0.7409131 0.2387186 0.7408174 0.3187254 0.5508543 0.3493446 0.5419254 0.3493446 0.5792526 0.339772 0.6944601 0.3397721 0.7260048 0.3187254 0.7257601 0.2873464 0.6465305 0.2873464 0.6270612 0.3178749 0.618155 0.2581772 0.7950449 0.2387186 0.7957132 0.2387186 0.7746634 0.3397379 0.7268438 0.3397379 0.7583787 0.3187253 0.7582994 0.2387186 0.5714048 0.2693379 0.5624772 0.2693379 0.5997994 0.2815955 0.676975 0.2815955 0.7085186 0.260536 0.708289 0.2692471 0.6475641 0.2692471 0.6670314 0.2387186 0.6759856 0.3599742 0.7801231 0.3405317 0.7811313 0.3405318 0.7600639 0.3083866 0.738159 0.3083866 0.769693 0.2873464 0.7696825 0.3187254 0.5889342 0.3493446 0.5800123 0.3493446 0.6173107 0.3615905 0.6943749 0.3615905 0.7259178 0.3405318 0.7257582 0.3492538 0.6845126 0.3187254 0.6934557 0.3187254 0.6561567 0.2799858 0.7950927 0.260536 0.7955721 0.2605361 0.7745126 0.2873464 0.7058527 0.3083744 0.7056861 0.3083744 0.7372223 0.3187254 0.5127558 0.3493446 0.5038233 0.3493446 0.5411657 0.2387186 0.7416912 0.2597321 0.7416727 0.2597321 0.7732169 0.2692471 0.6094397 0.2692471 0.628918 0.2387186 0.637903 0.338203 0.7823384 0.338203 0.8033677 0.3187253 0.8029077 0.260536 0.7094286 0.2815618 0.7092783 0.2815618 0.7408142 0.2873464 0.5127608 0.3179657 0.5038233 0.3179657 0.5411863 0.260536 0.7417283 0.2815107 0.7417243 0.2815107 0.7732695 0.3178749 0.5889651 0.3178749 0.6084534 0.2873464 0.6173953 0.3068186 0.7712466 0.3068186 0.7922819 0.2873464 0.7914879 0.7323146 0.500241 0.8711369 0.5003492 0.8711369 0.8272678 0.8302018 3.79837e-4 0.8718059 0.3300955 0.6914964 0.3279942 0.3444443 3.79837e-4 0.3676469 0.332374 0.1795676 0.3326255 0.5072309 0.6634097 0.5094324 0.8245812 0.3706081 0.8242657 0.6907367 3.79837e-4 0.6907367 0.3302277 0.5295673 0.3302277 0.5295673 0.3302277 0.5295673 0.501173 0.3684067 0.501173 0.5295673 3.79837e-4 0.5295673 0.3302277 0.3684067 0.3302277 0.02211713 5.28515e-4 0.1832889 6.23596e-4 0.1795676 0.3326255 0.3706081 0.5019327 0.5094324 0.5022482 0.5072309 0.6634097 0.5103617 0.6630882 0.5101922 0.5019326 0.5683137 0.5019595 0.5692426 0.6631021 0.5692426 0.5019326 0.627537 0.5019326 0.627537 0.8242627 0.5692426 0.8242627 0.5692426 0.6631021 0.2106478 0.8261505 0.2012531 0.8261686 0.2014226 0.6649969 0.2014226 0.6649969 0.2012531 0.5038414 0.2106478 0.5038232 0.2192844 0.6650051 0.2191149 0.8261768 0.2106478 0.8261505 0.2192844 0.6650051 0.2108172 0.6649788 0.2106478 0.5038232 0.04934144 0.8261732 3.7981e-4 0.8261506 5.49238e-4 0.6649788 5.49238e-4 0.6649788 3.7982e-4 0.5038233 0.04934144 0.5038459 0.05027061 0.6649928 0.05027061 0.5038233 0.09937793 0.5038233 0.09937793 0.8261533 0.05027061 0.8261533 0.05027061 0.6649928 0.2290015 0.6649928 0.220044 0.6650089 0.220044 0.5038395 0.2290015 0.6649928 0.2290015 0.8261535 0.220044 0.8261696 0.2290015 0.6649928 0.2290015 0.5038233 0.2379589 0.5038395 0.2379589 0.8261696 0.2290015 0.8261535 0.2290015 0.6649928 0.2387186 0.5617175 0.2387186 0.503955 0.2622629 0.5038233 0.1001376 0.8649324 0.1004225 0.552594 0.1185699 0.5527169 0.1004225 0.552594 0.1001376 0.50403 0.1181814 0.5038233 0.1795676 0.3326255 0.1795676 0.5030636 3.79832e-4 0.5029737 0.6914964 0.8301932 0.8711369 0.8272678 0.8711369 0.9966949 0.6907367 0.3302277 0.6907367 0.501173 0.5295673 0.501173 0.8718059 0.3300955 0.8718059 0.4994813 0.6914964 0.4973801 0.3676469 0.332374 0.3676469 0.5028122 0.1795676 0.5030636 0.6551346 0.663102 0.6282967 0.6631053 0.6282967 0.5019358 0.6551346 0.663102 0.6551346 0.8242626 0.6282967 0.8242658 0.6551346 0.663102 0.6551346 0.5019326 0.6819727 0.5019358 0.6819727 0.8242658 0.6551346 0.8242626 0.6551346 0.663102 0.2873464 0.7049124 0.2873464 0.6562412 0.3052362 0.6562552 0.160777 0.5038234 0.1791018 0.5039225 0.1796792 0.8162879 0.2630226 0.5616 0.2630226 0.5038233 0.2865867 0.5038416</float_array>
          <technique_common>
            <accessor source="#Cube_031-mesh-map-1-array" count="459" stride="2">
              <param name="S" type="float"/>
              <param name="T" type="float"/>
            </accessor>
          </technique_common>
        </source>
        <vertices id="Cube_031-mesh-vertices">
          <input semantic="POSITION" source="#Cube_031-mesh-positions"/>
        </vertices>
        <triangles material="Material_004-material" count="153">
          <input semantic="VERTEX" source="#Cube_031-mesh-vertices" offset="0"/>
          <input semantic="NORMAL" source="#Cube_031-mesh-normals" offset="1"/>
          <input semantic="TEXCOORD" source="#Cube_031-mesh-map-0" offset="2" set="0"/>
          <input semantic="TEXCOORD" source="#Cube_031-mesh-map-1" offset="2" set="1"/>
          <p>0 0 0 5 0 1 1 0 2 5 1 3 2 1 4 1 1 5 7 2 6 2 2 7 6 2 8 0 3 9 7 3 10 4 3 11 6 4 12 4 4 13 7 4 14 13 5 15 8 5 16 12 5 17 14 6 18 9 6 19 13 6 20 15 7 21 10 7 22 14 7 23 15 8 24 8 8 25 11 8 26 14 9 27 12 9 28 15 9 29 21 10 30 16 10 31 20 10 32 22 11 33 17 11 34 21 11 35 23 12 36 18 12 37 22 12 38 23 13 39 16 13 40 19 13 41 22 14 42 20 14 43 23 14 44 29 15 45 24 15 46 28 15 47 30 16 48 25 16 49 29 16 50 31 17 51 26 17 52 30 17 53 28 18 54 27 18 55 31 18 56 30 19 57 28 19 58 31 19 59 36 20 60 33 20 61 32 20 62 38 21 63 33 21 64 37 21 65 38 22 66 35 22 67 34 22 68 39 23 69 32 23 70 35 23 71 39 24 72 37 24 73 36 24 74 44 25 75 41 25 76 40 25 77 46 26 78 41 26 79 45 26 80 46 27 81 43 27 82 42 27 83 47 28 84 40 28 85 43 28 86 47 24 87 45 24 88 44 24 89 52 29 90 49 29 91 48 29 92 55 30 93 50 30 94 54 30 95 52 31 96 60 31 97 62 31 98 61 32 99 52 32 100 62 32 101 56 33 102 63 33 103 61 33 104 63 34 105 132 34 106 49 34 107 61 35 108 49 35 109 53 35 110 58 36 111 60 36 112 59 36 113 58 24 114 61 24 115 62 24 116 67 37 117 70 37 118 71 37 119 67 38 120 155 38 121 70 38 122 67 39 123 66 39 124 155 39 125 71 40 126 64 40 127 67 40 128 79 41 129 74 41 130 75 41 131 72 42 132 79 42 133 75 42 134 92 43 135 91 44 136 93 45 137 91 44 138 94 46 139 93 45 140 88 47 141 92 43 142 93 45 143 88 47 144 94 46 145 86 48 146 96 49 147 100 49 148 97 49 149 100 50 150 95 50 151 97 50 152 106 51 153 102 51 154 103 51 155 101 52 156 106 52 157 103 52 158 122 53 159 119 54 160 121 55 161 122 53 162 117 56 163 120 57 164 122 53 165 115 58 166 116 59 167 113 60 168 122 53 169 116 59 170 73 30 171 69 30 172 65 30 173 127 61 174 126 61 175 125 61 176 128 62 177 129 62 178 126 62 179 60 63 180 136 63 181 59 63 182 48 64 183 132 64 184 131 64 185 57 65 186 138 65 187 63 65 188 51 66 189 133 66 190 50 66 191 48 67 192 137 67 193 60 67 194 114 30 195 123 30 196 118 30 197 148 68 198 145 69 199 147 70 200 148 68 201 143 71 202 146 72 203 148 68 204 141 73 205 142 74 206 139 75 207 148 68 208 142 74 209 140 30 210 149 30 211 144 30 212 95 76 213 104 76 214 101 76 215 152 77 216 153 77 217 151 77 218 64 76 219 76 76 220 72 76 221 124 78 222 113 78 223 117 78 224 86 79 225 94 79 226 89 79 227 112 24 228 110 24 229 107 24 230 108 80 231 111 80 232 112 80 233 108 24 234 112 24 235 107 24 236 109 81 237 108 81 238 107 81 239 85 24 240 83 24 241 80 24 242 81 82 243 84 82 244 85 82 245 81 24 246 85 24 247 80 24 248 82 24 249 81 24 250 80 24 251 0 83 252 4 83 253 5 83 254 5 84 255 6 84 256 2 84 257 7 85 258 3 85 259 2 85 260 0 86 261 3 86 262 7 86 263 6 24 264 5 24 265 4 24 266 13 87 267 9 87 268 8 87 269 14 88 270 10 88 271 9 88 272 15 89 273 11 89 274 10 89 275 15 90 276 12 90 277 8 90 278 14 24 279 13 24 280 12 24 281 21 91 282 17 91 283 16 91 284 22 92 285 18 92 286 17 92 287 23 93 288 19 93 289 18 93 290 23 94 291 20 94 292 16 94 293 22 24 294 21 24 295 20 24 296 29 95 297 25 95 298 24 95 299 30 96 300 26 96 301 25 96 302 31 97 303 27 97 304 26 97 305 28 98 306 24 98 307 27 98 308 30 24 309 29 24 310 28 24 311 36 99 312 37 99 313 33 99 314 38 100 315 34 100 316 33 100 317 38 101 318 39 101 319 35 101 320 39 102 321 36 102 322 32 102 323 39 103 324 38 103 325 37 103 326 44 104 327 45 104 328 41 104 329 46 105 330 42 105 331 41 105 332 46 106 333 47 106 334 43 106 335 47 107 336 44 107 337 40 107 338 47 108 339 46 108 340 45 108 341 52 76 342 53 76 343 49 76 344 55 109 345 51 109 346 50 109 347 52 110 348 48 110 349 60 110 350 61 24 351 53 24 352 52 24 353 56 33 354 57 33 355 63 33 356 63 34 357 138 34 358 132 34 359 61 111 360 63 111 361 49 111 362 58 112 363 62 112 364 60 112 365 58 113 366 56 113 367 61 113 368 71 114 369 68 114 370 64 114 371 79 115 372 78 115 373 74 115 374 72 116 375 76 116 376 79 116 377 92 43 378 90 117 379 91 44 380 91 44 381 89 118 382 94 46 383 88 47 384 87 119 385 92 43 386 88 47 387 93 45 388 94 46 389 96 49 390 99 49 391 100 49 392 100 120 393 98 120 394 95 120 395 106 121 396 105 121 397 102 121 398 101 52 399 104 52 400 106 52 401 122 53 402 120 57 403 119 54 404 122 53 405 124 122 406 117 56 407 122 53 408 121 55 409 115 58 410 113 60 411 124 122 412 122 53 413 73 30 414 77 30 415 69 30 416 127 123 417 128 123 418 126 123 419 128 30 420 130 30 421 129 30 422 60 124 423 137 124 424 136 124 425 48 125 426 49 125 427 132 125 428 57 126 429 135 126 430 138 126 431 51 127 432 134 127 433 133 127 434 48 128 435 131 128 436 137 128 437 148 68 438 146 72 439 145 69 440 148 68 441 150 129 442 143 71 443 148 68 444 147 70 445 141 73 446 139 75 447 150 129 448 148 68 449 95 76 450 98 76 451 104 76 452 152 130 453 154 130 454 153 130 455 64 76 456 68 76 457 76 76 458</p>
        </triangles>
      </mesh>
    </geometry>
  </library_geometries>
  <library_visual_scenes>
    <visual_scene id="Scene" name="Scene">
      <node id="Cube_014" name="Cube_014" type="NODE">
        <matrix sid="transform">0.217881 0 0 6.050221 0 0.2537649 0 0.7877365 0 0 0.2537649 -0.5630162 0 0 0 1</matrix>
        <instance_geometry url="#Cube_031-mesh" name="Cube_014">
          <bind_material>
            <technique_common>
              <instance_material symbol="Material_004-material" target="#Material_004-material">
                <bind_vertex_input semantic="Cube_031-mesh-map-0" input_semantic="TEXCOORD" input_set="0"/>
                <bind_vertex_input semantic="UVMap" input_semantic="TEXCOORD" input_set="1"/>
              </instance_material>
            </technique_common>
          </bind_material>
        </instance_geometry>
      </node>
    </visual_scene>
  </library_visual_scenes>
  <scene>
    <instance_visual_scene url="#Scene"/>
  </scene>
</COLLADA>