<?xml version="1.0" encoding="utf-8"?>
<COLLADA xmlns="http://www.collada.org/2005/11/COLLADASchema" version="1.4.1" xmlns:xsi="http://www.w3.org/2001/XMLSchema-instance">
  <asset>
    <contributor>
      <author>Blender User</author>
      <authoring_tool>Blender 4.3.1 commit date:2024-12-10, commit time:07:46, hash:33d812126174</authoring_tool>
    </contributor>
    <created>2026-04-09T18:14:08</created>
    <modified>2026-04-09T18:14:08</modified>
    <unit name="inch" meter="0.0254"/>
    <up_axis>Z_UP</up_axis>
  </asset>
  <library_effects>
    <effect id="Material_004-effect">
      <profile_COMMON>
        <newparam sid="Untitled_010-surface">
          <surface type="2D">
            <init_from>Untitled_010</init_from>
          </surface>
        </newparam>
        <newparam sid="Untitled_010-sampler">
          <sampler2D>
            <source>Untitled_010-surface</source>
          </sampler2D>
        </newparam>
        <technique sid="common">
          <lambert>
            <emission>
              <color sid="emission">0 0 0 1</color>
            </emission>
            <diffuse>
              <texture texture="Untitled_010-sampler" texcoord="UVMap"/>
            </diffuse>
            <index_of_refraction>
              <float sid="ior">1.5</float>
            </index_of_refraction>
          </lambert>
        </technique>
      </profile_COMMON>
    </effect>
  </library_effects>
  <library_images>
    <image id="Untitled_010" name="Untitled_010">
      <init_from>Untitled.010.png</init_from>
    </image>
  </library_images>
  <library_materials>
    <material id="Material_004-material" name="Material.004">
      <instance_effect url="#Material_004-effect"/>
    </material>
  </library_materials>
  <library_geometries>
    <geometry id="Cube_004-mesh" name="Cube.004">
      <mesh>
        <source id="Cube_004-mesh-positions">
          <float_array id="Cube_004-mesh-positions-array" count="852">5.208905 5.163823 -4.547082 5.208905 -5.107364 -4.547082 -5.062284 -5.107363 -4.547082 -5.062283 5.163825 -4.547082 4.045532 4.000446 22.2211 4.045528 -3.943992 22.2211 -3.89891 -3.943988 22.2211 -3.898908 4.000449 22.2211 3.247227 3.137411 22.2211 3.247224 -3.080759 22.2211 -3.100244 3.137413 22.2211 -3.100244 -3.080756 22.2211 3.247227 3.137411 20.98829 3.247224 -3.080759 20.98829 -3.100244 3.137413 20.98829 -3.100244 -3.080756 20.98829 -1.087179 -3.995403 20.62451 1.087178 -3.995403 20.62451 -1.087177 -3.995403 18.37337 1.087178 -3.995403 18.37337 4.045532 4.000447 17.74615 4.045528 -3.943991 17.74615 -3.89891 -3.943988 17.74615 -3.898908 4.000449 17.74615 -2.582449 -4.402939 17.59019 -2.324752 -4.40294 17.99621 -1.907792 -4.402939 17.84112 -1.907792 -4.402939 17.33925 -2.324752 -4.40294 17.18417 -2.582449 4.283842 17.59019 -2.324752 4.283842 17.99621 -1.907792 4.283842 17.84112 -1.907792 4.283842 17.33925 -2.324752 4.283842 17.18417 -0.8810528 -4.402939 17.87012 -0.4539177 -4.402939 17.98324 -0.2279362 -4.402939 17.55318 -0.5154097 -4.402939 17.17426 -0.9190579 -4.402939 17.37014 -0.8810528 4.283842 17.87012 -0.4539177 4.283842 17.98324 -0.2279362 4.283842 17.55318 -0.5154078 4.283842 17.17426 -0.9190561 4.283842 17.37014 0.5813642 -4.402939 18.00318 0.9897648 -4.402939 17.82066 0.9643289 -4.402939 17.31964 0.5402073 -4.402939 17.19251 0.3035222 -4.402939 17.61495 0.5813661 4.283842 18.00318 0.9897648 4.283842 17.82066 0.9643289 4.283842 17.31964 0.5402092 4.283842 17.19251 0.3035241 4.283842 17.61495 2.04423 -4.402939 18.00318 2.452631 -4.402939 17.82066 2.427195 -4.402939 17.31964 2.003073 -4.402939 17.19251 1.76639 -4.402939 17.61495 2.044232 4.283842 18.00318 2.452631 4.283842 17.82066 2.427195 4.283842 17.31964 2.003075 4.283842 17.19251 1.76639 4.283842 17.61495 -1.74057 3.160199 22.10948 -1.82492 3.972843 22.10948 -0.230836 3.972843 22.10948 -0.2171702 3.160199 22.10948 -1.376165 3.160199 23.57911 -1.443607 3.972843 23.57911 -0.6121472 3.972843 23.57911 -0.5815734 3.160199 23.57911 0.3641516 3.160199 22.10948 0.3774585 3.972843 22.10948 1.971542 3.972843 22.10948 1.887551 3.160199 22.10948 0.7285548 3.160199 23.57911 0.7587696 3.972843 23.57911 1.590231 3.972843 23.57911 1.523148 3.160199 23.57911 -1.82492 -3.911937 22.10948 -1.74057 -3.099381 22.10948 -0.2171702 -3.099381 22.10948 -0.230836 -3.911937 22.10948 -1.443607 -3.911937 23.57911 -1.376165 -3.099381 23.57911 -0.5815734 -3.099381 23.57911 -0.6121472 -3.911937 23.57911 0.3774585 -3.911937 22.10948 0.3641516 -3.099381 22.10948 1.887551 -3.099381 22.10948 1.971542 -3.911937 22.10948 0.7587696 -3.911937 23.57911 0.7285548 -3.099381 23.57911 1.523148 -3.099381 23.57911 1.590231 -3.911937 23.57911 -3.121379 -1.746698 22.10948 -3.86908 -1.867777 22.10948 -3.869078 -0.2736932 22.10948 -3.121379 -0.2543299 22.10948 -3.121379 -1.389717 23.57911 -3.869078 -1.486465 23.57911 -3.869078 -0.6550052 23.57911 -3.121379 -0.6113112 23.57911 -3.121379 0.315149 22.10948 -3.86908 0.3345999 22.10948 -3.869078 1.928684 22.10948 -3.121379 1.807517 22.10948 -3.121379 0.6721304 23.57911 -3.869078 0.7159122 23.57911 -3.869078 1.547372 23.57911 -3.121379 1.450536 23.57911 4.0157 -1.867778 22.10948 3.268361 -1.746699 22.10948 3.268361 -0.2543303 22.10948 4.015702 -0.2736939 22.10948 4.015702 -1.486466 23.57911 3.268361 -1.389717 23.57911 3.268361 -0.6113117 23.57911 4.0157 -0.6550059 23.57911 4.015702 0.3345992 22.10948 3.268361 0.3151485 22.10948 3.268361 1.807517 22.10948 4.015702 1.928684 22.10948 4.015702 0.7159118 23.57911 3.268361 0.6721297 23.57911 3.268361 1.450536 23.57911 4.015702 1.547372 23.57911 -3.871881 -3.896252 22.18458 -3.144094 -3.114065 22.18458 -2.18856 -3.099381 22.10948 -2.293697 -3.911937 22.10948 -3.871881 -3.896252 23.5656 -3.144094 -3.114065 23.5656 -2.552963 -3.099381 23.57911 -2.675008 -3.911937 23.57911 -3.873171 -2.03595 21.33595 -3.138751 -1.90414 21.33595 -3.861486 -2.728827 23.55223 -3.127582 -2.552805 23.55223 4.027729 3.966285 22.18458 3.34308 3.183428 22.18458 2.344357 3.168744 22.10948 2.449545 3.98197 22.10948 4.027729 3.966285 23.5656 3.34308 3.183428 23.5656 2.708762 3.168744 23.57911 2.830856 3.98197 23.57911 4.029019 2.105983 21.33595 3.337735 1.973503 21.33595 4.017333 2.798859 23.55223 3.326568 2.622168 23.55223 4.009192 -3.914789 22.18458 3.29212 -3.172205 22.18458 3.277131 -2.18561 22.10948 4.024877 -2.336604 22.10948 4.009192 -3.914789 23.5656 3.29212 -3.172205 23.5656 3.277131 -2.542591 23.57911 4.024877 -2.717916 23.57911 2.14889 -3.916079 21.33595 2.057036 -3.16697 21.33595 2.841766 -3.904394 23.55223 2.71919 -3.15603 23.55223 -3.853343 3.984821 22.18458 -3.136322 3.212696 22.18458 -3.12133 2.254972 22.10948 -3.869029 2.406637 22.10948 -3.853343 3.984821 23.5656 -3.136322 3.212696 23.5656 -3.121332 2.611953 23.57911 -3.869029 2.787949 23.57911 -1.993042 3.986111 21.33595 -1.901237 3.207461 21.33595 -2.685918 3.974426 23.55223 -2.56339 3.196521 23.55223 3.30037 3.189472 21.19372 3.300367 -3.13282 21.19372 -3.153389 -3.132817 21.19372 -3.153387 3.189474 21.19372 2.474935 2.380851 20.90687 2.474931 -2.324199 20.90687 -2.327952 2.380853 20.90687 -2.327954 -2.324197 20.90687 -2.637681 2.751448 20.83305 0.1357578 2.751446 20.83305 -2.637681 0.2137333 20.83305 0.1357578 0.2137323 20.83305 -2.637681 2.751448 21.20628 0.1357578 2.751446 21.20628 -2.637681 0.2137333 21.20628 0.1357578 0.2137323 21.20628 4.045528 -3.50815 22.2211 4.045528 -3.501857 17.74615 5.671634 -3.471434 -4.547082 3.544906 -3.943991 17.74615 4.011859 -5.570094 -4.547082 3.458967 -3.943991 22.2211 -3.464759 -3.943989 17.74615 -3.653317 -5.570093 -4.547082 -3.380066 -3.943988 22.2211 -3.89891 -3.494819 22.2211 -3.89891 -3.474067 17.74615 -5.525013 -3.094193 -4.547082 -3.898908 3.450296 22.2211 -3.898908 3.541585 17.74615 -5.525012 3.760719 -4.547082 -3.297824 4.000448 22.2211 -3.35041 4.000449 17.74615 -3.358377 5.626554 -4.547082 3.557367 4.000447 17.74615 3.500713 4.000447 22.2211 3.361404 5.626553 -4.547082 4.045532 3.39268 22.2211 5.671634 3.525204 -4.547082 4.045532 3.507158 17.74615 -3.943899 -3.988977 18.39928 -3.943897 4.045438 18.39928 4.090517 -3.988981 18.39928 4.090521 4.045436 18.39928 -3.943899 -3.988977 17.677 -3.943897 4.045438 17.677 4.090517 -3.988981 17.677 4.090521 4.045436 17.677 4.215556 -4.114021 18.03814 4.215562 4.170476 18.03814 -4.068936 4.170478 18.03814 -4.068938 -4.114017 18.03814 4.045528 -3.50815 22.2211 4.045528 -3.943992 22.2211 -3.297824 4.000448 22.2211 -3.898908 4.000449 22.2211 -3.380066 -3.943988 22.2211 -3.89891 -3.943988 22.2211 -3.898908 3.450296 22.2211 4.045532 3.39268 22.2211 4.045532 4.000446 22.2211 3.458967 -3.943991 22.2211 -3.89891 -3.494819 22.2211 3.500713 4.000447 22.2211 -3.943899 -3.988977 21.21564 -3.943897 4.045438 21.21564 4.090517 -3.988981 21.21564 4.090521 4.045436 21.21564 -3.943899 -3.988977 20.49337 -3.943897 4.045438 20.49337 4.090517 -3.988981 20.49337 4.090521 4.045436 20.49337 4.215556 -4.114021 20.8545 4.215562 4.170476 20.8545 -4.068936 4.170478 20.8545 -4.068938 -4.114017 20.8545 -1.087179 4.036837 20.62451 1.087178 4.036837 20.62451 -1.087177 4.036837 18.37337 1.087178 4.036837 18.37337 4.114091 -1.066462 20.62451 4.114091 1.107895 20.62451 4.114091 -1.06646 18.37337 4.114091 1.107895 18.37337 -3.91815 -1.066462 20.62451 -3.91815 1.107896 20.62451 -3.91815 -1.06646 18.37337 -3.91815 1.107896 18.37337 4.307988 -2.606596 20.45069 4.307989 -2.348899 20.85671 4.307989 -1.93194 20.70162 4.307989 -1.93194 20.19975 4.307989 -2.348899 20.04467 -4.378792 -2.606595 20.45069 -4.378792 -2.348899 20.85671 -4.378792 -1.931939 20.70162 -4.378792 -1.931939 20.19975 -4.378792 -2.348899 20.04467 4.307989 2.020083 20.86367 4.307989 2.428483 20.68116 4.307989 2.403048 20.18014 4.307989 1.978926 20.05301 4.307989 1.742243 20.47545 -4.378792 2.020086 20.86367 -4.378792 2.428484 20.68116 -4.378793 2.403048 20.18014 -4.378792 1.978929 20.05301 -4.378793 1.742244 20.47545</float_array>
          <technique_common>
            <accessor source="#Cube_004-mesh-positions-array" count="284" stride="3">
              <param name="X" type="float"/>
              <param name="Y" type="float"/>
              <param name="Z" type="float"/>
            </accessor>
          </technique_common>
        </source>
        <source id="Cube_004-mesh-normals">
          <float_array id="Cube_004-mesh-normals-array" count="861">1 0 0 1 -3.70255e-7 0 0.7061623 -0.7061498 0.05184006 0.9993374 -3.32639e-7 0.03639823 -1.19863e-6 -0.9993374 0.03639811 -0.7071025 -0.7071111 2.72566e-7 -0.7061687 -0.706152 0.05172067 -0.9993374 1.54349e-7 0.03639769 -0.7071083 0.7071053 0 -0.7061553 0.7061609 0.05178475 0.706159 0.7061628 0.05170804 0.1191089 0.990509 0.06859415 2.06628e-7 0.9993374 0.03639823 -3.9312e-6 0 1 0 0 1 3.45813e-6 0 1 -8.12934e-7 0 1 2.17265e-7 0 1 -8.96877e-7 0 1 -4.31859e-7 0 1 8.32871e-7 0 1 4.34092e-6 0 1 -5.69652e-7 0 1 -1 4.97623e-7 0 -3.38051e-7 -1 0 4.88296e-7 1 0 0 -1 0 0.9885022 -0.1344156 0.06925368 0.7366466 -0.6722693 0.07352441 -0.1554204 -0.9853537 0.0701611 -0.7359864 -0.6729916 0.07352763 -0.9852543 0.1560378 0.07018804 -0.6865335 0.723366 0.07357579 0.7071072 0.7071064 0 1.01732e-6 1 0 -0.844301 0 -0.5358693 0.3485981 0 -0.9372724 -0.8443008 0 0.5358697 0.3486183 0 0.9372648 0 1 0 1.14358e-6 -1 -2.27868e-6 1.14365e-6 -1 2.27871e-6 -0.9971235 0 0.07579433 -0.4365839 0 -0.8996636 0.7966769 -1.73114e-7 -0.6044055 -0.2560053 0 0.9666754 0.8852286 0 0.4651563 0 1 3.52076e-7 0 -1 -1.13935e-6 0 -1 7.9217e-7 -0.8132032 1.79656e-7 0.5819801 -0.8724035 1.91295e-7 -0.4887866 0.2871247 0 -0.9578933 0.4080268 0 0.91297 0.9987138 0 -0.05070281 0 1 -2.27864e-6 0 1 2.27873e-6 0 -1 -1.13931e-6 0 -1 1.13936e-6 -0.8132051 1.7247e-7 0.5819773 -0.8724054 0 -0.4887832 0.2871243 0 -0.9578934 0.4080264 0 0.9129701 0 1 -1.13936e-6 0 -1 -1.13932e-6 -0.9674735 -0.08029174 0.2398925 0.9673082 0.0363928 0.2509792 0 -1 2.04168e-7 -0.970485 0.01589143 0.2406374 0.9631418 -0.09954553 0.2498974 0 -1 4.08336e-7 -0.9630995 0.09997767 0.2498876 0.9704783 -0.01632177 0.2406357 -0.9673233 -0.03596973 0.2509823 0.9675064 0.07987523 0.2398987 0 -1 -3.9023e-7 0.1247554 -0.9641513 0.2341977 -1 0 1.29785e-6 -0.05647528 0.9664046 0.2507445 -0.02527105 -0.9714326 0.2359666 -1 1.22124e-6 9.87393e-7 0.1549635 0.9562568 0.2481116 3.27716e-6 0 1 -0.1549267 -0.9562623 0.2481133 -1 0 0 0.02517008 0.971435 0.2359672 1 -8.14163e-7 9.87394e-7 -2.30214e-6 0 1 0.05661439 -0.9663968 0.2507431 -0.1249263 0.9641304 0.2341925 -0.9999807 0.001996338 0.005896389 -0.02483272 0.9996917 0 0.9630427 -0.1246085 0.238792 -0.01006239 -0.999946 -0.002610981 -0.01114976 0.01037472 0.9998841 -0.2230685 0.9300595 0.2919414 0.1025701 -0.5715015 -0.8141655 -0.01242363 0.01156198 0.9998561 0.9995676 -0.02940672 0 0.9999807 -0.001996338 0.005896806 0.02314299 -0.9997322 0 -0.9630477 0.1245668 0.2387937 0.01006221 0.999946 -0.002610981 0.01115643 -0.009758591 0.9998902 0.2370851 -0.9268757 0.2910192 -0.1094492 0.571101 -0.8135506 0.01322889 -0.01156902 0.9998456 -0.9995676 0.02940607 0 -0.001996338 -0.9999807 0.005896389 -0.9997168 -0.02379918 0 0.1925549 0.9535579 0.2316246 0.999946 -0.01006239 -0.002610743 -0.01152735 -0.01113498 0.9998716 -0.9427648 -0.1544172 0.2955505 0.5651468 0.06929659 -0.822075 -0.01155149 -0.01115399 0.9998711 0.02822083 0.9996017 0 0.001996457 0.9999806 0.00589627 0.9996889 0.02494454 0 -0.1933903 -0.9533984 0.2315854 -0.999946 0.01006305 -0.002610921 0.01197773 0.01112896 0.9998664 0.9436202 0.14863 0.2957875 -0.5652391 -0.06664329 -0.8222308 0.01154965 0.01072293 0.9998759 -0.02822071 -0.9996017 0 -0.1681243 -0.1726657 0.9705261 -0.1708348 0.1699029 0.9705403 -0.1708447 -0.1698938 0.9705402 0.1681239 -0.1726656 0.9705261 0.1708397 -0.1698985 0.9705402 -0.1681228 0.172666 0.9705263 0.1708393 0.1698981 0.9705405 0.1681227 0.1726659 0.9705263 -6.53803e-7 0 1 -3.59977e-7 -1 0 6.8772e-7 1 0 1 -2.93878e-7 0 0.9993374 -2.57419e-7 0.03639763 0.9885327 0.1341949 0.06924432 0.7071034 -0.7071102 0 -1.61564e-7 -0.9993374 0.03639769 0.1812471 -0.9808517 0.07127112 -9.67425e-7 -1 0 -1 1.22379e-7 0 -0.9993374 1.44707e-7 0.03639817 -0.9916774 -0.1092184 0.0681712 -1 1.62887e-7 0 -0.1291134 0.9892247 0.06902509 1.76313e-7 0.9993374 0.03639775 8.93361e-7 1 2.5427e-7 0.6948428 0.7153865 0.0735929 0.7071015 -0.7071122 -2.19561e-6 0.6350604 0.6350613 0.4397675 0.6350679 -0.6350581 0.4397615 -0.6350578 0.635066 -0.4397644 -0.7071087 -0.7071049 3.71519e-6 -0.7071083 0.7071053 -3.29746e-6 0.6350607 0.6350615 -0.4397669 0.7071074 0.7071062 4.71062e-7 -0.6350589 -0.6350662 0.4397628 -0.6350634 0.6350622 0.439762 0.6350659 -0.6350574 -0.4397652 0.7071011 -0.7071125 -7.00989e-6 0.6350604 0.6350613 0.4397675 -0.6350553 0.6350628 -0.4397728 -0.7071086 -0.707105 -1.50208e-6 -0.7071086 0.7071051 -6.87937e-6 0.6350579 0.6350584 -0.4397753 0.7071075 0.7071062 -3.34189e-6 0.6350619 -0.6350542 -0.4397755 0 1 0 0 -0.8443 -0.5358707 0 0.3485985 -0.9372723 0 1 0 0 -0.8442999 0.5358709 0 0.3486173 0.9372652 -1 1.13937e-6 0 1 0 -1.90026e-6 1 -1.40829e-6 0 1 0 1.90028e-6 -4.59927e-7 -0.8131997 0.5819848 -1.48603e-7 -0.8724034 -0.4887866 0 0.2871282 -0.9578922 0 0.4080028 0.9129807 0 0.998714 -0.05070084 -1 0 1.86123e-6 -1 1.40831e-6 1.86123e-6 -1 -1.13938e-6 -3.01162e-6 1 7.04154e-7 0 1 -1.13937e-6 0 -2.11686e-7 -1 2.72874e-7 -1 4.97625e-7 0 -3.38051e-7 -1 0 0 -1 0 0.3485976 0 -0.9372726 -0.844301 0 0.5358693 0.3486184 0 0.9372648 -0.9971238 2.05263e-7 0.07579135 -0.4365838 0 -0.8996637 0.7966735 0 -0.6044101 -0.2560127 0 0.9666735 -0.8724017 1.91296e-7 -0.4887897 0.2871332 0 -0.9578908 0.4080153 0 0.9129751 0.9987138 0 -0.05070281 -0.8132032 0 0.5819799 -0.8724019 1.98381e-7 -0.4887893 0.2871328 0 -0.9578908 0.408015 0 0.9129753 -0.9631007 -0.09996694 0.2498878 0.9704784 0.01631999 0.2406355 -0.9673232 0.03596591 0.2509831 0 1 4.07081e-7 0.967507 -0.07986688 0.2398993 0 -1 -4.2597e-7 -0.967473 0.08030015 0.2398916 0 1 2.04168e-7 0.9673083 -0.03639668 0.2509782 0 -1 -4.07081e-7 -0.970485 -0.01589316 0.2406374 0 1 2.04168e-7 0.9631408 0.09955626 0.249897 0.1548542 -0.9562734 0.2481157 -1 1.22124e-6 3.1045e-7 -0.02515757 0.9714353 0.2359673 -2.30104e-6 0 1 -0.056589 -0.9663982 0.2507433 0.1248674 0.9641376 0.2341942 -6.13609e-6 0 1 -0.1248159 -0.9641438 0.2341964 0.05650246 0.966403 0.2507444 1 1.56092e-6 -1.89304e-6 6.55747e-6 0 1 0.02528297 -0.9714323 0.2359664 -0.1550362 0.9562457 0.2481089 -1.22952e-6 0 1 -0.9999604 0.00890392 0 -0.01567065 0.9998698 -0.003885746 0.9578793 -0.1438726 0.2485319 -0.0131039 -0.9999142 0 -0.02293848 0.003444552 0.999731 -0.1697084 0.9455852 0.2776107 0.4071583 -0.3788414 -0.8310846 -0.005752861 0.02398431 0.9996958 0.9999182 -0.01000332 -0.007966935 0.9999604 -0.008904516 0 0.01498025 -0.999881 -0.003714561 -0.9578874 0.1438136 0.2485348 0.01310366 0.9999142 0 0.02136927 -0.003207981 0.9997665 0.1808475 -0.9436666 0.2771055 -0.4285105 0.3747527 -0.8221552 0.006139755 -0.02399551 0.9996932 -0.9999182 0.01000422 -0.007966458 -0.008903861 -0.9999604 0 -0.9998732 -0.01547694 -0.003759384 0.221327 0.9439439 0.2449169 0.9999142 -0.01310354 0 -0.005058765 -0.02157229 0.9997545 -0.9514495 -0.1166647 0.2848393 0.3850613 0.371834 -0.8446698 -0.02343869 -0.003839075 0.999718 0.00960046 0.9999235 -0.007804393 0.008903861 0.9999604 0 0.9998652 0.01595604 -0.003874361 -0.2221476 -0.9437633 0.2448703 -0.9999142 0.01310473 0 0.005325019 0.02261513 0.9997301 0.9519445 0.1122364 0.2849647 -0.3870868 -0.3594623 -0.8490882 0.02342981 0.003691196 0.9997187 -0.009600639 -0.9999235 -0.007803916 1.084e-6 0 1 -3.59981e-7 -1 0 -0.635065 -0.6350623 -0.4397594 -0.6350612 -0.6350591 -0.4397698 -2.28293e-7 -0.8443013 -0.5358688 0 0.3485975 -0.9372726 0 1 0 0 -0.8443013 0.5358688 0 0.3486163 0.9372656 0 -0.8131972 0.5819884 -2.26722e-7 -0.8724011 -0.4887907 0 0.2871298 -0.9578918 0 0.408005 0.9129797 0 0.9987139 -0.05070275</float_array>
          <technique_common>
            <accessor source="#Cube_004-mesh-normals-array" count="287" stride="3">
              <param name="X" type="float"/>
              <param name="Y" type="float"/>
              <param name="Z" type="float"/>
            </accessor>
          </technique_common>
        </source>
        <source id="Cube_004-mesh-map-0">
          <float_array id="Cube_004-mesh-map-0-array" count="2280">0.1355754 0.9498046 0.2715693 0.9277539 0.2715693 0.9498046 0.2506718 0.9980192 0.2645712 0.6458364 0.2504715 0.6458364 0.5040749 0.6458368 0.5179198 0.9980198 0.51792 0.6458369 0.281466 0.6458372 0.2669715 0.9980202 0.2669714 0.6458373 0.01362216 0.6458374 0.06589627 0.01358872 0.02918976 0.6458374 0.9278324 0.8151482 0.9252135 0.8284656 0.9396545 0.828698 0.9278324 0.8151482 0.7612437 0.8258273 0.9252135 0.8284656 0.9278324 0.8151482 0.7639039 0.8127851 0.7612437 0.8258273 0.7639039 0.8127851 0.7508878 0.8256607 0.7612437 0.8258273 0.7597496 0.8147721 0.7629812 0.8289348 0.7485197 0.8289542 0.7597496 0.8147721 0.9265468 0.8287156 0.7629812 0.8289348 0.7597496 0.8147721 0.9396545 0.828698 0.9265468 0.8287156 0.7597496 0.8147721 0.9278324 0.8151482 0.9396545 0.828698 0.7639039 0.8127851 0.925446 0.8151929 0.939879 0.8260782 0.7639039 0.8127851 0.939879 0.8260782 0.9275361 0.8260509 0.7639039 0.8127851 0.9275361 0.8260509 0.7648416 0.8256915 0.7639039 0.8127851 0.7648416 0.8256915 0.7508878 0.8256607 0.7597496 0.8147721 0.7485197 0.8289542 0.7617714 0.8287551 0.7597496 0.8147721 0.7617714 0.8287551 0.9290598 0.8262408 0.925446 0.8151929 0.7597496 0.8147721 0.9290598 0.8262408 0.925446 0.8151929 0.9290598 0.8262408 0.939879 0.8260782 0.8542265 0.970626 0.7180302 0.859278 0.8542265 0.859278 0.4075639 0.9498044 0.5435599 0.9277539 0.5435599 0.9498047 0.2715693 0.9498046 0.4075639 0.9277536 0.4075639 0.9498044 -4.18206e-4 0.9498047 0.1355754 0.9277541 0.1355754 0.9498046 0.6229926 0.8096198 0.7204933 0.6959229 0.6229926 0.6959229 0.2170848 0.01358807 0.2645712 0.6458364 0.2645716 0.01358819 0.4755691 0.01358842 0.51792 0.6458369 0.5179203 0.01358854 0.3087899 0.01358866 0.2669714 0.6458373 0.2669712 0.01358872 0.01362216 0.9980206 0.02918976 0.6458374 0.0309965 0.9980206 0.6238061 0.4342435 1.000756 0.3903416 0.6238061 0.3903416 1.000756 0.4331152 0.6238061 0.3904096 0.6238061 0.4331144 1.000756 0.3904101 0.6238061 0.434477 0.6238061 0.3904096 1.000756 0.3905753 0.6238061 0.4342435 0.6238061 0.3905751 0.6238061 0.434477 1.000756 0.3905753 0.6238061 0.3905751 0.8034749 0.9986894 0.8205232 0.9986894 0.7982067 0.9824753 0.8205232 0.9986894 0.8257915 0.9824753 0.7982067 0.9824753 0.8257915 0.9824753 0.8119991 0.9724546 0.7982067 0.9824753 0.8241975 0.9999544 0.8071544 0.9999544 0.8018879 0.9837453 0.8241975 0.9999544 0.8018879 0.9837453 0.8294642 0.9837453 0.8018879 0.9837453 0.815676 0.9737277 0.8294642 0.9837453 1.000756 0.4342436 0.6238061 0.3903416 0.6238061 0.4342435 1.000756 0.4331152 0.6238061 0.3904096 0.6238061 0.4331144 1.000756 0.3904101 0.6238061 0.434477 0.6238061 0.3904096 1.000756 0.3905753 0.6238061 0.4342435 0.6238061 0.3905751 1.000756 0.4344775 0.6238061 0.3905751 0.6238061 0.434477 0.8034749 0.9986894 0.8205232 0.9986894 0.7982067 0.9824753 0.8205232 0.9986894 0.8119991 0.9724546 0.7982067 0.9824753 0.8205232 0.9986894 0.8257915 0.9824753 0.8119991 0.9724546 0.8241975 0.9999544 0.8071544 0.9999544 0.8018879 0.9837453 0.8241975 0.9999544 0.8018879 0.9837453 0.815676 0.9737277 0.8241975 0.9999544 0.815676 0.9737277 0.8294642 0.9837453 1.000756 0.4342436 0.6238061 0.3903416 0.6238061 0.4342435 1.000756 0.4331152 0.6238061 0.3904096 0.6238061 0.4331144 1.000756 0.3904101 0.6238061 0.434477 0.6238061 0.3904096 0.6238061 0.3905751 1.000756 0.4342436 0.6238061 0.4342435 1.000756 0.4344775 0.6238061 0.3905751 0.6238061 0.434477 0.8034749 0.9986894 0.8119991 0.9724546 0.7982067 0.9824753 0.8034749 0.9986894 0.8205232 0.9986894 0.8119991 0.9724546 0.8205232 0.9986894 0.8257915 0.9824753 0.8119991 0.9724546 0.8071544 0.9999544 0.8018879 0.9837453 0.815676 0.9737277 0.8241975 0.9999544 0.8071544 0.9999544 0.815676 0.9737277 0.8241975 0.9999544 0.815676 0.9737277 0.8294642 0.9837453 1.000756 0.4342436 0.6238061 0.3903416 0.6238061 0.4342435 1.000756 0.4331152 0.6238061 0.3904096 0.6238061 0.4331144 1.000756 0.3904101 0.6238061 0.434477 0.6238061 0.3904096 0.6238061 0.3905751 1.000756 0.4342436 0.6238061 0.4342435 1.000756 0.4344775 0.6238061 0.3905751 0.6238061 0.434477 0.8034749 0.9986894 0.8119991 0.9724546 0.7982067 0.9824753 0.8034749 0.9986894 0.8205232 0.9986894 0.8119991 0.9724546 0.8205232 0.9986894 0.8257915 0.9824753 0.8119991 0.9724546 0.8071544 0.9999544 0.8018879 0.9837453 0.815676 0.9737277 0.8241975 0.9999544 0.8071544 0.9999544 0.815676 0.9737277 0.8241975 0.9999544 0.815676 0.9737277 0.8294642 0.9837453 0.05257076 0.8522347 0.08205652 0.7631298 0.08205568 0.8522348 0.1622614 0.9752891 0.08087801 0.85648 0.1878497 0.85648 0.08205604 0.8931431 0.05257123 0.9822502 0.05257081 0.8931432 0.2134829 0.9752888 0.2948665 0.85648 0.2692784 0.9752889 0.05257081 0.8931432 0.08205568 0.8522348 0.08205604 0.8931431 0.08205568 0.8522348 0.05257195 0.7631296 0.08205652 0.7631298 0.1064659 0.9752889 0.1878497 0.85648 0.1622614 0.9752891 0.05257081 0.8931432 0.08205652 0.98225 0.05257123 0.9822502 0.2134829 0.9752888 0.2948665 0.85648 0.2692784 0.9752889 0.08205604 0.8931431 0.05257076 0.8522347 0.08205568 0.8522348 0.08205568 0.8522348 0.05257195 0.7631296 0.08205652 0.7631298 0.1622614 0.9752891 0.08087801 0.85648 0.1878497 0.85648 0.05257081 0.8931432 0.08205652 0.98225 0.05257123 0.9822502 0.2134829 0.9752888 0.2948665 0.85648 0.2692784 0.9752889 0.08205604 0.8931431 0.05257076 0.8522347 0.08205568 0.8522348 0.05257076 0.8522347 0.08205652 0.7631298 0.08205568 0.8522348 0.1622614 0.9752891 0.08087801 0.85648 0.1878497 0.85648 0.08205604 0.8931431 0.05257123 0.9822502 0.05257081 0.8931432 0.2134829 0.9752888 0.2948665 0.85648 0.2692784 0.9752889 0.05257081 0.8931432 0.08205568 0.8522348 0.08205604 0.8931431 0.05257076 0.8522347 0.08205652 0.7631298 0.08205568 0.8522348 0.1064659 0.9752889 0.1878497 0.85648 0.1622614 0.9752891 0.08205604 0.8931431 0.05257123 0.9822502 0.05257081 0.8931432 0.2692784 0.9752889 0.1878947 0.85648 0.2948665 0.85648 0.05257081 0.8931432 0.08205568 0.8522348 0.08205604 0.8931431 0.08205568 0.8522348 0.05257195 0.7631296 0.08205652 0.7631298 0.1622614 0.9752891 0.08087801 0.85648 0.1878497 0.85648 0.05257081 0.8931432 0.08205652 0.98225 0.05257123 0.9822502 0.2134829 0.9752888 0.2948665 0.85648 0.2692784 0.9752889 0.08205604 0.8931431 0.05257076 0.8522347 0.08205568 0.8522348 0.08205568 0.8522348 0.05257195 0.7631296 0.08205652 0.7631298 0.1622614 0.9752891 0.08087801 0.85648 0.1878497 0.85648 0.05257081 0.8931432 0.08205652 0.98225 0.05257123 0.9822502 0.2692784 0.9752889 0.1878947 0.85648 0.2948665 0.85648 0.08205604 0.8931431 0.05257076 0.8522347 0.08205568 0.8522348 0.05257076 0.8522347 0.08205652 0.7631298 0.08205568 0.8522348 0.1064659 0.9752889 0.1878497 0.85648 0.1622614 0.9752891 0.08205604 0.8931431 0.05257123 0.9822502 0.05257081 0.8931432 0.2134829 0.9752888 0.2948665 0.85648 0.2692784 0.9752889 0.05257081 0.8931432 0.08205568 0.8522348 0.08205604 0.8931431 0.3283351 0.85648 0.2134829 0.9752888 0.1878947 0.85648 0.1064659 0.9752889 0.1878497 0.85648 0.1622614 0.9752891 0.05257081 0.8931432 0.08205652 0.98225 0.05257123 0.9822502 0.2692784 0.9752889 0.1878947 0.85648 0.2948665 0.85648 0.08205604 0.8931431 0.05257076 0.8522347 0.08205568 0.8522348 0.05257076 0.8522347 0.08205652 0.7631298 0.08205568 0.8522348 0 0 0.05257195 0.7631296 0 0 0.05257076 0.8522347 0.08205568 0.7730382 0.08205568 0.8522348 0.2810221 0.85648 0.1622614 0.9752891 0.2554339 0.9752891 0.3283351 0.85648 0.2134829 0.9752888 0.1878947 0.85648 0.1064659 0.9752889 0.1878497 0.85648 0.1622614 0.9752891 0.05257081 0.8931432 0.08205652 0.98225 0.05257123 0.9822502 0.2692784 0.9752889 0.1878947 0.85648 0.2948665 0.85648 0.08205604 0.8931431 0.05257076 0.8522347 0.08205568 0.8522348 0.05257076 0.8522347 0.08205652 0.7631298 0.08205568 0.8522348 0 0 0.05257195 0.7631296 0 0 0.05257076 0.8522347 0.08205568 0.7730382 0.08205568 0.8522348 0.2810221 0.85648 0.1622614 0.9752891 0.2554339 0.9752891 0.3283351 0.85648 0.2134829 0.9752888 0.1878947 0.85648 0.1064659 0.9752889 0.1878497 0.85648 0.1622614 0.9752891 0.05257081 0.8931432 0.08205652 0.98225 0.05257123 0.9822502 0.2692784 0.9752889 0.1878947 0.85648 0.2948665 0.85648 0.08205604 0.8931431 0.05257076 0.8522347 0.08205568 0.8522348 0.05257076 0.8522347 0.08205652 0.7631298 0.08205568 0.8522348 0 0 0.05257195 0.7631296 0 0 0.05257076 0.8522347 0.08205568 0.7730382 0.08205568 0.8522348 0.2810221 0.85648 0.1622614 0.9752891 0.2554339 0.9752891 0.3283351 0.85648 0.2134829 0.9752888 0.1878947 0.85648 0.1064659 0.9752889 0.1878497 0.85648 0.1622614 0.9752891 0.05257081 0.8931432 0.08205652 0.98225 0.05257123 0.9822502 0.2692784 0.9752889 0.1878947 0.85648 0.2948665 0.85648 0.08205604 0.8931431 0.05257076 0.8522347 0.08205568 0.8522348 0.05257076 0.8522347 0.08205652 0.7631298 0.08205568 0.8522348 0 0 0.05257195 0.7631296 0 0 0.05257076 0.8522347 0.08205568 0.7730382 0.08205568 0.8522348 0.2810221 0.85648 0.1622614 0.9752891 0.2554339 0.9752891 0.9750201 0.8400177 0.6982392 0.8564615 0.9935125 0.8612126 0.7121011 0.8394295 0.9935125 0.8612126 0.6945351 0.8616134 0.7185994 0.8363213 0.9938637 0.8571147 0.6982392 0.8564615 0.7121011 0.8394295 0.9938637 0.8571147 0.9712873 0.8400876 0.7411168 0.9996515 0.8344533 0.895858 0.8344533 0.9996514 0.7411168 0.895858 0.7411168 0.9996515 0.7411168 0.9996515 0.8344533 0.9996514 0.8344533 0.895858 0.8344533 0.895858 0.7411168 0.9996515 0.8344533 0.9996514 0.8344533 0.9996514 0.8344533 0.895858 0.7411168 0.895858 0.7411168 0.895858 0.03060346 0.9980188 0.2504715 0.6458364 0.02695333 0.6458359 0.02695333 0.6458359 0.2170848 0.01358807 0.05877047 0.01358765 0.2645708 0.9980193 0.2805361 0.6458365 0.2645712 0.6458364 0.2645712 0.6458364 0.3021277 0.01358819 0.2645716 0.01358819 0.2805361 0.6458365 0.4755691 0.01358842 0.3021277 0.01358819 0.2832763 0.9980193 0.5040749 0.6458368 0.2805361 0.6458365 0.51792 0.6458369 0.5037314 0.9980198 0.5030762 0.6458369 0.51792 0.6458369 0.4624282 0.01358854 0.5179203 0.01358854 0.5030762 0.6458369 0.2843497 0.9980202 0.281466 0.6458372 0.4624282 0.01358854 0.281466 0.6458372 0.3087899 0.01358866 0.2179462 0.01358872 0.2669714 0.6458373 0.2494797 0.6458373 0.2494797 0.6458373 0.2669715 0.9980202 0.2478028 0.9980202 0.06589627 0.01358872 0.2494797 0.6458373 0.02918976 0.6458374 0.0309965 0.9980206 0.2494797 0.6458373 0.2478028 0.9980202 0.01122236 0.6458359 0.05877047 0.01358765 0.01122283 0.01358759 0.01122176 0.9980188 0.02695333 0.6458359 0.01122236 0.6458359 0.8536537 0.7083376 0.7235656 0.7215079 0.8536537 0.7215082 0.9841837 0.6951669 0.8540972 0.7083376 0.9841837 0.7083374 0.8536537 0.7083376 0.7235656 0.6951666 0.7235656 0.7083372 0.9841837 0.7083374 0.8540972 0.7215081 0.9841837 0.721508 0.8540972 0.7083376 0.724011 0.6951673 0.724011 0.7083377 0.8540972 0.7083376 0.724011 0.7215082 0.8540972 0.7215081 0.7235656 0.7215079 0.9841837 0.7083374 0.9841837 0.721508 0.7235656 0.6951666 0.9841837 0.7083374 0.7235656 0.7083372 0.8214128 0.8500923 0.6556975 0.8632626 0.8214128 0.8632629 0.9876909 0.8369216 0.8219777 0.8500923 0.9876909 0.8500922 0.8214128 0.8500923 0.6556975 0.8369213 0.6556975 0.8500919 0.9876909 0.8500922 0.8219777 0.8632628 0.9876909 0.8632627 0.8219777 0.8500923 0.6562648 0.8369221 0.6562648 0.8500925 0.8219777 0.8500923 0.6562648 0.8632629 0.8219777 0.8632628 0.6556975 0.8632626 0.9876909 0.8500922 0.9876909 0.8632627 0.6556975 0.8369213 0.9876909 0.8500922 0.6556975 0.8500919 0.6229926 0.8096198 0.7204933 0.6959229 0.7204933 0.8096198 0.6229926 0.8096198 0.7204933 0.6959229 0.6229926 0.6959229 0.6229926 0.8096198 0.7204933 0.6959229 0.7204933 0.8096198 0.6238061 0.4342435 1.000756 0.3903416 0.6238061 0.3903416 1.000756 0.4331152 0.6238061 0.3904096 0.6238061 0.4331144 1.000756 0.3904101 0.6238061 0.434477 0.6238061 0.3904096 1.000756 0.3905753 0.6238061 0.4342435 0.6238061 0.3905751 0.6238061 0.434477 1.000756 0.3905753 0.6238061 0.3905751 0.8034749 0.9986894 0.8205232 0.9986894 0.7982067 0.9824753 0.8205232 0.9986894 0.8257915 0.9824753 0.7982067 0.9824753 0.8257915 0.9824753 0.8119991 0.9724546 0.7982067 0.9824753 0.8241975 0.9999544 0.8071544 0.9999544 0.8018879 0.9837453 0.8241975 0.9999544 0.8018879 0.9837453 0.8294642 0.9837453 0.8018879 0.9837453 0.815676 0.9737277 0.8294642 0.9837453 1.000756 0.4342436 0.6238061 0.3903416 0.6238061 0.4342435 0.6238061 0.4331144 1.000756 0.3904101 0.6238061 0.3904096 1.000756 0.3904101 0.6238061 0.434477 0.6238061 0.3904096 0.6238061 0.3905751 1.000756 0.4342436 0.6238061 0.4342435 0.6238061 0.434477 1.000756 0.3905753 0.6238061 0.3905751 0.8034749 0.9986894 0.8119991 0.9724546 0.7982067 0.9824753 0.8034749 0.9986894 0.8205232 0.9986894 0.8119991 0.9724546 0.8205232 0.9986894 0.8257915 0.9824753 0.8119991 0.9724546 0.8071544 0.9999544 0.8018879 0.9837453 0.815676 0.9737277 0.8241975 0.9999544 0.8071544 0.9999544 0.815676 0.9737277 0.8241975 0.9999544 0.815676 0.9737277 0.8294642 0.9837453 0.1355754 0.9498046 0.1355754 0.9277541 0.2715693 0.9277539 0.2506718 0.9980192 0.2645708 0.9980193 0.2645712 0.6458364 0.5040749 0.6458368 0.5013738 0.9980198 0.5179198 0.9980198 0.281466 0.6458372 0.2843497 0.9980202 0.2669715 0.9980202 0.01362216 0.6458374 0.01362216 0.01358872 0.06589627 0.01358872 0.8542265 0.970626 0.7180302 0.9706261 0.7180302 0.859278 0.4075639 0.9498044 0.4075639 0.9277536 0.5435599 0.9277539 0.2715693 0.9498046 0.2715693 0.9277539 0.4075639 0.9277536 -4.18206e-4 0.9498047 -4.18206e-4 0.9277542 0.1355754 0.9277541 0.6229926 0.8096198 0.7204933 0.8096198 0.7204933 0.6959229 0.2170848 0.01358807 0.2504715 0.6458364 0.2645712 0.6458364 0.4755691 0.01358842 0.5040749 0.6458368 0.51792 0.6458369 0.3087899 0.01358866 0.281466 0.6458372 0.2669714 0.6458373 0.01362216 0.9980206 0.01362216 0.6458374 0.02918976 0.6458374 0.6238061 0.4342435 1.000756 0.4342436 1.000756 0.3903416 1.000756 0.4331152 1.000756 0.3904101 0.6238061 0.3904096 1.000756 0.3904101 1.000756 0.4344775 0.6238061 0.434477 1.000756 0.3905753 1.000756 0.4342436 0.6238061 0.4342435 0.6238061 0.434477 1.000756 0.4344775 1.000756 0.3905753 1.000756 0.4342436 1.000756 0.3903416 0.6238061 0.3903416 1.000756 0.4331152 1.000756 0.3904101 0.6238061 0.3904096 1.000756 0.3904101 1.000756 0.4344775 0.6238061 0.434477 1.000756 0.3905753 1.000756 0.4342436 0.6238061 0.4342435 1.000756 0.4344775 1.000756 0.3905753 0.6238061 0.3905751 1.000756 0.4342436 1.000756 0.3903416 0.6238061 0.3903416 1.000756 0.4331152 1.000756 0.3904101 0.6238061 0.3904096 1.000756 0.3904101 1.000756 0.4344775 0.6238061 0.434477 0.6238061 0.3905751 1.000756 0.3905753 1.000756 0.4342436 1.000756 0.4344775 1.000756 0.3905753 0.6238061 0.3905751 1.000756 0.4342436 1.000756 0.3903416 0.6238061 0.3903416 1.000756 0.4331152 1.000756 0.3904101 0.6238061 0.3904096 1.000756 0.3904101 1.000756 0.4344775 0.6238061 0.434477 0.6238061 0.3905751 1.000756 0.3905753 1.000756 0.4342436 1.000756 0.4344775 1.000756 0.3905753 0.6238061 0.3905751 0.05257076 0.8522347 0.05257195 0.7631296 0.08205652 0.7631298 0.1622614 0.9752891 0.1064659 0.9752889 0.08087801 0.85648 0.08205604 0.8931431 0.08205652 0.98225 0.05257123 0.9822502 0.2134829 0.9752888 0.1878947 0.85648 0.2948665 0.85648 0.05257081 0.8931432 0.05257076 0.8522347 0.08205568 0.8522348 0.08205568 0.8522348 0.05257076 0.8522347 0.05257195 0.7631296 0.1064659 0.9752889 0.08087801 0.85648 0.1878497 0.85648 0.05257081 0.8931432 0.08205604 0.8931431 0.08205652 0.98225 0.2134829 0.9752888 0.1878947 0.85648 0.2948665 0.85648 0.08205604 0.8931431 0.05257081 0.8931432 0.05257076 0.8522347 0.08205568 0.8522348 0.05257076 0.8522347 0.05257195 0.7631296 0.1622614 0.9752891 0.1064659 0.9752889 0.08087801 0.85648 0.05257081 0.8931432 0.08205604 0.8931431 0.08205652 0.98225 0.2134829 0.9752888 0.1878947 0.85648 0.2948665 0.85648 0.08205604 0.8931431 0.05257081 0.8931432 0.05257076 0.8522347 0.05257076 0.8522347 0.05257195 0.7631296 0.08205652 0.7631298 0.1622614 0.9752891 0.1064659 0.9752889 0.08087801 0.85648 0.08205604 0.8931431 0.08205652 0.98225 0.05257123 0.9822502 0.2134829 0.9752888 0.1878947 0.85648 0.2948665 0.85648 0.05257081 0.8931432 0.05257076 0.8522347 0.08205568 0.8522348 0.05257076 0.8522347 0.05257195 0.7631296 0.08205652 0.7631298 0.1064659 0.9752889 0.08087801 0.85648 0.1878497 0.85648 0.08205604 0.8931431 0.08205652 0.98225 0.05257123 0.9822502 0.2692784 0.9752889 0.2134829 0.9752888 0.1878947 0.85648 0.05257081 0.8931432 0.05257076 0.8522347 0.08205568 0.8522348 0.08205568 0.8522348 0.05257076 0.8522347 0.05257195 0.7631296 0.1622614 0.9752891 0.1064659 0.9752889 0.08087801 0.85648 0.05257081 0.8931432 0.08205604 0.8931431 0.08205652 0.98225 0.2134829 0.9752888 0.1878947 0.85648 0.2948665 0.85648 0.08205604 0.8931431 0.05257081 0.8931432 0.05257076 0.8522347 0.08205568 0.8522348 0.05257076 0.8522347 0.05257195 0.7631296 0.1622614 0.9752891 0.1064659 0.9752889 0.08087801 0.85648 0.05257081 0.8931432 0.08205604 0.8931431 0.08205652 0.98225 0.2692784 0.9752889 0.2134829 0.9752888 0.1878947 0.85648 0.08205604 0.8931431 0.05257081 0.8931432 0.05257076 0.8522347 0.05257076 0.8522347 0.05257195 0.7631296 0.08205652 0.7631298 0.1064659 0.9752889 0.08087801 0.85648 0.1878497 0.85648 0.08205604 0.8931431 0.08205652 0.98225 0.05257123 0.9822502 0.2134829 0.9752888 0.1878947 0.85648 0.2948665 0.85648 0.05257081 0.8931432 0.05257076 0.8522347 0.08205568 0.8522348 0.3283351 0.85648 0.3283351 0.9752888 0.2134829 0.9752888 0.1064659 0.9752889 0.08087801 0.85648 0.1878497 0.85648 0.05257081 0.8931432 0.08205604 0.8931431 0.08205652 0.98225 0.2692784 0.9752889 0.2134829 0.9752888 0.1878947 0.85648 0.08205604 0.8931431 0.05257081 0.8931432 0.05257076 0.8522347 0.05257076 0.8522347 0.05257195 0.7631296 0.08205652 0.7631298 0 0 0.1878947 0.85648 0.05257195 0.7631296 0.05257076 0.8522347 0.05257076 0.7730382 0.08205568 0.7730382 0.2810221 0.85648 0.1878497 0.85648 0.1622614 0.9752891 0.3283351 0.85648 0.3283351 0.9752888 0.2134829 0.9752888 0.1064659 0.9752889 0.08087801 0.85648 0.1878497 0.85648 0.05257081 0.8931432 0.08205604 0.8931431 0.08205652 0.98225 0.2692784 0.9752889 0.2134829 0.9752888 0.1878947 0.85648 0.08205604 0.8931431 0.05257081 0.8931432 0.05257076 0.8522347 0.05257076 0.8522347 0.05257195 0.7631296 0.08205652 0.7631298 0 0 0.1878947 0.85648 0.05257195 0.7631296 0.05257076 0.8522347 0.05257076 0.7730382 0.08205568 0.7730382 0.2810221 0.85648 0.1878497 0.85648 0.1622614 0.9752891 0.3283351 0.85648 0.3283351 0.9752888 0.2134829 0.9752888 0.1064659 0.9752889 0.08087801 0.85648 0.1878497 0.85648 0.05257081 0.8931432 0.08205604 0.8931431 0.08205652 0.98225 0.2692784 0.9752889 0.2134829 0.9752888 0.1878947 0.85648 0.08205604 0.8931431 0.05257081 0.8931432 0.05257076 0.8522347 0.05257076 0.8522347 0.05257195 0.7631296 0.08205652 0.7631298 0 0 0.1878947 0.85648 0.05257195 0.7631296 0.05257076 0.8522347 0.05257076 0.7730382 0.08205568 0.7730382 0.2810221 0.85648 0.1878497 0.85648 0.1622614 0.9752891 0.3283351 0.85648 0.3283351 0.9752888 0.2134829 0.9752888 0.1064659 0.9752889 0.08087801 0.85648 0.1878497 0.85648 0.05257081 0.8931432 0.08205604 0.8931431 0.08205652 0.98225 0.2692784 0.9752889 0.2134829 0.9752888 0.1878947 0.85648 0.08205604 0.8931431 0.05257081 0.8931432 0.05257076 0.8522347 0.05257076 0.8522347 0.05257195 0.7631296 0.08205652 0.7631298 0 0 0.1878947 0.85648 0.05257195 0.7631296 0.05257076 0.8522347 0.05257076 0.7730382 0.08205568 0.7730382 0.2810221 0.85648 0.1878497 0.85648 0.1622614 0.9752891 0.9750201 0.8400177 0.7185994 0.8363213 0.6982392 0.8564615 0.7121011 0.8394295 0.9750201 0.8400177 0.9935125 0.8612126 0.7185994 0.8363213 0.9712873 0.8400876 0.9938637 0.8571147 0.7121011 0.8394295 0.6945351 0.8616134 0.9938637 0.8571147 0.7411168 0.9996515 0.7411168 0.895858 0.8344533 0.895858 0.7411168 0.895858 0.7411168 0.895858 0.7411168 0.9996515 0.8344533 0.9996514 0.8344533 0.9996514 0.8344533 0.895858 0.7411168 0.9996515 0.7411168 0.9996515 0.8344533 0.9996514 0.8344533 0.895858 0.8344533 0.895858 0.7411168 0.895858 0.03060346 0.9980188 0.2506718 0.9980192 0.2504715 0.6458364 0.02695333 0.6458359 0.2504715 0.6458364 0.2170848 0.01358807 0.2645708 0.9980193 0.2832763 0.9980193 0.2805361 0.6458365 0.2645712 0.6458364 0.2805361 0.6458365 0.3021277 0.01358819 0.2805361 0.6458365 0.5040749 0.6458368 0.4755691 0.01358842 0.2832763 0.9980193 0.5013738 0.9980198 0.5040749 0.6458368 0.51792 0.6458369 0.5179198 0.9980198 0.5037314 0.9980198 0.51792 0.6458369 0.5030762 0.6458369 0.4624282 0.01358854 0.5030762 0.6458369 0.5037314 0.9980198 0.2843497 0.9980202 0.4624282 0.01358854 0.5030762 0.6458369 0.281466 0.6458372 0.2179462 0.01358872 0.2669712 0.01358872 0.2669714 0.6458373 0.2494797 0.6458373 0.2669714 0.6458373 0.2669715 0.9980202 0.06589627 0.01358872 0.2179462 0.01358872 0.2494797 0.6458373 0.0309965 0.9980206 0.02918976 0.6458374 0.2494797 0.6458373 0.01122236 0.6458359 0.02695333 0.6458359 0.05877047 0.01358765 0.01122176 0.9980188 0.03060346 0.9980188 0.02695333 0.6458359 0.8536537 0.7083376 0.7235656 0.7083372 0.7235656 0.7215079 0.9841837 0.6951669 0.8540972 0.6951671 0.8540972 0.7083376 0.8536537 0.7083376 0.8536537 0.6951669 0.7235656 0.6951666 0.9841837 0.7083374 0.8540972 0.7083376 0.8540972 0.7215081 0.8540972 0.7083376 0.8540972 0.6951671 0.724011 0.6951673 0.8540972 0.7083376 0.724011 0.7083377 0.724011 0.7215082 0.7235656 0.7215079 0.7235656 0.7083372 0.9841837 0.7083374 0.7235656 0.6951666 0.9841837 0.6951669 0.9841837 0.7083374 0.8214128 0.8500923 0.6556975 0.8500919 0.6556975 0.8632626 0.9876909 0.8369216 0.8219777 0.8369218 0.8219777 0.8500923 0.8214128 0.8500923 0.8214128 0.8369216 0.6556975 0.8369213 0.9876909 0.8500922 0.8219777 0.8500923 0.8219777 0.8632628 0.8219777 0.8500923 0.8219777 0.8369218 0.6562648 0.8369221 0.8219777 0.8500923 0.6562648 0.8500925 0.6562648 0.8632629 0.6556975 0.8632626 0.6556975 0.8500919 0.9876909 0.8500922 0.6556975 0.8369213 0.9876909 0.8369216 0.9876909 0.8500922 0.6229926 0.8096198 0.6229926 0.6959229 0.7204933 0.6959229 0.6229926 0.8096198 0.7204933 0.8096198 0.7204933 0.6959229 0.6229926 0.8096198 0.6229926 0.6959229 0.7204933 0.6959229 0.6238061 0.4342435 1.000756 0.4342436 1.000756 0.3903416 1.000756 0.4331152 1.000756 0.3904101 0.6238061 0.3904096 1.000756 0.3904101 1.000756 0.4344775 0.6238061 0.434477 1.000756 0.3905753 1.000756 0.4342436 0.6238061 0.4342435 0.6238061 0.434477 1.000756 0.4344775 1.000756 0.3905753 1.000756 0.4342436 1.000756 0.3903416 0.6238061 0.3903416 0.6238061 0.4331144 1.000756 0.4331152 1.000756 0.3904101 1.000756 0.3904101 1.000756 0.4344775 0.6238061 0.434477 0.6238061 0.3905751 1.000756 0.3905753 1.000756 0.4342436 0.6238061 0.434477 1.000756 0.4344775 1.000756 0.3905753</float_array>
          <technique_common>
            <accessor source="#Cube_004-mesh-map-0-array" count="1140" stride="2">
              <param name="S" type="float"/>
              <param name="T" type="float"/>
            </accessor>
          </technique_common>
        </source>
        <source id="Cube_004-mesh-map-1">
          <float_array id="Cube_004-mesh-map-1-array" count="2280">0.1355754 0.9498046 0.2715693 0.9277539 0.2715693 0.9498046 0.2506718 0.9980192 0.2645712 0.6458364 0.2504715 0.6458364 0.5040749 0.6458368 0.5179198 0.9980198 0.51792 0.6458369 0.281466 0.6458372 0.2669715 0.9980202 0.2669714 0.6458373 0.01362216 0.6458374 0.06589627 0.01358872 0.02918976 0.6458374 0.9278324 0.8151482 0.9252135 0.8284656 0.9396545 0.828698 0.9278324 0.8151482 0.7612437 0.8258273 0.9252135 0.8284656 0.9278324 0.8151482 0.7639039 0.8127851 0.7612437 0.8258273 0.7639039 0.8127851 0.7508878 0.8256607 0.7612437 0.8258273 0.7597496 0.8147721 0.7629812 0.8289348 0.7485197 0.8289542 0.7597496 0.8147721 0.9265468 0.8287156 0.7629812 0.8289348 0.7597496 0.8147721 0.9396545 0.828698 0.9265468 0.8287156 0.7597496 0.8147721 0.9278324 0.8151482 0.9396545 0.828698 0.7639039 0.8127851 0.925446 0.8151929 0.939879 0.8260782 0.7639039 0.8127851 0.939879 0.8260782 0.9275361 0.8260509 0.7639039 0.8127851 0.9275361 0.8260509 0.7648416 0.8256915 0.7639039 0.8127851 0.7648416 0.8256915 0.7508878 0.8256607 0.7597496 0.8147721 0.7485197 0.8289542 0.7617714 0.8287551 0.7597496 0.8147721 0.7617714 0.8287551 0.9290598 0.8262408 0.925446 0.8151929 0.7597496 0.8147721 0.9290598 0.8262408 0.925446 0.8151929 0.9290598 0.8262408 0.939879 0.8260782 0.8542265 0.970626 0.7180302 0.859278 0.8542265 0.859278 0.4075639 0.9498044 0.5435599 0.9277539 0.5435599 0.9498047 0.2715693 0.9498046 0.4075639 0.9277536 0.4075639 0.9498044 -4.18206e-4 0.9498047 0.1355754 0.9277541 0.1355754 0.9498046 0.6229926 0.8096198 0.7204933 0.6959229 0.6229926 0.6959229 0.2170848 0.01358807 0.2645712 0.6458364 0.2645716 0.01358819 0.4755691 0.01358842 0.51792 0.6458369 0.5179203 0.01358854 0.3087899 0.01358866 0.2669714 0.6458373 0.2669712 0.01358872 0.01362216 0.9980206 0.02918976 0.6458374 0.0309965 0.9980206 0.6238061 0.4342435 1.000756 0.3903416 0.6238061 0.3903416 1.000756 0.4331152 0.6238061 0.3904096 0.6238061 0.4331144 1.000756 0.3904101 0.6238061 0.434477 0.6238061 0.3904096 1.000756 0.3905753 0.6238061 0.4342435 0.6238061 0.3905751 0.6238061 0.434477 1.000756 0.3905753 0.6238061 0.3905751 0.8034749 0.9986894 0.8205232 0.9986894 0.7982067 0.9824753 0.8205232 0.9986894 0.8257915 0.9824753 0.7982067 0.9824753 0.8257915 0.9824753 0.8119991 0.9724546 0.7982067 0.9824753 0.8241975 0.9999544 0.8071544 0.9999544 0.8018879 0.9837453 0.8241975 0.9999544 0.8018879 0.9837453 0.8294642 0.9837453 0.8018879 0.9837453 0.815676 0.9737277 0.8294642 0.9837453 1.000756 0.4342436 0.6238061 0.3903416 0.6238061 0.4342435 1.000756 0.4331152 0.6238061 0.3904096 0.6238061 0.4331144 1.000756 0.3904101 0.6238061 0.434477 0.6238061 0.3904096 1.000756 0.3905753 0.6238061 0.4342435 0.6238061 0.3905751 1.000756 0.4344775 0.6238061 0.3905751 0.6238061 0.434477 0.8034749 0.9986894 0.8205232 0.9986894 0.7982067 0.9824753 0.8205232 0.9986894 0.8119991 0.9724546 0.7982067 0.9824753 0.8205232 0.9986894 0.8257915 0.9824753 0.8119991 0.9724546 0.8241975 0.9999544 0.8071544 0.9999544 0.8018879 0.9837453 0.8241975 0.9999544 0.8018879 0.9837453 0.815676 0.9737277 0.8241975 0.9999544 0.815676 0.9737277 0.8294642 0.9837453 1.000756 0.4342436 0.6238061 0.3903416 0.6238061 0.4342435 1.000756 0.4331152 0.6238061 0.3904096 0.6238061 0.4331144 1.000756 0.3904101 0.6238061 0.434477 0.6238061 0.3904096 0.6238061 0.3905751 1.000756 0.4342436 0.6238061 0.4342435 1.000756 0.4344775 0.6238061 0.3905751 0.6238061 0.434477 0.8034749 0.9986894 0.8119991 0.9724546 0.7982067 0.9824753 0.8034749 0.9986894 0.8205232 0.9986894 0.8119991 0.9724546 0.8205232 0.9986894 0.8257915 0.9824753 0.8119991 0.9724546 0.8071544 0.9999544 0.8018879 0.9837453 0.815676 0.9737277 0.8241975 0.9999544 0.8071544 0.9999544 0.815676 0.9737277 0.8241975 0.9999544 0.815676 0.9737277 0.8294642 0.9837453 1.000756 0.4342436 0.6238061 0.3903416 0.6238061 0.4342435 1.000756 0.4331152 0.6238061 0.3904096 0.6238061 0.4331144 1.000756 0.3904101 0.6238061 0.434477 0.6238061 0.3904096 0.6238061 0.3905751 1.000756 0.4342436 0.6238061 0.4342435 1.000756 0.4344775 0.6238061 0.3905751 0.6238061 0.434477 0.8034749 0.9986894 0.8119991 0.9724546 0.7982067 0.9824753 0.8034749 0.9986894 0.8205232 0.9986894 0.8119991 0.9724546 0.8205232 0.9986894 0.8257915 0.9824753 0.8119991 0.9724546 0.8071544 0.9999544 0.8018879 0.9837453 0.815676 0.9737277 0.8241975 0.9999544 0.8071544 0.9999544 0.815676 0.9737277 0.8241975 0.9999544 0.815676 0.9737277 0.8294642 0.9837453 0.05257076 0.8522347 0.08205652 0.7631298 0.08205568 0.8522348 0.1622614 0.9752891 0.08087801 0.85648 0.1878497 0.85648 0.08205604 0.8931431 0.05257123 0.9822502 0.05257081 0.8931432 0.2134829 0.9752888 0.2948665 0.85648 0.2692784 0.9752889 0.05257081 0.8931432 0.08205568 0.8522348 0.08205604 0.8931431 0.08205568 0.8522348 0.05257195 0.7631296 0.08205652 0.7631298 0.1064659 0.9752889 0.1878497 0.85648 0.1622614 0.9752891 0.05257081 0.8931432 0.08205652 0.98225 0.05257123 0.9822502 0.2134829 0.9752888 0.2948665 0.85648 0.2692784 0.9752889 0.08205604 0.8931431 0.05257076 0.8522347 0.08205568 0.8522348 0.08205568 0.8522348 0.05257195 0.7631296 0.08205652 0.7631298 0.1622614 0.9752891 0.08087801 0.85648 0.1878497 0.85648 0.05257081 0.8931432 0.08205652 0.98225 0.05257123 0.9822502 0.2134829 0.9752888 0.2948665 0.85648 0.2692784 0.9752889 0.08205604 0.8931431 0.05257076 0.8522347 0.08205568 0.8522348 0.05257076 0.8522347 0.08205652 0.7631298 0.08205568 0.8522348 0.1622614 0.9752891 0.08087801 0.85648 0.1878497 0.85648 0.08205604 0.8931431 0.05257123 0.9822502 0.05257081 0.8931432 0.2134829 0.9752888 0.2948665 0.85648 0.2692784 0.9752889 0.05257081 0.8931432 0.08205568 0.8522348 0.08205604 0.8931431 0.05257076 0.8522347 0.08205652 0.7631298 0.08205568 0.8522348 0.1064659 0.9752889 0.1878497 0.85648 0.1622614 0.9752891 0.08205604 0.8931431 0.05257123 0.9822502 0.05257081 0.8931432 0.2692784 0.9752889 0.1878947 0.85648 0.2948665 0.85648 0.05257081 0.8931432 0.08205568 0.8522348 0.08205604 0.8931431 0.08205568 0.8522348 0.05257195 0.7631296 0.08205652 0.7631298 0.1622614 0.9752891 0.08087801 0.85648 0.1878497 0.85648 0.05257081 0.8931432 0.08205652 0.98225 0.05257123 0.9822502 0.2134829 0.9752888 0.2948665 0.85648 0.2692784 0.9752889 0.08205604 0.8931431 0.05257076 0.8522347 0.08205568 0.8522348 0.08205568 0.8522348 0.05257195 0.7631296 0.08205652 0.7631298 0.1622614 0.9752891 0.08087801 0.85648 0.1878497 0.85648 0.05257081 0.8931432 0.08205652 0.98225 0.05257123 0.9822502 0.2692784 0.9752889 0.1878947 0.85648 0.2948665 0.85648 0.08205604 0.8931431 0.05257076 0.8522347 0.08205568 0.8522348 0.05257076 0.8522347 0.08205652 0.7631298 0.08205568 0.8522348 0.1064659 0.9752889 0.1878497 0.85648 0.1622614 0.9752891 0.08205604 0.8931431 0.05257123 0.9822502 0.05257081 0.8931432 0.2134829 0.9752888 0.2948665 0.85648 0.2692784 0.9752889 0.05257081 0.8931432 0.08205568 0.8522348 0.08205604 0.8931431 0.3283351 0.85648 0.2134829 0.9752888 0.1878947 0.85648 0.1064659 0.9752889 0.1878497 0.85648 0.1622614 0.9752891 0.05257081 0.8931432 0.08205652 0.98225 0.05257123 0.9822502 0.2692784 0.9752889 0.1878947 0.85648 0.2948665 0.85648 0.08205604 0.8931431 0.05257076 0.8522347 0.08205568 0.8522348 0.05257076 0.8522347 0.08205652 0.7631298 0.08205568 0.8522348 0 0 0.05257195 0.7631296 0 0 0.05257076 0.8522347 0.08205568 0.7730382 0.08205568 0.8522348 0.2810221 0.85648 0.1622614 0.9752891 0.2554339 0.9752891 0.3283351 0.85648 0.2134829 0.9752888 0.1878947 0.85648 0.1064659 0.9752889 0.1878497 0.85648 0.1622614 0.9752891 0.05257081 0.8931432 0.08205652 0.98225 0.05257123 0.9822502 0.2692784 0.9752889 0.1878947 0.85648 0.2948665 0.85648 0.08205604 0.8931431 0.05257076 0.8522347 0.08205568 0.8522348 0.05257076 0.8522347 0.08205652 0.7631298 0.08205568 0.8522348 0 0 0.05257195 0.7631296 0 0 0.05257076 0.8522347 0.08205568 0.7730382 0.08205568 0.8522348 0.2810221 0.85648 0.1622614 0.9752891 0.2554339 0.9752891 0.3283351 0.85648 0.2134829 0.9752888 0.1878947 0.85648 0.1064659 0.9752889 0.1878497 0.85648 0.1622614 0.9752891 0.05257081 0.8931432 0.08205652 0.98225 0.05257123 0.9822502 0.2692784 0.9752889 0.1878947 0.85648 0.2948665 0.85648 0.08205604 0.8931431 0.05257076 0.8522347 0.08205568 0.8522348 0.05257076 0.8522347 0.08205652 0.7631298 0.08205568 0.8522348 0 0 0.05257195 0.7631296 0 0 0.05257076 0.8522347 0.08205568 0.7730382 0.08205568 0.8522348 0.2810221 0.85648 0.1622614 0.9752891 0.2554339 0.9752891 0.3283351 0.85648 0.2134829 0.9752888 0.1878947 0.85648 0.1064659 0.9752889 0.1878497 0.85648 0.1622614 0.9752891 0.05257081 0.8931432 0.08205652 0.98225 0.05257123 0.9822502 0.2692784 0.9752889 0.1878947 0.85648 0.2948665 0.85648 0.08205604 0.8931431 0.05257076 0.8522347 0.08205568 0.8522348 0.05257076 0.8522347 0.08205652 0.7631298 0.08205568 0.8522348 0 0 0.05257195 0.7631296 0 0 0.05257076 0.8522347 0.08205568 0.7730382 0.08205568 0.8522348 0.2810221 0.85648 0.1622614 0.9752891 0.2554339 0.9752891 0.9750201 0.8400177 0.6982392 0.8564615 0.9935125 0.8612126 0.7121011 0.8394295 0.9935125 0.8612126 0.6945351 0.8616134 0.7185994 0.8363213 0.9938637 0.8571147 0.6982392 0.8564615 0.7121011 0.8394295 0.9938637 0.8571147 0.9712873 0.8400876 0.7411168 0.9996515 0.8344533 0.895858 0.8344533 0.9996514 0.7411168 0.895858 0.7411168 0.9996515 0.7411168 0.9996515 0.8344533 0.9996514 0.8344533 0.895858 0.8344533 0.895858 0.7411168 0.9996515 0.8344533 0.9996514 0.8344533 0.9996514 0.8344533 0.895858 0.7411168 0.895858 0.7411168 0.895858 0.03060346 0.9980188 0.2504715 0.6458364 0.02695333 0.6458359 0.02695333 0.6458359 0.2170848 0.01358807 0.05877047 0.01358765 0.2645708 0.9980193 0.2805361 0.6458365 0.2645712 0.6458364 0.2645712 0.6458364 0.3021277 0.01358819 0.2645716 0.01358819 0.2805361 0.6458365 0.4755691 0.01358842 0.3021277 0.01358819 0.2832763 0.9980193 0.5040749 0.6458368 0.2805361 0.6458365 0.51792 0.6458369 0.5037314 0.9980198 0.5030762 0.6458369 0.51792 0.6458369 0.4624282 0.01358854 0.5179203 0.01358854 0.5030762 0.6458369 0.2843497 0.9980202 0.281466 0.6458372 0.4624282 0.01358854 0.281466 0.6458372 0.3087899 0.01358866 0.2179462 0.01358872 0.2669714 0.6458373 0.2494797 0.6458373 0.2494797 0.6458373 0.2669715 0.9980202 0.2478028 0.9980202 0.06589627 0.01358872 0.2494797 0.6458373 0.02918976 0.6458374 0.0309965 0.9980206 0.2494797 0.6458373 0.2478028 0.9980202 0.01122236 0.6458359 0.05877047 0.01358765 0.01122283 0.01358759 0.01122176 0.9980188 0.02695333 0.6458359 0.01122236 0.6458359 0.8536537 0.7083376 0.7235656 0.7215079 0.8536537 0.7215082 0.9841837 0.6951669 0.8540972 0.7083376 0.9841837 0.7083374 0.8536537 0.7083376 0.7235656 0.6951666 0.7235656 0.7083372 0.9841837 0.7083374 0.8540972 0.7215081 0.9841837 0.721508 0.8540972 0.7083376 0.724011 0.6951673 0.724011 0.7083377 0.8540972 0.7083376 0.724011 0.7215082 0.8540972 0.7215081 0.7235656 0.7215079 0.9841837 0.7083374 0.9841837 0.721508 0.7235656 0.6951666 0.9841837 0.7083374 0.7235656 0.7083372 0.8214128 0.8500923 0.6556975 0.8632626 0.8214128 0.8632629 0.9876909 0.8369216 0.8219777 0.8500923 0.9876909 0.8500922 0.8214128 0.8500923 0.6556975 0.8369213 0.6556975 0.8500919 0.9876909 0.8500922 0.8219777 0.8632628 0.9876909 0.8632627 0.8219777 0.8500923 0.6562648 0.8369221 0.6562648 0.8500925 0.8219777 0.8500923 0.6562648 0.8632629 0.8219777 0.8632628 0.6556975 0.8632626 0.9876909 0.8500922 0.9876909 0.8632627 0.6556975 0.8369213 0.9876909 0.8500922 0.6556975 0.8500919 0.6229926 0.8096198 0.7204933 0.6959229 0.7204933 0.8096198 0.6229926 0.8096198 0.7204933 0.6959229 0.6229926 0.6959229 0.6229926 0.8096198 0.7204933 0.6959229 0.7204933 0.8096198 0.6238061 0.4342435 1.000756 0.3903416 0.6238061 0.3903416 1.000756 0.4331152 0.6238061 0.3904096 0.6238061 0.4331144 1.000756 0.3904101 0.6238061 0.434477 0.6238061 0.3904096 1.000756 0.3905753 0.6238061 0.4342435 0.6238061 0.3905751 0.6238061 0.434477 1.000756 0.3905753 0.6238061 0.3905751 0.8034749 0.9986894 0.8205232 0.9986894 0.7982067 0.9824753 0.8205232 0.9986894 0.8257915 0.9824753 0.7982067 0.9824753 0.8257915 0.9824753 0.8119991 0.9724546 0.7982067 0.9824753 0.8241975 0.9999544 0.8071544 0.9999544 0.8018879 0.9837453 0.8241975 0.9999544 0.8018879 0.9837453 0.8294642 0.9837453 0.8018879 0.9837453 0.815676 0.9737277 0.8294642 0.9837453 1.000756 0.4342436 0.6238061 0.3903416 0.6238061 0.4342435 0.6238061 0.4331144 1.000756 0.3904101 0.6238061 0.3904096 1.000756 0.3904101 0.6238061 0.434477 0.6238061 0.3904096 0.6238061 0.3905751 1.000756 0.4342436 0.6238061 0.4342435 0.6238061 0.434477 1.000756 0.3905753 0.6238061 0.3905751 0.8034749 0.9986894 0.8119991 0.9724546 0.7982067 0.9824753 0.8034749 0.9986894 0.8205232 0.9986894 0.8119991 0.9724546 0.8205232 0.9986894 0.8257915 0.9824753 0.8119991 0.9724546 0.8071544 0.9999544 0.8018879 0.9837453 0.815676 0.9737277 0.8241975 0.9999544 0.8071544 0.9999544 0.815676 0.9737277 0.8241975 0.9999544 0.815676 0.9737277 0.8294642 0.9837453 0.1355754 0.9498046 0.1355754 0.9277541 0.2715693 0.9277539 0.2506718 0.9980192 0.2645708 0.9980193 0.2645712 0.6458364 0.5040749 0.6458368 0.5013738 0.9980198 0.5179198 0.9980198 0.281466 0.6458372 0.2843497 0.9980202 0.2669715 0.9980202 0.01362216 0.6458374 0.01362216 0.01358872 0.06589627 0.01358872 0.8542265 0.970626 0.7180302 0.9706261 0.7180302 0.859278 0.4075639 0.9498044 0.4075639 0.9277536 0.5435599 0.9277539 0.2715693 0.9498046 0.2715693 0.9277539 0.4075639 0.9277536 -4.18206e-4 0.9498047 -4.18206e-4 0.9277542 0.1355754 0.9277541 0.6229926 0.8096198 0.7204933 0.8096198 0.7204933 0.6959229 0.2170848 0.01358807 0.2504715 0.6458364 0.2645712 0.6458364 0.4755691 0.01358842 0.5040749 0.6458368 0.51792 0.6458369 0.3087899 0.01358866 0.281466 0.6458372 0.2669714 0.6458373 0.01362216 0.9980206 0.01362216 0.6458374 0.02918976 0.6458374 0.6238061 0.4342435 1.000756 0.4342436 1.000756 0.3903416 1.000756 0.4331152 1.000756 0.3904101 0.6238061 0.3904096 1.000756 0.3904101 1.000756 0.4344775 0.6238061 0.434477 1.000756 0.3905753 1.000756 0.4342436 0.6238061 0.4342435 0.6238061 0.434477 1.000756 0.4344775 1.000756 0.3905753 1.000756 0.4342436 1.000756 0.3903416 0.6238061 0.3903416 1.000756 0.4331152 1.000756 0.3904101 0.6238061 0.3904096 1.000756 0.3904101 1.000756 0.4344775 0.6238061 0.434477 1.000756 0.3905753 1.000756 0.4342436 0.6238061 0.4342435 1.000756 0.4344775 1.000756 0.3905753 0.6238061 0.3905751 1.000756 0.4342436 1.000756 0.3903416 0.6238061 0.3903416 1.000756 0.4331152 1.000756 0.3904101 0.6238061 0.3904096 1.000756 0.3904101 1.000756 0.4344775 0.6238061 0.434477 0.6238061 0.3905751 1.000756 0.3905753 1.000756 0.4342436 1.000756 0.4344775 1.000756 0.3905753 0.6238061 0.3905751 1.000756 0.4342436 1.000756 0.3903416 0.6238061 0.3903416 1.000756 0.4331152 1.000756 0.3904101 0.6238061 0.3904096 1.000756 0.3904101 1.000756 0.4344775 0.6238061 0.434477 0.6238061 0.3905751 1.000756 0.3905753 1.000756 0.4342436 1.000756 0.4344775 1.000756 0.3905753 0.6238061 0.3905751 0.05257076 0.8522347 0.05257195 0.7631296 0.08205652 0.7631298 0.1622614 0.9752891 0.1064659 0.9752889 0.08087801 0.85648 0.08205604 0.8931431 0.08205652 0.98225 0.05257123 0.9822502 0.2134829 0.9752888 0.1878947 0.85648 0.2948665 0.85648 0.05257081 0.8931432 0.05257076 0.8522347 0.08205568 0.8522348 0.08205568 0.8522348 0.05257076 0.8522347 0.05257195 0.7631296 0.1064659 0.9752889 0.08087801 0.85648 0.1878497 0.85648 0.05257081 0.8931432 0.08205604 0.8931431 0.08205652 0.98225 0.2134829 0.9752888 0.1878947 0.85648 0.2948665 0.85648 0.08205604 0.8931431 0.05257081 0.8931432 0.05257076 0.8522347 0.08205568 0.8522348 0.05257076 0.8522347 0.05257195 0.7631296 0.1622614 0.9752891 0.1064659 0.9752889 0.08087801 0.85648 0.05257081 0.8931432 0.08205604 0.8931431 0.08205652 0.98225 0.2134829 0.9752888 0.1878947 0.85648 0.2948665 0.85648 0.08205604 0.8931431 0.05257081 0.8931432 0.05257076 0.8522347 0.05257076 0.8522347 0.05257195 0.7631296 0.08205652 0.7631298 0.1622614 0.9752891 0.1064659 0.9752889 0.08087801 0.85648 0.08205604 0.8931431 0.08205652 0.98225 0.05257123 0.9822502 0.2134829 0.9752888 0.1878947 0.85648 0.2948665 0.85648 0.05257081 0.8931432 0.05257076 0.8522347 0.08205568 0.8522348 0.05257076 0.8522347 0.05257195 0.7631296 0.08205652 0.7631298 0.1064659 0.9752889 0.08087801 0.85648 0.1878497 0.85648 0.08205604 0.8931431 0.08205652 0.98225 0.05257123 0.9822502 0.2692784 0.9752889 0.2134829 0.9752888 0.1878947 0.85648 0.05257081 0.8931432 0.05257076 0.8522347 0.08205568 0.8522348 0.08205568 0.8522348 0.05257076 0.8522347 0.05257195 0.7631296 0.1622614 0.9752891 0.1064659 0.9752889 0.08087801 0.85648 0.05257081 0.8931432 0.08205604 0.8931431 0.08205652 0.98225 0.2134829 0.9752888 0.1878947 0.85648 0.2948665 0.85648 0.08205604 0.8931431 0.05257081 0.8931432 0.05257076 0.8522347 0.08205568 0.8522348 0.05257076 0.8522347 0.05257195 0.7631296 0.1622614 0.9752891 0.1064659 0.9752889 0.08087801 0.85648 0.05257081 0.8931432 0.08205604 0.8931431 0.08205652 0.98225 0.2692784 0.9752889 0.2134829 0.9752888 0.1878947 0.85648 0.08205604 0.8931431 0.05257081 0.8931432 0.05257076 0.8522347 0.05257076 0.8522347 0.05257195 0.7631296 0.08205652 0.7631298 0.1064659 0.9752889 0.08087801 0.85648 0.1878497 0.85648 0.08205604 0.8931431 0.08205652 0.98225 0.05257123 0.9822502 0.2134829 0.9752888 0.1878947 0.85648 0.2948665 0.85648 0.05257081 0.8931432 0.05257076 0.8522347 0.08205568 0.8522348 0.3283351 0.85648 0.3283351 0.9752888 0.2134829 0.9752888 0.1064659 0.9752889 0.08087801 0.85648 0.1878497 0.85648 0.05257081 0.8931432 0.08205604 0.8931431 0.08205652 0.98225 0.2692784 0.9752889 0.2134829 0.9752888 0.1878947 0.85648 0.08205604 0.8931431 0.05257081 0.8931432 0.05257076 0.8522347 0.05257076 0.8522347 0.05257195 0.7631296 0.08205652 0.7631298 0 0 0.1878947 0.85648 0.05257195 0.7631296 0.05257076 0.8522347 0.05257076 0.7730382 0.08205568 0.7730382 0.2810221 0.85648 0.1878497 0.85648 0.1622614 0.9752891 0.3283351 0.85648 0.3283351 0.9752888 0.2134829 0.9752888 0.1064659 0.9752889 0.08087801 0.85648 0.1878497 0.85648 0.05257081 0.8931432 0.08205604 0.8931431 0.08205652 0.98225 0.2692784 0.9752889 0.2134829 0.9752888 0.1878947 0.85648 0.08205604 0.8931431 0.05257081 0.8931432 0.05257076 0.8522347 0.05257076 0.8522347 0.05257195 0.7631296 0.08205652 0.7631298 0 0 0.1878947 0.85648 0.05257195 0.7631296 0.05257076 0.8522347 0.05257076 0.7730382 0.08205568 0.7730382 0.2810221 0.85648 0.1878497 0.85648 0.1622614 0.9752891 0.3283351 0.85648 0.3283351 0.9752888 0.2134829 0.9752888 0.1064659 0.9752889 0.08087801 0.85648 0.1878497 0.85648 0.05257081 0.8931432 0.08205604 0.8931431 0.08205652 0.98225 0.2692784 0.9752889 0.2134829 0.9752888 0.1878947 0.85648 0.08205604 0.8931431 0.05257081 0.8931432 0.05257076 0.8522347 0.05257076 0.8522347 0.05257195 0.7631296 0.08205652 0.7631298 0 0 0.1878947 0.85648 0.05257195 0.7631296 0.05257076 0.8522347 0.05257076 0.7730382 0.08205568 0.7730382 0.2810221 0.85648 0.1878497 0.85648 0.1622614 0.9752891 0.3283351 0.85648 0.3283351 0.9752888 0.2134829 0.9752888 0.1064659 0.9752889 0.08087801 0.85648 0.1878497 0.85648 0.05257081 0.8931432 0.08205604 0.8931431 0.08205652 0.98225 0.2692784 0.9752889 0.2134829 0.9752888 0.1878947 0.85648 0.08205604 0.8931431 0.05257081 0.8931432 0.05257076 0.8522347 0.05257076 0.8522347 0.05257195 0.7631296 0.08205652 0.7631298 0 0 0.1878947 0.85648 0.05257195 0.7631296 0.05257076 0.8522347 0.05257076 0.7730382 0.08205568 0.7730382 0.2810221 0.85648 0.1878497 0.85648 0.1622614 0.9752891 0.9750201 0.8400177 0.7185994 0.8363213 0.6982392 0.8564615 0.7121011 0.8394295 0.9750201 0.8400177 0.9935125 0.8612126 0.7185994 0.8363213 0.9712873 0.8400876 0.9938637 0.8571147 0.7121011 0.8394295 0.6945351 0.8616134 0.9938637 0.8571147 0.7411168 0.9996515 0.7411168 0.895858 0.8344533 0.895858 0.7411168 0.895858 0.7411168 0.895858 0.7411168 0.9996515 0.8344533 0.9996514 0.8344533 0.9996514 0.8344533 0.895858 0.7411168 0.9996515 0.7411168 0.9996515 0.8344533 0.9996514 0.8344533 0.895858 0.8344533 0.895858 0.7411168 0.895858 0.03060346 0.9980188 0.2506718 0.9980192 0.2504715 0.6458364 0.02695333 0.6458359 0.2504715 0.6458364 0.2170848 0.01358807 0.2645708 0.9980193 0.2832763 0.9980193 0.2805361 0.6458365 0.2645712 0.6458364 0.2805361 0.6458365 0.3021277 0.01358819 0.2805361 0.6458365 0.5040749 0.6458368 0.4755691 0.01358842 0.2832763 0.9980193 0.5013738 0.9980198 0.5040749 0.6458368 0.51792 0.6458369 0.5179198 0.9980198 0.5037314 0.9980198 0.51792 0.6458369 0.5030762 0.6458369 0.4624282 0.01358854 0.5030762 0.6458369 0.5037314 0.9980198 0.2843497 0.9980202 0.4624282 0.01358854 0.5030762 0.6458369 0.281466 0.6458372 0.2179462 0.01358872 0.2669712 0.01358872 0.2669714 0.6458373 0.2494797 0.6458373 0.2669714 0.6458373 0.2669715 0.9980202 0.06589627 0.01358872 0.2179462 0.01358872 0.2494797 0.6458373 0.0309965 0.9980206 0.02918976 0.6458374 0.2494797 0.6458373 0.01122236 0.6458359 0.02695333 0.6458359 0.05877047 0.01358765 0.01122176 0.9980188 0.03060346 0.9980188 0.02695333 0.6458359 0.8536537 0.7083376 0.7235656 0.7083372 0.7235656 0.7215079 0.9841837 0.6951669 0.8540972 0.6951671 0.8540972 0.7083376 0.8536537 0.7083376 0.8536537 0.6951669 0.7235656 0.6951666 0.9841837 0.7083374 0.8540972 0.7083376 0.8540972 0.7215081 0.8540972 0.7083376 0.8540972 0.6951671 0.724011 0.6951673 0.8540972 0.7083376 0.724011 0.7083377 0.724011 0.7215082 0.7235656 0.7215079 0.7235656 0.7083372 0.9841837 0.7083374 0.7235656 0.6951666 0.9841837 0.6951669 0.9841837 0.7083374 0.8214128 0.8500923 0.6556975 0.8500919 0.6556975 0.8632626 0.9876909 0.8369216 0.8219777 0.8369218 0.8219777 0.8500923 0.8214128 0.8500923 0.8214128 0.8369216 0.6556975 0.8369213 0.9876909 0.8500922 0.8219777 0.8500923 0.8219777 0.8632628 0.8219777 0.8500923 0.8219777 0.8369218 0.6562648 0.8369221 0.8219777 0.8500923 0.6562648 0.8500925 0.6562648 0.8632629 0.6556975 0.8632626 0.6556975 0.8500919 0.9876909 0.8500922 0.6556975 0.8369213 0.9876909 0.8369216 0.9876909 0.8500922 0.6229926 0.8096198 0.6229926 0.6959229 0.7204933 0.6959229 0.6229926 0.8096198 0.7204933 0.8096198 0.7204933 0.6959229 0.6229926 0.8096198 0.6229926 0.6959229 0.7204933 0.6959229 0.6238061 0.4342435 1.000756 0.4342436 1.000756 0.3903416 1.000756 0.4331152 1.000756 0.3904101 0.6238061 0.3904096 1.000756 0.3904101 1.000756 0.4344775 0.6238061 0.434477 1.000756 0.3905753 1.000756 0.4342436 0.6238061 0.4342435 0.6238061 0.434477 1.000756 0.4344775 1.000756 0.3905753 1.000756 0.4342436 1.000756 0.3903416 0.6238061 0.3903416 0.6238061 0.4331144 1.000756 0.4331152 1.000756 0.3904101 1.000756 0.3904101 1.000756 0.4344775 0.6238061 0.434477 0.6238061 0.3905751 1.000756 0.3905753 1.000756 0.4342436 0.6238061 0.434477 1.000756 0.4344775 1.000756 0.3905753</float_array>
          <technique_common>
            <accessor source="#Cube_004-mesh-map-1-array" count="1140" stride="2">
              <param name="S" type="float"/>
              <param name="T" type="float"/>
            </accessor>
          </technique_common>
        </source>
        <vertices id="Cube_004-mesh-vertices">
          <input semantic="POSITION" source="#Cube_004-mesh-positions"/>
        </vertices>
        <triangles material="Material_004-material" count="380">
          <input semantic="VERTEX" source="#Cube_004-mesh-vertices" offset="0"/>
          <input semantic="NORMAL" source="#Cube_004-mesh-normals" offset="1"/>
          <input semantic="TEXCOORD" source="#Cube_004-mesh-map-0" offset="2" set="0"/>
          <input semantic="TEXCOORD" source="#Cube_004-mesh-map-1" offset="2" set="1"/>
          <p>11 0 0 14 0 1 10 0 2 192 1 3 21 2 4 193 3 5 198 4 6 6 5 7 22 6 8 205 7 9 7 8 10 23 9 11 20 10 12 212 11 13 210 12 14 8 13 15 213 13 16 236 13 17 8 14 18 228 14 19 213 14 20 8 15 21 9 15 22 228 15 23 9 14 24 229 14 25 228 14 26 10 16 27 207 16 28 231 16 29 10 17 30 211 17 31 207 17 32 10 18 33 236 18 34 211 18 35 10 14 36 8 14 37 236 14 38 9 14 39 11 14 40 233 14 41 9 14 42 233 14 43 232 14 44 9 19 45 232 19 46 197 19 47 9 20 48 197 20 49 229 20 50 10 21 51 231 21 52 234 21 53 10 14 54 234 14 55 201 14 56 11 14 57 10 14 58 201 14 59 11 14 60 201 14 61 233 14 62 12 22 63 15 22 64 13 22 65 8 23 66 13 23 67 9 23 68 10 24 69 12 24 70 8 24 71 9 25 72 15 25 73 11 25 74 17 26 75 18 26 76 19 26 77 194 27 78 21 2 79 1 28 80 199 29 81 22 6 82 2 30 83 206 31 84 23 9 85 3 32 86 4 33 87 210 12 88 239 34 89 24 35 90 33 35 91 28 35 92 33 36 93 27 36 94 28 36 95 32 0 96 26 0 97 27 0 98 30 37 99 24 37 100 25 37 101 26 38 102 30 38 103 25 38 104 30 39 105 31 39 106 29 39 107 31 39 108 32 39 109 29 39 110 32 39 111 33 39 112 29 39 113 26 40 114 25 40 115 24 40 116 26 26 117 24 26 118 27 26 119 24 41 120 28 41 121 27 41 122 39 42 123 38 42 124 34 42 125 43 43 126 37 43 127 38 43 128 42 44 129 36 44 130 37 44 131 40 45 132 34 45 133 35 45 134 41 46 135 35 46 136 36 46 137 40 39 138 41 39 139 39 39 140 41 47 141 43 47 142 39 47 143 41 39 144 42 39 145 43 39 146 36 48 147 35 48 148 34 48 149 36 49 150 34 49 151 38 49 152 36 26 153 38 26 154 37 26 155 49 50 156 48 50 157 44 50 158 53 51 159 47 51 160 48 51 161 52 52 162 46 52 163 47 52 164 45 53 165 49 53 166 44 53 167 51 54 168 45 54 169 46 54 170 50 55 171 53 55 172 49 55 173 50 39 174 51 39 175 53 39 176 51 56 177 52 56 178 53 56 179 45 57 180 44 57 181 48 57 182 46 26 183 45 26 184 48 26 185 46 58 186 48 58 187 47 58 188 59 59 189 58 59 190 54 59 191 63 60 192 57 60 193 58 60 194 62 61 195 56 61 196 57 61 197 55 62 198 59 62 199 54 62 200 61 54 201 55 54 202 56 54 203 60 39 204 63 39 205 59 39 206 60 39 207 61 39 208 63 39 209 61 63 210 62 63 211 63 63 212 55 64 213 54 64 214 58 64 215 56 26 216 55 26 217 58 26 218 56 26 219 58 26 220 57 26 221 69 65 222 64 65 223 68 65 224 69 39 225 66 39 226 65 39 227 71 66 228 66 66 229 70 66 230 68 67 231 67 67 232 71 67 233 70 14 234 68 14 235 71 14 236 76 68 237 73 68 238 72 68 239 78 39 240 73 39 241 77 39 242 78 69 243 75 69 244 74 69 245 76 70 246 75 70 247 79 70 248 79 14 249 77 14 250 76 14 251 84 71 252 81 71 253 80 71 254 85 39 255 82 39 256 81 39 257 86 72 258 83 72 259 82 72 260 84 26 261 83 26 262 87 26 263 87 14 264 85 14 265 84 14 266 93 73 267 88 73 268 92 73 269 93 39 270 90 39 271 89 39 272 95 74 273 90 74 274 94 74 275 92 75 276 91 75 277 95 75 278 94 14 279 92 14 280 95 14 281 101 76 282 96 76 283 100 76 284 102 77 285 97 77 286 101 77 287 103 78 288 98 78 289 102 78 290 103 0 291 96 0 292 99 0 293 102 14 294 100 14 295 103 14 296 108 79 297 105 79 298 104 79 299 109 80 300 106 80 301 105 80 302 110 81 303 107 81 304 106 81 305 108 0 306 107 0 307 111 0 308 111 82 309 109 82 310 108 82 311 116 83 312 113 83 313 112 83 314 117 84 315 114 84 316 113 84 317 118 85 318 115 85 319 114 85 320 119 86 321 112 86 322 115 86 323 119 87 324 117 87 325 116 87 326 125 88 327 120 88 328 124 88 329 126 84 330 121 84 331 125 84 332 127 89 333 122 89 334 126 89 335 124 0 336 123 0 337 127 0 338 126 14 339 124 14 340 127 14 341 128 90 342 138 90 343 136 90 344 134 91 345 129 91 346 133 91 347 134 92 348 131 92 349 130 92 350 135 93 351 128 93 352 131 93 353 135 94 354 133 94 355 132 94 356 139 95 357 136 95 358 138 95 359 129 96 360 136 96 361 137 96 362 133 97 363 138 97 364 132 97 365 129 98 366 139 98 367 133 98 368 140 99 369 150 99 370 148 99 371 146 100 372 141 100 373 145 100 374 146 101 375 143 101 376 142 101 377 147 102 378 140 102 379 143 102 380 147 103 381 145 103 382 144 103 383 151 104 384 148 104 385 150 104 386 141 105 387 148 105 388 149 105 389 145 106 390 150 106 391 144 106 392 141 107 393 151 107 394 145 107 395 152 108 396 162 108 397 160 108 398 158 109 399 153 109 400 157 109 401 158 110 402 155 110 403 154 110 404 159 111 405 152 111 406 155 111 407 159 112 408 157 112 409 156 112 410 163 113 411 160 113 412 162 113 413 153 114 414 160 114 415 161 114 416 157 115 417 162 115 418 156 115 419 153 116 420 163 116 421 157 116 422 164 117 423 174 117 424 172 117 425 170 118 426 165 118 427 169 118 428 170 119 429 167 119 430 166 119 431 171 120 432 164 120 433 167 120 434 171 121 435 169 121 436 168 121 437 175 122 438 172 122 439 174 122 440 165 123 441 172 123 442 173 123 443 169 124 444 174 124 445 168 124 446 165 125 447 175 125 448 169 125 449 180 126 450 177 127 451 176 128 452 182 129 453 176 128 454 179 130 455 181 131 456 178 132 457 177 127 458 182 129 459 178 132 460 183 133 461 190 134 462 189 134 463 188 134 464 187 135 465 190 135 466 186 135 467 184 136 468 189 136 469 185 136 470 186 84 471 188 84 472 184 84 473 185 0 474 191 0 475 187 0 476 235 137 477 193 3 478 215 138 479 215 138 480 194 27 481 214 139 482 5 140 483 195 141 484 21 2 485 21 2 486 196 142 487 1 28 488 195 141 489 199 29 490 196 142 491 237 143 492 198 4 493 195 141 494 22 6 495 238 144 496 202 145 497 22 6 498 203 146 499 2 30 500 202 145 501 204 147 502 205 7 503 203 146 504 205 7 505 206 31 506 209 148 507 23 9 508 208 149 509 208 149 510 7 8 511 230 150 512 212 11 513 208 149 514 210 12 515 239 34 516 208 149 517 230 150 518 20 10 519 214 139 520 0 151 521 4 33 522 215 138 523 20 10 524 224 152 525 219 153 526 218 154 527 221 155 528 227 156 529 226 157 530 224 152 531 223 158 532 225 159 533 226 157 534 216 160 535 217 161 536 227 156 537 222 162 538 224 152 539 227 156 540 218 154 541 216 160 542 219 153 543 226 157 544 217 161 545 223 158 546 226 157 547 225 159 548 248 163 549 243 164 550 242 154 551 245 165 552 251 166 553 250 167 554 248 163 555 247 168 556 249 169 557 250 167 558 240 160 559 241 161 560 251 166 561 246 170 562 248 163 563 251 166 564 242 154 565 240 160 566 243 164 567 250 167 568 241 161 569 247 168 570 250 167 571 249 169 572 253 171 573 254 171 574 252 171 575 257 0 576 258 0 577 259 0 578 261 84 579 262 84 580 260 84 581 264 172 582 273 172 583 268 172 584 273 173 585 267 173 586 268 173 587 272 174 588 266 174 589 267 174 590 270 175 591 264 175 592 265 175 593 266 176 594 270 176 595 265 176 596 270 84 597 271 84 598 269 84 599 271 84 600 272 84 601 269 84 602 272 177 603 273 177 604 269 177 605 266 178 606 265 178 607 264 178 608 266 179 609 264 179 610 267 179 611 264 180 612 268 180 613 267 180 614 279 181 615 278 181 616 274 181 617 278 182 618 282 182 619 277 182 620 282 183 621 276 183 622 277 183 623 275 184 624 279 184 625 274 184 626 276 185 627 280 185 628 275 185 629 280 186 630 283 186 631 279 186 632 280 187 633 281 187 634 283 187 635 281 188 636 282 188 637 283 188 638 275 0 639 274 0 640 278 0 641 276 189 642 275 189 643 278 189 644 276 190 645 278 190 646 277 190 647 11 0 648 15 0 649 14 0 650 192 1 651 5 140 652 21 2 653 198 4 654 200 191 655 6 5 656 205 7 657 204 147 658 7 8 659 20 10 660 0 151 661 212 11 662 12 14 663 14 14 664 15 14 665 8 192 666 12 192 667 13 192 668 10 193 669 14 193 670 12 193 671 9 25 672 13 25 673 15 25 674 17 194 675 16 194 676 18 194 677 194 27 678 193 3 679 21 2 680 199 29 681 198 4 682 22 6 683 206 31 684 205 7 685 23 9 686 4 33 687 20 10 688 210 12 689 24 35 690 29 35 691 33 35 692 33 195 693 32 195 694 27 195 695 32 0 696 31 0 697 26 0 698 30 196 699 29 196 700 24 196 701 26 197 702 31 197 703 30 197 704 39 198 705 43 198 706 38 198 707 43 199 708 42 199 709 37 199 710 42 200 711 41 200 712 36 200 713 40 201 714 39 201 715 34 201 716 41 46 717 40 46 718 35 46 719 49 50 720 53 50 721 48 50 722 53 202 723 52 202 724 47 202 725 52 203 726 51 203 727 46 203 728 45 204 729 50 204 730 49 204 731 51 205 732 50 205 733 45 205 734 59 206 735 63 206 736 58 206 737 63 207 738 62 207 739 57 207 740 62 208 741 61 208 742 56 208 743 55 209 744 60 209 745 59 209 746 61 205 747 60 205 748 55 205 749 69 210 750 65 210 751 64 210 752 69 39 753 70 39 754 66 39 755 71 211 756 67 211 757 66 211 758 68 26 759 64 26 760 67 26 761 70 14 762 69 14 763 68 14 764 76 212 765 77 212 766 73 212 767 78 213 768 74 213 769 73 213 770 78 214 771 79 214 772 75 214 773 76 215 774 72 215 775 75 215 776 79 14 777 78 14 778 77 14 779 84 216 780 85 216 781 81 216 782 85 217 783 86 217 784 82 217 785 86 218 786 87 218 787 83 218 788 84 219 789 80 219 790 83 219 791 87 14 792 86 14 793 85 14 794 93 220 795 89 220 796 88 220 797 93 221 798 94 221 799 90 221 800 95 222 801 91 222 802 90 222 803 92 26 804 88 26 805 91 26 806 94 14 807 93 14 808 92 14 809 101 223 810 97 223 811 96 223 812 102 224 813 98 224 814 97 224 815 103 225 816 99 225 817 98 225 818 103 0 819 100 0 820 96 0 821 102 226 822 101 226 823 100 226 824 108 227 825 109 227 826 105 227 827 109 84 828 110 84 829 106 84 830 110 228 831 111 228 832 107 228 833 108 0 834 104 0 835 107 0 836 111 229 837 110 229 838 109 229 839 116 230 840 117 230 841 113 230 842 117 84 843 118 84 844 114 84 845 118 231 846 119 231 847 115 231 848 119 232 849 116 232 850 112 232 851 119 233 852 118 233 853 117 233 854 125 234 855 121 234 856 120 234 857 126 84 858 122 84 859 121 84 860 127 235 861 123 235 862 122 235 863 124 0 864 120 0 865 123 0 866 126 236 867 125 236 868 124 236 869 128 237 870 132 237 871 138 237 872 134 238 873 130 238 874 129 238 875 134 239 876 135 239 877 131 239 878 135 240 879 132 240 880 128 240 881 135 241 882 134 241 883 133 241 884 139 242 885 137 242 886 136 242 887 129 243 888 128 243 889 136 243 890 133 244 891 139 244 892 138 244 893 129 245 894 137 245 895 139 245 896 140 246 897 144 246 898 150 246 899 146 247 900 142 247 901 141 247 902 146 248 903 147 248 904 143 248 905 147 249 906 144 249 907 140 249 908 147 250 909 146 250 910 145 250 911 151 251 912 149 251 913 148 251 914 141 252 915 140 252 916 148 252 917 145 253 918 151 253 919 150 253 920 141 254 921 149 254 922 151 254 923 152 255 924 156 255 925 162 255 926 158 256 927 154 256 928 153 256 929 158 257 930 159 257 931 155 257 932 159 258 933 156 258 934 152 258 935 159 259 936 158 259 937 157 259 938 163 260 939 161 260 940 160 260 941 153 261 942 152 261 943 160 261 944 157 262 945 163 262 946 162 262 947 153 263 948 161 263 949 163 263 950 164 264 951 168 264 952 174 264 953 170 265 954 166 265 955 165 265 956 170 266 957 171 266 958 167 266 959 171 267 960 168 267 961 164 267 962 171 268 963 170 268 964 169 268 965 175 269 966 173 269 967 172 269 968 165 270 969 164 270 970 172 270 971 169 271 972 175 271 973 174 271 974 165 272 975 173 272 976 175 272 977 180 126 978 181 131 979 177 127 980 182 129 981 180 126 982 176 128 983 181 131 984 183 133 985 178 132 986 182 129 987 179 130 988 178 132 989 190 273 990 191 273 991 189 273 992 187 274 993 191 274 994 190 274 995 184 136 996 188 136 997 189 136 998 186 84 999 190 84 1000 188 84 1001 185 0 1002 189 0 1003 191 0 1004 235 137 1005 192 1 1006 193 3 1007 215 138 1008 193 3 1009 194 27 1010 5 140 1011 237 143 1012 195 141 1013 21 2 1014 195 141 1015 196 142 1016 195 141 1017 198 4 1018 199 29 1019 237 143 1020 200 191 1021 198 4 1022 22 6 1023 6 5 1024 238 144 1025 22 6 1026 202 145 1027 203 146 1028 202 145 1029 238 144 1030 204 147 1031 203 146 1032 202 145 1033 205 7 1034 209 148 1035 3 32 1036 23 9 1037 208 149 1038 23 9 1039 7 8 1040 212 11 1041 209 148 1042 208 149 1043 239 34 1044 210 12 1045 208 149 1046 20 10 1047 215 138 1048 214 139 1049 4 33 1050 235 137 1051 215 138 1052 224 152 1053 225 159 1054 219 153 1055 221 155 1056 220 275 1057 227 156 1058 224 152 1059 222 162 1060 223 158 1061 226 157 1062 227 156 1063 216 160 1064 227 156 1065 220 275 1066 222 162 1067 227 156 1068 224 152 1069 218 154 1070 219 153 1071 225 159 1072 226 157 1073 223 158 1074 221 155 1075 226 157 1076 248 163 1077 249 169 1078 243 164 1079 245 165 1080 244 276 1081 251 166 1082 248 163 1083 246 170 1084 247 168 1085 250 167 1086 251 166 1087 240 160 1088 251 166 1089 244 276 1090 246 170 1091 251 166 1092 248 163 1093 242 154 1094 243 164 1095 249 169 1096 250 167 1097 247 168 1098 245 165 1099 250 167 1100 253 39 1101 255 39 1102 254 39 1103 257 0 1104 256 0 1105 258 0 1106 261 84 1107 263 84 1108 262 84 1109 264 277 1110 269 277 1111 273 277 1112 273 278 1113 272 278 1114 267 278 1115 272 279 1116 271 279 1117 266 279 1118 270 280 1119 269 280 1120 264 280 1121 266 281 1122 271 281 1123 270 281 1124 279 282 1125 283 282 1126 278 282 1127 278 283 1128 283 283 1129 282 283 1130 282 284 1131 281 284 1132 276 284 1133 275 285 1134 280 285 1135 279 285 1136 276 286 1137 281 286 1138 280 286 1139</p>
        </triangles>
      </mesh>
    </geometry>
  </library_geometries>
  <library_visual_scenes>
    <visual_scene id="Scene" name="Scene">
      <node id="Cube_002" name="Cube_002" type="NODE">
        <matrix sid="transform">1 0 0 0 0 1 0 0 0 0 1 -6.199829 0 0 0 1</matrix>
        <instance_geometry url="#Cube_004-mesh" name="Cube_002">
          <bind_material>
            <technique_common>
              <instance_material symbol="Material_004-material" target="#Material_004-material">
                <bind_vertex_input semantic="Cube_002-mesh-map-0" input_semantic="TEXCOORD" input_set="0"/>
                <bind_vertex_input semantic="UVMap" input_semantic="TEXCOORD" input_set="1"/>
              </instance_material>
            </technique_common>
          </bind_material>
        </instance_geometry>
        <node id="prop_garrisoned" name="prop_garrisoned" type="NODE">
          <matrix sid="transform">1 0 0 0 0 1 0 0 0 0 0.9999999 6.199828 0 0 0 1</matrix>
        </node>
        <node id="prop_projectile" name="prop_projectile" type="NODE">
          <matrix sid="transform">1 0 0 0 0 1 0 -3.723826 0 0 0.9999999 21.9778 0 0 0 1</matrix>
        </node>
      </node>
    </visual_scene>
  </library_visual_scenes>
  <scene>
    <instance_visual_scene url="#Scene"/>
  </scene>
</COLLADA>