<?xml version="1.0" encoding="utf-8"?>
<COLLADA xmlns="http://www.collada.org/2005/11/COLLADASchema" version="1.4.1" xmlns:xsi="http://www.w3.org/2001/XMLSchema-instance">
  <asset>
    <contributor>
      <author>Blender User</author>
      <authoring_tool>Blender 4.3.1 commit date:2024-12-10, commit time:07:46, hash:33d812126174</authoring_tool>
    </contributor>
    <created>2026-04-09T18:11:13</created>
    <modified>2026-04-09T18:11:13</modified>
    <unit name="inch" meter="0.0254"/>
    <up_axis>Z_UP</up_axis>
  </asset>
  <library_effects>
    <effect id="Material_004-effect">
      <profile_COMMON>
        <newparam sid="Untitled_008-surface">
          <surface type="2D">
            <init_from>Untitled_008</init_from>
          </surface>
        </newparam>
        <newparam sid="Untitled_008-sampler">
          <sampler2D>
            <source>Untitled_008-surface</source>
          </sampler2D>
        </newparam>
        <technique sid="common">
          <lambert>
            <emission>
              <color sid="emission">0 0 0 1</color>
            </emission>
            <diffuse>
              <texture texture="Untitled_008-sampler" texcoord="UVMap"/>
            </diffuse>
            <index_of_refraction>
              <float sid="ior">1.5</float>
            </index_of_refraction>
          </lambert>
        </technique>
      </profile_COMMON>
    </effect>
  </library_effects>
  <library_images>
    <image id="Untitled_008" name="Untitled_008">
      <init_from>Untitled.008.png</init_from>
    </image>
  </library_images>
  <library_materials>
    <material id="Material_004-material" name="Material.004">
      <instance_effect url="#Material_004-effect"/>
    </material>
  </library_materials>
  <library_geometries>
    <geometry id="Cube_027-mesh" name="Cube.027">
      <mesh>
        <source id="Cube_027-mesh-positions">
          <float_array id="Cube_027-mesh-positions-array" count="714">-63.33311 -12.36201 54.82455 -63.0417 -8.730729 54.82455 -56.98493 -9.165032 54.82455 -57.27634 -12.79631 54.82455 -61.88431 -12.46589 60.118 -61.5929 -8.834609 60.118 -58.43374 -9.061141 60.118 -58.72515 -12.69242 60.118 -55.2712 -12.9845 54.82455 -54.97979 -9.353219 54.82455 -48.92302 -9.787522 54.82455 -49.21442 -13.4188 54.82455 -53.8224 -13.08838 60.118 -53.53099 -9.457099 60.118 -50.37183 -9.683631 60.118 -50.66324 -13.31491 60.118 -47.32122 -13.66257 54.82455 -47.02981 -10.03129 54.82455 -40.97304 -10.4656 54.82455 -41.26445 -14.09688 54.82455 -45.87242 -13.76646 60.118 -45.58101 -10.13518 60.118 -42.42185 -10.36171 60.118 -42.71326 -13.99299 60.118 -39.25932 -14.28506 54.82455 -38.96791 -10.65379 54.82455 -32.91114 -11.08809 54.82455 -33.20254 -14.71937 54.82455 -37.81052 -14.38895 60.118 -37.51911 -10.75767 60.118 -34.35995 -10.9842 60.118 -34.65136 -14.61548 60.118 -31.12159 -14.95367 54.82455 -30.83018 -11.3224 54.82455 -24.7734 -11.7567 54.82455 -25.06481 -15.38798 54.82455 -29.67279 -15.05756 60.118 -29.38138 -11.42628 60.118 -26.22222 -11.65281 60.118 -26.51362 -15.28409 60.118 -22.84389 -15.43141 54.82455 -22.99668 -11.79256 54.82455 -16.92728 -11.56485 54.82455 -16.77449 -15.2037 54.82455 -21.39207 -15.37694 60.118 -21.54487 -11.73809 60.118 -18.37912 -11.61932 60.118 -18.22633 -15.25816 60.118 -14.62832 -15.28848 54.82455 -14.78111 -11.64964 54.82455 -8.711716 -11.42192 54.82455 -8.558924 -15.06077 54.82455 -13.1765 -15.23401 60.118 -13.32929 -11.59516 60.118 -10.16355 -11.47639 60.118 -10.01076 -15.11523 60.118 -6.18272 -15.18291 54.82455 -6.335511 -11.54406 54.82455 -0.2661133 -11.31634 54.82455 -0.1133213 -14.95519 54.82455 -4.730902 -15.12843 60.118 -4.883693 -11.48959 60.118 -1.717949 -11.37081 60.118 -1.565157 -15.00966 60.118 2.103238 -14.94347 54.82455 1.950447 -11.30463 54.82455 8.019847 -11.07691 54.82455 8.172637 -14.71576 54.82455 3.555057 -14.889 60.118 3.402266 -11.25015 60.118 6.568009 -11.13138 60.118 6.720801 -14.77023 60.118 10.31881 -14.80054 54.82455 10.16601 -11.1617 54.82455 16.23541 -10.93398 54.82455 16.3882 -14.57283 54.82455 11.77062 -14.74607 60.118 11.61783 -11.10722 60.118 14.78358 -10.98845 60.118 14.93637 -14.6273 60.118 18.76441 -14.22478 54.82455 18.61161 -10.58593 54.82455 24.68102 -10.35822 54.82455 24.83381 -13.99706 54.82455 20.21623 -14.1703 60.118 20.06344 -10.53146 60.118 23.22918 -10.41268 60.118 23.38197 -14.05153 60.118 27.02591 -13.57672 54.82455 26.87311 -9.937875 54.82455 32.94251 -9.710162 54.82455 33.0953 -13.34901 54.82455 28.47772 -13.52225 60.118 28.32493 -9.883401 60.118 31.49068 -9.764627 60.118 31.64347 -13.40347 60.118 35.48898 -13.12358 54.82455 35.33619 -9.484735 54.82455 41.40559 -9.25702 54.82455 41.55838 -12.89587 54.82455 36.9408 -13.06911 60.118 36.788 -9.430261 60.118 39.95375 -9.311488 60.118 40.10655 -12.95033 60.118 -68.6276 -19.53962 -12 -63.58142 11.49377 -12 42.17822 11.49377 -12 47.22439 -19.53962 -12 -63.58142 -12.50622 45.02408 -63.58142 11.49377 45.02408 42.17822 11.49377 45.02408 42.17822 -12.50622 45.02408 6.980404 8.953349 45.02408 6.980404 8.953349 -12 6.980404 -15.04665 45.02408 6.980404 -22.08005 -12 42.26131 11.4725 45.02408 47.17436 -19.56089 -12 42.26131 11.4725 -12 42.26131 -12.52749 45.02408 -27.45273 -22.66185 -12 -28.30051 8.371541 45.02408 -28.30051 -15.62845 45.02408 -28.30051 8.371541 -12 -63.58142 -12.50622 45.02408 42.17822 -12.50622 45.02408 6.980404 -15.04665 45.02408 42.26131 -12.52749 45.02408 -28.30051 -15.62845 45.02408 -63.58142 -12.50622 55.102 42.17822 -12.50622 55.102 6.980404 -15.04665 55.102 42.26131 -12.52749 55.102 -28.30051 -15.62845 55.102 -63.58142 -8.432386 45.02408 42.17822 -8.432386 45.02408 6.980404 -10.97281 45.02408 42.26131 -8.45365 45.02408 -28.30051 -11.55461 45.02408 -63.58142 -8.432386 55.102 42.17822 -8.432386 55.102 6.980404 -10.97281 55.102 42.26131 -8.45365 55.102 -28.30051 -11.55461 55.102 -63.58142 -12.50622 55.102 6.980404 -15.04665 55.102 42.26131 -12.52749 55.102 -28.30051 -15.62845 55.102 -63.58142 -8.432386 55.102 6.980404 -10.97281 55.102 42.26131 -8.45365 55.102 -28.30051 -11.55461 55.102 -63.58141 -12.63844 45.13266 6.980404 -15.17887 45.13266 42.26131 -12.65971 45.13266 -28.3005 -15.76067 45.13266 -63.58141 -12.63844 48.22979 6.980404 -15.17887 48.22979 42.26131 -12.65971 48.22979 -28.3005 -15.76067 48.22979 6.980404 -16.22052 46.68122 -28.3005 -16.80233 46.68122 42.26131 -13.70136 46.68122 -63.58141 -13.68009 46.68122 -63.58142 8.394904 45.02408 6.980404 5.85448 45.02408 42.26131 8.373637 45.02408 -28.30051 5.272674 45.02408 -63.58142 8.394904 53.51375 6.980404 5.85448 53.51375 42.26131 8.373637 53.51375 -28.30051 5.272674 53.51375 -63.58142 11.48775 45.02408 6.980404 8.947328 45.02408 42.26131 11.46648 45.02408 -28.30051 8.365523 45.02408 -63.58142 11.48775 53.51375 6.980404 8.947328 53.51375 42.26131 11.46648 53.51375 -28.30051 8.365523 53.51375 -63.58142 8.401309 53.52634 6.980404 5.860885 53.52634 42.26131 8.380043 53.52634 -28.30051 5.279079 53.52634 -63.58142 11.48775 53.52634 6.980404 8.947328 53.52634 42.26131 11.46648 53.52634 -28.30051 8.365523 53.52634 -63.58141 11.37811 45.13266 42.17821 11.37811 45.13266 6.980404 8.837686 45.13266 42.26131 11.35684 45.13266 -28.3005 8.255879 45.13266 -63.58141 11.37811 48.22979 42.17821 11.37811 48.22979 6.980404 8.837686 48.22979 42.26131 11.35684 48.22979 -28.3005 8.255879 48.22979 6.980404 10.24211 46.68122 -28.3005 9.660304 46.68122 42.17821 12.78253 46.68122 42.26131 12.76127 46.68122 -63.58141 12.78253 46.68122 42.91339 7.41391 -9.425671 42.91339 8.422194 45.06516 42.37648 11.91075 -9.425671 42.37648 11.54444 45.06516 42.37648 8.422194 53.53833 42.37648 11.54444 53.53833 -68.6276 -19.53962 -41.55299 -63.58142 11.49377 -41.55299 42.17822 11.49377 -41.55299 47.22439 -19.53962 -41.55299 6.980404 8.953349 -41.55299 6.980404 -22.08005 -41.55299 47.17436 -19.56089 -41.55299 42.26131 11.4725 -41.55299 -27.45273 -22.66185 -41.55299 -28.30051 8.371541 -41.55299 -63.58139 11.46237 35.95952 42.17819 11.46237 35.95952 6.980404 8.921945 35.95952 42.2613 11.4411 35.95952 -28.3005 8.34014 35.95952 -63.58139 11.46237 45.23902 42.17819 11.46237 45.23902 6.980404 8.921945 45.23902 42.2613 11.4411 45.23902 -28.3005 8.34014 45.23902 6.980404 9.201974 40.59928 -28.3005 8.620166 40.59928 42.17819 11.7424 40.59928 42.2613 11.72113 40.59928 -63.58139 11.7424 40.59928 -63.79373 7.403553 -9.425669 -63.62086 8.396906 45.06516 -63.55168 11.92586 -9.425669 -63.61449 11.56498 45.06516</float_array>
          <technique_common>
            <accessor source="#Cube_027-mesh-positions-array" count="238" stride="3">
              <param name="X" type="float"/>
              <param name="Y" type="float"/>
              <param name="Z" type="float"/>
            </accessor>
          </technique_common>
        </source>
        <source id="Cube_027-mesh-normals">
          <float_array id="Cube_027-mesh-normals-array" count="681">-0.9612656 0.07714319 0.2646082 0.07152265 0.997439 -1.5927e-6 0.9612652 -0.07714027 0.2646106 -0.07152229 -0.9974391 1.82023e-6 0 0 1 -0.9612654 0.07714331 0.2646088 0.07152318 0.997439 -1.70647e-6 0.9612652 -0.07714027 0.2646105 -0.07152086 -0.9974392 0 -0.9612653 0.07714176 0.2646095 0.07152229 0.9974391 4.55057e-7 0.961265 -0.07714176 0.2646108 -0.07152271 -0.997439 0 -2.64501e-6 0 1 -0.9612656 0.07714194 0.2646086 0.07152229 0.9974391 -1.5927e-6 0.9612653 -0.07713723 0.264611 -0.07152277 -0.997439 0 -2.64501e-6 0 1 -0.9612654 0.07714205 0.2646093 0.07152217 0.9974391 -1.36517e-6 0.9612645 -0.0771417 0.2646124 -0.07152271 -0.997439 4.74706e-7 -2.645e-6 0 1 -0.96349 -0.04045808 0.2646701 -0.0374906 0.9992971 -6.82433e-7 0.9634893 0.04045581 0.2646729 0.03749126 -0.999297 1.42381e-6 -2.4797e-7 0 1 -0.9634902 -0.04045575 0.2646697 -0.03749072 0.999297 -2.72974e-6 0.9634897 0.04045546 0.2646719 0.03749126 -0.999297 1.89841e-6 -2.4797e-7 0 1 -0.9634903 -0.04045587 0.2646694 -0.037494 0.999297 4.54956e-7 0.9634895 0.04045605 0.2646726 0.03749299 -0.999297 0 6.61251e-7 0 1 -0.9634902 -0.04045575 0.2646695 -0.03749078 0.9992971 -1.59235e-6 0.9634894 0.04045605 0.2646725 0.03749138 -0.999297 0 -7.43908e-7 0 1 -0.9634906 -0.0404554 0.2646681 -0.03749066 0.999297 -2.95721e-6 0.9634899 0.04045492 0.264671 0.03749144 -0.999297 0 -1.3225e-6 0 1 -0.9634902 -0.04045587 0.2646698 -0.03749406 0.9992969 7.96174e-7 0.9634894 0.04045492 0.2646728 0.03749299 -0.999297 4.74602e-7 6.61252e-7 0 1 -0.9634907 -0.04045504 0.2646678 -0.03749215 0.999297 -9.09911e-7 0.9634898 0.04045504 0.2646715 0.03749132 -0.999297 1.42381e-6 -9.0922e-7 0 1 -0.9634901 -0.04045951 0.2646695 -0.03749191 0.999297 -7.96172e-7 0.9634892 0.04045653 0.2646728 0.03749144 -0.999297 1.89841e-6 -2.47969e-7 0 1 -0.9847922 0.1601321 0.0673955 1 0 0 -0.08750772 -0.9888292 0.120662 -0.07122135 0.9974606 0 3.24371e-7 0 1 -0.01648843 0.9998642 0 0.06204229 -0.9899039 0.127441 0.08815175 0.9961071 0 -2.8833e-7 0 1 -0.07122135 0.9974606 0 0.06255233 -0.9980418 0 0.08815175 0.9961072 0 0.01676708 -0.9923398 0.1223961 0.01648825 -0.9998641 0 0.07122164 -0.9974606 0 -0.08815169 -0.9961071 0 -0.01648825 0.9998641 0 -0.07122164 0.9974606 0 0.08815163 0.9961071 0 0.04345095 -0.9990556 -2.27426e-6 -0.0303471 -0.8293665 0.5578802 -0.035232 -0.9993792 -2.21503e-6 0.07122147 -0.9974606 -2.38433e-6 0.03677272 -0.82919 0.5577559 -0.08815169 -0.9961072 -2.36942e-6 -0.03034693 -0.829364 -0.557884 0.03677254 -0.8291876 -0.5577597 0.05914247 -0.8282958 -0.5571611 -0.07323253 -0.8275206 -0.5566388 0.01648837 -0.9998641 0 0.07122147 -0.9974606 0 -0.08815181 -0.9961072 0 -0.01648837 0.9998641 0 -0.07122135 0.9974606 0 0.08815169 0.9961071 0 0.0367102 0.999326 -2.65675e-6 -0.03213703 0.7403595 0.6714426 -0.04439365 0.9990142 -2.50575e-6 -0.05281746 0.7397065 0.6708538 -0.07122188 0.9974606 -2.32209e-6 0.06541264 0.7391563 0.6703501 0.02600985 0.7404906 0.6715633 -0.03213697 0.7403562 -0.6714462 0.02600991 0.7404872 -0.671567 -0.0528171 0.7397032 -0.6708573 0.0654124 0.739153 -0.6703537 0.9929453 0.1185535 -0.002193689 0.9836184 0.1691452 0.0623275 0.0168941 -0.9998573 0 -0.9870363 0.1604973 0 -0.01648843 0.9998641 0 0.9870365 0.1604966 0 -0.07561147 -0.9971374 0 1 -3.50803e-6 0 0.03595316 0.9993535 1.23468e-7 -0.04374605 0.997228 0.06018722 -0.04391759 0.9990352 1.29399e-7 -0.07109278 0.995658 0.06009221 -0.07122147 0.9974606 1.23884e-7 0.08799302 0.9943118 0.06001156 0.03574424 0.9975459 0.06020557 -0.04374605 0.9972282 -0.06018698 0.03574424 0.9975459 -0.06020528 -0.07109278 0.995658 -0.06009197 0.08799308 0.9943118 -0.06001132 -1 0 0 -0.9985683 0.05344671 0.00219357 -1 -7.01607e-6 0 -1 4.72974e-6 0 2.80254e-7 0 1 -2.80254e-7 0 1 0 0 1 -2.12328e-7 0 1 0 0 1 -0.9612656 0.07714033 0.2646089 0.07152181 0.9974391 -2.37354e-7 0.961265 -0.07714033 0.264611 -0.07152092 -0.9974391 3.5603e-7 3.30626e-7 0 1 -0.9612654 0.07714319 0.264609 0.07152158 0.9974391 -2.37353e-7 0.9612647 -0.07714033 0.2646123 -0.07152205 -0.997439 1.5927e-6 3.30626e-7 0 1 -0.9612657 0.07714027 0.2646087 0.07152277 0.997439 -2.37353e-7 0.9612649 -0.07714176 0.2646109 -0.07152253 -0.997439 0 1.65313e-6 0 1 -0.9612654 0.07714176 0.2646093 0.07152122 0.9974392 -4.74707e-7 0.9612643 -0.07714325 0.2646127 -0.07152217 -0.997439 -6.82584e-7 1.65313e-6 0 1 -0.9612655 0.07714176 0.2646086 0.07152092 0.9974392 -4.74707e-7 0.9612653 -0.07713872 0.2646103 -0.07152193 -0.997439 -1.36517e-6 1.65313e-6 0 1 -0.9634908 -0.04045575 0.2646675 -0.03749126 0.999297 0 0.9634892 0.04045498 0.2646732 0.03749406 -0.9992969 -6.82435e-7 -0.9634901 -0.04045593 0.2646701 -0.03749305 0.999297 -4.74602e-7 0.9634895 0.04045611 0.2646723 0.03749412 -0.9992969 -9.09914e-7 -0.9634903 -0.04045569 0.2646692 -0.03749299 0.999297 0 0.9634896 0.04045599 0.2646721 0.03749066 -0.999297 2.95721e-6 -0.9634903 -0.04045593 0.2646695 -0.03749281 0.999297 0 0.9634895 0.0404554 0.2646725 0.03749138 -0.999297 -2.27478e-7 -0.9634901 -0.04045772 0.2646697 -0.03749281 0.999297 -4.74602e-7 0.9634897 0.04045575 0.2646713 0.0374909 -0.999297 2.27477e-7 -0.9634896 -0.04045796 0.2646713 -0.0374912 0.999297 -1.6611e-6 0.9634892 0.04045587 0.2646733 0.03749078 -0.9992971 2.27479e-6 -0.96349 -0.04045808 0.2646697 -0.03749191 0.999297 -9.49204e-7 0.9634897 0.04045653 0.2646713 0.03749364 -0.999297 -2.27477e-7 2.645e-6 0 1 -0.9634907 -0.04045349 0.2646684 -0.03749203 0.999297 -4.74602e-7 0.9634897 0.04045653 0.2646718 0.03749394 -0.999297 -2.27478e-7 2.645e-6 0 1 0.9847924 0.1601315 0.06739532 -0.07498359 -0.9888575 0.1286021 -0.07122135 0.9974606 0 -2.8833e-7 0 1 -0.01648843 0.9998641 0 0.07068866 -0.9899966 0.122107 1.44165e-7 0 1 -0.07122135 0.9974606 0 0.06255233 -0.9980418 0 0.08815175 0.9961072 0 0.01636373 -0.9923169 0.1226365 0 0 1 0.01648819 -0.9998641 0 0.07122153 -0.9974606 0 -0.08815175 -0.9961072 0 -0.01648819 0.9998641 0 -0.07122153 0.9974606 0 0.08815157 0.9961072 0 0.059143 -0.8282982 0.5571573 -0.07323247 -0.8275231 0.556635 0.01648837 -0.9998641 0 -0.08815175 -0.9961071 0 0.08815175 0.9961071 0 0.08815193 0.9961071 -2.33814e-6 0.9855342 0.1694733 0.001139223 -0.9870364 0.1604968 0 0.9870364 0.1604965 0 -0.07561141 -0.9971374 0 0.08815193 0.9961071 1.28732e-7 -0.9999974 0.002008199 -0.001139283</float_array>
          <technique_common>
            <accessor source="#Cube_027-mesh-normals-array" count="227" stride="3">
              <param name="X" type="float"/>
              <param name="Y" type="float"/>
              <param name="Z" type="float"/>
            </accessor>
          </technique_common>
        </source>
        <source id="Cube_027-mesh-map-0">
          <float_array id="Cube_027-mesh-map-0-array" count="1536">0.05257195 0.7631296 0.08205568 0.8522348 0.05257076 0.8522347 0.1064659 0.9752889 0.1878497 0.85648 0.1622614 0.9752891 0.05257081 0.8931432 0.08205652 0.98225 0.05257123 0.9822502 0.1878947 0.85648 0.2692784 0.9752889 0.2134829 0.9752888 0.08205604 0.8931431 0.05257076 0.8522347 0.08205568 0.8522348 0.08205568 0.8522348 0.05257195 0.7631296 0.08205652 0.7631298 0.1064659 0.9752889 0.1878497 0.85648 0.1622614 0.9752891 0.05257081 0.8931432 0.08205652 0.98225 0.05257123 0.9822502 0.2692784 0.9752889 0.1878947 0.85648 0.2948665 0.85648 0.08205604 0.8931431 0.05257076 0.8522347 0.08205568 0.8522348 0.08205568 0.8522348 0.05257195 0.7631296 0.08205652 0.7631298 0.1064659 0.9752889 0.1878497 0.85648 0.1622614 0.9752891 0.05257081 0.8931432 0.08205652 0.98225 0.05257123 0.9822502 0.2692784 0.9752889 0.1878947 0.85648 0.2948665 0.85648 0.08205604 0.8931431 0.05257076 0.8522347 0.08205568 0.8522348 0.08205568 0.8522348 0.05257195 0.7631296 0.08205652 0.7631298 0.1064659 0.9752889 0.1878497 0.85648 0.1622614 0.9752891 0.05257081 0.8931432 0.08205652 0.98225 0.05257123 0.9822502 0.2692784 0.9752889 0.1878947 0.85648 0.2948665 0.85648 0.08205604 0.8931431 0.05257076 0.8522347 0.08205568 0.8522348 0.08205568 0.8522348 0.05257195 0.7631296 0.08205652 0.7631298 0.1064659 0.9752889 0.1878497 0.85648 0.1622614 0.9752891 0.05257081 0.8931432 0.08205652 0.98225 0.05257123 0.9822502 0.2692784 0.9752889 0.1878947 0.85648 0.2948665 0.85648 0.08205604 0.8931431 0.05257076 0.8522347 0.08205568 0.8522348 0.05257076 0.8522347 0.08205652 0.7631298 0.08205568 0.8522348 0.1064659 0.9752889 0.1878497 0.85648 0.1622614 0.9752891 0.08205604 0.8931431 0.05257123 0.9822502 0.05257081 0.8931432 0.2692784 0.9752889 0.1878947 0.85648 0.2948665 0.85648 0.05257081 0.8931432 0.08205568 0.8522348 0.08205604 0.8931431 0.05257076 0.8522347 0.08205652 0.7631298 0.08205568 0.8522348 0.1064659 0.9752889 0.1878497 0.85648 0.1622614 0.9752891 0.08205604 0.8931431 0.05257123 0.9822502 0.05257081 0.8931432 0.2692784 0.9752889 0.1878947 0.85648 0.2948665 0.85648 0.05257081 0.8931432 0.08205568 0.8522348 0.08205604 0.8931431 0.05257076 0.8522347 0.08205652 0.7631298 0.08205568 0.8522348 0.1064659 0.9752889 0.1878497 0.85648 0.1622614 0.9752891 0.08205604 0.8931431 0.05257123 0.9822502 0.05257081 0.8931432 0.2692784 0.9752889 0.1878947 0.85648 0.2948665 0.85648 0.05257081 0.8931432 0.08205568 0.8522348 0.08205604 0.8931431 0.05257076 0.8522347 0.08205652 0.7631298 0.08205568 0.8522348 0.1064659 0.9752889 0.1878497 0.85648 0.1622614 0.9752891 0.08205604 0.8931431 0.05257123 0.9822502 0.05257081 0.8931432 0.2692784 0.9752889 0.1878947 0.85648 0.2948665 0.85648 0.05257081 0.8931432 0.08205568 0.8522348 0.08205604 0.8931431 0.05257076 0.8522347 0.08205652 0.7631298 0.08205568 0.8522348 0.1064659 0.9752889 0.1878497 0.85648 0.1622614 0.9752891 0.08205604 0.8931431 0.05257123 0.9822502 0.05257081 0.8931432 0.2692784 0.9752889 0.1878947 0.85648 0.2948665 0.85648 0.05257081 0.8931432 0.08205568 0.8522348 0.08205604 0.8931431 0.05257076 0.8522347 0.08205652 0.7631298 0.08205568 0.8522348 0.1064659 0.9752889 0.1878497 0.85648 0.1622614 0.9752891 0.08205604 0.8931431 0.05257123 0.9822502 0.05257081 0.8931432 0.2692784 0.9752889 0.1878947 0.85648 0.2948665 0.85648 0.05257081 0.8931432 0.08205568 0.8522348 0.08205604 0.8931431 0.05257076 0.8522347 0.08205652 0.7631298 0.08205568 0.8522348 0.1064659 0.9752889 0.1878497 0.85648 0.1622614 0.9752891 0.08205604 0.8931431 0.05257123 0.9822502 0.05257081 0.8931432 0.2692784 0.9752889 0.1878947 0.85648 0.2948665 0.85648 0.05257081 0.8931432 0.08205568 0.8522348 0.08205604 0.8931431 0.05257076 0.8522347 0.08205652 0.7631298 0.08205568 0.8522348 0.1064659 0.9752889 0.1878497 0.85648 0.1622614 0.9752891 0.08205604 0.8931431 0.05257123 0.9822502 0.05257081 0.8931432 0.2692784 0.9752889 0.1878947 0.85648 0.2948665 0.85648 0.05257081 0.8931432 0.08205568 0.8522348 0.08205604 0.8931431 0.4821712 0.5530293 0.2505871 0.002786219 0.4821708 0.002786934 0.09494417 0.5472604 0.3260056 -0.001742303 0.3260056 0.5472604 0.5234118 0.5435261 0.2682282 0.008487462 0.2682283 0.5435258 0.8634841 0.7255326 0.7309236 0.6698186 0.7309236 0.7255325 0.2678833 0.6686162 0.5354118 0.5293299 0.2678833 0.5293299 0.7309244 0.8318422 0.8626533 0.6698186 0.862654 0.831842 0.2639325 0.5435256 0.01304495 0.00848782 0.2639326 0.008488118 0.8626533 0.7245493 0.994383 0.6698186 0.994383 0.7245493 0.2678015 0.5293298 3.54911e-4 0.6686163 3.54911e-4 0.5293299 0.8634847 0.8318424 0.7309236 0.6698186 0.7309244 0.8318422 0.01304495 0.2345715 0.2639326 0.008488118 0.2639326 0.2345718 0.862654 0.831842 0.994383 0.6698186 0.9943836 0.8318418 0.01304483 0.5435256 0.2682282 0.008487462 0.01304495 0.00848782 3.54911e-4 0.5293299 0.2678833 0.6686162 0.2678833 0.5293299 0.501927 0.6760495 0.2509768 0.746892 0.2509777 0.6760475 0.2536193 0.7468917 0.501927 0.6760495 0.2536203 0.6760474 0.2509768 0.746892 2.79146e-5 0.6760427 0.2509777 0.6760475 0.2509768 0.746892 0.501927 0.6760495 0.2509777 0.6760475 0.501927 0.6760495 0.2536193 0.7468917 0.2536203 0.6760474 2.79146e-5 0.6760427 0.2509768 0.746892 0.2509777 0.6760475 0.9972469 0.7114695 0.8631203 0.7240574 0.8631206 0.7114688 0.864533 0.7114688 0.9972469 0.7240582 0.9972469 0.7114695 0.8631203 0.7240574 0.7289941 0.7114672 0.8631206 0.7114688 0.8631209 0.6988803 0.9972469 0.7114695 0.8631206 0.7114688 0.864533 0.7114688 0.9972469 0.698881 0.8645333 0.6988802 0.8631209 0.6988803 0.7289941 0.7114672 0.7289945 0.6988786 0.9886011 0.671474 0.8586996 0.7252724 0.8587002 0.6714724 0.8600676 0.7252722 0.9886011 0.671474 0.8600681 0.6714724 0.8586996 0.7252724 0.7287989 0.6714689 0.8587002 0.6714724 0.8586996 0.7252724 0.9886011 0.671474 0.8587002 0.6714724 0.9886011 0.671474 0.8600676 0.7252722 0.8600681 0.6714724 0.7287989 0.6714689 0.8586996 0.7252724 0.8587002 0.6714724 0.8631206 0.7114688 0.9972469 0.7240582 0.9972469 0.7114695 0.9972469 0.7114695 0.8645327 0.7240573 0.864533 0.7114688 0.8631206 0.7114688 0.7289938 0.7240558 0.8631203 0.7240574 0.8631206 0.7114688 0.9972469 0.698881 0.8631209 0.6988803 0.8645333 0.6988802 0.9972469 0.7114695 0.864533 0.7114688 0.7289945 0.6988786 0.8631206 0.7114688 0.8631209 0.6988803 0.2756651 0.6688659 0.2387623 0.7601565 0.2387623 0.6688659 0.8335553 0.6698184 0.8626369 0.8317478 0.8639798 0.6698184 0.8322124 0.7851938 0.8626369 0.8317478 0.8626369 0.7851938 0.2682282 0.2347776 0.01304495 0.00848782 0.01304495 0.2347779 0.2505871 0.2321735 0.4821708 0.002786934 0.4821708 0.2321742 0.7309236 0.7245494 0.8626533 0.6698186 0.8626533 0.7245493 0.09494417 0.2336323 0.3260056 -0.001742303 0.3260056 0.2336323 0.5234115 0.2347772 0.2682282 0.008487462 0.2682282 0.2347776 0.7637601 0.6902791 0.7843876 0.7130237 0.7637601 0.7357682 0.8631206 0.4577493 0.9972469 0.4801012 0.9972469 0.45775 0.9972469 0.45775 0.8645327 0.4801004 0.864533 0.4577492 0.8631206 0.4577493 0.7289938 0.4800989 0.8631203 0.4801005 0.8631206 0.4577493 0.9972469 0.4800783 0.8631209 0.4800776 0.8645333 0.4800775 0.9972469 0.45775 0.864533 0.4577492 0.7289945 0.4800759 0.8631206 0.4577493 0.8631209 0.4800776 0.7637601 0.6902791 0.7843876 0.7130237 0.7637601 0.7357682 0.7789502 0.7021963 0.7643616 0.742241 0.7643616 0.7021963 0.8626369 0.8317478 0.8335553 0.6698184 0.8639798 0.6698184 0.1887775 0.6987987 0.1547144 0.7830648 0.1547144 0.6987987 0.7689571 0.7081838 0.7839742 0.6916255 0.7839742 0.7247421 0.8281385 0.6928204 0.8368993 0.7058446 0.8281385 0.7188687 0.7989201 0.6933306 0.7315508 0.7096617 0.7311021 0.6981632 0.9347684 0.7043444 0.9345967 0.7158053 0.8669704 0.707784 0.9347684 0.7043444 0.8669704 0.707784 0.7989201 0.6933306 0.7989201 0.6933306 0.7311021 0.6981632 0.7986762 0.6817319 0.8669356 0.696274 0.9347684 0.7043444 0.7989201 0.6933306 0.8669356 0.696274 0.7989201 0.6933306 0.7986762 0.6817319 0.1354915 0.7048306 0.005344212 0.7263356 0.004477143 0.7111942 0.3979302 0.7193337 0.3975985 0.7344256 0.2669546 0.723863 0.3979302 0.7193337 0.2669546 0.723863 0.1354915 0.7048306 0.3979302 0.7193337 0.1354915 0.7048306 0.004477143 0.7111942 0.3979302 0.7193337 0.004477143 0.7111942 0.1350204 0.6895573 0.2668874 0.7087065 0.3979302 0.7193337 0.1350204 0.6895573 0.05257195 0.7631296 0.08205652 0.7631298 0.08205568 0.8522348 0.1064659 0.9752889 0.08087801 0.85648 0.1878497 0.85648 0.05257081 0.8931432 0.08205604 0.8931431 0.08205652 0.98225 0.1878947 0.85648 0.2948665 0.85648 0.2692784 0.9752889 0.08205604 0.8931431 0.05257081 0.8931432 0.05257076 0.8522347 0.08205568 0.8522348 0.05257076 0.8522347 0.05257195 0.7631296 0.1064659 0.9752889 0.08087801 0.85648 0.1878497 0.85648 0.05257081 0.8931432 0.08205604 0.8931431 0.08205652 0.98225 0.2692784 0.9752889 0.2134829 0.9752888 0.1878947 0.85648 0.08205604 0.8931431 0.05257081 0.8931432 0.05257076 0.8522347 0.08205568 0.8522348 0.05257076 0.8522347 0.05257195 0.7631296 0.1064659 0.9752889 0.08087801 0.85648 0.1878497 0.85648 0.05257081 0.8931432 0.08205604 0.8931431 0.08205652 0.98225 0.2692784 0.9752889 0.2134829 0.9752888 0.1878947 0.85648 0.08205604 0.8931431 0.05257081 0.8931432 0.05257076 0.8522347 0.08205568 0.8522348 0.05257076 0.8522347 0.05257195 0.7631296 0.1064659 0.9752889 0.08087801 0.85648 0.1878497 0.85648 0.05257081 0.8931432 0.08205604 0.8931431 0.08205652 0.98225 0.2692784 0.9752889 0.2134829 0.9752888 0.1878947 0.85648 0.08205604 0.8931431 0.05257081 0.8931432 0.05257076 0.8522347 0.08205568 0.8522348 0.05257076 0.8522347 0.05257195 0.7631296 0.1064659 0.9752889 0.08087801 0.85648 0.1878497 0.85648 0.05257081 0.8931432 0.08205604 0.8931431 0.08205652 0.98225 0.2692784 0.9752889 0.2134829 0.9752888 0.1878947 0.85648 0.08205604 0.8931431 0.05257081 0.8931432 0.05257076 0.8522347 0.05257076 0.8522347 0.05257195 0.7631296 0.08205652 0.7631298 0.1064659 0.9752889 0.08087801 0.85648 0.1878497 0.85648 0.08205604 0.8931431 0.08205652 0.98225 0.05257123 0.9822502 0.2692784 0.9752889 0.2134829 0.9752888 0.1878947 0.85648 0.05257081 0.8931432 0.05257076 0.8522347 0.08205568 0.8522348 0.05257076 0.8522347 0.05257195 0.7631296 0.08205652 0.7631298 0.1064659 0.9752889 0.08087801 0.85648 0.1878497 0.85648 0.08205604 0.8931431 0.08205652 0.98225 0.05257123 0.9822502 0.2692784 0.9752889 0.2134829 0.9752888 0.1878947 0.85648 0.05257081 0.8931432 0.05257076 0.8522347 0.08205568 0.8522348 0.05257076 0.8522347 0.05257195 0.7631296 0.08205652 0.7631298 0.1064659 0.9752889 0.08087801 0.85648 0.1878497 0.85648 0.08205604 0.8931431 0.08205652 0.98225 0.05257123 0.9822502 0.2692784 0.9752889 0.2134829 0.9752888 0.1878947 0.85648 0.05257081 0.8931432 0.05257076 0.8522347 0.08205568 0.8522348 0.05257076 0.8522347 0.05257195 0.7631296 0.08205652 0.7631298 0.1064659 0.9752889 0.08087801 0.85648 0.1878497 0.85648 0.08205604 0.8931431 0.08205652 0.98225 0.05257123 0.9822502 0.2692784 0.9752889 0.2134829 0.9752888 0.1878947 0.85648 0.05257081 0.8931432 0.05257076 0.8522347 0.08205568 0.8522348 0.05257076 0.8522347 0.05257195 0.7631296 0.08205652 0.7631298 0.1064659 0.9752889 0.08087801 0.85648 0.1878497 0.85648 0.08205604 0.8931431 0.08205652 0.98225 0.05257123 0.9822502 0.2692784 0.9752889 0.2134829 0.9752888 0.1878947 0.85648 0.05257081 0.8931432 0.05257076 0.8522347 0.08205568 0.8522348 0.05257076 0.8522347 0.05257195 0.7631296 0.08205652 0.7631298 0.1064659 0.9752889 0.08087801 0.85648 0.1878497 0.85648 0.08205604 0.8931431 0.08205652 0.98225 0.05257123 0.9822502 0.2692784 0.9752889 0.2134829 0.9752888 0.1878947 0.85648 0.05257081 0.8931432 0.05257076 0.8522347 0.08205568 0.8522348 0.05257076 0.8522347 0.05257195 0.7631296 0.08205652 0.7631298 0.1064659 0.9752889 0.08087801 0.85648 0.1878497 0.85648 0.08205604 0.8931431 0.08205652 0.98225 0.05257123 0.9822502 0.2692784 0.9752889 0.2134829 0.9752888 0.1878947 0.85648 0.05257081 0.8931432 0.05257076 0.8522347 0.08205568 0.8522348 0.05257076 0.8522347 0.05257195 0.7631296 0.08205652 0.7631298 0.1064659 0.9752889 0.08087801 0.85648 0.1878497 0.85648 0.08205604 0.8931431 0.08205652 0.98225 0.05257123 0.9822502 0.2692784 0.9752889 0.2134829 0.9752888 0.1878947 0.85648 0.05257081 0.8931432 0.05257076 0.8522347 0.08205568 0.8522348 0.4821712 0.5530293 0.2505877 0.5530304 0.2505871 0.002786219 0.09494417 0.5472604 0.09494417 -0.001742303 0.3260056 -0.001742303 0.5234118 0.5435261 0.5234115 0.008487105 0.2682282 0.008487462 0.8634841 0.7255326 0.8634841 0.6698188 0.7309236 0.6698186 0.2678833 0.6686162 0.5354118 0.6686162 0.5354118 0.5293299 0.7309244 0.8318422 0.7309236 0.6698186 0.8626533 0.6698186 0.2639325 0.5435256 0.01304483 0.5435256 0.01304495 0.00848782 0.8626533 0.7245493 0.8626533 0.6698186 0.994383 0.6698186 0.2678015 0.5293298 0.2678015 0.6686163 3.54911e-4 0.6686163 0.8634847 0.8318424 0.8634841 0.6698188 0.7309236 0.6698186 0.01304495 0.2345715 0.01304495 0.00848782 0.2639326 0.008488118 0.862654 0.831842 0.8626533 0.6698186 0.994383 0.6698186 0.01304483 0.5435256 0.2682283 0.5435258 0.2682282 0.008487462 3.54911e-4 0.5293299 3.54911e-4 0.6686163 0.2678833 0.6686162 0.501927 0.6760495 0.501927 0.746894 0.2509768 0.746892 0.2536193 0.7468917 0.501927 0.746894 0.501927 0.6760495 0.2509768 0.746892 2.66172e-5 0.7468875 2.79146e-5 0.6760427 0.2509768 0.746892 0.501927 0.746894 0.501927 0.6760495 0.501927 0.6760495 0.501927 0.746894 0.2536193 0.7468917 2.79146e-5 0.6760427 2.66172e-5 0.7468875 0.2509768 0.746892 0.9972469 0.7114695 0.9972469 0.7240582 0.8631203 0.7240574 0.864533 0.7114688 0.8645327 0.7240573 0.9972469 0.7240582 0.8631203 0.7240574 0.7289938 0.7240558 0.7289941 0.7114672 0.8631209 0.6988803 0.9972469 0.698881 0.9972469 0.7114695 0.864533 0.7114688 0.9972469 0.7114695 0.9972469 0.698881 0.8631209 0.6988803 0.8631206 0.7114688 0.7289941 0.7114672 0.9886011 0.671474 0.9886012 0.7252739 0.8586996 0.7252724 0.8600676 0.7252722 0.9886012 0.7252739 0.9886011 0.671474 0.8586996 0.7252724 0.7287983 0.7252689 0.7287989 0.6714689 0.8586996 0.7252724 0.9886012 0.7252739 0.9886011 0.671474 0.9886011 0.671474 0.9886012 0.7252739 0.8600676 0.7252722 0.7287989 0.6714689 0.7287983 0.7252689 0.8586996 0.7252724 0.8631206 0.7114688 0.8631203 0.7240574 0.9972469 0.7240582 0.9972469 0.7114695 0.9972469 0.7240582 0.8645327 0.7240573 0.8631206 0.7114688 0.7289941 0.7114672 0.7289938 0.7240558 0.8631206 0.7114688 0.9972469 0.7114695 0.9972469 0.698881 0.8645333 0.6988802 0.9972469 0.698881 0.9972469 0.7114695 0.7289945 0.6988786 0.7289941 0.7114672 0.8631206 0.7114688 0.2756651 0.6688659 0.2756651 0.7601565 0.2387623 0.7601565 0.8335553 0.6698184 0.8322124 0.8317478 0.8626369 0.8317478 0.8322124 0.7851938 0.8322124 0.8317478 0.8626369 0.8317478 0.2682282 0.2347776 0.2682282 0.008487462 0.01304495 0.00848782 0.2505871 0.2321735 0.2505871 0.002786219 0.4821708 0.002786934 0.7309236 0.7245494 0.7309236 0.6698186 0.8626533 0.6698186 0.09494417 0.2336323 0.09494417 -0.001742303 0.3260056 -0.001742303 0.5234115 0.2347772 0.5234115 0.008487105 0.2682282 0.008487462 0.8631206 0.4577493 0.8631203 0.4801005 0.9972469 0.4801012 0.9972469 0.45775 0.9972469 0.4801012 0.8645327 0.4801004 0.8631206 0.4577493 0.7289941 0.4577476 0.7289938 0.4800989 0.8631206 0.4577493 0.9972469 0.45775 0.9972469 0.4800783 0.8645333 0.4800775 0.9972469 0.4800783 0.9972469 0.45775 0.7289945 0.4800759 0.7289941 0.4577476 0.8631206 0.4577493 0.7789502 0.7021963 0.7789502 0.742241 0.7643616 0.742241 0.8626369 0.8317478 0.8322124 0.8317478 0.8335553 0.6698184 0.1887775 0.6987987 0.1887775 0.7830649 0.1547144 0.7830648</float_array>
          <technique_common>
            <accessor source="#Cube_027-mesh-map-0-array" count="768" stride="2">
              <param name="S" type="float"/>
              <param name="T" type="float"/>
            </accessor>
          </technique_common>
        </source>
        <source id="Cube_027-mesh-map-1">
          <float_array id="Cube_027-mesh-map-1-array" count="1536">0.1383609 0.6323024 0.1212159 0.6064695 0.1383609 0.6065267 0.31794 0.5542474 0.3428998 0.575978 0.31794 0.5691456 0.2323041 0.6331747 0.2493956 0.6590689 0.2323041 0.6589558 0.06976282 0.5951662 0.0448724 0.616768 0.0448724 0.6018695 0.364563 0.6333014 0.3496291 0.6503519 0.3496291 0.6331745 0.08510458 0.6064695 0.1022495 0.6323025 0.08510458 0.6322453 0.3438105 0.5542474 0.3687704 0.575978 0.3438105 0.5691456 0.3901562 0.6331597 0.4072477 0.6590539 0.3901562 0.6589409 0.21425 0.598544 0.2391405 0.5769422 0.2391405 0.6055055 0.3328738 0.6333014 0.31794 0.6503518 0.3179399 0.6331745 0.3901562 0.6064161 0.4073011 0.632249 0.3901562 0.6321918 0.3696811 0.5542474 0.394641 0.575978 0.3696811 0.5691456 0.2503582 0.6331747 0.2674497 0.659069 0.2503582 0.6589559 0.2920693 0.6279641 0.3169597 0.6063625 0.3169597 0.6349257 0.3804076 0.6333013 0.3654738 0.6503518 0.3654738 0.6331744 0.1392716 0.6064696 0.1564165 0.6323024 0.1392717 0.6322453 0.2920694 0.5837212 0.3170292 0.6054518 0.2920694 0.5986194 0.21425 0.6331748 0.2313416 0.659069 0.21425 0.6589559 0.2400512 0.598544 0.2649416 0.5769422 0.2649416 0.6055056 0.3487184 0.6333014 0.3337846 0.6503518 0.3337845 0.6331745 0.1031603 0.6064696 0.1203052 0.6323025 0.1031603 0.6322453 0.2920694 0.5542475 0.3170292 0.5759781 0.2920694 0.5691457 0.2684122 0.6331748 0.2855038 0.659069 0.2684122 0.6589559 0.2658525 0.598544 0.2907429 0.5769422 0.2907429 0.6055055 0.4104856 0.5879062 0.3955518 0.6049567 0.3955517 0.5877794 0.2494474 0.6064163 0.2323041 0.6322639 0.2323041 0.6064879 0.188587 0.5542603 0.2135468 0.5760315 0.188587 0.5691863 0.1925772 0.6331704 0.1754077 0.6589603 0.1754077 0.6331813 0.3428306 0.583661 0.3179399 0.6055054 0.3179399 0.5768888 0.1317389 0.6503863 0.1168013 0.6332799 0.1317389 0.6332132 0.2313933 0.6064163 0.21425 0.6322639 0.21425 0.6064879 0.2661988 0.5542603 0.2911586 0.5760315 0.2661988 0.5691863 0.06204193 0.6246404 0.0448724 0.6504303 0.0448724 0.6246514 0.3687012 0.583661 0.3438105 0.6055053 0.3438105 0.5768887 0.1000421 0.6685369 0.08510458 0.6514305 0.1000421 0.6513639 0.2855555 0.6064163 0.2684122 0.6322639 0.2684123 0.6064879 0.2403281 0.5542603 0.265288 0.5760315 0.2403281 0.5691863 0.1925772 0.6064696 0.1754077 0.6322595 0.1754077 0.6064806 0.1358658 0.5837144 0.1109752 0.6055588 0.1109752 0.5769422 0.05980992 0.6685142 0.0448724 0.6514078 0.05980992 0.6513411 0.2675015 0.6064163 0.2503582 0.6322639 0.2503582 0.6064879 0.1368458 0.5542603 0.1618056 0.5760315 0.1368458 0.5691863 0.1744969 0.6064695 0.1573274 0.6322595 0.1573274 0.6064805 0.1099953 0.5837145 0.08510458 0.6055588 0.08510458 0.5769423 0.1475871 0.6503863 0.1326496 0.6332799 0.1475871 0.6332132 0.3711913 0.6064161 0.354048 0.6322637 0.354048 0.6064876 0.1627163 0.5542602 0.1876762 0.5760315 0.1627163 0.5691863 0.2106575 0.6064695 0.193488 0.6322594 0.193488 0.6064805 0.2133392 0.5837144 0.1884486 0.6055587 0.1884486 0.5769422 0.1000422 0.6503864 0.08510458 0.63328 0.1000422 0.6332133 0.3350832 0.6064161 0.3179399 0.6322637 0.31794 0.6064876 0.08510458 0.5542604 0.1100644 0.5760316 0.08510458 0.5691864 0.08012223 0.6246404 0.06295269 0.6504303 0.06295269 0.6246513 0.3945717 0.583661 0.3696811 0.6055053 0.3696811 0.5768888 0.0756582 0.6685141 0.06072068 0.6514077 0.0756582 0.651341 0.3892454 0.6064161 0.3721022 0.6322637 0.3721021 0.6064877 0.2144575 0.5542601 0.2394174 0.5760314 0.2144575 0.5691862 0.2106575 0.6331703 0.193488 0.6589602 0.193488 0.6331813 0.1875378 0.5837144 0.1626471 0.6055586 0.1626471 0.5769422 0.3070069 0.6530097 0.2920693 0.6359032 0.3070069 0.6358366 0.3531373 0.6064161 0.335994 0.6322637 0.335994 0.6064876 0.1109752 0.5542603 0.135935 0.5760315 0.1109752 0.5691864 0.1744969 0.6331703 0.1573274 0.6589602 0.1573274 0.6331813 0.1617364 0.5837144 0.1368458 0.6055588 0.1368458 0.5769422 0.1158905 0.6503864 0.1009529 0.63328 0.1158905 0.6332133 0.5933185 0.5004373 0.7064659 0.7654896 0.5597374 0.7692127 0.5251635 0.5004373 0.412024 0.765488 0.412024 0.5008643 0.4111132 0.5227218 0.1394186 0.3523097 0.4100211 0.3563365 0.6809052 4.55396e-4 0.820254 0.1667892 0.6809052 0.1667892 0.9343301 0.3331897 0.8358534 0.4995272 0.8211649 0.333167 0.412024 0.1667891 0.6809051 0.3331408 0.412024 0.3331408 0.4111132 0.02365082 0.139625 0.1899554 0.1405109 4.55381e-4 0.6809051 0.3331408 0.820254 0.4995265 0.6809051 0.4995265 0.8358534 4.55393e-4 0.9371069 0.166833 0.8239416 0.1668102 0.412024 4.55376e-4 0.6809052 0.1667892 0.412024 0.1667891 0.139625 0.1899554 0.001547694 4.73365e-4 0.1405109 4.55381e-4 0.412024 0.3331408 0.6809051 0.4995265 0.412024 0.4995265 0.4102275 0.1899848 0.1394186 0.3523097 0.139625 0.1899554 0.8239416 0.1668102 0.9343301 0.3331897 0.8211649 0.333167 0.9501358 0.1667954 0.9973175 0.333141 0.9499294 0.3331471 0.9984096 4.55388e-4 0.9501358 0.1667954 0.9510214 4.61521e-4 0.9973175 0.333141 0.9510214 0.4995325 0.9499294 0.3331471 0.7073767 0.8331227 0.7548964 0.6667711 0.7548964 0.8331227 0.7548964 0.6667711 0.7073767 0.5004373 0.7548964 0.5004373 0.7548964 0.9995083 0.7073767 0.8331227 0.7548964 0.8331227 0.8075957 0.6667712 0.815036 0.8331313 0.8073892 0.8331228 0.8084813 0.5004372 0.8152425 0.6667797 0.8075957 0.6667712 0.815036 0.8331313 0.8084813 0.9995082 0.8073892 0.8331228 0.8004728 0.8331332 0.8075957 0.6667712 0.8073892 0.8331228 0.8084813 0.5004372 0.8006792 0.6667816 0.8015649 0.5004476 0.8004728 0.8331332 0.8084813 0.9995082 0.8015649 0.9995186 0.9501358 0.6667825 0.9898492 0.833129 0.9499293 0.8331341 0.9909413 0.5004433 0.9501358 0.6667825 0.9510214 0.5004485 0.9898492 0.833129 0.9510214 0.9995195 0.9499293 0.8331341 0.8211648 0.8331462 0.8611955 0.6667945 0.8611955 0.8331462 0.8611955 0.6667945 0.8211649 0.5004607 0.8611955 0.5004607 0.8611955 0.9995318 0.8211648 0.8331462 0.8611955 0.8331462 0.9343692 0.833159 0.9270673 0.6667945 0.9343693 0.6668074 0.9343693 0.6668074 0.9270674 0.5004608 0.9343693 0.5004736 0.9343692 0.833159 0.9270673 0.9995318 0.9270673 0.8331461 0.9343692 0.833159 0.941671 0.6667945 0.941671 0.8331461 0.941671 0.5004608 0.9343693 0.6668074 0.9343693 0.5004736 0.941671 0.9995318 0.9343692 0.833159 0.941671 0.8331461 0.06498914 0.5942547 0.08419382 0.547415 0.08419382 0.5941822 4.55385e-4 0.8397575 0.01546245 0.5871829 0.02170985 0.8400005 6.87759e-4 0.5868772 0.01517349 0.547415 0.01546245 0.5871829 0.1394186 0.3523097 6.6178e-4 0.1899734 0.139625 0.1899554 0.7064659 0.7654896 0.5597374 0.9063944 0.5597374 0.7692127 0.6809052 0.1667892 0.820254 0.3331408 0.6809051 0.3331408 0.5588266 0.7691523 0.412024 0.9026305 0.412024 0.765488 0.1405102 0.5464863 4.5538e-4 0.3523276 0.1394186 0.3523097 0.3879391 0.647547 0.3813185 0.6403858 0.3879391 0.6331745 0.7776846 0.8331251 0.7558072 0.6667709 0.7776846 0.6667736 0.7776846 0.6667736 0.7558072 0.5004372 0.7776846 0.5004398 0.7776846 0.8331251 0.7558072 0.9995081 0.7558072 0.8331226 0.7776846 0.8331251 0.799562 0.6667709 0.799562 0.8331226 0.799562 0.5004372 0.7776846 0.6667736 0.7776846 0.5004398 0.799562 0.9995081 0.7776846 0.8331251 0.799562 0.8331226 0.08419382 0.6382276 0.0828737 0.6167015 0.08419382 0.5951655 0.3955517 0.5868231 0.4101328 0.5474605 0.4101328 0.5868686 0.02890694 0.547415 0.04396158 0.8004494 0.02262061 0.8004494 0.0448724 0.5941956 0.06407839 0.5474749 0.06407839 0.5942555 0.0772947 0.6023753 0.07067358 0.6095429 0.07067358 0.5951663 0.1534088 0.6475898 0.1484979 0.6403862 0.1534088 0.6332132 0.911468 0.8331753 0.9261566 0.9995355 0.9116033 0.9995325 0.9116033 0.5004607 0.9261566 0.5004636 0.9142448 0.6668185 0.9116033 0.5004607 0.9142448 0.6668185 0.911468 0.8331753 0.911468 0.8331753 0.9116033 0.9995325 0.8969147 0.8331723 0.8996915 0.6668156 0.9116033 0.5004607 0.911468 0.8331753 0.8996915 0.6668156 0.911468 0.8331753 0.8969147 0.8331723 0.8813153 0.8331761 0.8960039 0.9995364 0.8767948 0.9995325 0.8767948 0.5004607 0.8960039 0.5004646 0.884092 0.6668194 0.8767948 0.5004607 0.884092 0.6668194 0.8813153 0.8331761 0.8767948 0.5004607 0.8813153 0.8331761 0.8767948 0.9995325 0.8767948 0.5004607 0.8767948 0.9995325 0.8621063 0.8331723 0.864883 0.6668156 0.8767948 0.5004607 0.8621063 0.8331723 0.1383609 0.6323024 0.1212159 0.6322453 0.1212159 0.6064695 0.31794 0.5542474 0.3428998 0.547415 0.3428998 0.575978 0.2323041 0.6331747 0.2493956 0.6332877 0.2493956 0.6590689 0.06976282 0.5951662 0.06976282 0.6237295 0.0448724 0.616768 0.364563 0.6333014 0.364563 0.6504787 0.3496291 0.6503519 0.08510458 0.6064695 0.1022495 0.6065267 0.1022495 0.6323025 0.3438105 0.5542474 0.3687704 0.547415 0.3687704 0.575978 0.3901562 0.6331597 0.4072477 0.6332728 0.4072477 0.6590539 0.21425 0.598544 0.21425 0.5836456 0.2391405 0.5769422 0.3328738 0.6333014 0.3328738 0.6504787 0.31794 0.6503518 0.3901562 0.6064161 0.4073011 0.6064733 0.4073011 0.632249 0.3696811 0.5542474 0.394641 0.547415 0.394641 0.575978 0.2503582 0.6331747 0.2674497 0.6332877 0.2674497 0.659069 0.2920693 0.6279641 0.2920693 0.6130658 0.3169597 0.6063625 0.3804076 0.6333013 0.3804077 0.6504786 0.3654738 0.6503518 0.1392716 0.6064696 0.1564165 0.6065267 0.1564165 0.6323024 0.2920694 0.5837212 0.3170292 0.5768888 0.3170292 0.6054518 0.21425 0.6331748 0.2313416 0.6332879 0.2313416 0.659069 0.2400512 0.598544 0.2400512 0.5836456 0.2649416 0.5769422 0.3487184 0.6333014 0.3487184 0.6504787 0.3337846 0.6503518 0.1031603 0.6064696 0.1203052 0.6065267 0.1203052 0.6323025 0.2920694 0.5542475 0.3170292 0.5474151 0.3170292 0.5759781 0.2684122 0.6331748 0.2855038 0.6332878 0.2855038 0.659069 0.2658525 0.598544 0.2658525 0.5836455 0.2907429 0.5769422 0.4104856 0.5879062 0.4104856 0.6050835 0.3955518 0.6049567 0.2494474 0.6064163 0.2494474 0.6321924 0.2323041 0.6322639 0.188587 0.5542603 0.2135468 0.547415 0.2135468 0.5760315 0.1925772 0.6331704 0.1925772 0.6589493 0.1754077 0.6589603 0.3428306 0.583661 0.3428306 0.5985872 0.3179399 0.6055054 0.1317389 0.6503863 0.1168013 0.650453 0.1168013 0.6332799 0.2313933 0.6064163 0.2313932 0.6321923 0.21425 0.6322639 0.2661988 0.5542603 0.2911586 0.547415 0.2911586 0.5760315 0.06204193 0.6246404 0.06204193 0.6504193 0.0448724 0.6504303 0.3687012 0.583661 0.3687012 0.5985871 0.3438105 0.6055053 0.1000421 0.6685369 0.08510458 0.6686035 0.08510458 0.6514305 0.2855555 0.6064163 0.2855555 0.6321924 0.2684122 0.6322639 0.2403281 0.5542603 0.265288 0.547415 0.265288 0.5760315 0.1925772 0.6064696 0.1925772 0.6322485 0.1754077 0.6322595 0.1358658 0.5837144 0.1358658 0.5986406 0.1109752 0.6055588 0.05980992 0.6685142 0.0448724 0.6685808 0.0448724 0.6514078 0.2675015 0.6064163 0.2675014 0.6321924 0.2503582 0.6322639 0.1368458 0.5542603 0.1618056 0.547415 0.1618056 0.5760315 0.1744969 0.6064695 0.1744969 0.6322485 0.1573274 0.6322595 0.1099953 0.5837145 0.1099953 0.5986406 0.08510458 0.6055588 0.1475871 0.6503863 0.1326496 0.650453 0.1326496 0.6332799 0.3711913 0.6064161 0.3711913 0.6321921 0.354048 0.6322637 0.1627163 0.5542602 0.1876762 0.547415 0.1876762 0.5760315 0.2106575 0.6064695 0.2106575 0.6322484 0.193488 0.6322594 0.2133392 0.5837144 0.2133392 0.5986405 0.1884486 0.6055587 0.1000422 0.6503864 0.08510458 0.6504531 0.08510458 0.63328 0.3350832 0.6064161 0.3350832 0.6321921 0.3179399 0.6322637 0.08510458 0.5542604 0.1100644 0.5474151 0.1100644 0.5760316 0.08012223 0.6246404 0.08012217 0.6504192 0.06295269 0.6504303 0.3945717 0.583661 0.3945717 0.5985871 0.3696811 0.6055053 0.0756582 0.6685141 0.06072068 0.6685808 0.06072068 0.6514077 0.3892454 0.6064161 0.3892454 0.6321922 0.3721022 0.6322637 0.2144575 0.5542601 0.2394174 0.547415 0.2394174 0.5760314 0.2106575 0.6331703 0.2106575 0.6589492 0.193488 0.6589602 0.1875378 0.5837144 0.1875378 0.5986405 0.1626471 0.6055586 0.3070069 0.6530097 0.2920693 0.6530763 0.2920693 0.6359032 0.3531373 0.6064161 0.3531373 0.6321921 0.335994 0.6322637 0.1109752 0.5542603 0.135935 0.5474151 0.135935 0.5760315 0.1744969 0.6331703 0.1744969 0.6589492 0.1573274 0.6589602 0.1617364 0.5837144 0.1617364 0.5986406 0.1368458 0.6055588 0.1158905 0.6503864 0.1009529 0.6504531 0.1009529 0.63328 0.5933185 0.5004373 0.7064659 0.5007901 0.7064659 0.7654896 0.5251635 0.5004373 0.5588266 0.7691523 0.412024 0.765488 0.4111132 0.5227218 0.1405102 0.5464863 0.1394186 0.3523097 0.6809052 4.55396e-4 0.820254 4.55406e-4 0.820254 0.1667892 0.9343301 0.3331897 0.9490187 0.4995499 0.8358534 0.4995272 0.412024 0.1667891 0.6809052 0.1667892 0.6809051 0.3331408 0.4111132 0.02365082 0.4102275 0.1899848 0.139625 0.1899554 0.6809051 0.3331408 0.820254 0.3331408 0.820254 0.4995265 0.8358534 4.55393e-4 0.9490187 4.78133e-4 0.9371069 0.166833 0.412024 4.55376e-4 0.6809052 4.55396e-4 0.6809052 0.1667892 0.139625 0.1899554 6.6178e-4 0.1899734 0.001547694 4.73365e-4 0.412024 0.3331408 0.6809051 0.3331408 0.6809051 0.4995265 0.4102275 0.1899848 0.4100211 0.3563365 0.1394186 0.3523097 0.8239416 0.1668102 0.9371069 0.166833 0.9343301 0.3331897 0.9501358 0.1667954 0.9975239 0.1667893 0.9973175 0.333141 0.9984096 4.55388e-4 0.9975239 0.1667893 0.9501358 0.1667954 0.9973175 0.333141 0.9984096 0.4995264 0.9510214 0.4995325 0.7073767 0.8331227 0.7073767 0.6667711 0.7548964 0.6667711 0.7548964 0.6667711 0.7073767 0.6667711 0.7073767 0.5004373 0.7548964 0.9995083 0.7073767 0.9995083 0.7073767 0.8331227 0.8075957 0.6667712 0.8152425 0.6667797 0.815036 0.8331313 0.8084813 0.5004372 0.8161281 0.5004457 0.8152425 0.6667797 0.815036 0.8331313 0.8161281 0.9995167 0.8084813 0.9995082 0.8004728 0.8331332 0.8006792 0.6667816 0.8075957 0.6667712 0.8084813 0.5004372 0.8075957 0.6667712 0.8006792 0.6667816 0.8004728 0.8331332 0.8073892 0.8331228 0.8084813 0.9995082 0.9501358 0.6667825 0.9900556 0.6667773 0.9898492 0.833129 0.9909413 0.5004433 0.9900556 0.6667773 0.9501358 0.6667825 0.9898492 0.833129 0.9909413 0.9995144 0.9510214 0.9995195 0.8211648 0.8331462 0.8211648 0.6667945 0.8611955 0.6667945 0.8611955 0.6667945 0.8211648 0.6667945 0.8211649 0.5004607 0.8611955 0.9995318 0.8211648 0.9995318 0.8211648 0.8331462 0.9343692 0.833159 0.9270673 0.8331461 0.9270673 0.6667945 0.9343693 0.6668074 0.9270673 0.6667945 0.9270674 0.5004608 0.9343692 0.833159 0.9343692 0.9995447 0.9270673 0.9995318 0.9343692 0.833159 0.9343693 0.6668074 0.941671 0.6667945 0.941671 0.5004608 0.941671 0.6667945 0.9343693 0.6668074 0.941671 0.9995318 0.9343692 0.9995447 0.9343692 0.833159 0.06498914 0.5942547 0.06498914 0.5474874 0.08419382 0.547415 4.55385e-4 0.8397575 6.87759e-4 0.5868772 0.01546245 0.5871829 6.87759e-4 0.5868772 4.55385e-4 0.5475576 0.01517349 0.547415 0.1394186 0.3523097 4.5538e-4 0.3523276 6.6178e-4 0.1899734 0.7064659 0.7654896 0.7064659 0.9026712 0.5597374 0.9063944 0.6809052 0.1667892 0.820254 0.1667892 0.820254 0.3331408 0.5588266 0.7691523 0.5588266 0.9062948 0.412024 0.9026305 0.1405102 0.5464863 0.001547038 0.5465043 4.5538e-4 0.3523276 0.7776846 0.8331251 0.7558072 0.8331226 0.7558072 0.6667709 0.7776846 0.6667736 0.7558072 0.6667709 0.7558072 0.5004372 0.7776846 0.8331251 0.7776846 0.9995107 0.7558072 0.9995081 0.7776846 0.8331251 0.7776846 0.6667736 0.799562 0.6667709 0.799562 0.5004372 0.799562 0.6667709 0.7776846 0.6667736 0.799562 0.9995081 0.7776846 0.9995107 0.7776846 0.8331251 0.3955517 0.5868231 0.3955517 0.547415 0.4101328 0.5474605 0.02890694 0.547415 0.04384273 0.5475501 0.04396158 0.8004494 0.0448724 0.5941956 0.0448724 0.547415 0.06407839 0.5474749</float_array>
          <technique_common>
            <accessor source="#Cube_027-mesh-map-1-array" count="768" stride="2">
              <param name="S" type="float"/>
              <param name="T" type="float"/>
            </accessor>
          </technique_common>
        </source>
        <vertices id="Cube_027-mesh-vertices">
          <input semantic="POSITION" source="#Cube_027-mesh-positions"/>
        </vertices>
        <triangles material="Material_004-material" count="256">
          <input semantic="VERTEX" source="#Cube_027-mesh-vertices" offset="0"/>
          <input semantic="NORMAL" source="#Cube_027-mesh-normals" offset="1"/>
          <input semantic="TEXCOORD" source="#Cube_027-mesh-map-0" offset="2" set="0"/>
          <input semantic="TEXCOORD" source="#Cube_027-mesh-map-1" offset="2" set="1"/>
          <p>1 0 0 4 0 1 5 0 2 6 1 3 1 1 4 5 1 5 6 2 6 3 2 7 2 2 8 0 3 9 7 3 10 4 3 11 7 4 12 5 4 13 4 4 14 12 5 15 9 5 16 8 5 17 14 6 18 9 6 19 13 6 20 14 7 21 11 7 22 10 7 23 15 8 24 8 8 25 11 8 26 15 4 27 13 4 28 12 4 29 20 9 30 17 9 31 16 9 32 22 10 33 17 10 34 21 10 35 22 11 36 19 11 37 18 11 38 23 12 39 16 12 40 19 12 41 23 13 42 21 13 43 20 13 44 28 14 45 25 14 46 24 14 47 30 15 48 25 15 49 29 15 50 30 16 51 27 16 52 26 16 53 31 17 54 24 17 55 27 17 56 31 18 57 29 18 58 28 18 59 36 19 60 33 19 61 32 19 62 38 20 63 33 20 64 37 20 65 38 21 66 35 21 67 34 21 68 39 22 69 32 22 70 35 22 71 39 23 72 37 23 73 36 23 74 45 24 75 40 24 76 44 24 77 46 25 78 41 25 79 45 25 80 47 26 81 42 26 82 46 26 83 47 27 84 40 27 85 43 27 86 46 28 87 44 28 88 47 28 89 53 29 90 48 29 91 52 29 92 54 30 93 49 30 94 53 30 95 55 31 96 50 31 97 54 31 98 55 32 99 48 32 100 51 32 101 54 33 102 52 33 103 55 33 104 61 34 105 56 34 106 60 34 107 62 35 108 57 35 109 61 35 110 63 36 111 58 36 112 62 36 113 63 37 114 56 37 115 59 37 116 62 38 117 60 38 118 63 38 119 69 39 120 64 39 121 68 39 122 70 40 123 65 40 124 69 40 125 71 41 126 66 41 127 70 41 128 71 42 129 64 42 130 67 42 131 70 43 132 68 43 133 71 43 134 77 44 135 72 44 136 76 44 137 78 45 138 73 45 139 77 45 140 79 46 141 74 46 142 78 46 143 79 47 144 72 47 145 75 47 146 78 48 147 76 48 148 79 48 149 85 49 150 80 49 151 84 49 152 86 50 153 81 50 154 85 50 155 87 51 156 82 51 157 86 51 158 87 52 159 80 52 160 83 52 161 86 53 162 84 53 163 87 53 164 93 54 165 88 54 166 92 54 167 94 55 168 89 55 169 93 55 170 95 56 171 90 56 172 94 56 173 95 57 174 88 57 175 91 57 176 94 58 177 92 58 178 95 58 179 101 59 180 96 59 181 100 59 182 102 60 183 97 60 184 101 60 185 103 61 186 98 61 187 102 61 188 103 62 189 96 62 190 99 62 191 102 63 192 100 63 193 103 63 194 108 64 195 105 64 196 104 64 197 111 65 198 106 65 199 110 65 200 108 66 201 120 66 202 122 66 203 118 67 204 213 67 205 113 67 206 121 68 207 108 68 208 122 68 209 112 69 210 123 69 211 121 69 212 119 70 213 115 70 214 117 70 215 123 71 216 210 71 217 105 71 218 119 72 219 112 72 220 114 72 221 116 73 222 113 73 223 112 73 224 115 74 225 215 74 226 117 74 227 121 75 228 105 75 229 109 75 230 114 76 231 120 76 232 115 76 233 114 4 234 121 4 235 122 4 236 126 77 237 133 77 238 128 77 239 132 78 240 126 78 241 127 78 242 133 79 243 124 79 244 128 79 245 143 80 246 136 80 247 138 80 248 136 81 249 142 81 250 137 81 251 134 82 252 143 82 253 138 82 254 160 83 255 159 84 256 161 85 257 162 86 258 157 87 259 160 83 260 159 84 261 163 88 262 161 85 263 155 89 264 160 83 265 161 85 266 162 86 267 153 90 268 154 91 269 155 89 270 163 88 271 152 92 272 165 93 273 171 93 274 167 93 275 170 94 276 165 94 277 166 94 278 171 95 279 164 95 280 167 95 281 179 96 282 173 96 283 175 96 284 173 97 285 178 97 286 174 97 287 172 98 288 179 98 289 175 98 290 199 99 291 195 100 292 198 101 293 198 101 294 196 102 295 201 103 296 199 99 297 193 104 298 197 105 299 199 99 300 190 106 301 192 107 302 191 108 303 198 101 304 201 103 305 188 109 306 199 99 307 192 107 308 135 65 309 130 65 310 125 65 311 205 110 312 204 110 313 203 110 314 206 111 315 207 111 316 204 111 317 120 112 318 214 112 319 115 112 320 105 113 321 209 113 322 104 113 323 113 114 324 218 114 325 123 114 326 107 115 327 211 115 328 106 115 329 104 116 330 217 116 331 120 116 332 189 117 333 200 117 334 194 117 335 230 118 336 226 119 337 229 120 338 229 120 339 227 121 340 232 122 341 230 118 342 224 123 343 228 124 344 230 118 345 221 125 346 223 126 347 222 127 348 229 120 349 232 122 350 219 128 351 230 118 352 223 126 353 220 65 354 231 65 355 225 65 356 164 129 357 176 129 358 172 129 359 235 130 360 236 130 361 234 130 362 124 129 363 139 129 364 134 129 365 202 131 366 188 131 367 193 131 368 152 132 369 163 132 370 156 132 371 187 133 372 184 133 373 180 133 374 182 4 375 186 4 376 185 4 377 182 4 378 185 4 379 187 4 380 187 134 381 180 134 382 183 134 383 181 135 384 182 135 385 187 135 386 181 4 387 187 4 388 183 4 389 151 136 390 148 136 391 144 136 392 146 4 393 150 4 394 149 4 395 146 4 396 149 4 397 151 4 398 146 4 399 151 4 400 144 4 401 146 137 402 144 137 403 147 137 404 145 4 405 146 4 406 147 4 407 1 138 408 0 138 409 4 138 410 6 139 411 2 139 412 1 139 413 6 140 414 7 140 415 3 140 416 0 141 417 3 141 418 7 141 419 7 142 420 6 142 421 5 142 422 12 143 423 13 143 424 9 143 425 14 144 426 10 144 427 9 144 428 14 145 429 15 145 430 11 145 431 15 146 432 12 146 433 8 146 434 15 147 435 14 147 436 13 147 437 20 148 438 21 148 439 17 148 440 22 149 441 18 149 442 17 149 443 22 150 444 23 150 445 19 150 446 23 151 447 20 151 448 16 151 449 23 152 450 22 152 451 21 152 452 28 153 453 29 153 454 25 153 455 30 154 456 26 154 457 25 154 458 30 155 459 31 155 460 27 155 461 31 156 462 28 156 463 24 156 464 31 157 465 30 157 466 29 157 467 36 158 468 37 158 469 33 158 470 38 159 471 34 159 472 33 159 473 38 160 474 39 160 475 35 160 476 39 161 477 36 161 478 32 161 479 39 162 480 38 162 481 37 162 482 45 163 483 41 163 484 40 163 485 46 164 486 42 164 487 41 164 488 47 165 489 43 165 490 42 165 491 47 166 492 44 166 493 40 166 494 46 4 495 45 4 496 44 4 497 53 167 498 49 167 499 48 167 500 54 168 501 50 168 502 49 168 503 55 169 504 51 169 505 50 169 506 55 170 507 52 170 508 48 170 509 54 4 510 53 4 511 52 4 512 61 171 513 57 171 514 56 171 515 62 172 516 58 172 517 57 172 518 63 173 519 59 173 520 58 173 521 63 174 522 60 174 523 56 174 524 62 4 525 61 4 526 60 4 527 69 175 528 65 175 529 64 175 530 70 176 531 66 176 532 65 176 533 71 177 534 67 177 535 66 177 536 71 178 537 68 178 538 64 178 539 70 4 540 69 4 541 68 4 542 77 179 543 73 179 544 72 179 545 78 180 546 74 180 547 73 180 548 79 181 549 75 181 550 74 181 551 79 182 552 76 182 553 72 182 554 78 4 555 77 4 556 76 4 557 85 183 558 81 183 559 80 183 560 86 184 561 82 184 562 81 184 563 87 185 564 83 185 565 82 185 566 87 186 567 84 186 568 80 186 569 86 4 570 85 4 571 84 4 572 93 187 573 89 187 574 88 187 575 94 188 576 90 188 577 89 188 578 95 189 579 91 189 580 90 189 581 95 190 582 92 190 583 88 190 584 94 191 585 93 191 586 92 191 587 101 192 588 97 192 589 96 192 590 102 193 591 98 193 592 97 193 593 103 194 594 99 194 595 98 194 596 103 195 597 100 195 598 96 195 599 102 196 600 101 196 601 100 196 602 108 129 603 109 129 604 105 129 605 111 197 606 107 197 607 106 197 608 108 198 609 104 198 610 120 198 611 118 199 612 216 199 613 213 199 614 121 200 615 109 200 616 108 200 617 112 201 618 113 201 619 123 201 620 119 202 621 114 202 622 115 202 623 123 98 624 218 98 625 210 98 626 119 203 627 116 203 628 112 203 629 116 204 630 118 204 631 113 204 632 115 205 633 214 205 634 215 205 635 121 206 636 123 206 637 105 206 638 114 207 639 122 207 640 120 207 641 114 208 642 112 208 643 121 208 644 126 209 645 131 209 646 133 209 647 132 210 648 131 210 649 126 210 650 133 211 651 129 211 652 124 211 653 143 212 654 141 212 655 136 212 656 136 213 657 141 213 658 142 213 659 134 214 660 139 214 661 143 214 662 160 83 663 157 87 664 159 84 665 162 86 666 158 215 667 157 87 668 159 84 669 156 216 670 163 88 671 155 89 672 153 90 673 160 83 674 162 86 675 160 83 676 153 90 677 155 89 678 161 85 679 163 88 680 165 217 681 169 217 682 171 217 683 170 94 684 169 94 685 165 94 686 171 218 687 168 218 688 164 218 689 179 96 690 177 96 691 173 96 692 173 97 693 177 97 694 178 97 695 172 219 696 176 219 697 179 219 698 199 99 699 197 105 700 195 100 701 198 101 702 195 100 703 196 102 704 199 99 705 202 220 706 193 104 707 199 99 708 198 101 709 190 106 710 191 108 711 190 106 712 198 101 713 188 109 714 202 220 715 199 99 716 135 65 717 140 65 718 130 65 719 205 221 720 206 221 721 204 221 722 206 65 723 208 65 724 207 65 725 120 112 726 217 112 727 214 112 728 105 222 729 210 222 730 209 222 731 113 114 732 213 114 733 218 114 734 107 223 735 212 223 736 211 223 737 104 224 738 209 224 739 217 224 740 230 118 741 228 124 742 226 119 743 229 120 744 226 119 745 227 121 746 230 118 747 233 225 748 224 123 749 230 118 750 229 120 751 221 125 752 222 127 753 221 125 754 229 120 755 219 128 756 233 225 757 230 118 758 164 129 759 168 129 760 176 129 761 235 226 762 237 226 763 236 226 764 124 129 765 129 129 766 139 129 767</p>
        </triangles>
      </mesh>
    </geometry>
  </library_geometries>
  <library_visual_scenes>
    <visual_scene id="Scene" name="Scene">
      <node id="Cube_012" name="Cube_012" type="NODE">
        <matrix sid="transform">0.217881 0 0 2.423169 0 0.2537649 0 0.4924891 0 0 0.2537649 -0.5630162 0 0 0 1</matrix>
        <instance_geometry url="#Cube_027-mesh" name="Cube_012">
          <bind_material>
            <technique_common>
              <instance_material symbol="Material_004-material" target="#Material_004-material">
                <bind_vertex_input semantic="Cube_027-mesh-map-0" input_semantic="TEXCOORD" input_set="0"/>
                <bind_vertex_input semantic="UVMap" input_semantic="TEXCOORD" input_set="1"/>
              </instance_material>
            </technique_common>
          </bind_material>
        </instance_geometry>
      </node>
    </visual_scene>
  </library_visual_scenes>
  <scene>
    <instance_visual_scene url="#Scene"/>
  </scene>
</COLLADA>