<?xml version="1.0" encoding="utf-8"?>
<COLLADA xmlns="http://www.collada.org/2005/11/COLLADASchema" version="1.4.1" xmlns:xsi="http://www.w3.org/2001/XMLSchema-instance">
  <asset>
    <contributor>
      <author>Blender User</author>
      <authoring_tool>Blender 4.3.1 commit date:2024-12-10, commit time:07:46, hash:33d812126174</authoring_tool>
    </contributor>
    <created>2026-04-05T22:22:43</created>
    <modified>2026-04-05T22:22:43</modified>
    <unit name="meter" meter="1"/>
    <up_axis>Z_UP</up_axis>
  </asset>
  <library_effects>
    <effect id="Render_Crest_003-effect">
      <profile_COMMON>
        <newparam sid="hele_thracian_02_silver_png-surface">
          <surface type="2D">
            <init_from>hele_thracian_02_silver_png</init_from>
          </surface>
        </newparam>
        <newparam sid="hele_thracian_02_silver_png-sampler">
          <sampler2D>
            <source>hele_thracian_02_silver_png-surface</source>
          </sampler2D>
        </newparam>
        <technique sid="common">
          <lambert>
            <emission>
              <color sid="emission">0 0 0 1</color>
            </emission>
            <diffuse>
              <texture texture="hele_thracian_02_silver_png-sampler" texcoord="Plano_108-mesh-map-0"/>
            </diffuse>
            <reflectivity>
              <float sid="specular">0.5</float>
            </reflectivity>
            <index_of_refraction>
              <float sid="ior">1.5</float>
            </index_of_refraction>
          </lambert>
        </technique>
      </profile_COMMON>
    </effect>
  </library_effects>
  <library_images>
    <image id="hele_thracian_02_silver_png" name="hele_thracian_02_silver_png">
      <init_from>hele_thracian_02_silver.png</init_from>
    </image>
  </library_images>
  <library_materials>
    <material id="Render_Crest_003-material" name="Render_Crest.003">
      <instance_effect url="#Render_Crest_003-effect"/>
    </material>
  </library_materials>
  <library_geometries>
    <geometry id="Plano_002-mesh" name="Plano.002">
      <mesh>
        <source id="Plano_002-mesh-positions">
          <float_array id="Plano_002-mesh-positions-array" count="444">0.3410872 0.101405 0.1843729 -0.09409373 -0.02113777 -0.2244805 0.2435916 0.1140886 0.2781686 -0.08480954 -0.08568465 -0.214008 0.2249693 0.1437974 0.4175673 -0.06144899 0.1270592 0.4179872 -0.2429814 0.09378176 0.3192101 -0.3254054 0.05433893 0.1554881 -0.2881468 0.01857584 -0.03231137 0.2314101 0.07867074 0.4259806 -0.05216485 0.06251233 0.4284595 -0.2336972 0.02923494 0.3296823 -0.3161212 -0.01020795 0.1659606 -0.2788624 -0.04597085 -0.02183908 -0.2985432 0.07422333 0.2431877 -0.289259 0.009676516 0.2536602 -0.1622436 0.1117741 0.3787346 -0.1529593 0.0472272 0.389207 0.05301135 0.1386682 0.4344785 0.06229561 0.07412135 0.4449508 0.5020445 0.02746617 -0.1648026 0.4816668 0.002491354 -0.02114754 -0.2263879 0.004965066 -0.1205036 -0.2171038 -0.05958169 -0.1100313 -0.321865 0.03538924 0.06167209 -0.3125808 -0.02915751 0.07214444 -0.1725435 0.05903905 0.1247353 -0.1163975 0.08590716 0.2362608 0.007260501 0.1085753 0.3035467 0.1755057 0.1222699 0.312806 -0.1378792 -0.02986907 0.007280707 -0.1632594 -0.005507886 0.1352076 -0.1071133 0.02136027 0.2467333 0.01654464 0.04402846 0.314019 0.1819462 0.05714321 0.3212192 -0.03730756 -0.04564279 -0.1051157 0.4828739 0.067604 -0.03195023 -0.04659181 0.01890397 -0.1155881 0.5176201 0.03910136 0.1591461 -0.1471635 0.03467768 -0.003191649 -0.1542453 0.07258415 0.1844753 -0.1449611 0.008037269 0.1949476 -0.06139957 0.09816324 0.2768083 -0.05211544 0.0336163 0.2872807 0.08522969 0.1164832 0.3147804 0.09451383 0.05193632 0.3252528 0.5188271 0.104214 0.1483435 0.4299153 0.06552284 0.3216511 -0.09580987 -0.03914064 -0.05279469 -0.1050941 0.02540612 -0.06326705 -0.170132 0.04613077 0.06082898 -0.1608478 -0.0184161 0.07130134 0.4311222 0.1306354 0.3108484 0.3454267 0.07270103 0.3830867 -0.1488205 0.06839478 0.1183208 -0.1737789 0.06762742 0.1233419 0.4885522 0.05408114 0.2453924 0.5152755 0.02153342 0.06838119 -0.09696477 0.09320968 0.2213239 -0.1176328 0.09449547 0.2348675 0.03347796 -0.04929536 -0.1003413 0.02172321 0.03242814 -0.1136006 -0.0865252 0.03733205 -0.05531519 -0.1253797 0.04589504 1.69441e-4 -0.1465932 0.05647283 0.05929785 -0.1319205 0.0809049 0.1734956 -0.04616963 0.1045292 0.2587729 0.0172438 0.1141457 0.283468 0.08925467 0.1214494 0.2938435 0.1665726 0.127167 0.2936356 -0.07477033 -0.04439151 -0.04205602 -0.1136247 -0.03582841 0.01342862 -0.1348384 -0.02525061 0.07255703 -0.1370657 -0.01332873 0.1315801 -0.1201656 -8.18711e-4 0.1867548 -0.0852099 0.01148611 0.2345831 -0.03441476 0.02280569 0.272032 0.02899855 0.03242206 0.2967271 0.1010096 0.03972572 0.3071026 0.1747272 0.04470926 0.3042876 0.006025135 0.1171637 0.3021533 0.1746487 0.1309354 0.3116865 0.5004787 -0.01881122 -0.1549031 0.3466337 0.1378138 0.3722839 -0.08072209 0.02406531 -0.1265304 -0.06896728 -0.05765813 -0.1132712 0.1828033 0.04847776 0.3223387 0.01778 0.03544008 0.3154125 -0.1058778 0.0127719 0.2481266 -0.1620241 -0.01409614 0.136601 -0.1366438 -0.03845739 0.008674144 -0.1437258 -5.51101e-4 0.1963411 -0.05088007 0.02502793 0.2886741 0.09574919 0.04334795 0.3266462 0.4897594 0.1191937 0.2345896 -0.09457463 -0.04772895 -0.05140119 -0.1596125 -0.02700442 0.07269477 -0.1713674 0.05471909 0.05943554 -0.1063294 0.03399449 -0.06466048 0.5164826 0.08664608 0.0575785 0.08399432 0.1250715 0.313387 -0.06263494 0.1067516 0.2754148 -0.1554806 0.08117246 0.1830818 -0.1483986 0.04326605 -0.004585027 -0.08072209 -0.01124584 -0.2583135 -0.06896728 -0.09296935 -0.2450544 0.03347796 -0.08460652 -0.2321245 0.02172321 -0.002883017 -0.2453837 0.3592907 0.07923382 0.06379485 0.2984421 0.04144203 -0.06349956 0.2423844 0.04897594 0.2889714 0.3398802 0.03629231 0.1951756 0.3580836 0.01412129 0.07459753 0.2968763 -0.004835307 -0.05360001 0.3011443 0.1091989 0.2363194 0.2999371 0.04408633 0.2471221 0.3608878 0.09120088 0.1256229 0.3596808 0.02608823 0.1364256 0.3363969 0.06626254 0.002808809 0.3351899 0.001149892 0.01361143 0.2269282 0.1188786 0.2613646 0.2437523 0.1227523 0.2767313 0.3169735 0.107164 0.1747364 0.3412479 0.1100686 0.1829356 0.2800828 0.1143625 0.2227134 0.3352609 0.09773975 0.1204758 0.3337858 0.0866872 0.06337237 0.3126417 0.07470721 0.007046699 0.2870541 0.04929602 -0.05456995 0.2254 0.03643864 0.2750421 0.2785544 0.03192263 0.2363908 0.3154451 0.02472424 0.1884138 0.3337326 0.01529997 0.1341533 0.3322575 0.004247307 0.07704991 0.3111134 -0.007732689 0.02072405 0.2850715 -0.009296298 -0.04203599 0.3594513 0.08789741 0.06235742 0.2986505 0.04759949 -0.06481671 0.2966679 -0.01099282 -0.05228286 0.3579232 0.00545758 0.07603484 0.3397195 0.02762871 0.196613 0.2422239 0.0403124 0.2904088 0.2997766 0.03542262 0.2485594 0.3595201 0.01742458 0.137863 0.3350292 -0.007513642 0.01504886 0.3365575 0.07492613 0.001371443 0.3610484 0.09986448 0.1241856 0.3013048 0.1178625 0.2348821</float_array>
          <technique_common>
            <accessor source="#Plano_002-mesh-positions-array" count="148" stride="3">
              <param name="X" type="float"/>
              <param name="Y" type="float"/>
              <param name="Z" type="float"/>
            </accessor>
          </technique_common>
        </source>
        <source id="Plano_002-mesh-normals">
          <float_array id="Plano_002-mesh-normals-array" count="918">0.05369192 -0.9806207 0.1884154 -0.7372962 -0.2102151 -0.6420311 -0.6294085 -0.2118331 -0.7476441 -0.7230689 -0.210735 -0.6578467 -0.03002226 0.9597792 -0.2791466 0.05369496 -0.9806202 0.1884176 -0.03833007 0.1546573 0.9872245 -0.2621146 0.1177004 0.9578322 -0.02392518 0.1523922 0.9880305 -0.4936508 0.06963896 0.8668676 -0.7085964 0.01253998 0.7055026 -0.4877653 0.07100737 0.8700822 -0.8873832 -0.05333918 0.4579367 -0.9818181 -0.1169625 0.1495093 -0.8878791 -0.0535717 0.4569474 -0.9744865 -0.164876 -0.1522892 -0.8810459 -0.1965373 -0.4302688 -0.9726467 -0.1662276 -0.1622559 0.906171 0.06247735 -0.4182713 -0.05368959 0.9806207 -0.1884157 -0.0536912 0.9806205 -0.1884163 0.07029384 -0.9772617 0.2000466 0.07029366 -0.9772615 0.2000473 0.0702942 -0.9772611 0.2000488 0.07029438 -0.9772616 0.2000469 0.0137158 -0.9997213 0.01921588 -0.07029467 0.9772614 -0.2000473 -0.07029473 0.9772613 -0.2000478 -0.0702942 0.9772616 -0.2000465 -0.07029408 0.9772612 -0.2000482 -0.7111946 0.01174372 0.7028971 -0.07029438 0.9772616 -0.2000466 0.07029402 -0.9772616 0.2000469 -0.2700611 0.1162282 0.9558023 -0.07029354 0.9772616 -0.200047 0.07029461 -0.9772612 0.200048 0.3415018 0.373946 0.8622882 0.3610792 0.0660873 0.9301905 -0.04698467 0.9825934 -0.1797301 0.06741642 -0.9776092 0.1993378 -0.1365008 0.9408052 -0.3102471 -0.8862279 -0.1956046 -0.4199276 0.0536881 -0.9806206 0.1884173 -0.05368977 0.9806207 -0.188416 0.07029378 -0.9772614 0.2000476 -0.0702942 0.9772614 -0.2000474 -0.9809678 -0.1158115 0.1558526 -0.2621131 0.1176975 0.957833 -0.07721233 0.1488375 0.9858427 -0.2700622 0.1162248 0.9558025 -0.7085963 0.0125336 0.7055029 -0.4936504 0.06963729 0.866868 -0.7111942 0.01173752 0.7028977 -0.9818168 -0.1169729 0.1495105 -0.887383 -0.05333942 0.457937 -0.9809654 -0.1158208 0.1558603 -0.8810458 -0.1965254 -0.4302743 -0.9744869 -0.1648758 -0.1522867 -0.8862287 -0.1955924 -0.4199313 -0.8878803 -0.05357176 0.4569451 -0.711193 0.01173228 0.702899 -0.8878799 -0.05357116 0.4569457 -0.7085946 0.01252835 0.7055046 -0.0702939 0.9772613 -0.2000479 -0.4877629 0.071006 0.8700836 -0.2700641 0.1162357 0.9558006 -0.4877636 0.07100337 0.8700835 -0.2621144 0.1177086 0.9578314 -0.06988704 0.1489472 0.9863725 0.1805377 0.3695219 0.9115151 0.2083643 0.3597592 0.9094821 -0.05549001 0.1510338 0.98697 0.4195412 0.0504387 0.9063339 0.05368965 -0.9806209 0.188415 0.1483786 -0.9473807 0.2836436 -0.05369275 0.9806203 -0.1884176 0.07029372 -0.9772616 0.2000465 0.07029312 -0.9772617 0.2000467 0.8715389 0.1981277 0.4485147 0.9899705 0.1364608 -0.03656452 0.835347 0.2030364 0.5108538 -0.07029497 0.9772614 -0.2000468 -0.07029241 0.9772616 -0.2000468 -0.07029265 0.9772614 -0.2000478 0.07029533 -0.9772616 0.2000457 -0.07029527 0.9772617 -0.2000456 0.07029438 -0.9772623 0.2000429 -0.06682181 0.9822687 -0.1751657 0.07370871 -0.9768374 0.2008877 -0.05369055 0.9806208 -0.1884151 0.6789829 -0.1633688 -0.7157464 0.9070925 -0.08615493 -0.41202 0.6654524 -0.1631832 -0.7283848 0.07029336 -0.9772614 0.2000475 -0.07029312 0.9772616 -0.2000468 -0.07029229 0.9772614 -0.2000483 -0.07029324 0.9772615 -0.2000471 -0.07029497 0.9772616 -0.2000464 0.9097098 -0.08514779 -0.406421 0.6902587 -0.1881898 -0.6986613 0.9142694 -0.08274793 -0.3965656 0.070293 -0.9772616 0.2000468 0.07029139 -0.9772611 0.2000495 0.07029318 -0.9772612 0.2000485 0.07029414 -0.9772608 0.2000499 0.9829284 -0.04768919 -0.177701 0.9891473 0.006003856 0.1468046 0.9814394 -0.0489425 -0.1854221 0.9891476 0.006015717 0.146802 0.9829277 -0.04770433 -0.1777009 0.9886786 0.006540238 0.1499061 0.05641698 -0.9806836 0.1872883 -0.07601201 0.9791093 -0.1885929 -0.9744877 -0.1648684 -0.1522899 -0.8810446 -0.1965384 -0.4302711 -0.9726471 -0.1662209 -0.1622599 -0.8873827 -0.05333787 0.4579378 -0.9818187 -0.11696 0.1495071 -0.49365 0.06963419 0.8668684 -0.06409174 0.1508247 0.9864807 0.8849288 0.06020408 0.4618187 0.6983546 0.1045359 0.708077 0.8838448 0.06055867 0.4638437 0.6983534 0.1045312 0.7080789 0.8849288 0.06021165 0.4618176 0.7027501 0.1037454 0.7038319 -0.2878251 0.1128953 0.9510055 -0.8699957 -0.1195632 -0.4783432 -0.2166002 0.8581288 -0.46551 -0.8684772 -0.2568982 -0.4239705 -0.1498454 -0.9881413 0.03351283 -0.7466568 -0.2913624 -0.5980063 -0.07826179 -0.9963485 0.03413176 -0.9809678 -0.1158074 0.155856 -0.9726462 -0.1662293 -0.1622567 -0.7415027 -0.1423043 -0.6556854 -0.8862277 -0.1956061 -0.4199272 0.6712731 0.2117971 0.7103059 0.5272483 0.1295441 0.8397783 0.5283718 0.130169 0.8389751 0.8838452 0.0605666 0.4638421 0.9814391 -0.048958 -0.18542 0.06058293 -0.1513592 -0.9866206 0.262112 -0.1177012 -0.9578329 0.07676601 -0.1406918 -0.9870728 0.4877616 -0.07100784 -0.8700842 0.270065 -0.1162276 -0.9558014 -0.5456919 -0.1521841 -0.8240512 0.7085983 -0.01254087 -0.7055007 0.7111952 -0.01174479 -0.7028966 0.8878799 0.05357277 -0.4569455 0.9818177 0.1169638 -0.1495112 0.9809669 0.115812 -0.1558573 0.9726456 0.1662284 0.1622606 0.8810435 0.1965368 0.4302741 0.6530341 0.2118945 0.7270813 0.8862276 0.1956041 0.4199281 0.02659904 -0.996932 0.07361537 0.4936482 -0.06963938 -0.866869 -0.5031422 -0.158282 -0.8495851 0.8873823 0.05334019 -0.4579384 0.9744863 0.1648752 0.1522914 -0.08364206 0.950505 -0.2992396 -0.6294086 -0.2118334 -0.747644 -0.1483783 0.9473809 -0.2836431 0.992688 -0.03744262 -0.1147552 0.9814389 -0.04895794 -0.1854206 0.9945732 -0.03558015 -0.09776657 0.9061704 0.06247872 -0.4182724 0.992138 -0.06143081 -0.1090336 0.9884079 -0.06508815 -0.1371619 0.05369186 -0.9806208 0.1884147 0.07029479 -0.9772613 0.2000479 0.07029378 -0.9772614 0.2000474 0.07029438 -0.9772613 0.2000478 0.07029366 -0.9772613 0.2000479 -0.0536915 0.9806206 -0.1884164 -0.07029479 0.9772613 -0.2000479 -0.07029432 0.9772615 -0.2000468 -0.07029396 0.9772613 -0.2000478 -0.07029408 0.9772613 -0.2000482 -0.07029438 0.9772616 -0.2000467 0.07029402 -0.9772614 0.2000476 -0.07029354 0.9772616 -0.2000467 0.07029384 -0.9772617 0.2000465 -0.06702524 0.9776558 -0.1992408 0.04661291 -0.9825795 0.1799023 0.9829279 -0.04770475 -0.1776995 0.9891476 0.006017982 0.1468024 0.05369114 -0.9806207 0.1884158 -0.05369091 0.9806207 -0.1884154 0.07029432 -0.9772614 0.2000473 -0.07029396 0.9772614 -0.2000476 -0.07029414 0.9772614 -0.2000474 0.4037666 0.04538416 0.9137357 0.8849285 0.06021231 0.4618182 0.6983562 0.1045293 0.7080765 0.8838464 0.06056773 0.4638397 0.03002196 -0.959779 0.279147 -0.05369049 0.9806206 -0.1884161 0.07029372 -0.9772617 0.2000463 0.0702908 -0.9772617 0.2000472 0.04613506 -0.9648974 0.2585434 -0.07029259 0.9772612 -0.2000487 -0.07029318 0.9772617 -0.2000467 -0.07029449 0.9772619 -0.2000449 0.07029402 -0.9772611 0.2000488 -0.07029438 0.9772612 -0.2000482 0.07029372 -0.9772609 0.2000499 -0.0727846 0.9769536 -0.2006597 0.06655466 -0.9822652 0.1752874 -0.05369174 0.9806208 -0.1884146 -0.05369132 0.9806208 -0.1884151 0.07029283 -0.9772615 0.2000472 -0.07029521 0.9772613 -0.2000476 -0.07029247 0.9772613 -0.2000482 -0.07029312 0.9772611 -0.2000491 -0.07029491 0.9772616 -0.2000464 0.05369269 -0.9806208 0.1884146 0.07029294 -0.9772616 0.200047 0.07029575 -0.9772615 0.2000462 0.07029521 -0.9772621 0.2000437 0.07029414 -0.9772614 0.2000473 0.0536915 -0.9806205 0.1884162 0.05369096 -0.9806205 0.1884166 0.07601034 -0.9791096 0.1885915 -0.05641692 0.9806834 -0.1872893 0.7027516 0.1037443 0.7038304 0.4744099 0.1355157 0.8698108 0.9886783 0.006541371 0.1499086 -0.2878232 0.1128964 0.951006 -0.0806933 0.9196549 -0.3843481 0.135208 -0.1397004 -0.9809193 0.1352068 -0.1397016 -0.9809193 -0.9899704 -0.1364617 0.03656488 -0.04613524 0.9648973 -0.2585435 0.05369371 -0.9806208 0.1884145 0.7027518 0.1037505 0.7038294 0.5376847 0.1282912 0.8333287 0.9886786 0.006526589 0.1499069 0.9066207 -0.08537262 -0.4132196 -0.9305206 0.07666635 0.3581255 -0.9814392 0.04895699 0.1854194 -0.9335145 0.08167874 0.349112 -0.9891475 -0.006017923 -0.1468028 -0.9829282 0.04770344 0.1776983 -0.7541058 0.09428232 0.6499504 -0.8838451 -0.06056892 -0.4638418 -0.8849284 -0.06021332 -0.4618182 -0.6983535 -0.1045294 -0.708079 -0.5516042 -0.126558 -0.8244489 -0.5434066 -0.1349453 -0.8285524 -0.988679 -0.006540954 -0.149904 -0.7659656 0.2114038 0.6071287 -0.7027509 -0.1037428 -0.7038314 0.4792206 0.1361178 0.8670754 0.05369162 -0.9806208 0.1884147 0.05369162 -0.9806206 0.188416 0.05369174 -0.9806208 0.1884151 -0.05369144 0.9806209 -0.1884144 -0.05369102 0.9806207 -0.1884155 -0.05369228 0.9806206 -0.1884156 -0.05369085 0.9806208 -0.1884155 0.05369168 -0.9806207 0.1884154 -0.05369132 0.9806205 -0.1884168 0.05369096 -0.9806206 0.1884161 -0.08176904 0.947866 -0.3080002 0.01125204 -0.987244 0.1588168 0.6766617 -0.1891252 -0.7115902 -0.05369204 0.9806206 -0.188416 -0.05368959 0.9806206 -0.1884158 0.05369222 -0.9806208 0.1884149 -0.0536912 0.9806209 -0.1884146 0.05369359 -0.9806207 0.1884148 -0.09093052 0.9333825 -0.3471726 -0.06652206 -0.9937853 0.0892505 -0.05369287 0.9806205 -0.188416 -0.05368965 0.9806206 -0.1884159 0.05368953 -0.980621 0.1884148 0.05368846 -0.9806206 0.1884164 0.0536918 -0.9806207 0.188415 0.5382392 0.1291897 0.8328317 -0.019903 -0.9774445 0.2102529 -0.1707066 0.9849323 -0.02770525 0.01232254 0.9782952 -0.2068492 0.02026176 0.9768432 -0.2129949 0.3052387 0.8855283 -0.3502413 -0.001192331 -0.9693529 0.24567 -0.4482495 -0.1724651 -0.8771136 -0.6412659 -0.4443761 -0.6255462 -0.6671202 -0.1341791 -0.7327664 -0.6196797 0.1925991 -0.7608567 0.9899705 0.1364609 -0.03656452 0.04613506 -0.9648973 0.2585434 -0.9899704 -0.1364617 0.03656482 -0.04613524 0.9648973 -0.2585436 0.02937608 -0.9763978 0.2139732 -0.2837945 0.938712 -0.195654 -0.03098005 0.976714 -0.2122972 -0.005685508 0.9711068 -0.2385778 -0.03312015 -0.9752913 0.2184261 0.2489677 -0.9674809 0.04467618 -0.4482491 -0.1724625 -0.8771143 -0.4346834 0.0826165 -0.8967859 -0.5776338 -0.44707 -0.6829845 -0.6671177 -0.1341785 -0.7327687</float_array>
          <technique_common>
            <accessor source="#Plano_002-mesh-normals-array" count="306" stride="3">
              <param name="X" type="float"/>
              <param name="Y" type="float"/>
              <param name="Z" type="float"/>
            </accessor>
          </technique_common>
        </source>
        <source id="Plano_002-mesh-map-0">
          <float_array id="Plano_002-mesh-map-0-array" count="1740">0.3522484 0.462212 0.3571266 0.4251099 0.3674244 0.4327131 0.7294601 0.2137841 0.7090768 0.1762706 0.7082644 0.2112278 0.7246117 0.2319197 0.7420197 0.1822171 0.6987478 0.2049208 0.3904925 0.4090412 0.4140411 0.3817828 0.4199896 0.392697 0.7338607 0.3521745 0.7139207 0.3209036 0.7422772 0.33267 0.6809868 0.3284586 0.6702795 0.2975787 0.6894034 0.3089541 0.7184996 0.3340407 0.6990871 0.3022006 0.6973039 0.3314843 0.7228173 0.273639 0.7047467 0.2401037 0.7016215 0.2710827 0.7328238 0.2165748 0.7090768 0.1762706 0.7302724 0.178827 0.3548747 0.5229815 0.3398649 0.4852967 0.343041 0.523507 0.3582634 0.454236 0.3631416 0.4171338 0.3467099 0.4490734 0.7408018 0.3686668 0.693961 0.3900663 0.7218691 0.3593233 0.7067174 0.3458149 0.656436 0.3455478 0.6963073 0.3289978 0.6912993 0.3099386 0.6501281 0.2880716 0.6920107 0.2898456 0.6983962 0.2699931 0.6766121 0.2319843 0.7100511 0.2516397 0.3595523 0.565029 0.337026 0.5314829 0.3488597 0.5309576 0.7391771 0.3646373 0.6923362 0.3860369 0.7201299 0.3997532 0.7050926 0.3417854 0.6548111 0.3415185 0.6700932 0.3662062 0.6896745 0.3059092 0.6485033 0.2840421 0.647459 0.313539 0.6967715 0.2659637 0.6749872 0.2279548 0.6578776 0.2548981 0.717581 0.3596332 0.6973039 0.3314843 0.6963853 0.3570768 0.6946827 0.3249684 0.647459 0.313539 0.6548111 0.3415185 0.6963073 0.3289978 0.6490838 0.3175685 0.6912993 0.3099386 0.7055042 0.3404082 0.6894034 0.3089541 0.7139207 0.3209036 0.7202444 0.3552939 0.6700932 0.3662062 0.6923362 0.3860369 0.7218691 0.3593233 0.671718 0.3702356 0.7067174 0.3458149 0.7775784 0.365994 0.7422772 0.33267 0.7853164 0.3461058 0.7624514 0.3707595 0.7201299 0.3997532 0.7656593 0.4072952 0.7635344 0.3739312 0.7217548 0.4037826 0.7408018 0.3686668 0.3645188 0.5591369 0.343041 0.523507 0.355183 0.565679 0.7259425 0.24266 0.7082644 0.2112278 0.7047467 0.2401037 0.3459266 0.4956673 0.3406949 0.4570495 0.3522484 0.462212 0.3519417 0.4876913 0.3467099 0.4490734 0.3398649 0.4852967 0.7100511 0.2516397 0.7003725 0.2089502 0.7262366 0.2359492 0.7084264 0.2476102 0.6987478 0.2049208 0.6749872 0.2279548 0.7202826 0.304757 0.7016215 0.2710827 0.6990871 0.3022006 0.7970349 0.6278389 0.7770953 0.5951939 0.801062 0.624656 0.8308576 0.6788616 0.820741 0.6520634 0.8348847 0.6756786 0.7470623 0.570043 0.738712 0.5553152 0.7448168 0.5707792 0.7590432 0.6032852 0.7509755 0.587365 0.7567976 0.6040214 0.7409576 0.554579 0.7330482 0.5419537 0.738712 0.5553152 0.7521708 0.535685 0.76008 0.5483102 0.7544163 0.5349488 0.6903858 0.2858162 0.6578776 0.2548981 0.6485033 0.2840421 0.8167139 0.6552464 0.801062 0.624656 0.820741 0.6520634 0.7445307 0.5606286 0.7600538 0.5632371 0.7445999 0.5629791 0.7730682 0.5983768 0.7478501 0.5623498 0.7770953 0.5951939 0.7078148 0.5632143 0.7272187 0.5637354 0.70797 0.5655714 0.3674244 0.4327131 0.3821032 0.3994793 0.3904925 0.4090412 0.7262366 0.2359492 0.7436445 0.1862466 0.7459259 0.2239165 0.3734394 0.4247371 0.3881183 0.3915032 0.3631416 0.4171338 0.6920107 0.2898456 0.6595023 0.2589275 0.6983962 0.2699931 0.4199896 0.392697 0.4509148 0.3731427 0.4540458 0.3847171 0.7864961 0.625416 0.7651281 0.6324208 0.7651281 0.6324208 0.3965075 0.4010651 0.420056 0.3738068 0.3881183 0.3915032 0.4600607 0.3767411 0.4964016 0.3661307 0.4569299 0.3651667 0.3734394 0.4247371 0.3881183 0.3915032 0.3631416 0.4171338 0.3674244 0.4327131 0.3821032 0.3994793 0.3904925 0.4090412 0.3519417 0.4876913 0.3467099 0.4490734 0.3398649 0.4852967 0.3459266 0.4956673 0.3406949 0.4570495 0.3522484 0.462212 0.3645188 0.5591369 0.343041 0.523507 0.355183 0.565679 0.3595523 0.565029 0.337026 0.5314829 0.3488597 0.5309576 0.3965075 0.4010651 0.420056 0.3738068 0.3881183 0.3915032 0.7078148 0.5632143 0.7272187 0.5637354 0.70797 0.5655714 0.4905013 0.3856074 0.5299535 0.3846136 0.5270447 0.3953114 0.4965163 0.3776313 0.5359686 0.3766377 0.4964016 0.3661307 0.4260047 0.384721 0.4569299 0.3651667 0.420056 0.3738068 0.3582634 0.454236 0.3631416 0.4171338 0.3467099 0.4490734 0.3548747 0.5229815 0.3398649 0.4852967 0.343041 0.523507 0.7730682 0.5983768 0.7478501 0.5623498 0.7770953 0.5951939 0.4540458 0.3847171 0.4903866 0.3741066 0.4905013 0.3856074 0.3904925 0.4090412 0.4140411 0.3817828 0.4199896 0.392697 0.3522484 0.462212 0.3571266 0.4251099 0.3674244 0.4327131 0.3488597 0.5309576 0.3338499 0.4932728 0.3459266 0.4956673 0.7445307 0.5606286 0.7600538 0.5632371 0.7445999 0.5629791 0.8167139 0.6552464 0.801062 0.624656 0.820741 0.6520634 0.5270447 0.3953114 0.5747675 0.4093779 0.5684341 0.4181832 0.5330597 0.3873354 0.5807825 0.4014018 0.5359686 0.3766377 0.770098 0.5810963 0.7781656 0.5970164 0.7723435 0.5803602 0.7578344 0.5490464 0.7661849 0.5637742 0.76008 0.5483102 0.7599846 0.5608868 0.7726006 0.5644934 0.7600538 0.5632371 0.7271495 0.561385 0.7445999 0.5629791 0.7272187 0.5637354 0.7521708 0.535685 0.76008 0.5483102 0.7544163 0.5349488 0.7409576 0.554579 0.7330482 0.5419537 0.738712 0.5553152 0.7601475 0.5826748 0.7563617 0.5634802 0.7570202 0.5858454 0.7810364 0.613423 0.7881063 0.629052 0.783282 0.6126869 0.7682456 0.6326466 0.7619139 0.6196917 0.7667382 0.636057 0.7639393 0.5645104 0.7723435 0.5803602 0.7661849 0.5637742 0.753221 0.5866289 0.7448168 0.5707792 0.7509755 0.587365 0.7641595 0.6189557 0.7567976 0.6040214 0.7619139 0.6196917 0.77592 0.5977526 0.783282 0.6126869 0.7781656 0.5970164 0.7864961 0.625416 0.7651281 0.6324208 0.7606724 0.6173062 0.7470623 0.570043 0.738712 0.5553152 0.7448168 0.5707792 0.8308576 0.6788616 0.820741 0.6520634 0.8348847 0.6756786 0.7970349 0.6278389 0.7770953 0.5951939 0.801062 0.624656 0.7262243 0.5649002 0.7422773 0.5642016 0.7255657 0.5425348 0.7422773 0.5642016 0.7565503 0.56444 0.7416188 0.5418364 0.7255657 0.5425348 0.7422773 0.5642016 0.7416188 0.5418364 0.7098985 0.5662833 0.7262243 0.5649002 0.7255657 0.5425348 0.7565503 0.56444 0.7681383 0.5656002 0.7674798 0.543235 0.7553806 0.5385037 0.7606115 0.5508441 0.7340126 0.5455086 0.7606115 0.5508441 0.7662498 0.5651264 0.7448818 0.5721313 0.7662498 0.5651264 0.7719379 0.5804449 0.7448818 0.5721313 0.7773151 0.5958284 0.7820405 0.6103013 0.7606724 0.6173062 0.7820405 0.6103013 0.7864961 0.625416 0.7606724 0.6173062 0.7719379 0.5804449 0.7773151 0.5958284 0.755947 0.6028333 0.7635344 0.3739312 0.7217548 0.4037826 0.7408018 0.3686668 0.7558918 0.5420747 0.7416188 0.5418364 0.7565503 0.56444 0.7255657 0.5425348 0.7084214 0.5438541 0.7098985 0.5662833 0.7773151 0.5958284 0.7606724 0.6173062 0.755947 0.6028333 0.7674798 0.543235 0.7558918 0.5420747 0.7565503 0.56444 0.7448818 0.5721313 0.7392435 0.5578491 0.7606115 0.5508441 0.7392435 0.5578491 0.7340126 0.5455086 0.7606115 0.5508441 0.755947 0.6028333 0.7505698 0.5874498 0.7719379 0.5804449 0.7505698 0.5874498 0.7448818 0.5721313 0.7719379 0.5804449 0.7624514 0.3707595 0.7201299 0.3997532 0.7656593 0.4072952 0.7294601 0.2137841 0.7302724 0.178827 0.7090768 0.1762706 0.7246117 0.2319197 0.7443012 0.219887 0.7420197 0.1822171 0.7338607 0.3521745 0.7139207 0.3209036 0.7422772 0.33267 0.7338607 0.3521745 0.7055042 0.3404082 0.7139207 0.3209036 0.6809868 0.3284586 0.6618629 0.3170832 0.6702795 0.2975787 0.7184996 0.3340407 0.7202826 0.304757 0.6990871 0.3022006 0.7228173 0.273639 0.7259425 0.24266 0.7047467 0.2401037 0.7328238 0.2165748 0.7116281 0.2140185 0.7090768 0.1762706 0.7775784 0.365994 0.7422772 0.33267 0.7853164 0.3461058 0.7218691 0.3593233 0.671718 0.3702356 0.7067174 0.3458149 0.7408018 0.3686668 0.7217548 0.4037826 0.693961 0.3900663 0.7067174 0.3458149 0.671718 0.3702356 0.656436 0.3455478 0.6912993 0.3099386 0.6490838 0.3175685 0.6501281 0.2880716 0.6983962 0.2699931 0.6595023 0.2589275 0.6766121 0.2319843 0.7202444 0.3552939 0.6700932 0.3662062 0.6923362 0.3860369 0.7391771 0.3646373 0.7202444 0.3552939 0.6923362 0.3860369 0.7050926 0.3417854 0.6946827 0.3249684 0.6548111 0.3415185 0.6896745 0.3059092 0.6903858 0.2858162 0.6485033 0.2840421 0.6967715 0.2659637 0.7084264 0.2476102 0.6749872 0.2279548 0.717581 0.3596332 0.7184996 0.3340407 0.6973039 0.3314843 0.6946827 0.3249684 0.6896745 0.3059092 0.647459 0.313539 0.6963073 0.3289978 0.656436 0.3455478 0.6490838 0.3175685 0.7055042 0.3404082 0.6809868 0.3284586 0.6894034 0.3089541 0.7202444 0.3552939 0.7050926 0.3417854 0.6700932 0.3662062 0.7218691 0.3593233 0.693961 0.3900663 0.671718 0.3702356 0.7775784 0.365994 0.7338607 0.3521745 0.7422772 0.33267 0.7624514 0.3707595 0.7391771 0.3646373 0.7201299 0.3997532 0.7635344 0.3739312 0.7667425 0.4104668 0.7217548 0.4037826 0.7055042 0.3404082 0.6894034 0.3089541 0.7139207 0.3209036 0.7259425 0.24266 0.7294601 0.2137841 0.7082644 0.2112278 0.6963073 0.3289978 0.6490838 0.3175685 0.6912993 0.3099386 0.6946827 0.3249684 0.647459 0.313539 0.6548111 0.3415185 0.7100511 0.2516397 0.6766121 0.2319843 0.7003725 0.2089502 0.7084264 0.2476102 0.7246117 0.2319197 0.6987478 0.2049208 0.7202826 0.304757 0.7228173 0.273639 0.7016215 0.2710827 0.7970349 0.6278389 0.7730682 0.5983768 0.7770953 0.5951939 0.8308576 0.6788616 0.8167139 0.6552464 0.820741 0.6520634 0.7470623 0.570043 0.7409576 0.554579 0.738712 0.5553152 0.7590432 0.6032852 0.753221 0.5866289 0.7509755 0.587365 0.7409576 0.554579 0.7352938 0.5412176 0.7330482 0.5419537 0.7521708 0.535685 0.7578344 0.5490464 0.76008 0.5483102 0.6903858 0.2858162 0.6967715 0.2659637 0.6578776 0.2548981 0.8167139 0.6552464 0.7970349 0.6278389 0.801062 0.624656 0.7445307 0.5606286 0.7599846 0.5608868 0.7600538 0.5632371 0.7730682 0.5983768 0.7439233 0.5656923 0.7478501 0.5623498 0.7078148 0.5632143 0.7271495 0.561385 0.7272187 0.5637354 0.717581 0.3596332 0.6973039 0.3314843 0.6963853 0.3570768 0.7262366 0.2359492 0.7003725 0.2089502 0.7436445 0.1862466 0.6896745 0.3059092 0.6485033 0.2840421 0.647459 0.313539 0.6920107 0.2898456 0.6501281 0.2880716 0.6595023 0.2589275 0.4199896 0.392697 0.4140411 0.3817828 0.4509148 0.3731427 0.5747675 0.4093779 0.5684341 0.4181832 0.5684341 0.4181832 0.3965075 0.4010651 0.4260047 0.384721 0.420056 0.3738068 0.4600607 0.3767411 0.4965163 0.3776313 0.4964016 0.3661307 0.3734394 0.4247371 0.3965075 0.4010651 0.3881183 0.3915032 0.3674244 0.4327131 0.3571266 0.4251099 0.3821032 0.3994793 0.3519417 0.4876913 0.3582634 0.454236 0.3467099 0.4490734 0.3459266 0.4956673 0.3338499 0.4932728 0.3406949 0.4570495 0.3645188 0.5591369 0.3548747 0.5229815 0.343041 0.523507 0.3595523 0.565029 0.3502165 0.571571 0.337026 0.5314829 0.7050926 0.3417854 0.6548111 0.3415185 0.6700932 0.3662062 0.7391771 0.3646373 0.6923362 0.3860369 0.7201299 0.3997532 0.4905013 0.3856074 0.4903866 0.3741066 0.5299535 0.3846136 0.4965163 0.3776313 0.5330597 0.3873354 0.5359686 0.3766377 0.4260047 0.384721 0.4600607 0.3767411 0.4569299 0.3651667 0.3582634 0.454236 0.3734394 0.4247371 0.3631416 0.4171338 0.3548747 0.5229815 0.3519417 0.4876913 0.3398649 0.4852967 0.6912993 0.3099386 0.6501281 0.2880716 0.6920107 0.2898456 0.4540458 0.3847171 0.4509148 0.3731427 0.4903866 0.3741066 0.3904925 0.4090412 0.3821032 0.3994793 0.4140411 0.3817828 0.3522484 0.462212 0.3406949 0.4570495 0.3571266 0.4251099 0.3488597 0.5309576 0.337026 0.5314829 0.3338499 0.4932728 0.7067174 0.3458149 0.656436 0.3455478 0.6963073 0.3289978 0.7408018 0.3686668 0.693961 0.3900663 0.7218691 0.3593233 0.5270447 0.3953114 0.5299535 0.3846136 0.5747675 0.4093779 0.5330597 0.3873354 0.5744492 0.4102072 0.5807825 0.4014018 0.770098 0.5810963 0.77592 0.5977526 0.7781656 0.5970164 0.7578344 0.5490464 0.7639393 0.5645104 0.7661849 0.5637742 0.7599846 0.5608868 0.7725314 0.562143 0.7726006 0.5644934 0.7271495 0.561385 0.7445307 0.5606286 0.7445999 0.5629791 0.7184996 0.3340407 0.6990871 0.3022006 0.6973039 0.3314843 0.6809868 0.3284586 0.6702795 0.2975787 0.6894034 0.3089541 0.7601475 0.5826748 0.7596275 0.5650103 0.7563617 0.5634802 0.7810364 0.613423 0.7851225 0.627114 0.7881063 0.629052 0.7682456 0.6326466 0.7641595 0.6189557 0.7619139 0.6196917 0.7639393 0.5645104 0.770098 0.5810963 0.7723435 0.5803602 0.753221 0.5866289 0.7470623 0.570043 0.7448168 0.5707792 0.7641595 0.6189557 0.7590432 0.6032852 0.7567976 0.6040214 0.77592 0.5977526 0.7810364 0.613423 0.783282 0.6126869 0.7667382 0.636057 0.7864961 0.625416 0.7881063 0.629052 0.7667382 0.636057 0.7651281 0.6324208 0.7864961 0.625416 0.7570202 0.5858454 0.7563617 0.5634802 0.7570202 0.5858454 0.5807825 0.4014018 0.5744492 0.4102072 0.5807825 0.4014018 0.3488597 0.5309576 0.3338499 0.4932728 0.3459266 0.4956673 0.7578344 0.5490464 0.7661849 0.5637742 0.76008 0.5483102 0.7599846 0.5608868 0.7726006 0.5644934 0.7600538 0.5632371 0.7271495 0.561385 0.7445999 0.5629791 0.7272187 0.5637354 0.7262243 0.5649002 0.7422773 0.5642016 0.7255657 0.5425348 0.7422773 0.5642016 0.7565503 0.56444 0.7416188 0.5418364 0.7255657 0.5425348 0.7422773 0.5642016 0.7416188 0.5418364 0.7098985 0.5662833 0.7262243 0.5649002 0.7255657 0.5425348 0.7565503 0.56444 0.7681383 0.5656002 0.7674798 0.543235 0.7553806 0.5385037 0.7606115 0.5508441 0.7340126 0.5455086 0.7606115 0.5508441 0.7662498 0.5651264 0.7448818 0.5721313 0.7558918 0.5420747 0.7416188 0.5418364 0.7565503 0.56444 0.7255657 0.5425348 0.7084214 0.5438541 0.7098985 0.5662833 0.7674798 0.543235 0.7558918 0.5420747 0.7565503 0.56444 0.7448818 0.5721313 0.7392435 0.5578491 0.7606115 0.5508441 0.7392435 0.5578491 0.7340126 0.5455086 0.7606115 0.5508441 0.7338607 0.3521745 0.7055042 0.3404082 0.7139207 0.3209036 0.6809868 0.3284586 0.6618629 0.3170832 0.6702795 0.2975787 0.7184996 0.3340407 0.7202826 0.304757 0.6990871 0.3022006 0.7408018 0.3686668 0.7217548 0.4037826 0.693961 0.3900663 0.7067174 0.3458149 0.671718 0.3702356 0.656436 0.3455478 0.6912993 0.3099386 0.6490838 0.3175685 0.6501281 0.2880716 0.7391771 0.3646373 0.7202444 0.3552939 0.6923362 0.3860369 0.7050926 0.3417854 0.6946827 0.3249684 0.6548111 0.3415185 0.6896745 0.3059092 0.6903858 0.2858162 0.6485033 0.2840421 0.717581 0.3596332 0.7184996 0.3340407 0.6973039 0.3314843 0.6946827 0.3249684 0.6896745 0.3059092 0.647459 0.313539 0.6963073 0.3289978 0.656436 0.3455478 0.6490838 0.3175685 0.7055042 0.3404082 0.6809868 0.3284586 0.6894034 0.3089541 0.7202444 0.3552939 0.7050926 0.3417854 0.6700932 0.3662062 0.7218691 0.3593233 0.693961 0.3900663 0.671718 0.3702356 0.7775784 0.365994 0.7338607 0.3521745 0.7422772 0.33267 0.7624514 0.3707595 0.7391771 0.3646373 0.7201299 0.3997532 0.7635344 0.3739312 0.7667425 0.4104668 0.7217548 0.4037826 0.7970349 0.6278389 0.7730682 0.5983768 0.7770953 0.5951939 0.8308576 0.6788616 0.8167139 0.6552464 0.820741 0.6520634 0.7470623 0.570043 0.7409576 0.554579 0.738712 0.5553152 0.7409576 0.554579 0.7352938 0.5412176 0.7330482 0.5419537 0.7521708 0.535685 0.7578344 0.5490464 0.76008 0.5483102 0.8167139 0.6552464 0.7970349 0.6278389 0.801062 0.624656 0.7445307 0.5606286 0.7599846 0.5608868 0.7600538 0.5632371 0.7730682 0.5983768 0.7439233 0.5656923 0.7478501 0.5623498 0.7078148 0.5632143 0.7271495 0.561385 0.7272187 0.5637354 0.3965075 0.4010651 0.4260047 0.384721 0.420056 0.3738068 0.3734394 0.4247371 0.3965075 0.4010651 0.3881183 0.3915032 0.3674244 0.4327131 0.3571266 0.4251099 0.3821032 0.3994793 0.3519417 0.4876913 0.3582634 0.454236 0.3467099 0.4490734 0.3459266 0.4956673 0.3338499 0.4932728 0.3406949 0.4570495 0.3645188 0.5591369 0.3548747 0.5229815 0.343041 0.523507 0.3595523 0.565029 0.3502165 0.571571 0.337026 0.5314829 0.3582634 0.454236 0.3734394 0.4247371 0.3631416 0.4171338 0.3548747 0.5229815 0.3519417 0.4876913 0.3398649 0.4852967 0.3904925 0.4090412 0.3821032 0.3994793 0.4140411 0.3817828 0.3522484 0.462212 0.3406949 0.4570495 0.3571266 0.4251099 0.3488597 0.5309576 0.337026 0.5314829 0.3338499 0.4932728 0.7578344 0.5490464 0.7639393 0.5645104 0.7661849 0.5637742 0.7599846 0.5608868 0.7725314 0.562143 0.7726006 0.5644934 0.7271495 0.561385 0.7445307 0.5606286 0.7445999 0.5629791 0.6920107 0.2898456 0.7667425 0.4104668 0.7635344 0.3739312 0.7667425 0.4104668 0.7202826 0.304757 0.7775784 0.365994 0.7775784 0.365994 0.6903858 0.2858162 0.7624514 0.3707595 0.7098985 0.5662833 0.7448818 0.5721313 0.7662498 0.5651264 0.355183 0.565679 0.4260047 0.384721 0.7084214 0.5438541 0.7624514 0.3707595 0.420056 0.3738068 0.355183 0.565679 0.3502165 0.571571 0.4199896 0.392697 0.4140411 0.3817828 0.3502165 0.571571 0.7639393 0.5645104 0.7635344 0.3739312 0.7624514 0.3707595 0.7667425 0.4104668 0.7635344 0.3739312 0.7084214 0.5438541 0.3502165 0.571571 0.7098985 0.5662833 0.7864961 0.625416 0.7864961 0.625416 0.7651281 0.6324208 0.5747675 0.4093779 0.5747675 0.4093779 0.5684341 0.4181832 0.7570202 0.5858454 0.7563617 0.5634802 0.7563617 0.5634802 0.5807825 0.4014018 0.5744492 0.4102072 0.5744492 0.4102072 0.6920107 0.2898456 0.6501281 0.2880716 0.7667425 0.4104668 0.7667425 0.4104668 0.6501281 0.2880716 0.7202826 0.304757 0.7775784 0.365994 0.6485033 0.2840421 0.6903858 0.2858162 0.7098985 0.5662833 0.7084214 0.5438541 0.7448818 0.5721313 0.355183 0.565679 0.420056 0.3738068 0.4260047 0.384721 0.7624514 0.3707595 0.7470623 0.570043 0.420056 0.3738068 0.3502165 0.571571 0.7098985 0.5662833 0.4199896 0.392697 0.3502165 0.571571 0.4140411 0.3817828 0.7639393 0.5645104 0.7624514 0.3707595 0.7775784 0.365994 0.7667425 0.4104668 0.7084214 0.5438541 0.355183 0.565679 0.3502165 0.571571</float_array>
          <technique_common>
            <accessor source="#Plano_002-mesh-map-0-array" count="870" stride="2">
              <param name="S" type="float"/>
              <param name="T" type="float"/>
            </accessor>
          </technique_common>
        </source>
        <vertices id="Plano_002-mesh-vertices">
          <input semantic="POSITION" source="#Plano_002-mesh-positions"/>
        </vertices>
        <triangles material="Render_Crest_003-material" count="290">
          <input semantic="VERTEX" source="#Plano_002-mesh-vertices" offset="0"/>
          <input semantic="NORMAL" source="#Plano_002-mesh-normals" offset="1"/>
          <input semantic="TEXCOORD" source="#Plano_002-mesh-map-0" offset="2" set="0"/>
          <p>132 0 0 140 0 1 131 0 2 22 1 3 3 2 4 23 3 5 49 4 6 1 4 7 22 4 8 130 5 9 141 5 10 129 5 11 18 6 12 10 7 13 19 8 14 16 9 15 11 10 16 17 11 17 14 12 18 12 13 19 15 14 20 24 15 21 13 16 22 25 17 23 37 18 24 3 18 25 1 18 26 127 19 27 136 19 28 145 19 29 125 20 30 123 20 31 146 20 32 45 21 33 10 21 34 33 21 35 43 22 36 11 22 37 32 22 38 41 23 39 12 23 40 31 23 41 51 24 42 13 24 43 30 24 44 135 25 45 144 25 46 134 25 47 44 26 48 5 26 49 18 26 50 42 27 51 6 27 52 16 27 53 40 28 54 7 28 55 14 28 56 50 29 57 8 29 58 24 29 59 6 30 60 15 14 61 11 10 62 27 31 63 14 31 64 6 31 65 32 32 66 15 32 67 41 32 68 5 33 69 17 11 70 10 7 71 28 34 72 16 34 73 5 34 74 33 35 75 17 35 76 43 35 77 4 36 78 19 8 79 9 37 80 29 38 81 18 38 82 4 38 83 34 39 84 19 39 85 45 39 86 128 40 87 145 40 88 137 40 89 8 41 90 23 3 91 13 16 92 133 42 93 143 42 94 132 42 95 126 43 96 146 43 97 136 43 98 30 44 99 23 44 100 48 44 101 39 45 102 22 45 103 8 45 104 7 46 105 25 17 106 12 13 107 28 47 108 100 48 109 80 49 110 27 50 111 101 51 112 59 52 113 26 53 114 102 54 115 55 55 116 39 56 117 97 57 118 103 58 119 40 59 120 59 52 121 102 54 122 32 60 123 91 61 124 88 62 125 26 63 126 24 63 127 7 63 128 42 64 129 80 49 130 101 51 131 33 65 132 92 66 133 87 67 134 44 68 135 81 69 136 100 48 137 34 70 138 93 71 139 86 72 140 131 73 141 142 73 142 130 73 143 48 74 144 3 74 145 35 74 146 122 75 147 147 75 148 123 75 149 31 76 150 25 76 151 51 76 152 73 77 153 96 77 154 72 77 155 60 78 156 107 79 157 61 80 158 65 81 159 55 81 160 102 81 161 64 82 162 103 82 163 97 82 164 58 83 165 102 83 166 59 83 167 75 84 168 91 84 169 74 84 170 67 85 171 101 85 172 80 85 173 77 86 174 92 86 175 76 86 176 69 87 177 100 87 178 81 87 179 79 88 180 93 88 181 78 88 182 124 89 183 121 89 184 147 89 185 113 90 186 144 91 187 138 92 188 71 93 189 95 93 190 70 93 191 63 94 192 98 94 193 103 94 194 54 95 195 97 95 196 55 95 197 66 96 198 59 96 199 101 96 200 68 97 201 80 97 202 100 97 203 118 98 204 137 99 205 145 100 206 72 101 207 90 101 208 71 101 209 74 102 210 89 102 211 73 102 212 76 103 213 88 103 214 75 103 215 78 104 216 87 104 217 77 104 218 112 105 219 143 106 220 139 107 221 116 108 222 136 109 223 146 110 224 70 111 225 85 111 226 60 111 227 62 112 228 84 112 229 98 112 230 51 113 231 90 114 232 96 115 233 41 116 234 89 117 235 91 61 236 43 118 237 88 62 238 92 66 239 45 119 240 87 67 241 93 71 242 111 120 243 142 121 244 140 122 245 114 123 246 123 124 247 147 125 248 35 126 249 84 126 250 85 126 251 48 127 252 85 128 253 95 129 254 37 130 255 98 131 256 84 132 257 31 133 258 96 115 259 89 117 260 50 134 261 55 55 262 97 57 263 49 135 264 103 58 265 98 131 266 30 136 267 95 129 268 90 114 269 60 78 270 61 80 271 62 137 272 2 138 273 147 125 274 121 139 275 0 140 276 146 110 277 123 124 278 108 141 279 145 100 280 136 109 281 78 142 282 77 143 283 68 144 284 77 143 285 76 145 286 67 146 287 68 144 288 77 143 289 67 146 290 79 147 291 78 142 292 68 144 293 76 145 294 75 148 295 58 149 296 75 148 297 74 150 298 58 149 299 74 150 300 73 151 301 54 152 302 73 151 303 72 153 304 54 152 305 71 154 306 70 155 307 62 137 308 70 155 309 60 78 310 62 137 311 72 153 312 71 154 313 63 156 314 113 157 315 21 157 316 119 157 317 66 158 318 67 146 319 76 145 320 68 144 321 69 159 322 79 147 323 71 154 324 62 137 325 63 156 326 58 149 327 66 158 328 76 145 329 54 152 330 65 160 331 74 150 332 65 160 333 58 149 334 74 150 335 63 156 336 64 161 337 72 153 338 64 161 339 54 152 340 72 153 341 109 162 342 36 162 343 20 162 344 22 1 345 1 163 346 3 2 347 49 164 348 37 164 349 1 164 350 36 165 351 57 166 352 21 167 353 18 6 354 5 33 355 10 7 356 16 9 357 6 30 358 11 10 359 14 12 360 7 46 361 12 13 362 24 15 363 8 41 364 13 16 365 37 168 366 35 168 367 3 168 368 20 169 369 21 167 370 82 170 371 112 171 372 38 171 373 117 171 374 45 172 375 19 172 376 10 172 377 43 173 378 17 173 379 11 173 380 41 174 381 15 174 382 12 174 383 51 175 384 25 175 385 13 175 386 108 176 387 46 176 388 99 176 389 44 177 390 28 177 391 5 177 392 42 178 393 27 178 394 6 178 395 40 179 396 26 179 397 7 179 398 50 180 399 39 180 400 8 180 401 6 30 402 14 12 403 15 14 404 27 181 405 40 181 406 14 181 407 32 182 408 11 182 409 15 182 410 5 33 411 16 9 412 17 11 413 28 183 414 42 183 415 16 183 416 33 184 417 10 184 418 17 184 419 4 36 420 18 6 421 19 8 422 29 185 423 44 185 424 18 185 425 34 186 426 9 186 427 19 186 428 99 187 429 38 188 430 57 166 431 8 41 432 22 1 433 23 3 434 111 189 435 47 189 436 115 189 437 0 190 438 52 190 439 94 190 440 30 191 441 13 191 442 23 191 443 39 192 444 49 192 445 22 192 446 7 46 447 24 15 448 25 17 449 28 47 450 44 68 451 100 48 452 27 50 453 42 64 454 101 51 455 26 53 456 40 59 457 102 54 458 39 56 459 50 134 460 97 57 461 40 59 462 27 50 463 59 52 464 32 60 465 41 116 466 91 61 467 26 193 468 50 193 469 24 193 470 42 64 471 28 47 472 80 49 473 33 65 474 43 118 475 92 66 476 44 68 477 29 194 478 81 69 479 34 70 480 45 119 481 93 71 482 94 195 483 47 196 484 56 197 485 48 198 486 23 198 487 3 198 488 114 199 489 83 199 490 52 199 491 31 200 492 12 200 493 25 200 494 73 201 495 89 201 496 96 201 497 85 202 498 106 202 499 60 202 500 65 203 501 54 203 502 55 203 503 64 204 504 63 204 505 103 204 506 58 205 507 65 205 508 102 205 509 75 206 510 88 206 511 91 206 512 67 207 513 66 207 514 101 207 515 77 208 516 87 208 517 92 208 518 69 209 519 68 209 520 100 209 521 79 210 522 86 210 523 93 210 524 116 211 525 94 211 526 46 211 527 118 212 528 99 212 529 36 212 530 71 213 531 90 213 532 95 213 533 63 214 534 62 214 535 98 214 536 54 215 537 64 215 538 97 215 539 66 216 540 58 216 541 59 216 542 68 217 543 67 217 544 80 217 545 115 218 546 53 218 547 110 218 548 72 219 549 96 219 550 90 219 551 74 220 552 91 220 553 89 220 554 76 221 555 92 221 556 88 221 557 78 222 558 93 222 559 87 222 560 117 223 561 56 223 562 111 223 563 119 224 564 57 224 565 112 224 566 70 225 567 95 225 568 85 225 569 62 226 570 61 226 571 84 226 572 51 113 573 30 136 574 90 114 575 41 116 576 31 133 577 89 117 578 43 118 579 32 60 580 88 62 581 45 119 582 33 65 583 87 67 584 52 227 585 53 228 586 47 196 587 46 229 588 56 197 589 38 188 590 35 230 591 37 230 592 84 230 593 48 127 594 35 231 595 85 128 596 37 130 597 49 135 598 98 131 599 31 133 600 51 113 601 96 115 602 50 134 603 26 53 604 55 55 605 49 135 606 39 56 607 103 58 608 30 136 609 48 127 610 95 129 611 104 232 612 106 232 613 105 232 614 104 233 615 107 233 616 106 233 617 85 234 618 104 234 619 105 234 620 84 235 621 107 235 622 104 235 623 134 236 624 139 236 625 133 236 626 115 237 627 141 238 628 142 121 629 117 239 630 140 122 631 143 106 632 119 240 633 139 107 634 144 91 635 134 241 636 133 242 637 127 243 638 133 242 639 132 244 640 126 245 641 127 243 642 133 242 643 126 245 644 135 246 645 134 241 646 127 243 647 132 244 648 131 247 649 122 248 650 131 247 651 130 249 652 122 248 653 130 249 654 129 250 655 120 251 656 125 252 657 126 245 658 132 244 659 127 243 660 128 253 661 135 246 662 122 248 663 125 252 664 132 244 665 120 251 666 124 254 667 130 249 668 124 254 669 122 248 670 130 249 671 36 165 672 99 187 673 57 166 674 46 229 675 94 195 676 56 197 677 52 227 678 83 255 679 53 228 680 119 256 681 21 256 682 57 256 683 117 257 684 38 257 685 56 257 686 115 258 687 47 258 688 53 258 689 118 259 690 108 259 691 99 259 692 116 260 693 0 260 694 94 260 695 114 261 696 2 261 697 83 261 698 94 195 699 52 227 700 47 196 701 0 262 702 114 262 703 52 262 704 111 263 705 56 263 706 47 263 707 99 187 708 46 229 709 38 188 710 108 264 711 116 264 712 46 264 713 112 265 714 57 265 715 38 265 716 20 169 717 36 165 718 21 167 719 109 266 720 118 266 721 36 266 722 113 267 723 82 267 724 21 267 725 108 141 726 118 98 727 145 100 728 0 140 729 116 108 730 146 110 731 2 138 732 114 123 733 147 125 734 114 123 735 0 140 736 123 124 737 111 120 738 115 237 739 142 121 740 116 108 741 108 141 742 136 109 743 112 105 744 117 239 745 143 106 746 118 98 747 109 268 748 137 99 749 113 90 750 119 240 751 144 91 752 124 269 753 120 269 754 121 269 755 122 270 756 124 270 757 147 270 758 131 271 759 140 271 760 142 271 761 126 272 762 125 272 763 146 272 764 133 273 765 139 273 766 143 273 767 128 274 768 127 274 769 145 274 770 135 275 771 138 275 772 144 275 773 125 276 774 122 276 775 123 276 776 127 277 777 126 277 778 136 277 779 130 278 780 142 278 781 141 278 782 132 279 783 143 279 784 140 279 785 134 280 786 144 280 787 139 280 788 115 237 789 110 281 790 141 238 791 117 239 792 111 120 793 140 122 794 119 240 795 112 105 796 139 107 797 110 282 798 9 282 799 34 282 800 9 37 801 83 255 802 4 36 803 4 283 804 2 284 805 29 284 806 79 147 807 120 251 808 129 250 809 81 285 810 120 285 811 69 286 812 29 194 813 121 139 814 81 69 815 86 287 816 129 287 817 141 287 818 86 72 819 110 281 820 34 70 821 109 288 822 82 288 823 113 288 824 128 289 825 138 290 826 135 291 827 60 78 828 106 292 829 107 79 830 85 293 831 105 293 832 106 293 833 85 294 834 84 294 835 104 294 836 84 295 837 61 295 838 107 295 839 110 296 840 53 296 841 9 296 842 9 37 843 53 228 844 83 255 845 4 297 846 83 298 847 2 298 848 79 147 849 69 159 850 120 251 851 81 299 852 121 299 853 120 299 854 29 194 855 2 138 856 121 139 857 86 300 858 79 301 859 129 300 860 86 72 861 141 238 862 110 281 863 109 302 864 20 303 865 82 302 866 128 304 867 137 305 868 138 305 869</p>
        </triangles>
      </mesh>
    </geometry>
  </library_geometries>
  <library_visual_scenes>
    <visual_scene id="Scene" name="Scene">
      <node id="Crest-_E_-_Transversal" name="Crest- E - Transversal" type="NODE">
        <matrix sid="transform">0.05214181 -0.9646118 0.258467 0 0.9986397 0.05036511 -0.01349532 0 3.25981e-8 0.258819 0.9659258 0 0 0 0 1</matrix>
        <instance_geometry url="#Plano_002-mesh" name="Crest- E - Transversal">
          <bind_material>
            <technique_common>
              <instance_material symbol="Render_Crest_003-material" target="#Render_Crest_003-material">
                <bind_vertex_input semantic="Plano_108-mesh-map-0" input_semantic="TEXCOORD" input_set="0"/>
              </instance_material>
            </technique_common>
          </bind_material>
        </instance_geometry>
      </node>
    </visual_scene>
  </library_visual_scenes>
  <scene>
    <instance_visual_scene url="#Scene"/>
  </scene>
</COLLADA>