<?xml version="1.0" encoding="utf-8"?>
<COLLADA xmlns="http://www.collada.org/2005/11/COLLADASchema" version="1.4.1" xmlns:xsi="http://www.w3.org/2001/XMLSchema-instance">
  <asset>
    <contributor>
      <author>Blender User</author>
      <authoring_tool>Blender 4.3.1 commit date:2024-12-10, commit time:07:46, hash:33d812126174</authoring_tool>
    </contributor>
    <created>2026-04-07T10:36:55</created>
    <modified>2026-04-07T10:36:55</modified>
    <unit name="inch" meter="0.0254"/>
    <up_axis>Z_UP</up_axis>
  </asset>
  <library_effects>
    <effect id="Material_001-effect">
      <profile_COMMON>
        <newparam sid="props_helmets_anc_greek_png-surface">
          <surface type="2D">
            <init_from>props_helmets_anc_greek_png</init_from>
          </surface>
        </newparam>
        <newparam sid="props_helmets_anc_greek_png-sampler">
          <sampler2D>
            <source>props_helmets_anc_greek_png-surface</source>
          </sampler2D>
        </newparam>
        <technique sid="common">
          <lambert>
            <emission>
              <color sid="emission">0 0 0 1</color>
            </emission>
            <diffuse>
              <texture texture="props_helmets_anc_greek_png-sampler" texcoord="UVMap"/>
            </diffuse>
            <index_of_refraction>
              <float sid="ior">1.5</float>
            </index_of_refraction>
          </lambert>
        </technique>
      </profile_COMMON>
    </effect>
  </library_effects>
  <library_images>
    <image id="props_helmets_anc_greek_png" name="props_helmets_anc_greek_png">
      <init_from>/home/welton/Downloads/props_helmets_anc_greek.png</init_from>
    </image>
  </library_images>
  <library_materials>
    <material id="Material_001-material" name="Material.001">
      <instance_effect url="#Material_001-effect"/>
    </material>
  </library_materials>
  <library_geometries>
    <geometry id="Cylinder-mesh" name="Cylinder">
      <mesh>
        <source id="Cylinder-mesh-positions">
          <float_array id="Cylinder-mesh-positions-array" count="360">-0.02216601 0.1917233 0.2113649 0.02216601 0.1917233 0.2113649 -0.02216601 0.1771292 0.1379956 0.02216601 0.1771292 0.1379956 -0.02216601 0.1355689 0.075796 0.02216601 0.1355689 0.075796 -0.02216601 0.07336932 0.03423559 0.02216601 0.07336932 0.03423559 -0.02216601 -0.07336932 0.03423565 0.02216601 -0.07336932 0.03423565 -0.02216601 -0.1355689 0.075796 0.02216601 -0.1355689 0.075796 -0.02216601 -0.1771293 0.1379955 0.02216601 -0.1771293 0.1379955 -0.02216601 -0.1917233 0.2113649 0.02216601 -0.1917233 0.2113649 -0.02216601 -0.1771292 0.2847343 0.02216601 -0.1771292 0.2847343 -0.02216601 -0.1355689 0.3469339 0.02216601 -0.1355689 0.3469339 -0.02216601 -0.07336932 0.3884943 0.02216601 -0.07336932 0.3884943 -0.02216601 0 0.4030883 0.02216601 0 0.4030883 -0.02216601 0.07336932 0.3884941 0.02216601 0.07336932 0.3884941 -0.02216601 0.1355689 0.3469339 0.02216601 0.1355689 0.3469339 -0.02216601 0.1771293 0.2847343 0.02216601 0.1771293 0.2847343 -0.0333662 0.2444021 0.2147668 -0.0333662 0.2257981 0.1212382 0.0333662 0.2257981 0.1212382 0.0333662 0.2444021 0.2147668 -0.0333662 0.1728184 0.04194843 0.0333662 0.1728184 0.04194843 -0.03336614 0.09352862 -0.01103127 0.0333662 0.09352862 -0.01103127 -0.03336614 -0.09352862 -0.01103127 0.0333662 -0.09352862 -0.01103127 -0.0333662 -0.1728184 0.04194843 0.0333662 -0.1728184 0.04194843 -0.0333662 -0.2257981 0.1212382 0.0333662 -0.2257981 0.1212382 -0.0333662 -0.2444021 0.2147668 0.0333662 -0.2444021 0.2147668 -0.0333662 -0.2257981 0.3082956 0.0333662 -0.2257981 0.3082956 -0.0333662 -0.1728184 0.3875853 0.03336614 -0.1728184 0.3875853 -0.0333662 -0.09352862 0.440565 0.03336614 -0.09352862 0.440565 -0.0333662 0 0.459169 0.03336614 0 0.459169 -0.0333662 0.09352862 0.440565 0.03336614 0.09352862 0.440565 -0.0333662 0.1728184 0.3875853 0.03336614 0.1728184 0.3875853 -0.0333662 0.2257981 0.3082956 0.0333662 0.2257981 0.3082956 -0.0333662 0.2444021 0.2147668 -0.0333662 0.2257981 0.1212382 0.0333662 0.2257981 0.1212382 0.0333662 0.2444021 0.2147668 -0.0333662 0.1728184 0.04194843 0.0333662 0.1728184 0.04194843 -0.03336614 0.09352862 -0.01103127 0.0333662 0.09352862 -0.01103127 -0.03336614 -0.09352862 -0.01103127 0.0333662 -0.09352862 -0.01103127 -0.0333662 -0.1728184 0.04194843 0.0333662 -0.1728184 0.04194843 -0.0333662 -0.2257981 0.1212382 0.0333662 -0.2257981 0.1212382 -0.0333662 -0.2444021 0.2147668 0.0333662 -0.2444021 0.2147668 -0.0333662 -0.2257981 0.3082956 0.0333662 -0.2257981 0.3082956 -0.0333662 -0.1728184 0.3875853 0.03336614 -0.1728184 0.3875853 -0.0333662 -0.09352862 0.440565 0.03336614 -0.09352862 0.440565 -0.0333662 0 0.459169 0.03336614 0 0.459169 -0.0333662 0.09352862 0.440565 0.03336614 0.09352862 0.440565 -0.0333662 0.1728184 0.3875853 0.03336614 0.1728184 0.3875853 -0.0333662 0.2257981 0.3082956 0.0333662 0.2257981 0.3082956 -0.01819789 0.4183915 0.1934919 -0.01819789 0.3865433 0.0333805 0.01819795 0.3865433 0.0333805 0.01819789 0.4183915 0.1934919 -0.01819789 0.2958475 -0.1023554 0.01819795 0.2958475 -0.1023554 -0.01543635 0.2782194 -0.04551619 0.01543635 0.2782194 -0.04551619 0.01543635 -0.2782194 -0.04551619 -0.01543635 -0.2782194 -0.04551619 -0.01819789 -0.2958475 -0.1023554 0.01819795 -0.2958475 -0.1023554 -0.01819789 -0.3865433 0.0333805 0.01819795 -0.3865433 0.0333805 -0.01819789 -0.4183915 0.1934919 0.01819789 -0.4183915 0.1934919 -0.01819795 -0.3865433 0.3536035 0.01819789 -0.3865433 0.3536035 -0.01819795 -0.2958475 0.4893395 0.01819789 -0.2958475 0.4893395 -0.01819795 -0.1601115 0.5800355 0.01819789 -0.1601115 0.5800355 -0.01819795 0 0.6118834 0.01819789 0 0.6118834 -0.01819795 0.1601115 0.5800355 0.01819789 0.1601115 0.5800355 -0.01819795 0.2958475 0.4893395 0.01819789 0.2958475 0.4893395 -0.01819795 0.3865433 0.3536035 0.01819789 0.3865433 0.3536035</float_array>
          <technique_common>
            <accessor source="#Cylinder-mesh-positions-array" count="120" stride="3">
              <param name="X" type="float"/>
              <param name="Y" type="float"/>
              <param name="Z" type="float"/>
            </accessor>
          </technique_common>
        </source>
        <source id="Cylinder-mesh-normals">
          <float_array id="Cylinder-mesh-normals-array" count="360">0.731988 0.6813169 -0.001038074 -0.7335429 0.6275228 -0.2610174 -0.7319879 0.6813169 -0.001034498 0.7335429 0.6275215 -0.2610206 -0.7349259 0.478953 -0.4800917 0.7349259 0.4789505 -0.4800942 -0.736764 0.3756486 -0.5621984 -0.736764 -0.3756489 -0.5621983 0.7349259 -0.4789506 -0.4800941 -0.7349259 -0.478953 -0.4800916 0.7335429 -0.6275215 -0.2610206 -0.7335428 -0.6275228 -0.2610175 0.7319879 -0.6813169 -0.001038193 -0.7319878 -0.6813169 -0.001034617 0.7305097 -0.6312682 0.2604919 -0.7305098 -0.6312668 0.2604952 0.7293122 -0.4842635 0.4833142 -0.7293123 -0.484261 0.4833167 0.7285348 -0.2624678 0.6327304 -0.728544 -0.2624641 0.6327213 -0.7282657 -1.83198e-6 0.6852949 0.7282656 1.80989e-6 0.685295 -0.7285394 0.2624642 0.6327266 0.7285394 0.2624676 0.6327253 -0.7293123 0.484261 0.4833165 0.7293123 0.4842635 0.483314 -0.7305098 0.6312668 0.2604952 0.7305097 0.6312682 0.2604919 -0.6703192 -0.7420716 0.001362085 -0.6681514 -0.6868848 0.2859425 0.6703192 -0.7420717 0.001361489 -0.66624 -0.5265741 0.5280568 0.6681513 -0.6868851 0.285942 -0.6538063 -0.4203791 0.6291414 0.66624 -0.5265747 0.5280563 0.7367735 0.375643 -0.5621898 -0.6662401 0.5265737 0.5280572 0.66624 0.5265743 0.5280567 0.7367733 -0.3756432 -0.5621897 0.6538043 0.4203796 0.6291431 -0.6681514 0.6868847 0.2859426 0.6681514 0.686885 0.285942 -0.6703192 0.7420717 0.001361966 0.6703192 0.7420718 0.00136137 -0.6723961 0.6843075 -0.2821468 0.672398 0.6843059 -0.2821459 -0.6740925 0.52293 -0.5216739 0.6740907 0.5229312 -0.521675 -0.6751899 0.2827175 -0.6813145 0.675192 0.2827168 -0.6813127 -0.6755703 -9.14732e-7 -0.7372957 0.6755703 -1.50028e-7 -0.7372956 -0.6751908 -0.2827177 -0.6813136 -0.6740925 -0.5229295 -0.5216743 0.6751908 -0.282717 -0.6813138 -0.6723961 -0.6843075 -0.2821467 0.6740908 -0.5229307 -0.5216754 0.6723981 -0.6843059 -0.2821459 -0.6538063 0.4203786 0.6291417 -0.7839625 -0.5731441 0.2385553 0.7853401 -0.6190633 0.001265764 -0.7853403 -0.6190633 0.001262724 -0.7922141 -0.4424934 0.4202337 0.7839626 -0.573143 0.238558 -0.5707045 -0.8030048 -0.1716972 0.7922142 -0.4424912 0.4202358 -0.5706911 0.8029994 -0.1717662 0.7922142 0.4424913 0.4202359 0.570709 0.8029968 -0.1717196 -0.7922142 0.4424934 0.4202338 0.7839626 0.573143 0.238558 -0.7839626 0.5731441 0.2385553 0.7853401 0.6190633 0.001265764 -0.7853401 0.6190633 0.001262724 0.7868276 0.5706853 -0.2349906 -0.7868276 0.5706842 -0.2349934 0.7881821 0.4359441 -0.4344212 -0.7881823 0.4359419 -0.4344233 0.7891355 0.2356231 -0.5672274 -0.7894817 1.52561e-6 -0.6137741 -0.7891429 0.2356194 -0.5672187 -0.7891392 -0.2356199 -0.5672236 0.7894817 -1.5072e-6 -0.6137742 -0.7881823 -0.4359418 -0.4344233 0.7891392 -0.2356228 -0.5672225 -0.7868276 -0.5706841 -0.2349933 0.7881821 -0.435944 -0.4344212 0.7868276 -0.5706853 -0.2349906 0.6365019 0.7712749 -7.04528e-4 -0.637813 0.711334 -0.2952942 -0.6365019 0.7712749 -7.09002e-4 0.6378128 0.7113358 -0.2952901 -0.5218486 -0.103199 -0.8467727 0.5218507 -0.1031347 -0.8467793 0.4771725 -0.6207317 -0.6220921 -0.4771724 0.6207317 -0.6220922 -0.5218507 0.1031348 -0.8467793 0.4771765 0.6207293 -0.6220915 0.5218484 0.1031991 -0.8467728 -0.6378127 -0.7113358 -0.29529 0.637813 -0.7113339 -0.2952941 -0.6365019 -0.7712749 -7.04628e-4 0.6365019 -0.7712749 -7.09097e-4 -0.6350487 -0.7139446 0.2949515 0.6350486 -0.7139464 0.2949475 -0.6336855 -0.5474324 0.54659 0.6336854 -0.5474355 0.5465869 -0.6326978 -0.2966644 0.7153207 0.6326979 -0.2966684 0.715319 -0.6323402 2.19952e-6 0.7746909 0.6323401 -2.19479e-6 0.7746909 -0.6326979 0.2966685 0.715319 0.6326978 0.2966644 0.7153207 -0.6336854 0.5474355 0.5465869 0.6336855 0.5474324 0.54659 -0.6350486 0.7139463 0.2949475 0.6350488 0.7139444 0.2949516 -0.4771764 -0.6207293 -0.6220916 0.5706956 -0.8029915 -0.1717888 0.6538042 -0.4203802 0.6291429</float_array>
          <technique_common>
            <accessor source="#Cylinder-mesh-normals-array" count="120" stride="3">
              <param name="X" type="float"/>
              <param name="Y" type="float"/>
              <param name="Z" type="float"/>
            </accessor>
          </technique_common>
        </source>
        <source id="Cylinder-mesh-map-0">
          <float_array id="Cylinder-mesh-map-0-array" count="1368">0.2968577 0.9263007 0.3111654 0.8673998 0.2968577 0.8673998 0.3111654 0.9263007 0.3232949 0.8673998 0.3111654 0.8673998 0.318971 0.9263007 0.3068414 0.8673998 0.318971 0.8673998 0.278226 0.8673998 0.2660965 0.9263007 0.2660965 0.8673998 0.3232949 0.8673998 0.3111654 0.9263007 0.3111654 0.8673998 0.3111654 0.8673998 0.2968577 0.9263007 0.2968577 0.8673998 0.2968577 0.8673998 0.2825499 0.9263007 0.2825499 0.8673998 0.2825499 0.8673998 0.2704204 0.9263007 0.2704204 0.8673998 0.2660965 0.8673998 0.278226 0.9263007 0.278226 0.8673998 0.278226 0.9263007 0.2925337 0.8673998 0.278226 0.8673998 0.2925337 0.9263007 0.3068414 0.8673998 0.2925337 0.8673998 0.3068414 0.9263007 0.318971 0.8673998 0.3068414 0.8673998 0.2704204 0.9263007 0.2825499 0.8673998 0.2704204 0.8673998 0.2825499 0.9263007 0.2968577 0.8673998 0.2825499 0.8673998 0.2254587 0.9411054 0.3226139 0.8714435 0.3045497 0.9411053 0.1841082 0.949677 0.08876484 0.8813143 0.187707 0.8813143 0.3045497 0.9411053 0.408087 0.8714435 0.3715999 0.9411053 0.1064922 0.949677 0.004885792 0.8813143 0.08876484 0.8813143 0.3374632 0.9411053 0.2921445 0.8714435 0.2704131 0.9411053 0.07419258 0.949677 0.1186661 0.8813143 0.03478699 0.8813143 0.04518097 0.9411053 0.09049963 0.8714435 0.005026519 0.8714435 0.3610239 0.949677 0.3165504 0.8813143 0.2952242 0.949677 0.3045497 0.9411053 0.408087 0.8714435 0.3226139 0.8714435 0.1064922 0.949677 0.004885792 0.8813143 0.04069244 0.949677 0.2254587 0.9411054 0.3226139 0.8714435 0.2217915 0.8714435 0.1841082 0.949677 0.08876484 0.8813143 0.1064922 0.949677 0.1463677 0.9411054 0.2217915 0.8714435 0.1209691 0.8714435 0.2617242 0.9496769 0.187707 0.8813143 0.1841082 0.949677 0.07931762 0.9411054 0.1209691 0.8714435 0.03549599 0.8714435 0.3275238 0.9496769 0.2866492 0.8813143 0.2617242 0.9496769 0.127528 0.9822031 0.1285077 0.8749986 0.07139647 0.9604717 0.1303625 0.9661169 0.1312333 0.8708364 0.1701809 0.9065245 0.1913221 0.9411054 0.09049963 0.8714435 0.1913221 0.8714435 0.2176082 0.9496769 0.3165504 0.8813143 0.2952242 0.9496769 0.1913221 0.9411054 0.2921445 0.8714435 0.2704131 0.9411054 0.2176082 0.9496769 0.1186661 0.8813143 0.2176082 0.8813143 0.1182268 0.8303458 0.1254073 0.9375503 0.169229 0.8973959 0.1086598 0.8710752 0.1095306 0.9663559 0.05877155 0.8903896 0.07931762 0.9411054 0.1209691 0.8714435 0.1463677 0.9411054 0.3275238 0.9496769 0.2866492 0.8813143 0.3705282 0.8813143 0.1463677 0.9411054 0.2217915 0.8714435 0.2254587 0.9411054 0.2617242 0.9496769 0.187707 0.8813143 0.2866492 0.8813143 0.08138537 0.8314349 0.04499977 0.9810648 0.08138537 0.9810648 0.2190228 0.8314349 0.1826371 0.9810649 0.2190228 0.9810648 0.2190228 0.8314349 0.1826371 0.9810649 0.1826371 0.8314349 0.1672249 0.8314349 0.2036104 0.9810648 0.2036104 0.8314349 0.1826371 0.8314349 0.1397174 0.9810649 0.1397174 0.8314349 0.1397174 0.8314349 0.09679764 0.9810649 0.09679764 0.8314349 0.1826371 0.8314349 0.1397174 0.9810649 0.1826371 0.9810649 0.1397174 0.8314349 0.09679764 0.9810649 0.1397174 0.9810649 0.06041204 0.831435 0.09679764 0.9810649 0.09679764 0.8314349 0.04499977 0.831435 0.08138537 0.9810649 0.04499977 0.9810649 0.1243051 0.831435 0.08138537 0.9810649 0.08138537 0.831435 0.1672248 0.831435 0.1243051 0.9810649 0.1243051 0.831435 0.2036104 0.831435 0.1672248 0.9810649 0.1672248 0.831435 0.06041204 0.831435 0.09679764 0.9810649 0.06041204 0.9810649 0.740082 0.2103026 0.8991442 0.2749153 0.7738058 0.3152078 0.7114923 0.1213682 0.8654204 0.1700102 0.740082 0.2103026 0.7502737 0.2420062 0.8470224 0.1127792 0.7216839 0.1530717 0.8177211 0.4518158 0.9716492 0.5004575 0.9430595 0.4115234 0.7114923 0.1213682 0.8654204 0.1700102 0.8368306 0.08107572 0.740082 0.2103026 0.8991442 0.2749153 0.8654204 0.1700102 0.7738058 0.3152078 0.9328679 0.3798204 0.8991442 0.2749153 0.8075296 0.4201129 0.9614574 0.4687543 0.9328679 0.3798204 0.8463107 0.54075 0.9430595 0.4115234 0.9716492 0.5004575 0.7839974 0.3469112 0.9430595 0.4115234 0.8177211 0.4518158 0.7502737 0.2420062 0.9093359 0.3066187 0.7839974 0.3469112 0.7216839 0.1530717 0.8756121 0.2017137 0.7502737 0.2420062 0.8075296 0.4201129 0.9614574 0.4687543 0.8361191 0.5090467 0.7738058 0.3152078 0.9328679 0.3798204 0.8075296 0.4201129 0.8991442 0.2749153 0.740082 0.2103026 0.7738058 0.3152078 0.8654204 0.1700102 0.7114923 0.1213682 0.740082 0.2103026 0.8470224 0.1127792 0.7502737 0.2420062 0.7216839 0.1530717 0.9430595 0.4115234 0.8463107 0.54075 0.8177211 0.4518158 0.8368306 0.08107572 0.740082 0.2103026 0.7114923 0.1213682 0.8654204 0.1700102 0.7738058 0.3152078 0.740082 0.2103026 0.8991442 0.2749153 0.8075296 0.4201129 0.7738058 0.3152078 0.9328679 0.3798204 0.8361191 0.5090467 0.8075296 0.4201129 0.9716492 0.5004575 0.8177211 0.4518158 0.8463107 0.54075 0.9430595 0.4115234 0.7839974 0.3469112 0.8177211 0.4518158 0.9093359 0.3066187 0.7502737 0.2420062 0.7839974 0.3469112 0.8756121 0.2017137 0.7216839 0.1530717 0.7502737 0.2420062 0.9614574 0.4687543 0.8075296 0.4201129 0.8361191 0.5090467 0.9328679 0.3798204 0.7738058 0.3152078 0.8075296 0.4201129 0.8463107 0.54075 0.8177211 0.4518158 0.8177211 0.4518158 0.740082 0.2103026 0.7738058 0.3152078 0.740082 0.2103026 0.9716492 0.5004575 0.9430595 0.4115234 0.9716492 0.5004575 0.7114923 0.1213682 0.740082 0.2103026 0.740082 0.2103026 0.7738058 0.3152078 0.8075296 0.4201129 0.7738058 0.3152078 0.8654204 0.1700102 0.8991442 0.2749153 0.8991442 0.2749153 0.8368306 0.08107572 0.8654204 0.1700102 0.8368306 0.08107572 0.8991442 0.2749153 0.9328679 0.3798204 0.9328679 0.3798204 0.8177211 0.4518158 0.7839974 0.3469112 0.7839974 0.3469112 0.9430595 0.4115234 0.9093359 0.3066187 0.9430595 0.4115234 0.740082 0.2103026 0.7738058 0.3152078 0.7738058 0.3152078 0.7114923 0.1213682 0.740082 0.2103026 0.7114923 0.1213682 0.8654204 0.1700102 0.8991442 0.2749153 0.8654204 0.1700102 0.8368306 0.08107572 0.8654204 0.1700102 0.8654204 0.1700102 0.7502737 0.2420062 0.7839974 0.3469112 0.7502737 0.2420062 0.8756121 0.2017137 0.9093359 0.3066187 0.9093359 0.3066187 0.7738058 0.3152078 0.8075296 0.4201129 0.8075296 0.4201129 0.7216839 0.1530717 0.7502737 0.2420062 0.7502737 0.2420062 0.8991442 0.2749153 0.9328679 0.3798204 0.8991442 0.2749153 0.8470224 0.1127792 0.8756121 0.2017137 0.8470224 0.1127792 0.7216839 0.1530717 0.7502737 0.2420062 0.7216839 0.1530717 0.7502737 0.2420062 0.8756121 0.2017137 0.8756121 0.2017137 0.8470224 0.1127792 0.8756121 0.2017137 0.8756121 0.2017137 0.8075296 0.4201129 0.8361191 0.5090467 0.8361191 0.5090467 0.9430595 0.4115234 0.8177211 0.4518158 0.8177211 0.4518158 0.9328679 0.3798204 0.9614574 0.4687543 0.9328679 0.3798204 0.8463107 0.54075 0.8177211 0.4518158 0.8463107 0.54075 0.8075296 0.4201129 0.8361191 0.5090467 0.8075296 0.4201129 0.9716492 0.5004575 0.9430595 0.4115234 0.9430595 0.4115234 0.9328679 0.3798204 0.9614574 0.4687543 0.9614574 0.4687543 0.2968577 0.9263007 0.3111654 0.9263007 0.3111654 0.8673998 0.3111654 0.9263007 0.3232949 0.9263007 0.3232949 0.8673998 0.318971 0.9263007 0.3068414 0.9263007 0.3068414 0.8673998 0.278226 0.8673998 0.278226 0.9263007 0.2660965 0.9263007 0.3232949 0.8673998 0.3232949 0.9263007 0.3111654 0.9263007 0.3111654 0.8673998 0.3111654 0.9263007 0.2968577 0.9263007 0.2968577 0.8673998 0.2968577 0.9263007 0.2825499 0.9263007 0.2825499 0.8673998 0.2825499 0.9263007 0.2704204 0.9263007 0.2660965 0.8673998 0.2660965 0.9263007 0.278226 0.9263007 0.278226 0.9263007 0.2925337 0.9263007 0.2925337 0.8673998 0.2925337 0.9263007 0.3068414 0.9263007 0.3068414 0.8673998 0.3068414 0.9263007 0.318971 0.9263007 0.318971 0.8673998 0.2704204 0.9263007 0.2825499 0.9263007 0.2825499 0.8673998 0.2825499 0.9263007 0.2968577 0.9263007 0.2968577 0.8673998 0.2254587 0.9411054 0.2217915 0.8714435 0.3226139 0.8714435 0.1841082 0.949677 0.1064922 0.949677 0.08876484 0.8813143 0.3045497 0.9411053 0.3226139 0.8714435 0.408087 0.8714435 0.1064922 0.949677 0.04069244 0.949677 0.004885792 0.8813143 0.3374632 0.9411053 0.3776176 0.8714435 0.2921445 0.8714435 0.07419258 0.949677 0.1399922 0.949677 0.1186661 0.8813143 0.04518097 0.9411053 0.1122311 0.9411053 0.09049963 0.8714435 0.3610239 0.949677 0.4004295 0.8813143 0.3165504 0.8813143 0.3045497 0.9411053 0.3715999 0.9411053 0.408087 0.8714435 0.1064922 0.949677 0.08876484 0.8813143 0.004885792 0.8813143 0.2254587 0.9411054 0.3045497 0.9411053 0.3226139 0.8714435 0.1841082 0.949677 0.187707 0.8813143 0.08876484 0.8813143 0.1463677 0.9411054 0.2254587 0.9411054 0.2217915 0.8714435 0.2617242 0.9496769 0.2866492 0.8813143 0.187707 0.8813143 0.07931762 0.9411054 0.1463677 0.9411054 0.1209691 0.8714435 0.3275238 0.9496769 0.3705282 0.8813143 0.2866492 0.8813143 0.127528 0.9822031 0.1723294 0.915153 0.1285077 0.8749986 0.1303625 0.9661169 0.08047431 0.9468026 0.1312333 0.8708364 0.1913221 0.9411054 0.1122311 0.9411054 0.09049963 0.8714435 0.2176082 0.9496769 0.2176082 0.8813143 0.3165504 0.8813143 0.1913221 0.9411054 0.1913221 0.8714435 0.2921445 0.8714435 0.2176082 0.9496769 0.1399922 0.9496769 0.1186661 0.8813143 0.1182268 0.8303458 0.06829607 0.8520773 0.1254073 0.9375503 0.1086598 0.8710752 0.1484782 0.9306676 0.1095306 0.9663559 0.07931762 0.9411054 0.03549599 0.8714435 0.1209691 0.8714435 0.3275238 0.9496769 0.2617242 0.9496769 0.2866492 0.8813143 0.1463677 0.9411054 0.1209691 0.8714435 0.2217915 0.8714435 0.2617242 0.9496769 0.1841082 0.949677 0.187707 0.8813143 0.08138537 0.8314349 0.04499977 0.8314349 0.04499977 0.9810648 0.2190228 0.8314349 0.1826371 0.8314349 0.1826371 0.9810649 0.2190228 0.8314349 0.2190228 0.9810648 0.1826371 0.9810649 0.1672249 0.8314349 0.1672249 0.9810648 0.2036104 0.9810648 0.1826371 0.8314349 0.1826371 0.9810649 0.1397174 0.9810649 0.1397174 0.8314349 0.1397174 0.9810649 0.09679764 0.9810649 0.1826371 0.8314349 0.1397174 0.8314349 0.1397174 0.9810649 0.1397174 0.8314349 0.09679764 0.8314349 0.09679764 0.9810649 0.06041204 0.831435 0.06041204 0.9810649 0.09679764 0.9810649 0.04499977 0.831435 0.08138537 0.831435 0.08138537 0.9810649 0.1243051 0.831435 0.1243051 0.9810649 0.08138537 0.9810649 0.1672248 0.831435 0.1672248 0.9810649 0.1243051 0.9810649 0.2036104 0.831435 0.2036104 0.9810649 0.1672248 0.9810649 0.06041204 0.831435 0.09679764 0.8314349 0.09679764 0.9810649 0.740082 0.2103026 0.8654204 0.1700102 0.8991442 0.2749153 0.7114923 0.1213682 0.8368306 0.08107572 0.8654204 0.1700102 0.7502737 0.2420062 0.8756121 0.2017137 0.8470224 0.1127792 0.8177211 0.4518158 0.8463107 0.54075 0.9716492 0.5004575 0.7114923 0.1213682 0.740082 0.2103026 0.8654204 0.1700102 0.740082 0.2103026 0.7738058 0.3152078 0.8991442 0.2749153 0.7738058 0.3152078 0.8075296 0.4201129 0.9328679 0.3798204 0.8075296 0.4201129 0.8361191 0.5090467 0.9614574 0.4687543 0.8463107 0.54075 0.8177211 0.4518158 0.9430595 0.4115234 0.7839974 0.3469112 0.9093359 0.3066187 0.9430595 0.4115234 0.7502737 0.2420062 0.8756121 0.2017137 0.9093359 0.3066187 0.7216839 0.1530717 0.8470224 0.1127792 0.8756121 0.2017137 0.8075296 0.4201129 0.9328679 0.3798204 0.9614574 0.4687543 0.7738058 0.3152078 0.8991442 0.2749153 0.9328679 0.3798204 0.8991442 0.2749153 0.8654204 0.1700102 0.740082 0.2103026 0.8654204 0.1700102 0.8368306 0.08107572 0.7114923 0.1213682 0.8470224 0.1127792 0.8756121 0.2017137 0.7502737 0.2420062 0.9430595 0.4115234 0.9716492 0.5004575 0.8463107 0.54075 0.8368306 0.08107572 0.8654204 0.1700102 0.740082 0.2103026 0.8654204 0.1700102 0.8991442 0.2749153 0.7738058 0.3152078 0.8991442 0.2749153 0.9328679 0.3798204 0.8075296 0.4201129 0.9328679 0.3798204 0.9614574 0.4687543 0.8361191 0.5090467 0.9716492 0.5004575 0.9430595 0.4115234 0.8177211 0.4518158 0.9430595 0.4115234 0.9093359 0.3066187 0.7839974 0.3469112 0.9093359 0.3066187 0.8756121 0.2017137 0.7502737 0.2420062 0.8756121 0.2017137 0.8470224 0.1127792 0.7216839 0.1530717 0.9614574 0.4687543 0.9328679 0.3798204 0.8075296 0.4201129 0.9328679 0.3798204 0.8991442 0.2749153 0.7738058 0.3152078 0.8463107 0.54075 0.8463107 0.54075 0.8177211 0.4518158 0.740082 0.2103026 0.7738058 0.3152078 0.7738058 0.3152078 0.9716492 0.5004575 0.9430595 0.4115234 0.9430595 0.4115234 0.7114923 0.1213682 0.7114923 0.1213682 0.740082 0.2103026 0.7738058 0.3152078 0.8075296 0.4201129 0.8075296 0.4201129 0.8654204 0.1700102 0.8654204 0.1700102 0.8991442 0.2749153 0.8368306 0.08107572 0.8654204 0.1700102 0.8654204 0.1700102 0.8991442 0.2749153 0.8991442 0.2749153 0.9328679 0.3798204 0.8177211 0.4518158 0.8177211 0.4518158 0.7839974 0.3469112 0.9430595 0.4115234 0.9093359 0.3066187 0.9093359 0.3066187 0.740082 0.2103026 0.740082 0.2103026 0.7738058 0.3152078 0.7114923 0.1213682 0.740082 0.2103026 0.740082 0.2103026 0.8654204 0.1700102 0.8991442 0.2749153 0.8991442 0.2749153 0.8368306 0.08107572 0.8368306 0.08107572 0.8654204 0.1700102 0.7502737 0.2420062 0.7839974 0.3469112 0.7839974 0.3469112 0.8756121 0.2017137 0.8756121 0.2017137 0.9093359 0.3066187 0.7738058 0.3152078 0.7738058 0.3152078 0.8075296 0.4201129 0.7216839 0.1530717 0.7216839 0.1530717 0.7502737 0.2420062 0.8991442 0.2749153 0.9328679 0.3798204 0.9328679 0.3798204 0.8470224 0.1127792 0.8756121 0.2017137 0.8756121 0.2017137 0.7216839 0.1530717 0.7502737 0.2420062 0.7502737 0.2420062 0.7502737 0.2420062 0.7502737 0.2420062 0.8756121 0.2017137 0.8470224 0.1127792 0.8470224 0.1127792 0.8756121 0.2017137 0.8075296 0.4201129 0.8075296 0.4201129 0.8361191 0.5090467 0.9430595 0.4115234 0.9430595 0.4115234 0.8177211 0.4518158 0.9328679 0.3798204 0.9614574 0.4687543 0.9614574 0.4687543 0.8463107 0.54075 0.8177211 0.4518158 0.8177211 0.4518158 0.8075296 0.4201129 0.8361191 0.5090467 0.8361191 0.5090467 0.9716492 0.5004575 0.9716492 0.5004575 0.9430595 0.4115234 0.9328679 0.3798204 0.9328679 0.3798204 0.9614574 0.4687543</float_array>
          <technique_common>
            <accessor source="#Cylinder-mesh-map-0-array" count="684" stride="2">
              <param name="S" type="float"/>
              <param name="T" type="float"/>
            </accessor>
          </technique_common>
        </source>
        <vertices id="Cylinder-mesh-vertices">
          <input semantic="POSITION" source="#Cylinder-mesh-positions"/>
        </vertices>
        <triangles material="Material_001-material" count="228">
          <input semantic="VERTEX" source="#Cylinder-mesh-vertices" offset="0"/>
          <input semantic="NORMAL" source="#Cylinder-mesh-normals" offset="1"/>
          <input semantic="TEXCOORD" source="#Cylinder-mesh-map-0" offset="2" set="0"/>
          <p>33 0 0 31 1 1 30 2 2 32 3 3 34 4 4 31 1 5 35 5 6 36 6 7 34 4 8 38 7 9 41 8 10 40 9 11 40 9 12 43 10 13 42 11 14 42 11 15 45 12 16 44 13 17 44 13 18 47 14 19 46 15 20 46 15 21 49 16 22 48 17 23 48 17 24 51 18 25 50 19 26 51 18 27 52 20 28 50 19 29 53 21 30 54 22 31 52 20 32 55 23 33 56 24 34 54 22 35 57 25 36 58 26 37 56 24 38 59 27 39 30 2 40 58 26 41 0 28 42 31 1 43 2 29 44 1 30 45 32 3 46 33 0 47 2 29 48 34 4 49 4 31 50 3 32 51 35 5 52 32 3 53 4 31 54 36 6 55 6 33 56 5 34 57 37 35 58 35 5 59 10 36 60 38 7 61 40 9 62 11 37 63 39 38 64 9 39 65 12 40 66 40 9 67 42 11 68 13 41 69 41 8 70 11 37 71 14 42 72 42 11 73 44 13 74 15 43 75 43 10 76 13 41 77 16 44 78 44 13 79 46 15 80 17 45 81 45 12 82 15 43 83 18 46 84 46 15 85 48 17 86 19 47 87 47 14 88 17 45 89 20 48 90 48 17 91 50 19 92 21 49 93 49 16 94 19 47 95 22 50 96 50 19 97 52 20 98 23 51 99 51 18 100 21 49 101 22 50 102 54 22 103 24 52 104 23 51 105 55 23 106 53 21 107 24 52 108 56 24 109 26 53 110 25 54 111 57 25 112 55 23 113 26 53 114 58 26 115 28 55 116 27 56 117 59 27 118 57 25 119 28 55 120 30 2 121 0 28 122 29 57 123 33 0 124 59 27 125 8 58 126 11 37 127 9 39 128 10 36 129 13 41 130 11 37 131 4 31 132 3 32 133 2 29 134 6 33 135 5 34 136 4 31 137 2 29 138 1 30 139 0 28 140 0 28 141 29 57 142 28 55 143 12 40 144 15 43 145 13 41 146 14 42 147 17 45 148 15 43 149 18 46 150 17 45 151 16 44 152 18 46 153 21 49 154 19 47 155 22 50 156 21 49 157 20 48 158 24 52 159 23 51 160 22 50 161 26 53 162 25 54 163 24 52 164 26 53 165 29 57 166 27 56 167 61 59 168 63 60 169 60 61 170 64 62 171 62 63 172 61 59 173 66 64 174 65 65 175 64 62 176 68 66 177 71 67 178 69 68 179 70 69 180 73 70 181 71 67 182 72 71 183 75 72 184 73 70 185 74 73 186 77 74 187 75 72 188 76 75 189 79 76 190 77 74 191 78 77 192 81 78 193 79 76 194 82 79 195 81 78 196 80 80 197 84 81 198 83 82 199 82 79 200 86 83 201 85 84 202 84 81 203 88 85 204 87 86 205 86 83 206 60 61 207 89 87 208 88 85 209 93 88 210 91 89 211 90 90 212 92 91 213 94 92 214 91 89 215 95 93 216 96 94 217 94 92 218 98 95 219 100 96 220 99 97 221 101 98 222 102 99 223 100 96 224 103 100 225 104 101 226 102 99 227 105 102 228 106 103 229 104 101 230 107 104 231 108 105 232 106 103 233 109 106 234 110 107 235 108 105 236 111 108 237 112 109 238 110 107 239 113 110 240 114 111 241 112 109 242 115 112 243 116 113 244 114 111 245 117 114 246 118 115 247 116 113 248 119 116 249 90 90 250 118 115 251 78 77 252 110 107 253 80 80 254 61 59 255 90 90 256 91 89 257 79 76 258 111 108 259 109 106 260 70 69 261 102 99 262 72 71 263 60 61 264 118 115 265 90 90 266 62 63 267 93 88 268 63 60 269 71 67 270 103 100 271 101 98 272 63 60 273 119 116 274 89 87 275 80 80 276 112 109 277 82 79 278 81 78 279 113 110 280 111 108 281 72 71 282 104 101 283 74 73 284 64 62 285 91 89 286 94 92 287 73 70 288 105 102 289 103 100 290 65 65 291 92 91 292 62 63 293 84 81 294 112 109 295 114 111 296 85 84 297 113 110 298 83 82 299 74 73 300 106 103 301 76 75 302 64 62 303 96 94 304 66 64 305 75 72 306 107 104 307 105 102 308 65 65 309 97 117 310 95 93 311 86 83 312 114 111 313 116 113 314 66 64 315 97 117 316 67 118 317 87 86 318 115 112 319 85 84 320 76 75 321 108 105 322 78 77 323 69 68 324 99 97 325 68 66 326 77 74 327 109 106 328 107 104 329 70 69 330 99 97 331 100 96 332 88 85 333 116 113 334 118 115 335 71 67 336 98 95 337 69 68 338 89 87 339 117 114 340 87 86 341 33 0 342 32 3 343 31 1 344 32 3 345 35 5 346 34 4 347 35 5 348 37 35 349 36 6 350 38 7 351 39 38 352 41 8 353 40 9 354 41 8 355 43 10 356 42 11 357 43 10 358 45 12 359 44 13 360 45 12 361 47 14 362 46 15 363 47 14 364 49 16 365 48 17 366 49 16 367 51 18 368 51 18 369 53 21 370 52 20 371 53 21 372 55 23 373 54 22 374 55 23 375 57 25 376 56 24 377 57 25 378 59 27 379 58 26 380 59 27 381 33 0 382 30 2 383 0 28 384 30 2 385 31 1 386 1 30 387 3 32 388 32 3 389 2 29 390 31 1 391 34 4 392 3 32 393 5 34 394 35 5 395 4 31 396 34 4 397 36 6 398 5 34 399 7 119 400 37 35 401 10 36 402 8 58 403 38 7 404 11 37 405 41 8 406 39 38 407 12 40 408 10 36 409 40 9 410 13 41 411 43 10 412 41 8 413 14 42 414 12 40 415 42 11 416 15 43 417 45 12 418 43 10 419 16 44 420 14 42 421 44 13 422 17 45 423 47 14 424 45 12 425 18 46 426 16 44 427 46 15 428 19 47 429 49 16 430 47 14 431 20 48 432 18 46 433 48 17 434 21 49 435 51 18 436 49 16 437 22 50 438 20 48 439 50 19 440 23 51 441 53 21 442 51 18 443 22 50 444 52 20 445 54 22 446 23 51 447 25 54 448 55 23 449 24 52 450 54 22 451 56 24 452 25 54 453 27 56 454 57 25 455 26 53 456 56 24 457 58 26 458 27 56 459 29 57 460 59 27 461 28 55 462 58 26 463 30 2 464 29 57 465 1 30 466 33 0 467 8 58 468 10 36 469 11 37 470 10 36 471 12 40 472 13 41 473 4 31 474 5 34 475 3 32 476 6 33 477 7 119 478 5 34 479 2 29 480 3 32 481 1 30 482 0 28 483 1 30 484 29 57 485 12 40 486 14 42 487 15 43 488 14 42 489 16 44 490 17 45 491 18 46 492 19 47 493 17 45 494 18 46 495 20 48 496 21 49 497 22 50 498 23 51 499 21 49 500 24 52 501 25 54 502 23 51 503 26 53 504 27 56 505 25 54 506 26 53 507 28 55 508 29 57 509 61 59 510 62 63 511 63 60 512 64 62 513 65 65 514 62 63 515 66 64 516 67 118 517 65 65 518 68 66 519 70 69 520 71 67 521 70 69 522 72 71 523 73 70 524 72 71 525 74 73 526 75 72 527 74 73 528 76 75 529 77 74 530 76 75 531 78 77 532 79 76 533 78 77 534 80 80 535 81 78 536 82 79 537 83 82 538 81 78 539 84 81 540 85 84 541 83 82 542 86 83 543 87 86 544 85 84 545 88 85 546 89 87 547 87 86 548 60 61 549 63 60 550 89 87 551 93 88 552 92 91 553 91 89 554 92 91 555 95 93 556 94 92 557 95 93 558 97 117 559 96 94 560 98 95 561 101 98 562 100 96 563 101 98 564 103 100 565 102 99 566 103 100 567 105 102 568 104 101 569 105 102 570 107 104 571 106 103 572 107 104 573 109 106 574 108 105 575 109 106 576 111 108 577 110 107 578 111 108 579 113 110 580 112 109 581 113 110 582 115 112 583 114 111 584 115 112 585 117 114 586 116 113 587 117 114 588 119 116 589 118 115 590 119 116 591 93 88 592 90 90 593 78 77 594 108 105 595 110 107 596 61 59 597 60 61 598 90 90 599 79 76 600 81 78 601 111 108 602 70 69 603 100 96 604 102 99 605 60 61 606 88 85 607 118 115 608 62 63 609 92 91 610 93 88 611 71 67 612 73 70 613 103 100 614 63 60 615 93 88 616 119 116 617 80 80 618 110 107 619 112 109 620 81 78 621 83 82 622 113 110 623 72 71 624 102 99 625 104 101 626 64 62 627 61 59 628 91 89 629 73 70 630 75 72 631 105 102 632 65 65 633 95 93 634 92 91 635 84 81 636 82 79 637 112 109 638 85 84 639 115 112 640 113 110 641 74 73 642 104 101 643 106 103 644 64 62 645 94 92 646 96 94 647 75 72 648 77 74 649 107 104 650 65 65 651 67 118 652 97 117 653 86 83 654 84 81 655 114 111 656 66 64 657 96 94 658 97 117 659 87 86 660 117 114 661 115 112 662 76 75 663 106 103 664 108 105 665 69 68 666 98 95 667 99 97 668 77 74 669 79 76 670 109 106 671 70 69 672 68 66 673 99 97 674 88 85 675 86 83 676 116 113 677 71 67 678 101 98 679 98 95 680 89 87 681 119 116 682 117 114 683</p>
        </triangles>
      </mesh>
    </geometry>
  </library_geometries>
  <library_visual_scenes>
    <visual_scene id="Scene" name="Scene">
      <node id="anc_greek_crested_01" name="anc_greek_crested_01" type="NODE">
        <matrix sid="transform">1 0 0 0 0 1 0 0 0 0 1 0 0 0 0 1</matrix>
        <instance_geometry url="#Cylinder-mesh" name="anc_greek_crested_01">
          <bind_material>
            <technique_common>
              <instance_material symbol="Material_001-material" target="#Material_001-material">
                <bind_vertex_input semantic="UVMap" input_semantic="TEXCOORD" input_set="0"/>
              </instance_material>
            </technique_common>
          </bind_material>
        </instance_geometry>
      </node>
    </visual_scene>
  </library_visual_scenes>
  <scene>
    <instance_visual_scene url="#Scene"/>
  </scene>
</COLLADA>