<?xml version="1.0" encoding="utf-8"?>
<COLLADA xmlns="http://www.collada.org/2005/11/COLLADASchema" version="1.4.1" xmlns:xsi="http://www.w3.org/2001/XMLSchema-instance">
  <asset>
    <contributor>
      <author>Blender User</author>
      <authoring_tool>Blender 4.3.1 commit date:2024-12-10, commit time:07:46, hash:33d812126174</authoring_tool>
    </contributor>
    <created>2026-04-07T11:09:45</created>
    <modified>2026-04-07T11:09:45</modified>
    <unit name="inch" meter="0.0254"/>
    <up_axis>Z_UP</up_axis>
  </asset>
  <library_effects>
    <effect id="Material_001-effect">
      <profile_COMMON>
        <newparam sid="props_helmets_anc_greek_png-surface">
          <surface type="2D">
            <init_from>props_helmets_anc_greek_png</init_from>
          </surface>
        </newparam>
        <newparam sid="props_helmets_anc_greek_png-sampler">
          <sampler2D>
            <source>props_helmets_anc_greek_png-surface</source>
          </sampler2D>
        </newparam>
        <technique sid="common">
          <lambert>
            <emission>
              <color sid="emission">0 0 0 1</color>
            </emission>
            <diffuse>
              <texture texture="props_helmets_anc_greek_png-sampler" texcoord="UVMap"/>
            </diffuse>
            <index_of_refraction>
              <float sid="ior">1.5</float>
            </index_of_refraction>
          </lambert>
        </technique>
      </profile_COMMON>
    </effect>
  </library_effects>
  <library_images>
    <image id="props_helmets_anc_greek_png" name="props_helmets_anc_greek_png">
      <init_from>/home/welton/Downloads/props_helmets_anc_greek.png</init_from>
    </image>
  </library_images>
  <library_materials>
    <material id="Material_001-material" name="Material.001">
      <instance_effect url="#Material_001-effect"/>
    </material>
  </library_materials>
  <library_geometries>
    <geometry id="Cylinder_001-mesh" name="Cylinder.001">
      <mesh>
        <source id="Cylinder_001-mesh-positions">
          <float_array id="Cylinder_001-mesh-positions-array" count="264">0.01826673 -0.2460429 0.2069026 -0.01826673 -0.2460429 0.2069026 0.01826673 -0.2204275 0.1366182 -0.01826673 -0.2204275 0.1366182 0.01826673 -0.1698652 0.0814864 -0.01826673 -0.1698652 0.0814864 0.01826673 -0.1020538 0.04990065 -0.01826673 -0.1020538 0.04990065 0.006256759 0.1073007 0.3356799 -0.006256818 0.1073007 0.3356799 0.01538926 0.05673855 0.3908117 -0.01538932 0.05673855 0.3908117 0.01538926 -0.01107281 0.4223975 -0.01538932 -0.01107281 0.4223975 0.01826673 -0.08580976 0.4256287 -0.01826673 -0.08580976 0.4256287 0.01826673 -0.1560941 0.4000131 -0.01826673 -0.1560941 0.4000131 0.01826673 -0.2112259 0.349451 -0.01826673 -0.2112259 0.349451 0.01826673 -0.2428117 0.2816395 -0.01826673 -0.2428117 0.2816395 0.02749663 -0.2986241 0.2022289 0.02749663 -0.2659705 0.1126328 -0.02749663 -0.2659705 0.1126328 -0.02749663 -0.2986241 0.2022289 0.02749663 -0.2015156 0.04235279 -0.02749663 -0.2015156 0.04235279 0.02749663 -0.115072 0.002088308 -0.02749663 -0.115072 0.002088308 0.009418249 0.1518059 0.3663896 -0.009418249 0.1518059 0.3663896 0.02316528 0.08735096 0.4366696 -0.02316528 0.08735096 0.4366696 0.02316528 9.07406e-4 0.4769341 -0.02316528 9.07406e-4 0.4769341 0.02749663 -0.09436458 0.481053 -0.02749663 -0.09436458 0.481053 0.02749663 -0.1839607 0.4483994 -0.02749663 -0.1839607 0.4483994 0.02749663 -0.2542407 0.3839445 -0.02749663 -0.2542407 0.3839445 0.02749663 -0.2945051 0.2975009 -0.02749663 -0.2945051 0.2975009 0.02749663 -0.2986241 0.2022289 0.02749663 -0.2659705 0.1126328 -0.02749663 -0.2659705 0.1126328 -0.02749663 -0.2986241 0.2022289 0.02749663 -0.2015156 0.04235279 -0.02749663 -0.2015156 0.04235279 0.02749663 -0.115072 0.002088308 -0.02749663 -0.115072 0.002088308 0.009418249 0.1518059 0.3663896 -0.009418249 0.1518059 0.3663896 0.02316528 0.08735096 0.4366696 -0.02316528 0.08735096 0.4366696 0.02316528 9.07406e-4 0.4769341 -0.02316528 9.07406e-4 0.4769341 0.02749663 -0.09436458 0.481053 -0.02749663 -0.09436458 0.481053 0.02749663 -0.1839607 0.4483994 -0.02749663 -0.1839607 0.4483994 0.02749663 -0.2542407 0.3839445 -0.02749663 -0.2542407 0.3839445 0.02749663 -0.2945051 0.2975009 -0.02749663 -0.2945051 0.2975009 0.0149967 -0.4673318 0.1546617 0.0149967 -0.4114322 0.001282453 -0.01499664 -0.4114322 0.001282453 -0.01499664 -0.4673318 0.1546617 0.01499664 -0.301092 -0.1190297 -0.01499664 -0.301092 -0.1190297 0.01272094 -0.2923407 -0.06016659 -0.01272094 -0.2923407 -0.06016659 0.005136668 0.3037583 0.4356881 -0.005136728 0.3037583 0.4356881 0.01263433 0.1934182 0.5560004 -0.01263439 0.1934182 0.5560004 0.01263433 0.04543548 0.6249291 -0.01263433 0.04543548 0.6249291 0.01499664 -0.1176604 0.6319801 -0.0149967 -0.1176604 0.6319801 0.0149967 -0.2710398 0.5760807 -0.01499664 -0.2710398 0.5760807 0.0149967 -0.391352 0.4657403 -0.01499664 -0.391352 0.4657403 0.0149967 -0.4602805 0.3177577 -0.01499664 -0.4602805 0.3177577</float_array>
          <technique_common>
            <accessor source="#Cylinder_001-mesh-positions-array" count="88" stride="3">
              <param name="X" type="float"/>
              <param name="Y" type="float"/>
              <param name="Z" type="float"/>
            </accessor>
          </technique_common>
        </source>
        <source id="Cylinder_001-mesh-normals">
          <float_array id="Cylinder_001-mesh-normals-array" count="264">-0.7210232 -0.6846721 -0.1065353 0.7223448 -0.5906187 -0.359705 0.7210232 -0.6846718 -0.106537 -0.7223449 -0.5906195 -0.3597034 0.7235221 -0.4074119 -0.5572535 -0.7235221 -0.4074134 -0.5572522 0.7250449 -0.290792 -0.6242996 -0.5477781 0.8280835 -0.1192348 0.7237929 0.4429147 0.5291035 0.5477892 0.8280819 -0.1191941 -0.7053452 0.181098 0.6853406 0.7053364 0.181102 0.6853485 -0.7227079 -0.09119045 0.6851114 0.7226989 -0.09118664 0.6851214 -0.7180994 -0.3615354 0.5946642 0.7180951 -0.3615378 0.5946679 0.7187547 -0.5611901 0.4104359 -0.7197704 -0.674564 0.1639941 0.719766 -0.6745684 0.1639953 0.6853819 0.7194838 0.1122264 0.6836026 0.6232165 0.3798537 -0.685382 0.7194844 0.1122223 0.6820336 0.4314636 0.5904823 -0.6836025 0.6232186 0.3798503 0.6697404 0.3135471 0.6731539 -0.6820335 0.4314669 0.59048 -0.7250404 -0.2907941 -0.6243038 0.7140401 -0.3666263 -0.5964326 -0.7140427 -0.3666186 -0.5964344 -0.5238997 -0.08631289 -0.8473955 0.6953639 -0.1564252 -0.7014274 -0.6953693 -0.1564202 -0.7014232 -0.723771 0.4429294 0.5291211 0.6947032 0.1265122 -0.7080834 -0.6947087 0.1265177 -0.7080771 0.6893727 0.3764072 -0.6189369 0.6884819 0.5855042 -0.4279924 -0.6893833 0.376402 -0.6189284 -0.7187501 -0.5611938 0.4104385 0.6870814 0.7060737 -0.1714039 -0.6884717 0.5855121 -0.4279982 -0.6870919 0.7060639 -0.1714016 0.523899 -0.08630287 -0.847397 0.7788025 0.5356669 0.3263859 -0.7799531 0.6183547 0.09649157 0.7799532 0.6183546 0.09649288 0.7857562 0.3758542 0.4912444 -0.7788025 0.5356675 0.3263847 0.5665532 0.8227334 -0.04612278 -0.7857561 0.3758553 0.4912435 0.7867094 -0.3158302 -0.5304148 -0.5745943 -0.1334207 -0.8074902 0.5745919 -0.1334259 -0.8074911 -0.7766915 -0.1374151 -0.6147094 -0.7866916 -0.3158469 -0.530431 0.7766842 -0.1374189 -0.6147176 -0.7874193 0.1139016 -0.6058031 0.787412 0.1138985 -0.6058132 -0.7831328 0.3232613 -0.5312299 0.7823314 0.5029813 -0.3673791 0.7831292 0.3232638 -0.5312336 -0.7811983 0.6067051 -0.1470995 -0.7823278 0.5029849 -0.3673817 0.7811946 0.6067094 -0.1471007 -0.6416915 -0.7578971 -0.1175761 0.6427682 -0.654486 -0.3981173 0.6416915 -0.7578968 -0.1175785 -0.6427679 -0.6544874 -0.3981152 0.5267764 0.2334223 -0.8173253 -0.5267849 0.2333531 -0.8173396 -0.4999898 0.694501 -0.5173768 -0.5421638 0.8230096 -0.1694512 0.6565833 0.4647013 0.594097 0.5421639 0.8230034 -0.1694812 -0.6565831 0.4647021 0.5940965 0.6412646 0.186122 0.7444047 -0.641264 0.1861226 0.7444051 0.6420386 -0.1100551 0.758732 -0.6420381 -0.1100526 0.7587329 0.638569 -0.3997552 0.6575907 -0.6385689 -0.3997532 0.6575919 0.6393795 -0.6205568 0.4539859 -0.6393795 -0.6205554 0.4539878 0.6404985 -0.7461708 0.1816338 -0.6404983 -0.7461704 0.1816362 0.4999882 0.6945032 -0.5173754 -0.5665408 0.8227397 -0.04616546 -0.6697298 0.313551 0.6731626</float_array>
          <technique_common>
            <accessor source="#Cylinder_001-mesh-normals-array" count="88" stride="3">
              <param name="X" type="float"/>
              <param name="Y" type="float"/>
              <param name="Z" type="float"/>
            </accessor>
          </technique_common>
        </source>
        <source id="Cylinder_001-mesh-map-0">
          <float_array id="Cylinder_001-mesh-map-0-array" count="996">0.2968577 0.9263007 0.3111654 0.8673998 0.2968577 0.8673998 0.3111654 0.9263007 0.3232949 0.8673998 0.3111654 0.8673998 0.318971 0.9263007 0.3068414 0.8673998 0.318971 0.8673998 0.2825499 0.9263007 0.2704204 0.8673998 0.2825499 0.8673998 0.2660965 0.8673998 0.278226 0.9263007 0.278226 0.8673998 0.278226 0.8673998 0.2925337 0.9263007 0.2925337 0.8673998 0.2925337 0.8673998 0.3068414 0.9263007 0.3068414 0.8673998 0.3068414 0.9263007 0.318971 0.8673998 0.3068414 0.8673998 0.2704204 0.8673998 0.2825499 0.9263007 0.2825499 0.8673998 0.2825499 0.9263007 0.2968577 0.8673998 0.2825499 0.8673998 0.2254587 0.9411054 0.3226139 0.8714435 0.3045497 0.9411053 0.1841082 0.949677 0.08876484 0.8813143 0.187707 0.8813143 0.3045497 0.9411053 0.408087 0.8714435 0.3715999 0.9411053 0.1064922 0.949677 0.004885792 0.8813143 0.08876484 0.8813143 0.3374632 0.9411053 0.2921445 0.8714435 0.2704131 0.9411053 0.07419258 0.949677 0.1186661 0.8813143 0.03478699 0.8813143 0.07931762 0.9411054 0.1209691 0.8714435 0.03549599 0.8714435 0.3275238 0.9496769 0.2866492 0.8813143 0.2617242 0.9496769 0.127528 0.9822031 0.1285077 0.8749986 0.07139647 0.9604717 0.1303625 0.9661169 0.1312333 0.8708364 0.1701809 0.9065245 0.1913221 0.9411054 0.09049963 0.8714435 0.1913221 0.8714435 0.2176082 0.9496769 0.3165504 0.8813143 0.2952242 0.9496769 0.1913221 0.9411054 0.2921445 0.8714435 0.2704131 0.9411054 0.2176082 0.9496769 0.1186661 0.8813143 0.2176082 0.8813143 0.1182268 0.8303458 0.1254073 0.9375503 0.169229 0.8973959 0.1086598 0.8710752 0.1095306 0.9663559 0.05877155 0.8903896 0.07931762 0.9411054 0.1209691 0.8714435 0.1463677 0.9411054 0.3275238 0.9496769 0.2866492 0.8813143 0.3705282 0.8813143 0.1463677 0.9411054 0.2217915 0.8714435 0.2254587 0.9411054 0.2617242 0.9496769 0.187707 0.8813143 0.2866492 0.8813143 0.2190228 0.8314349 0.1826371 0.9810649 0.1826371 0.8314349 0.1672249 0.8314349 0.2036104 0.9810648 0.2036104 0.8314349 0.1826371 0.8314349 0.1397174 0.9810649 0.1397174 0.8314349 0.1397174 0.8314349 0.09679764 0.9810649 0.09679764 0.8314349 0.09679764 0.8314349 0.06041204 0.9810649 0.09679764 0.9810649 0.04499977 0.831435 0.08138537 0.9810649 0.04499977 0.9810649 0.08138537 0.831435 0.1243051 0.9810649 0.08138537 0.9810649 0.1243051 0.831435 0.1672248 0.9810649 0.1243051 0.9810649 0.2036104 0.831435 0.1672248 0.9810649 0.1672248 0.831435 0.06041204 0.831435 0.09679764 0.9810649 0.06041204 0.9810649 0.740082 0.2103026 0.8991442 0.2749153 0.7738058 0.3152078 0.7114923 0.1213682 0.8654204 0.1700102 0.740082 0.2103026 0.7502737 0.2420062 0.8470224 0.1127792 0.7216839 0.1530717 0.8361191 0.5090467 0.9328679 0.3798204 0.8075296 0.4201129 0.8463107 0.54075 0.9430595 0.4115234 0.9716492 0.5004575 0.8177211 0.4518158 0.9093359 0.3066187 0.9430595 0.4115234 0.7839974 0.3469112 0.8756121 0.2017137 0.9093359 0.3066187 0.7216839 0.1530717 0.8756121 0.2017137 0.7502737 0.2420062 0.8361191 0.5090467 0.9328679 0.3798204 0.9614574 0.4687543 0.7738058 0.3152078 0.9328679 0.3798204 0.8075296 0.4201129 0.8991442 0.2749153 0.740082 0.2103026 0.7738058 0.3152078 0.8654204 0.1700102 0.7114923 0.1213682 0.740082 0.2103026 0.8470224 0.1127792 0.7502737 0.2420062 0.7216839 0.1530717 0.9328679 0.3798204 0.8361191 0.5090467 0.8075296 0.4201129 0.9716492 0.5004575 0.8177211 0.4518158 0.8463107 0.54075 0.9430595 0.4115234 0.7839974 0.3469112 0.8177211 0.4518158 0.9093359 0.3066187 0.7502737 0.2420062 0.7839974 0.3469112 0.8756121 0.2017137 0.7216839 0.1530717 0.7502737 0.2420062 0.9614574 0.4687543 0.8075296 0.4201129 0.8361191 0.5090467 0.9328679 0.3798204 0.7738058 0.3152078 0.8075296 0.4201129 0.8463107 0.54075 0.8177211 0.4518158 0.8177211 0.4518158 0.740082 0.2103026 0.7738058 0.3152078 0.740082 0.2103026 0.9716492 0.5004575 0.9430595 0.4115234 0.9716492 0.5004575 0.7738058 0.3152078 0.8075296 0.4201129 0.7738058 0.3152078 0.8654204 0.1700102 0.8991442 0.2749153 0.8991442 0.2749153 0.8991442 0.2749153 0.9328679 0.3798204 0.9328679 0.3798204 0.8177211 0.4518158 0.7839974 0.3469112 0.7839974 0.3469112 0.9430595 0.4115234 0.9093359 0.3066187 0.9430595 0.4115234 0.7114923 0.1213682 0.740082 0.2103026 0.7114923 0.1213682 0.8368306 0.08107572 0.8654204 0.1700102 0.8654204 0.1700102 0.7502737 0.2420062 0.7839974 0.3469112 0.7502737 0.2420062 0.8756121 0.2017137 0.9093359 0.3066187 0.9093359 0.3066187 0.7216839 0.1530717 0.7502737 0.2420062 0.7502737 0.2420062 0.8470224 0.1127792 0.8756121 0.2017137 0.8470224 0.1127792 0.7216839 0.1530717 0.7502737 0.2420062 0.7216839 0.1530717 0.7502737 0.2420062 0.8756121 0.2017137 0.8756121 0.2017137 0.8470224 0.1127792 0.8756121 0.2017137 0.8756121 0.2017137 0.8075296 0.4201129 0.8361191 0.5090467 0.8361191 0.5090467 0.9328679 0.3798204 0.9614574 0.4687543 0.9328679 0.3798204 0.8075296 0.4201129 0.8361191 0.5090467 0.8075296 0.4201129 0.9328679 0.3798204 0.9614574 0.4687543 0.9614574 0.4687543 0.9328679 0.3798204 0.8075296 0.4201129 0.8075296 0.4201129 0.1209691 0.8714435 0.2617242 0.9496769 0.2866492 0.8813143 0.2968577 0.9263007 0.3111654 0.9263007 0.3111654 0.8673998 0.3111654 0.9263007 0.3232949 0.9263007 0.3232949 0.8673998 0.318971 0.9263007 0.3068414 0.9263007 0.3068414 0.8673998 0.2825499 0.9263007 0.2704204 0.9263007 0.2704204 0.8673998 0.2660965 0.8673998 0.2660965 0.9263007 0.278226 0.9263007 0.278226 0.8673998 0.278226 0.9263007 0.2925337 0.9263007 0.2925337 0.8673998 0.2925337 0.9263007 0.3068414 0.9263007 0.3068414 0.9263007 0.318971 0.9263007 0.318971 0.8673998 0.2704204 0.8673998 0.2704204 0.9263007 0.2825499 0.9263007 0.2825499 0.9263007 0.2968577 0.9263007 0.2968577 0.8673998 0.2254587 0.9411054 0.2217915 0.8714435 0.3226139 0.8714435 0.1841082 0.949677 0.1064922 0.949677 0.08876484 0.8813143 0.3045497 0.9411053 0.3226139 0.8714435 0.408087 0.8714435 0.1064922 0.949677 0.04069244 0.949677 0.004885792 0.8813143 0.3374632 0.9411053 0.3776176 0.8714435 0.2921445 0.8714435 0.07419258 0.949677 0.1399922 0.949677 0.1186661 0.8813143 0.07931762 0.9411054 0.1463677 0.9411054 0.1209691 0.8714435 0.3275238 0.9496769 0.3705282 0.8813143 0.2866492 0.8813143 0.127528 0.9822031 0.1723294 0.915153 0.1285077 0.8749986 0.1303625 0.9661169 0.08047431 0.9468026 0.1312333 0.8708364 0.1913221 0.9411054 0.1122311 0.9411054 0.09049963 0.8714435 0.2176082 0.9496769 0.2176082 0.8813143 0.3165504 0.8813143 0.1913221 0.9411054 0.1913221 0.8714435 0.2921445 0.8714435 0.2176082 0.9496769 0.1399922 0.9496769 0.1186661 0.8813143 0.1182268 0.8303458 0.06829607 0.8520773 0.1254073 0.9375503 0.1086598 0.8710752 0.1484782 0.9306676 0.1095306 0.9663559 0.07931762 0.9411054 0.03549599 0.8714435 0.1209691 0.8714435 0.3275238 0.9496769 0.2617242 0.9496769 0.2866492 0.8813143 0.1463677 0.9411054 0.1209691 0.8714435 0.2217915 0.8714435 0.2617242 0.9496769 0.1841082 0.949677 0.187707 0.8813143 0.2190228 0.8314349 0.2190228 0.9810648 0.1826371 0.9810649 0.1672249 0.8314349 0.1672249 0.9810648 0.2036104 0.9810648 0.1826371 0.8314349 0.1826371 0.9810649 0.1397174 0.9810649 0.1397174 0.8314349 0.1397174 0.9810649 0.09679764 0.9810649 0.09679764 0.8314349 0.06041204 0.831435 0.06041204 0.9810649 0.04499977 0.831435 0.08138537 0.831435 0.08138537 0.9810649 0.08138537 0.831435 0.1243051 0.831435 0.1243051 0.9810649 0.1243051 0.831435 0.1672248 0.831435 0.1672248 0.9810649 0.2036104 0.831435 0.2036104 0.9810649 0.1672248 0.9810649 0.06041204 0.831435 0.09679764 0.8314349 0.09679764 0.9810649 0.740082 0.2103026 0.8654204 0.1700102 0.8991442 0.2749153 0.7114923 0.1213682 0.8368306 0.08107572 0.8654204 0.1700102 0.7502737 0.2420062 0.8756121 0.2017137 0.8470224 0.1127792 0.8361191 0.5090467 0.9614574 0.4687543 0.9328679 0.3798204 0.8463107 0.54075 0.8177211 0.4518158 0.9430595 0.4115234 0.8177211 0.4518158 0.7839974 0.3469112 0.9093359 0.3066187 0.7839974 0.3469112 0.7502737 0.2420062 0.8756121 0.2017137 0.7216839 0.1530717 0.8470224 0.1127792 0.8756121 0.2017137 0.8361191 0.5090467 0.8075296 0.4201129 0.9328679 0.3798204 0.7738058 0.3152078 0.8991442 0.2749153 0.9328679 0.3798204 0.8991442 0.2749153 0.8654204 0.1700102 0.740082 0.2103026 0.8654204 0.1700102 0.8368306 0.08107572 0.7114923 0.1213682 0.8470224 0.1127792 0.8756121 0.2017137 0.7502737 0.2420062 0.9328679 0.3798204 0.9614574 0.4687543 0.8361191 0.5090467 0.9716492 0.5004575 0.9430595 0.4115234 0.8177211 0.4518158 0.9430595 0.4115234 0.9093359 0.3066187 0.7839974 0.3469112 0.9093359 0.3066187 0.8756121 0.2017137 0.7502737 0.2420062 0.8756121 0.2017137 0.8470224 0.1127792 0.7216839 0.1530717 0.9614574 0.4687543 0.9328679 0.3798204 0.8075296 0.4201129 0.9328679 0.3798204 0.8991442 0.2749153 0.7738058 0.3152078 0.8463107 0.54075 0.8463107 0.54075 0.8177211 0.4518158 0.740082 0.2103026 0.7738058 0.3152078 0.7738058 0.3152078 0.9716492 0.5004575 0.9430595 0.4115234 0.9430595 0.4115234 0.7738058 0.3152078 0.8075296 0.4201129 0.8075296 0.4201129 0.8654204 0.1700102 0.8654204 0.1700102 0.8991442 0.2749153 0.8991442 0.2749153 0.8991442 0.2749153 0.9328679 0.3798204 0.8177211 0.4518158 0.8177211 0.4518158 0.7839974 0.3469112 0.9430595 0.4115234 0.9093359 0.3066187 0.9093359 0.3066187 0.7114923 0.1213682 0.740082 0.2103026 0.740082 0.2103026 0.8368306 0.08107572 0.8368306 0.08107572 0.8654204 0.1700102 0.7502737 0.2420062 0.7839974 0.3469112 0.7839974 0.3469112 0.8756121 0.2017137 0.8756121 0.2017137 0.9093359 0.3066187 0.7216839 0.1530717 0.7216839 0.1530717 0.7502737 0.2420062 0.8470224 0.1127792 0.8756121 0.2017137 0.8756121 0.2017137 0.7216839 0.1530717 0.7502737 0.2420062 0.7502737 0.2420062 0.7502737 0.2420062 0.7502737 0.2420062 0.8756121 0.2017137 0.8470224 0.1127792 0.8470224 0.1127792 0.8756121 0.2017137 0.8075296 0.4201129 0.8075296 0.4201129 0.8361191 0.5090467 0.9328679 0.3798204 0.9614574 0.4687543 0.9614574 0.4687543 0.8075296 0.4201129 0.8361191 0.5090467 0.8361191 0.5090467 0.9328679 0.3798204 0.9328679 0.3798204 0.9614574 0.4687543 0.9328679 0.3798204 0.9328679 0.3798204 0.8075296 0.4201129 0.1209691 0.8714435 0.09679764 0.8314349 0.2617242 0.9496769</float_array>
          <technique_common>
            <accessor source="#Cylinder_001-mesh-map-0-array" count="498" stride="2">
              <param name="S" type="float"/>
              <param name="T" type="float"/>
            </accessor>
          </technique_common>
        </source>
        <vertices id="Cylinder_001-mesh-vertices">
          <input semantic="POSITION" source="#Cylinder_001-mesh-positions"/>
        </vertices>
        <triangles material="Material_001-material" count="166">
          <input semantic="VERTEX" source="#Cylinder_001-mesh-vertices" offset="0"/>
          <input semantic="NORMAL" source="#Cylinder_001-mesh-normals" offset="1"/>
          <input semantic="TEXCOORD" source="#Cylinder_001-mesh-map-0" offset="2" set="0"/>
          <p>25 0 0 23 1 1 22 2 2 24 3 3 26 4 4 23 1 5 27 5 6 28 6 7 26 4 8 31 7 9 32 8 10 30 9 11 32 8 12 35 10 13 34 11 14 34 11 15 37 12 16 36 13 17 36 13 18 39 14 19 38 15 20 39 14 21 40 16 22 38 15 23 40 16 24 43 17 25 42 18 26 43 17 27 22 2 28 42 18 29 0 19 30 23 1 31 2 20 32 1 21 33 24 3 34 25 0 35 2 20 36 26 4 37 4 22 38 3 23 39 27 5 40 24 3 41 4 22 42 28 6 43 6 24 44 5 25 45 29 26 46 27 5 47 10 27 48 30 9 49 32 8 50 11 28 51 31 7 52 9 29 53 12 30 54 32 8 55 34 11 56 13 31 57 33 32 58 11 28 59 14 33 60 34 11 61 36 13 62 15 34 63 35 10 64 13 31 65 14 33 66 38 15 67 16 35 68 15 34 69 39 14 70 37 12 71 16 35 72 40 16 73 18 36 74 17 37 75 41 38 76 39 14 77 18 36 78 42 18 79 20 39 80 19 40 81 43 17 82 41 38 83 20 39 84 22 2 85 0 19 86 21 41 87 25 0 88 43 17 89 4 22 90 3 23 91 2 20 92 6 24 93 5 25 94 4 22 95 2 20 96 1 21 97 0 19 98 0 19 99 21 41 100 20 39 101 8 42 102 11 28 103 9 29 104 10 27 105 13 31 106 11 28 107 12 30 108 15 34 109 13 31 110 14 33 111 17 37 112 15 34 113 18 36 114 17 37 115 16 35 116 18 36 117 21 41 118 19 40 119 45 43 120 47 44 121 44 45 122 48 46 123 46 47 124 45 43 125 50 48 126 49 49 127 48 46 128 54 50 129 53 51 130 52 52 131 54 50 132 57 53 133 55 54 134 56 55 135 59 56 136 57 53 137 58 57 138 61 58 139 59 56 140 62 59 141 61 58 142 60 60 143 62 59 144 65 61 145 63 62 146 44 45 147 65 61 148 64 63 149 69 64 150 67 65 151 66 66 152 68 67 153 70 68 154 67 65 155 71 69 156 72 70 157 70 68 158 75 71 159 76 72 160 74 73 161 77 74 162 78 75 163 76 72 164 79 76 165 80 77 166 78 75 167 81 78 168 82 79 169 80 77 170 83 80 171 84 81 172 82 79 173 85 82 174 86 83 175 84 81 176 87 84 177 66 66 178 86 83 179 54 50 180 78 75 181 56 55 182 45 43 183 66 66 184 67 65 185 55 54 186 79 76 187 77 74 188 44 45 189 86 83 190 66 66 191 46 47 192 69 64 193 47 44 194 47 44 195 87 84 196 65 61 197 56 55 198 80 77 199 58 57 200 57 53 201 81 78 202 79 76 203 48 46 204 67 65 205 70 68 206 49 49 207 68 67 208 46 47 209 60 60 210 80 77 211 82 79 212 61 58 213 81 78 214 59 56 215 48 46 216 72 70 217 50 48 218 49 49 219 73 85 220 71 69 221 62 59 222 82 79 223 84 81 224 50 48 225 73 85 226 51 86 227 63 62 228 83 80 229 61 58 230 52 52 231 76 72 232 54 50 233 53 51 234 77 74 235 75 71 236 64 63 237 84 81 238 86 83 239 65 61 240 85 82 241 63 62 242 53 51 243 74 73 244 52 52 245 30 9 246 9 29 247 31 7 248 25 0 249 24 3 250 23 1 251 24 3 252 27 5 253 26 4 254 27 5 255 29 26 256 28 6 257 31 7 258 33 32 259 32 8 260 32 8 261 33 32 262 35 10 263 34 11 264 35 10 265 37 12 266 36 13 267 37 12 268 39 14 269 39 14 270 41 38 271 40 16 272 40 16 273 41 38 274 43 17 275 43 17 276 25 0 277 22 2 278 0 19 279 22 2 280 23 1 281 1 21 282 3 23 283 24 3 284 2 20 285 23 1 286 26 4 287 3 23 288 5 25 289 27 5 290 4 22 291 26 4 292 28 6 293 5 25 294 7 87 295 29 26 296 10 27 297 8 42 298 30 9 299 11 28 300 33 32 301 31 7 302 12 30 303 10 27 304 32 8 305 13 31 306 35 10 307 33 32 308 14 33 309 12 30 310 34 11 311 15 34 312 37 12 313 35 10 314 14 33 315 36 13 316 38 15 317 15 34 318 17 37 319 39 14 320 16 35 321 38 15 322 40 16 323 17 37 324 19 40 325 41 38 326 18 36 327 40 16 328 42 18 329 19 40 330 21 41 331 43 17 332 20 39 333 42 18 334 22 2 335 21 41 336 1 21 337 25 0 338 4 22 339 5 25 340 3 23 341 6 24 342 7 87 343 5 25 344 2 20 345 3 23 346 1 21 347 0 19 348 1 21 349 21 41 350 8 42 351 10 27 352 11 28 353 10 27 354 12 30 355 13 31 356 12 30 357 14 33 358 15 34 359 14 33 360 16 35 361 17 37 362 18 36 363 19 40 364 17 37 365 18 36 366 20 39 367 21 41 368 45 43 369 46 47 370 47 44 371 48 46 372 49 49 373 46 47 374 50 48 375 51 86 376 49 49 377 54 50 378 55 54 379 53 51 380 54 50 381 56 55 382 57 53 383 56 55 384 58 57 385 59 56 386 58 57 387 60 60 388 61 58 389 62 59 390 63 62 391 61 58 392 62 59 393 64 63 394 65 61 395 44 45 396 47 44 397 65 61 398 69 64 399 68 67 400 67 65 401 68 67 402 71 69 403 70 68 404 71 69 405 73 85 406 72 70 407 75 71 408 77 74 409 76 72 410 77 74 411 79 76 412 78 75 413 79 76 414 81 78 415 80 77 416 81 78 417 83 80 418 82 79 419 83 80 420 85 82 421 84 81 422 85 82 423 87 84 424 86 83 425 87 84 426 69 64 427 66 66 428 54 50 429 76 72 430 78 75 431 45 43 432 44 45 433 66 66 434 55 54 435 57 53 436 79 76 437 44 45 438 64 63 439 86 83 440 46 47 441 68 67 442 69 64 443 47 44 444 69 64 445 87 84 446 56 55 447 78 75 448 80 77 449 57 53 450 59 56 451 81 78 452 48 46 453 45 43 454 67 65 455 49 49 456 71 69 457 68 67 458 60 60 459 58 57 460 80 77 461 61 58 462 83 80 463 81 78 464 48 46 465 70 68 466 72 70 467 49 49 468 51 86 469 73 85 470 62 59 471 60 60 472 82 79 473 50 48 474 72 70 475 73 85 476 63 62 477 85 82 478 83 80 479 52 52 480 74 73 481 76 72 482 53 51 483 55 54 484 77 74 485 64 63 486 62 59 487 84 81 488 65 61 489 87 84 490 85 82 491 53 51 492 75 71 493 74 73 494 30 9 495 8 42 496 9 29 497</p>
        </triangles>
      </mesh>
    </geometry>
  </library_geometries>
  <library_visual_scenes>
    <visual_scene id="Scene" name="Scene">
      <node id="anc_greek_crested_02" name="anc_greek_crested_02" type="NODE">
        <matrix sid="transform">1 0 0 0 0 1 0 0 0 0 1 0 0 0 0 1</matrix>
        <instance_geometry url="#Cylinder_001-mesh" name="anc_greek_crested_02">
          <bind_material>
            <technique_common>
              <instance_material symbol="Material_001-material" target="#Material_001-material">
                <bind_vertex_input semantic="UVMap" input_semantic="TEXCOORD" input_set="0"/>
              </instance_material>
            </technique_common>
          </bind_material>
        </instance_geometry>
      </node>
    </visual_scene>
  </library_visual_scenes>
  <scene>
    <instance_visual_scene url="#Scene"/>
  </scene>
</COLLADA>