<?xml version="1.0" encoding="utf-8"?>
<COLLADA xmlns="http://www.collada.org/2005/11/COLLADASchema" version="1.4.1" xmlns:xsi="http://www.w3.org/2001/XMLSchema-instance">
  <asset>
    <contributor>
      <author>Blender User</author>
      <authoring_tool>Blender 4.3.1 commit date:2024-12-10, commit time:07:46, hash:33d812126174</authoring_tool>
    </contributor>
    <created>2026-04-07T11:35:57</created>
    <modified>2026-04-07T11:35:57</modified>
    <unit name="inch" meter="0.0254"/>
    <up_axis>Z_UP</up_axis>
  </asset>
  <library_effects>
    <effect id="Material_001-effect">
      <profile_COMMON>
        <newparam sid="props_helmets_anc_greek_png-surface">
          <surface type="2D">
            <init_from>props_helmets_anc_greek_png</init_from>
          </surface>
        </newparam>
        <newparam sid="props_helmets_anc_greek_png-sampler">
          <sampler2D>
            <source>props_helmets_anc_greek_png-surface</source>
          </sampler2D>
        </newparam>
        <technique sid="common">
          <lambert>
            <emission>
              <color sid="emission">0 0 0 1</color>
            </emission>
            <diffuse>
              <texture texture="props_helmets_anc_greek_png-sampler" texcoord="UVMap"/>
            </diffuse>
            <index_of_refraction>
              <float sid="ior">1.5</float>
            </index_of_refraction>
          </lambert>
        </technique>
      </profile_COMMON>
    </effect>
  </library_effects>
  <library_images>
    <image id="props_helmets_anc_greek_png" name="props_helmets_anc_greek_png">
      <init_from>/home/welton/Downloads/props_helmets_anc_greek.png</init_from>
    </image>
  </library_images>
  <library_materials>
    <material id="Material_001-material" name="Material.001">
      <instance_effect url="#Material_001-effect"/>
    </material>
  </library_materials>
  <library_geometries>
    <geometry id="Cylinder_001-mesh" name="Cylinder.001">
      <mesh>
        <source id="Cylinder_001-mesh-positions">
          <float_array id="Cylinder_001-mesh-positions-array" count="528">0.4347335 -0.005825996 0.002862155 0.4347335 -0.05539995 0.002862155 0.3672854 -0.005825996 -0.05579096 0.3672854 -0.05539995 -0.05579096 0.286698 -0.005826056 -0.07827508 0.286698 -0.05539995 -0.07827508 0.2052401 -0.005826056 -0.06116682 0.2052401 -0.05539995 -0.06116682 0.1946744 -0.02212291 0.419367 0.1946744 -0.0391032 0.419367 0.2752617 -0.009730577 0.441851 0.2752617 -0.05149549 0.441851 0.3567197 -0.009730577 0.4247427 0.3567197 -0.05149549 0.4247427 0.426647 -0.005826056 0.3706468 0.426647 -0.05539995 0.3706468 0.4743975 -0.005826056 0.2877988 0.4743975 -0.05539995 0.2877988 0.4927022 -0.005825996 0.1888117 0.4927022 -0.05539995 0.1888117 0.478774 -0.005825996 0.08875513 0.478774 -0.05539995 0.08875513 0.4795643 0.006698429 -0.04294919 0.3935838 0.006698429 -0.1177182 0.3935838 -0.06792449 -0.1177182 0.4795643 -0.06792438 -0.04294919 0.2908539 0.006698429 -0.14638 0.2908539 -0.06792449 -0.14638 0.1870142 0.006698369 -0.124571 0.1870142 -0.06792449 -0.1245711 0.1735454 -0.01783293 0.4879965 0.1735454 -0.04339313 0.4879965 0.2762754 8.20953e-4 0.5166581 0.2762754 -0.062047 0.5166581 0.380115 8.20953e-4 0.4948493 0.380115 -0.062047 0.4948493 0.4692558 0.006698429 0.4258896 0.4692558 -0.06792449 0.4258896 0.5301268 0.006698429 0.320278 0.5301268 -0.06792449 0.320278 0.5534608 0.006698429 0.1940927 0.5534608 -0.06792438 0.1940927 0.5357056 0.006698429 0.06654423 0.5357056 -0.06792438 0.06654423 0.4795643 0.006698429 -0.04294919 0.3935838 0.006698429 -0.1177182 0.3935838 -0.06792449 -0.1177182 0.4795643 -0.06792438 -0.04294919 0.2908539 0.006698429 -0.14638 0.2908539 -0.06792449 -0.14638 0.1870142 0.006698369 -0.124571 0.1870142 -0.06792449 -0.1245711 0.1735454 -0.01783293 0.4879965 0.1735454 -0.04339313 0.4879965 0.2762754 8.20953e-4 0.5166581 0.2762754 -0.062047 0.5166581 0.380115 8.20953e-4 0.4948493 0.380115 -0.062047 0.4948493 0.4692558 0.006698429 0.4258896 0.4692558 -0.06792449 0.4258896 0.5301268 0.006698429 0.320278 0.5301268 -0.06792449 0.320278 0.5534608 0.006698429 0.1940927 0.5534608 -0.06792438 0.1940927 0.5357056 0.006698429 0.06654423 0.5357056 -0.06792438 0.06654423 0.6029319 -0.01026326 -0.2262818 0.4557421 -0.01026332 -0.3542788 0.4557421 -0.05096262 -0.3542788 0.6029319 -0.05096262 -0.2262818 0.279879 -0.01026332 -0.4033449 0.279879 -0.05096262 -0.4033449 0.3089273 -0.01335138 -0.3309034 0.3089273 -0.04787456 -0.3309034 0.07905882 -0.02364283 0.6826429 0.07905882 -0.03758329 0.6826429 0.2549219 -0.01346892 0.731709 0.2549219 -0.0477572 0.731709 0.4326849 -0.01346892 0.6943742 0.4326849 -0.0477572 0.6943742 0.5852845 -0.01026332 0.5763223 0.5852845 -0.05096268 0.5763223 0.6894896 -0.01026332 0.3955262 0.6894896 -0.05096262 0.3955262 0.7294352 -0.01026326 0.1795096 0.7294352 -0.05096262 0.1795096 0.6990402 -0.01026326 -0.03884017 0.6990402 -0.05096262 -0.03884017 -0.4347334 -0.005825996 0.002862155 -0.4347334 -0.05539995 0.002862155 -0.3672853 -0.005825996 -0.05579096 -0.3672853 -0.05539995 -0.05579096 -0.2866979 -0.005826056 -0.07827508 -0.2866979 -0.05539995 -0.07827508 -0.20524 -0.005826056 -0.06116682 -0.20524 -0.05539995 -0.06116682 -0.1946743 -0.02212291 0.419367 -0.1946743 -0.0391032 0.419367 -0.2752617 -0.009730577 0.441851 -0.2752617 -0.05149549 0.441851 -0.3567196 -0.009730577 0.4247427 -0.3567196 -0.05149549 0.4247427 -0.4266468 -0.005826056 0.3706468 -0.4266468 -0.05539995 0.3706468 -0.4743975 -0.005826056 0.2877988 -0.4743975 -0.05539995 0.2877988 -0.4927022 -0.005825996 0.1888117 -0.4927022 -0.05539995 0.1888117 -0.478774 -0.005825996 0.08875513 -0.478774 -0.05539995 0.08875513 -0.4795643 0.006698429 -0.04294919 -0.3935837 0.006698429 -0.1177182 -0.3935837 -0.06792449 -0.1177182 -0.4795643 -0.06792438 -0.04294919 -0.2908538 0.006698429 -0.14638 -0.2908538 -0.06792449 -0.14638 -0.1870142 0.006698369 -0.124571 -0.1870142 -0.06792449 -0.1245711 -0.1735453 -0.01783293 0.4879965 -0.1735453 -0.04339313 0.4879965 -0.2762753 8.20953e-4 0.5166581 -0.2762753 -0.062047 0.5166581 -0.380115 8.20953e-4 0.4948493 -0.380115 -0.062047 0.4948493 -0.4692557 0.006698429 0.4258896 -0.4692557 -0.06792449 0.4258896 -0.5301267 0.006698429 0.320278 -0.5301267 -0.06792449 0.320278 -0.5534607 0.006698429 0.1940927 -0.5534607 -0.06792438 0.1940927 -0.5357056 0.006698429 0.06654423 -0.5357056 -0.06792438 0.06654423 -0.4795643 0.006698429 -0.04294919 -0.3935837 0.006698429 -0.1177182 -0.3935837 -0.06792449 -0.1177182 -0.4795643 -0.06792438 -0.04294919 -0.2908538 0.006698429 -0.14638 -0.2908538 -0.06792449 -0.14638 -0.1870142 0.006698369 -0.124571 -0.1870142 -0.06792449 -0.1245711 -0.1735453 -0.01783293 0.4879965 -0.1735453 -0.04339313 0.4879965 -0.2762753 8.20953e-4 0.5166581 -0.2762753 -0.062047 0.5166581 -0.380115 8.20953e-4 0.4948493 -0.380115 -0.062047 0.4948493 -0.4692557 0.006698429 0.4258896 -0.4692557 -0.06792449 0.4258896 -0.5301267 0.006698429 0.320278 -0.5301267 -0.06792449 0.320278 -0.5534607 0.006698429 0.1940927 -0.5534607 -0.06792438 0.1940927 -0.5357056 0.006698429 0.06654423 -0.5357056 -0.06792438 0.06654423 -0.6029318 -0.01026326 -0.2262818 -0.455742 -0.01026332 -0.3542788 -0.455742 -0.05096262 -0.3542788 -0.6029318 -0.05096262 -0.2262818 -0.279879 -0.01026332 -0.4033449 -0.279879 -0.05096262 -0.4033449 -0.3089272 -0.01335138 -0.3309034 -0.3089272 -0.04787456 -0.3309034 -0.07905876 -0.02364283 0.6826429 -0.07905876 -0.03758329 0.6826429 -0.2549218 -0.01346892 0.731709 -0.2549218 -0.0477572 0.731709 -0.4326848 -0.01346892 0.6943742 -0.4326848 -0.0477572 0.6943742 -0.5852845 -0.01026332 0.5763223 -0.5852845 -0.05096268 0.5763223 -0.6894895 -0.01026332 0.3955262 -0.6894895 -0.05096262 0.3955262 -0.7294352 -0.01026326 0.1795096 -0.7294352 -0.05096262 0.1795096 -0.6990401 -0.01026326 -0.03884017 -0.6990401 -0.05096262 -0.03884017</float_array>
          <technique_common>
            <accessor source="#Cylinder_001-mesh-positions-array" count="176" stride="3">
              <param name="X" type="float"/>
              <param name="Y" type="float"/>
              <param name="Z" type="float"/>
            </accessor>
          </technique_common>
        </source>
        <source id="Cylinder_001-mesh-normals">
          <float_array id="Cylinder_001-mesh-normals-array" count="528">0.5403841 -0.7286371 -0.4208004 0.3307235 0.7190482 -0.6112216 0.5403819 0.7286401 -0.420798 0.3307221 -0.7190461 -0.6112247 0.02230483 0.7144055 -0.6993764 -0.1354548 -0.7521284 -0.6449456 -0.1354528 0.7521379 -0.6449351 -0.7514306 0.5434418 0.3741966 -0.07439559 -0.7173521 0.6927274 -0.07440114 0.7173367 0.6927428 0.2872976 0.7000383 0.6537633 0.505425 -0.7298556 0.4602786 0.5054293 0.7298478 0.4602863 0.6390284 0.7330842 0.232874 0.6748207 -0.7378456 0.01417887 0.6748247 0.7378419 0.01417911 0.6456441 0.7361444 -0.2030647 0.6456463 -0.7361425 -0.2030644 -0.3465725 0.6863956 0.6393346 -0.3465743 -0.6863938 0.6393355 -0.5823243 -0.675137 0.452867 -0.02279591 0.691931 0.7216037 -0.02279669 -0.6919307 0.721604 0.1559042 0.6516677 0.7423094 0.02230471 -0.7144148 -0.6993669 -0.04917269 0.7263384 -0.6855761 -0.04917752 -0.726354 -0.6855593 -0.7514087 -0.5434543 0.3742226 -0.4221172 -0.5117192 -0.7483052 -0.3216654 0.6971418 -0.6407221 0.2872918 -0.7000436 0.6537602 -0.5609829 0.6848623 -0.4650396 -0.3216645 -0.6971379 -0.6407267 -0.6972596 0.6704277 -0.2536844 -0.5609753 -0.684875 -0.4650302 0.6390307 -0.7330822 0.2328739 -0.7465156 0.6651852 -0.01559543 -0.6972674 -0.6704186 -0.2536872 -0.7108491 0.6669066 0.2234483 -0.7108505 -0.6669061 0.2234454 -0.7465062 -0.6651958 -0.01559531 -0.5823218 0.6751383 0.4528683 -0.4221151 0.5117244 -0.7483029 -0.2907294 0.7864667 0.5449281 -0.488898 -0.7819821 0.3866299 -0.4888964 0.7819842 0.3866277 -0.03312754 0.7966836 0.6034882 -0.2907278 -0.7864651 0.5449313 -0.6718129 -0.5694329 0.4737233 -0.03312736 -0.7966908 0.6034786 -0.3707402 0.5587828 -0.7418312 -0.05614829 -0.7986286 -0.5991994 -0.3707377 -0.5587812 -0.7418336 -0.2739973 0.784116 -0.5568552 -0.05614191 0.7986171 -0.5992153 -0.4740688 -0.7894784 -0.3898496 -0.273992 -0.7841203 -0.5568518 -0.5847036 0.7818978 -0.2162352 -0.4740734 0.7894722 -0.3898566 -0.6262401 -0.7795219 -0.01300549 -0.5847056 -0.7818962 -0.2162357 -0.5966224 0.7794581 0.1910156 -0.6262443 0.7795184 -0.01300525 -0.5966239 -0.7794569 0.1910153 0.6039127 -0.6400004 -0.4750674 0.3642581 0.6372529 -0.6791354 0.6039111 0.6399996 -0.4750705 0.3642619 -0.6372538 -0.6791325 -0.6224429 0.5284387 -0.5773366 -0.8702555 0.4921328 -0.02146291 -0.8702554 -0.4921332 -0.02146136 -0.7665072 0.5439194 0.3414945 -0.05012154 -0.6496452 0.7585836 -0.05012142 0.6496384 0.7585893 0.3193643 0.6352522 0.7031792 0.5716537 -0.6411976 0.5119354 0.5716523 0.6411956 0.5119394 0.7222759 -0.638185 0.2665288 0.7222754 0.6381844 0.2665315 0.7682171 -0.6399758 0.01653808 0.7682222 0.6399698 0.01653838 0.7315323 0.6408932 -0.2326294 0.7315327 -0.6408936 -0.2326272 0.3193655 -0.6352471 0.7031834 -0.6718608 0.5694255 0.4736642 -0.6224694 -0.5284218 -0.5773234 -0.7665011 -0.5439285 0.3414937 -0.3307235 0.7190482 -0.6112216 -0.5403842 -0.7286371 -0.4208006 -0.5403819 0.7286401 -0.4207981 -0.02230477 0.7144055 -0.6993764 -0.3307221 -0.7190461 -0.6112248 0.135455 -0.7521284 -0.6449457 -0.02230471 -0.7144149 -0.6993668 0.7514306 0.5434418 0.3741966 0.07439547 -0.7173522 0.6927274 0.7514086 -0.5434542 0.3742227 -0.2872975 0.7000383 0.6537634 0.07440108 0.7173367 0.6927428 -0.505425 -0.7298555 0.4602787 -0.2872918 -0.7000436 0.6537602 -0.6390283 0.7330843 0.2328739 -0.5054293 0.7298477 0.4602863 -0.6748206 -0.7378456 0.01417887 -0.6390306 -0.7330823 0.2328739 -0.6456441 0.7361444 -0.2030646 -0.6748247 0.7378419 0.01417911 -0.6456463 -0.7361425 -0.2030644 0.3465725 0.6863956 0.6393345 0.5823216 0.6751384 0.4528684 0.3465744 -0.6863939 0.6393353 0.5823242 -0.675137 0.4528671 0.02279597 0.6919311 0.7216036 0.02279669 -0.6919308 0.7216039 0.1354529 0.7521381 -0.6449349 -0.1559042 0.6516676 0.7423094 -0.1559047 -0.6516655 0.7423112 0.04917269 0.7263384 -0.6855762 0.422115 0.5117243 -0.7483029 0.04917752 -0.726354 -0.6855593 0.4221172 -0.5117192 -0.7483052 0.3216656 0.6971419 -0.6407219 0.3216648 -0.697138 -0.6407266 0.5609829 0.6848623 -0.4650397 0.5609753 -0.684875 -0.4650303 0.6972595 0.6704277 -0.2536848 0.6972672 -0.6704186 -0.2536876 0.7465155 0.6651853 -0.01559537 0.7465062 -0.6651958 -0.01559525 0.7108491 0.6669066 0.2234486 0.7108505 -0.6669061 0.2234457 0.488898 -0.7819821 0.38663 0.2907294 0.7864667 0.5449281 0.4888964 0.7819842 0.3866277 0.2907278 -0.786465 0.5449314 0.03312754 0.7966836 0.6034882 0.6718126 -0.5694333 0.4737231 0.6718609 0.5694251 0.4736644 0.3707402 0.5587828 -0.7418312 0.05614823 -0.7986285 -0.5991994 0.05614191 0.7986171 -0.5992153 0.2739973 0.784116 -0.5568553 0.4740688 -0.7894784 -0.3898497 0.4740734 0.7894721 -0.3898566 0.5847036 0.7818978 -0.2162352 0.6262401 -0.7795219 -0.01300543 0.6262443 0.7795184 -0.01300525 0.5966224 0.7794581 0.1910156 0.596624 -0.7794569 0.1910153 -0.3642581 0.6372529 -0.6791354 -0.6039128 -0.6400004 -0.4750674 -0.6039112 0.6399996 -0.4750705 0.6224427 0.5284388 -0.5773367 -0.364262 -0.6372537 -0.6791325 0.8702557 0.4921326 -0.02146297 0.6224694 -0.5284218 -0.5773235 0.7665072 0.5439194 0.3414945 0.05012154 -0.6496452 0.7585836 0.7665011 -0.5439285 0.3414937 -0.3193642 0.6352522 0.7031792 0.05012142 0.6496384 0.7585893 -0.5716537 -0.6411975 0.5119354 -0.3193655 -0.6352472 0.7031834 -0.5716523 0.6411955 0.5119394 -0.7222759 -0.638185 0.2665288 -0.7222754 0.6381844 0.2665315 -0.7682171 -0.6399758 0.01653808 -0.7315323 0.6408932 -0.2326294 -0.7682221 0.6399698 0.01653838 -0.7315328 -0.6408935 -0.2326272 0.273992 -0.7841203 -0.5568518 0.03312736 -0.7966909 0.6034784 0.5847055 -0.7818961 -0.2162356 0.8702555 -0.4921331 -0.02146148 0.3707377 -0.5587812 -0.7418337 0.1559046 -0.6516653 0.7423113</float_array>
          <technique_common>
            <accessor source="#Cylinder_001-mesh-normals-array" count="176" stride="3">
              <param name="X" type="float"/>
              <param name="Y" type="float"/>
              <param name="Z" type="float"/>
            </accessor>
          </technique_common>
        </source>
        <source id="Cylinder_001-mesh-map-0">
          <float_array id="Cylinder_001-mesh-map-0-array" count="1992">0.2968577 0.9263007 0.3111654 0.8673998 0.2968577 0.8673998 0.3111654 0.9263007 0.3232949 0.8673998 0.3111654 0.8673998 0.318971 0.8673998 0.3068414 0.9263007 0.3068414 0.8673998 0.2825499 0.8673998 0.2704204 0.9263007 0.2704204 0.8673998 0.2660965 0.9263007 0.278226 0.8673998 0.2660965 0.8673998 0.278226 0.8673998 0.2925337 0.9263007 0.2925337 0.8673998 0.2925337 0.9263007 0.3068414 0.8673998 0.2925337 0.8673998 0.3068414 0.8673998 0.318971 0.9263007 0.318971 0.8673998 0.2704204 0.9263007 0.2825499 0.8673998 0.2704204 0.8673998 0.2825499 0.9263007 0.2968577 0.8673998 0.2825499 0.8673998 0.3045497 0.9411053 0.2217915 0.8714435 0.3226139 0.8714435 0.1064922 0.949677 0.187707 0.8813143 0.1841082 0.949677 0.3715999 0.9411053 0.3226139 0.8714435 0.408087 0.8714435 0.04069244 0.949677 0.08876484 0.8813143 0.1064922 0.949677 0.3374632 0.9411053 0.2921445 0.8714435 0.2704131 0.9411053 0.07419258 0.949677 0.1186661 0.8813143 0.03478699 0.8813143 0.07931762 0.9411054 0.1209691 0.8714435 0.03549599 0.8714435 0.3275238 0.9496769 0.2866492 0.8813143 0.2617242 0.9496769 0.1723294 0.915153 0.07139647 0.9604717 0.127528 0.9822031 0.1701809 0.9065245 0.08047431 0.9468026 0.1312333 0.8708364 0.1122311 0.9411054 0.1913221 0.8714435 0.1913221 0.9411054 0.2952242 0.9496769 0.2176082 0.8813143 0.3165504 0.8813143 0.1913221 0.9411054 0.2921445 0.8714435 0.2704131 0.9411054 0.2176082 0.9496769 0.1186661 0.8813143 0.2176082 0.8813143 0.1182268 0.8303458 0.1254073 0.9375503 0.169229 0.8973959 0.1086598 0.8710752 0.1095306 0.9663559 0.05877155 0.8903896 0.1463677 0.9411054 0.03549599 0.8714435 0.1209691 0.8714435 0.2617242 0.9496769 0.3705282 0.8813143 0.3275238 0.9496769 0.2254587 0.9411054 0.1209691 0.8714435 0.2217915 0.8714435 0.1841082 0.949677 0.2866492 0.8813143 0.2617242 0.9496769 0.2190228 0.8314349 0.1826371 0.9810649 0.1826371 0.8314349 0.1672249 0.8314349 0.2036104 0.9810648 0.2036104 0.8314349 0.1826371 0.8314349 0.1397174 0.9810649 0.1397174 0.8314349 0.1397174 0.8314349 0.09679764 0.9810649 0.09679764 0.8314349 0.09679764 0.8314349 0.06041204 0.9810649 0.09679764 0.9810649 0.08138537 0.831435 0.04499977 0.9810649 0.04499977 0.831435 0.08138537 0.831435 0.1243051 0.9810649 0.08138537 0.9810649 0.1672248 0.831435 0.1243051 0.9810649 0.1243051 0.831435 0.1672248 0.831435 0.2036104 0.9810649 0.1672248 0.9810649 0.09679764 0.8314349 0.06041204 0.9810649 0.06041204 0.831435 0.740082 0.2103026 0.8991442 0.2749153 0.7738058 0.3152078 0.7114923 0.1213682 0.8654204 0.1700102 0.740082 0.2103026 0.7216839 0.1530717 0.8756121 0.2017137 0.8470224 0.1127792 0.8075296 0.4201129 0.9614574 0.4687543 0.9328679 0.3798204 0.8177211 0.4518158 0.9716492 0.5004575 0.8463107 0.54075 0.8177211 0.4518158 0.9093359 0.3066187 0.9430595 0.4115234 0.7502737 0.2420062 0.9093359 0.3066187 0.7839974 0.3469112 0.7502737 0.2420062 0.8470224 0.1127792 0.8756121 0.2017137 0.8075296 0.4201129 0.9614574 0.4687543 0.8361191 0.5090467 0.7738058 0.3152078 0.9328679 0.3798204 0.8075296 0.4201129 0.8991442 0.2749153 0.740082 0.2103026 0.7738058 0.3152078 0.8654204 0.1700102 0.7114923 0.1213682 0.740082 0.2103026 0.7216839 0.1530717 0.8756121 0.2017137 0.7502737 0.2420062 0.8075296 0.4201129 0.9614574 0.4687543 0.8361191 0.5090467 0.9716492 0.5004575 0.8177211 0.4518158 0.8463107 0.54075 0.8177211 0.4518158 0.9093359 0.3066187 0.7839974 0.3469112 0.7839974 0.3469112 0.8756121 0.2017137 0.7502737 0.2420062 0.7502737 0.2420062 0.8470224 0.1127792 0.7216839 0.1530717 0.9614574 0.4687543 0.8075296 0.4201129 0.8361191 0.5090467 0.9328679 0.3798204 0.7738058 0.3152078 0.8075296 0.4201129 0.8463107 0.54075 0.8177211 0.4518158 0.8177211 0.4518158 0.740082 0.2103026 0.7738058 0.3152078 0.740082 0.2103026 0.9716492 0.5004575 0.9430595 0.4115234 0.9716492 0.5004575 0.7738058 0.3152078 0.8075296 0.4201129 0.7738058 0.3152078 0.8654204 0.1700102 0.8991442 0.2749153 0.8991442 0.2749153 0.8991442 0.2749153 0.9328679 0.3798204 0.9328679 0.3798204 0.8177211 0.4518158 0.7839974 0.3469112 0.7839974 0.3469112 0.9430595 0.4115234 0.9093359 0.3066187 0.9430595 0.4115234 0.7114923 0.1213682 0.740082 0.2103026 0.7114923 0.1213682 0.8368306 0.08107572 0.8654204 0.1700102 0.8654204 0.1700102 0.7839974 0.3469112 0.7502737 0.2420062 0.7502737 0.2420062 0.9093359 0.3066187 0.8756121 0.2017137 0.9093359 0.3066187 0.7216839 0.1530717 0.7502737 0.2420062 0.7502737 0.2420062 0.8470224 0.1127792 0.8756121 0.2017137 0.8470224 0.1127792 0.7216839 0.1530717 0.7502737 0.2420062 0.7216839 0.1530717 0.8756121 0.2017137 0.7502737 0.2420062 0.8756121 0.2017137 0.8470224 0.1127792 0.8756121 0.2017137 0.8756121 0.2017137 0.8075296 0.4201129 0.8361191 0.5090467 0.8361191 0.5090467 0.9328679 0.3798204 0.9614574 0.4687543 0.9328679 0.3798204 0.8075296 0.4201129 0.8361191 0.5090467 0.8075296 0.4201129 0.9328679 0.3798204 0.9614574 0.4687543 0.9614574 0.4687543 0.9328679 0.3798204 0.8075296 0.4201129 0.8075296 0.4201129 0.2866492 0.8813143 0.09679764 0.8314349 0.2617242 0.9496769 0.3111654 0.8673998 0.2968577 0.9263007 0.2968577 0.8673998 0.3232949 0.8673998 0.3111654 0.9263007 0.3111654 0.8673998 0.318971 0.8673998 0.3068414 0.9263007 0.318971 0.9263007 0.2825499 0.8673998 0.2704204 0.9263007 0.2825499 0.9263007 0.278226 0.8673998 0.2660965 0.9263007 0.2660965 0.8673998 0.278226 0.8673998 0.2925337 0.9263007 0.278226 0.9263007 0.3068414 0.8673998 0.2925337 0.9263007 0.2925337 0.8673998 0.3068414 0.8673998 0.318971 0.9263007 0.3068414 0.9263007 0.2825499 0.8673998 0.2704204 0.9263007 0.2704204 0.8673998 0.2968577 0.8673998 0.2825499 0.9263007 0.2825499 0.8673998 0.3045497 0.9411053 0.2217915 0.8714435 0.2254587 0.9411054 0.187707 0.8813143 0.1064922 0.949677 0.1841082 0.949677 0.3715999 0.9411053 0.3226139 0.8714435 0.3045497 0.9411053 0.08876484 0.8813143 0.04069244 0.949677 0.1064922 0.949677 0.2921445 0.8714435 0.3374632 0.9411053 0.2704131 0.9411053 0.07419258 0.949677 0.1186661 0.8813143 0.1399922 0.949677 0.07931762 0.9411054 0.1209691 0.8714435 0.1463677 0.9411054 0.2866492 0.8813143 0.3275238 0.9496769 0.2617242 0.9496769 0.07139647 0.9604717 0.1723294 0.915153 0.127528 0.9822031 0.1701809 0.9065245 0.08047431 0.9468026 0.1303625 0.9661169 0.1913221 0.8714435 0.1122311 0.9411054 0.1913221 0.9411054 0.2952242 0.9496769 0.2176082 0.8813143 0.2176082 0.9496769 0.2921445 0.8714435 0.1913221 0.9411054 0.2704131 0.9411054 0.2176082 0.9496769 0.1186661 0.8813143 0.1399922 0.9496769 0.1254073 0.9375503 0.1182268 0.8303458 0.169229 0.8973959 0.1086598 0.8710752 0.1095306 0.9663559 0.1484782 0.9306676 0.1463677 0.9411054 0.03549599 0.8714435 0.07931762 0.9411054 0.3705282 0.8813143 0.2617242 0.9496769 0.3275238 0.9496769 0.2254587 0.9411054 0.1209691 0.8714435 0.1463677 0.9411054 0.2866492 0.8813143 0.1841082 0.949677 0.2617242 0.9496769 0.1826371 0.9810649 0.2190228 0.8314349 0.1826371 0.8314349 0.2036104 0.9810648 0.1672249 0.8314349 0.2036104 0.8314349 0.1397174 0.9810649 0.1826371 0.8314349 0.1397174 0.8314349 0.09679764 0.9810649 0.1397174 0.8314349 0.09679764 0.8314349 0.09679764 0.8314349 0.06041204 0.9810649 0.06041204 0.831435 0.04499977 0.9810649 0.08138537 0.831435 0.04499977 0.831435 0.08138537 0.831435 0.1243051 0.9810649 0.1243051 0.831435 0.1243051 0.9810649 0.1672248 0.831435 0.1243051 0.831435 0.1672248 0.831435 0.2036104 0.9810649 0.2036104 0.831435 0.06041204 0.9810649 0.09679764 0.8314349 0.06041204 0.831435 0.8991442 0.2749153 0.740082 0.2103026 0.7738058 0.3152078 0.8654204 0.1700102 0.7114923 0.1213682 0.740082 0.2103026 0.7216839 0.1530717 0.8756121 0.2017137 0.7502737 0.2420062 0.8075296 0.4201129 0.9614574 0.4687543 0.8361191 0.5090467 0.9716492 0.5004575 0.8177211 0.4518158 0.8463107 0.54075 0.8177211 0.4518158 0.9093359 0.3066187 0.7839974 0.3469112 0.9093359 0.3066187 0.7502737 0.2420062 0.7839974 0.3469112 0.7502737 0.2420062 0.8470224 0.1127792 0.7216839 0.1530717 0.9614574 0.4687543 0.8075296 0.4201129 0.8361191 0.5090467 0.9328679 0.3798204 0.7738058 0.3152078 0.8075296 0.4201129 0.740082 0.2103026 0.8991442 0.2749153 0.7738058 0.3152078 0.7114923 0.1213682 0.8654204 0.1700102 0.740082 0.2103026 0.7216839 0.1530717 0.8756121 0.2017137 0.8470224 0.1127792 0.8075296 0.4201129 0.9614574 0.4687543 0.9328679 0.3798204 0.8177211 0.4518158 0.9716492 0.5004575 0.8463107 0.54075 0.8177211 0.4518158 0.9093359 0.3066187 0.9430595 0.4115234 0.7839974 0.3469112 0.8756121 0.2017137 0.9093359 0.3066187 0.7502737 0.2420062 0.8470224 0.1127792 0.8756121 0.2017137 0.8075296 0.4201129 0.9614574 0.4687543 0.8361191 0.5090467 0.7738058 0.3152078 0.9328679 0.3798204 0.8075296 0.4201129 0.8177211 0.4518158 0.8463107 0.54075 0.8177211 0.4518158 0.740082 0.2103026 0.7738058 0.3152078 0.7738058 0.3152078 0.9716492 0.5004575 0.9430595 0.4115234 0.9430595 0.4115234 0.7738058 0.3152078 0.8075296 0.4201129 0.8075296 0.4201129 0.8991442 0.2749153 0.8654204 0.1700102 0.8991442 0.2749153 0.9328679 0.3798204 0.8991442 0.2749153 0.9328679 0.3798204 0.7839974 0.3469112 0.8177211 0.4518158 0.7839974 0.3469112 0.9430595 0.4115234 0.9093359 0.3066187 0.9093359 0.3066187 0.7114923 0.1213682 0.740082 0.2103026 0.740082 0.2103026 0.8654204 0.1700102 0.8368306 0.08107572 0.8654204 0.1700102 0.7502737 0.2420062 0.7839974 0.3469112 0.7502737 0.2420062 0.9093359 0.3066187 0.8756121 0.2017137 0.8756121 0.2017137 0.7502737 0.2420062 0.7216839 0.1530717 0.7502737 0.2420062 0.8470224 0.1127792 0.8756121 0.2017137 0.8756121 0.2017137 0.7216839 0.1530717 0.7502737 0.2420062 0.7502737 0.2420062 0.8756121 0.2017137 0.7502737 0.2420062 0.7502737 0.2420062 0.8756121 0.2017137 0.8470224 0.1127792 0.8756121 0.2017137 0.8361191 0.5090467 0.8075296 0.4201129 0.8361191 0.5090467 0.9328679 0.3798204 0.9614574 0.4687543 0.9614574 0.4687543 0.8075296 0.4201129 0.8361191 0.5090467 0.8361191 0.5090467 0.9614574 0.4687543 0.9328679 0.3798204 0.9614574 0.4687543 0.8075296 0.4201129 0.9328679 0.3798204 0.8075296 0.4201129 0.2866492 0.8813143 0.09679764 0.8314349 0.1209691 0.8714435 0.2968577 0.9263007 0.3111654 0.9263007 0.3111654 0.8673998 0.3111654 0.9263007 0.3232949 0.9263007 0.3232949 0.8673998 0.318971 0.8673998 0.318971 0.9263007 0.3068414 0.9263007 0.2825499 0.8673998 0.2825499 0.9263007 0.2704204 0.9263007 0.2660965 0.9263007 0.278226 0.9263007 0.278226 0.8673998 0.278226 0.8673998 0.278226 0.9263007 0.2925337 0.9263007 0.2925337 0.9263007 0.3068414 0.9263007 0.3068414 0.8673998 0.3068414 0.8673998 0.3068414 0.9263007 0.318971 0.9263007 0.2704204 0.9263007 0.2825499 0.9263007 0.2825499 0.8673998 0.2825499 0.9263007 0.2968577 0.9263007 0.2968577 0.8673998 0.3045497 0.9411053 0.2254587 0.9411054 0.2217915 0.8714435 0.1064922 0.949677 0.08876484 0.8813143 0.187707 0.8813143 0.3715999 0.9411053 0.3045497 0.9411053 0.3226139 0.8714435 0.04069244 0.949677 0.004885792 0.8813143 0.08876484 0.8813143 0.3374632 0.9411053 0.3776176 0.8714435 0.2921445 0.8714435 0.07419258 0.949677 0.1399922 0.949677 0.1186661 0.8813143 0.07931762 0.9411054 0.1463677 0.9411054 0.1209691 0.8714435 0.3275238 0.9496769 0.3705282 0.8813143 0.2866492 0.8813143 0.1723294 0.915153 0.1285077 0.8749986 0.07139647 0.9604717 0.1701809 0.9065245 0.1303625 0.9661169 0.08047431 0.9468026 0.1122311 0.9411054 0.09049963 0.8714435 0.1913221 0.8714435 0.2952242 0.9496769 0.2176082 0.9496769 0.2176082 0.8813143 0.1913221 0.9411054 0.1913221 0.8714435 0.2921445 0.8714435 0.2176082 0.9496769 0.1399922 0.9496769 0.1186661 0.8813143 0.1182268 0.8303458 0.06829607 0.8520773 0.1254073 0.9375503 0.1086598 0.8710752 0.1484782 0.9306676 0.1095306 0.9663559 0.1463677 0.9411054 0.07931762 0.9411054 0.03549599 0.8714435 0.2617242 0.9496769 0.2866492 0.8813143 0.3705282 0.8813143 0.2254587 0.9411054 0.1463677 0.9411054 0.1209691 0.8714435 0.1841082 0.949677 0.187707 0.8813143 0.2866492 0.8813143 0.2190228 0.8314349 0.2190228 0.9810648 0.1826371 0.9810649 0.1672249 0.8314349 0.1672249 0.9810648 0.2036104 0.9810648 0.1826371 0.8314349 0.1826371 0.9810649 0.1397174 0.9810649 0.1397174 0.8314349 0.1397174 0.9810649 0.09679764 0.9810649 0.09679764 0.8314349 0.06041204 0.831435 0.06041204 0.9810649 0.08138537 0.831435 0.08138537 0.9810649 0.04499977 0.9810649 0.08138537 0.831435 0.1243051 0.831435 0.1243051 0.9810649 0.1672248 0.831435 0.1672248 0.9810649 0.1243051 0.9810649 0.1672248 0.831435 0.2036104 0.831435 0.2036104 0.9810649 0.09679764 0.8314349 0.09679764 0.9810649 0.06041204 0.9810649 0.740082 0.2103026 0.8654204 0.1700102 0.8991442 0.2749153 0.7114923 0.1213682 0.8368306 0.08107572 0.8654204 0.1700102 0.7216839 0.1530717 0.7502737 0.2420062 0.8756121 0.2017137 0.8075296 0.4201129 0.8361191 0.5090467 0.9614574 0.4687543 0.8177211 0.4518158 0.9430595 0.4115234 0.9716492 0.5004575 0.8177211 0.4518158 0.7839974 0.3469112 0.9093359 0.3066187 0.7502737 0.2420062 0.8756121 0.2017137 0.9093359 0.3066187 0.7502737 0.2420062 0.7216839 0.1530717 0.8470224 0.1127792 0.8075296 0.4201129 0.9328679 0.3798204 0.9614574 0.4687543 0.7738058 0.3152078 0.8991442 0.2749153 0.9328679 0.3798204 0.8991442 0.2749153 0.8654204 0.1700102 0.740082 0.2103026 0.8654204 0.1700102 0.8368306 0.08107572 0.7114923 0.1213682 0.7216839 0.1530717 0.8470224 0.1127792 0.8756121 0.2017137 0.8075296 0.4201129 0.9328679 0.3798204 0.9614574 0.4687543 0.9716492 0.5004575 0.9430595 0.4115234 0.8177211 0.4518158 0.8177211 0.4518158 0.9430595 0.4115234 0.9093359 0.3066187 0.7839974 0.3469112 0.9093359 0.3066187 0.8756121 0.2017137 0.7502737 0.2420062 0.8756121 0.2017137 0.8470224 0.1127792 0.9614574 0.4687543 0.9328679 0.3798204 0.8075296 0.4201129 0.9328679 0.3798204 0.8991442 0.2749153 0.7738058 0.3152078 0.8463107 0.54075 0.8463107 0.54075 0.8177211 0.4518158 0.740082 0.2103026 0.7738058 0.3152078 0.7738058 0.3152078 0.9716492 0.5004575 0.9430595 0.4115234 0.9430595 0.4115234 0.7738058 0.3152078 0.8075296 0.4201129 0.8075296 0.4201129 0.8654204 0.1700102 0.8654204 0.1700102 0.8991442 0.2749153 0.8991442 0.2749153 0.8991442 0.2749153 0.9328679 0.3798204 0.8177211 0.4518158 0.8177211 0.4518158 0.7839974 0.3469112 0.9430595 0.4115234 0.9093359 0.3066187 0.9093359 0.3066187 0.7114923 0.1213682 0.740082 0.2103026 0.740082 0.2103026 0.8368306 0.08107572 0.8368306 0.08107572 0.8654204 0.1700102 0.7839974 0.3469112 0.7839974 0.3469112 0.7502737 0.2420062 0.9093359 0.3066187 0.8756121 0.2017137 0.8756121 0.2017137 0.7216839 0.1530717 0.7216839 0.1530717 0.7502737 0.2420062 0.8470224 0.1127792 0.8756121 0.2017137 0.8756121 0.2017137 0.7216839 0.1530717 0.7502737 0.2420062 0.7502737 0.2420062 0.8756121 0.2017137 0.7502737 0.2420062 0.7502737 0.2420062 0.8470224 0.1127792 0.8470224 0.1127792 0.8756121 0.2017137 0.8075296 0.4201129 0.8075296 0.4201129 0.8361191 0.5090467 0.9328679 0.3798204 0.9614574 0.4687543 0.9614574 0.4687543 0.8075296 0.4201129 0.8361191 0.5090467 0.8361191 0.5090467 0.9328679 0.3798204 0.9328679 0.3798204 0.9614574 0.4687543 0.9328679 0.3798204 0.9328679 0.3798204 0.8075296 0.4201129 0.2866492 0.8813143 0.1209691 0.8714435 0.09679764 0.8314349 0.3111654 0.8673998 0.3111654 0.9263007 0.2968577 0.9263007 0.3232949 0.8673998 0.3232949 0.9263007 0.3111654 0.9263007 0.318971 0.8673998 0.3068414 0.8673998 0.3068414 0.9263007 0.2825499 0.8673998 0.2704204 0.8673998 0.2704204 0.9263007 0.278226 0.8673998 0.278226 0.9263007 0.2660965 0.9263007 0.278226 0.8673998 0.2925337 0.8673998 0.2925337 0.9263007 0.3068414 0.8673998 0.3068414 0.9263007 0.2925337 0.9263007 0.3068414 0.8673998 0.318971 0.8673998 0.318971 0.9263007 0.2825499 0.8673998 0.2825499 0.9263007 0.2704204 0.9263007 0.2968577 0.8673998 0.2968577 0.9263007 0.2825499 0.9263007 0.3045497 0.9411053 0.3226139 0.8714435 0.2217915 0.8714435 0.187707 0.8813143 0.08876484 0.8813143 0.1064922 0.949677 0.3715999 0.9411053 0.408087 0.8714435 0.3226139 0.8714435 0.08876484 0.8813143 0.004885792 0.8813143 0.04069244 0.949677 0.2921445 0.8714435 0.3776176 0.8714435 0.3374632 0.9411053 0.07419258 0.949677 0.03478699 0.8813143 0.1186661 0.8813143 0.07931762 0.9411054 0.03549599 0.8714435 0.1209691 0.8714435 0.2866492 0.8813143 0.3705282 0.8813143 0.3275238 0.9496769 0.07139647 0.9604717 0.1285077 0.8749986 0.1723294 0.915153 0.1701809 0.9065245 0.1312333 0.8708364 0.08047431 0.9468026 0.1913221 0.8714435 0.09049963 0.8714435 0.1122311 0.9411054 0.2952242 0.9496769 0.3165504 0.8813143 0.2176082 0.8813143 0.2921445 0.8714435 0.1913221 0.8714435 0.1913221 0.9411054 0.2176082 0.9496769 0.2176082 0.8813143 0.1186661 0.8813143 0.1254073 0.9375503 0.06829607 0.8520773 0.1182268 0.8303458 0.1086598 0.8710752 0.05877155 0.8903896 0.1095306 0.9663559 0.1463677 0.9411054 0.1209691 0.8714435 0.03549599 0.8714435 0.3705282 0.8813143 0.2866492 0.8813143 0.2617242 0.9496769 0.2254587 0.9411054 0.2217915 0.8714435 0.1209691 0.8714435 0.2866492 0.8813143 0.187707 0.8813143 0.1841082 0.949677 0.1826371 0.9810649 0.2190228 0.9810648 0.2190228 0.8314349 0.2036104 0.9810648 0.1672249 0.9810648 0.1672249 0.8314349 0.1397174 0.9810649 0.1826371 0.9810649 0.1826371 0.8314349 0.09679764 0.9810649 0.1397174 0.9810649 0.1397174 0.8314349 0.09679764 0.8314349 0.09679764 0.9810649 0.06041204 0.9810649 0.04499977 0.9810649 0.08138537 0.9810649 0.08138537 0.831435 0.08138537 0.831435 0.08138537 0.9810649 0.1243051 0.9810649 0.1243051 0.9810649 0.1672248 0.9810649 0.1672248 0.831435 0.1672248 0.831435 0.1672248 0.9810649 0.2036104 0.9810649 0.06041204 0.9810649 0.09679764 0.9810649 0.09679764 0.8314349 0.8991442 0.2749153 0.8654204 0.1700102 0.740082 0.2103026 0.8654204 0.1700102 0.8368306 0.08107572 0.7114923 0.1213682 0.7216839 0.1530717 0.8470224 0.1127792 0.8756121 0.2017137 0.8075296 0.4201129 0.9328679 0.3798204 0.9614574 0.4687543 0.9716492 0.5004575 0.9430595 0.4115234 0.8177211 0.4518158 0.8177211 0.4518158 0.9430595 0.4115234 0.9093359 0.3066187 0.9093359 0.3066187 0.8756121 0.2017137 0.7502737 0.2420062 0.7502737 0.2420062 0.8756121 0.2017137 0.8470224 0.1127792 0.9614574 0.4687543 0.9328679 0.3798204 0.8075296 0.4201129 0.9328679 0.3798204 0.8991442 0.2749153 0.7738058 0.3152078 0.740082 0.2103026 0.8654204 0.1700102 0.8991442 0.2749153 0.7114923 0.1213682 0.8368306 0.08107572 0.8654204 0.1700102 0.7216839 0.1530717 0.7502737 0.2420062 0.8756121 0.2017137 0.8075296 0.4201129 0.8361191 0.5090467 0.9614574 0.4687543 0.8177211 0.4518158 0.9430595 0.4115234 0.9716492 0.5004575 0.8177211 0.4518158 0.7839974 0.3469112 0.9093359 0.3066187 0.7839974 0.3469112 0.7502737 0.2420062 0.8756121 0.2017137 0.7502737 0.2420062 0.7216839 0.1530717 0.8470224 0.1127792 0.8075296 0.4201129 0.9328679 0.3798204 0.9614574 0.4687543 0.7738058 0.3152078 0.8991442 0.2749153 0.9328679 0.3798204 0.8177211 0.4518158 0.8463107 0.54075 0.8463107 0.54075 0.740082 0.2103026 0.740082 0.2103026 0.7738058 0.3152078 0.9716492 0.5004575 0.9716492 0.5004575 0.9430595 0.4115234 0.7738058 0.3152078 0.7738058 0.3152078 0.8075296 0.4201129 0.8991442 0.2749153 0.8654204 0.1700102 0.8654204 0.1700102 0.9328679 0.3798204 0.8991442 0.2749153 0.8991442 0.2749153 0.7839974 0.3469112 0.8177211 0.4518158 0.8177211 0.4518158 0.9430595 0.4115234 0.9430595 0.4115234 0.9093359 0.3066187 0.7114923 0.1213682 0.7114923 0.1213682 0.740082 0.2103026 0.8654204 0.1700102 0.8368306 0.08107572 0.8368306 0.08107572 0.7502737 0.2420062 0.7839974 0.3469112 0.7839974 0.3469112 0.9093359 0.3066187 0.9093359 0.3066187 0.8756121 0.2017137 0.7502737 0.2420062 0.7216839 0.1530717 0.7216839 0.1530717 0.8470224 0.1127792 0.8470224 0.1127792 0.8756121 0.2017137 0.7216839 0.1530717 0.7216839 0.1530717 0.7502737 0.2420062 0.8756121 0.2017137 0.8756121 0.2017137 0.7502737 0.2420062 0.8756121 0.2017137 0.8470224 0.1127792 0.8470224 0.1127792 0.8361191 0.5090467 0.8075296 0.4201129 0.8075296 0.4201129 0.9328679 0.3798204 0.9328679 0.3798204 0.9614574 0.4687543 0.8075296 0.4201129 0.8075296 0.4201129 0.8361191 0.5090467 0.9614574 0.4687543 0.9328679 0.3798204 0.9328679 0.3798204 0.8075296 0.4201129 0.9328679 0.3798204 0.9328679 0.3798204 0.2866492 0.8813143 0.2617242 0.9496769 0.09679764 0.8314349</float_array>
          <technique_common>
            <accessor source="#Cylinder_001-mesh-map-0-array" count="996" stride="2">
              <param name="S" type="float"/>
              <param name="T" type="float"/>
            </accessor>
          </technique_common>
        </source>
        <vertices id="Cylinder_001-mesh-vertices">
          <input semantic="POSITION" source="#Cylinder_001-mesh-positions"/>
        </vertices>
        <triangles material="Material_001-material" count="332">
          <input semantic="VERTEX" source="#Cylinder_001-mesh-vertices" offset="0"/>
          <input semantic="NORMAL" source="#Cylinder_001-mesh-normals" offset="1"/>
          <input semantic="TEXCOORD" source="#Cylinder_001-mesh-map-0" offset="2" set="0"/>
          <p>25 0 0 23 1 1 22 2 2 24 3 3 26 4 4 23 1 5 26 4 6 29 5 7 28 6 8 30 7 9 33 8 10 32 9 11 33 8 12 34 10 13 32 9 14 34 10 15 37 11 16 36 12 17 37 11 18 38 13 19 36 12 20 38 13 21 41 14 22 40 15 23 41 14 24 42 16 25 40 15 26 43 17 27 22 2 28 42 16 29 2 18 30 22 2 31 23 1 32 3 19 33 25 0 34 1 20 35 4 21 36 23 1 37 26 4 38 5 22 39 24 3 40 3 19 41 4 21 42 28 6 43 6 23 44 5 22 45 29 5 46 27 24 47 10 25 48 30 7 49 32 9 50 11 26 51 31 27 52 9 28 53 10 25 54 34 10 55 12 29 56 11 26 57 35 30 58 33 8 59 12 29 60 36 12 61 14 31 62 13 32 63 37 11 64 35 30 65 14 31 66 38 13 67 16 33 68 15 34 69 39 35 70 37 11 71 16 33 72 40 15 73 18 36 74 17 37 75 41 14 76 39 35 77 20 38 78 40 15 79 42 16 80 21 39 81 41 14 82 19 40 83 0 41 84 42 16 85 22 2 86 1 20 87 43 17 88 21 39 89 4 21 90 3 19 91 2 18 92 6 23 93 5 22 94 4 21 95 2 18 96 1 20 97 0 41 98 0 41 99 21 39 100 20 38 101 8 42 102 11 26 103 9 28 104 12 29 105 11 26 106 10 25 107 12 29 108 15 34 109 13 32 110 16 33 111 15 34 112 14 31 113 16 33 114 19 40 115 17 37 116 20 38 117 19 40 118 18 36 119 45 43 120 47 44 121 44 45 122 48 46 123 46 47 124 45 43 125 48 46 126 51 48 127 49 49 128 52 50 129 55 51 130 53 52 131 56 53 132 55 51 133 54 54 134 56 53 135 59 55 136 57 56 137 60 57 138 59 55 139 58 58 140 60 57 141 63 59 142 61 60 143 64 61 144 63 59 145 62 62 146 44 45 147 65 63 148 64 61 149 69 64 150 67 65 151 66 66 152 68 67 153 70 68 154 67 65 155 70 68 156 73 69 157 72 70 158 74 71 159 77 72 160 76 73 161 77 72 162 78 74 163 76 73 164 78 74 165 81 75 166 80 76 167 80 76 168 83 77 169 82 78 170 82 78 171 85 79 172 84 80 173 85 79 174 86 81 175 84 80 176 87 82 177 66 66 178 86 81 179 54 54 180 78 74 181 56 53 182 45 43 183 66 66 184 67 65 185 55 51 186 79 83 187 77 72 188 44 45 189 86 81 190 66 66 191 46 47 192 69 64 193 47 44 194 47 44 195 87 82 196 65 63 197 56 53 198 80 76 199 58 58 200 57 56 201 81 75 202 79 83 203 48 46 204 67 65 205 70 68 206 49 49 207 68 67 208 46 47 209 58 58 210 82 78 211 60 57 212 59 55 213 83 77 214 81 75 215 48 46 216 72 70 217 50 84 218 49 49 219 73 69 220 71 85 221 62 62 222 82 78 223 84 80 224 51 48 225 72 70 226 73 69 227 63 59 228 83 77 229 61 60 230 52 50 231 76 73 232 54 54 233 53 52 234 77 72 235 75 86 236 64 61 237 84 80 238 86 81 239 65 63 240 85 79 241 63 59 242 53 52 243 74 71 244 52 50 245 31 27 246 8 42 247 9 28 248 111 87 249 113 88 250 110 89 251 114 90 252 112 91 253 111 87 254 114 90 255 117 92 256 115 93 257 118 94 258 121 95 259 119 96 260 122 97 261 121 95 262 120 98 263 122 97 264 125 99 265 123 100 266 126 101 267 125 99 268 124 102 269 126 101 270 129 103 271 127 104 272 130 105 273 129 103 274 128 106 275 110 89 276 131 107 277 130 105 278 90 108 279 110 89 280 88 109 281 113 88 282 91 110 283 89 111 284 92 112 285 111 87 286 90 108 287 112 91 288 93 113 289 91 110 290 116 114 291 92 112 292 94 115 293 93 113 294 117 92 295 95 116 296 98 117 297 118 94 298 96 118 299 119 96 300 99 119 301 97 120 302 122 97 303 98 117 304 100 121 305 99 119 306 123 100 307 101 122 308 124 102 309 100 121 310 102 123 311 101 122 312 125 99 313 103 124 314 126 101 315 102 123 316 104 125 317 103 124 318 127 104 319 105 126 320 128 106 321 104 125 322 106 127 323 105 126 324 129 103 325 107 128 326 108 129 327 128 106 328 106 127 329 129 103 330 109 130 331 107 128 332 88 109 333 130 105 334 108 129 335 131 107 336 89 111 337 109 130 338 91 110 339 92 112 340 90 108 341 93 113 342 94 115 343 92 112 344 89 111 345 90 108 346 88 109 347 109 130 348 88 109 349 108 129 350 96 118 351 99 119 352 98 117 353 99 119 354 100 121 355 98 117 356 100 121 357 103 124 358 102 123 359 103 124 360 104 125 361 102 123 362 104 125 363 107 128 364 106 127 365 107 128 366 108 129 367 106 127 368 135 131 369 133 132 370 132 133 371 134 134 372 136 135 373 133 132 374 136 135 375 139 136 376 138 137 377 140 138 378 143 139 379 142 140 380 143 139 381 144 141 382 142 140 383 144 141 384 147 142 385 146 143 386 147 142 387 148 144 388 146 143 389 148 144 390 151 145 391 150 146 392 151 145 393 152 147 394 150 146 395 153 148 396 132 133 397 152 147 398 155 149 399 157 150 400 154 151 401 158 152 402 156 153 403 155 149 404 158 152 405 161 154 406 159 155 407 162 156 408 165 157 409 163 158 410 166 159 411 165 157 412 164 160 413 166 159 414 169 161 415 167 162 416 168 163 417 171 164 418 169 161 419 170 165 420 173 166 421 171 164 422 174 167 423 173 166 424 172 168 425 154 151 426 175 169 427 174 167 428 166 159 429 142 140 430 144 141 431 133 132 432 154 151 433 132 133 434 143 139 435 167 162 436 145 170 437 132 133 438 174 167 439 152 147 440 157 150 441 134 134 442 135 131 443 175 169 444 135 131 445 153 148 446 168 163 447 144 141 448 146 143 449 145 170 450 169 161 451 147 142 452 136 135 453 155 149 454 133 132 455 156 153 456 137 171 457 134 134 458 170 165 459 146 143 460 148 144 461 147 142 462 171 164 463 149 172 464 160 173 465 136 135 466 138 137 467 137 171 468 161 154 469 139 136 470 150 146 471 170 165 472 148 144 473 139 136 474 160 173 475 138 137 476 171 164 477 151 145 478 149 172 479 164 160 480 140 138 481 142 140 482 141 174 483 165 157 484 143 139 485 152 147 486 172 168 487 150 146 488 173 166 489 153 148 490 151 145 491 162 156 492 141 174 493 140 138 494 119 96 495 96 118 496 118 94 497 25 0 498 24 3 499 23 1 500 24 3 501 27 24 502 26 4 503 26 4 504 27 24 505 29 5 506 30 7 507 31 27 508 33 8 509 33 8 510 35 30 511 34 10 512 34 10 513 35 30 514 37 11 515 37 11 516 39 35 517 38 13 518 38 13 519 39 35 520 41 14 521 41 14 522 43 17 523 42 16 524 43 17 525 25 0 526 22 2 527 2 18 528 0 41 529 22 2 530 3 19 531 24 3 532 25 0 533 4 21 534 2 18 535 23 1 536 5 22 537 27 24 538 24 3 539 4 21 540 26 4 541 28 6 542 5 22 543 7 175 544 29 5 545 10 25 546 8 42 547 30 7 548 11 26 549 33 8 550 31 27 551 10 25 552 32 9 553 34 10 554 11 26 555 13 32 556 35 30 557 12 29 558 34 10 559 36 12 560 13 32 561 15 34 562 37 11 563 14 31 564 36 12 565 38 13 566 15 34 567 17 37 568 39 35 569 16 33 570 38 13 571 40 15 572 17 37 573 19 40 574 41 14 575 20 38 576 18 36 577 40 15 578 21 39 579 43 17 580 41 14 581 0 41 582 20 38 583 42 16 584 1 20 585 25 0 586 43 17 587 4 21 588 5 22 589 3 19 590 6 23 591 7 175 592 5 22 593 2 18 594 3 19 595 1 20 596 0 41 597 1 20 598 21 39 599 8 42 600 10 25 601 11 26 602 12 29 603 13 32 604 11 26 605 12 29 606 14 31 607 15 34 608 16 33 609 17 37 610 15 34 611 16 33 612 18 36 613 19 40 614 20 38 615 21 39 616 19 40 617 45 43 618 46 47 619 47 44 620 48 46 621 49 49 622 46 47 623 48 46 624 50 84 625 51 48 626 52 50 627 54 54 628 55 51 629 56 53 630 57 56 631 55 51 632 56 53 633 58 58 634 59 55 635 60 57 636 61 60 637 59 55 638 60 57 639 62 62 640 63 59 641 64 61 642 65 63 643 63 59 644 44 45 645 47 44 646 65 63 647 69 64 648 68 67 649 67 65 650 68 67 651 71 85 652 70 68 653 70 68 654 71 85 655 73 69 656 74 71 657 75 86 658 77 72 659 77 72 660 79 83 661 78 74 662 78 74 663 79 83 664 81 75 665 80 76 666 81 75 667 83 77 668 82 78 669 83 77 670 85 79 671 85 79 672 87 82 673 86 81 674 87 82 675 69 64 676 66 66 677 54 54 678 76 73 679 78 74 680 45 43 681 44 45 682 66 66 683 55 51 684 57 56 685 79 83 686 44 45 687 64 61 688 86 81 689 46 47 690 68 67 691 69 64 692 47 44 693 69 64 694 87 82 695 56 53 696 78 74 697 80 76 698 57 56 699 59 55 700 81 75 701 48 46 702 45 43 703 67 65 704 49 49 705 71 85 706 68 67 707 58 58 708 80 76 709 82 78 710 59 55 711 61 60 712 83 77 713 48 46 714 70 68 715 72 70 716 49 49 717 51 48 718 73 69 719 62 62 720 60 57 721 82 78 722 51 48 723 50 84 724 72 70 725 63 59 726 85 79 727 83 77 728 52 50 729 74 71 730 76 73 731 53 52 732 55 51 733 77 72 734 64 61 735 62 62 736 84 80 737 65 63 738 87 82 739 85 79 740 53 52 741 75 86 742 74 71 743 31 27 744 30 7 745 8 42 746 111 87 747 112 91 748 113 88 749 114 90 750 115 93 751 112 91 752 114 90 753 116 114 754 117 92 755 118 94 756 120 98 757 121 95 758 122 97 759 123 100 760 121 95 761 122 97 762 124 102 763 125 99 764 126 101 765 127 104 766 125 99 767 126 101 768 128 106 769 129 103 770 130 105 771 131 107 772 129 103 773 110 89 774 113 88 775 131 107 776 90 108 777 111 87 778 110 89 779 113 88 780 112 91 781 91 110 782 92 112 783 114 90 784 111 87 785 112 91 786 115 93 787 93 113 788 116 114 789 114 90 790 92 112 791 93 113 792 115 93 793 117 92 794 98 117 795 120 98 796 118 94 797 119 96 798 121 95 799 99 119 800 122 97 801 120 98 802 98 117 803 99 119 804 121 95 805 123 100 806 124 102 807 122 97 808 100 121 809 101 122 810 123 100 811 125 99 812 126 101 813 124 102 814 102 123 815 103 124 816 125 99 817 127 104 818 128 106 819 126 101 820 104 125 821 105 126 822 127 104 823 129 103 824 108 129 825 130 105 826 128 106 827 129 103 828 131 107 829 109 130 830 88 109 831 110 89 832 130 105 833 131 107 834 113 88 835 89 111 836 91 110 837 93 113 838 92 112 839 93 113 840 95 116 841 94 115 842 89 111 843 91 110 844 90 108 845 109 130 846 89 111 847 88 109 848 96 118 849 97 120 850 99 119 851 99 119 852 101 122 853 100 121 854 100 121 855 101 122 856 103 124 857 103 124 858 105 126 859 104 125 860 104 125 861 105 126 862 107 128 863 107 128 864 109 130 865 108 129 866 135 131 867 134 134 868 133 132 869 134 134 870 137 171 871 136 135 872 136 135 873 137 171 874 139 136 875 140 138 876 141 174 877 143 139 878 143 139 879 145 170 880 144 141 881 144 141 882 145 170 883 147 142 884 147 142 885 149 172 886 148 144 887 148 144 888 149 172 889 151 145 890 151 145 891 153 148 892 152 147 893 153 148 894 135 131 895 132 133 896 155 149 897 156 153 898 157 150 899 158 152 900 159 155 901 156 153 902 158 152 903 160 173 904 161 154 905 162 156 906 164 160 907 165 157 908 166 159 909 167 162 910 165 157 911 166 159 912 168 163 913 169 161 914 168 163 915 170 165 916 171 164 917 170 165 918 172 168 919 173 166 920 174 167 921 175 169 922 173 166 923 154 151 924 157 150 925 175 169 926 166 159 927 164 160 928 142 140 929 133 132 930 155 149 931 154 151 932 143 139 933 165 157 934 167 162 935 132 133 936 154 151 937 174 167 938 157 150 939 156 153 940 134 134 941 175 169 942 157 150 943 135 131 944 168 163 945 166 159 946 144 141 947 145 170 948 167 162 949 169 161 950 136 135 951 158 152 952 155 149 953 156 153 954 159 155 955 137 171 956 170 165 957 168 163 958 146 143 959 147 142 960 169 161 961 171 164 962 160 173 963 158 152 964 136 135 965 137 171 966 159 155 967 161 154 968 150 146 969 172 168 970 170 165 971 139 136 972 161 154 973 160 173 974 171 164 975 173 166 976 151 145 977 164 160 978 162 156 979 140 138 980 141 174 981 163 158 982 165 157 983 152 147 984 174 167 985 172 168 986 173 166 987 175 169 988 153 148 989 162 156 990 163 158 991 141 174 992 119 96 993 97 120 994 96 118 995</p>
        </triangles>
      </mesh>
    </geometry>
  </library_geometries>
  <library_visual_scenes>
    <visual_scene id="Scene" name="Scene">
      <node id="anc_greek_crested_03" name="anc_greek_crested_03" type="NODE">
        <matrix sid="transform">1 0 0 0 0 1 0 0 0 0 1 0 0 0 0 1</matrix>
        <instance_geometry url="#Cylinder_001-mesh" name="anc_greek_crested_03">
          <bind_material>
            <technique_common>
              <instance_material symbol="Material_001-material" target="#Material_001-material">
                <bind_vertex_input semantic="UVMap" input_semantic="TEXCOORD" input_set="0"/>
              </instance_material>
            </technique_common>
          </bind_material>
        </instance_geometry>
      </node>
    </visual_scene>
  </library_visual_scenes>
  <scene>
    <instance_visual_scene url="#Scene"/>
  </scene>
</COLLADA>