<?xml version="1.0" encoding="utf-8"?>
<COLLADA xmlns="http://www.collada.org/2005/11/COLLADASchema" version="1.4.1" xmlns:xsi="http://www.w3.org/2001/XMLSchema-instance">
  <asset>
    <contributor>
      <author>Blender User</author>
      <authoring_tool>Blender 4.3.1 commit date:2024-12-10, commit time:07:46, hash:33d812126174</authoring_tool>
    </contributor>
    <created>2026-04-07T10:19:05</created>
    <modified>2026-04-07T10:19:05</modified>
    <unit name="inch" meter="0.0254"/>
    <up_axis>Z_UP</up_axis>
  </asset>
  <library_effects>
    <effect id="Render_001-effect">
      <profile_COMMON>
        <newparam sid="boar_tusk_helmet_png-surface">
          <surface type="2D">
            <init_from>boar_tusk_helmet_png</init_from>
          </surface>
        </newparam>
        <newparam sid="boar_tusk_helmet_png-sampler">
          <sampler2D>
            <source>boar_tusk_helmet_png-surface</source>
          </sampler2D>
        </newparam>
        <technique sid="common">
          <lambert>
            <emission>
              <color sid="emission">0 0 0 1</color>
            </emission>
            <diffuse>
              <texture texture="boar_tusk_helmet_png-sampler" texcoord="Bull_001-mesh-map-0"/>
            </diffuse>
            <reflectivity>
              <float sid="specular">0.5</float>
            </reflectivity>
            <index_of_refraction>
              <float sid="ior">1.45</float>
            </index_of_refraction>
          </lambert>
        </technique>
      </profile_COMMON>
    </effect>
  </library_effects>
  <library_images>
    <image id="boar_tusk_helmet_png" name="boar_tusk_helmet_png">
      <init_from>/home/welton/Downloads/boar_tusk_helmet.png</init_from>
    </image>
  </library_images>
  <library_materials>
    <material id="Render_001-material" name="Render.001">
      <instance_effect url="#Render_001-effect"/>
    </material>
  </library_materials>
  <library_geometries>
    <geometry id="Bull_002-mesh" name="Bull.002">
      <mesh>
        <source id="Bull_002-mesh-positions">
          <float_array id="Bull_002-mesh-positions-array" count="180">-0.2152141 -0.2308204 0.06828826 -0.2482023 -0.2713899 0.09250712 -0.2325451 -0.2705485 0.08005613 -0.2413868 -0.2530652 0.02451008 -0.1898235 -0.2177994 -0.002243518 -0.1602695 -0.09839826 -0.03568828 -0.1712207 -0.1412197 0.002137601 -0.2413498 -0.2183522 0.03498816 -0.1425567 -0.161821 -0.01610928 -0.2104246 -0.1571274 -0.05165493 -0.02299028 -0.1105338 -0.0529288 -0.05015951 -0.06723463 -0.0283125 -0.09561085 -0.1575146 -0.07716614 -0.1894109 -0.1925777 -0.06028372 -0.05619645 -0.1094616 -0.1228955 0.2152141 -0.2308204 0.06828826 0.2482023 -0.2713899 0.09250712 0.2325451 -0.2705485 0.08005613 0.2413868 -0.2530652 0.02451008 0.1898235 -0.2177994 -0.002243518 0.1602695 -0.09839826 -0.03568828 0.1712207 -0.1412197 0.002137601 0.2413498 -0.2183522 0.03498816 0.1425567 -0.161821 -0.01610928 0.2104246 -0.1571274 -0.05165493 0.02299028 -0.1105338 -0.0529288 0.05015951 -0.06723463 -0.0283125 0.09561085 -0.1575146 -0.07716614 0.1894109 -0.1925777 -0.06028372 0.05619645 -0.1094616 -0.1228955 -0.2152141 0.2308204 0.06828826 -0.2482023 0.2713899 0.09250712 -0.2325451 0.2705485 0.08005613 -0.2413868 0.2530652 0.02451008 -0.1898235 0.2177994 -0.002243518 -0.1602695 0.09839826 -0.03568828 -0.1712207 0.1412197 0.002137601 -0.2413498 0.2183522 0.03498816 -0.1425567 0.161821 -0.01610928 -0.2104246 0.1571274 -0.05165493 -0.02299028 0.1105338 -0.0529288 -0.05015951 0.06723463 -0.0283125 -0.09561085 0.1575146 -0.07716614 -0.1894109 0.1925777 -0.06028372 -0.05619645 0.1094616 -0.1228955 0.2152141 0.2308204 0.06828826 0.2482023 0.2713899 0.09250712 0.2325451 0.2705485 0.08005613 0.2413868 0.2530652 0.02451008 0.1898235 0.2177994 -0.002243518 0.1602695 0.09839826 -0.03568828 0.1712207 0.1412197 0.002137601 0.2413498 0.2183522 0.03498816 0.1425567 0.161821 -0.01610928 0.2104246 0.1571274 -0.05165493 0.02299028 0.1105338 -0.0529288 0.05015951 0.06723463 -0.0283125 0.09561085 0.1575146 -0.07716614 0.1894109 0.1925777 -0.06028372 0.05619645 0.1094616 -0.1228955</float_array>
          <technique_common>
            <accessor source="#Bull_002-mesh-positions-array" count="60" stride="3">
              <param name="X" type="float"/>
              <param name="Y" type="float"/>
              <param name="Z" type="float"/>
            </accessor>
          </technique_common>
        </source>
        <source id="Bull_002-mesh-normals">
          <float_array id="Bull_002-mesh-normals-array" count="180">-0.3152831 -0.03898221 -0.9481967 -0.2390844 -0.5926299 -0.769174 -0.8089098 0.3167929 -0.4952851 0.6084145 -0.7874968 -0.09838956 0.4354767 0.311025 0.8447625 0.5202711 -0.7997217 0.2996051 -0.5398747 -0.6990663 -0.4688727 -0.462731 -0.4497135 0.763962 0.4376555 -0.4755452 0.7630953 0.6286309 -0.3658468 0.6862794 0.3777171 -0.8997938 -0.2184057 -0.8740646 0.4427353 0.1999912 0.2978897 -0.09656429 0.9497037 0.006584107 0.4892286 0.8721309 -0.5501774 0.8256555 0.1248915 0.3152831 -0.03898221 -0.9481967 0.8089098 0.3167929 -0.4952851 0.2390844 -0.5926299 -0.7691739 -0.6084145 -0.7874968 -0.09838956 -0.5202711 -0.7997217 0.2996051 -0.4354767 0.311025 0.8447624 0.5398748 -0.6990664 -0.4688727 0.462731 -0.4497135 0.7639619 -0.4376555 -0.4755452 0.7630953 -0.3777171 -0.8997938 -0.2184056 -0.6286309 -0.3658468 0.6862794 0.8740646 0.4427353 0.1999912 -0.006584107 0.4892285 0.8721308 -0.2978897 -0.09656429 0.9497037 0.5501774 0.8256555 0.1248915 -0.3152831 0.03898221 -0.9481967 -0.8089098 -0.3167929 -0.4952851 -0.2390844 0.5926299 -0.7691739 0.6084145 0.7874968 -0.09838956 0.5202711 0.7997217 0.2996051 0.4354767 -0.311025 0.8447624 -0.5398748 0.6990664 -0.4688727 -0.462731 0.4497135 0.7639619 0.4376555 0.4755452 0.7630953 0.3777171 0.8997938 -0.2184056 0.6286309 0.3658468 0.6862794 -0.8740646 -0.4427353 0.1999912 0.006584107 -0.4892285 0.8721308 0.2978897 0.09656429 0.9497037 -0.5501774 -0.8256555 0.1248915 0.3152831 0.03898221 -0.9481967 0.2390844 0.5926299 -0.769174 0.8089098 -0.3167929 -0.4952851 -0.6084145 0.7874968 -0.09838956 -0.4354767 -0.311025 0.8447625 -0.5202711 0.7997217 0.2996051 0.5398747 0.6990663 -0.4688727 0.462731 0.4497135 0.763962 -0.4376555 0.4755452 0.7630953 -0.6286309 0.3658468 0.6862794 -0.3777171 0.8997938 -0.2184057 0.8740646 -0.4427353 0.1999912 -0.2978897 0.09656429 0.9497037 -0.006584107 -0.4892286 0.8721309 0.5501774 -0.8256555 0.1248915</float_array>
          <technique_common>
            <accessor source="#Bull_002-mesh-normals-array" count="60" stride="3">
              <param name="X" type="float"/>
              <param name="Y" type="float"/>
              <param name="Z" type="float"/>
            </accessor>
          </technique_common>
        </source>
        <source id="Bull_002-mesh-map-0">
          <float_array id="Bull_002-mesh-map-0-array" count="552">0.8771834 0.6932576 0.8734739 0.8292624 0.8819797 0.8232541 0.8817551 0.8818657 0.8912052 0.8936626 0.8813245 0.9040876 0.8703076 0.874913 0.8813245 0.9040876 0.8788265 0.885231 0.8788265 0.885231 0.8813245 0.9040876 0.886043 0.8951745 0.8813245 0.9040876 0.8912052 0.8936626 0.886043 0.8951745 0.8770763 0.8309376 0.8842861 0.8658387 0.8712518 0.8408817 0.8850595 0.8752821 0.886043 0.8951745 0.8912052 0.8936626 0.8770763 0.8309376 0.8866211 0.8236289 0.8915504 0.8594803 0.8819797 0.8232541 0.8788265 0.885231 0.8850595 0.8752821 0.8734739 0.8292624 0.8788265 0.885231 0.8819797 0.8232541 0.8819797 0.8232541 0.8850595 0.8752821 0.8940652 0.8191043 0.8712518 0.8408817 0.8842861 0.8658387 0.8817551 0.8818657 0.8940652 0.8191043 0.8850595 0.8752821 0.8915504 0.8594803 0.8940652 0.8191043 0.8915504 0.8594803 0.8866211 0.8236289 0.8734739 0.8292624 0.8703076 0.874913 0.8788265 0.885231 0.8642401 0.8290989 0.8703076 0.874913 0.8734739 0.8292624 0.8915504 0.8594803 0.8912052 0.8936626 0.8842861 0.8658387 0.8842861 0.8658387 0.8912052 0.8936626 0.8817551 0.8818657 0.8788265 0.885231 0.886043 0.8951745 0.8850595 0.8752821 0.8850595 0.8752821 0.8912052 0.8936626 0.8915504 0.8594803 0.8770763 0.8309376 0.8915504 0.8594803 0.8842861 0.8658387 0.8771834 0.6932576 0.8642401 0.8290989 0.8734739 0.8292624 0.8819797 0.8232541 0.8940652 0.8191043 0.8771834 0.6932576 0.8771834 0.6932576 0.8819797 0.8232541 0.8734739 0.8292624 0.8817551 0.8818657 0.8813245 0.9040876 0.8912052 0.8936626 0.8703076 0.874913 0.8788265 0.885231 0.8813245 0.9040876 0.8788265 0.885231 0.886043 0.8951745 0.8813245 0.9040876 0.8813245 0.9040876 0.886043 0.8951745 0.8912052 0.8936626 0.8770763 0.8309376 0.8712518 0.8408817 0.8842861 0.8658387 0.8850595 0.8752821 0.8912052 0.8936626 0.886043 0.8951745 0.8770763 0.8309376 0.8915504 0.8594803 0.8866211 0.8236289 0.8819797 0.8232541 0.8850595 0.8752821 0.8788265 0.885231 0.8734739 0.8292624 0.8819797 0.8232541 0.8788265 0.885231 0.8819797 0.8232541 0.8940652 0.8191043 0.8850595 0.8752821 0.8712518 0.8408817 0.8817551 0.8818657 0.8842861 0.8658387 0.8940652 0.8191043 0.8915504 0.8594803 0.8850595 0.8752821 0.8940652 0.8191043 0.8866211 0.8236289 0.8915504 0.8594803 0.8734739 0.8292624 0.8788265 0.885231 0.8703076 0.874913 0.8642401 0.8290989 0.8734739 0.8292624 0.8703076 0.874913 0.8915504 0.8594803 0.8842861 0.8658387 0.8912052 0.8936626 0.8842861 0.8658387 0.8817551 0.8818657 0.8912052 0.8936626 0.8788265 0.885231 0.8850595 0.8752821 0.886043 0.8951745 0.8850595 0.8752821 0.8915504 0.8594803 0.8912052 0.8936626 0.8770763 0.8309376 0.8842861 0.8658387 0.8915504 0.8594803 0.8771834 0.6932576 0.8734739 0.8292624 0.8642401 0.8290989 0.8819797 0.8232541 0.8771834 0.6932576 0.8940652 0.8191043 0.8771834 0.6932576 0.8819797 0.8232541 0.8734739 0.8292624 0.8817551 0.8818657 0.8813245 0.9040876 0.8912052 0.8936626 0.8703076 0.874913 0.8788265 0.885231 0.8813245 0.9040876 0.8788265 0.885231 0.886043 0.8951745 0.8813245 0.9040876 0.8813245 0.9040876 0.886043 0.8951745 0.8912052 0.8936626 0.8770763 0.8309376 0.8712518 0.8408817 0.8842861 0.8658387 0.8850595 0.8752821 0.8912052 0.8936626 0.886043 0.8951745 0.8770763 0.8309376 0.8915504 0.8594803 0.8866211 0.8236289 0.8819797 0.8232541 0.8850595 0.8752821 0.8788265 0.885231 0.8734739 0.8292624 0.8819797 0.8232541 0.8788265 0.885231 0.8819797 0.8232541 0.8940652 0.8191043 0.8850595 0.8752821 0.8712518 0.8408817 0.8817551 0.8818657 0.8842861 0.8658387 0.8940652 0.8191043 0.8915504 0.8594803 0.8850595 0.8752821 0.8940652 0.8191043 0.8866211 0.8236289 0.8915504 0.8594803 0.8734739 0.8292624 0.8788265 0.885231 0.8703076 0.874913 0.8642401 0.8290989 0.8734739 0.8292624 0.8703076 0.874913 0.8915504 0.8594803 0.8842861 0.8658387 0.8912052 0.8936626 0.8842861 0.8658387 0.8817551 0.8818657 0.8912052 0.8936626 0.8788265 0.885231 0.8850595 0.8752821 0.886043 0.8951745 0.8850595 0.8752821 0.8915504 0.8594803 0.8912052 0.8936626 0.8770763 0.8309376 0.8842861 0.8658387 0.8915504 0.8594803 0.8771834 0.6932576 0.8734739 0.8292624 0.8642401 0.8290989 0.8819797 0.8232541 0.8771834 0.6932576 0.8940652 0.8191043 0.8771834 0.6932576 0.8734739 0.8292624 0.8819797 0.8232541 0.8817551 0.8818657 0.8912052 0.8936626 0.8813245 0.9040876 0.8703076 0.874913 0.8813245 0.9040876 0.8788265 0.885231 0.8788265 0.885231 0.8813245 0.9040876 0.886043 0.8951745 0.8813245 0.9040876 0.8912052 0.8936626 0.886043 0.8951745 0.8770763 0.8309376 0.8842861 0.8658387 0.8712518 0.8408817 0.8850595 0.8752821 0.886043 0.8951745 0.8912052 0.8936626 0.8770763 0.8309376 0.8866211 0.8236289 0.8915504 0.8594803 0.8819797 0.8232541 0.8788265 0.885231 0.8850595 0.8752821 0.8734739 0.8292624 0.8788265 0.885231 0.8819797 0.8232541 0.8819797 0.8232541 0.8850595 0.8752821 0.8940652 0.8191043 0.8712518 0.8408817 0.8842861 0.8658387 0.8817551 0.8818657 0.8940652 0.8191043 0.8850595 0.8752821 0.8915504 0.8594803 0.8940652 0.8191043 0.8915504 0.8594803 0.8866211 0.8236289 0.8734739 0.8292624 0.8703076 0.874913 0.8788265 0.885231 0.8642401 0.8290989 0.8703076 0.874913 0.8734739 0.8292624 0.8915504 0.8594803 0.8912052 0.8936626 0.8842861 0.8658387 0.8842861 0.8658387 0.8912052 0.8936626 0.8817551 0.8818657 0.8788265 0.885231 0.886043 0.8951745 0.8850595 0.8752821 0.8850595 0.8752821 0.8912052 0.8936626 0.8915504 0.8594803 0.8770763 0.8309376 0.8915504 0.8594803 0.8842861 0.8658387 0.8771834 0.6932576 0.8642401 0.8290989 0.8734739 0.8292624 0.8819797 0.8232541 0.8940652 0.8191043 0.8771834 0.6932576</float_array>
          <technique_common>
            <accessor source="#Bull_002-mesh-map-0-array" count="276" stride="2">
              <param name="S" type="float"/>
              <param name="T" type="float"/>
            </accessor>
          </technique_common>
        </source>
        <vertices id="Bull_002-mesh-vertices">
          <input semantic="POSITION" source="#Bull_002-mesh-positions"/>
        </vertices>
        <triangles material="Render_001-material" count="92">
          <input semantic="VERTEX" source="#Bull_002-mesh-vertices" offset="0"/>
          <input semantic="NORMAL" source="#Bull_002-mesh-normals" offset="1"/>
          <input semantic="TEXCOORD" source="#Bull_002-mesh-map-0" offset="2" set="0"/>
          <p>14 0 0 13 1 1 9 2 2 4 3 3 0 4 4 2 5 5 4 3 6 2 5 7 3 6 8 3 6 9 2 5 10 1 7 11 2 5 12 0 4 13 1 7 14 10 8 15 8 9 16 12 10 17 7 11 18 1 7 19 0 4 20 10 8 21 11 12 22 6 13 23 9 2 24 3 6 25 7 11 26 13 1 27 3 6 28 9 2 29 9 2 30 7 11 31 5 14 32 12 10 33 8 9 34 4 3 35 5 14 36 7 11 37 6 13 38 5 14 39 6 13 40 11 12 41 13 1 42 4 3 43 3 6 44 12 10 45 4 3 46 13 1 47 6 13 48 0 4 49 8 9 50 8 9 51 0 4 52 4 3 53 3 6 54 1 7 55 7 11 56 7 11 57 0 4 58 6 13 59 10 8 60 6 13 61 8 9 62 14 0 63 12 10 64 13 1 65 9 2 66 5 14 67 14 0 68 29 15 69 24 16 70 28 17 71 19 18 72 17 19 73 15 20 74 19 18 75 18 21 76 17 19 77 18 21 78 16 22 79 17 19 80 17 19 81 16 22 82 15 20 83 25 23 84 27 24 85 23 25 86 22 26 87 15 20 88 16 22 89 25 23 90 21 27 91 26 28 92 24 16 93 22 26 94 18 21 95 28 17 96 24 16 97 18 21 98 24 16 99 20 29 100 22 26 101 27 24 102 19 18 103 23 25 104 20 29 105 21 27 106 22 26 107 20 29 108 26 28 109 21 27 110 28 17 111 18 21 112 19 18 113 27 24 114 28 17 115 19 18 116 21 27 117 23 25 118 15 20 119 23 25 120 19 18 121 15 20 122 18 21 123 22 26 124 16 22 125 22 26 126 21 27 127 15 20 128 25 23 129 23 25 130 21 27 131 29 15 132 28 17 133 27 24 134 24 16 135 29 15 136 20 29 137 44 30 138 39 31 139 43 32 140 34 33 141 32 34 142 30 35 143 34 33 144 33 36 145 32 34 146 33 36 147 31 37 148 32 34 149 32 34 150 31 37 151 30 35 152 40 38 153 42 39 154 38 40 155 37 41 156 30 35 157 31 37 158 40 38 159 36 42 160 41 43 161 39 31 162 37 41 163 33 36 164 43 32 165 39 31 166 33 36 167 39 31 168 35 44 169 37 41 170 42 39 171 34 33 172 38 40 173 35 44 174 36 42 175 37 41 176 35 44 177 41 43 178 36 42 179 43 32 180 33 36 181 34 33 182 42 39 183 43 32 184 34 33 185 36 42 186 38 40 187 30 35 188 38 40 189 34 33 190 30 35 191 33 36 192 37 41 193 31 37 194 37 41 195 36 42 196 30 35 197 40 38 198 38 40 199 36 42 200 44 30 201 43 32 202 42 39 203 39 31 204 44 30 205 35 44 206 59 45 207 58 46 208 54 47 209 49 48 210 45 49 211 47 50 212 49 48 213 47 50 214 48 51 215 48 51 216 47 50 217 46 52 218 47 50 219 45 49 220 46 52 221 55 53 222 53 54 223 57 55 224 52 56 225 46 52 226 45 49 227 55 53 228 56 57 229 51 58 230 54 47 231 48 51 232 52 56 233 58 46 234 48 51 235 54 47 236 54 47 237 52 56 238 50 59 239 57 55 240 53 54 241 49 48 242 50 59 243 52 56 244 51 58 245 50 59 246 51 58 247 56 57 248 58 46 249 49 48 250 48 51 251 57 55 252 49 48 253 58 46 254 51 58 255 45 49 256 53 54 257 53 54 258 45 49 259 49 48 260 48 51 261 46 52 262 52 56 263 52 56 264 45 49 265 51 58 266 55 53 267 51 58 268 53 54 269 59 45 270 57 55 271 58 46 272 54 47 273 50 59 274 59 45 275</p>
        </triangles>
      </mesh>
    </geometry>
  </library_geometries>
  <library_visual_scenes>
    <visual_scene id="Scene" name="Scene">
      <node id="horn_01" name="horn_01" type="NODE">
        <matrix sid="transform">1 0 0 0 0 1 0 0 0 0 1 0 0 0 0 1</matrix>
        <instance_geometry url="#Bull_002-mesh" name="horn_01">
          <bind_material>
            <technique_common>
              <instance_material symbol="Render_001-material" target="#Render_001-material">
                <bind_vertex_input semantic="Bull_001-mesh-map-0" input_semantic="TEXCOORD" input_set="0"/>
              </instance_material>
            </technique_common>
          </bind_material>
        </instance_geometry>
      </node>
    </visual_scene>
  </library_visual_scenes>
  <scene>
    <instance_visual_scene url="#Scene"/>
  </scene>
</COLLADA>