<?xml version="1.0" encoding="utf-8"?>
<COLLADA xmlns="http://www.collada.org/2005/11/COLLADASchema" version="1.4.1" xmlns:xsi="http://www.w3.org/2001/XMLSchema-instance">
  <asset>
    <contributor>
      <author>Blender User</author>
      <authoring_tool>Blender 4.3.1 commit date:2024-12-10, commit time:07:46, hash:33d812126174</authoring_tool>
    </contributor>
    <created>2026-04-09T15:04:08</created>
    <modified>2026-04-09T15:04:08</modified>
    <unit name="inch" meter="0.0254"/>
    <up_axis>Z_UP</up_axis>
  </asset>
  <library_effects>
    <effect id="Material_003-effect">
      <profile_COMMON>
        <newparam sid="Untitled_002-surface">
          <surface type="2D">
            <init_from>Untitled_002</init_from>
          </surface>
        </newparam>
        <newparam sid="Untitled_002-sampler">
          <sampler2D>
            <source>Untitled_002-surface</source>
          </sampler2D>
        </newparam>
        <technique sid="common">
          <lambert>
            <emission>
              <color sid="emission">0 0 0 1</color>
            </emission>
            <diffuse>
              <texture texture="Untitled_002-sampler" texcoord="E_long_004-mesh-map-1"/>
            </diffuse>
            <index_of_refraction>
              <float sid="ior">1.5</float>
            </index_of_refraction>
          </lambert>
        </technique>
      </profile_COMMON>
    </effect>
  </library_effects>
  <library_images>
    <image id="Untitled_002" name="Untitled_002">
      <init_from>/home/welton/snap/0ad/717/.local/share/0ad/mods/aristeia/art/textures/skins/structural/ao/mino/wall_long.png</init_from>
    </image>
  </library_images>
  <library_materials>
    <material id="Material_003-material" name="Material.003">
      <instance_effect url="#Material_003-effect"/>
    </material>
  </library_materials>
  <library_geometries>
    <geometry id="E_long_001-mesh" name="E_long.001">
      <mesh>
        <source id="E_long_001-mesh-positions">
          <float_array id="E_long_001-mesh-positions-array" count="918">3.818142 0.5848752 -1.25047 3.818141 -0.5848751 -1.25047 -0.03293079 -0.584875 -1.25047 -0.03293079 0.5848753 -1.25047 3.818142 0.5420229 5.14531 3.818141 -0.5420231 5.14531 0 -0.5420228 5.14531 0 0.542023 5.14531 3.818141 0.6288907 5.755657 3.818141 -0.6288909 5.755657 -0.006289899 -0.6288906 5.755657 -0.006289899 0.6288909 5.755657 3.818141 0.6288907 5.819406 3.818141 -0.6288909 5.819406 -0.006289899 -0.6288906 5.819406 -0.006289899 0.6288909 5.819406 7.567903 0.5848752 -1.25047 7.567903 -0.5848751 -1.25047 7.567903 0.5420229 5.14531 7.567902 -0.5420231 5.14531 7.567903 0.6288907 5.755657 7.567903 -0.6288909 5.755657 7.567903 0.6288907 5.819406 7.567903 -0.6288909 5.819406 11.41898 0.5848751 -1.25047 11.41898 -0.5848751 -1.25047 11.36683 0.5420228 5.14531 11.36683 -0.5420234 5.14531 11.39234 0.6288905 5.755657 11.39233 -0.6288912 5.755657 11.39234 0.6288905 5.819406 11.39233 -0.6288912 5.819406 -7.567902 0.5848752 -1.25047 -7.567903 -0.5848751 -1.25047 -11.41897 -0.584875 -1.25047 -11.41897 0.5848753 -1.25047 -7.567902 0.5420229 5.14531 -7.567903 -0.5420231 5.14531 -11.36683 -0.5420228 5.14531 -11.36683 0.542023 5.14531 -7.567903 0.6288907 5.755657 -7.567903 -0.6288909 5.755657 -11.39233 -0.6288906 5.755657 -11.39233 0.6288909 5.755657 -7.567903 0.6288907 5.819406 -7.567903 -0.6288909 5.819406 -11.39233 -0.6288906 5.819406 -11.39233 0.6288909 5.819406 -3.81814 0.5848752 -1.25047 -3.81814 -0.5848751 -1.25047 -3.81814 0.5420229 5.14531 -3.818141 -0.5420231 5.14531 -3.81814 0.6288907 5.755657 -3.81814 -0.6288909 5.755657 -3.81814 0.6288907 5.819406 -3.81814 -0.6288909 5.819406 0.03293126 0.5848751 -1.25047 0.03293126 -0.5848751 -1.25047 4.76837e-7 0.5420228 5.14531 -4.76837e-7 -0.5420234 5.14531 0.006292343 0.6288905 5.755657 0.006290376 -0.6288912 5.755657 0.006292343 0.6288905 5.819406 0.006290376 -0.6288912 5.819406 -3.604018 0.1020548 5.852095 -3.604018 -0.09478574 5.852095 -5.199714 0.1020548 5.852095 -5.199714 -0.09478574 5.852095 -3.604018 0.1020548 6.888525 -3.604018 -0.09478574 6.888525 -5.199714 0.1020548 6.888525 -5.199714 -0.09478574 6.888525 -4.401865 0.1020548 6.104955 -4.401867 -0.09478574 6.104955 -4.002942 -0.09478574 6.341715 -4.002942 0.1020548 6.341715 -4.800791 0.1020548 6.341715 -4.800791 -0.09478574 6.341715 -3.472441 0.1554781 5.763778 -3.472441 -0.168197 5.763778 -5.312807 -0.168197 5.763778 -5.312807 0.1554781 5.763778 -3.472441 0.1554781 6.041495 -3.472441 -0.168197 6.041495 -5.312807 -0.168197 6.041495 -5.312807 0.1554781 6.041495 -5.719113 0.1020548 5.852095 -5.719113 -0.09478574 5.852095 -7.314811 0.1020548 5.852095 -7.314811 -0.09478574 5.852095 -5.719113 0.1020548 6.888525 -5.719113 -0.09478574 6.888525 -7.314811 0.1020548 6.888525 -7.314811 -0.09478574 6.888525 -6.51696 0.1020548 6.104955 -6.516962 -0.09478574 6.104955 -6.118038 -0.09478574 6.341715 -6.118037 0.1020548 6.341715 -6.915886 0.1020548 6.341715 -6.915886 -0.09478574 6.341715 -5.587536 0.1554781 5.763778 -5.587536 -0.168197 5.763778 -7.427904 -0.168197 5.763778 -7.427904 0.1554781 5.763778 -5.587536 0.1554781 6.041495 -5.587536 -0.168197 6.041495 -7.427904 -0.168197 6.041495 -7.427904 0.1554781 6.041495 -2.885668 0.1020548 5.852095 -2.885668 -0.09478574 5.852095 -1.289972 0.1020548 5.852095 -1.289972 -0.09478574 5.852095 -2.885668 0.1020548 6.888525 -2.885668 -0.09478574 6.888525 -1.289972 0.1020548 6.888525 -1.289972 -0.09478574 6.888525 -2.087821 0.1020548 6.104955 -2.087819 -0.09478574 6.104955 -2.486744 -0.09478574 6.341715 -2.486744 0.1020548 6.341715 -1.688895 0.1020548 6.341715 -1.688895 -0.09478574 6.341715 -3.017245 0.1554781 5.763778 -3.017245 -0.168197 5.763778 -1.176879 -0.168197 5.763778 -1.176879 0.1554781 5.763778 -3.017245 0.1554781 6.041495 -3.017245 -0.168197 6.041495 -1.176879 -0.168197 6.041495 -1.176879 0.1554781 6.041495 -0.9021499 0.1554781 5.763778 -0.9021499 -0.168197 5.763778 0.9382179 -0.168197 5.763778 0.9382179 0.1554781 5.763778 -0.9021499 0.1554781 6.041495 -0.9021499 -0.168197 6.041495 0.9382179 -0.168197 6.041495 0.9382179 0.1554781 6.041495 3.604018 0.1020548 5.852095 3.604018 -0.09478574 5.852095 5.199714 0.1020548 5.852095 5.199714 -0.09478574 5.852095 3.604018 0.1020548 6.888525 3.604018 -0.09478574 6.888525 5.199714 0.1020548 6.888525 5.199714 -0.09478574 6.888525 4.401865 0.1020548 6.104955 4.401867 -0.09478574 6.104955 4.002942 -0.09478574 6.341715 4.002942 0.1020548 6.341715 4.800791 0.1020548 6.341715 4.800791 -0.09478574 6.341715 3.472441 0.1554781 5.763778 3.472441 -0.168197 5.763778 5.312807 -0.168197 5.763778 5.312807 0.1554781 5.763778 3.472441 0.1554781 6.041495 3.472441 -0.168197 6.041495 5.312807 -0.168197 6.041495 5.312807 0.1554781 6.041495 5.719113 0.1020548 5.852095 5.719113 -0.09478574 5.852095 7.314811 0.1020548 5.852095 7.314811 -0.09478574 5.852095 5.719113 0.1020548 6.888525 5.719113 -0.09478574 6.888525 7.314811 0.1020548 6.888525 7.314811 -0.09478574 6.888525 6.51696 0.1020548 6.104955 6.516962 -0.09478574 6.104955 6.118038 -0.09478574 6.341715 6.118037 0.1020548 6.341715 6.915886 0.1020548 6.341715 6.915886 -0.09478574 6.341715 5.587536 0.1554781 5.763778 5.587536 -0.168197 5.763778 7.427904 -0.168197 5.763778 7.427904 0.1554781 5.763778 5.587536 0.1554781 6.041495 5.587536 -0.168197 6.041495 7.427904 -0.168197 6.041495 7.427904 0.1554781 6.041495 2.885668 0.1020548 5.852095 2.885668 -0.09478574 5.852095 1.289972 0.1020548 5.852095 1.289972 -0.09478574 5.852095 2.885668 0.1020548 6.888525 2.885668 -0.09478574 6.888525 1.289972 0.1020548 6.888525 1.289972 -0.09478574 6.888525 2.087821 0.1020548 6.104955 2.087819 -0.09478574 6.104955 2.486744 -0.09478574 6.341715 2.486744 0.1020548 6.341715 1.688895 0.1020548 6.341715 1.688895 -0.09478574 6.341715 3.017245 0.1554781 5.763778 3.017245 -0.168197 5.763778 1.176879 -0.168197 5.763778 1.176879 0.1554781 5.763778 3.017245 0.1554781 6.041495 3.017245 -0.168197 6.041495 1.176879 -0.168197 6.041495 1.176879 0.1554781 6.041495 0.7705735 0.1020548 5.852095 0.7705735 -0.09478574 5.852095 -0.8251246 0.1020548 5.852095 -0.8251246 -0.09478574 5.852095 0.7705735 0.1020548 6.888525 0.7705735 -0.09478574 6.888525 -0.8251246 0.1020548 6.888525 -0.8251246 -0.09478574 6.888525 -0.02727383 0.1020548 6.104955 -0.02727586 -0.09478574 6.104955 0.3716477 -0.09478574 6.341715 0.3716495 0.1020548 6.341715 -0.4261998 0.1020548 6.341715 -0.4261998 -0.09478574 6.341715 7.571241 0.1020548 5.852095 7.571241 -0.09478574 5.852095 9.166937 0.1020548 5.852095 9.166937 -0.09478574 5.852095 7.571241 0.1020548 6.888525 7.571241 -0.09478574 6.888525 9.166937 0.1020548 6.888525 9.166937 -0.09478574 6.888525 8.36909 0.1020548 6.104955 8.369091 -0.09478574 6.104955 7.970164 -0.09478574 6.341715 7.970164 0.1020548 6.341715 8.768014 0.1020548 6.341715 8.768014 -0.09478574 6.341715 7.439664 0.1554781 5.763778 7.439664 -0.168197 5.763778 9.280032 -0.168197 5.763778 9.280032 0.1554781 5.763778 7.439664 0.1554781 6.041495 7.439664 -0.168197 6.041495 9.280032 -0.168197 6.041495 9.280032 0.1554781 6.041495 9.686339 0.1020548 5.852095 9.686339 -0.09478574 5.852095 11.28203 0.1020548 5.852095 11.28203 -0.09478574 5.852095 9.686339 0.1020548 6.888525 9.686339 -0.09478574 6.888525 11.28203 0.1020548 6.888525 11.28203 -0.09478574 6.888525 10.48418 0.1020548 6.104955 10.48418 -0.09478574 6.104955 10.08526 -0.09478574 6.341715 10.08526 0.1020548 6.341715 10.88311 0.1020548 6.341715 10.88311 -0.09478574 6.341715 9.55476 0.1554781 5.763778 9.55476 -0.168197 5.763778 11.39513 -0.168197 5.763778 11.39513 0.1554781 5.763778 9.55476 0.1554781 6.041495 9.55476 -0.168197 6.041495 11.39513 -0.168197 6.041495 11.39513 0.1554781 6.041495 -7.571241 0.1020548 5.852095 -7.571241 -0.09478574 5.852095 -9.166937 0.1020548 5.852095 -9.166937 -0.09478574 5.852095 -7.571241 0.1020548 6.888525 -7.571241 -0.09478574 6.888525 -9.166937 0.1020548 6.888525 -9.166937 -0.09478574 6.888525 -8.36909 0.1020548 6.104955 -8.369091 -0.09478574 6.104955 -7.970164 -0.09478574 6.341715 -7.970164 0.1020548 6.341715 -8.768014 0.1020548 6.341715 -8.768014 -0.09478574 6.341715 -7.439664 0.1554781 5.763778 -7.439664 -0.168197 5.763778 -9.280032 -0.168197 5.763778 -9.280032 0.1554781 5.763778 -7.439664 0.1554781 6.041495 -7.439664 -0.168197 6.041495 -9.280032 -0.168197 6.041495 -9.280032 0.1554781 6.041495 -9.686339 0.1020548 5.852095 -9.686339 -0.09478574 5.852095 -11.28203 0.1020548 5.852095 -11.28203 -0.09478574 5.852095 -9.686339 0.1020548 6.888525 -9.686339 -0.09478574 6.888525 -11.28203 0.1020548 6.888525 -11.28203 -0.09478574 6.888525 -10.48418 0.1020548 6.104955 -10.48418 -0.09478574 6.104955 -10.08526 -0.09478574 6.341715 -10.08526 0.1020548 6.341715 -10.88311 0.1020548 6.341715 -10.88311 -0.09478574 6.341715 -9.55476 0.1554781 5.763778 -9.55476 -0.168197 5.763778 -11.39513 -0.168197 5.763778 -11.39513 0.1554781 5.763778 -9.55476 0.1554781 6.041495 -9.55476 -0.168197 6.041495 -11.39513 -0.168197 6.041495 -11.39513 0.1554781 6.041495</float_array>
          <technique_common>
            <accessor source="#E_long_001-mesh-positions-array" count="306" stride="3">
              <param name="X" type="float"/>
              <param name="Y" type="float"/>
              <param name="Z" type="float"/>
            </accessor>
          </technique_common>
        </source>
        <source id="E_long_001-mesh-normals">
          <float_array id="E_long_001-mesh-normals-array" count="543">0 -0.9999775 0.006699919 -0.9999868 0 0.005148708 0 0.9999776 0.006699919 0 0.9900231 -0.1409053 0 -0.9900231 -0.1409053 -0.999947 0 -0.01030486 0 0 1 0 1 0 0 -1 0 -1 0 0 0 -0.9900231 -0.1409053 0 -0.9999776 0.00669986 0 -1 0 0 0.9999776 0.006699919 0 0.9900232 -0.1409051 0 0 1 0 1 0 0.9991284 -9.92953e-6 -0.04174458 0.9999668 0 0.008153498 0 0.9999776 0.006699919 1 -7.43357e-6 0 0 -1 0 0 -0.9900231 -0.1409053 0 0.9900231 -0.140905 0 1 0 0 -0.9999777 0.0066998 0 -0.9999777 0.00669986 -0.9999668 0 0.008152008 0 0.9999776 0.006699919 0 0.9900232 -0.1409052 0 -0.9900231 -0.1409053 -0.9991284 0 -0.04174363 0 0 1 0 1 0 0 -0.9900231 -0.1409052 0 -0.9999776 0.00669986 0 0.9900231 -0.1409052 0.999947 -1.51667e-6 -0.01030671 0.9999868 0 0.005148768 0 0.9999777 0.006699919 1 -1.51648e-6 0 0 -1 0 0 -0.9900231 -0.1409053 0 0.9900231 -0.1409052 0 1 0 0 -0.9999777 0.0066998 0 1 0 0 1 0 0 1 0 0 -1 0 1 0 0 0.8078618 0 0.589372 0 0 -1 -0.5103763 0 0.8599512 -0.8078607 0 0.5893735 0.5103774 -5.222e-6 0.8599506 0 1 0 0 1 0 0.8078608 0 0.5893734 -0.5103763 5.22204e-6 0.8599512 -0.8078609 0 0.5893734 0.510377 -5.222e-6 0.8599509 0.8078613 0 0.5893729 -0.5103784 5.22201e-6 0.8599501 -0.8078614 0 0.5893727 0.5103754 0 0.8599518 0.8078602 0 0.5893742 -0.5103793 5.22202e-6 0.8599495 -0.8078606 3.57894e-6 0.5893738 0 1 0 0 -1 0 0 -1 0 -0.8078621 0 0.5893716 0.5103763 0 0.8599512 0.8078607 0 0.5893735 -0.5103772 -4.56925e-6 0.8599507 -0.8078615 0 0.5893725 0.5103784 5.22201e-6 0.8599501 0.8078614 0 0.5893727 -0.5103752 0 0.8599519 -0.8078618 0 0.589372 -0.5103774 -5.222e-6 0.8599506 -0.8078608 0 0.5893734 0.5103763 5.22204e-6 0.8599512 0.8078609 0 0.5893734 -0.510377 -5.222e-6 0.8599509 -0.8078613 0 0.5893729 -0.5103754 0 0.8599518 -0.8078602 0 0.5893742 0.5103793 5.22202e-6 0.8599495 0.8078606 3.57894e-6 0.5893738 0.8078621 0 0.5893716 0.5103772 -4.56925e-6 0.8599507 0 1 0 0 1 0 0 -1 0 0 -1 0 -0.5103759 4.65088e-6 0.8599514 -0.8078609 0 0.5893734 0.5103772 -5.30359e-6 0.8599507 0.8078615 0 0.5893725 0.5103752 0 0.8599519 -0.5103795 5.22202e-6 0.8599493 -0.8078601 7.15788e-6 0.5893743 0.5103754 0 0.8599519 0 1 0 0 -1 0 -0.8078622 0 0.5893715 0.510374 0 0.8599526 0.8078615 0 0.5893723 -0.5103784 0 0.8599501 0 1 0 0 1 0 0 -1 0 0 -1 0 -0.8078641 0 0.5893688 0.510379 0 0.8599496 0.8078629 0 0.5893705 -0.5103729 0 0.8599533 -0.8078615 0 0.5893724 0.510376 5.22199e-6 0.8599513 0.8078622 0 0.5893715 -0.5103762 0 0.8599512 -0.8078635 0 0.5893696 0.5103828 0 0.8599473 0.8078635 0 0.5893697 -0.5103691 0 0.8599555 -0.510374 0 0.8599526 -0.8078615 0 0.5893723 0.5103784 0 0.8599501 0.8078641 0 0.5893688 -0.510379 0 0.8599496 -0.8078629 0 0.5893705 0.5103729 0 0.8599533 0.8078615 0 0.5893724 -0.510376 5.22199e-6 0.8599513 0.5103762 0 0.8599512 0.8078635 0 0.5893696 -0.5103828 0 0.8599473 -0.8078635 0 0.5893697 0.5103691 0 0.8599555 0 -0.9999776 0.00669986 -0.9999868 0 0.005148708 0 0.9999777 0.006699919 0 0.990023 -0.1409055 0 -0.9900231 -0.1409053 -0.999947 0 -0.01030486 0 1 0 0 -1 0 0 -0.9999776 0.00669986 0 0.9999777 0.006699919 0 0.9900231 -0.1409054 0.9991278 0 -0.04175919 0.9999668 0 0.008153498 0 0.9999777 0.006699919 1 -7.43366e-6 0 0 -1 0 0 -0.9900231 -0.1409053 0 0.9900232 -0.1409052 0 0 1 0 1 0 0 -0.9999777 0.00669986 0 -0.9999776 0.00669986 -0.9999669 0 0.008152008 0 0.9999777 0.00669986 0 0.9900231 -0.1409055 0 -0.9900231 -0.1409053 -0.9991284 0 -0.04174351 0 1 0 0 -0.9900231 -0.1409052 0 -0.9999777 0.00669986 0 0.9999776 0.006699919 0.9999469 -8.79697e-7 -0.01030796 0.9999868 -8.79015e-7 0.005148887 0 0.9999777 0.006699919 1 -1.51722e-6 0 0 -1 0 0 -0.9900231 -0.1409051 0 0.9900232 -0.1409051 0 1 0 0 -0.9999777 0.00669986</float_array>
          <technique_common>
            <accessor source="#E_long_001-mesh-normals-array" count="181" stride="3">
              <param name="X" type="float"/>
              <param name="Y" type="float"/>
              <param name="Z" type="float"/>
            </accessor>
          </technique_common>
        </source>
        <source id="E_long_001-mesh-map-0">
          <float_array id="E_long_001-mesh-map-0-array" count="2892">0.2746777 0.6210377 0.02113705 0.8754829 0.02113705 0.6210377 0.3579027 0.8754829 0.2740855 0.6210377 0.3579027 0.6210377 0.02054494 0.6210377 0.2740855 0.8754829 0.02054494 0.8754829 0.1095105 0.1427575 0.1598287 0.4537191 0.1095105 0.4537191 0.1095105 0.4544535 0.1598287 0.1448819 0.1598287 0.4544535 0.1095105 0.04097944 0.1598287 0.1427575 0.1095105 0.1427575 0.4040213 0.7471965 0.02120298 0.6196069 0.4040212 0.6196068 0.1598287 0.1427575 0.1662055 0.4537191 0.1598287 0.4537191 0.1598287 0.1448819 0.1662055 0.4544535 0.1598287 0.4544535 0.1598287 0.04097944 0.1662055 0.1427575 0.1598287 0.1427575 0.1095105 0.1448819 0.1598287 0.4544535 0.1095105 0.4544535 0.2746777 0.8754829 0.02113705 0.6210377 0.2746777 0.6210377 0.1598287 0.1448819 0.1662055 0.4544535 0.1598287 0.4544535 0.2740855 0.8754829 0.02054494 0.6210377 0.2740855 0.6210377 0.1095105 0.1427575 0.1598287 0.4537191 0.1095105 0.4537191 0.0212056 0.8745647 0.4037507 0.7469749 0.4037507 0.8745647 0.1598287 0.1427575 0.1662055 0.4537191 0.1598287 0.4537191 0.1095105 0.1448819 0.1598287 0.0409832 0.1598287 0.1448819 0.3599917 0.8754829 0.2746777 0.6210377 0.3599917 0.6210377 0.02054494 0.8754829 0.2740855 0.6210377 0.2740855 0.8754829 0.1598287 0.0409832 0.1662055 0.1448819 0.1598287 0.1448819 0.1598287 0.1448819 0.1662055 0.4544535 0.1598287 0.4544535 0.1095105 0.1448819 0.1598287 0.4544535 0.1095105 0.4544535 0.1095105 0.4537191 0.1598287 0.1427575 0.1598287 0.4537191 0.02120304 0.8749181 0.4040213 0.7473284 0.4040214 0.8749181 0.1598287 0.1427575 0.1662055 0.4537191 0.1598287 0.4537191 0.2746777 0.8754829 0.02113705 0.6210377 0.2746777 0.6210377 0.2746777 0.6210377 0.02113705 0.8754829 0.02113705 0.6210377 0.3579027 0.8754829 0.2740855 0.6210377 0.3579027 0.6210377 0.02054494 0.6210377 0.2740855 0.8754829 0.02054494 0.8754829 0.1095105 0.1427575 0.1598287 0.4537191 0.1095105 0.4537191 0.1095105 0.4544535 0.1598287 0.1448819 0.1598287 0.4544535 0.1095105 0.04097944 0.1598287 0.1427575 0.1095105 0.1427575 0.4040213 0.7471965 0.02120298 0.6196069 0.4040212 0.6196068 0.1598287 0.1427575 0.1662055 0.4537191 0.1598287 0.4537191 0.1598287 0.1448819 0.1662055 0.4544535 0.1598287 0.4544535 0.1598287 0.04097944 0.1662055 0.1427575 0.1598287 0.1427575 0.1095105 0.1448819 0.1598287 0.4544535 0.1095105 0.4544535 0.2746777 0.8754829 0.02113705 0.6210377 0.2746777 0.6210377 0.1598287 0.1448819 0.1662055 0.4544535 0.1598287 0.4544535 0.2740855 0.8754829 0.02054494 0.6210377 0.2740855 0.6210377 0.1095105 0.1427575 0.1598287 0.4537191 0.1095105 0.4537191 0.0212056 0.8745647 0.4037507 0.7469749 0.4037507 0.8745647 0.1598287 0.1427575 0.1662055 0.4537191 0.1598287 0.4537191 0.1095105 0.1448819 0.1598287 0.0409832 0.1598287 0.1448819 0.3599917 0.8754829 0.2746777 0.6210377 0.3599917 0.6210377 0.02054494 0.8754829 0.2740855 0.6210377 0.2740855 0.8754829 0.1598287 0.0409832 0.1662055 0.1448819 0.1598287 0.1448819 0.1598287 0.1448819 0.1662055 0.4544535 0.1598287 0.4544535 0.1095105 0.1448819 0.1598287 0.4544535 0.1095105 0.4544535 0.1095105 0.4537191 0.1598287 0.1427575 0.1598287 0.4537191 0.02120304 0.8749181 0.4040213 0.7473284 0.4040214 0.8749181 0.1598287 0.1427575 0.1662055 0.4537191 0.1598287 0.4537191 0.2746777 0.8754829 0.02113705 0.6210377 0.2746777 0.6210377 0.9573771 0.8728813 0.8346146 0.8736419 0.8990868 0.8254581 0.9561927 0.6817523 0.898495 0.7298942 0.833431 0.6825137 0.9573771 0.8728813 0.8990868 0.8254581 0.9268345 0.7775023 0.9561927 0.6817523 0.9268345 0.7775023 0.898495 0.7298942 0.9561927 0.6817523 0.9573771 0.8728813 0.9268345 0.7775023 0.9453594 0.6681249 0.8031257 0.6401358 0.9453594 0.6401358 0.9497641 0.867393 0.891769 0.8196099 0.827 0.8673931 0.9497641 0.6762605 0.827 0.6762604 0.8917691 0.7240436 0.9497641 0.867393 0.919813 0.7718267 0.891769 0.8196099 0.9497641 0.6762605 0.8917691 0.7240436 0.919813 0.7718267 0.9497641 0.867393 0.9497641 0.6762605 0.919813 0.7718267 0.8533404 0.6453739 0.7693202 0.6628868 0.8533404 0.6628868 0.8620354 0.6416894 0.839685 0.6665713 0.839685 0.6416894 0.772634 0.7036692 0.8620354 0.6045915 0.772634 0.6045915 0.8173347 0.6416894 0.7949844 0.6665713 0.7949844 0.6416894 0.7949844 0.6416894 0.772634 0.6665713 0.772634 0.6416894 0.839685 0.6416894 0.8173347 0.6665713 0.8173347 0.6416894 0.1690081 0.4394807 0.3052753 0.4628268 0.3052754 0.4394807 0.3052754 0.4394807 0.1700041 0.4628268 0.1700043 0.4394807 0.2950446 0.4817591 0.1676843 0.4963313 0.1676843 0.4817591 0.3062715 0.4394807 0.1705428 0.4628269 0.1705428 0.4394807 0.1700043 0.4394807 0.3062714 0.4628268 0.3062715 0.4394807 0.9573771 0.8728813 0.8346146 0.8736419 0.8990868 0.8254581 0.9561927 0.6817523 0.898495 0.7298942 0.833431 0.6825137 0.9573771 0.8728813 0.8990868 0.8254581 0.9268345 0.7775023 0.9561927 0.6817523 0.9268345 0.7775023 0.898495 0.7298942 0.9561927 0.6817523 0.9573771 0.8728813 0.9268345 0.7775023 0.9453594 0.6681249 0.8031257 0.6401358 0.9453594 0.6401358 0.9497641 0.867393 0.891769 0.8196099 0.827 0.8673931 0.9497641 0.6762605 0.827 0.6762604 0.8917691 0.7240436 0.9497641 0.867393 0.919813 0.7718267 0.891769 0.8196099 0.9497641 0.6762605 0.8917691 0.7240436 0.919813 0.7718267 0.9497641 0.867393 0.9497641 0.6762605 0.919813 0.7718267 0.8533404 0.6453739 0.7693202 0.6628868 0.8533404 0.6628868 0.8620354 0.6416894 0.839685 0.6665713 0.839685 0.6416894 0.772634 0.7036692 0.8620354 0.6045915 0.772634 0.6045915 0.8173347 0.6416894 0.7949844 0.6665713 0.7949844 0.6416894 0.7949844 0.6416894 0.772634 0.6665713 0.772634 0.6416894 0.839685 0.6416894 0.8173347 0.6665713 0.8173347 0.6416894 0.1690081 0.4394807 0.3052753 0.4628268 0.3052754 0.4394807 0.3052754 0.4394807 0.1700041 0.4628268 0.1700043 0.4394807 0.2950446 0.4817591 0.1676843 0.4963313 0.1676843 0.4817591 0.3062715 0.4394807 0.1705428 0.4628269 0.1705428 0.4394807 0.1700043 0.4394807 0.3062714 0.4628268 0.3062715 0.4394807 0.9453594 0.6681249 0.8031257 0.6681249 0.8031257 0.6401358 0.8533404 0.6453739 0.7693202 0.6453739 0.7693202 0.6628868 0.8620354 0.6416894 0.8620354 0.6665713 0.839685 0.6665713 0.772634 0.7036692 0.8620354 0.7036692 0.8620354 0.6045915 0.8173347 0.6416894 0.8173347 0.6665713 0.7949844 0.6665713 0.7949844 0.6416894 0.7949844 0.6665713 0.772634 0.6665713 0.839685 0.6416894 0.839685 0.6665713 0.8173347 0.6665713 0.1690081 0.4394807 0.1690081 0.4628268 0.3052753 0.4628268 0.3052754 0.4394807 0.3052753 0.4628268 0.1700041 0.4628268 0.2950446 0.4817591 0.2950446 0.4963313 0.1676843 0.4963313 0.3062715 0.4394807 0.3062714 0.4628268 0.1705428 0.4628269 0.1700043 0.4394807 0.1700041 0.4628268 0.3062714 0.4628268 0.9453594 0.6681249 0.8031257 0.6681249 0.8031257 0.6401358 0.8533404 0.6453739 0.7693202 0.6453739 0.7693202 0.6628868 0.8620354 0.6416894 0.8620354 0.6665713 0.839685 0.6665713 0.772634 0.7036692 0.8620354 0.7036692 0.8620354 0.6045915 0.8173347 0.6416894 0.8173347 0.6665713 0.7949844 0.6665713 0.7949844 0.6416894 0.7949844 0.6665713 0.772634 0.6665713 0.839685 0.6416894 0.839685 0.6665713 0.8173347 0.6665713 0.1690081 0.4394807 0.1690081 0.4628268 0.3052753 0.4628268 0.3052754 0.4394807 0.3052753 0.4628268 0.1700041 0.4628268 0.2950446 0.4817591 0.2950446 0.4963313 0.1676843 0.4963313 0.3062715 0.4394807 0.3062714 0.4628268 0.1705428 0.4628269 0.1700043 0.4394807 0.1700041 0.4628268 0.3062714 0.4628268 0.9573771 0.8728813 0.8990868 0.8254581 0.8346146 0.8736419 0.9561927 0.6817523 0.833431 0.6825137 0.898495 0.7298942 0.9573771 0.8728813 0.9268345 0.7775023 0.8990868 0.8254581 0.9561927 0.6817523 0.898495 0.7298942 0.9268345 0.7775023 0.9561927 0.6817523 0.9268345 0.7775023 0.9573771 0.8728813 0.9453594 0.6681249 0.9453594 0.6401358 0.8031257 0.6401358 0.9497641 0.867393 0.827 0.8673931 0.891769 0.8196099 0.9497641 0.6762605 0.8917691 0.7240436 0.827 0.6762604 0.9497641 0.867393 0.891769 0.8196099 0.919813 0.7718267 0.9497641 0.6762605 0.919813 0.7718267 0.8917691 0.7240436 0.9497641 0.867393 0.919813 0.7718267 0.9497641 0.6762605 0.8533404 0.6453739 0.8533404 0.6628868 0.7693202 0.6628868 0.8620354 0.6416894 0.839685 0.6416894 0.839685 0.6665713 0.772634 0.7036692 0.772634 0.6045915 0.8620354 0.6045915 0.8173347 0.6416894 0.7949844 0.6416894 0.7949844 0.6665713 0.7949844 0.6416894 0.772634 0.6416894 0.772634 0.6665713 0.839685 0.6416894 0.8173347 0.6416894 0.8173347 0.6665713 0.1690081 0.4394807 0.3052754 0.4394807 0.3052753 0.4628268 0.3052754 0.4394807 0.1700043 0.4394807 0.1700041 0.4628268 0.2950446 0.4817591 0.1676843 0.4817591 0.1676843 0.4963313 0.3062715 0.4394807 0.1705428 0.4394807 0.1705428 0.4628269 0.1700043 0.4394807 0.3062715 0.4394807 0.3062714 0.4628268 0.1690081 0.4394807 0.3052754 0.4394807 0.3052753 0.4628268 0.3052754 0.4394807 0.1700043 0.4394807 0.1700041 0.4628268 0.2950446 0.4817591 0.1676843 0.4817591 0.1676843 0.4963313 0.3062715 0.4394807 0.1705428 0.4394807 0.1705428 0.4628269 0.1700043 0.4394807 0.3062715 0.4394807 0.3062714 0.4628268 0.9453594 0.6681249 0.8031257 0.6401358 0.8031257 0.6681249 0.8533404 0.6453739 0.7693202 0.6628868 0.7693202 0.6453739 0.8620354 0.6416894 0.839685 0.6665713 0.8620354 0.6665713 0.772634 0.7036692 0.8620354 0.6045915 0.8620354 0.7036692 0.8173347 0.6416894 0.7949844 0.6665713 0.8173347 0.6665713 0.7949844 0.6416894 0.772634 0.6665713 0.7949844 0.6665713 0.839685 0.6416894 0.8173347 0.6665713 0.839685 0.6665713 0.1690081 0.4394807 0.3052753 0.4628268 0.1690081 0.4628268 0.3052754 0.4394807 0.1700041 0.4628268 0.3052753 0.4628268 0.2950446 0.4817591 0.1676843 0.4963313 0.2950446 0.4963313 0.3062715 0.4394807 0.1705428 0.4628269 0.3062714 0.4628268 0.1700043 0.4394807 0.3062714 0.4628268 0.1700041 0.4628268 0.1690081 0.4394807 0.3052753 0.4628268 0.1690081 0.4628268 0.3052754 0.4394807 0.1700041 0.4628268 0.3052753 0.4628268 0.2950446 0.4817591 0.1676843 0.4963313 0.2950446 0.4963313 0.3062715 0.4394807 0.1705428 0.4628269 0.3062714 0.4628268 0.1700043 0.4394807 0.3062714 0.4628268 0.1700041 0.4628268 0.9573771 0.8728813 0.8990868 0.8254581 0.8346146 0.8736419 0.9561927 0.6817523 0.833431 0.6825137 0.898495 0.7298942 0.9573771 0.8728813 0.9268345 0.7775023 0.8990868 0.8254581 0.9561927 0.6817523 0.898495 0.7298942 0.9268345 0.7775023 0.9561927 0.6817523 0.9268345 0.7775023 0.9573771 0.8728813 0.9453594 0.6681249 0.9453594 0.6401358 0.8031257 0.6401358 0.9497641 0.867393 0.827 0.8673931 0.891769 0.8196099 0.9497641 0.6762605 0.8917691 0.7240436 0.827 0.6762604 0.9497641 0.867393 0.891769 0.8196099 0.919813 0.7718267 0.9497641 0.6762605 0.919813 0.7718267 0.8917691 0.7240436 0.9497641 0.867393 0.919813 0.7718267 0.9497641 0.6762605 0.8533404 0.6453739 0.8533404 0.6628868 0.7693202 0.6628868 0.8620354 0.6416894 0.839685 0.6416894 0.839685 0.6665713 0.772634 0.7036692 0.772634 0.6045915 0.8620354 0.6045915 0.8173347 0.6416894 0.7949844 0.6416894 0.7949844 0.6665713 0.7949844 0.6416894 0.772634 0.6416894 0.772634 0.6665713 0.839685 0.6416894 0.8173347 0.6416894 0.8173347 0.6665713 0.1690081 0.4394807 0.3052754 0.4394807 0.3052753 0.4628268 0.3052754 0.4394807 0.1700043 0.4394807 0.1700041 0.4628268 0.2950446 0.4817591 0.1676843 0.4817591 0.1676843 0.4963313 0.3062715 0.4394807 0.1705428 0.4394807 0.1705428 0.4628269 0.1700043 0.4394807 0.3062715 0.4394807 0.3062714 0.4628268 0.9573771 0.8728813 0.8990868 0.8254581 0.8346146 0.8736419 0.9561927 0.6817523 0.833431 0.6825137 0.898495 0.7298942 0.9573771 0.8728813 0.9268345 0.7775023 0.8990868 0.8254581 0.9561927 0.6817523 0.898495 0.7298942 0.9268345 0.7775023 0.9561927 0.6817523 0.9268345 0.7775023 0.9573771 0.8728813 0.9453594 0.6681249 0.9453594 0.6401358 0.8031257 0.6401358 0.9497641 0.867393 0.827 0.8673931 0.891769 0.8196099 0.9497641 0.6762605 0.8917691 0.7240436 0.827 0.6762604 0.9497641 0.867393 0.891769 0.8196099 0.919813 0.7718267 0.9497641 0.6762605 0.919813 0.7718267 0.8917691 0.7240436 0.9497641 0.867393 0.919813 0.7718267 0.9497641 0.6762605 0.8533404 0.6453739 0.8533404 0.6628868 0.7693202 0.6628868 0.8620354 0.6416894 0.839685 0.6416894 0.839685 0.6665713 0.772634 0.7036692 0.772634 0.6045915 0.8620354 0.6045915 0.8173347 0.6416894 0.7949844 0.6416894 0.7949844 0.6665713 0.7949844 0.6416894 0.772634 0.6416894 0.772634 0.6665713 0.839685 0.6416894 0.8173347 0.6416894 0.8173347 0.6665713 0.1690081 0.4394807 0.3052754 0.4394807 0.3052753 0.4628268 0.3052754 0.4394807 0.1700043 0.4394807 0.1700041 0.4628268 0.2950446 0.4817591 0.1676843 0.4817591 0.1676843 0.4963313 0.3062715 0.4394807 0.1705428 0.4394807 0.1705428 0.4628269 0.1700043 0.4394807 0.3062715 0.4394807 0.3062714 0.4628268 0.9453594 0.6681249 0.8031257 0.6401358 0.8031257 0.6681249 0.8533404 0.6453739 0.7693202 0.6628868 0.7693202 0.6453739 0.8620354 0.6416894 0.839685 0.6665713 0.8620354 0.6665713 0.772634 0.7036692 0.8620354 0.6045915 0.8620354 0.7036692 0.8173347 0.6416894 0.7949844 0.6665713 0.8173347 0.6665713 0.7949844 0.6416894 0.772634 0.6665713 0.7949844 0.6665713 0.839685 0.6416894 0.8173347 0.6665713 0.839685 0.6665713 0.1690081 0.4394807 0.3052753 0.4628268 0.1690081 0.4628268 0.3052754 0.4394807 0.1700041 0.4628268 0.3052753 0.4628268 0.2950446 0.4817591 0.1676843 0.4963313 0.2950446 0.4963313 0.3062715 0.4394807 0.1705428 0.4628269 0.3062714 0.4628268 0.1700043 0.4394807 0.3062714 0.4628268 0.1700041 0.4628268 0.9453594 0.6681249 0.8031257 0.6401358 0.8031257 0.6681249 0.8533404 0.6453739 0.7693202 0.6628868 0.7693202 0.6453739 0.8620354 0.6416894 0.839685 0.6665713 0.8620354 0.6665713 0.772634 0.7036692 0.8620354 0.6045915 0.8620354 0.7036692 0.8173347 0.6416894 0.7949844 0.6665713 0.8173347 0.6665713 0.7949844 0.6416894 0.772634 0.6665713 0.7949844 0.6665713 0.839685 0.6416894 0.8173347 0.6665713 0.839685 0.6665713 0.1690081 0.4394807 0.3052753 0.4628268 0.1690081 0.4628268 0.3052754 0.4394807 0.1700041 0.4628268 0.3052753 0.4628268 0.2950446 0.4817591 0.1676843 0.4963313 0.2950446 0.4963313 0.3062715 0.4394807 0.1705428 0.4628269 0.3062714 0.4628268 0.1700043 0.4394807 0.3062714 0.4628268 0.1700041 0.4628268 0.9573771 0.8728813 0.8346146 0.8736419 0.8990868 0.8254581 0.9561927 0.6817523 0.898495 0.7298942 0.833431 0.6825137 0.9573771 0.8728813 0.8990868 0.8254581 0.9268345 0.7775023 0.9561927 0.6817523 0.9268345 0.7775023 0.898495 0.7298942 0.9561927 0.6817523 0.9573771 0.8728813 0.9268345 0.7775023 0.9453594 0.6681249 0.8031257 0.6401358 0.9453594 0.6401358 0.9497641 0.867393 0.891769 0.8196099 0.827 0.8673931 0.9497641 0.6762605 0.827 0.6762604 0.8917691 0.7240436 0.9497641 0.867393 0.919813 0.7718267 0.891769 0.8196099 0.9497641 0.6762605 0.8917691 0.7240436 0.919813 0.7718267 0.9497641 0.867393 0.9497641 0.6762605 0.919813 0.7718267 0.8533404 0.6453739 0.7693202 0.6628868 0.8533404 0.6628868 0.8620354 0.6416894 0.839685 0.6665713 0.839685 0.6416894 0.772634 0.7036692 0.8620354 0.6045915 0.772634 0.6045915 0.8173347 0.6416894 0.7949844 0.6665713 0.7949844 0.6416894 0.7949844 0.6416894 0.772634 0.6665713 0.772634 0.6416894 0.839685 0.6416894 0.8173347 0.6665713 0.8173347 0.6416894 0.1690081 0.4394807 0.3052753 0.4628268 0.3052754 0.4394807 0.3052754 0.4394807 0.1700041 0.4628268 0.1700043 0.4394807 0.2950446 0.4817591 0.1676843 0.4963313 0.1676843 0.4817591 0.3062715 0.4394807 0.1705428 0.4628269 0.1705428 0.4394807 0.1700043 0.4394807 0.3062714 0.4628268 0.3062715 0.4394807 0.9573771 0.8728813 0.8346146 0.8736419 0.8990868 0.8254581 0.9561927 0.6817523 0.898495 0.7298942 0.833431 0.6825137 0.9573771 0.8728813 0.8990868 0.8254581 0.9268345 0.7775023 0.9561927 0.6817523 0.9268345 0.7775023 0.898495 0.7298942 0.9561927 0.6817523 0.9573771 0.8728813 0.9268345 0.7775023 0.9453594 0.6681249 0.8031257 0.6401358 0.9453594 0.6401358 0.9497641 0.867393 0.891769 0.8196099 0.827 0.8673931 0.9497641 0.6762605 0.827 0.6762604 0.8917691 0.7240436 0.9497641 0.867393 0.919813 0.7718267 0.891769 0.8196099 0.9497641 0.6762605 0.8917691 0.7240436 0.919813 0.7718267 0.9497641 0.867393 0.9497641 0.6762605 0.919813 0.7718267 0.8533404 0.6453739 0.7693202 0.6628868 0.8533404 0.6628868 0.8620354 0.6416894 0.839685 0.6665713 0.839685 0.6416894 0.772634 0.7036692 0.8620354 0.6045915 0.772634 0.6045915 0.8173347 0.6416894 0.7949844 0.6665713 0.7949844 0.6416894 0.7949844 0.6416894 0.772634 0.6665713 0.772634 0.6416894 0.839685 0.6416894 0.8173347 0.6665713 0.8173347 0.6416894 0.9453594 0.6681249 0.8031257 0.6681249 0.8031257 0.6401358 0.8533404 0.6453739 0.7693202 0.6453739 0.7693202 0.6628868 0.8620354 0.6416894 0.8620354 0.6665713 0.839685 0.6665713 0.772634 0.7036692 0.8620354 0.7036692 0.8620354 0.6045915 0.8173347 0.6416894 0.8173347 0.6665713 0.7949844 0.6665713 0.7949844 0.6416894 0.7949844 0.6665713 0.772634 0.6665713 0.839685 0.6416894 0.839685 0.6665713 0.8173347 0.6665713 0.1690081 0.4394807 0.1690081 0.4628268 0.3052753 0.4628268 0.3052754 0.4394807 0.3052753 0.4628268 0.1700041 0.4628268 0.2950446 0.4817591 0.2950446 0.4963313 0.1676843 0.4963313 0.3062715 0.4394807 0.3062714 0.4628268 0.1705428 0.4628269 0.1700043 0.4394807 0.1700041 0.4628268 0.3062714 0.4628268 0.9453594 0.6681249 0.8031257 0.6681249 0.8031257 0.6401358 0.8533404 0.6453739 0.7693202 0.6453739 0.7693202 0.6628868 0.8620354 0.6416894 0.8620354 0.6665713 0.839685 0.6665713 0.772634 0.7036692 0.8620354 0.7036692 0.8620354 0.6045915 0.8173347 0.6416894 0.8173347 0.6665713 0.7949844 0.6665713 0.7949844 0.6416894 0.7949844 0.6665713 0.772634 0.6665713 0.839685 0.6416894 0.839685 0.6665713 0.8173347 0.6665713 0.9573771 0.8728813 0.8990868 0.8254581 0.8346146 0.8736419 0.9561927 0.6817523 0.833431 0.6825137 0.898495 0.7298942 0.9573771 0.8728813 0.9268345 0.7775023 0.8990868 0.8254581 0.9561927 0.6817523 0.898495 0.7298942 0.9268345 0.7775023 0.9561927 0.6817523 0.9268345 0.7775023 0.9573771 0.8728813 0.9453594 0.6681249 0.9453594 0.6401358 0.8031257 0.6401358 0.9497641 0.867393 0.827 0.8673931 0.891769 0.8196099 0.9497641 0.6762605 0.8917691 0.7240436 0.827 0.6762604 0.9497641 0.867393 0.891769 0.8196099 0.919813 0.7718267 0.9497641 0.6762605 0.919813 0.7718267 0.8917691 0.7240436 0.9497641 0.867393 0.919813 0.7718267 0.9497641 0.6762605 0.8533404 0.6453739 0.8533404 0.6628868 0.7693202 0.6628868 0.8620354 0.6416894 0.839685 0.6416894 0.839685 0.6665713 0.772634 0.7036692 0.772634 0.6045915 0.8620354 0.6045915 0.8173347 0.6416894 0.7949844 0.6416894 0.7949844 0.6665713 0.7949844 0.6416894 0.772634 0.6416894 0.772634 0.6665713 0.839685 0.6416894 0.8173347 0.6416894 0.8173347 0.6665713 0.1690081 0.4394807 0.3052754 0.4394807 0.3052753 0.4628268 0.3052754 0.4394807 0.1700043 0.4394807 0.1700041 0.4628268 0.2950446 0.4817591 0.1676843 0.4817591 0.1676843 0.4963313 0.3062715 0.4394807 0.1705428 0.4394807 0.1705428 0.4628269 0.1700043 0.4394807 0.3062715 0.4394807 0.3062714 0.4628268 0.9573771 0.8728813 0.8990868 0.8254581 0.8346146 0.8736419 0.9561927 0.6817523 0.833431 0.6825137 0.898495 0.7298942 0.9573771 0.8728813 0.9268345 0.7775023 0.8990868 0.8254581 0.9561927 0.6817523 0.898495 0.7298942 0.9268345 0.7775023 0.9561927 0.6817523 0.9268345 0.7775023 0.9573771 0.8728813 0.9453594 0.6681249 0.9453594 0.6401358 0.8031257 0.6401358 0.9497641 0.867393 0.827 0.8673931 0.891769 0.8196099 0.9497641 0.6762605 0.8917691 0.7240436 0.827 0.6762604 0.9497641 0.867393 0.891769 0.8196099 0.919813 0.7718267 0.9497641 0.6762605 0.919813 0.7718267 0.8917691 0.7240436 0.9497641 0.867393 0.919813 0.7718267 0.9497641 0.6762605 0.8533404 0.6453739 0.8533404 0.6628868 0.7693202 0.6628868 0.8620354 0.6416894 0.839685 0.6416894 0.839685 0.6665713 0.772634 0.7036692 0.772634 0.6045915 0.8620354 0.6045915 0.8173347 0.6416894 0.7949844 0.6416894 0.7949844 0.6665713 0.7949844 0.6416894 0.772634 0.6416894 0.772634 0.6665713 0.839685 0.6416894 0.8173347 0.6416894 0.8173347 0.6665713 0.1690081 0.4394807 0.3052754 0.4394807 0.3052753 0.4628268 0.3052754 0.4394807 0.1700043 0.4394807 0.1700041 0.4628268 0.2950446 0.4817591 0.1676843 0.4817591 0.1676843 0.4963313 0.3062715 0.4394807 0.1705428 0.4394807 0.1705428 0.4628269 0.1700043 0.4394807 0.3062715 0.4394807 0.3062714 0.4628268 0.9453594 0.6681249 0.8031257 0.6401358 0.8031257 0.6681249 0.8533404 0.6453739 0.7693202 0.6628868 0.7693202 0.6453739 0.8620354 0.6416894 0.839685 0.6665713 0.8620354 0.6665713 0.772634 0.7036692 0.8620354 0.6045915 0.8620354 0.7036692 0.8173347 0.6416894 0.7949844 0.6665713 0.8173347 0.6665713 0.7949844 0.6416894 0.772634 0.6665713 0.7949844 0.6665713 0.839685 0.6416894 0.8173347 0.6665713 0.839685 0.6665713 0.1690081 0.4394807 0.3052753 0.4628268 0.1690081 0.4628268 0.3052754 0.4394807 0.1700041 0.4628268 0.3052753 0.4628268 0.2950446 0.4817591 0.1676843 0.4963313 0.2950446 0.4963313 0.3062715 0.4394807 0.1705428 0.4628269 0.3062714 0.4628268 0.1700043 0.4394807 0.3062714 0.4628268 0.1700041 0.4628268 0.9453594 0.6681249 0.8031257 0.6401358 0.8031257 0.6681249 0.8533404 0.6453739 0.7693202 0.6628868 0.7693202 0.6453739 0.8620354 0.6416894 0.839685 0.6665713 0.8620354 0.6665713 0.772634 0.7036692 0.8620354 0.6045915 0.8620354 0.7036692 0.8173347 0.6416894 0.7949844 0.6665713 0.8173347 0.6665713 0.7949844 0.6416894 0.772634 0.6665713 0.7949844 0.6665713 0.839685 0.6416894 0.8173347 0.6665713 0.839685 0.6665713 0.1690081 0.4394807 0.3052753 0.4628268 0.1690081 0.4628268 0.3052754 0.4394807 0.1700041 0.4628268 0.3052753 0.4628268 0.2950446 0.4817591 0.1676843 0.4963313 0.2950446 0.4963313 0.3062715 0.4394807 0.1705428 0.4628269 0.3062714 0.4628268 0.1700043 0.4394807 0.3062714 0.4628268 0.1700041 0.4628268 0.9573771 0.8728813 0.8346146 0.8736419 0.8990868 0.8254581 0.9561927 0.6817523 0.898495 0.7298942 0.833431 0.6825137 0.9573771 0.8728813 0.8990868 0.8254581 0.9268345 0.7775023 0.9561927 0.6817523 0.9268345 0.7775023 0.898495 0.7298942 0.9561927 0.6817523 0.9573771 0.8728813 0.9268345 0.7775023 0.9453594 0.6681249 0.8031257 0.6401358 0.9453594 0.6401358 0.9497641 0.867393 0.891769 0.8196099 0.827 0.8673931 0.9497641 0.6762605 0.827 0.6762604 0.8917691 0.7240436 0.9497641 0.867393 0.919813 0.7718267 0.891769 0.8196099 0.9497641 0.6762605 0.8917691 0.7240436 0.919813 0.7718267 0.9497641 0.867393 0.9497641 0.6762605 0.919813 0.7718267 0.8533404 0.6453739 0.7693202 0.6628868 0.8533404 0.6628868 0.8620354 0.6416894 0.839685 0.6665713 0.839685 0.6416894 0.772634 0.7036692 0.8620354 0.6045915 0.772634 0.6045915 0.8173347 0.6416894 0.7949844 0.6665713 0.7949844 0.6416894 0.7949844 0.6416894 0.772634 0.6665713 0.772634 0.6416894 0.839685 0.6416894 0.8173347 0.6665713 0.8173347 0.6416894 0.1690081 0.4394807 0.3052753 0.4628268 0.3052754 0.4394807 0.3052754 0.4394807 0.1700041 0.4628268 0.1700043 0.4394807 0.2950446 0.4817591 0.1676843 0.4963313 0.1676843 0.4817591 0.3062715 0.4394807 0.1705428 0.4628269 0.1705428 0.4394807 0.1700043 0.4394807 0.3062714 0.4628268 0.3062715 0.4394807 0.9573771 0.8728813 0.8346146 0.8736419 0.8990868 0.8254581 0.9561927 0.6817523 0.898495 0.7298942 0.833431 0.6825137 0.9573771 0.8728813 0.8990868 0.8254581 0.9268345 0.7775023 0.9561927 0.6817523 0.9268345 0.7775023 0.898495 0.7298942 0.9561927 0.6817523 0.9573771 0.8728813 0.9268345 0.7775023 0.9453594 0.6681249 0.8031257 0.6401358 0.9453594 0.6401358 0.9497641 0.867393 0.891769 0.8196099 0.827 0.8673931 0.9497641 0.6762605 0.827 0.6762604 0.8917691 0.7240436 0.9497641 0.867393 0.919813 0.7718267 0.891769 0.8196099 0.9497641 0.6762605 0.8917691 0.7240436 0.919813 0.7718267 0.9497641 0.867393 0.9497641 0.6762605 0.919813 0.7718267 0.8533404 0.6453739 0.7693202 0.6628868 0.8533404 0.6628868 0.8620354 0.6416894 0.839685 0.6665713 0.839685 0.6416894 0.772634 0.7036692 0.8620354 0.6045915 0.772634 0.6045915 0.8173347 0.6416894 0.7949844 0.6665713 0.7949844 0.6416894 0.7949844 0.6416894 0.772634 0.6665713 0.772634 0.6416894 0.839685 0.6416894 0.8173347 0.6665713 0.8173347 0.6416894 0.1690081 0.4394807 0.3052753 0.4628268 0.3052754 0.4394807 0.3052754 0.4394807 0.1700041 0.4628268 0.1700043 0.4394807 0.2950446 0.4817591 0.1676843 0.4963313 0.1676843 0.4817591 0.3062715 0.4394807 0.1705428 0.4628269 0.1705428 0.4394807 0.1700043 0.4394807 0.3062714 0.4628268 0.3062715 0.4394807 0.9453594 0.6681249 0.8031257 0.6681249 0.8031257 0.6401358 0.8533404 0.6453739 0.7693202 0.6453739 0.7693202 0.6628868 0.8620354 0.6416894 0.8620354 0.6665713 0.839685 0.6665713 0.772634 0.7036692 0.8620354 0.7036692 0.8620354 0.6045915 0.8173347 0.6416894 0.8173347 0.6665713 0.7949844 0.6665713 0.7949844 0.6416894 0.7949844 0.6665713 0.772634 0.6665713 0.839685 0.6416894 0.839685 0.6665713 0.8173347 0.6665713 0.1690081 0.4394807 0.1690081 0.4628268 0.3052753 0.4628268 0.3052754 0.4394807 0.3052753 0.4628268 0.1700041 0.4628268 0.2950446 0.4817591 0.2950446 0.4963313 0.1676843 0.4963313 0.3062715 0.4394807 0.3062714 0.4628268 0.1705428 0.4628269 0.1700043 0.4394807 0.1700041 0.4628268 0.3062714 0.4628268 0.9453594 0.6681249 0.8031257 0.6681249 0.8031257 0.6401358 0.8533404 0.6453739 0.7693202 0.6453739 0.7693202 0.6628868 0.8620354 0.6416894 0.8620354 0.6665713 0.839685 0.6665713 0.772634 0.7036692 0.8620354 0.7036692 0.8620354 0.6045915 0.8173347 0.6416894 0.8173347 0.6665713 0.7949844 0.6665713 0.7949844 0.6416894 0.7949844 0.6665713 0.772634 0.6665713 0.839685 0.6416894 0.839685 0.6665713 0.8173347 0.6665713 0.1690081 0.4394807 0.1690081 0.4628268 0.3052753 0.4628268 0.3052754 0.4394807 0.3052753 0.4628268 0.1700041 0.4628268 0.2950446 0.4817591 0.2950446 0.4963313 0.1676843 0.4963313 0.3062715 0.4394807 0.3062714 0.4628268 0.1705428 0.4628269 0.1700043 0.4394807 0.1700041 0.4628268 0.3062714 0.4628268 0.2746777 0.6210377 0.2746777 0.8754829 0.02113705 0.8754829 0.3579027 0.8754829 0.2740855 0.8754829 0.2740855 0.6210377 0.02054494 0.6210377 0.2740855 0.6210377 0.2740855 0.8754829 0.1095105 0.1427575 0.1598287 0.1427575 0.1598287 0.4537191 0.1095105 0.4544535 0.1095105 0.1448819 0.1598287 0.1448819 0.1095105 0.04097944 0.1598287 0.04097944 0.1598287 0.1427575 0.4040213 0.7471965 0.02120298 0.7471966 0.02120298 0.6196069 0.1598287 0.1427575 0.1662055 0.1427575 0.1662055 0.4537191 0.1598287 0.1448819 0.1662055 0.1448819 0.1662055 0.4544535 0.1598287 0.04097944 0.1662055 0.04097944 0.1662055 0.1427575 0.1095105 0.1448819 0.1598287 0.1448819 0.1598287 0.4544535 0.2746777 0.8754829 0.02113705 0.8754829 0.02113705 0.6210377 0.1598287 0.1448819 0.1662055 0.1448819 0.1662055 0.4544535 0.2740855 0.8754829 0.02054494 0.8754829 0.02054494 0.6210377 0.1095105 0.1427575 0.1598287 0.1427575 0.1598287 0.4537191 0.0212056 0.8745647 0.0212056 0.7469748 0.4037507 0.7469749 0.1598287 0.1427575 0.1662055 0.1427575 0.1662055 0.4537191 0.1095105 0.1448819 0.1095105 0.0409832 0.1598287 0.0409832 0.3599917 0.8754829 0.2746777 0.8754829 0.2746777 0.6210377 0.02054494 0.8754829 0.02054494 0.6210377 0.2740855 0.6210377 0.1598287 0.0409832 0.1662055 0.0409832 0.1662055 0.1448819 0.1598287 0.1448819 0.1662055 0.1448819 0.1662055 0.4544535 0.1095105 0.1448819 0.1598287 0.1448819 0.1598287 0.4544535 0.1095105 0.4537191 0.1095105 0.1427575 0.1598287 0.1427575 0.02120304 0.8749181 0.02120298 0.7473284 0.4040213 0.7473284 0.1598287 0.1427575 0.1662055 0.1427575 0.1662055 0.4537191 0.2746777 0.8754829 0.02113705 0.8754829 0.02113705 0.6210377 0.2746777 0.6210377 0.2746777 0.8754829 0.02113705 0.8754829 0.3579027 0.8754829 0.2740855 0.8754829 0.2740855 0.6210377 0.02054494 0.6210377 0.2740855 0.6210377 0.2740855 0.8754829 0.1095105 0.1427575 0.1598287 0.1427575 0.1598287 0.4537191 0.1095105 0.4544535 0.1095105 0.1448819 0.1598287 0.1448819 0.1095105 0.04097944 0.1598287 0.04097944 0.1598287 0.1427575 0.4040213 0.7471965 0.02120298 0.7471966 0.02120298 0.6196069 0.1598287 0.1427575 0.1662055 0.1427575 0.1662055 0.4537191 0.1598287 0.1448819 0.1662055 0.1448819 0.1662055 0.4544535 0.1598287 0.04097944 0.1662055 0.04097944 0.1662055 0.1427575 0.1095105 0.1448819 0.1598287 0.1448819 0.1598287 0.4544535 0.2746777 0.8754829 0.02113705 0.8754829 0.02113705 0.6210377 0.1598287 0.1448819 0.1662055 0.1448819 0.1662055 0.4544535 0.2740855 0.8754829 0.02054494 0.8754829 0.02054494 0.6210377 0.1095105 0.1427575 0.1598287 0.1427575 0.1598287 0.4537191 0.0212056 0.8745647 0.0212056 0.7469748 0.4037507 0.7469749 0.1598287 0.1427575 0.1662055 0.1427575 0.1662055 0.4537191 0.1095105 0.1448819 0.1095105 0.0409832 0.1598287 0.0409832 0.3599917 0.8754829 0.2746777 0.8754829 0.2746777 0.6210377 0.02054494 0.8754829 0.02054494 0.6210377 0.2740855 0.6210377 0.1598287 0.0409832 0.1662055 0.0409832 0.1662055 0.1448819 0.1598287 0.1448819 0.1662055 0.1448819 0.1662055 0.4544535 0.1095105 0.1448819 0.1598287 0.1448819 0.1598287 0.4544535 0.1095105 0.4537191 0.1095105 0.1427575 0.1598287 0.1427575 0.02120304 0.8749181 0.02120298 0.7473284 0.4040213 0.7473284 0.1598287 0.1427575 0.1662055 0.1427575 0.1662055 0.4537191 0.2746777 0.8754829 0.02113705 0.8754829 0.02113705 0.6210377</float_array>
          <technique_common>
            <accessor source="#E_long_001-mesh-map-0-array" count="1446" stride="2">
              <param name="S" type="float"/>
              <param name="T" type="float"/>
            </accessor>
          </technique_common>
        </source>
        <source id="E_long_001-mesh-map-1">
          <float_array id="E_long_001-mesh-map-1-array" count="2892">0.6176745 0.1683439 0.3391764 0.002053797 0.6176745 6.19606e-4 0.6787161 0.6482769 0.7277955 0.9268277 0.6768498 0.9268277 0.3085274 0.3316562 0.03002923 0.4979463 0.03002923 0.3316562 0.03002923 0.4979463 0.003395736 0.3316562 0.03002923 0.3316562 0.3391764 0.002053797 0.3125429 0.1683439 0.3125429 0.001779854 0.6787161 0.6482769 0.7297125 0.6216943 0.7259292 0.6482769 0.6189138 0.1671836 0.6736935 6.19603e-4 0.6736935 0.1671836 0.003395736 0.4982203 6.19636e-4 0.3316562 0.003395736 0.3316562 0.3125429 0.1683439 0.3097667 0.001779854 0.3125429 0.001779854 0.6749328 0.6216943 0.7297125 0.6189179 0.7297125 0.6216943 0.3391764 0.3316559 0.3125429 0.1683439 0.3391764 0.1683439 0.3391764 0.3316559 0.6176745 0.1683439 0.6176745 0.331656 0.3125429 0.331656 0.3097667 0.1683439 0.3125429 0.1683439 0.03002923 0.3316562 0.3085274 0.1683441 0.3085274 0.3316562 0.03002923 0.3316562 0.003395736 0.1683441 0.03002929 0.1683441 0.6189138 0.1671836 0.6736935 0.3304957 0.6189138 0.3304957 0.003395736 0.3316562 6.19648e-4 0.1683441 0.003395736 0.1683441 0.7259292 0.02997976 0.6749328 0.003396034 0.7297125 0.003396034 0.6787161 0.02997976 0.7277955 0.3085294 0.6768498 0.3085294 0.03002929 0.002890825 0.3085274 0.1683441 0.03002929 0.1683441 0.6749328 0.003396034 0.7297125 6.1962e-4 0.7297125 0.003396034 0.3125429 0.4982199 0.3097667 0.331656 0.3125429 0.331656 0.3391764 0.4971092 0.3125429 0.331656 0.3391764 0.3316559 0.03002929 0.002890825 0.003395736 0.1683441 0.003395795 0.001779854 0.6189138 0.3304957 0.6736935 0.4970596 0.6189138 0.49706 0.003395736 0.1683441 6.19661e-4 0.001779854 0.003395795 0.001779854 0.3391764 0.4971092 0.6176745 0.331656 0.6176745 0.4993805 0.3085274 0.668344 0.03002929 0.5028907 0.3085275 0.5006199 0.7347351 0.02997976 0.7838145 0.3085294 0.7328687 0.3085294 0.6176745 0.8316562 0.3391764 0.9971095 0.3391764 0.8316562 0.3391764 0.9971095 0.3125429 0.8316562 0.3391764 0.8316562 0.03002929 0.5028907 0.003395736 0.668344 0.003395795 0.5017801 0.7347351 0.02997976 0.7857314 0.003396034 0.7819482 0.02997976 0.6189138 0.6648632 0.6736935 0.4982993 0.6736935 0.6648632 0.3125429 0.9982202 0.3097667 0.8316562 0.3125429 0.8316562 0.003395736 0.668344 6.19665e-4 0.5017801 0.003395795 0.5017801 0.7309517 0.003396034 0.7857314 6.1962e-4 0.7857314 0.003396034 0.03002923 0.831656 0.003395736 0.668344 0.03002929 0.668344 0.03002923 0.831656 0.3085274 0.668344 0.3085274 0.8316561 0.003395736 0.8316561 6.19652e-4 0.668344 0.003395736 0.668344 0.3391764 0.8316562 0.6176745 0.6683441 0.6176745 0.8316562 0.3391764 0.8316562 0.3125429 0.6683441 0.3391764 0.6683441 0.6189138 0.6648632 0.6736935 0.8281753 0.6189138 0.8281753 0.3125429 0.8316562 0.3097667 0.6683441 0.3125429 0.6683441 0.7259292 0.3391278 0.6749328 0.3125452 0.7297125 0.3125452 0.6787161 0.3391278 0.7277955 0.6176787 0.6768498 0.6176787 0.3391764 0.502054 0.6176745 0.6683441 0.3391764 0.6683441 0.6749328 0.3125452 0.7297125 0.3097687 0.7297125 0.3125452 0.003395736 0.9982202 6.1964e-4 0.8316561 0.003395736 0.8316561 0.03002923 0.9979462 0.003395736 0.8316561 0.03002923 0.831656 0.3391764 0.502054 0.3125429 0.6683441 0.3125429 0.50178 0.6189138 0.8281753 0.6736935 0.9947394 0.6189138 0.9947394 0.3125429 0.6683441 0.3097668 0.50178 0.3125429 0.50178 0.03002923 0.9979462 0.3085274 0.8316561 0.3085274 0.9993804 0.8321054 0.1408525 0.7869707 0.1408525 0.8107833 0.1234783 0.8321054 0.07135564 0.8107833 0.08872985 0.7869707 0.07135564 0.8321054 0.1408525 0.8107833 0.1234783 0.8210938 0.106104 0.8321054 0.07135564 0.8210938 0.106104 0.8107833 0.08872985 0.8321054 0.07135564 0.8321054 0.1408525 0.8210938 0.106104 0.8753474 0.6116468 0.8839204 0.5665076 0.8839204 0.6116468 0.8321053 0.1420917 0.8107833 0.1594659 0.7869707 0.1420917 0.8321053 0.2115885 0.7869707 0.2115885 0.8107833 0.1942143 0.8321053 0.1420917 0.8210937 0.1768401 0.8107833 0.1594659 0.8321053 0.2115885 0.8107833 0.1942143 0.8210937 0.1768401 0.8321053 0.1420917 0.8321053 0.2115885 0.8210937 0.1768401 0.8753476 0.6580252 0.8839204 0.612886 0.8839204 0.6580252 0.8949719 0.1007406 0.9035447 0.1245315 0.8949719 0.1245315 0.8753474 0.0701164 0.8839204 6.19624e-4 0.8839204 0.0701164 0.8937326 0.9448034 0.8851597 0.9274293 0.8937326 0.9274293 0.9035447 0.02441054 0.8949718 6.1962e-4 0.9035447 6.1962e-4 0.8937326 0.9621777 0.8851597 0.9448035 0.8937326 0.9448034 0.8741082 0.1621645 0.8620141 0.08201169 0.8741082 0.08201169 0.9070672 0.5653814 0.8949719 0.5512845 0.9070672 0.5512845 0.8474416 0.6505177 0.8333446 0.5703648 0.8474416 0.5703648 0.9070671 0.5807175 0.8949718 0.5666206 0.9070671 0.5666206 0.8741081 0.2435566 0.8620141 0.1634038 0.8741081 0.1634038 0.7760864 0.5207378 0.7309517 0.5207378 0.7547643 0.5033636 0.7760864 0.451241 0.7547643 0.4686152 0.7309517 0.451241 0.7760864 0.5207378 0.7547643 0.5033636 0.7650748 0.4859893 0.7760864 0.451241 0.7650748 0.4859893 0.7547643 0.4686152 0.7760864 0.451241 0.7760864 0.5207378 0.7650748 0.4859893 0.8753474 0.7044038 0.8839204 0.6592645 0.8839204 0.7044038 0.7760864 0.5219771 0.7547643 0.5393514 0.7309517 0.5219771 0.7760864 0.591474 0.7309517 0.591474 0.7547643 0.5740997 0.7760864 0.5219771 0.7650748 0.5567256 0.7547643 0.5393514 0.7760864 0.591474 0.7547643 0.5740997 0.7650748 0.5567256 0.7760864 0.5219771 0.7760864 0.591474 0.7650748 0.5567256 0.8753475 0.7507822 0.8839204 0.7056429 0.8839204 0.7507822 0.8949718 0.1257708 0.9035447 0.1495618 0.8949718 0.1495618 0.8620141 0.8733813 0.8705871 0.8038844 0.8705871 0.8733813 0.8937326 0.8008527 0.8851596 0.7834786 0.8937326 0.7834786 0.9035447 0.1745919 0.8949718 0.150801 0.9035447 0.150801 0.8937326 0.818227 0.8851596 0.8008528 0.8937326 0.8008527 0.8607749 0.3249493 0.8486809 0.2447963 0.8607749 0.2447963 0.9070671 0.5960537 0.8949718 0.5819568 0.9070671 0.5819568 0.8474416 0.243557 0.8333447 0.1634041 0.8474416 0.1634041 0.9070671 0.6113898 0.8949719 0.5972929 0.9070671 0.5972929 0.8607749 0.4063414 0.8486809 0.3261885 0.8607749 0.3261885 0.8753474 0.6116468 0.8753474 0.5665076 0.8839204 0.5665076 0.8753476 0.6580252 0.8753476 0.612886 0.8839204 0.612886 0.8949719 0.1007406 0.9035447 0.1007406 0.9035447 0.1245315 0.8753474 0.0701164 0.8753474 6.19623e-4 0.8839204 6.19624e-4 0.8937326 0.9448034 0.8851597 0.9448035 0.8851597 0.9274293 0.9035447 0.02441054 0.8949718 0.02441054 0.8949718 6.1962e-4 0.8937326 0.9621777 0.8851597 0.9621777 0.8851597 0.9448035 0.8741082 0.1621645 0.8620141 0.1621645 0.8620141 0.08201169 0.9070672 0.5653814 0.8949719 0.5653814 0.8949719 0.5512845 0.8474416 0.6505177 0.8333446 0.6505177 0.8333446 0.5703648 0.9070671 0.5807175 0.8949718 0.5807175 0.8949718 0.5666206 0.8741081 0.2435566 0.8620141 0.2435566 0.8620141 0.1634038 0.8753474 0.7044038 0.8753474 0.6592645 0.8839204 0.6592645 0.8753475 0.7507822 0.8753475 0.7056429 0.8839204 0.7056429 0.8949718 0.1257708 0.9035447 0.1257708 0.9035447 0.1495618 0.8620141 0.8733813 0.8620142 0.8038844 0.8705871 0.8038844 0.8937326 0.8008527 0.8851596 0.8008528 0.8851596 0.7834786 0.9035447 0.1745919 0.8949718 0.1745919 0.8949718 0.150801 0.8937326 0.818227 0.8851596 0.818227 0.8851596 0.8008528 0.8607749 0.3249493 0.8486809 0.3249493 0.8486809 0.2447963 0.9070671 0.5960537 0.8949718 0.5960537 0.8949718 0.5819568 0.8474416 0.243557 0.8333446 0.243557 0.8333447 0.1634041 0.9070671 0.6113898 0.8949719 0.6113898 0.8949719 0.5972929 0.8607749 0.4063414 0.8486809 0.4063414 0.8486809 0.3261885 0.8321053 0.3542999 0.8107833 0.371674 0.7869707 0.3542999 0.8321053 0.4237966 0.7869707 0.4237966 0.8107833 0.4064224 0.8321053 0.3542999 0.8210937 0.3890483 0.8107833 0.371674 0.8321053 0.4237966 0.8107833 0.4064224 0.8210937 0.3890483 0.8321053 0.4237966 0.8210937 0.3890483 0.8321053 0.3542999 0.8839204 0.7971607 0.8753475 0.7971607 0.8753475 0.7520214 0.8321054 0.4945327 0.7869707 0.4945327 0.8107833 0.4771585 0.8321054 0.4250358 0.8107833 0.4424101 0.7869707 0.4250358 0.8321054 0.4945327 0.8107833 0.4771585 0.8210938 0.4597843 0.8321054 0.4250358 0.8210938 0.4597843 0.8107833 0.4424101 0.8321054 0.4945327 0.8210938 0.4597843 0.8321054 0.4250358 0.8839204 0.8435392 0.8753474 0.8435392 0.8753474 0.7984 0.9035447 0.1758312 0.9035447 0.1996222 0.8949718 0.1996222 0.8753474 0.1420917 0.8839204 0.1420917 0.8839204 0.2115885 0.8937326 0.8728281 0.8937326 0.8902023 0.8851597 0.8902023 0.8949718 0.2246524 0.8949718 0.2008614 0.9035447 0.2008614 0.8937326 0.8554539 0.8937326 0.8728281 0.8851597 0.8728281 0.8741082 0.2447958 0.8741082 0.3249487 0.8620141 0.3249486 0.9070671 0.6126291 0.9070671 0.626726 0.8949719 0.626726 0.8474416 0.6517569 0.8474416 0.7319097 0.8333447 0.7319097 0.9070672 0.6279652 0.9070672 0.6420621 0.8949719 0.6420621 0.8741081 0.326188 0.8741081 0.4063407 0.862014 0.4063407 0.860775 0.570365 0.860775 0.6505178 0.8486809 0.6505178 0.9070671 0.6433014 0.9070671 0.6573983 0.8949718 0.6573983 0.8474416 0.3261884 0.8474416 0.4063413 0.8333446 0.4063413 0.9070671 0.6586375 0.9070671 0.6727344 0.8949718 0.6727344 0.8607749 0.6517571 0.8607749 0.7319099 0.8486809 0.7319099 0.8839204 0.7971607 0.8753475 0.7520214 0.8839204 0.7520214 0.8839204 0.8435392 0.8753474 0.7984 0.8839204 0.7984 0.9035447 0.1758312 0.8949718 0.1996222 0.8949718 0.1758312 0.8753474 0.1420917 0.8839204 0.2115885 0.8753474 0.2115885 0.8937326 0.8728281 0.8851597 0.8902023 0.8851597 0.8728281 0.8949718 0.2246524 0.9035447 0.2008614 0.9035447 0.2246524 0.8937326 0.8554539 0.8851597 0.8728281 0.8851597 0.8554539 0.8741082 0.2447958 0.8620141 0.3249486 0.8620141 0.2447958 0.9070671 0.6126291 0.8949719 0.626726 0.8949719 0.6126291 0.8474416 0.6517569 0.8333447 0.7319097 0.8333447 0.6517569 0.9070672 0.6279652 0.8949719 0.6420621 0.8949719 0.6279652 0.8741081 0.326188 0.862014 0.4063407 0.862014 0.326188 0.860775 0.570365 0.8486809 0.6505178 0.848681 0.570365 0.9070671 0.6433014 0.8949718 0.6573983 0.8949719 0.6433014 0.8474416 0.3261884 0.8333446 0.4063413 0.8333446 0.3261884 0.9070671 0.6586375 0.8949718 0.6727344 0.8949718 0.6586375 0.8607749 0.6517571 0.8486809 0.7319099 0.8486809 0.6517571 0.8321053 0.2128278 0.8107832 0.2302019 0.7869706 0.2128278 0.8321053 0.2823246 0.7869706 0.2823246 0.8107832 0.2649503 0.8321053 0.2128278 0.8210937 0.2475762 0.8107832 0.2302019 0.8321053 0.2823246 0.8107832 0.2649503 0.8210937 0.2475762 0.8321053 0.2823246 0.8210937 0.2475762 0.8321053 0.2128278 0.8839204 0.8899177 0.8753475 0.8899177 0.8753475 0.8447785 0.8321054 0.3530606 0.7869707 0.3530606 0.8107833 0.3356864 0.8321054 0.2835638 0.8107833 0.300938 0.7869707 0.2835638 0.8321054 0.3530606 0.8107833 0.3356864 0.8210938 0.3183122 0.8321054 0.2835638 0.8210938 0.3183122 0.8107833 0.300938 0.8321054 0.3530606 0.8210938 0.3183122 0.8321054 0.2835638 0.8839204 0.9362963 0.8753474 0.9362963 0.8753474 0.8911571 0.9035447 0.2258916 0.9035447 0.2496826 0.8949718 0.2496826 0.8753476 0.07135564 0.8839204 0.07135564 0.8839204 0.1408525 0.8937326 0.9807913 0.8937326 0.9981654 0.8851596 0.9981654 0.8949718 0.2747128 0.8949718 0.2509219 0.9035447 0.2509219 0.8937326 0.963417 0.8937326 0.9807913 0.8851596 0.9807912 0.8741082 0.40758 0.8741082 0.4877328 0.8620141 0.4877328 0.9070671 0.6739736 0.9070671 0.6880705 0.8949718 0.6880705 0.8474416 0.7331489 0.8474416 0.8133018 0.8333447 0.8133018 0.9070671 0.6893098 0.9070671 0.7034067 0.8949718 0.7034067 0.8741081 0.488972 0.8741081 0.5691249 0.8620141 0.5691249 0.7760864 0.5927132 0.7547643 0.6100874 0.7309517 0.5927132 0.7760864 0.6622101 0.7309517 0.6622101 0.7547643 0.6448358 0.7760864 0.5927132 0.7650748 0.6274617 0.7547643 0.6100874 0.7760864 0.6622101 0.7547643 0.6448358 0.7650748 0.6274617 0.7760864 0.6622101 0.7650748 0.6274617 0.7760864 0.5927132 0.8839204 0.9826748 0.8753476 0.9826748 0.8753476 0.9375357 0.7760864 0.7329462 0.7309517 0.7329462 0.7547643 0.715572 0.7760864 0.6634494 0.7547643 0.6808236 0.7309517 0.6634494 0.7760864 0.7329462 0.7547643 0.715572 0.7650748 0.6981978 0.7760864 0.6634494 0.7650748 0.6981978 0.7547643 0.6808236 0.7760864 0.7329462 0.7650748 0.6981978 0.7760864 0.6634494 0.8937326 0.04575884 0.8851596 0.04575884 0.8851596 6.1964e-4 0.9035447 0.02564984 0.9035447 0.0494408 0.8949718 0.0494408 0.8620142 0.8746204 0.8705872 0.8746204 0.8705872 0.9441173 0.8937326 0.8368404 0.8937326 0.8542146 0.8851596 0.8542145 0.8949717 0.2997431 0.8949717 0.2759521 0.9035447 0.2759521 0.8937326 0.8194661 0.8937326 0.8368404 0.8851596 0.8368403 0.8607749 0.4075806 0.8607749 0.4877335 0.8486809 0.4877335 0.9070671 0.704646 0.9070671 0.7187429 0.8949719 0.7187429 0.8474417 0.2447962 0.8474417 0.3249492 0.8333448 0.3249492 0.9070671 0.7199821 0.9070671 0.734079 0.8949718 0.734079 0.8607749 0.4889728 0.8607749 0.5691257 0.8486809 0.5691257 0.8839204 0.8899177 0.8753475 0.8447785 0.8839204 0.8447785 0.8839204 0.9362963 0.8753474 0.8911571 0.8839204 0.8911571 0.9035447 0.2258916 0.8949718 0.2496826 0.8949718 0.2258916 0.8753476 0.07135564 0.8839204 0.1408525 0.8753476 0.1408525 0.8937326 0.9807913 0.8851596 0.9981654 0.8851596 0.9807912 0.8949718 0.2747128 0.9035447 0.2509219 0.9035447 0.2747128 0.8937326 0.963417 0.8851596 0.9807912 0.8851596 0.963417 0.8741082 0.40758 0.8620141 0.4877328 0.8620141 0.40758 0.9070671 0.6739736 0.8949718 0.6880705 0.8949718 0.6739736 0.8474416 0.7331489 0.8333447 0.8133018 0.8333447 0.7331489 0.9070671 0.6893098 0.8949718 0.7034067 0.8949718 0.6893098 0.8741081 0.488972 0.8620141 0.5691249 0.8620141 0.488972 0.8839204 0.9826748 0.8753476 0.9375357 0.8839204 0.9375357 0.8937326 0.04575884 0.8851596 6.1964e-4 0.8937326 6.1964e-4 0.9035447 0.02564984 0.8949718 0.0494408 0.8949718 0.02564984 0.8620142 0.8746204 0.8705872 0.9441173 0.8620142 0.9441173 0.8937326 0.8368404 0.8851596 0.8542145 0.8851596 0.8368403 0.8949717 0.2997431 0.9035447 0.2759521 0.9035447 0.2997431 0.8937326 0.8194661 0.8851596 0.8368403 0.8851596 0.8194661 0.8607749 0.4075806 0.8486809 0.4877335 0.8486809 0.4075806 0.9070671 0.704646 0.8949719 0.7187429 0.8949719 0.704646 0.8474417 0.2447962 0.8333448 0.3249492 0.8333448 0.2447962 0.9070671 0.7199821 0.8949718 0.734079 0.8949718 0.7199821 0.8607749 0.4889728 0.8486809 0.5691257 0.8486809 0.4889728 0.8321055 0.5652688 0.7869708 0.5652687 0.8107834 0.5478946 0.8321055 0.495772 0.8107834 0.5131462 0.7869708 0.495772 0.8321055 0.5652688 0.8107834 0.5478946 0.8210939 0.5305203 0.8321055 0.495772 0.8210939 0.5305203 0.8107834 0.5131462 0.8321055 0.495772 0.8321055 0.5652688 0.8210939 0.5305203 0.8851596 0.09213733 0.8937326 0.04699808 0.8937326 0.09213733 0.8321053 0.5665079 0.8107832 0.5838821 0.7869706 0.5665079 0.8321053 0.6360047 0.7869706 0.6360047 0.8107832 0.6186305 0.8321053 0.5665079 0.8210937 0.6012563 0.8107832 0.5838821 0.8321053 0.6360047 0.8107832 0.6186305 0.8210937 0.6012563 0.8321053 0.5665079 0.8321053 0.6360047 0.8210937 0.6012563 0.8851596 0.1385158 0.8937326 0.09337657 0.8937326 0.1385158 0.8949717 0.3009823 0.9035447 0.3247733 0.8949717 0.3247733 0.8753475 0.2823245 0.8839204 0.2128278 0.8839204 0.2823245 0.8937326 0.9088158 0.8851596 0.8914416 0.8937326 0.8914416 0.9035447 0.3498035 0.8949718 0.3260125 0.9035447 0.3260125 0.8937326 0.92619 0.8851596 0.9088159 0.8937326 0.9088158 0.8741083 0.6505169 0.8620142 0.5703641 0.8741083 0.5703641 0.9070671 0.7494152 0.8949718 0.7353183 0.9070671 0.7353183 0.8474416 0.8946937 0.8333447 0.8145409 0.8474416 0.8145409 0.9070671 0.7647513 0.8949719 0.7506544 0.9070671 0.7506544 0.8741081 0.731909 0.8620141 0.6517562 0.8741081 0.6517562 0.7760864 0.3792656 0.7309517 0.3792656 0.7547643 0.3618913 0.7760864 0.3097687 0.7547643 0.3271429 0.7309517 0.3097687 0.7760864 0.3792656 0.7547643 0.3618913 0.7650748 0.3445171 0.7760864 0.3097687 0.7650748 0.3445171 0.7547643 0.3271429 0.7760864 0.3097687 0.7760864 0.3792656 0.7650748 0.3445171 0.8851596 0.1848943 0.8937326 0.139755 0.8937326 0.1848943 0.7760863 0.3805049 0.7547643 0.3978791 0.7309517 0.3805049 0.7760863 0.4500017 0.7309517 0.4500017 0.7547643 0.4326274 0.7760863 0.3805049 0.7650747 0.4152533 0.7547643 0.3978791 0.7760863 0.4500017 0.7547643 0.4326274 0.7650747 0.4152533 0.7760863 0.3805049 0.7760863 0.4500017 0.7650747 0.4152533 0.8851597 0.2312728 0.8937326 0.1861335 0.8937326 0.2312728 0.8949719 0.3510427 0.9035447 0.3748337 0.8949719 0.3748337 0.8620142 0.802645 0.8705871 0.7331482 0.8705871 0.802645 0.8937326 0.7648651 0.8851596 0.747491 0.8937326 0.7474909 0.9035447 0.07447105 0.8949718 0.05068004 0.9035447 0.05068004 0.8937326 0.7822393 0.8851596 0.7648651 0.8937326 0.7648651 0.8851596 0.09213733 0.8851596 0.04699808 0.8937326 0.04699808 0.8851596 0.1385158 0.8851596 0.09337657 0.8937326 0.09337657 0.8949717 0.3009823 0.9035447 0.3009823 0.9035447 0.3247733 0.8753475 0.2823245 0.8753475 0.2128278 0.8839204 0.2128278 0.8937326 0.9088158 0.8851596 0.9088159 0.8851596 0.8914416 0.9035447 0.3498035 0.8949718 0.3498035 0.8949718 0.3260125 0.8937326 0.92619 0.8851596 0.92619 0.8851596 0.9088159 0.8741083 0.6505169 0.8620142 0.6505169 0.8620142 0.5703641 0.9070671 0.7494152 0.8949718 0.7494152 0.8949718 0.7353183 0.8474416 0.8946937 0.8333447 0.8946937 0.8333447 0.8145409 0.9070671 0.7647513 0.8949719 0.7647513 0.8949719 0.7506544 0.8741081 0.731909 0.8620141 0.731909 0.8620141 0.6517562 0.8851596 0.1848943 0.8851596 0.139755 0.8937326 0.139755 0.8851597 0.2312728 0.8851597 0.1861335 0.8937326 0.1861335 0.8949719 0.3510427 0.9035447 0.3510427 0.9035447 0.3748337 0.8620142 0.802645 0.8620142 0.7331482 0.8705871 0.7331482 0.8937326 0.7648651 0.8851596 0.7648651 0.8851596 0.747491 0.9035447 0.07447105 0.8949718 0.07447105 0.8949718 0.05068004 0.8937326 0.7822393 0.8851596 0.7822393 0.8851596 0.7648651 0.7760864 0.7341855 0.7547643 0.7515596 0.7309517 0.7341855 0.7760864 0.8036823 0.7309517 0.8036822 0.7547643 0.7863081 0.7760864 0.7341855 0.7650748 0.7689338 0.7547643 0.7515596 0.7760864 0.8036823 0.7547643 0.7863081 0.7650748 0.7689338 0.7760864 0.8036823 0.7650748 0.7689338 0.7760864 0.7341855 0.8937326 0.2776513 0.8851597 0.2776513 0.8851597 0.232512 0.7760864 0.8744183 0.7309517 0.8744183 0.7547643 0.8570442 0.7760864 0.8049215 0.7547643 0.8222957 0.7309517 0.8049215 0.7760864 0.8744183 0.7547643 0.8570442 0.7650748 0.83967 0.7760864 0.8049215 0.7650748 0.83967 0.7547643 0.8222957 0.7760864 0.8744183 0.7650748 0.83967 0.7760864 0.8049215 0.8937326 0.3240297 0.8851596 0.3240297 0.8851596 0.2788905 0.9035447 0.376073 0.9035447 0.3998639 0.8949718 0.3998639 0.8753475 0.2835637 0.8839204 0.2835637 0.8839204 0.3530606 0.8937326 0.6928896 0.8937326 0.7102639 0.8851596 0.7102639 0.8949719 0.4248941 0.8949719 0.4011031 0.9035447 0.4011031 0.8937326 0.6755154 0.8937326 0.6928896 0.8851596 0.6928895 0.8607749 0.8959335 0.8607749 0.9760863 0.8486809 0.9760863 0.9070671 0.7659906 0.9070671 0.7800875 0.8949719 0.7800875 0.8474416 0.4075805 0.8474416 0.4877334 0.8333447 0.4877334 0.9070671 0.7813267 0.9070671 0.7954236 0.8949718 0.7954236 0.8607749 0.7331492 0.8607749 0.8133021 0.8486808 0.8133021 0.8321053 0.6372441 0.8107833 0.654618 0.7869707 0.6372441 0.8321053 0.7067406 0.7869707 0.7067406 0.8107833 0.6893665 0.8321053 0.6372441 0.8210937 0.6719925 0.8107833 0.654618 0.8321053 0.7067406 0.8107833 0.6893665 0.8210937 0.6719925 0.8321053 0.7067406 0.8210937 0.6719925 0.8321053 0.6372441 0.8937326 0.3704082 0.8851597 0.3704082 0.8851597 0.325269 0.8321053 0.7774764 0.7869707 0.7774764 0.8107833 0.7601024 0.8321053 0.7079799 0.8107833 0.7253539 0.7869707 0.7079799 0.8321053 0.7774764 0.8107833 0.7601024 0.8210937 0.7427279 0.8321053 0.7079799 0.8210937 0.7427279 0.8107833 0.7253539 0.8321053 0.7774764 0.8210937 0.7427279 0.8321053 0.7079799 0.8937326 0.4167867 0.8851596 0.4167867 0.8851596 0.3716475 0.9035447 0.4261333 0.9035447 0.4499243 0.8949718 0.4499243 0.8753475 0.4250358 0.8839204 0.4250358 0.8839204 0.4945324 0.8937326 0.6209142 0.8937326 0.6382883 0.8851597 0.6382883 0.8949719 0.4749545 0.8949719 0.4511635 0.9035448 0.4511635 0.8937326 0.6035398 0.8937326 0.6209142 0.8851597 0.6209142 0.8454387 0.895933 0.8454387 0.976086 0.8333446 0.976086 0.9070671 0.7966629 0.9070671 0.8107598 0.8949718 0.8107598 0.8474416 6.19601e-4 0.8474416 0.08077257 0.8333447 0.08077257 0.9070671 0.811999 0.9070671 0.8260959 0.8949718 0.8260959 0.8607749 6.19602e-4 0.8607749 0.08077257 0.8486809 0.08077257 0.8937326 0.2776513 0.8851597 0.232512 0.8937326 0.232512 0.8937326 0.3240297 0.8851596 0.2788905 0.8937326 0.2788905 0.9035447 0.376073 0.8949718 0.3998639 0.8949718 0.376073 0.8753475 0.2835637 0.8839204 0.3530606 0.8753475 0.3530606 0.8937326 0.6928896 0.8851596 0.7102639 0.8851596 0.6928895 0.8949719 0.4248941 0.9035447 0.4011031 0.9035447 0.4248941 0.8937326 0.6755154 0.8851596 0.6928895 0.8851596 0.6755154 0.8607749 0.8959335 0.8486809 0.9760863 0.8486809 0.8959335 0.9070671 0.7659906 0.8949719 0.7800875 0.8949719 0.7659906 0.8474416 0.4075805 0.8333447 0.4877334 0.8333448 0.4075805 0.9070671 0.7813267 0.8949718 0.7954236 0.8949718 0.7813267 0.8607749 0.7331492 0.8486808 0.8133021 0.8486809 0.7331492 0.8937326 0.3704082 0.8851597 0.325269 0.8937326 0.325269 0.8937326 0.4167867 0.8851596 0.3716475 0.8937326 0.3716475 0.9035447 0.4261333 0.8949718 0.4499243 0.8949718 0.4261333 0.8753475 0.4250358 0.8839204 0.4945324 0.8753475 0.4945324 0.8937326 0.6209142 0.8851597 0.6382883 0.8851597 0.6209142 0.8949719 0.4749545 0.9035448 0.4511635 0.9035448 0.4749545 0.8937326 0.6035398 0.8851597 0.6209142 0.8851597 0.6035398 0.8454387 0.895933 0.8333446 0.976086 0.8333446 0.895933 0.9070671 0.7966629 0.8949718 0.8107598 0.8949718 0.7966629 0.8474416 6.19601e-4 0.8333447 0.08077257 0.8333447 6.19599e-4 0.9070671 0.811999 0.8949718 0.8260959 0.8949718 0.811999 0.8607749 6.19602e-4 0.8486809 0.08077257 0.8486809 6.19601e-4 0.7760863 0.9451544 0.7309517 0.9451544 0.7547643 0.9277802 0.7760864 0.8756576 0.7547643 0.8930317 0.7309517 0.8756576 0.7760863 0.9451544 0.7547643 0.9277802 0.7650747 0.910406 0.7760864 0.8756576 0.7650747 0.910406 0.7547643 0.8930317 0.7760864 0.8756576 0.7760863 0.9451544 0.7650747 0.910406 0.8851596 0.4631651 0.8937326 0.4180259 0.8937326 0.4631651 0.8321053 6.19641e-4 0.8107833 0.01799374 0.7869707 6.19638e-4 0.8321053 0.0701164 0.7869707 0.0701164 0.8107833 0.05274224 0.8321053 6.19641e-4 0.8210937 0.0353679 0.8107833 0.01799374 0.8321053 0.0701164 0.8107833 0.05274224 0.8210937 0.0353679 0.8321053 6.19641e-4 0.8321053 0.0701164 0.8210937 0.0353679 0.8851596 0.5095436 0.8937326 0.4644044 0.8937326 0.5095436 0.8949717 0.4761938 0.9035447 0.4999848 0.8949717 0.4999848 0.8753475 0.4237966 0.8839204 0.3542998 0.8839204 0.4237966 0.8937326 0.7288773 0.8851596 0.711503 0.8937326 0.711503 0.9035447 0.09950131 0.8949718 0.07571035 0.9035447 0.07571035 0.8937326 0.7462515 0.8851596 0.7288774 0.8937326 0.7288773 0.8607749 0.8946942 0.8486809 0.8145413 0.8607749 0.8145413 0.9070671 0.841432 0.8949718 0.8273351 0.9070671 0.8273351 0.8474416 0.5691255 0.8333447 0.4889727 0.8474416 0.4889727 0.9070671 0.8567682 0.8949719 0.8426713 0.9070671 0.8426713 0.8741081 0.08077245 0.8620141 6.19602e-4 0.8741081 6.19603e-4 0.8321053 0.8482124 0.7869707 0.8482124 0.8107833 0.8308383 0.8321053 0.7787158 0.8107833 0.7960898 0.7869707 0.7787157 0.8321053 0.8482124 0.8107833 0.8308383 0.8210937 0.8134639 0.8321053 0.7787158 0.8210937 0.8134639 0.8107833 0.7960898 0.8321053 0.7787158 0.8321053 0.8482124 0.8210937 0.8134639 0.8851596 0.555922 0.8937326 0.5107828 0.8937326 0.555922 0.8321053 0.8494517 0.8107833 0.8668257 0.7869707 0.8494517 0.8321053 0.9189482 0.7869707 0.9189482 0.8107833 0.9015742 0.8321053 0.8494517 0.8210937 0.8842002 0.8107833 0.8668257 0.8321053 0.9189482 0.8107833 0.9015742 0.8210937 0.8842002 0.8321053 0.8494517 0.8321053 0.9189482 0.8210937 0.8842002 0.8851597 0.6023006 0.8937326 0.5571614 0.8937326 0.6023006 0.8949718 0.5012241 0.9035447 0.525015 0.8949718 0.525015 0.8753475 0.5652683 0.8839204 0.4957717 0.8839204 0.5652683 0.8937326 0.6569017 0.8851597 0.6395276 0.8937326 0.6395276 0.9035447 0.5500452 0.8949718 0.5262542 0.9035447 0.5262542 0.8937326 0.6742761 0.8851596 0.6569017 0.8937326 0.6569017 0.8607749 0.1621648 0.8486809 0.08201181 0.860775 0.08201181 0.9070671 0.8721044 0.8949718 0.8580074 0.9070671 0.8580074 0.8474417 0.1621648 0.8333448 0.08201187 0.8474417 0.08201187 0.9070671 0.8874405 0.8949718 0.8733436 0.9070671 0.8733436 0.8607749 0.243557 0.8486809 0.1634041 0.8607749 0.1634041 0.8851596 0.4631651 0.8851596 0.4180259 0.8937326 0.4180259 0.8851596 0.5095436 0.8851596 0.4644044 0.8937326 0.4644044 0.8949717 0.4761938 0.9035447 0.4761938 0.9035447 0.4999848 0.8753475 0.4237966 0.8753475 0.3542998 0.8839204 0.3542998 0.8937326 0.7288773 0.8851596 0.7288774 0.8851596 0.711503 0.9035447 0.09950131 0.8949718 0.09950131 0.8949718 0.07571035 0.8937326 0.7462515 0.8851596 0.7462515 0.8851596 0.7288774 0.8607749 0.8946942 0.8486809 0.8946942 0.8486809 0.8145413 0.9070671 0.841432 0.8949718 0.841432 0.8949718 0.8273351 0.8474416 0.5691255 0.8333447 0.5691255 0.8333447 0.4889727 0.9070671 0.8567682 0.8949719 0.8567682 0.8949719 0.8426713 0.8741081 0.08077245 0.8620141 0.08077245 0.8620141 6.19602e-4 0.8851596 0.555922 0.8851596 0.5107828 0.8937326 0.5107828 0.8851597 0.6023006 0.8851597 0.5571614 0.8937326 0.5571614 0.8949718 0.5012241 0.9035447 0.5012241 0.9035447 0.525015 0.8753475 0.5652683 0.8753475 0.4957717 0.8839204 0.4957717 0.8937326 0.6569017 0.8851596 0.6569017 0.8851597 0.6395276 0.9035447 0.5500452 0.8949718 0.5500452 0.8949718 0.5262542 0.8937326 0.6742761 0.8851596 0.6742761 0.8851596 0.6569017 0.8607749 0.1621648 0.8486809 0.1621648 0.8486809 0.08201181 0.9070671 0.8721044 0.8949718 0.8721044 0.8949718 0.8580074 0.8474417 0.1621648 0.8333448 0.1621648 0.8333448 0.08201187 0.9070671 0.8874405 0.8949718 0.8874405 0.8949718 0.8733436 0.8607749 0.243557 0.8486809 0.243557 0.8486809 0.1634041 0.6176745 0.1683439 0.3391764 0.1683439 0.3391764 0.002053797 0.6787161 0.6482769 0.7259292 0.6482769 0.7277955 0.9268277 0.3085274 0.3316562 0.3085274 0.4993806 0.03002923 0.4979463 0.03002923 0.4979463 0.003395736 0.4982203 0.003395736 0.3316562 0.3391764 0.002053797 0.3391764 0.1683439 0.3125429 0.1683439 0.6787161 0.6482769 0.6749328 0.6216943 0.7297125 0.6216943 0.6189138 0.1671836 0.6189138 6.196e-4 0.6736935 6.19603e-4 0.003395736 0.4982203 6.19624e-4 0.4982203 6.19636e-4 0.3316562 0.3125429 0.1683439 0.3097667 0.1683439 0.3097667 0.001779854 0.6749328 0.6216943 0.6749328 0.6189179 0.7297125 0.6189179 0.3391764 0.3316559 0.3125429 0.331656 0.3125429 0.1683439 0.3391764 0.3316559 0.3391764 0.1683439 0.6176745 0.1683439 0.3125429 0.331656 0.3097667 0.331656 0.3097667 0.1683439 0.03002923 0.3316562 0.03002929 0.1683441 0.3085274 0.1683441 0.03002923 0.3316562 0.003395736 0.3316562 0.003395736 0.1683441 0.6189138 0.1671836 0.6736935 0.1671836 0.6736935 0.3304957 0.003395736 0.3316562 6.19636e-4 0.3316562 6.19648e-4 0.1683441 0.7259292 0.02997976 0.6787161 0.02997976 0.6749328 0.003396034 0.6787161 0.02997976 0.7259292 0.02997976 0.7277955 0.3085294 0.03002929 0.002890825 0.3085274 6.19643e-4 0.3085274 0.1683441 0.6749328 0.003396034 0.6749328 6.1962e-4 0.7297125 6.1962e-4 0.3125429 0.4982199 0.3097667 0.4982199 0.3097667 0.331656 0.3391764 0.4971092 0.3125429 0.4982199 0.3125429 0.331656 0.03002929 0.002890825 0.03002929 0.1683441 0.003395736 0.1683441 0.6189138 0.3304957 0.6736935 0.3304957 0.6736935 0.4970596 0.003395736 0.1683441 6.19648e-4 0.1683441 6.19661e-4 0.001779854 0.3391764 0.4971092 0.3391764 0.3316559 0.6176745 0.331656 0.3085274 0.668344 0.03002929 0.668344 0.03002929 0.5028907 0.7347351 0.02997976 0.7819482 0.02997976 0.7838145 0.3085294 0.6176745 0.8316562 0.6176745 0.9993804 0.3391764 0.9971095 0.3391764 0.9971095 0.3125429 0.9982202 0.3125429 0.8316562 0.03002929 0.5028907 0.03002929 0.668344 0.003395736 0.668344 0.7347351 0.02997976 0.7309517 0.003396034 0.7857314 0.003396034 0.6189138 0.6648632 0.6189138 0.4982993 0.6736935 0.4982993 0.3125429 0.9982202 0.3097667 0.9982202 0.3097667 0.8316562 0.003395736 0.668344 6.19652e-4 0.668344 6.19665e-4 0.5017801 0.7309517 0.003396034 0.7309517 6.1962e-4 0.7857314 6.1962e-4 0.03002923 0.831656 0.003395736 0.8316561 0.003395736 0.668344 0.03002923 0.831656 0.03002929 0.668344 0.3085274 0.668344 0.003395736 0.8316561 6.1964e-4 0.8316561 6.19652e-4 0.668344 0.3391764 0.8316562 0.3391764 0.6683441 0.6176745 0.6683441 0.3391764 0.8316562 0.3125429 0.8316562 0.3125429 0.6683441 0.6189138 0.6648632 0.6736935 0.6648632 0.6736935 0.8281753 0.3125429 0.8316562 0.3097667 0.8316562 0.3097667 0.6683441 0.7259292 0.3391278 0.6787161 0.3391278 0.6749328 0.3125452 0.6787161 0.3391278 0.7259292 0.3391278 0.7277955 0.6176787 0.3391764 0.502054 0.6176745 0.5006198 0.6176745 0.6683441 0.6749328 0.3125452 0.6749328 0.3097687 0.7297125 0.3097687 0.003395736 0.9982202 6.19627e-4 0.9982202 6.1964e-4 0.8316561 0.03002923 0.9979462 0.003395736 0.9982202 0.003395736 0.8316561 0.3391764 0.502054 0.3391764 0.6683441 0.3125429 0.6683441 0.6189138 0.8281753 0.6736935 0.8281753 0.6736935 0.9947394 0.3125429 0.6683441 0.3097667 0.6683441 0.3097668 0.50178 0.03002923 0.9979462 0.03002923 0.831656 0.3085274 0.8316561</float_array>
          <technique_common>
            <accessor source="#E_long_001-mesh-map-1-array" count="1446" stride="2">
              <param name="S" type="float"/>
              <param name="T" type="float"/>
            </accessor>
          </technique_common>
        </source>
        <vertices id="E_long_001-mesh-vertices">
          <input semantic="POSITION" source="#E_long_001-mesh-positions"/>
        </vertices>
        <triangles material="Material_003-material" count="482">
          <input semantic="VERTEX" source="#E_long_001-mesh-vertices" offset="0"/>
          <input semantic="NORMAL" source="#E_long_001-mesh-normals" offset="1"/>
          <input semantic="TEXCOORD" source="#E_long_001-mesh-map-0" offset="2" set="0"/>
          <input semantic="TEXCOORD" source="#E_long_001-mesh-map-1" offset="2" set="1"/>
          <p>1 0 0 6 0 1 2 0 2 6 1 3 3 1 4 2 1 5 0 2 6 7 2 7 4 2 8 7 3 9 8 3 10 4 3 11 6 4 12 9 4 13 10 4 14 6 5 15 11 5 16 7 5 17 12 6 18 14 6 19 13 6 20 11 7 21 12 7 22 8 7 23 9 8 24 14 8 25 10 8 26 10 9 27 15 9 28 11 9 29 19 10 30 9 10 31 5 10 32 19 11 33 1 11 34 17 11 35 21 12 36 13 12 37 9 12 38 4 13 39 16 13 40 0 13 41 4 14 42 20 14 43 18 14 44 12 15 45 23 15 46 22 15 47 8 16 48 22 16 49 20 16 50 27 17 51 28 17 52 29 17 53 26 18 54 25 18 55 24 18 56 26 19 57 16 19 58 18 19 59 28 20 60 31 20 61 29 20 62 29 21 63 23 21 64 21 21 65 27 22 66 21 22 67 19 22 68 26 23 69 20 23 70 28 23 71 22 15 72 31 15 73 30 15 74 20 24 75 30 24 76 28 24 77 27 25 78 17 25 79 25 25 80 33 26 81 38 26 82 34 26 83 38 27 84 35 27 85 34 27 86 32 28 87 39 28 88 36 28 89 39 29 90 40 29 91 36 29 92 38 30 93 41 30 94 42 30 95 38 31 96 43 31 97 39 31 98 44 32 99 46 32 100 45 32 101 43 33 102 44 33 103 40 33 104 41 21 105 46 21 106 42 21 107 42 9 108 47 9 109 43 9 110 51 34 111 41 34 112 37 34 113 51 35 114 33 35 115 49 35 116 53 12 117 45 12 118 41 12 119 36 13 120 48 13 121 32 13 122 36 36 123 52 36 124 50 36 125 44 15 126 55 15 127 54 15 128 40 16 129 54 16 130 52 16 131 59 37 132 60 37 133 61 37 134 58 38 135 57 38 136 56 38 137 58 39 138 48 39 139 50 39 140 60 40 141 63 40 142 61 40 143 61 41 144 55 41 145 53 41 146 59 42 147 53 42 148 51 42 149 58 43 150 52 43 151 60 43 152 54 15 153 63 15 154 62 15 155 52 44 156 62 44 157 60 44 158 59 45 159 49 45 160 57 45 161 66 16 162 70 16 163 76 16 164 64 16 165 75 16 166 68 16 167 66 46 168 76 46 169 72 46 170 64 47 171 72 47 172 75 47 173 64 48 174 66 48 175 72 48 176 67 9 177 70 9 178 66 9 179 67 12 180 77 12 181 71 12 182 65 12 183 69 12 184 74 12 185 67 12 186 73 12 187 77 12 188 65 12 189 74 12 190 73 12 191 67 49 192 65 49 193 73 49 194 64 50 195 69 50 196 65 50 197 70 51 198 77 51 199 76 51 200 65 52 201 66 52 202 64 52 203 72 53 204 74 53 205 75 53 206 75 54 207 69 54 208 68 54 209 76 55 210 73 55 211 72 55 212 81 16 213 82 16 214 78 16 215 78 50 216 83 50 217 79 50 218 85 15 219 83 15 220 82 15 221 80 9 222 85 9 223 81 9 224 79 12 225 84 12 226 80 12 227 88 16 228 92 16 229 98 16 230 86 16 231 97 16 232 90 16 233 88 56 234 98 56 235 94 56 236 86 57 237 94 57 238 97 57 239 86 16 240 88 16 241 94 16 242 89 9 243 92 9 244 88 9 245 89 12 246 99 12 247 93 12 248 87 12 249 91 12 250 96 12 251 89 12 252 95 12 253 99 12 254 87 12 255 96 12 256 95 12 257 89 12 258 87 12 259 95 12 260 86 50 261 91 50 262 87 50 263 92 58 264 99 58 265 98 58 266 87 52 267 88 52 268 86 52 269 94 59 270 96 59 271 97 59 272 97 60 273 91 60 274 90 60 275 98 61 276 95 61 277 94 61 278 103 16 279 104 16 280 100 16 281 100 50 282 105 50 283 101 50 284 107 15 285 105 15 286 104 15 287 102 9 288 107 9 289 103 9 290 101 12 291 106 12 292 102 12 293 67 9 294 71 9 295 70 9 296 64 50 297 68 50 298 69 50 299 70 62 300 71 62 301 77 62 302 65 52 303 67 52 304 66 52 305 72 63 306 73 63 307 74 63 308 75 64 309 74 64 310 69 64 311 76 65 312 77 65 313 73 65 314 81 16 315 85 16 316 82 16 317 78 50 318 82 50 319 83 50 320 85 15 321 84 15 322 83 15 323 80 9 324 84 9 325 85 9 326 79 12 327 83 12 328 84 12 329 89 9 330 93 9 331 92 9 332 86 50 333 90 50 334 91 50 335 92 66 336 93 66 337 99 66 338 87 52 339 89 52 340 88 52 341 94 67 342 95 67 343 96 67 344 97 68 345 96 68 346 91 68 347 98 65 348 99 65 349 95 65 350 103 16 351 107 16 352 104 16 353 100 50 354 104 50 355 105 50 356 107 15 357 106 15 358 105 15 359 102 9 360 106 9 361 107 9 362 101 12 363 105 12 364 106 12 365 110 16 366 120 16 367 114 16 368 108 16 369 112 16 370 119 16 371 110 69 372 116 69 373 120 69 374 108 57 375 119 57 376 116 57 377 108 16 378 116 16 379 110 16 380 111 50 381 110 50 382 114 50 383 111 12 384 115 12 385 121 12 386 109 12 387 118 12 388 113 12 389 111 70 390 121 70 391 117 70 392 109 12 393 117 12 394 118 12 395 111 71 396 117 71 397 109 71 398 108 9 399 109 9 400 113 9 401 114 72 402 120 72 403 121 72 404 109 52 405 108 52 406 110 52 407 116 73 408 119 73 409 118 73 410 119 74 411 112 74 412 113 74 413 120 75 414 116 75 415 117 75 416 125 16 417 122 16 418 126 16 419 122 9 420 123 9 421 127 9 422 129 15 423 126 15 424 127 15 425 124 50 426 125 50 427 129 50 428 123 12 429 124 12 430 128 12 431 133 16 432 130 16 433 134 16 434 130 9 435 131 9 436 135 9 437 137 15 438 134 15 439 135 15 440 132 50 441 133 50 442 137 50 443 131 12 444 132 12 445 136 12 446 111 50 447 114 50 448 115 50 449 108 9 450 113 9 451 112 9 452 114 76 453 121 76 454 115 76 455 109 52 456 110 52 457 111 52 458 116 77 459 118 77 460 117 77 461 119 78 462 113 78 463 118 78 464 120 79 465 117 79 466 121 79 467 125 16 468 126 16 469 129 16 470 122 9 471 127 9 472 126 9 473 129 15 474 127 15 475 128 15 476 124 50 477 129 50 478 128 50 479 123 12 480 128 12 481 127 12 482 133 16 483 134 16 484 137 16 485 130 9 486 135 9 487 134 9 488 137 15 489 135 15 490 136 15 491 132 50 492 137 50 493 136 50 494 131 12 495 136 12 496 135 12 497 140 16 498 150 16 499 144 16 500 138 16 501 142 16 502 149 16 503 140 46 504 146 46 505 150 46 506 138 47 507 149 47 508 146 47 509 138 48 510 146 48 511 140 48 512 141 50 513 140 50 514 144 50 515 141 12 516 145 12 517 151 12 518 139 12 519 148 12 520 143 12 521 141 12 522 151 12 523 147 12 524 139 12 525 147 12 526 148 12 527 141 49 528 147 49 529 139 49 530 138 9 531 139 9 532 143 9 533 144 80 534 150 80 535 151 80 536 139 52 537 138 52 538 140 52 539 146 73 540 149 73 541 148 73 542 149 74 543 142 74 544 143 74 545 150 81 546 146 81 547 147 81 548 155 16 549 152 16 550 156 16 551 152 9 552 153 9 553 157 9 554 159 15 555 156 15 556 157 15 557 154 50 558 155 50 559 159 50 560 153 12 561 154 12 562 158 12 563 162 16 564 172 16 565 166 16 566 160 16 567 164 16 568 171 16 569 162 56 570 168 56 571 172 56 572 160 57 573 171 57 574 168 57 575 160 16 576 168 16 577 162 16 578 163 50 579 162 50 580 166 50 581 163 12 582 167 12 583 173 12 584 161 12 585 170 12 586 165 12 587 163 12 588 173 12 589 169 12 590 161 12 591 169 12 592 170 12 593 163 12 594 169 12 595 161 12 596 160 9 597 161 9 598 165 9 599 166 82 600 172 82 601 173 82 602 161 52 603 160 52 604 162 52 605 168 83 606 171 83 607 170 83 608 171 84 609 164 84 610 165 84 611 172 85 612 168 85 613 169 85 614 177 16 615 174 16 616 178 16 617 174 9 618 175 9 619 179 9 620 181 15 621 178 15 622 179 15 623 176 50 624 177 50 625 181 50 626 175 12 627 176 12 628 180 12 629 141 50 630 144 50 631 145 50 632 138 9 633 143 9 634 142 9 635 144 86 636 151 86 637 145 86 638 139 52 639 140 52 640 141 52 641 146 77 642 148 77 643 147 77 644 149 78 645 143 78 646 148 78 647 150 87 648 147 87 649 151 87 650 155 16 651 156 16 652 159 16 653 152 9 654 157 9 655 156 9 656 159 15 657 157 15 658 158 15 659 154 50 660 159 50 661 158 50 662 153 12 663 158 12 664 157 12 665 163 50 666 166 50 667 167 50 668 160 9 669 165 9 670 164 9 671 166 88 672 173 88 673 167 88 674 161 52 675 162 52 676 163 52 677 168 89 678 170 89 679 169 89 680 171 90 681 165 90 682 170 90 683 172 87 684 169 87 685 173 87 686 177 16 687 178 16 688 181 16 689 174 9 690 179 9 691 178 9 692 181 15 693 179 15 694 180 15 695 176 50 696 181 50 697 180 50 698 175 12 699 180 12 700 179 12 701 184 16 702 188 16 703 194 16 704 182 16 705 193 16 706 186 16 707 184 69 708 194 69 709 190 69 710 182 57 711 190 57 712 193 57 713 182 16 714 184 16 715 190 16 716 185 9 717 188 9 718 184 9 719 185 12 720 195 12 721 189 12 722 183 12 723 187 12 724 192 12 725 185 70 726 191 70 727 195 70 728 183 12 729 192 12 730 191 12 731 185 71 732 183 71 733 191 71 734 182 50 735 187 50 736 183 50 737 188 91 738 195 91 739 194 91 740 183 52 741 184 52 742 182 52 743 190 53 744 192 53 745 193 53 746 193 54 747 187 54 748 186 54 749 194 92 750 191 92 751 190 92 752 199 16 753 200 16 754 196 16 755 196 50 756 201 50 757 197 50 758 203 15 759 201 15 760 200 15 761 198 9 762 203 9 763 199 9 764 197 12 765 202 12 766 198 12 767 206 16 768 210 16 769 216 16 770 204 16 771 215 16 772 208 16 773 206 93 774 216 93 775 212 93 776 204 16 777 212 16 778 215 16 779 204 94 780 206 94 781 212 94 782 207 9 783 210 9 784 206 9 785 207 12 786 217 12 787 211 12 788 205 12 789 209 12 790 214 12 791 207 95 792 213 95 793 217 95 794 205 12 795 214 12 796 213 12 797 207 96 798 205 96 799 213 96 800 204 50 801 209 50 802 205 50 803 210 58 804 217 58 805 216 58 806 205 52 807 206 52 808 204 52 809 212 97 810 214 97 811 215 97 812 215 98 813 209 98 814 208 98 815 216 99 816 213 99 817 212 99 818 185 9 819 189 9 820 188 9 821 182 50 822 186 50 823 187 50 824 188 100 825 189 100 826 195 100 827 183 52 828 185 52 829 184 52 830 190 63 831 191 63 832 192 63 833 193 64 834 192 64 835 187 64 836 194 101 837 195 101 838 191 101 839 199 16 840 203 16 841 200 16 842 196 50 843 200 50 844 201 50 845 203 15 846 202 15 847 201 15 848 198 9 849 202 9 850 203 9 851 197 12 852 201 12 853 202 12 854 207 9 855 211 9 856 210 9 857 204 50 858 208 50 859 209 50 860 210 66 861 211 66 862 217 66 863 205 52 864 207 52 865 206 52 866 212 102 867 213 102 868 214 102 869 215 103 870 214 103 871 209 103 872 216 104 873 217 104 874 213 104 875 220 16 876 230 16 877 224 16 878 218 16 879 222 16 880 229 16 881 220 105 882 226 105 883 230 105 884 218 16 885 229 16 886 226 16 887 218 16 888 226 16 889 220 16 890 221 50 891 220 50 892 224 50 893 221 12 894 225 12 895 231 12 896 219 12 897 228 12 898 223 12 899 221 12 900 231 12 901 227 12 902 219 106 903 227 106 904 228 106 905 221 12 906 227 12 907 219 12 908 218 9 909 219 9 910 223 9 911 224 107 912 230 107 913 231 107 914 219 52 915 218 52 916 220 52 917 226 108 918 229 108 919 228 108 920 229 109 921 222 109 922 223 109 923 230 110 924 226 110 925 227 110 926 235 16 927 232 16 928 236 16 929 232 9 930 233 9 931 237 9 932 239 15 933 236 15 934 237 15 935 234 50 936 235 50 937 239 50 938 233 12 939 234 12 940 238 12 941 242 16 942 252 16 943 246 16 944 240 16 945 244 16 946 251 16 947 242 111 948 248 111 949 252 111 950 240 16 951 251 16 952 248 16 953 240 112 954 248 112 955 242 112 956 243 50 957 242 50 958 246 50 959 243 12 960 247 12 961 253 12 962 241 12 963 250 12 964 245 12 965 243 113 966 253 113 967 249 113 968 241 12 969 249 12 970 250 12 971 243 114 972 249 114 973 241 114 974 240 9 975 241 9 976 245 9 977 246 115 978 252 115 979 253 115 980 241 52 981 240 52 982 242 52 983 248 116 984 251 116 985 250 116 986 251 117 987 244 117 988 245 117 989 252 118 990 248 118 991 249 118 992 257 16 993 254 16 994 258 16 995 254 9 996 255 9 997 259 9 998 261 15 999 258 15 1000 259 15 1001 256 50 1002 257 50 1003 261 50 1004 255 12 1005 256 12 1006 260 12 1007 221 50 1008 224 50 1009 225 50 1010 218 9 1011 223 9 1012 222 9 1013 224 119 1014 231 119 1015 225 119 1016 219 52 1017 220 52 1018 221 52 1019 226 120 1020 228 120 1021 227 120 1022 229 121 1023 223 121 1024 228 121 1025 230 122 1026 227 122 1027 231 122 1028 235 16 1029 236 16 1030 239 16 1031 232 9 1032 237 9 1033 236 9 1034 239 15 1035 237 15 1036 238 15 1037 234 50 1038 239 50 1039 238 50 1040 233 12 1041 238 12 1042 237 12 1043 243 50 1044 246 50 1045 247 50 1046 240 9 1047 245 9 1048 244 9 1049 246 123 1050 253 123 1051 247 123 1052 241 52 1053 242 52 1054 243 52 1055 248 124 1056 250 124 1057 249 124 1058 251 125 1059 245 125 1060 250 125 1061 252 126 1062 249 126 1063 253 126 1064 257 16 1065 258 16 1066 261 16 1067 254 9 1068 259 9 1069 258 9 1070 261 15 1071 259 15 1072 260 15 1073 256 50 1074 261 50 1075 260 50 1076 255 12 1077 260 12 1078 259 12 1079 264 16 1080 268 16 1081 274 16 1082 262 16 1083 273 16 1084 266 16 1085 264 105 1086 274 105 1087 270 105 1088 262 16 1089 270 16 1090 273 16 1091 262 16 1092 264 16 1093 270 16 1094 265 9 1095 268 9 1096 264 9 1097 265 12 1098 275 12 1099 269 12 1100 263 12 1101 267 12 1102 272 12 1103 265 12 1104 271 12 1105 275 12 1106 263 106 1107 272 106 1108 271 106 1109 265 12 1110 263 12 1111 271 12 1112 262 50 1113 267 50 1114 263 50 1115 268 121 1116 275 121 1117 274 121 1118 263 52 1119 264 52 1120 262 52 1121 270 127 1122 272 127 1123 273 127 1124 273 128 1125 267 128 1126 266 128 1127 274 129 1128 271 129 1129 270 129 1130 279 16 1131 280 16 1132 276 16 1133 276 50 1134 281 50 1135 277 50 1136 283 15 1137 281 15 1138 280 15 1139 278 9 1140 283 9 1141 279 9 1142 277 12 1143 282 12 1144 278 12 1145 286 16 1146 290 16 1147 296 16 1148 284 16 1149 295 16 1150 288 16 1151 286 111 1152 296 111 1153 292 111 1154 284 16 1155 292 16 1156 295 16 1157 284 112 1158 286 112 1159 292 112 1160 287 9 1161 290 9 1162 286 9 1163 287 12 1164 297 12 1165 291 12 1166 285 12 1167 289 12 1168 294 12 1169 287 113 1170 293 113 1171 297 113 1172 285 12 1173 294 12 1174 293 12 1175 287 114 1176 285 114 1177 293 114 1178 284 50 1179 289 50 1180 285 50 1181 290 130 1182 297 130 1183 296 130 1184 285 52 1185 286 52 1186 284 52 1187 292 131 1188 294 131 1189 295 131 1190 295 132 1191 289 132 1192 288 132 1193 296 133 1194 293 133 1195 292 133 1196 301 16 1197 302 16 1198 298 16 1199 298 50 1200 303 50 1201 299 50 1202 305 15 1203 303 15 1204 302 15 1205 300 9 1206 305 9 1207 301 9 1208 299 12 1209 304 12 1210 300 12 1211 265 9 1212 269 9 1213 268 9 1214 262 50 1215 266 50 1216 267 50 1217 268 134 1218 269 134 1219 275 134 1220 263 52 1221 265 52 1222 264 52 1223 270 135 1224 271 135 1225 272 135 1226 273 107 1227 272 107 1228 267 107 1229 274 136 1230 275 136 1231 271 136 1232 279 16 1233 283 16 1234 280 16 1235 276 50 1236 280 50 1237 281 50 1238 283 15 1239 282 15 1240 281 15 1241 278 9 1242 282 9 1243 283 9 1244 277 12 1245 281 12 1246 282 12 1247 287 9 1248 291 9 1249 290 9 1250 284 50 1251 288 50 1252 289 50 1253 290 137 1254 291 137 1255 297 137 1256 285 52 1257 287 52 1258 286 52 1259 292 138 1260 293 138 1261 294 138 1262 295 139 1263 294 139 1264 289 139 1265 296 140 1266 297 140 1267 293 140 1268 301 16 1269 305 16 1270 302 16 1271 298 50 1272 302 50 1273 303 50 1274 305 15 1275 304 15 1276 303 15 1277 300 9 1278 304 9 1279 305 9 1280 299 12 1281 303 12 1282 304 12 1283 1 141 1284 5 141 1285 6 141 1286 6 142 1287 7 142 1288 3 142 1289 0 143 1290 3 143 1291 7 143 1292 7 144 1293 11 144 1294 8 144 1295 6 145 1296 5 145 1297 9 145 1298 6 146 1299 10 146 1300 11 146 1301 12 15 1302 15 15 1303 14 15 1304 11 147 1305 15 147 1306 12 147 1307 9 148 1308 13 148 1309 14 148 1310 10 9 1311 14 9 1312 15 9 1313 19 10 1314 21 10 1315 9 10 1316 19 149 1317 5 149 1318 1 149 1319 21 12 1320 23 12 1321 13 12 1322 4 150 1323 18 150 1324 16 150 1325 4 151 1326 8 151 1327 20 151 1328 12 15 1329 13 15 1330 23 15 1331 8 16 1332 12 16 1333 22 16 1334 27 152 1335 26 152 1336 28 152 1337 26 153 1338 27 153 1339 25 153 1340 26 154 1341 24 154 1342 16 154 1343 28 155 1344 30 155 1345 31 155 1346 29 156 1347 31 156 1348 23 156 1349 27 157 1350 29 157 1351 21 157 1352 26 158 1353 18 158 1354 20 158 1355 22 159 1356 23 159 1357 31 159 1358 20 160 1359 22 160 1360 30 160 1361 27 161 1362 19 161 1363 17 161 1364 33 162 1365 37 162 1366 38 162 1367 38 163 1368 39 163 1369 35 163 1370 32 164 1371 35 164 1372 39 164 1373 39 165 1374 43 165 1375 40 165 1376 38 166 1377 37 166 1378 41 166 1379 38 167 1380 42 167 1381 43 167 1382 44 15 1383 47 15 1384 46 15 1385 43 168 1386 47 168 1387 44 168 1388 41 156 1389 45 156 1390 46 156 1391 42 9 1392 46 9 1393 47 9 1394 51 169 1395 53 169 1396 41 169 1397 51 170 1398 37 170 1399 33 170 1400 53 12 1401 55 12 1402 45 12 1403 36 171 1404 50 171 1405 48 171 1406 36 151 1407 40 151 1408 52 151 1409 44 15 1410 45 15 1411 55 15 1412 40 16 1413 44 16 1414 54 16 1415 59 172 1416 58 172 1417 60 172 1418 58 173 1419 59 173 1420 57 173 1421 58 174 1422 56 174 1423 48 174 1424 60 175 1425 62 175 1426 63 175 1427 61 176 1428 63 176 1429 55 176 1430 59 177 1431 61 177 1432 53 177 1433 58 178 1434 50 178 1435 52 178 1436 54 6 1437 55 6 1438 63 6 1439 52 179 1440 54 179 1441 62 179 1442 59 180 1443 51 180 1444 49 180 1445</p>
        </triangles>
      </mesh>
    </geometry>
  </library_geometries>
  <library_visual_scenes>
    <visual_scene id="Scene" name="Scene">
      <node id="E_long_001" name="E_long_001" type="NODE">
        <matrix sid="transform">1.579662 0 0 0 0 1.579662 0 0 0 0 1.579662 0 0 0 0 1</matrix>
        <instance_geometry url="#E_long_001-mesh" name="E_long_001">
          <bind_material>
            <technique_common>
              <instance_material symbol="Material_003-material" target="#Material_003-material">
                <bind_vertex_input semantic="E_long_004-mesh-map-0" input_semantic="TEXCOORD" input_set="0"/>
                <bind_vertex_input semantic="E_long_004-mesh-map-1" input_semantic="TEXCOORD" input_set="1"/>
              </instance_material>
            </technique_common>
          </bind_material>
        </instance_geometry>
      </node>
    </visual_scene>
  </library_visual_scenes>
  <scene>
    <instance_visual_scene url="#Scene"/>
  </scene>
</COLLADA>