<?xml version="1.0" encoding="utf-8"?>
<COLLADA xmlns="http://www.collada.org/2005/11/COLLADASchema" version="1.4.1" xmlns:xsi="http://www.w3.org/2001/XMLSchema-instance">
  <asset>
    <contributor>
      <author>Blender User</author>
      <authoring_tool>Blender 4.3.1 commit date:2024-12-10, commit time:07:46, hash:33d812126174</authoring_tool>
    </contributor>
    <created>2026-04-09T15:05:11</created>
    <modified>2026-04-09T15:05:11</modified>
    <unit name="inch" meter="0.0254"/>
    <up_axis>Z_UP</up_axis>
  </asset>
  <library_effects>
    <effect id="Material_004-effect">
      <profile_COMMON>
        <newparam sid="Untitled_003-surface">
          <surface type="2D">
            <init_from>Untitled_003</init_from>
          </surface>
        </newparam>
        <newparam sid="Untitled_003-sampler">
          <sampler2D>
            <source>Untitled_003-surface</source>
          </sampler2D>
        </newparam>
        <technique sid="common">
          <lambert>
            <emission>
              <color sid="emission">0 0 0 1</color>
            </emission>
            <diffuse>
              <texture texture="Untitled_003-sampler" texcoord="E_long_005-mesh-map-1"/>
            </diffuse>
            <index_of_refraction>
              <float sid="ior">1.5</float>
            </index_of_refraction>
          </lambert>
        </technique>
      </profile_COMMON>
    </effect>
  </library_effects>
  <library_images>
    <image id="Untitled_003" name="Untitled_003">
      <init_from>Untitled.003.png</init_from>
    </image>
  </library_images>
  <library_materials>
    <material id="Material_004-material" name="Material.004">
      <instance_effect url="#Material_004-effect"/>
    </material>
  </library_materials>
  <library_geometries>
    <geometry id="E_long_005-mesh" name="E_long.005">
      <mesh>
        <source id="E_long_005-mesh-positions">
          <float_array id="E_long_005-mesh-positions-array" count="534">0.03745889 0.5848752 -1.25047 0.03745871 -0.5848751 -1.25047 -3.684602 -0.584875 -1.25047 -3.684602 0.5848753 -1.25047 0.03745889 0.5420229 5.14531 0.03745836 -0.5420231 5.14531 -3.634202 -0.5420228 5.14531 -3.634202 0.542023 5.14531 0.03745877 0.6288907 5.755657 0.03745841 -0.6288909 5.755657 -3.736371 -0.6288906 5.755657 -3.736371 0.6288909 5.755657 0.03745877 0.6288907 5.819406 0.03745841 -0.6288909 5.819406 -3.736371 -0.6288906 5.819406 -3.736371 0.6288909 5.819406 3.75952 0.5848751 -1.25047 3.75952 -0.5848751 -1.25047 3.70912 0.5420228 5.14531 3.709119 -0.5420234 5.14531 3.811289 0.6288905 5.755657 3.811288 -0.6288912 5.755657 3.811289 0.6288905 5.819406 3.811288 -0.6288912 5.819406 -1.696502 0.1020548 5.852095 -1.696502 -0.09478574 5.852095 -2.447636 0.1020548 5.852095 -2.447636 -0.09478574 5.852095 -1.696502 0.1020548 6.888525 -1.696502 -0.09478574 6.888525 -2.447636 0.1020548 6.888525 -2.447636 -0.09478574 6.888525 -2.072068 0.1020548 6.104955 -2.072069 -0.09478574 6.104955 -1.884285 -0.09478574 6.341715 -1.884285 0.1020548 6.341715 -2.259853 0.1020548 6.341715 -2.259853 -0.09478574 6.341715 -1.634565 0.1554781 5.763778 -1.634565 -0.168197 5.763778 -2.500872 -0.168197 5.763778 -2.500872 0.1554781 5.763778 -1.634565 0.1554781 6.041495 -1.634565 -0.168197 6.041495 -2.500872 -0.168197 6.041495 -2.500872 0.1554781 6.041495 -2.69213 0.1020548 5.852095 -2.69213 -0.09478574 5.852095 -3.443265 0.1020548 5.852095 -3.443265 -0.09478574 5.852095 -2.69213 0.1020548 6.888525 -2.69213 -0.09478574 6.888525 -3.443265 0.1020548 6.888525 -3.443265 -0.09478574 6.888525 -3.067697 0.1020548 6.104955 -3.067698 -0.09478574 6.104955 -2.879914 -0.09478574 6.341715 -2.879914 0.1020548 6.341715 -3.255481 0.1020548 6.341715 -3.255481 -0.09478574 6.341715 -2.630194 0.1554781 5.763778 -2.630194 -0.168197 5.763778 -3.496501 -0.168197 5.763778 -3.496501 0.1554781 5.763778 -2.630194 0.1554781 6.041495 -2.630194 -0.168197 6.041495 -3.496501 -0.168197 6.041495 -3.496501 0.1554781 6.041495 -1.358357 0.1020548 5.852095 -1.358357 -0.09478574 5.852095 -0.6072222 0.1020548 5.852095 -0.6072222 -0.09478574 5.852095 -1.358357 0.1020548 6.888525 -1.358357 -0.09478574 6.888525 -0.6072222 0.1020548 6.888525 -0.6072222 -0.09478574 6.888525 -0.9827899 0.1020548 6.104955 -0.982789 -0.09478574 6.104955 -1.170573 -0.09478574 6.341715 -1.170573 0.1020548 6.341715 -0.7950055 0.1020548 6.341715 -0.7950055 -0.09478574 6.341715 -1.420293 0.1554781 5.763778 -1.420293 -0.168197 5.763778 -0.5539866 -0.168197 5.763778 -0.5539866 0.1554781 5.763778 -1.420293 0.1554781 6.041495 -1.420293 -0.168197 6.041495 -0.5539866 -0.168197 6.041495 -0.5539866 0.1554781 6.041495 -0.4246646 0.1554781 5.763778 -0.4246646 -0.168197 5.763778 0.4416428 -0.168197 5.763778 0.4416428 0.1554781 5.763778 -0.4246646 0.1554781 6.041495 -0.4246646 -0.168197 6.041495 0.4416428 -0.168197 6.041495 0.4416428 0.1554781 6.041495 1.696502 0.1020548 5.852095 1.696502 -0.09478574 5.852095 2.447636 0.1020548 5.852095 2.447636 -0.09478574 5.852095 1.696502 0.1020548 6.888525 1.696502 -0.09478574 6.888525 2.447636 0.1020548 6.888525 2.447636 -0.09478574 6.888525 2.072068 0.1020548 6.104955 2.072069 -0.09478574 6.104955 1.884285 -0.09478574 6.341715 1.884285 0.1020548 6.341715 2.259853 0.1020548 6.341715 2.259853 -0.09478574 6.341715 1.634565 0.1554781 5.763778 1.634565 -0.168197 5.763778 2.500872 -0.168197 5.763778 2.500872 0.1554781 5.763778 1.634565 0.1554781 6.041495 1.634565 -0.168197 6.041495 2.500872 -0.168197 6.041495 2.500872 0.1554781 6.041495 2.69213 0.1020548 5.852095 2.69213 -0.09478574 5.852095 3.443265 0.1020548 5.852095 3.443265 -0.09478574 5.852095 2.69213 0.1020548 6.888525 2.69213 -0.09478574 6.888525 3.443265 0.1020548 6.888525 3.443265 -0.09478574 6.888525 3.067697 0.1020548 6.104955 3.067698 -0.09478574 6.104955 2.879914 -0.09478574 6.341715 2.879914 0.1020548 6.341715 3.255481 0.1020548 6.341715 3.255481 -0.09478574 6.341715 2.630194 0.1554781 5.763778 2.630194 -0.168197 5.763778 3.496501 -0.168197 5.763778 3.496501 0.1554781 5.763778 2.630194 0.1554781 6.041495 2.630194 -0.168197 6.041495 3.496501 -0.168197 6.041495 3.496501 0.1554781 6.041495 1.358357 0.1020548 5.852095 1.358357 -0.09478574 5.852095 0.6072222 0.1020548 5.852095 0.6072222 -0.09478574 5.852095 1.358357 0.1020548 6.888525 1.358357 -0.09478574 6.888525 0.6072222 0.1020548 6.888525 0.6072222 -0.09478574 6.888525 0.9827899 0.1020548 6.104955 0.982789 -0.09478574 6.104955 1.170573 -0.09478574 6.341715 1.170573 0.1020548 6.341715 0.7950055 0.1020548 6.341715 0.7950055 -0.09478574 6.341715 1.420293 0.1554781 5.763778 1.420293 -0.168197 5.763778 0.5539866 -0.168197 5.763778 0.5539866 0.1554781 5.763778 1.420293 0.1554781 6.041495 1.420293 -0.168197 6.041495 0.5539866 -0.168197 6.041495 0.5539866 0.1554781 6.041495 0.3627283 0.1020548 5.852095 0.3627283 -0.09478574 5.852095 -0.3884069 0.1020548 5.852095 -0.3884069 -0.09478574 5.852095 0.3627283 0.1020548 6.888525 0.3627283 -0.09478574 6.888525 -0.3884069 0.1020548 6.888525 -0.3884069 -0.09478574 6.888525 -0.01283848 0.1020548 6.104955 -0.01283937 -0.09478574 6.104955 0.1749439 -0.09478574 6.341715 0.1749446 0.1020548 6.341715 -0.2006229 0.1020548 6.341715 -0.2006229 -0.09478574 6.341715</float_array>
          <technique_common>
            <accessor source="#E_long_005-mesh-positions-array" count="178" stride="3">
              <param name="X" type="float"/>
              <param name="Y" type="float"/>
              <param name="Z" type="float"/>
            </accessor>
          </technique_common>
        </source>
        <source id="E_long_005-mesh-normals">
          <float_array id="E_long_005-mesh-normals-array" count="279">0 -0.9999776 0.006699919 -0.999969 0 0.007879912 0 0.9999777 0.006699919 0 0.9900231 -0.1409053 0 -0.9900231 -0.1409052 -0.9862772 0 -0.1650981 0 0 1 0 1 0 0 -1 0 -1 0 0 0.9862774 -7.10795e-7 -0.1650976 0.999969 0 0.007879912 0 -0.9900231 -0.1409053 1 -7.43357e-7 0 0 -0.9999776 0.0066998 0 0.9999776 0.006699919 0 0.9900231 -0.1409053 0 1 0 0 1 0 0 -1 0 1 0 0 0.945784 0 0.3247963 0 0 -1 -0.7834832 0 0.621413 -0.9457839 0 0.324797 0.7834832 -4.00816e-6 0.6214129 0 1 0 0.9457835 0 0.3247978 -0.9457831 0 0.3247988 0.7834848 -4.00817e-6 0.621411 0.9457839 0 0.324797 -0.7834848 3.00613e-6 0.621411 -0.945784 0 0.3247963 0.7834816 0 0.6214149 0.9457833 0 0.3247985 -0.7834848 4.00817e-6 0.621411 -0.9457834 0 0.3247982 0.7834832 0 0.621413 0 1 0 0 1 0 0 -1 0 0 -1 0 0 -1 0 -0.9457839 0 0.3247968 0.7834832 0 0.6214131 -0.7834841 -3.50714e-6 0.621412 -0.9457836 0 0.3247975 0.7834846 4.00817e-6 0.6214112 -0.7834824 0 0.621414 -0.7834832 -4.00816e-6 0.6214129 -0.9457835 0 0.3247978 0.9457831 0 0.3247988 -0.7834848 -4.00817e-6 0.621411 0.7834848 3.00613e-6 0.621411 -0.7834816 0 0.6214149 -0.9457833 0 0.3247985 0.7834848 4.00817e-6 0.621411 0.9457834 0 0.3247982 0.9457839 0 0.3247968 -0.7834832 0 0.6214131 0.7834841 -3.50714e-6 0.621412 0 1 0 0 -1 0 0 -1 0 0 -1 0 0.9457835 0 0.3247979 -0.783483 3.13141e-6 0.6214134 -0.9457834 0 0.3247979 0.7834841 -3.75765e-6 0.6214119 0.9457836 0 0.3247975 -0.7834846 4.00817e-6 0.6214112 0.7834824 0 0.621414 0.9457832 0 0.3247985 -0.7834857 3.82029e-6 0.6214098 -0.9457833 3.92809e-6 0.3247985 0.7834826 0 0.621414 0 -0.9999776 0.00669986 0 0.9999776 0.00669986 0 0.9900231 -0.1409053 0 -0.9900231 -0.1409053 -0.9862772 0 -0.1650977 0 0 1 0 1 0 0 -1 0 0.9862773 -6.12614e-7 -0.165098 0.999969 -5.50181e-7 0.007880032 0 -0.9900231 -0.1409052 1 -1.48673e-6 0 0 -0.9999776 0.00669986 0 -1 0 0 0.9999777 0.006699919 0 0.9900231 -0.1409052 0 0 1</float_array>
          <technique_common>
            <accessor source="#E_long_005-mesh-normals-array" count="93" stride="3">
              <param name="X" type="float"/>
              <param name="Y" type="float"/>
              <param name="Z" type="float"/>
            </accessor>
          </technique_common>
        </source>
        <source id="E_long_005-mesh-map-0">
          <float_array id="E_long_005-mesh-map-0-array" count="1668">0.2708869 0.6512362 0.008088171 0.9149726 0.008088171 0.6512362 0.357151 0.9149726 0.2702732 0.6512362 0.357151 0.6512362 0.007474422 0.6512362 0.2702732 0.9149726 0.007474422 0.9149726 0.1301563 0.1755847 0.1713942 0.4304308 0.1301563 0.4304308 0.1301563 0.4310327 0.1713942 0.1773256 0.1713942 0.4310327 0.1301563 0.09217315 0.1713942 0.1755847 0.1301563 0.1755847 0.008134067 0.9144982 0.4051982 0.7821602 0.4051982 0.914498 0.1713942 0.1755847 0.1766203 0.4304308 0.1713942 0.4304308 0.1713942 0.1773256 0.1766203 0.4310327 0.1713942 0.4310327 0.1713942 0.09217315 0.1766203 0.1755847 0.1713942 0.1755847 0.1301563 0.09217625 0.1713942 0.1773256 0.1301563 0.1773256 0.3593162 0.9149726 0.2708869 0.6512362 0.3593162 0.6512362 0.1301563 0.1773256 0.1713942 0.4310327 0.1301563 0.4310327 0.1713942 0.09217625 0.1766203 0.1773256 0.1713942 0.1773256 0.2708869 0.9149726 0.008088171 0.6512362 0.2708869 0.6512362 0.1713942 0.1773256 0.1766203 0.4310327 0.1713942 0.4310327 0.2702732 0.6512362 0.007474422 0.9149726 0.007474422 0.6512362 0.1301563 0.4304308 0.1713942 0.1755847 0.1713942 0.4304308 0.008134007 0.7820684 0.4051982 0.6497309 0.4051982 0.7820686 0.1713942 0.1755847 0.1766203 0.4304308 0.1713942 0.4304308 0.9573771 0.8728813 0.8346146 0.8736419 0.8990868 0.8254581 0.9561927 0.6817523 0.898495 0.7298942 0.833431 0.6825137 0.9573771 0.8728813 0.8990868 0.8254581 0.9268345 0.7775023 0.9561927 0.6817523 0.9268345 0.7775023 0.898495 0.7298942 0.9561927 0.6817523 0.9573771 0.8728813 0.9268345 0.7775023 0.9453594 0.6681249 0.8031257 0.6401358 0.9453594 0.6401358 0.9497641 0.867393 0.891769 0.8196099 0.827 0.8673931 0.9497641 0.6762605 0.827 0.6762604 0.8917691 0.7240436 0.9497641 0.867393 0.919813 0.7718267 0.891769 0.8196099 0.9497641 0.6762605 0.8917691 0.7240436 0.919813 0.7718267 0.9497641 0.867393 0.9497641 0.6762605 0.919813 0.7718267 0.8533404 0.6453739 0.7693202 0.6628868 0.8533404 0.6628868 0.8620354 0.6416894 0.839685 0.6665713 0.839685 0.6416894 0.772634 0.7036692 0.8620354 0.6045915 0.772634 0.6045915 0.8173347 0.6416894 0.7949844 0.6665713 0.7949844 0.6416894 0.7949844 0.6416894 0.772634 0.6665713 0.772634 0.6416894 0.839685 0.6416894 0.8173347 0.6665713 0.8173347 0.6416894 0.1690081 0.4394807 0.3052753 0.4628268 0.3052754 0.4394807 0.3052754 0.4394807 0.1700041 0.4628268 0.1700043 0.4394807 0.2950446 0.4817591 0.1676843 0.4963313 0.1676843 0.4817591 0.3062715 0.4394807 0.1705428 0.4628269 0.1705428 0.4394807 0.1700043 0.4394807 0.3062714 0.4628268 0.3062715 0.4394807 0.9573771 0.8728813 0.8346146 0.8736419 0.8990868 0.8254581 0.9561927 0.6817523 0.898495 0.7298942 0.833431 0.6825137 0.9573771 0.8728813 0.8990868 0.8254581 0.9268345 0.7775023 0.9561927 0.6817523 0.9268345 0.7775023 0.898495 0.7298942 0.9561927 0.6817523 0.9573771 0.8728813 0.9268345 0.7775023 0.9453594 0.6681249 0.8031257 0.6401358 0.9453594 0.6401358 0.9497641 0.867393 0.891769 0.8196099 0.827 0.8673931 0.9497641 0.6762605 0.827 0.6762604 0.8917691 0.7240436 0.9497641 0.867393 0.919813 0.7718267 0.891769 0.8196099 0.9497641 0.6762605 0.8917691 0.7240436 0.919813 0.7718267 0.9497641 0.867393 0.9497641 0.6762605 0.919813 0.7718267 0.8533404 0.6453739 0.7693202 0.6628868 0.8533404 0.6628868 0.8620354 0.6416894 0.839685 0.6665713 0.839685 0.6416894 0.772634 0.7036692 0.8620354 0.6045915 0.772634 0.6045915 0.8173347 0.6416894 0.7949844 0.6665713 0.7949844 0.6416894 0.7949844 0.6416894 0.772634 0.6665713 0.772634 0.6416894 0.839685 0.6416894 0.8173347 0.6665713 0.8173347 0.6416894 0.1690081 0.4394807 0.3052753 0.4628268 0.3052754 0.4394807 0.3052754 0.4394807 0.1700041 0.4628268 0.1700043 0.4394807 0.2950446 0.4817591 0.1676843 0.4963313 0.1676843 0.4817591 0.3062715 0.4394807 0.1705428 0.4628269 0.1705428 0.4394807 0.1700043 0.4394807 0.3062714 0.4628268 0.3062715 0.4394807 0.9453594 0.6681249 0.8031257 0.6681249 0.8031257 0.6401358 0.8533404 0.6453739 0.7693202 0.6453739 0.7693202 0.6628868 0.8620354 0.6416894 0.8620354 0.6665713 0.839685 0.6665713 0.772634 0.7036692 0.8620354 0.7036692 0.8620354 0.6045915 0.8173347 0.6416894 0.8173347 0.6665713 0.7949844 0.6665713 0.7949844 0.6416894 0.7949844 0.6665713 0.772634 0.6665713 0.839685 0.6416894 0.839685 0.6665713 0.8173347 0.6665713 0.1690081 0.4394807 0.1690081 0.4628268 0.3052753 0.4628268 0.3052754 0.4394807 0.3052753 0.4628268 0.1700041 0.4628268 0.2950446 0.4817591 0.2950446 0.4963313 0.1676843 0.4963313 0.3062715 0.4394807 0.3062714 0.4628268 0.1705428 0.4628269 0.1700043 0.4394807 0.1700041 0.4628268 0.3062714 0.4628268 0.9453594 0.6681249 0.8031257 0.6681249 0.8031257 0.6401358 0.8533404 0.6453739 0.7693202 0.6453739 0.7693202 0.6628868 0.8620354 0.6416894 0.8620354 0.6665713 0.839685 0.6665713 0.772634 0.7036692 0.8620354 0.7036692 0.8620354 0.6045915 0.8173347 0.6416894 0.8173347 0.6665713 0.7949844 0.6665713 0.7949844 0.6416894 0.7949844 0.6665713 0.772634 0.6665713 0.839685 0.6416894 0.839685 0.6665713 0.8173347 0.6665713 0.1690081 0.4394807 0.1690081 0.4628268 0.3052753 0.4628268 0.3052754 0.4394807 0.3052753 0.4628268 0.1700041 0.4628268 0.2950446 0.4817591 0.2950446 0.4963313 0.1676843 0.4963313 0.3062715 0.4394807 0.3062714 0.4628268 0.1705428 0.4628269 0.1700043 0.4394807 0.1700041 0.4628268 0.3062714 0.4628268 0.9573771 0.8728813 0.8990868 0.8254581 0.8346146 0.8736419 0.9561927 0.6817523 0.833431 0.6825137 0.898495 0.7298942 0.9573771 0.8728813 0.9268345 0.7775023 0.8990868 0.8254581 0.9561927 0.6817523 0.898495 0.7298942 0.9268345 0.7775023 0.9561927 0.6817523 0.9268345 0.7775023 0.9573771 0.8728813 0.9453594 0.6681249 0.9453594 0.6401358 0.8031257 0.6401358 0.9497641 0.867393 0.827 0.8673931 0.891769 0.8196099 0.9497641 0.6762605 0.8917691 0.7240436 0.827 0.6762604 0.9497641 0.867393 0.891769 0.8196099 0.919813 0.7718267 0.9497641 0.6762605 0.919813 0.7718267 0.8917691 0.7240436 0.9497641 0.867393 0.919813 0.7718267 0.9497641 0.6762605 0.8533404 0.6453739 0.8533404 0.6628868 0.7693202 0.6628868 0.8620354 0.6416894 0.839685 0.6416894 0.839685 0.6665713 0.772634 0.7036692 0.772634 0.6045915 0.8620354 0.6045915 0.8173347 0.6416894 0.7949844 0.6416894 0.7949844 0.6665713 0.7949844 0.6416894 0.772634 0.6416894 0.772634 0.6665713 0.839685 0.6416894 0.8173347 0.6416894 0.8173347 0.6665713 0.1690081 0.4394807 0.3052754 0.4394807 0.3052753 0.4628268 0.3052754 0.4394807 0.1700043 0.4394807 0.1700041 0.4628268 0.2950446 0.4817591 0.1676843 0.4817591 0.1676843 0.4963313 0.3062715 0.4394807 0.1705428 0.4394807 0.1705428 0.4628269 0.1700043 0.4394807 0.3062715 0.4394807 0.3062714 0.4628268 0.1690081 0.4394807 0.3052754 0.4394807 0.3052753 0.4628268 0.3052754 0.4394807 0.1700043 0.4394807 0.1700041 0.4628268 0.2950446 0.4817591 0.1676843 0.4817591 0.1676843 0.4963313 0.3062715 0.4394807 0.1705428 0.4394807 0.1705428 0.4628269 0.1700043 0.4394807 0.3062715 0.4394807 0.3062714 0.4628268 0.9453594 0.6681249 0.8031257 0.6401358 0.8031257 0.6681249 0.8533404 0.6453739 0.7693202 0.6628868 0.7693202 0.6453739 0.8620354 0.6416894 0.839685 0.6665713 0.8620354 0.6665713 0.772634 0.7036692 0.8620354 0.6045915 0.8620354 0.7036692 0.8173347 0.6416894 0.7949844 0.6665713 0.8173347 0.6665713 0.7949844 0.6416894 0.772634 0.6665713 0.7949844 0.6665713 0.839685 0.6416894 0.8173347 0.6665713 0.839685 0.6665713 0.1690081 0.4394807 0.3052753 0.4628268 0.1690081 0.4628268 0.3052754 0.4394807 0.1700041 0.4628268 0.3052753 0.4628268 0.2950446 0.4817591 0.1676843 0.4963313 0.2950446 0.4963313 0.3062715 0.4394807 0.1705428 0.4628269 0.3062714 0.4628268 0.1700043 0.4394807 0.3062714 0.4628268 0.1700041 0.4628268 0.1690081 0.4394807 0.3052753 0.4628268 0.1690081 0.4628268 0.3052754 0.4394807 0.1700041 0.4628268 0.3052753 0.4628268 0.2950446 0.4817591 0.1676843 0.4963313 0.2950446 0.4963313 0.3062715 0.4394807 0.1705428 0.4628269 0.3062714 0.4628268 0.1700043 0.4394807 0.3062714 0.4628268 0.1700041 0.4628268 0.9573771 0.8728813 0.8990868 0.8254581 0.8346146 0.8736419 0.9561927 0.6817523 0.833431 0.6825137 0.898495 0.7298942 0.9573771 0.8728813 0.9268345 0.7775023 0.8990868 0.8254581 0.9561927 0.6817523 0.898495 0.7298942 0.9268345 0.7775023 0.9561927 0.6817523 0.9268345 0.7775023 0.9573771 0.8728813 0.9453594 0.6681249 0.9453594 0.6401358 0.8031257 0.6401358 0.9497641 0.867393 0.827 0.8673931 0.891769 0.8196099 0.9497641 0.6762605 0.8917691 0.7240436 0.827 0.6762604 0.9497641 0.867393 0.891769 0.8196099 0.919813 0.7718267 0.9497641 0.6762605 0.919813 0.7718267 0.8917691 0.7240436 0.9497641 0.867393 0.919813 0.7718267 0.9497641 0.6762605 0.8533404 0.6453739 0.8533404 0.6628868 0.7693202 0.6628868 0.8620354 0.6416894 0.839685 0.6416894 0.839685 0.6665713 0.772634 0.7036692 0.772634 0.6045915 0.8620354 0.6045915 0.8173347 0.6416894 0.7949844 0.6416894 0.7949844 0.6665713 0.7949844 0.6416894 0.772634 0.6416894 0.772634 0.6665713 0.839685 0.6416894 0.8173347 0.6416894 0.8173347 0.6665713 0.1690081 0.4394807 0.3052754 0.4394807 0.3052753 0.4628268 0.3052754 0.4394807 0.1700043 0.4394807 0.1700041 0.4628268 0.2950446 0.4817591 0.1676843 0.4817591 0.1676843 0.4963313 0.3062715 0.4394807 0.1705428 0.4394807 0.1705428 0.4628269 0.1700043 0.4394807 0.3062715 0.4394807 0.3062714 0.4628268 0.9573771 0.8728813 0.8990868 0.8254581 0.8346146 0.8736419 0.9561927 0.6817523 0.833431 0.6825137 0.898495 0.7298942 0.9573771 0.8728813 0.9268345 0.7775023 0.8990868 0.8254581 0.9561927 0.6817523 0.898495 0.7298942 0.9268345 0.7775023 0.9561927 0.6817523 0.9268345 0.7775023 0.9573771 0.8728813 0.9453594 0.6681249 0.9453594 0.6401358 0.8031257 0.6401358 0.9497641 0.867393 0.827 0.8673931 0.891769 0.8196099 0.9497641 0.6762605 0.8917691 0.7240436 0.827 0.6762604 0.9497641 0.867393 0.891769 0.8196099 0.919813 0.7718267 0.9497641 0.6762605 0.919813 0.7718267 0.8917691 0.7240436 0.9497641 0.867393 0.919813 0.7718267 0.9497641 0.6762605 0.8533404 0.6453739 0.8533404 0.6628868 0.7693202 0.6628868 0.8620354 0.6416894 0.839685 0.6416894 0.839685 0.6665713 0.772634 0.7036692 0.772634 0.6045915 0.8620354 0.6045915 0.8173347 0.6416894 0.7949844 0.6416894 0.7949844 0.6665713 0.7949844 0.6416894 0.772634 0.6416894 0.772634 0.6665713 0.839685 0.6416894 0.8173347 0.6416894 0.8173347 0.6665713 0.1690081 0.4394807 0.3052754 0.4394807 0.3052753 0.4628268 0.3052754 0.4394807 0.1700043 0.4394807 0.1700041 0.4628268 0.2950446 0.4817591 0.1676843 0.4817591 0.1676843 0.4963313 0.3062715 0.4394807 0.1705428 0.4394807 0.1705428 0.4628269 0.1700043 0.4394807 0.3062715 0.4394807 0.3062714 0.4628268 0.9453594 0.6681249 0.8031257 0.6401358 0.8031257 0.6681249 0.8533404 0.6453739 0.7693202 0.6628868 0.7693202 0.6453739 0.8620354 0.6416894 0.839685 0.6665713 0.8620354 0.6665713 0.772634 0.7036692 0.8620354 0.6045915 0.8620354 0.7036692 0.8173347 0.6416894 0.7949844 0.6665713 0.8173347 0.6665713 0.7949844 0.6416894 0.772634 0.6665713 0.7949844 0.6665713 0.839685 0.6416894 0.8173347 0.6665713 0.839685 0.6665713 0.1690081 0.4394807 0.3052753 0.4628268 0.1690081 0.4628268 0.3052754 0.4394807 0.1700041 0.4628268 0.3052753 0.4628268 0.2950446 0.4817591 0.1676843 0.4963313 0.2950446 0.4963313 0.3062715 0.4394807 0.1705428 0.4628269 0.3062714 0.4628268 0.1700043 0.4394807 0.3062714 0.4628268 0.1700041 0.4628268 0.9453594 0.6681249 0.8031257 0.6401358 0.8031257 0.6681249 0.8533404 0.6453739 0.7693202 0.6628868 0.7693202 0.6453739 0.8620354 0.6416894 0.839685 0.6665713 0.8620354 0.6665713 0.772634 0.7036692 0.8620354 0.6045915 0.8620354 0.7036692 0.8173347 0.6416894 0.7949844 0.6665713 0.8173347 0.6665713 0.7949844 0.6416894 0.772634 0.6665713 0.7949844 0.6665713 0.839685 0.6416894 0.8173347 0.6665713 0.839685 0.6665713 0.1690081 0.4394807 0.3052753 0.4628268 0.1690081 0.4628268 0.3052754 0.4394807 0.1700041 0.4628268 0.3052753 0.4628268 0.2950446 0.4817591 0.1676843 0.4963313 0.2950446 0.4963313 0.3062715 0.4394807 0.1705428 0.4628269 0.3062714 0.4628268 0.1700043 0.4394807 0.3062714 0.4628268 0.1700041 0.4628268 0.9573771 0.8728813 0.8346146 0.8736419 0.8990868 0.8254581 0.9561927 0.6817523 0.898495 0.7298942 0.833431 0.6825137 0.9573771 0.8728813 0.8990868 0.8254581 0.9268345 0.7775023 0.9561927 0.6817523 0.9268345 0.7775023 0.898495 0.7298942 0.9561927 0.6817523 0.9573771 0.8728813 0.9268345 0.7775023 0.9453594 0.6681249 0.8031257 0.6401358 0.9453594 0.6401358 0.9497641 0.867393 0.891769 0.8196099 0.827 0.8673931 0.9497641 0.6762605 0.827 0.6762604 0.8917691 0.7240436 0.9497641 0.867393 0.919813 0.7718267 0.891769 0.8196099 0.9497641 0.6762605 0.8917691 0.7240436 0.919813 0.7718267 0.9497641 0.867393 0.9497641 0.6762605 0.919813 0.7718267 0.8533404 0.6453739 0.7693202 0.6628868 0.8533404 0.6628868 0.8620354 0.6416894 0.839685 0.6665713 0.839685 0.6416894 0.772634 0.7036692 0.8620354 0.6045915 0.772634 0.6045915 0.8173347 0.6416894 0.7949844 0.6665713 0.7949844 0.6416894 0.7949844 0.6416894 0.772634 0.6665713 0.772634 0.6416894 0.839685 0.6416894 0.8173347 0.6665713 0.8173347 0.6416894 0.1690081 0.4394807 0.3052753 0.4628268 0.3052754 0.4394807 0.3052754 0.4394807 0.1700041 0.4628268 0.1700043 0.4394807 0.2950446 0.4817591 0.1676843 0.4963313 0.1676843 0.4817591 0.3062715 0.4394807 0.1705428 0.4628269 0.1705428 0.4394807 0.1700043 0.4394807 0.3062714 0.4628268 0.3062715 0.4394807 0.9573771 0.8728813 0.8346146 0.8736419 0.8990868 0.8254581 0.9561927 0.6817523 0.898495 0.7298942 0.833431 0.6825137 0.9573771 0.8728813 0.8990868 0.8254581 0.9268345 0.7775023 0.9561927 0.6817523 0.9268345 0.7775023 0.898495 0.7298942 0.9561927 0.6817523 0.9573771 0.8728813 0.9268345 0.7775023 0.9453594 0.6681249 0.8031257 0.6401358 0.9453594 0.6401358 0.9497641 0.867393 0.891769 0.8196099 0.827 0.8673931 0.9497641 0.6762605 0.827 0.6762604 0.8917691 0.7240436 0.9497641 0.867393 0.919813 0.7718267 0.891769 0.8196099 0.9497641 0.6762605 0.8917691 0.7240436 0.919813 0.7718267 0.9497641 0.867393 0.9497641 0.6762605 0.919813 0.7718267 0.8533404 0.6453739 0.7693202 0.6628868 0.8533404 0.6628868 0.8620354 0.6416894 0.839685 0.6665713 0.839685 0.6416894 0.772634 0.7036692 0.8620354 0.6045915 0.772634 0.6045915 0.8173347 0.6416894 0.7949844 0.6665713 0.7949844 0.6416894 0.7949844 0.6416894 0.772634 0.6665713 0.772634 0.6416894 0.839685 0.6416894 0.8173347 0.6665713 0.8173347 0.6416894 0.9453594 0.6681249 0.8031257 0.6681249 0.8031257 0.6401358 0.8533404 0.6453739 0.7693202 0.6453739 0.7693202 0.6628868 0.8620354 0.6416894 0.8620354 0.6665713 0.839685 0.6665713 0.772634 0.7036692 0.8620354 0.7036692 0.8620354 0.6045915 0.8173347 0.6416894 0.8173347 0.6665713 0.7949844 0.6665713 0.7949844 0.6416894 0.7949844 0.6665713 0.772634 0.6665713 0.839685 0.6416894 0.839685 0.6665713 0.8173347 0.6665713 0.1690081 0.4394807 0.1690081 0.4628268 0.3052753 0.4628268 0.3052754 0.4394807 0.3052753 0.4628268 0.1700041 0.4628268 0.2950446 0.4817591 0.2950446 0.4963313 0.1676843 0.4963313 0.3062715 0.4394807 0.3062714 0.4628268 0.1705428 0.4628269 0.1700043 0.4394807 0.1700041 0.4628268 0.3062714 0.4628268 0.9453594 0.6681249 0.8031257 0.6681249 0.8031257 0.6401358 0.8533404 0.6453739 0.7693202 0.6453739 0.7693202 0.6628868 0.8620354 0.6416894 0.8620354 0.6665713 0.839685 0.6665713 0.772634 0.7036692 0.8620354 0.7036692 0.8620354 0.6045915 0.8173347 0.6416894 0.8173347 0.6665713 0.7949844 0.6665713 0.7949844 0.6416894 0.7949844 0.6665713 0.772634 0.6665713 0.839685 0.6416894 0.839685 0.6665713 0.8173347 0.6665713 0.2708869 0.6512362 0.2708869 0.9149726 0.008088171 0.9149726 0.357151 0.9149726 0.2702732 0.9149726 0.2702732 0.6512362 0.007474422 0.6512362 0.2702732 0.6512362 0.2702732 0.9149726 0.1301563 0.1755847 0.1713942 0.1755847 0.1713942 0.4304308 0.1301563 0.4310327 0.1301563 0.1773256 0.1713942 0.1773256 0.1301563 0.09217315 0.1713942 0.09217315 0.1713942 0.1755847 0.008134067 0.9144982 0.008134007 0.7821603 0.4051982 0.7821602 0.1713942 0.1755847 0.1766203 0.1755847 0.1766203 0.4304308 0.1713942 0.1773256 0.1766203 0.1773256 0.1766203 0.4310327 0.1713942 0.09217315 0.1766203 0.09217315 0.1766203 0.1755847 0.1301563 0.09217625 0.1713942 0.09217625 0.1713942 0.1773256 0.3593162 0.9149726 0.2708869 0.9149726 0.2708869 0.6512362 0.1301563 0.1773256 0.1713942 0.1773256 0.1713942 0.4310327 0.1713942 0.09217625 0.1766203 0.09217625 0.1766203 0.1773256 0.2708869 0.9149726 0.008088171 0.9149726 0.008088171 0.6512362 0.1713942 0.1773256 0.1766203 0.1773256 0.1766203 0.4310327 0.2702732 0.6512362 0.2702732 0.9149726 0.007474422 0.9149726 0.1301563 0.4304308 0.1301563 0.1755847 0.1713942 0.1755847 0.008134007 0.7820684 0.008134007 0.6497308 0.4051982 0.6497309 0.1713942 0.1755847 0.1766203 0.1755847 0.1766203 0.4304308</float_array>
          <technique_common>
            <accessor source="#E_long_005-mesh-map-0-array" count="834" stride="2">
              <param name="S" type="float"/>
              <param name="T" type="float"/>
            </accessor>
          </technique_common>
        </source>
        <source id="E_long_005-mesh-map-1">
          <float_array id="E_long_005-mesh-map-1-array" count="1668">0.93639 0.25 0.513471 0.007188796 0.93639 0.003855824 0.174263 0.5442297 0.2487861 0.9657981 0.1714292 0.9657981 0.4679789 0.2500001 0.04505985 0.4928112 0.04505985 0.25 0.04505985 0.4928112 0.00464785 0.25 0.04505985 0.25 0.513471 0.007188796 0.473059 0.25 0.473059 4.32254e-4 0.174263 0.5442297 0.251697 0.5046312 0.2459523 0.5442297 4.32247e-4 0.5004323 0.08361077 0.75 4.32252e-4 0.75 0.00464785 0.4995678 4.32309e-4 0.25 0.00464785 0.25 0.473059 0.25 0.4688434 4.32253e-4 0.473059 4.32254e-4 0.1685184 0.5046312 0.251697 0.5004323 0.251697 0.5046312 0.09021997 0.5442296 0.1676539 0.5046312 0.1619092 0.5442296 0.09021997 0.5442296 0.164743 0.9657981 0.08738607 0.9657981 0.513471 0.4928112 0.473059 0.25 0.513471 0.25 0.08447527 0.5046312 0.1676539 0.5004323 0.1676539 0.5046312 0.513471 0.4928112 0.93639 0.25 0.9363899 0.4961442 0.4730589 0.4995677 0.4688434 0.25 0.473059 0.25 0.4679789 0.2500001 0.04505991 0.007188796 0.4679789 0.003855824 0.04505991 0.007188796 0.00464785 0.25 0.00464791 4.3225e-4 4.32252e-4 0.75 0.08361077 0.9995677 4.32253e-4 0.9995678 0.00464785 0.25 4.32328e-4 4.32249e-4 0.00464791 4.3225e-4 0.4041752 0.638372 0.4041752 0.5698344 0.4165936 0.6059941 0.4538486 0.638372 0.4414303 0.6059941 0.4538486 0.5698344 0.4041752 0.638372 0.4165936 0.6059941 0.429012 0.6216507 0.4538486 0.638372 0.429012 0.6216507 0.4414303 0.6059941 0.4538486 0.638372 0.4041752 0.638372 0.429012 0.6216507 0.6862847 0.6962552 0.699302 0.6279887 0.699302 0.6962552 0.5043864 0.638372 0.4919681 0.6059941 0.5043864 0.5698344 0.4547131 0.638372 0.4547131 0.5698344 0.4671313 0.6059941 0.5043864 0.638372 0.4795497 0.6216507 0.4919681 0.6059941 0.4547131 0.638372 0.4671313 0.6059941 0.4795497 0.6216507 0.5043864 0.638372 0.4547131 0.638372 0.4795497 0.6216507 0.692365 0.5686988 0.7053823 0.5004323 0.7053823 0.5686988 0.5922086 0.6392365 0.6052259 0.6763622 0.5922086 0.6763622 0.7340105 0.5501056 0.7470278 0.5004323 0.7470278 0.5501056 0.7053823 0.6233924 0.692365 0.6066888 0.7053823 0.6066888 0.7053823 0.6066888 0.692365 0.5695632 0.7053823 0.5695632 0.5922086 0.6763622 0.6052259 0.6930657 0.5922086 0.6930657 0.2901559 0.6965264 0.2717909 0.6392365 0.2901559 0.6392365 0.3862308 0.718796 0.3679384 0.6973909 0.3862308 0.6973909 0.6500012 0.6271243 0.6285963 0.5698344 0.6500012 0.5698344 0.4054602 0.718796 0.3871679 0.6973909 0.4054602 0.6973909 0.3093854 0.6965264 0.2910205 0.6392365 0.3093854 0.6392365 0.3536373 0.5689699 0.3536373 0.5004323 0.3660557 0.536592 0.4033107 0.5689699 0.3908923 0.536592 0.4033107 0.5004323 0.3536373 0.5689699 0.3660557 0.536592 0.3784741 0.5522486 0.4033107 0.5689699 0.3784741 0.5522486 0.3908923 0.536592 0.4033107 0.5689699 0.3536373 0.5689699 0.3784741 0.5522486 0.4256269 0.707503 0.4386442 0.6392365 0.4386442 0.707503 0.4538487 0.5689699 0.4414303 0.536592 0.4538487 0.5004323 0.4041752 0.5689699 0.4041752 0.5004323 0.4165936 0.536592 0.4538487 0.5689699 0.429012 0.5522486 0.4414303 0.536592 0.4041752 0.5689699 0.4165936 0.536592 0.429012 0.5522486 0.4538487 0.5689699 0.4041752 0.5689699 0.429012 0.5522486 0.4395087 0.7075031 0.452526 0.6392366 0.452526 0.7075031 0.7001665 0.6279888 0.7131837 0.6651144 0.7001665 0.6651144 0.7279301 0.6776622 0.7409474 0.6279888 0.7409474 0.6776622 0.7192641 0.5542613 0.7062468 0.5375578 0.7192641 0.5375578 0.7192641 0.5375578 0.7062468 0.5004322 0.7192641 0.5004322 0.7001665 0.6651144 0.7131837 0.6818179 0.7001664 0.6818179 0.6469612 0.6852787 0.6285962 0.6279888 0.6469612 0.6279888 0.2708538 0.718796 0.2525615 0.697391 0.2708538 0.697391 0.6277316 0.6271243 0.6063266 0.5698344 0.6277316 0.5698344 0.4246898 0.718796 0.4063974 0.6973909 0.4246898 0.6973909 0.6661906 0.6852787 0.6478257 0.6279888 0.6661906 0.6279888 0.6862847 0.6962552 0.6862847 0.6279887 0.699302 0.6279887 0.692365 0.5686988 0.692365 0.5004323 0.7053823 0.5004323 0.5922086 0.6392365 0.6052259 0.6392365 0.6052259 0.6763622 0.7340105 0.5501056 0.7340105 0.5004323 0.7470278 0.5004323 0.7053823 0.6233924 0.692365 0.6233924 0.692365 0.6066888 0.7053823 0.6066888 0.692365 0.6066888 0.692365 0.5695632 0.5922086 0.6763622 0.6052259 0.6763622 0.6052259 0.6930657 0.2901559 0.6965264 0.2717909 0.6965264 0.2717909 0.6392365 0.3862308 0.718796 0.3679384 0.718796 0.3679384 0.6973909 0.6500012 0.6271243 0.6285963 0.6271243 0.6285963 0.5698344 0.4054602 0.718796 0.3871679 0.718796 0.3871679 0.6973909 0.3093854 0.6965264 0.2910205 0.6965264 0.2910205 0.6392365 0.4256269 0.707503 0.4256269 0.6392365 0.4386442 0.6392365 0.4395087 0.7075031 0.4395087 0.6392366 0.452526 0.6392366 0.7001665 0.6279888 0.7131837 0.6279888 0.7131837 0.6651144 0.7279301 0.6776622 0.7279301 0.6279888 0.7409474 0.6279888 0.7192641 0.5542613 0.7062468 0.5542613 0.7062468 0.5375578 0.7192641 0.5375578 0.7062468 0.5375578 0.7062468 0.5004322 0.7001665 0.6651144 0.7131837 0.6651144 0.7131837 0.6818179 0.6469612 0.6852787 0.6285962 0.6852787 0.6285962 0.6279888 0.2708538 0.718796 0.2525615 0.718796 0.2525615 0.697391 0.6277316 0.6271243 0.6063266 0.6271243 0.6063266 0.5698344 0.4246898 0.718796 0.4063974 0.718796 0.4063974 0.6973909 0.6661906 0.6852787 0.6478257 0.6852787 0.6478257 0.6279888 0.6054626 0.5689699 0.5930442 0.536592 0.6054626 0.5004323 0.5557892 0.5689699 0.5557892 0.5004323 0.5682075 0.536592 0.6054626 0.5689699 0.5806258 0.5522486 0.5930442 0.536592 0.5557892 0.5689699 0.5682075 0.536592 0.5806258 0.5522486 0.5557892 0.5689699 0.5806258 0.5522486 0.6054626 0.5689699 0.4664078 0.707503 0.4533905 0.707503 0.4533905 0.6392365 0.2525614 0.638372 0.2525614 0.5698344 0.2649797 0.6059941 0.3022348 0.638372 0.2898164 0.6059941 0.3022348 0.5698344 0.2525614 0.638372 0.2649797 0.6059941 0.2773981 0.6216507 0.3022348 0.638372 0.2773981 0.6216507 0.2898164 0.6059941 0.2525614 0.638372 0.2773981 0.6216507 0.3022348 0.638372 0.4802896 0.7075031 0.4672723 0.7075031 0.4672723 0.6392366 0.7192641 0.5551258 0.7192641 0.5922514 0.7062468 0.5922514 0.5922086 0.6939302 0.6052259 0.6939302 0.6052259 0.7436036 0.7140483 0.6818178 0.7140483 0.6651143 0.7270656 0.6651143 0.7140483 0.6651143 0.7140483 0.6279886 0.7270656 0.6279886 0.7192641 0.5922514 0.7192641 0.608955 0.7062468 0.608955 0.4055329 0.6392365 0.4055329 0.6965264 0.3871679 0.6965264 0.2900107 0.697391 0.2900107 0.718796 0.2717183 0.718796 0.6722707 0.5698344 0.6722707 0.6271243 0.6508657 0.6271243 0.3093128 0.6973909 0.3093128 0.718796 0.2910204 0.718796 0.367074 0.6392366 0.3670739 0.6965264 0.3487089 0.6965264 0.6915005 0.5585867 0.6915005 0.6158766 0.6731355 0.6158766 0.4439193 0.7083676 0.4439193 0.7297726 0.4256269 0.7297726 0.627732 0.5004322 0.627732 0.5577222 0.606327 0.5577222 0.4630761 0.7083676 0.4630761 0.7297726 0.4447838 0.7297726 0.2709264 0.6392365 0.2709264 0.6965264 0.2525615 0.6965264 0.4664078 0.707503 0.4533905 0.6392365 0.4664078 0.6392365 0.4802896 0.7075031 0.4672723 0.6392366 0.4802896 0.6392366 0.7192641 0.5551258 0.7062468 0.5922514 0.7062468 0.5551258 0.5922086 0.6939302 0.6052259 0.7436036 0.5922086 0.7436036 0.7140483 0.6818178 0.7270656 0.6651143 0.7270656 0.6818178 0.7140483 0.6651143 0.7270656 0.6279886 0.7270656 0.6651143 0.7192641 0.5922514 0.7062468 0.608955 0.7062468 0.5922514 0.4055329 0.6392365 0.3871679 0.6965264 0.3871679 0.6392365 0.2900107 0.697391 0.2717183 0.718796 0.2717183 0.697391 0.6722707 0.5698344 0.6508657 0.6271243 0.6508657 0.5698344 0.3093128 0.6973909 0.2910204 0.718796 0.2910204 0.6973909 0.367074 0.6392366 0.3487089 0.6965264 0.3487089 0.6392366 0.6915005 0.5585867 0.6731355 0.6158766 0.6731355 0.5585867 0.4439193 0.7083676 0.4256269 0.7297726 0.4256269 0.7083676 0.627732 0.5004322 0.606327 0.5577222 0.606327 0.5004322 0.4630761 0.7083676 0.4447838 0.7297726 0.4447838 0.7083676 0.2709264 0.6392365 0.2525615 0.6965264 0.2525615 0.6392365 0.5549243 0.638372 0.542506 0.6059941 0.5549243 0.5698344 0.5052509 0.638372 0.5052509 0.5698344 0.5176693 0.6059941 0.5549243 0.638372 0.5300875 0.6216507 0.542506 0.6059941 0.5052509 0.638372 0.5176693 0.6059941 0.5300875 0.6216507 0.5052509 0.638372 0.5300875 0.6216507 0.5549243 0.638372 0.4941715 0.7075031 0.4811542 0.7075031 0.4811542 0.6392366 0.5557888 0.638372 0.5557888 0.5698344 0.5682071 0.6059941 0.6054621 0.638372 0.5930438 0.6059941 0.6054621 0.5698344 0.5557888 0.638372 0.5682071 0.6059941 0.5806255 0.6216507 0.6054621 0.638372 0.5806255 0.6216507 0.5930438 0.6059941 0.5557888 0.638372 0.5806255 0.6216507 0.6054621 0.638372 0.5080533 0.7075031 0.495036 0.7075031 0.495036 0.6392366 0.733146 0.5004322 0.733146 0.5375578 0.7201287 0.5375578 0.7340105 0.5509701 0.7470278 0.5509701 0.7470278 0.6006434 0.7201286 0.608955 0.7201286 0.5922515 0.7331459 0.5922515 0.7201286 0.5922515 0.7201286 0.5551259 0.7331459 0.5551259 0.733146 0.5375578 0.733146 0.5542613 0.7201287 0.5542613 0.3286149 0.6392365 0.3286149 0.6965264 0.3102499 0.6965264 0.4855647 0.7083676 0.4855647 0.7297726 0.4672723 0.7297726 0.672271 0.5004323 0.672271 0.5577222 0.650866 0.5577222 0.5047216 0.7083677 0.5047216 0.7297726 0.4864292 0.7297726 0.3478444 0.6392365 0.3478444 0.6965264 0.3294794 0.6965264 0.5043867 0.5689699 0.4919683 0.536592 0.5043867 0.5004323 0.4547132 0.5689699 0.4547132 0.5004323 0.4671316 0.536592 0.5043867 0.5689699 0.4795499 0.5522486 0.4919683 0.536592 0.4547132 0.5689699 0.4671316 0.536592 0.4795499 0.5522486 0.4547132 0.5689699 0.4795499 0.5522486 0.5043867 0.5689699 0.5219351 0.707503 0.5089178 0.707503 0.5089178 0.6392365 0.5052512 0.5689699 0.5052512 0.5004323 0.5176696 0.536592 0.5549246 0.5689699 0.5425062 0.536592 0.5549246 0.5004323 0.5052512 0.5689699 0.5176696 0.536592 0.5300878 0.5522486 0.5549246 0.5689699 0.5300878 0.5522486 0.5425062 0.536592 0.5052512 0.5689699 0.5300878 0.5522486 0.5549246 0.5689699 0.5358169 0.7075031 0.5227996 0.7075031 0.5227996 0.6392366 0.7131838 0.6826823 0.7131838 0.719808 0.7001665 0.719808 0.7279301 0.6785267 0.7409474 0.6785267 0.7409474 0.7282001 0.7140483 0.7365115 0.7140483 0.719808 0.7270656 0.719808 0.7140483 0.719808 0.7140483 0.6826824 0.7270656 0.6826824 0.7131838 0.719808 0.7131838 0.7365115 0.7001665 0.7365115 0.6854202 0.6279888 0.6854202 0.6852787 0.6670553 0.6852787 0.3285423 0.6973909 0.3285423 0.7187959 0.3102499 0.7187959 0.6500015 0.5004323 0.6500015 0.5577222 0.6285965 0.5577222 0.5272101 0.7083676 0.5272101 0.7297726 0.5089178 0.7297726 0.6915005 0.5004323 0.6915005 0.5577222 0.6731355 0.5577222 0.4941715 0.7075031 0.4811542 0.6392366 0.4941715 0.6392366 0.5080533 0.7075031 0.495036 0.6392366 0.5080533 0.6392366 0.733146 0.5004322 0.7201287 0.5375578 0.7201287 0.5004322 0.7340105 0.5509701 0.7470278 0.6006434 0.7340105 0.6006434 0.7201286 0.608955 0.7331459 0.5922515 0.7331459 0.608955 0.7201286 0.5922515 0.7331459 0.5551259 0.7331459 0.5922515 0.733146 0.5375578 0.7201287 0.5542613 0.7201287 0.5375578 0.3286149 0.6392365 0.3102499 0.6965264 0.3102499 0.6392365 0.4855647 0.7083676 0.4672723 0.7297726 0.4672723 0.7083676 0.672271 0.5004323 0.650866 0.5577222 0.650866 0.5004323 0.5047216 0.7083677 0.4864292 0.7297726 0.4864292 0.7083676 0.3478444 0.6392365 0.3294794 0.6965264 0.3294795 0.6392365 0.5219351 0.707503 0.5089178 0.6392365 0.5219351 0.6392365 0.5358169 0.7075031 0.5227996 0.6392366 0.5358169 0.6392366 0.7131838 0.6826823 0.7001665 0.719808 0.7001665 0.6826823 0.7279301 0.6785267 0.7409474 0.7282001 0.7279301 0.7282001 0.7140483 0.7365115 0.7270656 0.719808 0.7270656 0.7365115 0.7140483 0.719808 0.7270656 0.6826824 0.7270656 0.719808 0.7131838 0.719808 0.7001665 0.7365115 0.7001665 0.719808 0.6854202 0.6279888 0.6670553 0.6852787 0.6670553 0.6279888 0.3285423 0.6973909 0.3102499 0.7187959 0.3102499 0.6973909 0.6500015 0.5004323 0.6285965 0.5577222 0.6285965 0.5004323 0.5272101 0.7083676 0.5089178 0.7297726 0.5089178 0.7083676 0.6915005 0.5004323 0.6731355 0.5577222 0.6731355 0.5004323 0.3030993 0.638372 0.3030993 0.5698344 0.3155177 0.6059941 0.3527728 0.638372 0.3403544 0.6059941 0.3527728 0.5698344 0.3030993 0.638372 0.3155177 0.6059941 0.3279361 0.6216507 0.3527728 0.638372 0.3279361 0.6216507 0.3403544 0.6059941 0.3527728 0.638372 0.3030993 0.638372 0.3279361 0.6216507 0.5366814 0.707503 0.5496987 0.6392365 0.5496987 0.707503 0.4033107 0.638372 0.3908923 0.6059941 0.4033107 0.5698344 0.3536373 0.638372 0.3536373 0.5698344 0.3660556 0.6059941 0.4033107 0.638372 0.378474 0.6216507 0.3908923 0.6059941 0.3536373 0.638372 0.3660556 0.6059941 0.378474 0.6216507 0.4033107 0.638372 0.3536373 0.638372 0.378474 0.6216507 0.5505631 0.7075031 0.5635804 0.6392366 0.5635804 0.7075031 0.6063266 0.6861432 0.6193439 0.7232688 0.6063266 0.7232688 0.6862847 0.7467932 0.699302 0.6971198 0.699302 0.7467932 0.6332257 0.7399722 0.6202085 0.7232686 0.6332257 0.7232686 0.6332257 0.7232686 0.6202085 0.6861431 0.6332257 0.6861431 0.6063266 0.7232688 0.6193439 0.7399723 0.6063266 0.7399723 0.3863034 0.6965264 0.3679384 0.6392366 0.3863034 0.6392366 0.3477718 0.718796 0.3294794 0.6973909 0.3477718 0.6973909 0.6277316 0.6852786 0.6063266 0.6279888 0.6277316 0.6279888 0.3670013 0.7187959 0.3487089 0.6973909 0.3670013 0.6973909 0.4247624 0.6965264 0.4063974 0.6392365 0.4247624 0.6392365 0.2525614 0.5689699 0.2525614 0.5004323 0.2649798 0.536592 0.3022349 0.5689699 0.2898165 0.536592 0.3022349 0.5004323 0.2525614 0.5689699 0.2649798 0.536592 0.2773982 0.5522486 0.3022349 0.5689699 0.2773982 0.5522486 0.2898165 0.536592 0.3022349 0.5689699 0.2525614 0.5689699 0.2773982 0.5522486 0.564445 0.7075031 0.5774623 0.6392365 0.5774623 0.7075031 0.3527728 0.5689699 0.3403545 0.536592 0.3527728 0.5004323 0.3030994 0.5689699 0.3030994 0.5004323 0.3155178 0.536592 0.3527728 0.5689699 0.3279361 0.5522486 0.3403545 0.536592 0.3030994 0.5689699 0.3155178 0.536592 0.3279361 0.5522486 0.3527728 0.5689699 0.3030994 0.5689699 0.3279361 0.5522486 0.5783268 0.7075031 0.5913441 0.6392365 0.5913441 0.7075031 0.6340902 0.6861431 0.6471075 0.7232687 0.6340902 0.7232687 0.6618539 0.7358165 0.6748712 0.6861431 0.6748712 0.7358165 0.6609894 0.7399722 0.6479721 0.7232687 0.6609894 0.7232687 0.6609894 0.7232687 0.6479721 0.6861431 0.6609894 0.6861431 0.6340902 0.7232687 0.6471075 0.7399722 0.6340902 0.7399722 0.5366814 0.707503 0.5366814 0.6392365 0.5496987 0.6392365 0.5505631 0.7075031 0.5505631 0.6392366 0.5635804 0.6392366 0.6063266 0.6861432 0.6193439 0.6861432 0.6193439 0.7232688 0.6862847 0.7467932 0.6862847 0.6971198 0.699302 0.6971198 0.6332257 0.7399722 0.6202085 0.7399722 0.6202085 0.7232686 0.6332257 0.7232686 0.6202085 0.7232686 0.6202085 0.6861431 0.6063266 0.7232688 0.6193439 0.7232688 0.6193439 0.7399723 0.3863034 0.6965264 0.3679384 0.6965264 0.3679384 0.6392366 0.3477718 0.718796 0.3294794 0.718796 0.3294794 0.6973909 0.6277316 0.6852786 0.6063266 0.6852786 0.6063266 0.6279888 0.3670013 0.7187959 0.3487089 0.7187959 0.3487089 0.6973909 0.4247624 0.6965264 0.4063974 0.6965264 0.4063974 0.6392365 0.564445 0.7075031 0.564445 0.6392365 0.5774623 0.6392365 0.5783268 0.7075031 0.5783268 0.6392365 0.5913441 0.6392365 0.6340902 0.6861431 0.6471075 0.6861431 0.6471075 0.7232687 0.6618539 0.7358165 0.6618539 0.6861431 0.6748712 0.6861431 0.6609894 0.7399722 0.6479721 0.7399722 0.6479721 0.7232687 0.6609894 0.7232687 0.6479721 0.7232687 0.6479721 0.6861431 0.6340902 0.7232687 0.6471075 0.7232687 0.6471075 0.7399722 0.93639 0.25 0.513471 0.25 0.513471 0.007188796 0.174263 0.5442297 0.2459523 0.5442297 0.2487861 0.9657981 0.4679789 0.2500001 0.4679788 0.4961442 0.04505985 0.4928112 0.04505985 0.4928112 0.00464785 0.4995678 0.00464785 0.25 0.513471 0.007188796 0.513471 0.25 0.473059 0.25 0.174263 0.5442297 0.1685184 0.5046312 0.251697 0.5046312 4.32247e-4 0.5004323 0.08361077 0.5004323 0.08361077 0.75 0.00464785 0.4995678 4.32291e-4 0.4995678 4.32309e-4 0.25 0.473059 0.25 0.4688434 0.25 0.4688434 4.32253e-4 0.1685184 0.5046312 0.1685184 0.5004323 0.251697 0.5004323 0.09021997 0.5442296 0.08447527 0.5046312 0.1676539 0.5046312 0.09021997 0.5442296 0.1619092 0.5442296 0.164743 0.9657981 0.513471 0.4928112 0.4730589 0.4995677 0.473059 0.25 0.08447527 0.5046312 0.08447527 0.5004323 0.1676539 0.5004323 0.513471 0.4928112 0.513471 0.25 0.93639 0.25 0.4730589 0.4995677 0.4688434 0.4995677 0.4688434 0.25 0.4679789 0.2500001 0.04505985 0.25 0.04505991 0.007188796 0.04505991 0.007188796 0.04505985 0.25 0.00464785 0.25 4.32252e-4 0.75 0.08361077 0.75 0.08361077 0.9995677 0.00464785 0.25 4.32309e-4 0.25 4.32328e-4 4.32249e-4</float_array>
          <technique_common>
            <accessor source="#E_long_005-mesh-map-1-array" count="834" stride="2">
              <param name="S" type="float"/>
              <param name="T" type="float"/>
            </accessor>
          </technique_common>
        </source>
        <vertices id="E_long_005-mesh-vertices">
          <input semantic="POSITION" source="#E_long_005-mesh-positions"/>
        </vertices>
        <triangles material="Material_004-material" count="278">
          <input semantic="VERTEX" source="#E_long_005-mesh-vertices" offset="0"/>
          <input semantic="NORMAL" source="#E_long_005-mesh-normals" offset="1"/>
          <input semantic="TEXCOORD" source="#E_long_005-mesh-map-0" offset="2" set="0"/>
          <input semantic="TEXCOORD" source="#E_long_005-mesh-map-1" offset="2" set="1"/>
          <p>1 0 0 6 0 1 2 0 2 6 1 3 3 1 4 2 1 5 0 2 6 7 2 7 4 2 8 7 3 9 8 3 10 4 3 11 6 4 12 9 4 13 10 4 14 6 5 15 11 5 16 7 5 17 15 6 18 13 6 19 12 6 20 11 7 21 12 7 22 8 7 23 9 8 24 14 8 25 10 8 26 10 9 27 15 9 28 11 9 29 18 10 30 21 10 31 19 10 32 18 11 33 17 11 34 16 11 35 19 12 36 9 12 37 5 12 38 20 13 39 23 13 40 21 13 41 19 14 42 1 14 43 17 14 44 21 8 45 13 8 46 9 8 47 0 15 48 18 15 49 16 15 50 18 16 51 8 16 52 20 16 53 12 6 54 23 6 55 22 6 56 8 17 57 22 17 58 20 17 59 26 18 60 30 18 61 36 18 62 24 18 63 35 18 64 28 18 65 26 18 66 36 18 67 32 18 68 24 18 69 32 18 70 35 18 71 24 18 72 26 18 73 32 18 74 27 9 75 30 9 76 26 9 77 27 19 78 37 19 79 31 19 80 25 19 81 29 19 82 34 19 83 27 19 84 33 19 85 37 19 86 25 19 87 34 19 88 33 19 89 27 19 90 25 19 91 33 19 92 24 20 93 29 20 94 25 20 95 30 21 96 37 21 97 36 21 98 25 22 99 26 22 100 24 22 101 32 23 102 34 23 103 35 23 104 35 24 105 29 24 106 28 24 107 36 25 108 33 25 109 32 25 110 41 18 111 42 18 112 38 18 113 38 20 114 43 20 115 39 20 116 45 6 117 43 6 118 42 6 119 40 9 120 45 9 121 41 9 122 39 19 123 44 19 124 40 19 125 48 18 126 52 18 127 58 18 128 46 18 129 57 18 130 50 18 131 48 18 132 58 18 133 54 18 134 46 26 135 54 26 136 57 26 137 46 18 138 48 18 139 54 18 140 49 9 141 52 9 142 48 9 143 49 19 144 59 19 145 53 19 146 47 19 147 51 19 148 56 19 149 49 19 150 55 19 151 59 19 152 47 19 153 56 19 154 55 19 155 49 19 156 47 19 157 55 19 158 46 20 159 51 20 160 47 20 161 52 27 162 59 27 163 58 27 164 47 22 165 48 22 166 46 22 167 54 23 168 56 23 169 57 23 170 57 28 171 51 28 172 50 28 173 58 29 174 55 29 175 54 29 176 63 18 177 64 18 178 60 18 179 60 20 180 65 20 181 61 20 182 67 6 183 65 6 184 64 6 185 62 9 186 67 9 187 63 9 188 61 19 189 66 19 190 62 19 191 27 9 192 31 9 193 30 9 194 24 20 195 28 20 196 29 20 197 30 30 198 31 30 199 37 30 200 25 22 201 27 22 202 26 22 203 32 31 204 33 31 205 34 31 206 35 32 207 34 32 208 29 32 209 36 33 210 37 33 211 33 33 212 41 18 213 45 18 214 42 18 215 38 20 216 42 20 217 43 20 218 45 6 219 44 6 220 43 6 221 40 9 222 44 9 223 45 9 224 39 19 225 43 19 226 44 19 227 49 9 228 53 9 229 52 9 230 46 20 231 50 20 232 51 20 233 52 34 234 53 34 235 59 34 236 47 22 237 49 22 238 48 22 239 54 35 240 55 35 241 56 35 242 57 36 243 56 36 244 51 36 245 58 37 246 59 37 247 55 37 248 63 18 249 67 18 250 64 18 251 60 20 252 64 20 253 65 20 254 67 6 255 66 6 256 65 6 257 62 9 258 66 9 259 67 9 260 61 19 261 65 19 262 66 19 263 70 18 264 80 18 265 74 18 266 68 18 267 72 18 268 79 18 269 70 18 270 76 18 271 80 18 272 68 38 273 79 38 274 76 38 275 68 39 276 76 39 277 70 39 278 71 20 279 70 20 280 74 20 281 71 19 282 75 19 283 81 19 284 69 19 285 78 19 286 73 19 287 71 40 288 81 40 289 77 40 290 69 41 291 77 41 292 78 41 293 71 42 294 77 42 295 69 42 296 68 9 297 69 9 298 73 9 299 74 43 300 80 43 301 81 43 302 69 22 303 68 22 304 70 22 305 76 44 306 79 44 307 78 44 308 79 34 309 72 34 310 73 34 311 80 45 312 76 45 313 77 45 314 85 18 315 82 18 316 86 18 317 82 9 318 83 9 319 87 9 320 89 6 321 86 6 322 87 6 323 84 20 324 85 20 325 89 20 326 83 19 327 84 19 328 88 19 329 93 18 330 90 18 331 94 18 332 90 9 333 91 9 334 95 9 335 97 6 336 94 6 337 95 6 338 92 20 339 93 20 340 97 20 341 91 19 342 92 19 343 96 19 344 71 20 345 74 20 346 75 20 347 68 9 348 73 9 349 72 9 350 74 46 351 81 46 352 75 46 353 69 22 354 70 22 355 71 22 356 76 47 357 78 47 358 77 47 359 79 27 360 73 27 361 78 27 362 80 48 363 77 48 364 81 48 365 85 18 366 86 18 367 89 18 368 82 9 369 87 9 370 86 9 371 89 6 372 87 6 373 88 6 374 84 20 375 89 20 376 88 20 377 83 19 378 88 19 379 87 19 380 93 18 381 94 18 382 97 18 383 90 9 384 95 9 385 94 9 386 97 6 387 95 6 388 96 6 389 92 20 390 97 20 391 96 20 392 91 19 393 96 19 394 95 19 395 100 18 396 110 18 397 104 18 398 98 18 399 102 18 400 109 18 401 100 18 402 106 18 403 110 18 404 98 18 405 109 18 406 106 18 407 98 18 408 106 18 409 100 18 410 101 20 411 100 20 412 104 20 413 101 19 414 105 19 415 111 19 416 99 19 417 108 19 418 103 19 419 101 19 420 111 19 421 107 19 422 99 19 423 107 19 424 108 19 425 101 19 426 107 19 427 99 19 428 98 9 429 99 9 430 103 9 431 104 32 432 110 32 433 111 32 434 99 22 435 98 22 436 100 22 437 106 37 438 109 37 439 108 37 440 109 30 441 102 30 442 103 30 443 110 49 444 106 49 445 107 49 446 115 18 447 112 18 448 116 18 449 112 9 450 113 9 451 117 9 452 119 6 453 116 6 454 117 6 455 114 20 456 115 20 457 119 20 458 113 19 459 114 19 460 118 19 461 122 18 462 132 18 463 126 18 464 120 18 465 124 18 466 131 18 467 122 18 468 128 18 469 132 18 470 120 26 471 131 26 472 128 26 473 120 18 474 128 18 475 122 18 476 123 20 477 122 20 478 126 20 479 123 19 480 127 19 481 133 19 482 121 19 483 130 19 484 125 19 485 123 19 486 133 19 487 129 19 488 121 19 489 129 19 490 130 19 491 123 19 492 129 19 493 121 19 494 120 9 495 121 9 496 125 9 497 126 50 498 132 50 499 133 50 500 121 22 501 120 22 502 122 22 503 128 37 504 131 37 505 130 37 506 131 51 507 124 51 508 125 51 509 132 52 510 128 52 511 129 52 512 137 18 513 134 18 514 138 18 515 134 9 516 135 9 517 139 9 518 141 6 519 138 6 520 139 6 521 136 20 522 137 20 523 141 20 524 135 19 525 136 19 526 140 19 527 101 20 528 104 20 529 105 20 530 98 9 531 103 9 532 102 9 533 104 24 534 111 24 535 105 24 536 99 22 537 100 22 538 101 22 539 106 53 540 108 53 541 107 53 542 109 21 543 103 21 544 108 21 545 110 54 546 107 54 547 111 54 548 115 18 549 116 18 550 119 18 551 112 9 552 117 9 553 116 9 554 119 6 555 117 6 556 118 6 557 114 20 558 119 20 559 118 20 560 113 19 561 118 19 562 117 19 563 123 20 564 126 20 565 127 20 566 120 9 567 125 9 568 124 9 569 126 55 570 133 55 571 127 55 572 121 22 573 122 22 574 123 22 575 128 56 576 130 56 577 129 56 578 131 57 579 125 57 580 130 57 581 132 23 582 129 23 583 133 23 584 137 18 585 138 18 586 141 18 587 134 9 588 139 9 589 138 9 590 141 6 591 139 6 592 140 6 593 136 20 594 141 20 595 140 20 596 135 19 597 140 19 598 139 19 599 144 18 600 148 18 601 154 18 602 142 18 603 153 18 604 146 18 605 144 18 606 154 18 607 150 18 608 142 38 609 150 38 610 153 38 611 142 39 612 144 39 613 150 39 614 145 9 615 148 9 616 144 9 617 145 19 618 155 19 619 149 19 620 143 19 621 147 19 622 152 19 623 145 40 624 151 40 625 155 40 626 143 41 627 152 41 628 151 41 629 145 42 630 143 42 631 151 42 632 142 20 633 147 20 634 143 20 635 148 58 636 155 58 637 154 58 638 143 22 639 144 22 640 142 22 641 150 59 642 152 59 643 153 59 644 153 55 645 147 55 646 146 55 647 154 60 648 151 60 649 150 60 650 159 18 651 160 18 652 156 18 653 156 20 654 161 20 655 157 20 656 163 6 657 161 6 658 160 6 659 158 9 660 163 9 661 159 9 662 157 19 663 162 19 664 158 19 665 166 18 666 170 18 667 176 18 668 164 18 669 175 18 670 168 18 671 166 18 672 176 18 673 172 18 674 164 18 675 172 18 676 175 18 677 164 61 678 166 61 679 172 61 680 167 9 681 170 9 682 166 9 683 167 19 684 177 19 685 171 19 686 165 19 687 169 19 688 174 19 689 167 62 690 173 62 691 177 62 692 165 63 693 174 63 694 173 63 695 167 64 696 165 64 697 173 64 698 164 20 699 169 20 700 165 20 701 170 65 702 177 65 703 176 65 704 165 22 705 166 22 706 164 22 707 172 66 708 174 66 709 175 66 710 175 67 711 169 67 712 168 67 713 176 68 714 173 68 715 172 68 716 145 9 717 149 9 718 148 9 719 142 20 720 146 20 721 147 20 722 148 69 723 149 69 724 155 69 725 143 22 726 145 22 727 144 22 728 150 70 729 151 70 730 152 70 731 153 50 732 152 50 733 147 50 734 154 71 735 155 71 736 151 71 737 159 18 738 163 18 739 160 18 740 156 20 741 160 20 742 161 20 743 163 6 744 162 6 745 161 6 746 158 9 747 162 9 748 163 9 749 157 19 750 161 19 751 162 19 752 167 9 753 171 9 754 170 9 755 164 20 756 168 20 757 169 20 758 170 72 759 171 72 760 177 72 761 165 22 762 167 22 763 166 22 764 172 73 765 173 73 766 174 73 767 175 74 768 174 74 769 169 74 770 176 75 771 177 75 772 173 75 773 1 76 774 5 76 775 6 76 776 6 1 777 7 1 778 3 1 779 0 77 780 3 77 781 7 77 782 7 78 783 11 78 784 8 78 785 6 79 786 5 79 787 9 79 788 6 80 789 10 80 790 11 80 791 15 81 792 14 81 793 13 81 794 11 82 795 15 82 796 12 82 797 9 83 798 13 83 799 14 83 800 10 9 801 14 9 802 15 9 803 18 84 804 20 84 805 21 84 806 18 85 807 19 85 808 17 85 809 19 86 810 21 86 811 9 86 812 20 87 813 22 87 814 23 87 815 19 88 816 5 88 817 1 88 818 21 89 819 23 89 820 13 89 821 0 90 822 4 90 823 18 90 824 18 91 825 4 91 826 8 91 827 12 92 828 13 92 829 23 92 830 8 17 831 12 17 832 22 17 833</p>
        </triangles>
      </mesh>
    </geometry>
  </library_geometries>
  <library_visual_scenes>
    <visual_scene id="Scene" name="Scene">
      <node id="E_long_001_001" name="E_long_001.001" type="NODE">
        <matrix sid="transform">3.355805 0 0 0 0 1.579662 0 0 0 0 1.579662 0 0 0 0 1</matrix>
        <instance_geometry url="#E_long_005-mesh" name="E_long_001.001">
          <bind_material>
            <technique_common>
              <instance_material symbol="Material_004-material" target="#Material_004-material">
                <bind_vertex_input semantic="E_long_005-mesh-map-0" input_semantic="TEXCOORD" input_set="0"/>
                <bind_vertex_input semantic="E_long_005-mesh-map-1" input_semantic="TEXCOORD" input_set="1"/>
              </instance_material>
            </technique_common>
          </bind_material>
        </instance_geometry>
      </node>
    </visual_scene>
  </library_visual_scenes>
  <scene>
    <instance_visual_scene url="#Scene"/>
  </scene>
</COLLADA>