<?xml version="1.0" encoding="utf-8"?>
<COLLADA xmlns="http://www.collada.org/2005/11/COLLADASchema" version="1.4.1" xmlns:xsi="http://www.w3.org/2001/XMLSchema-instance">
  <asset>
    <contributor>
      <author>Blender User</author>
      <authoring_tool>Blender 4.3.1 commit date:2024-12-10, commit time:07:46, hash:33d812126174</authoring_tool>
    </contributor>
    <created>2026-04-09T15:08:48</created>
    <modified>2026-04-09T15:08:48</modified>
    <unit name="inch" meter="0.0254"/>
    <up_axis>Z_UP</up_axis>
  </asset>
  <library_effects>
    <effect id="Material_006-effect">
      <profile_COMMON>
        <newparam sid="mino_struct_png-surface">
          <surface type="2D">
            <init_from>mino_struct_png</init_from>
          </surface>
        </newparam>
        <newparam sid="mino_struct_png-sampler">
          <sampler2D>
            <source>mino_struct_png-surface</source>
          </sampler2D>
        </newparam>
        <technique sid="common">
          <lambert>
            <emission>
              <color sid="emission">0 0 0 1</color>
            </emission>
            <diffuse>
              <texture texture="mino_struct_png-sampler" texcoord="E_tower-mesh-map-1"/>
            </diffuse>
            <index_of_refraction>
              <float sid="ior">1.5</float>
            </index_of_refraction>
          </lambert>
        </technique>
      </profile_COMMON>
    </effect>
  </library_effects>
  <library_images>
    <image id="mino_struct_png" name="mino_struct_png">
      <init_from>/home/welton/Downloads/mino_struct.png</init_from>
    </image>
  </library_images>
  <library_materials>
    <material id="Material_006-material" name="Material.006">
      <instance_effect url="#Material_006-effect"/>
    </material>
  </library_materials>
  <library_geometries>
    <geometry id="E_tower-mesh" name="E_tower">
      <mesh>
        <source id="E_tower-mesh-positions">
          <float_array id="E_tower-mesh-positions-array" count="576">1.357556 1.357556 -1.288064 1.357556 -1.357556 -1.288064 -1.357556 -1.357556 -1.288064 -1.357556 1.357556 -1.288064 1.258092 1.258091 5.825207 1.258091 -1.258092 5.825207 -1.258092 -1.258091 5.825207 -1.258091 1.258091 5.825207 1.459722 1.45972 6.738494 1.45972 -1.459722 6.738494 -1.459721 -1.45972 6.738494 -1.45972 1.459721 6.738494 1.459722 1.45972 6.852866 1.45972 -1.459722 6.852866 -1.459721 -1.45972 6.852866 -1.45972 1.459721 6.852866 1.106322 -1.218523 6.680602 1.106322 -1.335169 6.680602 0.1607227 -1.218523 6.680602 0.1607227 -1.335169 6.680602 1.106322 -1.218523 7.601874 1.106322 -1.335169 7.601874 0.1607227 -1.218523 7.601874 0.1607227 -1.335169 7.601874 0.6335223 -1.218523 6.905367 0.6335223 -1.335169 6.905367 0.8699213 -1.335169 7.11582 0.8699227 -1.218523 7.11582 0.3971232 -1.218523 7.11582 0.397122 -1.335169 7.11582 1.154468 -1.186864 6.602098 1.154468 -1.378672 6.602098 0.06388169 -1.378672 6.602098 0.06388169 -1.186864 6.602098 1.154468 -1.186864 6.848958 1.154468 -1.378672 6.848958 0.06388169 -1.378672 6.848958 0.06388169 -1.186864 6.848958 -0.1538614 -1.218523 6.680602 -0.1538614 -1.335169 6.680602 -1.099459 -1.218523 6.680602 -1.09946 -1.335169 6.680602 -0.1538614 -1.218523 7.601874 -0.1538614 -1.335169 7.601874 -1.099459 -1.218523 7.601874 -1.09946 -1.335169 7.601874 -0.6266607 -1.218523 6.905367 -0.6266607 -1.335169 6.905367 -0.3902616 -1.335169 7.11582 -0.3902605 -1.218523 7.11582 -0.8630601 -1.218523 7.11582 -0.8630601 -1.335169 7.11582 -0.07589 -1.186864 6.602098 -0.07589 -1.378672 6.602098 -1.166477 -1.378672 6.602098 -1.166477 -1.186864 6.602098 -0.07589 -1.186864 6.848958 -0.07589 -1.378672 6.848958 -1.166477 -1.378672 6.848958 -1.166477 -1.186864 6.848958 1.106322 1.218523 6.680602 1.106322 1.335169 6.680602 0.1607227 1.218523 6.680602 0.1607227 1.335169 6.680602 1.106322 1.218523 7.601874 1.106322 1.335169 7.601874 0.1607227 1.218523 7.601874 0.1607227 1.335169 7.601874 0.6335223 1.218523 6.905367 0.6335223 1.335169 6.905367 0.8699213 1.335169 7.11582 0.8699227 1.218523 7.11582 0.3971232 1.218523 7.11582 0.397122 1.335169 7.11582 1.154468 1.186864 6.602098 1.154468 1.378672 6.602098 0.06388169 1.378672 6.602098 0.06388169 1.186864 6.602098 1.154468 1.186864 6.848958 1.154468 1.378672 6.848958 0.06388169 1.378672 6.848958 0.06388169 1.186864 6.848958 -0.1538614 1.218523 6.680602 -0.1538614 1.335169 6.680602 -1.099459 1.218523 6.680602 -1.09946 1.335169 6.680602 -0.1538614 1.218523 7.601874 -0.1538614 1.335169 7.601874 -1.099459 1.218523 7.601874 -1.09946 1.335169 7.601874 -0.6266607 1.218523 6.905367 -0.6266607 1.335169 6.905367 -0.3902616 1.335169 7.11582 -0.3902605 1.218523 7.11582 -0.8630601 1.218523 7.11582 -0.8630601 1.335169 7.11582 -0.07589 1.186864 6.602098 -0.07589 1.378672 6.602098 -1.166477 1.378672 6.602098 -1.166477 1.186864 6.602098 -0.07589 1.186864 6.848958 -0.07589 1.378672 6.848958 -1.166477 1.378672 6.848958 -1.166477 1.186864 6.848958 1.218523 1.106322 6.680602 1.335169 1.106322 6.680602 1.218523 0.1607227 6.680602 1.335169 0.1607227 6.680602 1.218523 1.106322 7.601874 1.335169 1.106322 7.601874 1.218523 0.1607227 7.601874 1.335169 0.1607227 7.601874 1.218523 0.6335223 6.905367 1.335169 0.6335223 6.905367 1.335169 0.8699215 7.11582 1.218523 0.8699228 7.11582 1.218523 0.3971233 7.11582 1.335169 0.3971221 7.11582 1.186864 1.154469 6.602098 1.378672 1.154469 6.602098 1.378672 0.06388175 6.602098 1.186864 0.06388175 6.602098 1.186864 1.154469 6.848958 1.378672 1.154469 6.848958 1.378672 0.06388175 6.848958 1.186864 0.06388175 6.848958 1.218523 -0.1538614 6.680602 1.335169 -0.1538614 6.680602 1.218523 -1.099459 6.680602 1.335169 -1.09946 6.680602 1.218523 -0.1538614 7.601874 1.335169 -0.1538614 7.601874 1.218523 -1.099459 7.601874 1.335169 -1.09946 7.601874 1.218523 -0.6266607 6.905367 1.335169 -0.6266607 6.905367 1.335169 -0.3902615 7.11582 1.218523 -0.3902604 7.11582 1.218523 -0.8630599 7.11582 1.335169 -0.8630599 7.11582 1.186864 -0.07588994 6.602098 1.378672 -0.07588994 6.602098 1.378672 -1.166477 6.602098 1.186865 -1.166477 6.602098 1.186864 -0.07588994 6.848958 1.378672 -0.07588994 6.848958 1.378672 -1.166477 6.848958 1.186865 -1.166477 6.848958 -1.218523 1.106322 6.680602 -1.335169 1.106322 6.680602 -1.218523 0.1607227 6.680602 -1.335169 0.1607227 6.680602 -1.218523 1.106322 7.601874 -1.335169 1.106322 7.601874 -1.218523 0.1607227 7.601874 -1.335169 0.1607227 7.601874 -1.218523 0.6335222 6.905367 -1.335169 0.6335222 6.905367 -1.335169 0.8699213 7.11582 -1.218523 0.8699226 7.11582 -1.218523 0.3971232 7.11582 -1.335169 0.397122 7.11582 -1.186865 1.154468 6.602098 -1.378672 1.154468 6.602098 -1.378672 0.06388163 6.602098 -1.186864 0.06388163 6.602098 -1.186865 1.154468 6.848958 -1.378672 1.154468 6.848958 -1.378672 0.06388163 6.848958 -1.186864 0.06388163 6.848958 -1.218523 -0.1538614 6.680602 -1.335169 -0.1538614 6.680602 -1.218523 -1.099459 6.680602 -1.335169 -1.09946 6.680602 -1.218523 -0.1538614 7.601874 -1.335169 -0.1538614 7.601874 -1.218523 -1.099459 7.601874 -1.335169 -1.09946 7.601874 -1.218523 -0.6266607 6.905367 -1.335169 -0.6266607 6.905367 -1.335169 -0.3902617 7.11582 -1.218523 -0.3902605 7.11582 -1.218523 -0.8630601 7.11582 -1.335169 -0.8630601 7.11582 -1.186864 -0.07589 6.602098 -1.378672 -0.07589006 6.602098 -1.378672 -1.166477 6.602098 -1.186864 -1.166477 6.602098 -1.186864 -0.07589 6.848958 -1.378672 -0.07589006 6.848958 -1.378672 -1.166477 6.848958 -1.186864 -1.166477 6.848958</float_array>
          <technique_common>
            <accessor source="#E_tower-mesh-positions-array" count="192" stride="3">
              <param name="X" type="float"/>
              <param name="Y" type="float"/>
              <param name="Z" type="float"/>
            </accessor>
          </technique_common>
        </source>
        <source id="E_tower-mesh-normals">
          <float_array id="E_tower-mesh-normals-array" count="312">0.9764859 -6.11219e-7 -0.2155816 0.9999023 0 0.01398146 0 -0.9999023 0.01398146 -0.9999023 0 0.01398164 0 0.9999023 0.01398164 1 -8.03287e-7 0 3.41231e-7 0.9764859 -0.2155817 -5.06555e-7 -0.9764857 -0.215582 -0.9764859 3.49268e-7 -0.2155815 4.47569e-7 0 1 3.26663e-7 1 0 -6.94157e-7 -1 0 -1 3.5702e-7 0 0 1 0 0 1 3.90501e-7 -1 0 0 0 -1 0 0 -1 -3.905e-7 0 -1 -3.90501e-7 1 0 0 0.8992777 -9.9268e-6 0.4373781 0 0 -1 -0.6649283 8.07234e-6 0.7469073 -0.8992786 0 0.4373764 0.6649286 0 0.7469069 0 0 1 -1 8.87447e-6 0 0.8992786 0 0.4373763 -0.6649289 5.24703e-6 0.7469067 -0.8992789 0 0.4373756 0.6649278 0 0.7469077 0.8992782 0 0.4373771 -0.6649278 0 0.7469077 -0.8992772 1.03995e-5 0.4373794 0.6649273 -7.26509e-6 0.7469081 0.8992779 -6.61786e-6 0.4373779 -0.8992775 8.50869e-6 0.4373787 0.6649297 0 0.7469061 0 -1 3.90501e-7 0 1 -3.905e-7 0 1 -3.90501e-7 0.8992777 9.9268e-6 0.4373781 -0.6649283 -8.07234e-6 0.7469073 -1 -8.87447e-6 0 -0.6649289 -5.24703e-6 0.7469067 -0.8992772 -1.03995e-5 0.4373794 0.6649273 7.26509e-6 0.7469081 0.8992779 6.61786e-6 0.4373779 -0.8992775 -8.50869e-6 0.4373787 1.07466e-5 0.8992773 0.437379 -8.22744e-6 -0.6649267 0.7469086 0 -0.8992785 0.4373767 0 0.6649292 0.7469065 -8.17582e-6 -1 0 0 0.8992785 0.4373767 -5.30408e-6 -0.6649271 0.7469084 0 -0.8992785 0.4373767 0 0.6649289 0.7469066 -1 -8.85586e-7 0 0 0.8992785 0.4373766 0 -0.6649299 0.7469059 -1.13449e-5 -0.8992776 0.4373782 6.45787e-6 0.6649283 0.7469073 -8.17578e-6 -1 0 7.56327e-6 0.899278 0.4373778 -3.12303e-6 0 -1 -7.56327e-6 -0.899278 0.4373775 0 0.6649297 0.7469061 -1 -8.8558e-7 0 -7.80093e-6 0.8992773 0.4373789 8.22744e-6 -0.6649267 0.7469086 0 -0.8992782 0.4373771 1 8.85586e-7 0 8.17582e-6 -1 0 0 0.8992785 0.4373765 7.47953e-6 -0.6649274 0.7469081 0 -0.8992784 0.4373769 0 0.6649286 0.7469071 -3.10751e-7 1 0 -5.21499e-6 0 1 0 0.8992786 0.4373764 0 -0.6649301 0.7469057 1.13449e-5 -0.8992776 0.4373785 -6.45787e-6 0.6649283 0.7469072 1 8.8558e-7 0 8.17578e-6 -1 0 -7.56327e-6 0.8992782 0.4373774 3.12303e-6 0 -1 0 -0.6649302 0.7469056 7.56326e-6 -0.8992779 0.4373779 0 0.6649295 0.7469062 -3.10752e-7 1 0 0.9764857 -4.05243e-7 -0.2155822 0.9999023 -4.26222e-7 0.01398164 -4.24557e-7 -0.9999023 0.01398164 -0.9999023 4.26222e-7 0.01398146 0 0.9999023 0.01398164 1 -6.24786e-7 0 0 0.9764856 -0.2155828 -6.59627e-7 -0.9764857 -0.2155824 -0.9764859 3.03933e-7 -0.2155814 -3.21726e-7 0 1 -6.94162e-7 -1 0 -1 3.57016e-7 0</float_array>
          <technique_common>
            <accessor source="#E_tower-mesh-normals-array" count="104" stride="3">
              <param name="X" type="float"/>
              <param name="Y" type="float"/>
              <param name="Z" type="float"/>
            </accessor>
          </technique_common>
        </source>
        <source id="E_tower-mesh-map-0">
          <float_array id="E_tower-mesh-map-0-array" count="1788">0.128775 0.3045852 0.171339 0.2166977 0.171339 0.3045852 0.196753 0.9344393 0.1054142 0.6620252 0.196753 0.6620252 0.1054142 0.9344393 0.01567775 0.6620252 0.1054142 0.6620252 0.3762258 0.6620252 0.2864894 0.9344393 0.2864894 0.6620252 0.196753 0.6620252 0.2864894 0.9344393 0.196753 0.9344393 0.171339 0.2166977 0.1767331 0.3045852 0.171339 0.3045852 0.128775 0.2166977 0.171339 0.1252229 0.171339 0.2166977 0.128775 0.3045852 0.171339 0.3888854 0.128775 0.3888854 0.128775 0.1252229 0.171339 0.03912907 0.171339 0.1252229 0.1782629 0.3471068 0.2760115 0.2509608 0.2760115 0.3471068 0.171339 0.1252229 0.1767331 0.2166977 0.171339 0.2166977 0.171339 0.3045852 0.1767331 0.3888854 0.171339 0.3888854 0.171339 0.03912907 0.1767331 0.1252229 0.171339 0.1252229 0.9573771 0.8728813 0.8346146 0.8736419 0.8990868 0.8254581 0.9561927 0.6817523 0.898495 0.7298942 0.833431 0.6825137 0.9573771 0.8728813 0.8990868 0.8254581 0.9268345 0.7775023 0.9561927 0.6817523 0.9268345 0.7775023 0.898495 0.7298942 0.9561927 0.6817523 0.9573771 0.8728813 0.9268345 0.7775023 0.9453594 0.6681249 0.8031257 0.6401358 0.9453594 0.6401358 0.9497641 0.867393 0.891769 0.8196099 0.827 0.8673931 0.9497641 0.6762605 0.827 0.6762604 0.8917691 0.7240436 0.9497641 0.867393 0.919813 0.7718267 0.891769 0.8196099 0.9497641 0.6762605 0.8917691 0.7240436 0.919813 0.7718267 0.9497641 0.867393 0.9497641 0.6762605 0.919813 0.7718267 0.8533404 0.6453739 0.7693202 0.6628868 0.8533404 0.6628868 0.8620354 0.6416894 0.839685 0.6665713 0.839685 0.6416894 0.772634 0.7036692 0.8620354 0.6045915 0.772634 0.6045915 0.8173347 0.6416894 0.7949844 0.6665713 0.7949844 0.6416894 0.7949844 0.6416894 0.772634 0.6665713 0.772634 0.6416894 0.839685 0.6416894 0.8173347 0.6665713 0.8173347 0.6416894 0.1690081 0.4394807 0.3052753 0.4628268 0.3052754 0.4394807 0.3052754 0.4394807 0.1700041 0.4628268 0.1700043 0.4394807 0.2950446 0.4817591 0.1676843 0.4963313 0.1676843 0.4817591 0.3062715 0.4394807 0.1705428 0.4628269 0.1705428 0.4394807 0.1700043 0.4394807 0.3062714 0.4628268 0.3062715 0.4394807 0.9573771 0.8728813 0.8346146 0.8736419 0.8990868 0.8254581 0.9561927 0.6817523 0.898495 0.7298942 0.833431 0.6825137 0.9573771 0.8728813 0.8990868 0.8254581 0.9268345 0.7775023 0.9561927 0.6817523 0.9268345 0.7775023 0.898495 0.7298942 0.9561927 0.6817523 0.9573771 0.8728813 0.9268345 0.7775023 0.9453594 0.6681249 0.8031257 0.6401358 0.9453594 0.6401358 0.9497641 0.867393 0.891769 0.8196099 0.827 0.8673931 0.9497641 0.6762605 0.827 0.6762604 0.8917691 0.7240436 0.9497641 0.867393 0.919813 0.7718267 0.891769 0.8196099 0.9497641 0.6762605 0.8917691 0.7240436 0.919813 0.7718267 0.9497641 0.867393 0.9497641 0.6762605 0.919813 0.7718267 0.8533404 0.6453739 0.7693202 0.6628868 0.8533404 0.6628868 0.8620354 0.6416894 0.839685 0.6665713 0.839685 0.6416894 0.772634 0.7036692 0.8620354 0.6045915 0.772634 0.6045915 0.8173347 0.6416894 0.7949844 0.6665713 0.7949844 0.6416894 0.7949844 0.6416894 0.772634 0.6665713 0.772634 0.6416894 0.839685 0.6416894 0.8173347 0.6665713 0.8173347 0.6416894 0.1690081 0.4394807 0.3052753 0.4628268 0.3052754 0.4394807 0.3052754 0.4394807 0.1700041 0.4628268 0.1700043 0.4394807 0.2950446 0.4817591 0.1676843 0.4963313 0.1676843 0.4817591 0.3062715 0.4394807 0.1705428 0.4628269 0.1705428 0.4394807 0.1700043 0.4394807 0.3062714 0.4628268 0.3062715 0.4394807 0.9453594 0.6681249 0.8031257 0.6681249 0.8031257 0.6401358 0.8533404 0.6453739 0.7693202 0.6453739 0.7693202 0.6628868 0.8620354 0.6416894 0.8620354 0.6665713 0.839685 0.6665713 0.772634 0.7036692 0.8620354 0.7036692 0.8620354 0.6045915 0.8173347 0.6416894 0.8173347 0.6665713 0.7949844 0.6665713 0.7949844 0.6416894 0.7949844 0.6665713 0.772634 0.6665713 0.839685 0.6416894 0.839685 0.6665713 0.8173347 0.6665713 0.1690081 0.4394807 0.1690081 0.4628268 0.3052753 0.4628268 0.3052754 0.4394807 0.3052753 0.4628268 0.1700041 0.4628268 0.2950446 0.4817591 0.2950446 0.4963313 0.1676843 0.4963313 0.3062715 0.4394807 0.3062714 0.4628268 0.1705428 0.4628269 0.1700043 0.4394807 0.1700041 0.4628268 0.3062714 0.4628268 0.9453594 0.6681249 0.8031257 0.6681249 0.8031257 0.6401358 0.8533404 0.6453739 0.7693202 0.6453739 0.7693202 0.6628868 0.8620354 0.6416894 0.8620354 0.6665713 0.839685 0.6665713 0.772634 0.7036692 0.8620354 0.7036692 0.8620354 0.6045915 0.8173347 0.6416894 0.8173347 0.6665713 0.7949844 0.6665713 0.7949844 0.6416894 0.7949844 0.6665713 0.772634 0.6665713 0.839685 0.6416894 0.839685 0.6665713 0.8173347 0.6665713 0.1690081 0.4394807 0.1690081 0.4628268 0.3052753 0.4628268 0.3052754 0.4394807 0.3052753 0.4628268 0.1700041 0.4628268 0.2950446 0.4817591 0.2950446 0.4963313 0.1676843 0.4963313 0.3062715 0.4394807 0.3062714 0.4628268 0.1705428 0.4628269 0.1700043 0.4394807 0.1700041 0.4628268 0.3062714 0.4628268 0.9573771 0.8728813 0.8990868 0.8254581 0.8346146 0.8736419 0.9561927 0.6817523 0.833431 0.6825137 0.898495 0.7298942 0.9573771 0.8728813 0.9268345 0.7775023 0.8990868 0.8254581 0.9561927 0.6817523 0.898495 0.7298942 0.9268345 0.7775023 0.9561927 0.6817523 0.9268345 0.7775023 0.9573771 0.8728813 0.9453594 0.6681249 0.9453594 0.6401358 0.8031257 0.6401358 0.9497641 0.867393 0.827 0.8673931 0.891769 0.8196099 0.9497641 0.6762605 0.8917691 0.7240436 0.827 0.6762604 0.9497641 0.867393 0.891769 0.8196099 0.919813 0.7718267 0.9497641 0.6762605 0.919813 0.7718267 0.8917691 0.7240436 0.9497641 0.867393 0.919813 0.7718267 0.9497641 0.6762605 0.8533404 0.6453739 0.8533404 0.6628868 0.7693202 0.6628868 0.8620354 0.6416894 0.839685 0.6416894 0.839685 0.6665713 0.772634 0.7036692 0.772634 0.6045915 0.8620354 0.6045915 0.8173347 0.6416894 0.7949844 0.6416894 0.7949844 0.6665713 0.7949844 0.6416894 0.772634 0.6416894 0.772634 0.6665713 0.839685 0.6416894 0.8173347 0.6416894 0.8173347 0.6665713 0.1690081 0.4394807 0.3052754 0.4394807 0.3052753 0.4628268 0.3052754 0.4394807 0.1700043 0.4394807 0.1700041 0.4628268 0.2950446 0.4817591 0.1676843 0.4817591 0.1676843 0.4963313 0.3062715 0.4394807 0.1705428 0.4394807 0.1705428 0.4628269 0.1700043 0.4394807 0.3062715 0.4394807 0.3062714 0.4628268 0.9573771 0.8728813 0.8990868 0.8254581 0.8346146 0.8736419 0.9561927 0.6817523 0.833431 0.6825137 0.898495 0.7298942 0.9573771 0.8728813 0.9268345 0.7775023 0.8990868 0.8254581 0.9561927 0.6817523 0.898495 0.7298942 0.9268345 0.7775023 0.9561927 0.6817523 0.9268345 0.7775023 0.9573771 0.8728813 0.9453594 0.6681249 0.9453594 0.6401358 0.8031257 0.6401358 0.9497641 0.867393 0.827 0.8673931 0.891769 0.8196099 0.9497641 0.6762605 0.8917691 0.7240436 0.827 0.6762604 0.9497641 0.867393 0.891769 0.8196099 0.919813 0.7718267 0.9497641 0.6762605 0.919813 0.7718267 0.8917691 0.7240436 0.9497641 0.867393 0.919813 0.7718267 0.9497641 0.6762605 0.8533404 0.6453739 0.8533404 0.6628868 0.7693202 0.6628868 0.8620354 0.6416894 0.839685 0.6416894 0.839685 0.6665713 0.772634 0.7036692 0.772634 0.6045915 0.8620354 0.6045915 0.8173347 0.6416894 0.7949844 0.6416894 0.7949844 0.6665713 0.7949844 0.6416894 0.772634 0.6416894 0.772634 0.6665713 0.839685 0.6416894 0.8173347 0.6416894 0.8173347 0.6665713 0.1690081 0.4394807 0.3052754 0.4394807 0.3052753 0.4628268 0.3052754 0.4394807 0.1700043 0.4394807 0.1700041 0.4628268 0.2950446 0.4817591 0.1676843 0.4817591 0.1676843 0.4963313 0.3062715 0.4394807 0.1705428 0.4394807 0.1705428 0.4628269 0.1700043 0.4394807 0.3062715 0.4394807 0.3062714 0.4628268 0.9453594 0.6681249 0.8031257 0.6401358 0.8031257 0.6681249 0.8533404 0.6453739 0.7693202 0.6628868 0.7693202 0.6453739 0.8620354 0.6416894 0.839685 0.6665713 0.8620354 0.6665713 0.772634 0.7036692 0.8620354 0.6045915 0.8620354 0.7036692 0.8173347 0.6416894 0.7949844 0.6665713 0.8173347 0.6665713 0.7949844 0.6416894 0.772634 0.6665713 0.7949844 0.6665713 0.839685 0.6416894 0.8173347 0.6665713 0.839685 0.6665713 0.1690081 0.4394807 0.3052753 0.4628268 0.1690081 0.4628268 0.3052754 0.4394807 0.1700041 0.4628268 0.3052753 0.4628268 0.2950446 0.4817591 0.1676843 0.4963313 0.2950446 0.4963313 0.3062715 0.4394807 0.1705428 0.4628269 0.3062714 0.4628268 0.1700043 0.4394807 0.3062714 0.4628268 0.1700041 0.4628268 0.9453594 0.6681249 0.8031257 0.6401358 0.8031257 0.6681249 0.8533404 0.6453739 0.7693202 0.6628868 0.7693202 0.6453739 0.8620354 0.6416894 0.839685 0.6665713 0.8620354 0.6665713 0.772634 0.7036692 0.8620354 0.6045915 0.8620354 0.7036692 0.8173347 0.6416894 0.7949844 0.6665713 0.8173347 0.6665713 0.7949844 0.6416894 0.772634 0.6665713 0.7949844 0.6665713 0.839685 0.6416894 0.8173347 0.6665713 0.839685 0.6665713 0.1690081 0.4394807 0.3052753 0.4628268 0.1690081 0.4628268 0.3052754 0.4394807 0.1700041 0.4628268 0.3052753 0.4628268 0.2950446 0.4817591 0.1676843 0.4963313 0.2950446 0.4963313 0.3062715 0.4394807 0.1705428 0.4628269 0.3062714 0.4628268 0.1700043 0.4394807 0.3062714 0.4628268 0.1700041 0.4628268 0.9573771 0.8728813 0.8346146 0.8736419 0.8990868 0.8254581 0.9561927 0.6817523 0.898495 0.7298942 0.833431 0.6825137 0.9573771 0.8728813 0.8990868 0.8254581 0.9268345 0.7775023 0.9561927 0.6817523 0.9268345 0.7775023 0.898495 0.7298942 0.9561927 0.6817523 0.9573771 0.8728813 0.9268345 0.7775023 0.9453594 0.6681249 0.8031257 0.6401358 0.9453594 0.6401358 0.9497641 0.867393 0.891769 0.8196099 0.827 0.8673931 0.9497641 0.6762605 0.827 0.6762604 0.8917691 0.7240436 0.9497641 0.867393 0.919813 0.7718267 0.891769 0.8196099 0.9497641 0.6762605 0.8917691 0.7240436 0.919813 0.7718267 0.9497641 0.867393 0.9497641 0.6762605 0.919813 0.7718267 0.8533404 0.6453739 0.7693202 0.6628868 0.8533404 0.6628868 0.8620354 0.6416894 0.839685 0.6665713 0.839685 0.6416894 0.772634 0.7036692 0.8620354 0.6045915 0.772634 0.6045915 0.8173347 0.6416894 0.7949844 0.6665713 0.7949844 0.6416894 0.7949844 0.6416894 0.772634 0.6665713 0.772634 0.6416894 0.839685 0.6416894 0.8173347 0.6665713 0.8173347 0.6416894 0.1690081 0.4394807 0.3052753 0.4628268 0.3052754 0.4394807 0.3052754 0.4394807 0.1700041 0.4628268 0.1700043 0.4394807 0.2950446 0.4817591 0.1676843 0.4963313 0.1676843 0.4817591 0.3062715 0.4394807 0.1705428 0.4628269 0.1705428 0.4394807 0.1700043 0.4394807 0.3062714 0.4628268 0.3062715 0.4394807 0.9573771 0.8728813 0.8346146 0.8736419 0.8990868 0.8254581 0.9561927 0.6817523 0.898495 0.7298942 0.833431 0.6825137 0.9573771 0.8728813 0.8990868 0.8254581 0.9268345 0.7775023 0.9561927 0.6817523 0.9268345 0.7775023 0.898495 0.7298942 0.9561927 0.6817523 0.9573771 0.8728813 0.9268345 0.7775023 0.9453594 0.6681249 0.8031257 0.6401358 0.9453594 0.6401358 0.9497641 0.867393 0.891769 0.8196099 0.827 0.8673931 0.9497641 0.6762605 0.827 0.6762604 0.8917691 0.7240436 0.9497641 0.867393 0.919813 0.7718267 0.891769 0.8196099 0.9497641 0.6762605 0.8917691 0.7240436 0.919813 0.7718267 0.9497641 0.867393 0.9497641 0.6762605 0.919813 0.7718267 0.8533404 0.6453739 0.7693202 0.6628868 0.8533404 0.6628868 0.8620354 0.6416894 0.839685 0.6665713 0.839685 0.6416894 0.772634 0.7036692 0.8620354 0.6045915 0.772634 0.6045915 0.8173347 0.6416894 0.7949844 0.6665713 0.7949844 0.6416894 0.7949844 0.6416894 0.772634 0.6665713 0.772634 0.6416894 0.839685 0.6416894 0.8173347 0.6665713 0.8173347 0.6416894 0.1690081 0.4394807 0.3052753 0.4628268 0.3052754 0.4394807 0.3052754 0.4394807 0.1700041 0.4628268 0.1700043 0.4394807 0.2950446 0.4817591 0.1676843 0.4963313 0.1676843 0.4817591 0.3062715 0.4394807 0.1705428 0.4628269 0.1705428 0.4394807 0.1700043 0.4394807 0.3062714 0.4628268 0.3062715 0.4394807 0.9453594 0.6681249 0.8031257 0.6681249 0.8031257 0.6401358 0.8533404 0.6453739 0.7693202 0.6453739 0.7693202 0.6628868 0.8620354 0.6416894 0.8620354 0.6665713 0.839685 0.6665713 0.772634 0.7036692 0.8620354 0.7036692 0.8620354 0.6045915 0.8173347 0.6416894 0.8173347 0.6665713 0.7949844 0.6665713 0.7949844 0.6416894 0.7949844 0.6665713 0.772634 0.6665713 0.839685 0.6416894 0.839685 0.6665713 0.8173347 0.6665713 0.1690081 0.4394807 0.1690081 0.4628268 0.3052753 0.4628268 0.3052754 0.4394807 0.3052753 0.4628268 0.1700041 0.4628268 0.2950446 0.4817591 0.2950446 0.4963313 0.1676843 0.4963313 0.3062715 0.4394807 0.3062714 0.4628268 0.1705428 0.4628269 0.1700043 0.4394807 0.1700041 0.4628268 0.3062714 0.4628268 0.9453594 0.6681249 0.8031257 0.6681249 0.8031257 0.6401358 0.8533404 0.6453739 0.7693202 0.6453739 0.7693202 0.6628868 0.8620354 0.6416894 0.8620354 0.6665713 0.839685 0.6665713 0.772634 0.7036692 0.8620354 0.7036692 0.8620354 0.6045915 0.8173347 0.6416894 0.8173347 0.6665713 0.7949844 0.6665713 0.7949844 0.6416894 0.7949844 0.6665713 0.772634 0.6665713 0.839685 0.6416894 0.839685 0.6665713 0.8173347 0.6665713 0.1690081 0.4394807 0.1690081 0.4628268 0.3052753 0.4628268 0.3052754 0.4394807 0.3052753 0.4628268 0.1700041 0.4628268 0.2950446 0.4817591 0.2950446 0.4963313 0.1676843 0.4963313 0.3062715 0.4394807 0.3062714 0.4628268 0.1705428 0.4628269 0.1700043 0.4394807 0.1700041 0.4628268 0.3062714 0.4628268 0.9573771 0.8728813 0.8990868 0.8254581 0.8346146 0.8736419 0.9561927 0.6817523 0.833431 0.6825137 0.898495 0.7298942 0.9573771 0.8728813 0.9268345 0.7775023 0.8990868 0.8254581 0.9561927 0.6817523 0.898495 0.7298942 0.9268345 0.7775023 0.9561927 0.6817523 0.9268345 0.7775023 0.9573771 0.8728813 0.9453594 0.6681249 0.9453594 0.6401358 0.8031257 0.6401358 0.9497641 0.867393 0.827 0.8673931 0.891769 0.8196099 0.9497641 0.6762605 0.8917691 0.7240436 0.827 0.6762604 0.9497641 0.867393 0.891769 0.8196099 0.919813 0.7718267 0.9497641 0.6762605 0.919813 0.7718267 0.8917691 0.7240436 0.9497641 0.867393 0.919813 0.7718267 0.9497641 0.6762605 0.8533404 0.6453739 0.8533404 0.6628868 0.7693202 0.6628868 0.8620354 0.6416894 0.839685 0.6416894 0.839685 0.6665713 0.772634 0.7036692 0.772634 0.6045915 0.8620354 0.6045915 0.8173347 0.6416894 0.7949844 0.6416894 0.7949844 0.6665713 0.7949844 0.6416894 0.772634 0.6416894 0.772634 0.6665713 0.839685 0.6416894 0.8173347 0.6416894 0.8173347 0.6665713 0.1690081 0.4394807 0.3052754 0.4394807 0.3052753 0.4628268 0.3052754 0.4394807 0.1700043 0.4394807 0.1700041 0.4628268 0.2950446 0.4817591 0.1676843 0.4817591 0.1676843 0.4963313 0.3062715 0.4394807 0.1705428 0.4394807 0.1705428 0.4628269 0.1700043 0.4394807 0.3062715 0.4394807 0.3062714 0.4628268 0.9573771 0.8728813 0.8990868 0.8254581 0.8346146 0.8736419 0.9561927 0.6817523 0.833431 0.6825137 0.898495 0.7298942 0.9573771 0.8728813 0.9268345 0.7775023 0.8990868 0.8254581 0.9561927 0.6817523 0.898495 0.7298942 0.9268345 0.7775023 0.9561927 0.6817523 0.9268345 0.7775023 0.9573771 0.8728813 0.9453594 0.6681249 0.9453594 0.6401358 0.8031257 0.6401358 0.9497641 0.867393 0.827 0.8673931 0.891769 0.8196099 0.9497641 0.6762605 0.8917691 0.7240436 0.827 0.6762604 0.9497641 0.867393 0.891769 0.8196099 0.919813 0.7718267 0.9497641 0.6762605 0.919813 0.7718267 0.8917691 0.7240436 0.9497641 0.867393 0.919813 0.7718267 0.9497641 0.6762605 0.8533404 0.6453739 0.8533404 0.6628868 0.7693202 0.6628868 0.8620354 0.6416894 0.839685 0.6416894 0.839685 0.6665713 0.772634 0.7036692 0.772634 0.6045915 0.8620354 0.6045915 0.8173347 0.6416894 0.7949844 0.6416894 0.7949844 0.6665713 0.7949844 0.6416894 0.772634 0.6416894 0.772634 0.6665713 0.839685 0.6416894 0.8173347 0.6416894 0.8173347 0.6665713 0.1690081 0.4394807 0.3052754 0.4394807 0.3052753 0.4628268 0.3052754 0.4394807 0.1700043 0.4394807 0.1700041 0.4628268 0.2950446 0.4817591 0.1676843 0.4817591 0.1676843 0.4963313 0.3062715 0.4394807 0.1705428 0.4394807 0.1705428 0.4628269 0.1700043 0.4394807 0.3062715 0.4394807 0.3062714 0.4628268 0.9453594 0.6681249 0.8031257 0.6401358 0.8031257 0.6681249 0.8533404 0.6453739 0.7693202 0.6628868 0.7693202 0.6453739 0.8620354 0.6416894 0.839685 0.6665713 0.8620354 0.6665713 0.772634 0.7036692 0.8620354 0.6045915 0.8620354 0.7036692 0.8173347 0.6416894 0.7949844 0.6665713 0.8173347 0.6665713 0.7949844 0.6416894 0.772634 0.6665713 0.7949844 0.6665713 0.839685 0.6416894 0.8173347 0.6665713 0.839685 0.6665713 0.1690081 0.4394807 0.3052753 0.4628268 0.1690081 0.4628268 0.3052754 0.4394807 0.1700041 0.4628268 0.3052753 0.4628268 0.2950446 0.4817591 0.1676843 0.4963313 0.2950446 0.4963313 0.3062715 0.4394807 0.1705428 0.4628269 0.3062714 0.4628268 0.1700043 0.4394807 0.3062714 0.4628268 0.1700041 0.4628268 0.9453594 0.6681249 0.8031257 0.6401358 0.8031257 0.6681249 0.8533404 0.6453739 0.7693202 0.6628868 0.7693202 0.6453739 0.8620354 0.6416894 0.839685 0.6665713 0.8620354 0.6665713 0.772634 0.7036692 0.8620354 0.6045915 0.8620354 0.7036692 0.8173347 0.6416894 0.7949844 0.6665713 0.8173347 0.6665713 0.7949844 0.6416894 0.772634 0.6665713 0.7949844 0.6665713 0.839685 0.6416894 0.8173347 0.6665713 0.839685 0.6665713 0.1690081 0.4394807 0.3052753 0.4628268 0.1690081 0.4628268 0.3052754 0.4394807 0.1700041 0.4628268 0.3052753 0.4628268 0.2950446 0.4817591 0.1676843 0.4963313 0.2950446 0.4963313 0.3062715 0.4394807 0.1705428 0.4628269 0.3062714 0.4628268 0.1700043 0.4394807 0.3062714 0.4628268 0.1700041 0.4628268 0.128775 0.3045852 0.128775 0.2166977 0.171339 0.2166977 0.196753 0.9344393 0.1054142 0.9344393 0.1054142 0.6620252 0.1054142 0.9344393 0.01567775 0.9344393 0.01567775 0.6620252 0.3762258 0.6620252 0.3762258 0.9344393 0.2864894 0.9344393 0.196753 0.6620252 0.2864894 0.6620252 0.2864894 0.9344393 0.171339 0.2166977 0.1767331 0.2166977 0.1767331 0.3045852 0.128775 0.2166977 0.128775 0.1252229 0.171339 0.1252229 0.128775 0.3045852 0.171339 0.3045852 0.171339 0.3888854 0.128775 0.1252229 0.128775 0.03912907 0.171339 0.03912907 0.1782629 0.3471068 0.1782629 0.2509608 0.2760115 0.2509608 0.171339 0.1252229 0.1767331 0.1252229 0.1767331 0.2166977 0.171339 0.3045852 0.1767331 0.3045852 0.1767331 0.3888854 0.171339 0.03912907 0.1767331 0.03912907 0.1767331 0.1252229</float_array>
          <technique_common>
            <accessor source="#E_tower-mesh-map-0-array" count="894" stride="2">
              <param name="S" type="float"/>
              <param name="T" type="float"/>
            </accessor>
          </technique_common>
        </source>
        <source id="E_tower-mesh-map-1">
          <float_array id="E_tower-mesh-map-1-array" count="1788">0.2322461 0.08711081 5.65932e-4 0.01030135 0.2494341 0.01030135 0.01775377 0.08711081 0.2407249 0.6930533 0.009274899 0.6930533 0.517754 0.08711081 0.740725 0.6930533 0.509275 0.6930533 0.7592749 0.6930533 0.9822461 0.08711081 0.990725 0.6930533 0.490725 0.6930533 0.2677538 0.08711081 0.4822462 0.08711081 5.65932e-4 0.01030135 0.2494341 5.65943e-4 0.2494341 0.01030135 0.4822462 0.08711081 0.250566 0.01030135 0.4994342 0.01030135 0.517754 0.08711081 0.7494342 0.01030135 0.7322463 0.08711087 0.9822461 0.08711081 0.750566 0.01030135 0.9994341 0.01030135 5.65928e-4 0.9430533 0.2494341 0.6941853 0.2494341 0.9430534 0.250566 0.01030135 0.4994342 5.65943e-4 0.4994342 0.01030135 0.5005661 0.01030135 0.7494342 5.65951e-4 0.7494342 0.01030135 0.750566 0.01030135 0.9994341 5.65943e-4 0.9994341 0.01030135 0.328985 0.774793 0.250566 0.774793 0.2919391 0.754641 0.328985 0.6941853 0.2919391 0.7143371 0.250566 0.6941852 0.328985 0.774793 0.2919391 0.754641 0.3098529 0.7344891 0.328985 0.6941853 0.3098529 0.7344891 0.2919391 0.7143371 0.328985 0.6941853 0.328985 0.774793 0.3098529 0.7344891 0.7610969 0.9360833 0.7710404 0.8576644 0.7710404 0.9360833 0.3289849 0.7759249 0.291939 0.7960767 0.250566 0.7759249 0.3289849 0.8565326 0.250566 0.8565326 0.291939 0.8363806 0.3289849 0.7759249 0.3098528 0.8162287 0.291939 0.7960767 0.3289849 0.8565326 0.291939 0.8363806 0.3098528 0.8162287 0.3289849 0.7759249 0.3289849 0.8565326 0.3098528 0.8162287 0.7721723 0.9360832 0.7821158 0.8576642 0.7821158 0.9360832 0.8869724 0.8823834 0.8969159 0.9248465 0.8869724 0.9248465 0.6363618 0.9382721 0.6463053 0.8576644 0.6463053 0.9382721 0.9697632 0.7143372 0.9598197 0.6941853 0.9697632 0.6941852 0.9079913 0.9248466 0.8980478 0.8823835 0.9079913 0.8823835 0.9697632 0.734489 0.9598197 0.7143372 0.9697632 0.7143372 0.4749698 0.9506316 0.453957 0.8576645 0.4749698 0.8576645 0.7389461 0.9582279 0.7552969 0.9372151 0.7552969 0.9582279 0.5891894 0.9506316 0.5728387 0.8576644 0.5891894 0.8576644 0.7564288 0.9582281 0.7727795 0.9372152 0.7727795 0.9582281 0.4971145 0.9506316 0.4761017 0.8576644 0.4971145 0.8576644 0.7267389 0.8565325 0.64832 0.8565325 0.6896931 0.8363806 0.726739 0.7759249 0.6896931 0.7960768 0.64832 0.7759249 0.7267389 0.8565325 0.6896931 0.8363806 0.7076069 0.8162288 0.726739 0.7759249 0.7076069 0.8162288 0.6896931 0.7960768 0.726739 0.7759249 0.7267389 0.8565325 0.7076069 0.8162288 0.7147722 0.9360834 0.7247157 0.8576645 0.7247157 0.9360834 0.4085357 0.7759249 0.3714898 0.7960768 0.3301168 0.7759249 0.4085357 0.8565326 0.3301168 0.8565326 0.3714898 0.8363806 0.4085357 0.7759249 0.3894037 0.8162288 0.3714898 0.7960768 0.4085357 0.8565326 0.3714898 0.8363806 0.3894037 0.8162288 0.4085357 0.7759249 0.4085357 0.8565326 0.3894037 0.8162288 0.7832477 0.9360833 0.7931911 0.8576644 0.7931911 0.9360833 0.9201986 0.9259784 0.9301421 0.9684416 0.9201986 0.9684416 0.6483201 0.9382721 0.6582636 0.8576645 0.6582636 0.9382721 0.9744436 0.9439711 0.9645001 0.9238192 0.9744436 0.9238191 0.9190667 0.9248465 0.9091231 0.8823834 0.9190667 0.8823834 0.9744436 0.964123 0.9645001 0.9439711 0.9744436 0.9439711 0.9301298 0.7871524 0.9091171 0.6941852 0.9301298 0.6941852 0.7739113 0.9582279 0.790262 0.9372152 0.790262 0.9582279 0.9476125 0.8812515 0.9312618 0.7882843 0.9476125 0.7882843 0.7943231 0.958228 0.8106738 0.9372152 0.8106738 0.958228 0.9301299 0.8812516 0.9091171 0.7882844 0.9301299 0.7882844 0.7610969 0.9360833 0.7610969 0.8576644 0.7710404 0.8576644 0.7721723 0.9360832 0.7721723 0.8576642 0.7821158 0.8576642 0.8869724 0.8823834 0.8969159 0.8823834 0.8969159 0.9248465 0.6363618 0.9382721 0.6363618 0.8576644 0.6463053 0.8576644 0.9697632 0.7143372 0.9598197 0.7143372 0.9598197 0.6941853 0.9079913 0.9248466 0.8980478 0.9248466 0.8980478 0.8823835 0.9697632 0.734489 0.9598197 0.7344892 0.9598197 0.7143372 0.4749698 0.9506316 0.453957 0.9506316 0.453957 0.8576645 0.7389461 0.9582279 0.7389461 0.9372151 0.7552969 0.9372151 0.5891894 0.9506316 0.5728387 0.9506316 0.5728387 0.8576644 0.7564288 0.9582281 0.7564288 0.9372152 0.7727795 0.9372152 0.4971145 0.9506316 0.4761017 0.9506316 0.4761017 0.8576644 0.7147722 0.9360834 0.7147722 0.8576645 0.7247157 0.8576645 0.7832477 0.9360833 0.7832477 0.8576644 0.7931911 0.8576644 0.9201986 0.9259784 0.9301421 0.9259784 0.9301421 0.9684416 0.6483201 0.9382721 0.6483201 0.8576644 0.6582636 0.8576645 0.9744436 0.9439711 0.9645001 0.9439711 0.9645001 0.9238192 0.9190667 0.9248465 0.9091231 0.9248465 0.9091231 0.8823834 0.9744436 0.964123 0.9645001 0.964123 0.9645001 0.9439711 0.9301298 0.7871524 0.9091171 0.7871524 0.9091171 0.6941852 0.7739113 0.9582279 0.7739113 0.9372152 0.790262 0.9372152 0.9476125 0.8812515 0.9312618 0.8812515 0.9312618 0.7882843 0.7943231 0.958228 0.7943231 0.9372152 0.8106738 0.9372152 0.9301299 0.8812516 0.9091171 0.8812516 0.9091171 0.7882844 0.4085357 0.6941852 0.3714898 0.7143372 0.3301168 0.6941852 0.4085357 0.774793 0.3301168 0.7747929 0.3714898 0.7546411 0.4085357 0.6941852 0.3894037 0.7344891 0.3714898 0.7143372 0.4085357 0.774793 0.3714898 0.7546411 0.3894037 0.7344891 0.4085357 0.774793 0.3894037 0.7344891 0.4085357 0.6941852 0.8042665 0.9360833 0.794323 0.9360833 0.794323 0.8576644 0.4880865 0.774793 0.4096676 0.774793 0.4510407 0.7546411 0.4880866 0.6941853 0.4510407 0.7143372 0.4096676 0.6941853 0.4880865 0.774793 0.4510407 0.7546411 0.4689545 0.7344891 0.4880866 0.6941853 0.4689545 0.7344891 0.4510407 0.7143372 0.4880865 0.774793 0.4689545 0.7344891 0.4880866 0.6941853 0.8173651 0.9360832 0.8074216 0.9360832 0.8074216 0.8576642 0.9301421 0.8823834 0.9301421 0.9248465 0.9201985 0.9248464 0.6352299 0.9382721 0.6252864 0.9382721 0.6252864 0.8576644 0.9598197 0.755773 0.9598197 0.735621 0.9697632 0.7356211 0.9312739 0.9248466 0.9312739 0.8823835 0.9412174 0.8823835 0.9598197 0.7759248 0.9598197 0.755773 0.9697632 0.755773 0.4306804 0.8576644 0.4306803 0.9506316 0.4096676 0.9506316 0.8281563 0.9582279 0.8118056 0.9582279 0.8118056 0.9372151 0.5903213 0.9506316 0.5903213 0.8576645 0.6066719 0.8576645 0.8459231 0.9582281 0.8295724 0.9582281 0.8295724 0.9372152 0.5192592 0.8576645 0.5192592 0.9506316 0.4982464 0.9506316 0.8858405 0.6941852 0.8487946 0.7143371 0.8074216 0.6941852 0.8858405 0.7747928 0.8074216 0.7747928 0.8487946 0.7546409 0.8858405 0.6941852 0.8667085 0.734489 0.8487946 0.7143371 0.8858405 0.7747928 0.8487946 0.7546409 0.8667085 0.734489 0.8858405 0.7747928 0.8667085 0.734489 0.8858405 0.6941852 0.7378143 0.9360833 0.7278708 0.9360832 0.7278708 0.8576643 0.4880865 0.8565325 0.4096676 0.8565325 0.4510406 0.8363806 0.4880865 0.7759248 0.4510406 0.7960768 0.4096676 0.7759248 0.4880865 0.8565325 0.4510406 0.8363806 0.4689545 0.8162286 0.4880865 0.7759248 0.4689545 0.8162286 0.4510406 0.7960768 0.4880865 0.8565325 0.4689545 0.8162286 0.4880865 0.7759248 0.8284405 0.9360833 0.818497 0.9360833 0.818497 0.8576644 0.9412174 0.9259784 0.9412174 0.9684416 0.9312739 0.9684416 0.669339 0.938272 0.6593955 0.938272 0.6593955 0.8576644 0.9645001 0.9025354 0.9645001 0.8823834 0.9744436 0.8823835 0.9423493 0.9248465 0.9423493 0.8823834 0.9522928 0.8823834 0.9645001 0.9226872 0.9645001 0.9025354 0.9744436 0.9025354 0.3380128 0.8576645 0.3380128 0.9506317 0.317 0.9506317 0.8634057 0.9582279 0.847055 0.9582279 0.847055 0.9372152 0.9312617 0.7871524 0.9312617 0.6941852 0.9476125 0.6941852 0.8808882 0.958228 0.8645375 0.958228 0.8645375 0.9372152 0.2715789 0.8576644 0.2715789 0.9506316 0.2505661 0.9506316 0.8042665 0.9360833 0.794323 0.8576644 0.8042665 0.8576644 0.8173651 0.9360832 0.8074216 0.8576642 0.8173651 0.8576642 0.9301421 0.8823834 0.9201985 0.9248464 0.9201985 0.8823834 0.6352299 0.9382721 0.6252864 0.8576644 0.6352299 0.8576644 0.9598197 0.755773 0.9697632 0.7356211 0.9697632 0.755773 0.9312739 0.9248466 0.9412174 0.8823835 0.9412174 0.9248466 0.9598197 0.7759248 0.9697632 0.755773 0.9697632 0.7759249 0.4306804 0.8576644 0.4096676 0.9506316 0.4096676 0.8576644 0.8281563 0.9582279 0.8118056 0.9372151 0.8281563 0.9372151 0.5903213 0.9506316 0.6066719 0.8576645 0.6066719 0.9506316 0.8459231 0.9582281 0.8295724 0.9372152 0.8459231 0.9372152 0.5192592 0.8576645 0.4982464 0.9506316 0.4982464 0.8576645 0.7378143 0.9360833 0.7278708 0.8576643 0.7378143 0.8576644 0.8284405 0.9360833 0.818497 0.8576644 0.8284405 0.8576644 0.9412174 0.9259784 0.9312739 0.9684416 0.9312739 0.9259784 0.669339 0.938272 0.6593955 0.8576644 0.669339 0.8576643 0.9645001 0.9025354 0.9744436 0.8823835 0.9744436 0.9025354 0.9423493 0.9248465 0.9522928 0.8823834 0.9522928 0.9248465 0.9645001 0.9226872 0.9744436 0.9025354 0.9744436 0.9226872 0.3380128 0.8576645 0.317 0.9506317 0.317 0.8576645 0.8634057 0.9582279 0.847055 0.9372152 0.8634057 0.9372152 0.9312617 0.7871524 0.9476125 0.6941852 0.9476124 0.7871524 0.8808882 0.958228 0.8645375 0.9372152 0.8808882 0.9372152 0.2715789 0.8576644 0.2505661 0.9506316 0.2505661 0.8576644 0.5676373 0.774793 0.4892184 0.774793 0.5305914 0.754641 0.5676373 0.6941853 0.5305914 0.7143371 0.4892184 0.6941853 0.5676373 0.774793 0.5305914 0.754641 0.5485053 0.7344892 0.5676373 0.6941853 0.5485053 0.7344892 0.5305914 0.7143371 0.5676373 0.6941853 0.5676373 0.774793 0.5485053 0.7344892 0.8295723 0.9360833 0.8395158 0.8576644 0.8395158 0.9360833 0.6471882 0.6941853 0.6101423 0.7143371 0.5687693 0.6941853 0.6471882 0.774793 0.5687693 0.774793 0.6101423 0.754641 0.6471882 0.6941853 0.6280561 0.7344891 0.6101423 0.7143371 0.6471882 0.774793 0.6101423 0.754641 0.6280561 0.7344891 0.6471882 0.6941853 0.6471882 0.774793 0.6280561 0.7344891 0.8406477 0.9360832 0.8505913 0.8576642 0.8505913 0.9360832 0.9487443 0.773736 0.9586878 0.8161991 0.9487443 0.8161991 0.6704708 0.9382722 0.6804143 0.8576645 0.6804143 0.9382722 0.9598196 0.7972088 0.9697632 0.8173607 0.9598196 0.8173608 0.9586878 0.8597941 0.9487442 0.817331 0.9586878 0.817331 0.9598196 0.7770569 0.9697632 0.7972088 0.9598196 0.7972088 0.9079853 0.7871525 0.8869725 0.6941852 0.9079853 0.6941852 0.6252864 0.9604169 0.6416371 0.9394041 0.6416371 0.9604169 0.520391 0.8576644 0.5367417 0.9506316 0.520391 0.9506316 0.64832 0.9604169 0.6646707 0.939404 0.6646707 0.9604169 0.9079853 0.8812516 0.8869726 0.7882843 0.9079853 0.7882843 0.8062897 0.8565325 0.7278708 0.8565325 0.7692438 0.8363806 0.8062897 0.7759249 0.7692438 0.7960768 0.7278708 0.7759249 0.8062897 0.8565325 0.7692438 0.8363806 0.7871577 0.8162288 0.8062897 0.7759249 0.7871577 0.8162288 0.7692438 0.7960768 0.8062897 0.7759249 0.8062897 0.8565325 0.7871577 0.8162288 0.7389461 0.9360833 0.7488896 0.8576643 0.7488896 0.9360832 0.5676374 0.7759248 0.5305915 0.7960768 0.4892184 0.7759248 0.5676374 0.8565325 0.4892184 0.8565325 0.5305915 0.8363806 0.5676374 0.7759248 0.5485053 0.8162287 0.5305915 0.7960768 0.5676374 0.8565325 0.5305915 0.8363806 0.5485053 0.8162287 0.5676374 0.7759248 0.5676374 0.8565325 0.5485053 0.8162287 0.8517231 0.9360833 0.8616666 0.8576644 0.8616666 0.9360833 0.9423493 0.9259784 0.9522928 0.9684416 0.9423493 0.9684416 0.6926215 0.938272 0.702565 0.8576644 0.702565 0.938272 0.7278708 0.9573671 0.7378143 0.977519 0.7278708 0.977519 0.9633681 0.9248465 0.9534246 0.8823834 0.9633681 0.8823834 0.7278708 0.9372152 0.7378143 0.9573671 0.7278708 0.9573671 0.2937235 0.9506316 0.2727107 0.8576644 0.2937235 0.8576644 0.6815462 0.9604167 0.6978969 0.939404 0.6978969 0.9604167 0.5378736 0.8576644 0.5542243 0.9506316 0.5378736 0.9506316 0.05301362 0.9651982 0.06936424 0.9441853 0.06936424 0.9651982 0.3158681 0.9506317 0.2948554 0.8576645 0.3158681 0.8576645 0.8295723 0.9360833 0.8295723 0.8576644 0.8395158 0.8576644 0.8406477 0.9360832 0.8406477 0.8576642 0.8505913 0.8576642 0.9487443 0.773736 0.9586878 0.773736 0.9586878 0.8161991 0.6704708 0.9382722 0.6704708 0.8576645 0.6804143 0.8576645 0.9598196 0.7972088 0.9697632 0.7972088 0.9697632 0.8173607 0.9586878 0.8597941 0.9487442 0.8597941 0.9487442 0.817331 0.9598196 0.7770569 0.9697632 0.7770569 0.9697632 0.7972088 0.9079853 0.7871525 0.8869725 0.7871525 0.8869725 0.6941852 0.6252864 0.9604169 0.6252864 0.9394041 0.6416371 0.9394041 0.520391 0.8576644 0.5367417 0.8576644 0.5367417 0.9506316 0.64832 0.9604169 0.64832 0.939404 0.6646707 0.939404 0.9079853 0.8812516 0.8869725 0.8812516 0.8869726 0.7882843 0.7389461 0.9360833 0.7389461 0.8576644 0.7488896 0.8576643 0.8517231 0.9360833 0.8517231 0.8576644 0.8616666 0.8576644 0.9423493 0.9259784 0.9522928 0.9259784 0.9522928 0.9684416 0.6926215 0.938272 0.6926215 0.8576644 0.702565 0.8576644 0.7278708 0.9573671 0.7378143 0.9573671 0.7378143 0.977519 0.9633681 0.9248465 0.9534246 0.9248465 0.9534246 0.8823834 0.7278708 0.9372152 0.7378143 0.9372152 0.7378143 0.9573671 0.2937235 0.9506316 0.2727107 0.9506316 0.2727107 0.8576644 0.6815462 0.9604167 0.6815462 0.939404 0.6978969 0.939404 0.5378736 0.8576644 0.5542243 0.8576644 0.5542243 0.9506316 0.05301362 0.9651982 0.05301362 0.9441853 0.06936424 0.9441853 0.3158681 0.9506317 0.2948554 0.9506317 0.2948554 0.8576645 0.726739 0.6941853 0.6896931 0.7143372 0.64832 0.6941853 0.726739 0.774793 0.64832 0.774793 0.6896931 0.7546411 0.726739 0.6941853 0.7076069 0.7344891 0.6896931 0.7143372 0.726739 0.774793 0.6896931 0.7546411 0.7076069 0.7344891 0.726739 0.774793 0.7076069 0.7344891 0.726739 0.6941853 0.8727419 0.9360833 0.8627985 0.9360833 0.8627985 0.8576644 0.8062897 0.774793 0.7278708 0.774793 0.7692438 0.7546411 0.8062897 0.6941853 0.7692438 0.7143373 0.7278708 0.6941853 0.8062897 0.774793 0.7692438 0.7546411 0.7871577 0.7344892 0.8062897 0.6941853 0.7871577 0.7344892 0.7692438 0.7143373 0.8062897 0.774793 0.7871577 0.7344892 0.8062897 0.6941853 0.8838173 0.9360832 0.8738738 0.9360832 0.8738738 0.8576642 0.8969159 0.9259784 0.8969159 0.9684415 0.8869724 0.9684415 0.6914896 0.9382722 0.6815462 0.9382722 0.6815462 0.8576645 0.9697631 0.8386446 0.9697631 0.8587966 0.9598196 0.8587965 0.8980478 0.9684414 0.8980478 0.9259783 0.9079913 0.9259783 0.9697631 0.8184927 0.9697631 0.8386446 0.9598196 0.8386446 0.4044468 0.8576645 0.4044468 0.9506317 0.383434 0.9506317 0.0868467 0.9651982 0.07049608 0.9651982 0.07049608 0.9441854 0.6241546 0.8576644 0.6241545 0.9506316 0.6078038 0.9506316 0.01691663 0.965198 5.65932e-4 0.965198 5.65932e-4 0.9441852 0.4528251 0.8576645 0.4528251 0.9506316 0.4318122 0.9506316 0.8858405 0.7759249 0.8487946 0.7960767 0.8074216 0.7759249 0.8858405 0.8565325 0.8074216 0.8565325 0.8487946 0.8363806 0.8858405 0.7759249 0.8667085 0.8162286 0.8487946 0.7960767 0.8858405 0.8565325 0.8487946 0.8363806 0.8667085 0.8162286 0.8858405 0.8565325 0.8667085 0.8162286 0.8858405 0.7759249 0.759965 0.9360833 0.7500215 0.9360832 0.7500215 0.8576643 0.6471882 0.8565325 0.5687693 0.8565325 0.6101423 0.8363806 0.6471882 0.7759248 0.6101423 0.7960768 0.5687693 0.7759248 0.6471882 0.8565325 0.6101423 0.8363806 0.6280561 0.8162286 0.6471882 0.7759248 0.6280561 0.8162286 0.6101423 0.7960768 0.6471882 0.8565325 0.6280561 0.8162286 0.6471882 0.7759248 0.9586878 0.7726042 0.9487442 0.7726042 0.9487442 0.6941853 0.9633681 0.9259784 0.9633681 0.9684416 0.9534246 0.9684416 0.7136403 0.938272 0.7036969 0.938272 0.7036969 0.8576644 0.7247157 0.9573671 0.7247157 0.9775191 0.7147722 0.977519 0.9091232 0.9684416 0.9091232 0.9259784 0.9190667 0.9259784 0.7247157 0.9372153 0.7247157 0.9573671 0.7147722 0.9573671 0.3601574 0.8576645 0.3601574 0.9506317 0.3391446 0.9506317 0.03439915 0.9651981 0.01804846 0.9651981 0.01804846 0.9441853 0.5717069 0.8576644 0.5717069 0.9506316 0.5553562 0.9506316 0.05188173 0.9651982 0.03553104 0.9651982 0.03553104 0.9441853 0.3823022 0.8576645 0.3823022 0.9506316 0.3612894 0.9506316 0.8727419 0.9360833 0.8627985 0.8576644 0.8727419 0.8576644 0.8838173 0.9360832 0.8738738 0.8576642 0.8838173 0.8576642 0.8969159 0.9259784 0.8869724 0.9684415 0.8869724 0.9259784 0.6914896 0.9382722 0.6815462 0.8576645 0.6914896 0.8576645 0.9697631 0.8386446 0.9598196 0.8587965 0.9598196 0.8386446 0.8980478 0.9684414 0.9079913 0.9259783 0.9079913 0.9684414 0.9697631 0.8184927 0.9598196 0.8386446 0.9598196 0.8184927 0.4044468 0.8576645 0.383434 0.9506317 0.383434 0.8576645 0.0868467 0.9651982 0.07049608 0.9441854 0.0868467 0.9441854 0.6241546 0.8576644 0.6078038 0.9506316 0.6078038 0.8576644 0.01691663 0.965198 5.65932e-4 0.9441852 0.01691663 0.9441852 0.4528251 0.8576645 0.4318122 0.9506316 0.4318122 0.8576645 0.759965 0.9360833 0.7500215 0.8576643 0.759965 0.8576644 0.9586878 0.7726042 0.9487442 0.6941853 0.9586878 0.6941853 0.9633681 0.9259784 0.9534246 0.9684416 0.9534246 0.9259784 0.7136403 0.938272 0.7036969 0.8576644 0.7136403 0.8576644 0.7247157 0.9573671 0.7147722 0.977519 0.7147722 0.9573671 0.9091232 0.9684416 0.9190667 0.9259784 0.9190667 0.9684416 0.7247157 0.9372153 0.7147722 0.9573671 0.7147722 0.9372153 0.3601574 0.8576645 0.3391446 0.9506317 0.3391446 0.8576645 0.03439915 0.9651981 0.01804846 0.9441853 0.03439915 0.9441853 0.5717069 0.8576644 0.5553562 0.9506316 0.5553562 0.8576644 0.05188173 0.9651982 0.03553104 0.9441853 0.05188173 0.9441853 0.3823022 0.8576645 0.3612894 0.9506316 0.3612894 0.8576644 0.2322461 0.08711081 0.01775377 0.08711081 5.65932e-4 0.01030135 0.01775377 0.08711081 0.2322461 0.08711081 0.2407249 0.6930533 0.517754 0.08711081 0.7322463 0.08711087 0.740725 0.6930533 0.7592749 0.6930533 0.7677538 0.08711081 0.9822461 0.08711081 0.490725 0.6930533 0.259275 0.6930533 0.2677538 0.08711081 5.65932e-4 0.01030135 5.65932e-4 5.65943e-4 0.2494341 5.65943e-4 0.4822462 0.08711081 0.2677538 0.08711081 0.250566 0.01030135 0.517754 0.08711081 0.5005661 0.01030135 0.7494342 0.01030135 0.9822461 0.08711081 0.7677538 0.08711081 0.750566 0.01030135 5.65928e-4 0.9430533 5.6602e-4 0.6941853 0.2494341 0.6941853 0.250566 0.01030135 0.250566 5.65943e-4 0.4994342 5.65943e-4 0.5005661 0.01030135 0.5005661 5.65962e-4 0.7494342 5.65951e-4 0.750566 0.01030135 0.750566 5.65943e-4 0.9994341 5.65943e-4</float_array>
          <technique_common>
            <accessor source="#E_tower-mesh-map-1-array" count="894" stride="2">
              <param name="S" type="float"/>
              <param name="T" type="float"/>
            </accessor>
          </technique_common>
        </source>
        <vertices id="E_tower-mesh-vertices">
          <input semantic="POSITION" source="#E_tower-mesh-positions"/>
        </vertices>
        <triangles material="Material_006-material" count="298">
          <input semantic="VERTEX" source="#E_tower-mesh-vertices" offset="0"/>
          <input semantic="NORMAL" source="#E_tower-mesh-normals" offset="1"/>
          <input semantic="TEXCOORD" source="#E_tower-mesh-map-0" offset="2" set="0"/>
          <input semantic="TEXCOORD" source="#E_tower-mesh-map-1" offset="2" set="1"/>
          <p>5 0 0 8 0 1 9 0 2 4 1 3 1 1 4 0 1 5 5 2 6 2 2 7 1 2 8 2 3 9 7 3 10 3 3 11 0 4 12 7 4 13 4 4 14 8 5 15 13 5 16 9 5 17 4 6 18 11 6 19 8 6 20 5 7 21 10 7 22 6 7 23 7 8 24 10 8 25 11 8 26 15 9 27 13 9 28 12 9 29 11 10 30 12 10 31 8 10 32 9 11 33 14 11 34 10 11 35 10 12 36 15 12 37 11 12 38 18 13 39 22 13 40 28 13 41 16 13 42 27 13 43 20 13 44 18 14 45 28 14 46 24 14 47 16 13 48 24 13 49 27 13 50 16 13 51 18 13 52 24 13 53 19 15 54 22 15 55 18 15 56 19 16 57 29 16 58 23 16 59 17 16 60 21 16 61 26 16 62 19 17 63 25 17 64 29 17 65 17 18 66 26 18 67 25 18 68 19 16 69 17 16 70 25 16 71 16 19 72 21 19 73 17 19 74 22 20 75 29 20 76 28 20 77 17 21 78 18 21 79 16 21 80 24 22 81 26 22 82 27 22 83 27 23 84 21 23 85 20 23 86 28 24 87 25 24 88 24 24 89 33 13 90 34 13 91 30 13 92 30 19 93 35 19 94 31 19 95 37 25 96 35 25 97 34 25 98 32 15 99 37 15 100 33 15 101 31 16 102 36 16 103 32 16 104 40 13 105 44 13 106 50 13 107 38 13 108 49 13 109 42 13 110 40 13 111 50 13 112 46 13 113 38 13 114 46 13 115 49 13 116 38 13 117 40 13 118 46 13 119 41 26 120 44 26 121 40 26 122 41 16 123 51 16 124 45 16 125 39 16 126 43 16 127 48 16 128 41 16 129 47 16 130 51 16 131 39 16 132 48 16 133 47 16 134 41 16 135 39 16 136 47 16 137 38 19 138 43 19 139 39 19 140 44 27 141 51 27 142 50 27 143 39 21 144 40 21 145 38 21 146 46 28 147 48 28 148 49 28 149 49 29 150 43 29 151 42 29 152 50 30 153 47 30 154 46 30 155 55 13 156 56 13 157 52 13 158 52 19 159 57 19 160 53 19 161 59 25 162 57 25 163 56 25 164 54 15 165 59 15 166 55 15 167 53 16 168 58 16 169 54 16 170 19 15 171 23 15 172 22 15 173 16 19 174 20 19 175 21 19 176 22 31 177 23 31 178 29 31 179 17 21 180 19 21 181 18 21 182 24 32 183 25 32 184 26 32 185 27 33 186 26 33 187 21 33 188 28 34 189 29 34 190 25 34 191 33 13 192 37 13 193 34 13 194 30 19 195 34 19 196 35 19 197 37 25 198 36 25 199 35 25 200 32 15 201 36 15 202 37 15 203 31 16 204 35 16 205 36 16 206 41 26 207 45 26 208 44 26 209 38 19 210 42 19 211 43 19 212 44 35 213 45 35 214 51 35 215 39 21 216 41 21 217 40 21 218 46 32 219 47 32 220 48 32 221 49 36 222 48 36 223 43 36 224 50 37 225 51 37 226 47 37 227 55 13 228 59 13 229 56 13 230 52 19 231 56 19 232 57 19 233 59 25 234 58 25 235 57 25 236 54 15 237 58 15 238 59 15 239 53 16 240 57 16 241 58 16 242 62 16 243 72 16 244 66 16 245 60 16 246 64 16 247 71 16 248 62 38 249 68 38 250 72 38 251 60 16 252 71 16 253 68 16 254 60 16 255 68 16 256 62 16 257 63 15 258 62 15 259 66 15 260 63 13 261 67 13 262 73 13 263 61 13 264 70 13 265 65 13 266 63 39 267 73 39 268 69 39 269 61 40 270 69 40 271 70 40 272 63 13 273 69 13 274 61 13 275 60 19 276 61 19 277 65 19 278 66 41 279 72 41 280 73 41 281 61 21 282 60 21 283 62 21 284 68 42 285 71 42 286 70 42 287 71 23 288 64 23 289 65 23 290 72 24 291 68 24 292 69 24 293 77 16 294 74 16 295 78 16 296 74 19 297 75 19 298 79 19 299 81 25 300 78 25 301 79 25 302 76 15 303 77 15 304 81 15 305 75 13 306 76 13 307 80 13 308 84 16 309 94 16 310 88 16 311 82 16 312 86 16 313 93 16 314 84 16 315 90 16 316 94 16 317 82 16 318 93 16 319 90 16 320 82 16 321 90 16 322 84 16 323 85 43 324 84 43 325 88 43 326 85 13 327 89 13 328 95 13 329 83 13 330 92 13 331 87 13 332 85 13 333 95 13 334 91 13 335 83 13 336 91 13 337 92 13 338 85 13 339 91 13 340 83 13 341 82 19 342 83 19 343 87 19 344 88 27 345 94 27 346 95 27 347 83 21 348 82 21 349 84 21 350 90 44 351 93 44 352 92 44 353 93 29 354 86 29 355 87 29 356 94 30 357 90 30 358 91 30 359 99 16 360 96 16 361 100 16 362 96 19 363 97 19 364 101 19 365 103 25 366 100 25 367 101 25 368 98 15 369 99 15 370 103 15 371 97 13 372 98 13 373 102 13 374 63 15 375 66 15 376 67 15 377 60 19 378 65 19 379 64 19 380 66 31 381 73 31 382 67 31 383 61 21 384 62 21 385 63 21 386 68 32 387 70 32 388 69 32 389 71 45 390 65 45 391 70 45 392 72 46 393 69 46 394 73 46 395 77 16 396 78 16 397 81 16 398 74 19 399 79 19 400 78 19 401 81 25 402 79 25 403 80 25 404 76 15 405 81 15 406 80 15 407 75 13 408 80 13 409 79 13 410 85 43 411 88 43 412 89 43 413 82 19 414 87 19 415 86 19 416 88 47 417 95 47 418 89 47 419 83 21 420 84 21 421 85 21 422 90 32 423 92 32 424 91 32 425 93 48 426 87 48 427 92 48 428 94 37 429 91 37 430 95 37 431 99 16 432 100 16 433 103 16 434 96 19 435 101 19 436 100 19 437 103 25 438 101 25 439 102 25 440 98 15 441 103 15 442 102 15 443 97 13 444 102 13 445 101 13 446 106 15 447 110 15 448 116 15 449 104 15 450 115 15 451 108 15 452 106 15 453 116 15 454 112 15 455 104 15 456 112 15 457 115 15 458 104 15 459 106 15 460 112 15 461 107 16 462 110 16 463 106 16 464 107 19 465 117 19 466 111 19 467 105 19 468 109 19 469 114 19 470 107 19 471 113 19 472 117 19 473 105 19 474 114 19 475 113 19 476 107 19 477 105 19 478 113 19 479 104 13 480 109 13 481 105 13 482 110 49 483 117 49 484 116 49 485 105 21 486 106 21 487 104 21 488 112 50 489 114 50 490 115 50 491 115 51 492 109 51 493 108 51 494 116 52 495 113 52 496 112 52 497 121 15 498 122 15 499 118 15 500 118 13 501 123 13 502 119 13 503 125 25 504 123 25 505 122 25 506 120 16 507 125 16 508 121 16 509 119 19 510 124 19 511 120 19 512 128 15 513 132 15 514 138 15 515 126 15 516 137 15 517 130 15 518 128 15 519 138 15 520 134 15 521 126 15 522 134 15 523 137 15 524 126 15 525 128 15 526 134 15 527 129 53 528 132 53 529 128 53 530 129 19 531 139 19 532 133 19 533 127 19 534 131 19 535 136 19 536 129 19 537 135 19 538 139 19 539 127 19 540 136 19 541 135 19 542 129 19 543 127 19 544 135 19 545 126 13 546 131 13 547 127 13 548 132 54 549 139 54 550 138 54 551 127 21 552 128 21 553 126 21 554 134 55 555 136 55 556 137 55 557 137 56 558 131 56 559 130 56 560 138 57 561 135 57 562 134 57 563 143 58 564 144 58 565 140 58 566 140 13 567 145 13 568 141 13 569 147 25 570 145 25 571 144 25 572 142 16 573 147 16 574 143 16 575 141 19 576 146 19 577 142 19 578 107 16 579 111 16 580 110 16 581 104 13 582 108 13 583 109 13 584 110 59 585 111 59 586 117 59 587 105 21 588 107 21 589 106 21 590 112 60 591 113 60 592 114 60 593 115 61 594 114 61 595 109 61 596 116 62 597 117 62 598 113 62 599 121 15 600 125 15 601 122 15 602 118 13 603 122 13 604 123 13 605 125 25 606 124 25 607 123 25 608 120 16 609 124 16 610 125 16 611 119 19 612 123 19 613 124 19 614 129 63 615 133 63 616 132 63 617 126 13 618 130 13 619 131 13 620 132 64 621 133 64 622 139 64 623 127 65 624 129 65 625 128 65 626 134 60 627 135 60 628 136 60 629 137 66 630 136 66 631 131 66 632 138 67 633 139 67 634 135 67 635 143 68 636 147 68 637 144 68 638 140 13 639 144 13 640 145 13 641 147 25 642 146 25 643 145 25 644 142 16 645 146 16 646 147 16 647 141 19 648 145 19 649 146 19 650 150 19 651 160 19 652 154 19 653 148 19 654 152 19 655 159 19 656 150 19 657 156 19 658 160 19 659 148 19 660 159 19 661 156 19 662 148 19 663 156 19 664 150 19 665 151 16 666 150 16 667 154 16 668 151 15 669 155 15 670 161 15 671 149 15 672 158 15 673 153 15 674 151 15 675 161 15 676 157 15 677 149 15 678 157 15 679 158 15 680 151 15 681 157 15 682 149 15 683 148 13 684 149 13 685 153 13 686 154 69 687 160 69 688 161 69 689 149 21 690 148 21 691 150 21 692 156 70 693 159 70 694 158 70 695 159 71 696 152 71 697 153 71 698 160 52 699 156 52 700 157 52 701 165 72 702 162 72 703 166 72 704 162 13 705 163 13 706 167 13 707 169 25 708 166 25 709 167 25 710 164 16 711 165 16 712 169 16 713 163 15 714 164 15 715 168 15 716 172 19 717 182 19 718 176 19 719 170 19 720 174 19 721 181 19 722 172 19 723 178 19 724 182 19 725 170 19 726 181 19 727 178 19 728 170 19 729 178 19 730 172 19 731 173 73 732 172 73 733 176 73 734 173 15 735 177 15 736 183 15 737 171 15 738 180 15 739 175 15 740 173 15 741 183 15 742 179 15 743 171 15 744 179 15 745 180 15 746 173 15 747 179 15 748 171 15 749 170 13 750 171 13 751 175 13 752 176 74 753 182 74 754 183 74 755 171 21 756 170 21 757 172 21 758 178 75 759 181 75 760 180 75 761 181 76 762 174 76 763 175 76 764 182 77 765 178 77 766 179 77 767 187 19 768 184 19 769 188 19 770 184 78 771 185 78 772 189 78 773 191 79 774 188 79 775 189 79 776 186 16 777 187 16 778 191 16 779 185 15 780 186 15 781 190 15 782 151 16 783 154 16 784 155 16 785 148 13 786 153 13 787 152 13 788 154 80 789 161 80 790 155 80 791 149 21 792 150 21 793 151 21 794 156 81 795 158 81 796 157 81 797 159 82 798 153 82 799 158 82 800 160 83 801 157 83 802 161 83 803 165 84 804 166 84 805 169 84 806 162 13 807 167 13 808 166 13 809 169 25 810 167 25 811 168 25 812 164 16 813 169 16 814 168 16 815 163 15 816 168 15 817 167 15 818 173 85 819 176 85 820 177 85 821 170 13 822 175 13 823 174 13 824 176 86 825 183 86 826 177 86 827 171 87 828 172 87 829 173 87 830 178 88 831 180 88 832 179 88 833 181 89 834 175 89 835 180 89 836 182 90 837 179 90 838 183 90 839 187 19 840 188 19 841 191 19 842 184 91 843 189 91 844 188 91 845 191 25 846 189 25 847 190 25 848 186 16 849 191 16 850 190 16 851 185 15 852 190 15 853 189 15 854 5 92 855 4 92 856 8 92 857 4 93 858 5 93 859 1 93 860 5 94 861 6 94 862 2 94 863 2 95 864 6 95 865 7 95 866 0 96 867 3 96 868 7 96 869 8 97 870 12 97 871 13 97 872 4 98 873 7 98 874 11 98 875 5 99 876 9 99 877 10 99 878 7 100 879 6 100 880 10 100 881 15 101 882 14 101 883 13 101 884 11 10 885 15 10 886 12 10 887 9 102 888 13 102 889 14 102 890 10 103 891 14 103 892 15 103 893</p>
        </triangles>
      </mesh>
    </geometry>
  </library_geometries>
  <library_visual_scenes>
    <visual_scene id="Scene" name="Scene">
      <node id="E_tower" name="E_tower" type="NODE">
        <matrix sid="transform">2.665679 0 0 0 0 2.665679 0 0 0 0 1.77712 0 0 0 0 1</matrix>
        <instance_geometry url="#E_tower-mesh" name="E_tower">
          <bind_material>
            <technique_common>
              <instance_material symbol="Material_006-material" target="#Material_006-material">
                <bind_vertex_input semantic="E_tower-mesh-map-0" input_semantic="TEXCOORD" input_set="0"/>
                <bind_vertex_input semantic="E_tower-mesh-map-1" input_semantic="TEXCOORD" input_set="1"/>
              </instance_material>
            </technique_common>
          </bind_material>
        </instance_geometry>
        <node id="prop_garrisoned" name="prop_garrisoned" type="NODE">
          <matrix sid="transform">0.375139 0 0 0 0 0.375139 0 0 0 0 0.5627084 7.333771 0 0 0 1</matrix>
        </node>
        <node id="prop_projectile" name="prop_projectile" type="NODE">
          <matrix sid="transform">0.375139 0 0 0 0 0.375139 0 0 0 0 0.5627084 7.342077 0 0 0 1</matrix>
        </node>
      </node>
    </visual_scene>
  </library_visual_scenes>
  <scene>
    <instance_visual_scene url="#Scene"/>
  </scene>
</COLLADA>