<?xml version="1.0" encoding="utf-8"?>
<COLLADA xmlns="http://www.collada.org/2005/11/COLLADASchema" version="1.4.1" xmlns:xsi="http://www.w3.org/2001/XMLSchema-instance">
  <asset>
    <contributor>
      <author>Blender User</author>
      <authoring_tool>Blender 4.3.1 commit date:2024-12-10, commit time:07:46, hash:33d812126174</authoring_tool>
    </contributor>
    <created>2026-04-09T15:07:23</created>
    <modified>2026-04-09T15:07:23</modified>
    <unit name="inch" meter="0.0254"/>
    <up_axis>Z_UP</up_axis>
  </asset>
  <library_effects>
    <effect id="Material_005-effect">
      <profile_COMMON>
        <newparam sid="Untitled_004-surface">
          <surface type="2D">
            <init_from>Untitled_004</init_from>
          </surface>
        </newparam>
        <newparam sid="Untitled_004-sampler">
          <sampler2D>
            <source>Untitled_004-surface</source>
          </sampler2D>
        </newparam>
        <technique sid="common">
          <lambert>
            <emission>
              <color sid="emission">0 0 0 1</color>
            </emission>
            <diffuse>
              <texture texture="Untitled_004-sampler" texcoord="E_short-mesh-map-1"/>
            </diffuse>
            <index_of_refraction>
              <float sid="ior">1.5</float>
            </index_of_refraction>
          </lambert>
        </technique>
      </profile_COMMON>
    </effect>
  </library_effects>
  <library_images>
    <image id="Untitled_004" name="Untitled_004">
      <init_from>Untitled.004.png</init_from>
    </image>
  </library_images>
  <library_materials>
    <material id="Material_005-material" name="Material.005">
      <instance_effect url="#Material_005-effect"/>
    </material>
  </library_materials>
  <library_geometries>
    <geometry id="E_short-mesh" name="E_short">
      <mesh>
        <source id="E_short-mesh-positions">
          <float_array id="E_short-mesh-positions-array" count="312">1.895404 0.5848751 -1.25047 1.895404 -0.5848751 -1.25047 -1.878053 -0.584875 -1.25047 -1.878053 0.5848753 -1.25047 1.845004 0.5420228 5.14531 1.845003 -0.5420234 5.14531 -1.827653 -0.5420228 5.14531 -1.827653 0.542023 5.14531 1.947173 0.6288905 5.755657 1.947172 -0.6288912 5.755657 -1.929822 -0.6288906 5.755657 -1.929822 0.6288909 5.755657 1.947173 0.6288905 5.819406 1.947172 -0.6288912 5.819406 -1.929822 -0.6288906 5.819406 -1.929822 0.6288909 5.819406 -0.1496559 0.1020548 5.852095 -0.1496559 -0.09478574 5.852095 -0.8145295 0.1020548 5.852095 -0.8145295 -0.09478574 5.852095 -0.1496559 0.1020548 6.888525 -0.1496559 -0.09478574 6.888525 -0.8145295 0.1020548 6.888525 -0.8145295 -0.09478574 6.888525 -0.4820924 0.1020548 6.104955 -0.4820932 -0.09478574 6.104955 -0.3158743 -0.09478574 6.341715 -0.3158743 0.1020548 6.341715 -0.6483115 0.1020548 6.341715 -0.6483115 -0.09478574 6.341715 -0.09483253 0.1554781 5.763778 -0.09483253 -0.168197 5.763778 -0.8616515 -0.168197 5.763778 -0.8616515 0.1554781 5.763778 -0.09483253 0.1554781 6.041495 -0.09483253 -0.168197 6.041495 -0.8616515 -0.168197 6.041495 -0.8616515 0.1554781 6.041495 -1.030946 0.1020548 5.852095 -1.030946 -0.09478574 5.852095 -1.69582 0.1020548 5.852095 -1.69582 -0.09478574 5.852095 -1.030946 0.1020548 6.888525 -1.030946 -0.09478574 6.888525 -1.69582 0.1020548 6.888525 -1.69582 -0.09478574 6.888525 -1.363382 0.1020548 6.104955 -1.363383 -0.09478574 6.104955 -1.197165 -0.09478574 6.341715 -1.197164 0.1020548 6.341715 -1.529601 0.1020548 6.341715 -1.529601 -0.09478574 6.341715 -0.976122 0.1554781 5.763778 -0.976122 -0.168197 5.763778 -1.742942 -0.168197 5.763778 -1.742942 0.1554781 5.763778 -0.976122 0.1554781 6.041495 -0.976122 -0.168197 6.041495 -1.742942 -0.168197 6.041495 -1.742942 0.1554781 6.041495 0.1496559 0.1020548 5.852095 0.1496559 -0.09478574 5.852095 0.8145295 0.1020548 5.852095 0.8145295 -0.09478574 5.852095 0.1496559 0.1020548 6.888525 0.1496559 -0.09478574 6.888525 0.8145295 0.1020548 6.888525 0.8145295 -0.09478574 6.888525 0.4820924 0.1020548 6.104955 0.4820932 -0.09478574 6.104955 0.3158743 -0.09478574 6.341715 0.3158743 0.1020548 6.341715 0.6483115 0.1020548 6.341715 0.6483115 -0.09478574 6.341715 0.09483253 0.1554781 5.763778 0.09483253 -0.168197 5.763778 0.8616515 -0.168197 5.763778 0.8616515 0.1554781 5.763778 0.09483253 0.1554781 6.041495 0.09483253 -0.168197 6.041495 0.8616515 -0.168197 6.041495 0.8616515 0.1554781 6.041495 1.030946 0.1020548 5.852095 1.030946 -0.09478574 5.852095 1.69582 0.1020548 5.852095 1.69582 -0.09478574 5.852095 1.030946 0.1020548 6.888525 1.030946 -0.09478574 6.888525 1.69582 0.1020548 6.888525 1.69582 -0.09478574 6.888525 1.363382 0.1020548 6.104955 1.363383 -0.09478574 6.104955 1.197165 -0.09478574 6.341715 1.197164 0.1020548 6.341715 1.529601 0.1020548 6.341715 1.529601 -0.09478574 6.341715 0.976122 0.1554781 5.763778 0.976122 -0.168197 5.763778 1.742942 -0.168197 5.763778 1.742942 0.1554781 5.763778 0.976122 0.1554781 6.041495 0.976122 -0.168197 6.041495 1.742942 -0.168197 6.041495 1.742942 0.1554781 6.041495</float_array>
          <technique_common>
            <accessor source="#E_short-mesh-positions-array" count="104" stride="3">
              <param name="X" type="float"/>
              <param name="Y" type="float"/>
              <param name="Z" type="float"/>
            </accessor>
          </technique_common>
        </source>
        <source id="E_short-mesh-normals">
          <float_array id="E_short-mesh-normals-array" count="201">0.9862772 -7.10795e-7 -0.165098 0.999969 0 0.007879912 0 -0.9999777 0.00669986 -0.999969 0 0.007879912 0 0.9999777 0.00669986 1 -7.43357e-7 0 0 0.9900231 -0.140905 -1.5795e-7 -0.9900231 -0.1409053 -0.9862773 0 -0.165098 0 0 1 0 1 0 -1.53741e-7 -1 0 -1 0 0 0 1 0 0 1 0 0 -1 0 0 -1 0 1 0 0 0.9567727 0 0.2908371 0 0 -1 -0.8184401 0 0.5745919 -0.9567723 0 0.2908381 0.8184412 -3.66362e-6 0.5745903 0 1 0 0 -1 0 0 -1 0 0 -1 0 0.9567722 0 0.2908386 -0.8184401 3.14028e-6 0.5745918 -0.9567726 0 0.2908375 0.8184414 -4.187e-6 0.5745901 0.9567725 0 0.2908377 -0.8184415 3.66363e-6 0.5745899 -0.9567725 0 0.2908375 0.8184398 0 0.5745924 0.9567719 0 0.2908392 -0.818443 5.23376e-6 0.5745879 -0.9567722 6.35797e-6 0.2908386 0.8184403 0 0.5745915 -0.9567727 0 0.2908371 0.8184401 0 0.5745919 0.9567723 0 0.2908381 -0.8184412 -3.66362e-6 0.5745903 -0.9567722 0 0.2908386 0.8184401 3.14028e-6 0.5745918 0.9567726 0 0.2908375 -0.8184414 -4.187e-6 0.5745901 -0.9567725 0 0.2908377 0.8184415 3.66363e-6 0.5745899 0.9567725 0 0.2908375 -0.8184398 0 0.5745924 -0.9567719 0 0.2908392 0.818443 5.23376e-6 0.5745879 0.9567722 6.35797e-6 0.2908386 -0.8184403 0 0.5745915 0.9862774 -9.1892e-7 -0.1650976 0.999969 -8.25271e-7 0.007880091 -1.62396e-7 -0.9999776 0.00669986 -0.999969 0 0.007879912 0 0.9999777 0.006699919 1 -7.43366e-7 0 0 0.9900231 -0.1409057 -1.52447e-7 -0.9900231 -0.1409052 -0.9862774 0 -0.1650975 -1.41933e-7 0 1 0 1 0 -1.53738e-7 -1 0</float_array>
          <technique_common>
            <accessor source="#E_short-mesh-normals-array" count="67" stride="3">
              <param name="X" type="float"/>
              <param name="Y" type="float"/>
              <param name="Z" type="float"/>
            </accessor>
          </technique_common>
        </source>
        <source id="E_short-mesh-map-0">
          <float_array id="E_short-mesh-map-0-array" count="972">0.1251648 0.0604375 0.1685811 0.150085 0.1251648 0.150085 0.4003132 0.9153092 0.3038424 0.627589 0.4003132 0.627589 0.3038424 0.9153092 0.01714491 0.627589 0.3038424 0.627589 0.3979512 0.9153092 0.3031728 0.627589 0.3979512 0.627589 0.01647531 0.627589 0.3031728 0.9153092 0.01647531 0.9153092 0.1685811 0.0604375 0.1740833 0.150085 0.1685811 0.150085 0.1251648 0.1482521 0.1685811 0.4165613 0.1251648 0.4165613 0.1251648 0.150085 0.1685811 0.4171949 0.1251648 0.4171949 0.1251648 0.0604341 0.1685811 0.1482521 0.1251648 0.1482521 0.01716965 0.7664684 0.450393 0.6259212 0.4503931 0.7664682 0.1685811 0.1482521 0.1740833 0.4165613 0.1685811 0.4165613 0.1685811 0.150085 0.1740833 0.4171949 0.1685811 0.4171949 0.1685811 0.0604341 0.1740833 0.1482521 0.1685811 0.1482521 0.9573771 0.8728813 0.8346146 0.8736419 0.8990868 0.8254581 0.9561927 0.6817523 0.898495 0.7298942 0.833431 0.6825137 0.9573771 0.8728813 0.8990868 0.8254581 0.9268345 0.7775023 0.9561927 0.6817523 0.9268345 0.7775023 0.898495 0.7298942 0.9561927 0.6817523 0.9573771 0.8728813 0.9268345 0.7775023 0.9453594 0.6681249 0.8031257 0.6401358 0.9453594 0.6401358 0.9497641 0.867393 0.891769 0.8196099 0.827 0.8673931 0.9497641 0.6762605 0.827 0.6762604 0.8917691 0.7240436 0.9497641 0.867393 0.919813 0.7718267 0.891769 0.8196099 0.9497641 0.6762605 0.8917691 0.7240436 0.919813 0.7718267 0.9497641 0.867393 0.9497641 0.6762605 0.919813 0.7718267 0.8533404 0.6453739 0.7693202 0.6628868 0.8533404 0.6628868 0.8620354 0.6416894 0.839685 0.6665713 0.839685 0.6416894 0.772634 0.7036692 0.8620354 0.6045915 0.772634 0.6045915 0.8173347 0.6416894 0.7949844 0.6665713 0.7949844 0.6416894 0.7949844 0.6416894 0.772634 0.6665713 0.772634 0.6416894 0.839685 0.6416894 0.8173347 0.6665713 0.8173347 0.6416894 0.1690081 0.4394807 0.3052753 0.4628268 0.3052754 0.4394807 0.3052754 0.4394807 0.1700041 0.4628268 0.1700043 0.4394807 0.2950446 0.4817591 0.1676843 0.4963313 0.1676843 0.4817591 0.3062715 0.4394807 0.1705428 0.4628269 0.1705428 0.4394807 0.1700043 0.4394807 0.3062714 0.4628268 0.3062715 0.4394807 0.9573771 0.8728813 0.8346146 0.8736419 0.8990868 0.8254581 0.9561927 0.6817523 0.898495 0.7298942 0.833431 0.6825137 0.9573771 0.8728813 0.8990868 0.8254581 0.9268345 0.7775023 0.9561927 0.6817523 0.9268345 0.7775023 0.898495 0.7298942 0.9561927 0.6817523 0.9573771 0.8728813 0.9268345 0.7775023 0.9453594 0.6681249 0.8031257 0.6401358 0.9453594 0.6401358 0.9497641 0.867393 0.891769 0.8196099 0.827 0.8673931 0.9497641 0.6762605 0.827 0.6762604 0.8917691 0.7240436 0.9497641 0.867393 0.919813 0.7718267 0.891769 0.8196099 0.9497641 0.6762605 0.8917691 0.7240436 0.919813 0.7718267 0.9497641 0.867393 0.9497641 0.6762605 0.919813 0.7718267 0.8533404 0.6453739 0.7693202 0.6628868 0.8533404 0.6628868 0.8620354 0.6416894 0.839685 0.6665713 0.839685 0.6416894 0.772634 0.7036692 0.8620354 0.6045915 0.772634 0.6045915 0.8173347 0.6416894 0.7949844 0.6665713 0.7949844 0.6416894 0.7949844 0.6416894 0.772634 0.6665713 0.772634 0.6416894 0.839685 0.6416894 0.8173347 0.6665713 0.8173347 0.6416894 0.1690081 0.4394807 0.3052753 0.4628268 0.3052754 0.4394807 0.3052754 0.4394807 0.1700041 0.4628268 0.1700043 0.4394807 0.2950446 0.4817591 0.1676843 0.4963313 0.1676843 0.4817591 0.3062715 0.4394807 0.1705428 0.4628269 0.1705428 0.4394807 0.1700043 0.4394807 0.3062714 0.4628268 0.3062715 0.4394807 0.9453594 0.6681249 0.8031257 0.6681249 0.8031257 0.6401358 0.8533404 0.6453739 0.7693202 0.6453739 0.7693202 0.6628868 0.8620354 0.6416894 0.8620354 0.6665713 0.839685 0.6665713 0.772634 0.7036692 0.8620354 0.7036692 0.8620354 0.6045915 0.8173347 0.6416894 0.8173347 0.6665713 0.7949844 0.6665713 0.7949844 0.6416894 0.7949844 0.6665713 0.772634 0.6665713 0.839685 0.6416894 0.839685 0.6665713 0.8173347 0.6665713 0.1690081 0.4394807 0.1690081 0.4628268 0.3052753 0.4628268 0.3052754 0.4394807 0.3052753 0.4628268 0.1700041 0.4628268 0.2950446 0.4817591 0.2950446 0.4963313 0.1676843 0.4963313 0.3062715 0.4394807 0.3062714 0.4628268 0.1705428 0.4628269 0.1700043 0.4394807 0.1700041 0.4628268 0.3062714 0.4628268 0.9453594 0.6681249 0.8031257 0.6681249 0.8031257 0.6401358 0.8533404 0.6453739 0.7693202 0.6453739 0.7693202 0.6628868 0.8620354 0.6416894 0.8620354 0.6665713 0.839685 0.6665713 0.772634 0.7036692 0.8620354 0.7036692 0.8620354 0.6045915 0.8173347 0.6416894 0.8173347 0.6665713 0.7949844 0.6665713 0.7949844 0.6416894 0.7949844 0.6665713 0.772634 0.6665713 0.839685 0.6416894 0.839685 0.6665713 0.8173347 0.6665713 0.1690081 0.4394807 0.1690081 0.4628268 0.3052753 0.4628268 0.3052754 0.4394807 0.3052753 0.4628268 0.1700041 0.4628268 0.2950446 0.4817591 0.2950446 0.4963313 0.1676843 0.4963313 0.3062715 0.4394807 0.3062714 0.4628268 0.1705428 0.4628269 0.1700043 0.4394807 0.1700041 0.4628268 0.3062714 0.4628268 0.9573771 0.8728813 0.8990868 0.8254581 0.8346146 0.8736419 0.9561927 0.6817523 0.833431 0.6825137 0.898495 0.7298942 0.9573771 0.8728813 0.9268345 0.7775023 0.8990868 0.8254581 0.9561927 0.6817523 0.898495 0.7298942 0.9268345 0.7775023 0.9561927 0.6817523 0.9268345 0.7775023 0.9573771 0.8728813 0.9453594 0.6681249 0.9453594 0.6401358 0.8031257 0.6401358 0.9497641 0.867393 0.827 0.8673931 0.891769 0.8196099 0.9497641 0.6762605 0.8917691 0.7240436 0.827 0.6762604 0.9497641 0.867393 0.891769 0.8196099 0.919813 0.7718267 0.9497641 0.6762605 0.919813 0.7718267 0.8917691 0.7240436 0.9497641 0.867393 0.919813 0.7718267 0.9497641 0.6762605 0.8533404 0.6453739 0.8533404 0.6628868 0.7693202 0.6628868 0.8620354 0.6416894 0.839685 0.6416894 0.839685 0.6665713 0.772634 0.7036692 0.772634 0.6045915 0.8620354 0.6045915 0.8173347 0.6416894 0.7949844 0.6416894 0.7949844 0.6665713 0.7949844 0.6416894 0.772634 0.6416894 0.772634 0.6665713 0.839685 0.6416894 0.8173347 0.6416894 0.8173347 0.6665713 0.1690081 0.4394807 0.3052754 0.4394807 0.3052753 0.4628268 0.3052754 0.4394807 0.1700043 0.4394807 0.1700041 0.4628268 0.2950446 0.4817591 0.1676843 0.4817591 0.1676843 0.4963313 0.3062715 0.4394807 0.1705428 0.4394807 0.1705428 0.4628269 0.1700043 0.4394807 0.3062715 0.4394807 0.3062714 0.4628268 0.9573771 0.8728813 0.8990868 0.8254581 0.8346146 0.8736419 0.9561927 0.6817523 0.833431 0.6825137 0.898495 0.7298942 0.9573771 0.8728813 0.9268345 0.7775023 0.8990868 0.8254581 0.9561927 0.6817523 0.898495 0.7298942 0.9268345 0.7775023 0.9561927 0.6817523 0.9268345 0.7775023 0.9573771 0.8728813 0.9453594 0.6681249 0.9453594 0.6401358 0.8031257 0.6401358 0.9497641 0.867393 0.827 0.8673931 0.891769 0.8196099 0.9497641 0.6762605 0.8917691 0.7240436 0.827 0.6762604 0.9497641 0.867393 0.891769 0.8196099 0.919813 0.7718267 0.9497641 0.6762605 0.919813 0.7718267 0.8917691 0.7240436 0.9497641 0.867393 0.919813 0.7718267 0.9497641 0.6762605 0.8533404 0.6453739 0.8533404 0.6628868 0.7693202 0.6628868 0.8620354 0.6416894 0.839685 0.6416894 0.839685 0.6665713 0.772634 0.7036692 0.772634 0.6045915 0.8620354 0.6045915 0.8173347 0.6416894 0.7949844 0.6416894 0.7949844 0.6665713 0.7949844 0.6416894 0.772634 0.6416894 0.772634 0.6665713 0.839685 0.6416894 0.8173347 0.6416894 0.8173347 0.6665713 0.1690081 0.4394807 0.3052754 0.4394807 0.3052753 0.4628268 0.3052754 0.4394807 0.1700043 0.4394807 0.1700041 0.4628268 0.2950446 0.4817591 0.1676843 0.4817591 0.1676843 0.4963313 0.3062715 0.4394807 0.1705428 0.4394807 0.1705428 0.4628269 0.1700043 0.4394807 0.3062715 0.4394807 0.3062714 0.4628268 0.9453594 0.6681249 0.8031257 0.6401358 0.8031257 0.6681249 0.8533404 0.6453739 0.7693202 0.6628868 0.7693202 0.6453739 0.8620354 0.6416894 0.839685 0.6665713 0.8620354 0.6665713 0.772634 0.7036692 0.8620354 0.6045915 0.8620354 0.7036692 0.8173347 0.6416894 0.7949844 0.6665713 0.8173347 0.6665713 0.7949844 0.6416894 0.772634 0.6665713 0.7949844 0.6665713 0.839685 0.6416894 0.8173347 0.6665713 0.839685 0.6665713 0.1690081 0.4394807 0.3052753 0.4628268 0.1690081 0.4628268 0.3052754 0.4394807 0.1700041 0.4628268 0.3052753 0.4628268 0.2950446 0.4817591 0.1676843 0.4963313 0.2950446 0.4963313 0.3062715 0.4394807 0.1705428 0.4628269 0.3062714 0.4628268 0.1700043 0.4394807 0.3062714 0.4628268 0.1700041 0.4628268 0.9453594 0.6681249 0.8031257 0.6401358 0.8031257 0.6681249 0.8533404 0.6453739 0.7693202 0.6628868 0.7693202 0.6453739 0.8620354 0.6416894 0.839685 0.6665713 0.8620354 0.6665713 0.772634 0.7036692 0.8620354 0.6045915 0.8620354 0.7036692 0.8173347 0.6416894 0.7949844 0.6665713 0.8173347 0.6665713 0.7949844 0.6416894 0.772634 0.6665713 0.7949844 0.6665713 0.839685 0.6416894 0.8173347 0.6665713 0.839685 0.6665713 0.1690081 0.4394807 0.3052753 0.4628268 0.1690081 0.4628268 0.3052754 0.4394807 0.1700041 0.4628268 0.3052753 0.4628268 0.2950446 0.4817591 0.1676843 0.4963313 0.2950446 0.4963313 0.3062715 0.4394807 0.1705428 0.4628269 0.3062714 0.4628268 0.1700043 0.4394807 0.3062714 0.4628268 0.1700041 0.4628268 0.1251648 0.0604375 0.1685811 0.0604375 0.1685811 0.150085 0.4003132 0.9153092 0.3038424 0.9153092 0.3038424 0.627589 0.3038424 0.9153092 0.01714491 0.9153092 0.01714491 0.627589 0.3979512 0.9153092 0.3031728 0.9153092 0.3031728 0.627589 0.01647531 0.627589 0.3031728 0.627589 0.3031728 0.9153092 0.1685811 0.0604375 0.1740833 0.0604375 0.1740833 0.150085 0.1251648 0.1482521 0.1685811 0.1482521 0.1685811 0.4165613 0.1251648 0.150085 0.1685811 0.150085 0.1685811 0.4171949 0.1251648 0.0604341 0.1685811 0.0604341 0.1685811 0.1482521 0.01716965 0.7664684 0.01716965 0.6259213 0.450393 0.6259212 0.1685811 0.1482521 0.1740833 0.1482521 0.1740833 0.4165613 0.1685811 0.150085 0.1740833 0.150085 0.1740833 0.4171949 0.1685811 0.0604341 0.1740833 0.0604341 0.1740833 0.1482521</float_array>
          <technique_common>
            <accessor source="#E_short-mesh-map-0-array" count="486" stride="2">
              <param name="S" type="float"/>
              <param name="T" type="float"/>
            </accessor>
          </technique_common>
        </source>
        <source id="E_short-mesh-map-1">
          <float_array id="E_short-mesh-map-1-array" count="972">0.7183693 0.06120228 0.8253632 0.006191849 0.8174255 0.06120234 0.7183693 0.06120228 0.8213409 0.6445941 0.7144534 0.6445941 0.3647418 0.06203728 0.7049411 0.6464112 0.3601363 0.6464112 0.834061 0.06120228 0.9370328 0.6445941 0.8301453 0.6445941 0.3499153 0.6464112 0.009715914 0.06203728 0.3453099 0.06203728 0.7104317 0.006191849 0.8253632 3.80109e-4 0.8253632 0.006191849 0.009715914 0.06203728 0.3546457 0.006205022 0.3453099 0.06203728 0.3647418 0.06203728 0.7096716 0.006205022 0.7003358 0.06203728 0.834061 0.06120228 0.9410548 0.00619179 0.9331172 0.06120228 0.7104317 0.6453543 0.8253632 0.99962 0.7104317 0.99962 3.80097e-4 0.006205022 0.3546457 3.80075e-4 0.3546457 0.006205022 0.3554059 0.006205022 0.7096716 3.80075e-4 0.7096716 0.006205022 0.8261233 0.00619179 0.9410548 3.80075e-4 0.9410548 0.00619179 0.2464358 0.7418736 0.2464358 0.6471713 0.2616242 0.6971353 0.3071895 0.7418736 0.2920011 0.6971353 0.3071895 0.6471713 0.2464358 0.7418736 0.2616242 0.6971353 0.2768127 0.7187689 0.3071895 0.7418736 0.2768127 0.7187689 0.2920011 0.6971353 0.3071895 0.7418736 0.2464358 0.7418736 0.2768127 0.7187689 0.6212263 0.8124882 0.6392129 0.7180007 0.6392129 0.8124882 0.3687034 0.7418736 0.353515 0.6971353 0.3687034 0.6471714 0.3079497 0.7418736 0.3079497 0.6471714 0.3231381 0.6971353 0.3687034 0.7418736 0.3383266 0.7187689 0.353515 0.6971353 0.3079497 0.7418736 0.3231381 0.6971353 0.3383266 0.7187689 0.3687034 0.7418736 0.3079497 0.7418736 0.3383266 0.7187689 0.6024795 0.8124883 0.6204661 0.7180008 0.6204661 0.8124883 0.150354 0.7426337 0.1683406 0.7935136 0.150354 0.7935136 0.2651826 0.8033875 0.2831691 0.7426338 0.2831691 0.8033875 0.09335362 0.8161275 0.07536703 0.7935137 0.09335362 0.7935137 0.09335362 0.7935137 0.07536703 0.7426338 0.09335362 0.7426338 0.150354 0.7935136 0.1683406 0.8161273 0.150354 0.8161273 0.5440034 0.7880699 0.5186275 0.7180007 0.5440034 0.7180007 0.3279944 0.77221 0.302676 0.7426338 0.3279944 0.7426338 0.5827404 0.7172405 0.5531641 0.6471714 0.5827404 0.6471714 0.4323087 0.77221 0.4069903 0.7426338 0.4323087 0.7426338 0.5701395 0.7880699 0.5447636 0.7180008 0.5701395 0.7180008 3.80086e-4 0.7418736 3.80086e-4 0.6471713 0.01556855 0.6971353 0.0611338 0.7418736 0.0459454 0.6971353 0.0611338 0.6471713 3.80086e-4 0.7418736 0.01556855 0.6971353 0.030757 0.7187689 0.0611338 0.7418736 0.030757 0.7187689 0.0459454 0.6971353 0.0611338 0.7418736 3.80086e-4 0.7418736 0.030757 0.7187689 0.6661092 0.8124883 0.6840957 0.7180008 0.6840957 0.8124883 0.1226478 0.7418736 0.1074593 0.6971353 0.1226478 0.6471714 0.06189399 0.7418736 0.06189399 0.6471714 0.07708245 0.6971353 0.1226478 0.7418736 0.09227085 0.7187689 0.1074593 0.6971353 0.06189399 0.7418736 0.07708245 0.6971353 0.09227085 0.7187689 0.1226478 0.7418736 0.06189399 0.7418736 0.09227085 0.7187689 0.6848559 0.8124882 0.7028424 0.7180007 0.7028424 0.8124882 0.09411376 0.7426337 0.1121004 0.7935137 0.09411376 0.7935137 0.225341 0.8033875 0.2433275 0.7426338 0.2433275 0.8033875 0.1870873 0.8161273 0.1691007 0.7935136 0.1870873 0.7935136 0.1870873 0.7935136 0.1691007 0.7426337 0.1870873 0.7426337 0.09411376 0.7935137 0.1121004 0.8161274 0.09411376 0.8161274 0.691485 0.7172406 0.6661091 0.6471714 0.691485 0.6471714 0.3540731 0.77221 0.3287547 0.7426338 0.3540731 0.7426338 0.5220676 0.7172406 0.4924913 0.6471714 0.5220676 0.6471714 0.4583871 0.77221 0.4330688 0.7426338 0.4583871 0.7426338 0.639213 0.7172406 0.613837 0.6471714 0.639213 0.6471714 0.6212263 0.8124882 0.6212263 0.7180007 0.6392129 0.7180007 0.6024795 0.8124883 0.6024795 0.7180008 0.6204661 0.7180008 0.150354 0.7426337 0.1683406 0.7426337 0.1683406 0.7935136 0.2651826 0.8033875 0.2651826 0.7426338 0.2831691 0.7426338 0.09335362 0.8161275 0.07536703 0.8161275 0.07536703 0.7935137 0.09335362 0.7935137 0.07536703 0.7935137 0.07536703 0.7426338 0.150354 0.7935136 0.1683406 0.7935136 0.1683406 0.8161273 0.5440034 0.7880699 0.5186275 0.7880699 0.5186275 0.7180007 0.3279944 0.77221 0.302676 0.77221 0.302676 0.7426338 0.5827404 0.7172405 0.5531641 0.7172405 0.5531641 0.6471714 0.4323087 0.77221 0.4069903 0.77221 0.4069903 0.7426338 0.5701395 0.7880699 0.5447636 0.7880699 0.5447636 0.7180008 0.6661092 0.8124883 0.6661092 0.7180008 0.6840957 0.7180008 0.6848559 0.8124882 0.6848559 0.7180007 0.7028424 0.7180007 0.09411376 0.7426337 0.1121004 0.7426337 0.1121004 0.7935137 0.225341 0.8033875 0.225341 0.7426338 0.2433275 0.7426338 0.1870873 0.8161273 0.1691007 0.8161273 0.1691007 0.7935136 0.1870873 0.7935136 0.1691007 0.7935136 0.1691007 0.7426337 0.09411376 0.7935137 0.1121004 0.7935137 0.1121004 0.8161274 0.691485 0.7172406 0.666109 0.7172406 0.6661091 0.6471714 0.3540731 0.77221 0.3287547 0.77221 0.3287547 0.7426338 0.5220676 0.7172406 0.4924913 0.7172406 0.4924913 0.6471714 0.4583871 0.77221 0.4330688 0.77221 0.4330688 0.7426338 0.639213 0.7172406 0.613837 0.7172406 0.613837 0.6471714 0.4302173 0.7418736 0.4150289 0.6971353 0.4302173 0.6471713 0.3694636 0.7418736 0.3694636 0.6471713 0.384652 0.6971353 0.4302173 0.7418736 0.3998404 0.7187689 0.4150289 0.6971353 0.3694636 0.7418736 0.384652 0.6971353 0.3998404 0.7187689 0.3694636 0.7418736 0.3998404 0.7187689 0.4302173 0.7418736 0.01836663 0.8371212 3.80084e-4 0.8371212 3.80084e-4 0.7426337 0.4309775 0.7418736 0.4309775 0.6471714 0.4461659 0.6971353 0.4917312 0.7418736 0.4765428 0.6971353 0.4917312 0.6471714 0.4309775 0.7418736 0.4461659 0.6971353 0.4613543 0.7187689 0.4917312 0.7418736 0.4613543 0.7187689 0.4765428 0.6971353 0.4309775 0.7418736 0.4613543 0.7187689 0.4917312 0.7418736 0.03711336 0.8371213 0.01912677 0.8371213 0.01912677 0.7426337 0.2058341 0.7426337 0.2058341 0.7935136 0.1878475 0.7935136 0.2839293 0.7426337 0.3019158 0.7426337 0.3019158 0.8033875 0.1128605 0.8161275 0.1128605 0.7935137 0.1308471 0.7935137 0.1128605 0.7935137 0.1128605 0.7426338 0.1308471 0.7426338 0.2058341 0.7935136 0.2058341 0.8161273 0.1878475 0.8161273 0.5962756 0.7180008 0.5962756 0.7880699 0.5708997 0.7880699 0.3801515 0.7426338 0.3801515 0.77221 0.3548331 0.77221 0.6130768 0.6471713 0.6130768 0.7172405 0.5835006 0.7172405 0.4844658 0.7426338 0.4844658 0.77221 0.4591474 0.77221 0.665349 0.7180008 0.665349 0.78807 0.6399731 0.78807 0.1841617 0.7418736 0.1689732 0.6971353 0.1841617 0.6471713 0.1234079 0.7418736 0.1234079 0.6471713 0.1385963 0.6971353 0.1841617 0.7418736 0.1537847 0.7187689 0.1689732 0.6971353 0.1234079 0.7418736 0.1385963 0.6971353 0.1537847 0.7187689 0.1234079 0.7418736 0.1537847 0.7187689 0.1841617 0.7418736 0.0558601 0.8371213 0.03787356 0.8371213 0.03787356 0.7426337 0.1849219 0.7418736 0.1849219 0.6471714 0.2001103 0.6971353 0.2456756 0.7418736 0.2304871 0.6971353 0.2456756 0.6471714 0.1849219 0.7418736 0.2001103 0.6971353 0.2152987 0.7187689 0.2456756 0.7418736 0.2152987 0.7187689 0.2304871 0.6971353 0.1849219 0.7418736 0.2152987 0.7187689 0.2456756 0.7418736 0.07460683 0.8371212 0.05662029 0.8371212 0.05662029 0.7426337 0.1495938 0.7426337 0.1495938 0.7935137 0.1316072 0.7935137 0.2464358 0.7426337 0.2644224 0.7426337 0.2644224 0.8033875 0.2065942 0.8161273 0.2065942 0.7935136 0.2245808 0.7935136 0.2065942 0.7935136 0.2065942 0.7426337 0.2245808 0.7426337 0.1495938 0.7935137 0.1495938 0.8161274 0.1316072 0.8161274 0.6653491 0.6471714 0.6653491 0.7172406 0.6399731 0.7172406 0.4062302 0.7426337 0.4062302 0.77221 0.3809118 0.77221 0.552404 0.6471714 0.552404 0.7172406 0.5228278 0.7172406 0.3279944 0.7729701 0.3279944 0.8025465 0.302676 0.8025464 0.5178673 0.7180008 0.5178673 0.78807 0.4924914 0.78807 0.01836663 0.8371212 3.80084e-4 0.7426337 0.01836663 0.7426337 0.03711336 0.8371213 0.01912677 0.7426337 0.03711336 0.7426337 0.2058341 0.7426337 0.1878475 0.7935136 0.1878475 0.7426337 0.2839293 0.7426337 0.3019158 0.8033875 0.2839293 0.8033875 0.1128605 0.8161275 0.1308471 0.7935137 0.1308471 0.8161275 0.1128605 0.7935137 0.1308471 0.7426338 0.1308471 0.7935137 0.2058341 0.7935136 0.1878475 0.8161273 0.1878475 0.7935136 0.5962756 0.7180008 0.5708997 0.7880699 0.5708997 0.7180008 0.3801515 0.7426338 0.3548331 0.77221 0.3548331 0.7426338 0.6130768 0.6471713 0.5835006 0.7172405 0.5835006 0.6471713 0.4844658 0.7426338 0.4591474 0.77221 0.4591474 0.7426338 0.665349 0.7180008 0.6399731 0.78807 0.6399731 0.7180008 0.0558601 0.8371213 0.03787356 0.7426337 0.0558601 0.7426337 0.07460683 0.8371212 0.05662029 0.7426337 0.07460683 0.7426337 0.1495938 0.7426337 0.1316072 0.7935137 0.1316072 0.7426337 0.2464358 0.7426337 0.2644224 0.8033875 0.2464358 0.8033875 0.2065942 0.8161273 0.2245808 0.7935136 0.2245808 0.8161273 0.2065942 0.7935136 0.2245808 0.7426337 0.2245808 0.7935136 0.1495938 0.7935137 0.1316072 0.8161274 0.1316072 0.7935137 0.6653491 0.6471714 0.6399731 0.7172406 0.6399731 0.6471714 0.4062302 0.7426337 0.3809118 0.77221 0.3809118 0.7426337 0.552404 0.6471714 0.5228278 0.7172406 0.5228278 0.6471714 0.3279944 0.7729701 0.302676 0.8025464 0.302676 0.7729701 0.5178673 0.7180008 0.4924914 0.78807 0.4924914 0.7180008 0.7183693 0.06120228 0.7104317 0.006191849 0.8253632 0.006191849 0.7183693 0.06120228 0.8174255 0.06120234 0.8213409 0.6445941 0.3647418 0.06203728 0.7003358 0.06203728 0.7049411 0.6464112 0.834061 0.06120228 0.9331172 0.06120228 0.9370328 0.6445941 0.3499153 0.6464112 0.005110561 0.6464112 0.009715914 0.06203728 0.7104317 0.006191849 0.7104317 3.80112e-4 0.8253632 3.80109e-4 0.009715914 0.06203728 3.80097e-4 0.006205022 0.3546457 0.006205022 0.3647418 0.06203728 0.3554059 0.006205022 0.7096716 0.006205022 0.834061 0.06120228 0.8261233 0.00619179 0.9410548 0.00619179 0.7104317 0.6453543 0.8253632 0.6453543 0.8253632 0.99962 3.80097e-4 0.006205022 3.80097e-4 3.80075e-4 0.3546457 3.80075e-4 0.3554059 0.006205022 0.3554059 3.80075e-4 0.7096716 3.80075e-4 0.8261233 0.00619179 0.8261233 3.80075e-4 0.9410548 3.80075e-4</float_array>
          <technique_common>
            <accessor source="#E_short-mesh-map-1-array" count="486" stride="2">
              <param name="S" type="float"/>
              <param name="T" type="float"/>
            </accessor>
          </technique_common>
        </source>
        <vertices id="E_short-mesh-vertices">
          <input semantic="POSITION" source="#E_short-mesh-positions"/>
        </vertices>
        <triangles material="Material_005-material" count="162">
          <input semantic="VERTEX" source="#E_short-mesh-vertices" offset="0"/>
          <input semantic="NORMAL" source="#E_short-mesh-normals" offset="1"/>
          <input semantic="TEXCOORD" source="#E_short-mesh-map-0" offset="2" set="0"/>
          <input semantic="TEXCOORD" source="#E_short-mesh-map-1" offset="2" set="1"/>
          <p>4 0 0 9 0 1 5 0 2 4 1 3 1 1 4 0 1 5 5 2 6 2 2 7 1 2 8 6 3 9 3 3 10 2 3 11 0 4 12 7 4 13 4 4 14 8 5 15 13 5 16 9 5 17 7 6 18 8 6 19 4 6 20 5 7 21 10 7 22 6 7 23 6 8 24 11 8 25 7 8 26 15 9 27 13 9 28 12 9 29 11 10 30 12 10 31 8 10 32 9 11 33 14 11 34 10 11 35 10 12 36 15 12 37 11 12 38 18 13 39 22 13 40 28 13 41 16 13 42 27 13 43 20 13 44 18 14 45 28 14 46 24 14 47 16 13 48 24 13 49 27 13 50 16 13 51 18 13 52 24 13 53 19 12 54 22 12 55 18 12 56 19 15 57 29 15 58 23 15 59 17 15 60 21 15 61 26 15 62 19 15 63 25 15 64 29 15 65 17 15 66 26 15 67 25 15 68 19 16 69 17 16 70 25 16 71 16 17 72 21 17 73 17 17 74 22 18 75 29 18 76 28 18 77 17 19 78 18 19 79 16 19 80 24 20 81 26 20 82 27 20 83 27 21 84 21 21 85 20 21 86 28 22 87 25 22 88 24 22 89 33 13 90 34 13 91 30 13 92 30 17 93 35 17 94 31 17 95 37 9 96 35 9 97 34 9 98 32 12 99 37 12 100 33 12 101 31 15 102 36 15 103 32 15 104 40 13 105 44 13 106 50 13 107 38 13 108 49 13 109 42 13 110 40 13 111 50 13 112 46 13 113 38 13 114 46 13 115 49 13 116 38 23 117 40 23 118 46 23 119 41 12 120 44 12 121 40 12 122 41 15 123 51 15 124 45 15 125 39 15 126 43 15 127 48 15 128 41 24 129 47 24 130 51 24 131 39 25 132 48 25 133 47 25 134 41 26 135 39 26 136 47 26 137 38 17 138 43 17 139 39 17 140 44 27 141 51 27 142 50 27 143 39 19 144 40 19 145 38 19 146 46 28 147 48 28 148 49 28 149 49 29 150 43 29 151 42 29 152 50 30 153 47 30 154 46 30 155 55 13 156 56 13 157 52 13 158 52 17 159 57 17 160 53 17 161 59 9 162 57 9 163 56 9 164 54 12 165 59 12 166 55 12 167 53 15 168 58 15 169 54 15 170 19 12 171 23 12 172 22 12 173 16 17 174 20 17 175 21 17 176 22 31 177 23 31 178 29 31 179 17 19 180 19 19 181 18 19 182 24 32 183 25 32 184 26 32 185 27 33 186 26 33 187 21 33 188 28 34 189 29 34 190 25 34 191 33 13 192 37 13 193 34 13 194 30 17 195 34 17 196 35 17 197 37 9 198 36 9 199 35 9 200 32 12 201 36 12 202 37 12 203 31 15 204 35 15 205 36 15 206 41 12 207 45 12 208 44 12 209 38 17 210 42 17 211 43 17 212 44 35 213 45 35 214 51 35 215 39 19 216 41 19 217 40 19 218 46 36 219 47 36 220 48 36 221 49 37 222 48 37 223 43 37 224 50 38 225 51 38 226 47 38 227 55 13 228 59 13 229 56 13 230 52 17 231 56 17 232 57 17 233 59 9 234 58 9 235 57 9 236 54 12 237 58 12 238 59 12 239 53 15 240 57 15 241 58 15 242 62 13 243 72 13 244 66 13 245 60 13 246 64 13 247 71 13 248 62 14 249 68 14 250 72 14 251 60 13 252 71 13 253 68 13 254 60 13 255 68 13 256 62 13 257 63 17 258 62 17 259 66 17 260 63 15 261 67 15 262 73 15 263 61 15 264 70 15 265 65 15 266 63 15 267 73 15 268 69 15 269 61 15 270 69 15 271 70 15 272 63 16 273 69 16 274 61 16 275 60 12 276 61 12 277 65 12 278 66 39 279 72 39 280 73 39 281 61 19 282 60 19 283 62 19 284 68 40 285 71 40 286 70 40 287 71 41 288 64 41 289 65 41 290 72 42 291 68 42 292 69 42 293 77 13 294 74 13 295 78 13 296 74 12 297 75 12 298 79 12 299 81 9 300 78 9 301 79 9 302 76 17 303 77 17 304 81 17 305 75 15 306 76 15 307 80 15 308 84 13 309 94 13 310 88 13 311 82 13 312 86 13 313 93 13 314 84 13 315 90 13 316 94 13 317 82 13 318 93 13 319 90 13 320 82 23 321 90 23 322 84 23 323 85 17 324 84 17 325 88 17 326 85 15 327 89 15 328 95 15 329 83 15 330 92 15 331 87 15 332 85 24 333 95 24 334 91 24 335 83 25 336 91 25 337 92 25 338 85 26 339 91 26 340 83 26 341 82 12 342 83 12 343 87 12 344 88 43 345 94 43 346 95 43 347 83 19 348 82 19 349 84 19 350 90 44 351 93 44 352 92 44 353 93 45 354 86 45 355 87 45 356 94 46 357 90 46 358 91 46 359 99 13 360 96 13 361 100 13 362 96 12 363 97 12 364 101 12 365 103 9 366 100 9 367 101 9 368 98 17 369 99 17 370 103 17 371 97 15 372 98 15 373 102 15 374 63 17 375 66 17 376 67 17 377 60 12 378 65 12 379 64 12 380 66 47 381 73 47 382 67 47 383 61 19 384 62 19 385 63 19 386 68 48 387 70 48 388 69 48 389 71 49 390 65 49 391 70 49 392 72 50 393 69 50 394 73 50 395 77 13 396 78 13 397 81 13 398 74 12 399 79 12 400 78 12 401 81 9 402 79 9 403 80 9 404 76 17 405 81 17 406 80 17 407 75 15 408 80 15 409 79 15 410 85 17 411 88 17 412 89 17 413 82 12 414 87 12 415 86 12 416 88 51 417 95 51 418 89 51 419 83 19 420 84 19 421 85 19 422 90 52 423 92 52 424 91 52 425 93 53 426 87 53 427 92 53 428 94 54 429 91 54 430 95 54 431 99 13 432 100 13 433 103 13 434 96 12 435 101 12 436 100 12 437 103 9 438 101 9 439 102 9 440 98 17 441 103 17 442 102 17 443 97 15 444 102 15 445 101 15 446 4 55 447 8 55 448 9 55 449 4 56 450 5 56 451 1 56 452 5 57 453 6 57 454 2 57 455 6 58 456 7 58 457 3 58 458 0 59 459 3 59 460 7 59 461 8 60 462 12 60 463 13 60 464 7 61 465 11 61 466 8 61 467 5 62 468 9 62 469 10 62 470 6 63 471 10 63 472 11 63 473 15 64 474 14 64 475 13 64 476 11 65 477 15 65 478 12 65 479 9 66 480 13 66 481 14 66 482 10 12 483 14 12 484 15 12 485</p>
        </triangles>
      </mesh>
    </geometry>
  </library_geometries>
  <library_visual_scenes>
    <visual_scene id="Scene" name="Scene">
      <node id="E_short" name="E_short" type="NODE">
        <matrix sid="transform">3.791188 0 0 0 0 1.579662 0 0 0 0 1.579662 0 0 0 0 1</matrix>
        <instance_geometry url="#E_short-mesh" name="E_short">
          <bind_material>
            <technique_common>
              <instance_material symbol="Material_005-material" target="#Material_005-material">
                <bind_vertex_input semantic="E_short-mesh-map-0" input_semantic="TEXCOORD" input_set="0"/>
                <bind_vertex_input semantic="E_short-mesh-map-1" input_semantic="TEXCOORD" input_set="1"/>
              </instance_material>
            </technique_common>
          </bind_material>
        </instance_geometry>
      </node>
    </visual_scene>
  </library_visual_scenes>
  <scene>
    <instance_visual_scene url="#Scene"/>
  </scene>
</COLLADA>