<?xml version="1.0" encoding="utf-8"?>
<COLLADA xmlns="http://www.collada.org/2005/11/COLLADASchema" version="1.4.1" xmlns:xsi="http://www.w3.org/2001/XMLSchema-instance">
  <asset>
    <contributor>
      <author>Blender User</author>
      <authoring_tool>Blender 2.80.75 commit date:2019-07-29, commit time:14:47, hash:f6cb5f54494e</authoring_tool>
    </contributor>
    <created>2026-04-11T14:01:46</created>
    <modified>2026-04-11T14:01:46</modified>
    <unit name="meter" meter="1"/>
    <up_axis>Z_UP</up_axis>
  </asset>
  <library_effects/>
  <library_images/>
  <library_geometries>
    <geometry id="gerron_b_f-Geometry-mesh" name="gerron_b_f-Geometry">
      <mesh>
        <source id="gerron_b_f-Geometry-mesh-positions">
          <float_array id="gerron_b_f-Geometry-mesh-positions-array" count="129">0.435636 -0.02588695 -0.1782333 0.001225948 -0.2415159 -0.06160646 0.534045 -0.02525293 -0.5832661 0.490444 -0.02525293 -0.2423084 0.647956 -0.02525293 -0.3963866 0.416326 -0.02629399 -0.06483942 0.437985 -0.02588695 0.05197501 0.59615 -0.02525293 0.1253023 0.675307 -0.02525293 0.08165913 0.647956 -0.02525293 0.2741255 0.534045 -0.02525293 0.4610051 0.364274 -0.02525293 0.577007 0.172761 -0.02525293 0.6217859 0.172761 -0.02525293 0.6217859 -1.1e-4 -0.02525293 0.6404969 -0.172982 -0.02525293 0.6217859 -0.364432 -0.02525293 0.5770062 -0.534141 -0.02525293 0.4610051 -0.648115 -0.02525293 0.2741255 -0.506914 -0.02525293 0.11947 -0.438912 -0.02588695 0.05197501 -0.675527 -0.02525293 0.08165913 -0.595979 -0.02525293 0.1253023 -0.4066 -0.02629399 -0.06483942 -0.436563 -0.02588695 -0.1782333 -0.648115 -0.02525293 -0.3963866 -0.50203 -0.02525293 -0.2423084 -0.593537 -0.02525293 -0.2449719 -0.534141 -0.02525293 -0.5832661 -0.364432 -0.02525293 -0.6992681 -0.172982 -0.02525293 -0.7440478 -1.1e-4 -0.02525293 -0.762758 0.172762 -0.02525293 -0.744047 0.364274 -0.02525293 -0.6992681 0.593708 -0.02525293 -0.2449719 -0.002051949 -0.328951 -0.08897 0.298267 -0.097943 -0.07041996 -0.002306938 -0.162946 0.21476 -0.302371 -0.097943 -0.07041996 -0.002052903 -0.162946 -0.374184 0.495328 -0.02525293 0.1194708 -0.675527 -0.02525293 -0.1937248 0.675307 -0.02525293 -0.1937248</float_array>
          <technique_common>
            <accessor source="#gerron_b_f-Geometry-mesh-positions-array" count="43" stride="3">
              <param name="X" type="float"/>
              <param name="Y" type="float"/>
              <param name="Z" type="float"/>
            </accessor>
          </technique_common>
        </source>
        <source id="gerron_b_f-Geometry-mesh-normals">
          <float_array id="gerron_b_f-Geometry-mesh-normals-array" count="120">0.4111835 -0.9073933 0.08697932 -0.006531119 -0.9999694 -0.004333734 0.1879991 -0.9776871 -0.09372484 0.008728444 -0.9999614 0.001098632 0 -1 0 0.4582435 -0.8850471 -0.08188074 0 -1 0 0.1598271 -0.9590316 0.23391 0.04184198 -0.5990644 0.7996069 0.01889139 -0.5673535 0.8232577 0.03185176 -0.9551886 0.2942793 -0.06678253 -0.956043 0.2855207 -0.1878117 -0.9776645 0.09433311 -0.006378412 -0.9999796 -4.88301e-4 -0.01012313 -0.9999485 -8.07008e-4 -0.4593315 -0.8819688 -0.105573 -0.4641225 -0.8776748 0.1194883 0 -1 0 -0.1597312 -0.9591026 -0.2336842 -0.03187769 -0.9551095 -0.294533 0.06689423 -0.9558634 -0.2860954 0.542119 -0.7371643 0.4033557 -0.5423575 -0.7374124 0.4025807 -0.5711867 -0.7094081 -0.4128996 0.5711861 -0.7094067 -0.4129027 -0.1595731 -0.9591848 0.2334545 0.4872773 -0.7727469 -0.4067224 0.4938113 -0.7201737 -0.4873401 0.2434717 -0.9584869 0.1484063 0.1167349 -0.9589662 0.2583734 -0.0318396 -0.955223 0.2941687 -0.4623015 -0.877894 -0.1248179 0.460262 -0.8877767 -0.003387629 0 -1 0 0 -1 0 -0.01066625 -0.9999426 0.001004517 -0.4626123 -0.879701 0.1100728 -0.06686282 -0.9559348 -0.2858638 0.03189098 -0.9550749 -0.2946438 0.1168874 -0.9588736 -0.2586477</float_array>
          <technique_common>
            <accessor source="#gerron_b_f-Geometry-mesh-normals-array" count="40" stride="3">
              <param name="X" type="float"/>
              <param name="Y" type="float"/>
              <param name="Z" type="float"/>
            </accessor>
          </technique_common>
        </source>
        <source id="gerron_b_f-Geometry-mesh-map-0">
          <float_array id="gerron_b_f-Geometry-mesh-map-0-array" count="246">0.822254 0.416633 0.500988 0.499661 0.895031 0.128283 0.862786 0.371016 0.822254 0.416633 0.895031 0.128283 0.862786 0.371016 0.895031 0.128283 0.979274 0.261326 0.807973 0.49736 0.823991 0.580522 0.500988 0.499661 0.940961 0.632725 0.999501 0.601654 0.979274 0.738674 0.500988 0.499661 0.895031 0.871717 0.769478 0.954301 0.500988 0.499661 0.627846 0.98618 0.627846 0.98618 0.627846 0.98618 0.5 0.9995 0.500988 0.499661 0.372154 0.98618 0.230568 0.954301 0.500988 0.499661 0.105061 0.871717 0.02077198 0.738674 0.125196 0.628573 0.105061 0.871717 0.125196 0.628573 0.175487 0.580522 0.105061 0.871717 0.175487 0.580522 0.500988 0.499661 0.02077198 0.738674 4.99e-4 0.601654 0.05932897 0.632725 0.199383 0.49736 0.177224 0.416633 0.500988 0.499661 0.02077198 0.261326 0.128808 0.371016 0.06113499 0.36912 0.105061 0.128283 0.230568 0.045699 0.500988 0.499661 0.372154 0.01381999 0.5 5e-4 0.500988 0.499661 0.627846 0.01381999 0.769478 0.045699 0.500988 0.499661 0.979274 0.261326 0.939155 0.36912 0.862786 0.371016 0.498564 0.493355 0.720663 0.503815 0.498376 0.66461 0.498564 0.493355 0.498376 0.66461 0.276465 0.503815 0.498564 0.493355 0.276465 0.503815 0.498564 0.332541 0.498564 0.493355 0.498564 0.332541 0.720663 0.503815 0.500988 0.499661 0.230568 0.954301 0.105061 0.871717 0.500988 0.499661 0.823991 0.580522 0.866399 0.628573 0.500988 0.499661 0.866399 0.628573 0.979274 0.738674 0.500988 0.499661 0.979274 0.738674 0.895031 0.871717 0.500988 0.499661 0.769478 0.954301 0.627846 0.98618 0.500988 0.499661 0.5 0.9995 0.372154 0.98618 0.500988 0.499661 0.175487 0.580522 0.199383 0.49736 0.500988 0.499661 0.822254 0.416633 0.807973 0.49736 0.05932897 0.632725 0.125196 0.628573 0.02077198 0.738674 0.06113499 0.36912 4.99e-4 0.405604 0.02077198 0.261326 0.128808 0.371016 0.02077198 0.261326 0.105061 0.128283 0.177224 0.416633 0.128808 0.371016 0.105061 0.128283 0.500988 0.499661 0.177224 0.416633 0.105061 0.128283 0.500988 0.499661 0.230568 0.045699 0.372154 0.01381999 0.500988 0.499661 0.5 5e-4 0.627846 0.01381999 0.500988 0.499661 0.769478 0.045699 0.895031 0.128283 0.979274 0.261326 0.999501 0.405604 0.939155 0.36912 0.979274 0.738674 0.866399 0.628573 0.940961 0.632725</float_array>
          <technique_common>
            <accessor source="#gerron_b_f-Geometry-mesh-map-0-array" count="123" stride="2">
              <param name="S" type="float"/>
              <param name="T" type="float"/>
            </accessor>
          </technique_common>
        </source>
        <vertices id="gerron_b_f-Geometry-mesh-vertices">
          <input semantic="POSITION" source="#gerron_b_f-Geometry-mesh-positions"/>
        </vertices>
        <triangles count="41">
          <input semantic="VERTEX" source="#gerron_b_f-Geometry-mesh-vertices" offset="0"/>
          <input semantic="NORMAL" source="#gerron_b_f-Geometry-mesh-normals" offset="1"/>
          <input semantic="TEXCOORD" source="#gerron_b_f-Geometry-mesh-map-0" offset="2" set="0"/>
          <p>0 0 0 1 1 1 2 2 2 3 3 3 0 0 4 2 2 5 3 3 6 2 2 7 4 4 8 5 5 9 6 5 10 1 5 11 7 6 12 8 6 13 9 6 14 1 7 15 10 7 16 11 7 17 1 1 18 12 8 19 13 9 20 13 10 21 14 10 22 1 10 23 15 11 24 16 11 25 1 11 26 17 12 27 18 4 28 19 13 29 17 14 30 19 14 31 20 14 32 17 15 33 20 15 34 1 15 35 18 4 36 21 4 37 22 4 38 23 16 39 24 16 40 1 16 41 25 17 42 26 17 43 27 17 44 28 18 45 29 18 46 1 18 47 30 19 48 31 19 49 1 19 50 32 20 51 33 20 52 1 20 53 4 4 54 34 4 55 3 4 56 35 21 57 36 21 58 37 21 59 35 22 60 37 22 61 38 22 62 35 23 63 38 23 64 39 23 65 35 24 66 39 24 67 36 24 68 1 25 69 16 25 70 17 25 71 1 26 72 6 26 73 40 26 74 1 27 75 40 27 76 9 27 77 1 28 78 9 28 79 10 28 80 1 1 81 11 29 82 12 8 83 1 30 84 14 30 85 15 30 86 1 31 87 20 31 88 23 31 89 1 1 90 0 0 91 5 32 92 22 4 93 19 13 94 18 4 95 27 33 96 41 33 97 25 33 98 26 34 99 25 34 100 28 34 101 24 35 102 26 35 103 28 35 104 1 36 105 24 36 106 28 36 107 1 37 108 29 37 109 30 37 110 1 38 111 31 38 112 32 38 113 1 1 114 33 39 115 2 2 116 4 4 117 42 4 118 34 4 119 9 4 120 40 4 121 7 4 122</p>
        </triangles>
      </mesh>
    </geometry>
  </library_geometries>
  <library_visual_scenes>
    <visual_scene id="Scene" name="Scene">
      <node id="gerron_01_f" name="gerron_01_f" type="NODE">
        <matrix sid="transform">1.43 0 0 0 0 1.43 0 0 0 0 1.43 0 0 0 0 1</matrix>
        <instance_geometry url="#gerron_b_f-Geometry-mesh" name="gerron_01_f"/>
        <node id="prop_back" name="prop_back" type="NODE">
          <matrix sid="transform">1 0 0 0 0 1 -2e-7 0 0 2e-7 1 0 0 0 0 1</matrix>
        </node>
      </node>
    </visual_scene>
  </library_visual_scenes>
  <scene>
    <instance_visual_scene url="#Scene"/>
  </scene>
</COLLADA>