<?xml version="1.0" encoding="utf-8"?>
<COLLADA xmlns="http://www.collada.org/2005/11/COLLADASchema" version="1.4.1" xmlns:xsi="http://www.w3.org/2001/XMLSchema-instance">
  <asset>
    <contributor>
      <author>Blender User</author>
      <authoring_tool>Blender 2.80.75 commit date:2019-07-29, commit time:14:47, hash:f6cb5f54494e</authoring_tool>
    </contributor>
    <created>2026-04-11T14:01:36</created>
    <modified>2026-04-11T14:01:36</modified>
    <unit name="meter" meter="1"/>
    <up_axis>Z_UP</up_axis>
  </asset>
  <library_effects/>
  <library_images/>
  <library_geometries>
    <geometry id="gerron_b_b-Geometry-mesh" name="gerron_b_b-Geometry">
      <mesh>
        <source id="gerron_b_b-Geometry-mesh-positions">
          <float_array id="gerron_b_b-Geometry-mesh-positions-array" count="114">-0.435636 -0.007553935 -0.1782333 -0.001225948 -0.142118 -0.06160646 -0.534045 -0.008186995 -0.5832661 -0.490444 -0.008186995 -0.2423084 -0.647956 -0.008186995 -0.3963866 -0.416326 -0.007145941 -0.06483942 -0.437985 -0.007553935 0.05197501 -0.59615 -0.008186995 0.1253023 -0.675307 -0.008186995 0.08165913 -0.647956 -0.008186995 0.2741255 -0.534045 -0.008186995 0.4610051 -0.364274 -0.008186995 0.577007 -0.172761 -0.008186995 0.6217859 -0.172761 -0.008186995 0.6217859 1.1e-4 -0.008186995 0.6404969 0.172982 -0.008186995 0.6217859 0.364432 -0.008186995 0.5770062 0.534141 -0.008186995 0.4610051 0.648115 -0.008186995 0.2741255 0.506914 -0.008186995 0.11947 0.438912 -0.007553935 0.05197501 0.675527 -0.008186995 0.08165913 0.595979 -0.008186995 0.1253023 0.4066 -0.007145941 -0.06483942 0.436563 -0.007553935 -0.1782333 0.648115 -0.008186995 -0.3963866 0.50203 -0.008186995 -0.2423084 0.593537 -0.008186995 -0.2449719 0.534141 -0.008186995 -0.5832661 0.364432 -0.008186995 -0.6992681 0.172982 -0.008186995 -0.7440478 1.1e-4 -0.008186995 -0.762758 -0.172762 -0.008186995 -0.744047 -0.364274 -0.008186995 -0.6992681 -0.593708 -0.008186995 -0.2449719 -0.495328 -0.008186995 0.1194708 0.675527 -0.008186995 -0.1937248 -0.675307 -0.008186995 -0.1937248</float_array>
          <technique_common>
            <accessor source="#gerron_b_b-Geometry-mesh-positions-array" count="38" stride="3">
              <param name="X" type="float"/>
              <param name="Y" type="float"/>
              <param name="Z" type="float"/>
            </accessor>
          </technique_common>
        </source>
        <source id="gerron_b_b-Geometry-mesh-normals">
          <float_array id="gerron_b_b-Geometry-mesh-normals-array" count="87">0.2723804 0.960244 -0.06115967 -0.00451678 0.9999855 0.002960324 0.1183529 0.9912286 0.05881023 -0.008728444 0.9999614 0.001098632 0 1 0 0.3091868 0.9509989 0.002166807 0.3407768 0.9114239 0.2306027 0.1332159 0.9910774 -0.004364192 0.1278759 0.9842786 -0.1218331 0.07419109 0.98365 -0.1640993 0.03338783 0.7718575 0.6349184 0.01516824 0.7344872 0.678453 0 0.9822918 -0.1873575 -0.03195315 0.9823386 -0.184364 -0.07416182 0.9836974 -0.1638275 -0.1182304 0.9912251 -0.05911517 0.006347894 0.9999797 -4.88301e-4 -0.2629832 0.9624507 0.06729459 -0.3141666 0.9493666 0.001586973 -0.2650908 0.9618165 -0.06808859 0.00665307 0.9999777 6.10375e-4 -0.1180796 0.9912702 0.05865824 -0.0742529 0.9836603 0.1640095 -0.03201478 0.9822958 0.184581 0 0.9822459 0.1875987 0.0319845 0.9822735 0.1847046 0.07428431 0.9836117 0.1642862 0.3013503 0.9078658 0.2914925 0 1 0</float_array>
          <technique_common>
            <accessor source="#gerron_b_b-Geometry-mesh-normals-array" count="29" stride="3">
              <param name="X" type="float"/>
              <param name="Y" type="float"/>
              <param name="Z" type="float"/>
            </accessor>
          </technique_common>
        </source>
        <source id="gerron_b_b-Geometry-mesh-map-0">
          <float_array id="gerron_b_b-Geometry-mesh-map-0-array" count="222">0.822254 0.416633 0.500988 0.499661 0.895031 0.128283 0.862786 0.371016 0.822254 0.416633 0.895031 0.128283 0.862786 0.371016 0.895031 0.128283 0.979274 0.261326 0.807973 0.49736 0.823991 0.580522 0.500988 0.499661 0.940961 0.632725 0.999501 0.601654 0.979274 0.738674 0.500988 0.499661 0.895031 0.871717 0.769478 0.954301 0.500988 0.499661 0.627846 0.98618 0.627846 0.98618 0.627846 0.98618 0.5 0.9995 0.500988 0.499661 0.372154 0.98618 0.230568 0.954301 0.500988 0.499661 0.105061 0.871717 0.02077198 0.738674 0.125196 0.628573 0.105061 0.871717 0.125196 0.628573 0.175487 0.580522 0.105061 0.871717 0.175487 0.580522 0.500988 0.499661 0.02077198 0.738674 4.99e-4 0.601654 0.05932897 0.632725 0.199383 0.49736 0.177224 0.416633 0.500988 0.499661 0.02077198 0.261326 0.128808 0.371016 0.06113499 0.36912 0.105061 0.128283 0.230568 0.045699 0.500988 0.499661 0.372154 0.01381999 0.5 5e-4 0.500988 0.499661 0.627846 0.01381999 0.769478 0.045699 0.500988 0.499661 0.979274 0.261326 0.939155 0.36912 0.862786 0.371016 0.500988 0.499661 0.230568 0.954301 0.105061 0.871717 0.500988 0.499661 0.823991 0.580522 0.866399 0.628573 0.500988 0.499661 0.866399 0.628573 0.979274 0.738674 0.500988 0.499661 0.979274 0.738674 0.895031 0.871717 0.500988 0.499661 0.769478 0.954301 0.627846 0.98618 0.500988 0.499661 0.5 0.9995 0.372154 0.98618 0.500988 0.499661 0.175487 0.580522 0.199383 0.49736 0.500988 0.499661 0.822254 0.416633 0.807973 0.49736 0.05932897 0.632725 0.125196 0.628573 0.02077198 0.738674 0.06113499 0.36912 4.99e-4 0.405604 0.02077198 0.261326 0.128808 0.371016 0.02077198 0.261326 0.105061 0.128283 0.177224 0.416633 0.128808 0.371016 0.105061 0.128283 0.500988 0.499661 0.177224 0.416633 0.105061 0.128283 0.500988 0.499661 0.230568 0.045699 0.372154 0.01381999 0.500988 0.499661 0.5 5e-4 0.627846 0.01381999 0.500988 0.499661 0.769478 0.045699 0.895031 0.128283 0.979274 0.261326 0.999501 0.405604 0.939155 0.36912 0.979274 0.738674 0.866399 0.628573 0.940961 0.632725</float_array>
          <technique_common>
            <accessor source="#gerron_b_b-Geometry-mesh-map-0-array" count="111" stride="2">
              <param name="S" type="float"/>
              <param name="T" type="float"/>
            </accessor>
          </technique_common>
        </source>
        <vertices id="gerron_b_b-Geometry-mesh-vertices">
          <input semantic="POSITION" source="#gerron_b_b-Geometry-mesh-positions"/>
        </vertices>
        <triangles count="37">
          <input semantic="VERTEX" source="#gerron_b_b-Geometry-mesh-vertices" offset="0"/>
          <input semantic="NORMAL" source="#gerron_b_b-Geometry-mesh-normals" offset="1"/>
          <input semantic="TEXCOORD" source="#gerron_b_b-Geometry-mesh-map-0" offset="2" set="0"/>
          <p>0 0 0 1 1 1 2 2 2 3 3 3 0 0 4 2 2 5 3 3 6 2 2 7 4 4 8 5 5 9 6 6 10 1 1 11 7 4 12 8 4 13 9 7 14 1 1 15 10 8 16 11 9 17 1 1 18 12 10 19 13 11 20 13 11 21 14 12 22 1 1 23 15 13 24 16 14 25 1 1 26 17 15 27 18 4 28 19 16 29 17 15 30 19 16 31 20 17 32 17 15 33 20 17 34 1 1 35 18 4 36 21 4 37 22 4 38 23 18 39 24 19 40 1 1 41 25 4 42 26 20 43 27 4 44 28 21 45 29 22 46 1 1 47 30 23 48 31 24 49 1 1 50 32 25 51 33 26 52 1 1 53 4 4 54 34 4 55 3 3 56 1 1 57 16 14 58 17 15 59 1 1 60 6 6 61 35 27 62 1 1 63 35 27 64 9 7 65 1 1 66 9 7 67 10 8 68 1 1 69 11 9 70 12 10 71 1 1 72 14 12 73 15 13 74 1 1 75 20 17 76 23 18 77 1 1 78 0 0 79 5 5 80 22 4 81 19 16 82 18 4 83 27 28 84 36 28 85 25 28 86 26 20 87 25 4 88 28 21 89 24 19 90 26 20 91 28 21 92 1 1 93 24 19 94 28 21 95 1 1 96 29 22 97 30 23 98 1 1 99 31 24 100 32 25 101 1 1 102 33 26 103 2 2 104 4 4 105 37 4 106 34 4 107 9 7 108 35 27 109 7 4 110</p>
        </triangles>
      </mesh>
    </geometry>
  </library_geometries>
  <library_visual_scenes>
    <visual_scene id="Scene" name="Scene">
      <node id="gerron_01_b" name="gerron_01_b" type="NODE">
        <matrix sid="transform">1.43 0 0 0 0 1.43 0 0 0 0 1.43 0 0 0 0 1</matrix>
        <instance_geometry url="#gerron_b_b-Geometry-mesh" name="gerron_01_b"/>
      </node>
    </visual_scene>
  </library_visual_scenes>
  <scene>
    <instance_visual_scene url="#Scene"/>
  </scene>
</COLLADA>