<?xml version="1.0" encoding="utf-8"?>
<COLLADA xmlns="http://www.collada.org/2005/11/COLLADASchema" version="1.4.1" xmlns:xsi="http://www.w3.org/2001/XMLSchema-instance">
  <asset>
    <contributor>
      <author>Blender User</author>
      <authoring_tool>Blender 2.80.75 commit date:2019-07-29, commit time:14:47, hash:f6cb5f54494e</authoring_tool>
    </contributor>
    <created>2026-04-13T15:10:11</created>
    <modified>2026-04-13T15:10:11</modified>
    <unit name="meter" meter="1"/>
    <up_axis>Z_UP</up_axis>
  </asset>
  <library_effects>
    <effect id="Material_014-effect">
      <profile_COMMON>
        <newparam sid="hitites_rect_01_01_png-surface">
          <surface type="2D">
            <init_from>hitites_rect_01_01_png</init_from>
          </surface>
        </newparam>
        <newparam sid="hitites_rect_01_01_png-sampler">
          <sampler2D>
            <source>hitites_rect_01_01_png-surface</source>
          </sampler2D>
        </newparam>
        <technique sid="common">
          <lambert>
            <emission>
              <color sid="emission">0 0 0 1</color>
            </emission>
            <diffuse>
              <texture texture="hitites_rect_01_01_png-sampler" texcoord="UVMap"/>
            </diffuse>
            <index_of_refraction>
              <float sid="ior">1.45</float>
            </index_of_refraction>
          </lambert>
        </technique>
      </profile_COMMON>
    </effect>
  </library_effects>
  <library_images>
    <image id="hitites_rect_01_01_png" name="hitites_rect_01_01_png">
      <init_from>/home/welton/Downloads/hitites_rect_01_01.png</init_from>
    </image>
  </library_images>
  <library_materials>
    <material id="Material_014-material" name="Material.014">
      <instance_effect url="#Material_014-effect"/>
    </material>
  </library_materials>
  <library_geometries>
    <geometry id="Cube_010-mesh" name="Cube.010">
      <mesh>
        <source id="Cube_010-mesh-positions">
          <float_array id="Cube_010-mesh-positions-array" count="75">-0.5855867 -1 -0.9311236 -0.5855867 -1 0.9311236 0.5855867 -1 -0.9311236 0.5855867 -1 0.9311236 -0.4745368 -1 0 0.4745368 -1 0 0 -1 -1.014653 0 -1 1.014653 0 -1 0 -0.5855867 -1 -0.9311236 -0.5855867 -1 0.9311236 0.5855867 -1 -0.9311236 0.5855867 -1 0.9311236 -0.4745368 -1 0 0.4745368 -1 0 0 -1 -1.014653 0 -1 1.014653 -0.5855867 0.3648136 -0.9311236 -0.5855867 0.3648136 0.9311236 0.5855867 0.3648136 -0.9311236 0.5855867 0.3648136 0.9311236 -0.4745368 0.3648136 0 0.4745368 0.3648136 0 0 0.3648136 -1.014653 0 0.3648136 1.014653</float_array>
          <technique_common>
            <accessor source="#Cube_010-mesh-positions-array" count="25" stride="3">
              <param name="X" type="float"/>
              <param name="Y" type="float"/>
              <param name="Z" type="float"/>
            </accessor>
          </technique_common>
        </source>
        <source id="Cube_010-mesh-normals">
          <float_array id="Cube_010-mesh-normals-array" count="51">0 -1 0 0 -1 0 0 -1 1.34897e-7 0.1412134 0 -0.9899792 -0.992963 0 -0.1184251 0.1412134 0 0.9899792 0.992963 0 -0.1184251 -0.1412134 0 0.9899792 0.992963 0 0.1184251 -0.1412134 0 -0.9899792 -0.992963 0 0.1184251 0 -1 0 0 -1 -1.34897e-7 0.1412133 0 -0.9899792 0.1412133 0 0.9899792 -0.1412133 0 0.9899792 -0.1412133 0 -0.9899792</float_array>
          <technique_common>
            <accessor source="#Cube_010-mesh-normals-array" count="17" stride="3">
              <param name="X" type="float"/>
              <param name="Y" type="float"/>
              <param name="Z" type="float"/>
            </accessor>
          </technique_common>
        </source>
        <source id="Cube_010-mesh-map-0">
          <float_array id="Cube_010-mesh-map-0-array" count="144">0.5 0.5 0.04415613 0.8233092 0.1420387 0.5 0.5 0.5 0.02381557 0.1766908 0.5 0.1476872 0.9761844 0.1766908 0.5 0.5 0.5 0.1476872 0.9558438 0.8233092 0.5 0.5 0.8579614 0.5 0.1382648 0.6141712 0.1188219 0.6368287 0.1382648 0.6368287 0.1156073 0.6100422 0.1609225 0.6255 0.1609225 0.6100422 0.1188219 0.6141712 0.1382648 0.6368287 0.1188219 0.6368287 0.1156073 0.6255 0.1609225 0.6100422 0.1609225 0.6255 0.1382648 0.6141712 0.1577078 0.6368287 0.1382648 0.6368287 0.1156073 0.6409578 0.1609225 0.6255 0.1609225 0.6409578 0.1577078 0.6141712 0.1382648 0.6368287 0.1577078 0.6368287 0.1156073 0.6255 0.1609225 0.6409578 0.1609225 0.6255 0.5 0.5 0.5 0.8523128 0.04415613 0.8233092 0.5 0.5 0.1420387 0.5 0.02381557 0.1766908 0.9761844 0.1766908 0.8579614 0.5 0.5 0.5 0.9558438 0.8233092 0.5 0.8523128 0.5 0.5 0.1382648 0.6141712 0.1188219 0.6141712 0.1188219 0.6368287 0.1156073 0.6100422 0.1156073 0.6255 0.1609225 0.6255 0.1188219 0.6141712 0.1382648 0.6141712 0.1382648 0.6368287 0.1156073 0.6255 0.1156073 0.6100422 0.1609225 0.6100422 0.1382648 0.6141712 0.1577078 0.6141712 0.1577078 0.6368287 0.1156073 0.6409578 0.1156073 0.6255 0.1609225 0.6255 0.1577078 0.6141712 0.1382648 0.6141712 0.1382648 0.6368287 0.1156073 0.6255 0.1156073 0.6409578 0.1609225 0.6409578</float_array>
          <technique_common>
            <accessor source="#Cube_010-mesh-map-0-array" count="72" stride="2">
              <param name="S" type="float"/>
              <param name="T" type="float"/>
            </accessor>
          </technique_common>
        </source>
        <vertices id="Cube_010-mesh-vertices">
          <input semantic="POSITION" source="#Cube_010-mesh-positions"/>
        </vertices>
        <triangles material="Material_014-material" count="24">
          <input semantic="VERTEX" source="#Cube_010-mesh-vertices" offset="0"/>
          <input semantic="NORMAL" source="#Cube_010-mesh-normals" offset="1"/>
          <input semantic="TEXCOORD" source="#Cube_010-mesh-map-0" offset="2" set="0"/>
          <p>8 0 0 1 0 1 4 0 2 8 1 3 0 1 4 6 1 5 2 1 6 8 1 7 6 1 8 3 2 9 8 2 10 5 2 11 23 3 12 11 3 13 15 3 14 18 4 15 13 4 16 10 4 17 20 5 18 16 5 19 12 5 20 22 6 21 12 6 22 14 6 23 24 7 24 10 7 25 16 7 26 19 8 27 14 8 28 11 8 29 17 9 30 15 9 31 9 9 32 21 10 33 9 10 34 13 10 35 8 1 36 7 1 37 1 1 38 8 11 39 4 11 40 0 11 41 2 12 42 5 12 43 8 12 44 3 1 45 7 1 46 8 1 47 23 13 48 19 13 49 11 13 50 18 4 51 21 4 52 13 4 53 20 14 54 24 14 55 16 14 56 22 6 57 20 6 58 12 6 59 24 15 60 18 15 61 10 15 62 19 8 63 22 8 64 14 8 65 17 16 66 23 16 67 15 16 68 21 10 69 17 10 70 9 10 71</p>
        </triangles>
      </mesh>
    </geometry>
  </library_geometries>
  <library_visual_scenes>
    <visual_scene id="Scene" name="Scene">
      <node id="hitites_shield_01" name="hitites_shield_01" type="NODE">
        <matrix sid="transform">0.8677446 0 0 0 0 0.04248299 0 -0.05522582 0 0 0.8677446 0 0 0 0 1</matrix>
        <instance_geometry url="#Cube_010-mesh" name="hitites_shield_01">
          <bind_material>
            <technique_common>
              <instance_material symbol="Material_014-material" target="#Material_014-material">
                <bind_vertex_input semantic="UVMap" input_semantic="TEXCOORD" input_set="0"/>
              </instance_material>
            </technique_common>
          </bind_material>
        </instance_geometry>
      </node>
    </visual_scene>
  </library_visual_scenes>
  <scene>
    <instance_visual_scene url="#Scene"/>
  </scene>
</COLLADA>