<?xml version="1.0" encoding="utf-8"?>
<COLLADA xmlns="http://www.collada.org/2005/11/COLLADASchema" version="1.4.1" xmlns:xsi="http://www.w3.org/2001/XMLSchema-instance">
  <asset>
    <contributor>
      <author>Blender User</author>
      <authoring_tool>Blender 4.3.1 commit date:2024-12-10, commit time:07:46, hash:33d812126174</authoring_tool>
    </contributor>
    <created>2026-04-29T16:19:32</created>
    <modified>2026-04-29T16:19:32</modified>
    <unit name="meter" meter="1"/>
    <up_axis>Z_UP</up_axis>
  </asset>
  <library_effects>
    <effect id="_2texturas_novas_zapo-effect">
      <profile_COMMON>
        <newparam sid="bronze_age_materials_png-surface">
          <surface type="2D">
            <init_from>bronze_age_materials_png</init_from>
          </surface>
        </newparam>
        <newparam sid="bronze_age_materials_png-sampler">
          <sampler2D>
            <source>bronze_age_materials_png-surface</source>
          </sampler2D>
        </newparam>
        <technique sid="common">
          <lambert>
            <emission>
              <color sid="emission">0 0 0 1</color>
            </emission>
            <diffuse>
              <texture texture="bronze_age_materials_png-sampler" texcoord="Esfera_015-mesh-map-0"/>
            </diffuse>
            <index_of_refraction>
              <float sid="ior">1.45</float>
            </index_of_refraction>
          </lambert>
        </technique>
      </profile_COMMON>
    </effect>
  </library_effects>
  <library_images>
    <image id="bronze_age_materials_png" name="bronze_age_materials_png">
      <init_from>/home/welton/.var/app/com.play0ad.zeroad/data/0ad/mods/aristeia/art/textures/skins/bronze_age_materials.png</init_from>
    </image>
  </library_images>
  <library_materials>
    <material id="_2texturas_novas_zapo-material" name="22texturas novas zapo">
      <instance_effect url="#_2texturas_novas_zapo-effect"/>
    </material>
  </library_materials>
  <library_geometries>
    <geometry id="Esfera_015-mesh" name="Esfera.015">
      <mesh>
        <source id="Esfera_015-mesh-positions">
          <float_array id="Esfera_015-mesh-positions-array" count="135">-0.04238611 0.05002856 -0.1507958 -0.02604609 0.03224289 -0.1338047 -0.04567503 -0.04793387 -0.1507108 -0.04153019 0.05000483 -0.2573713 0.05468744 0.04676485 -0.1499187 0.03688037 0.03013205 -0.133238 0.05139839 -0.0511921 -0.1498332 0.05575031 0.04674094 -0.2564968 0.0524553 -0.05142289 -0.2564094 -0.04482883 -0.04815882 -0.2572854 0.03475689 -0.03337079 -0.1331843 0.03204447 -0.0330221 0.1682219 -0.02817845 -0.03126007 -0.1337476 -0.03088504 -0.03090536 0.1676539 -0.02874898 0.03259187 0.1675966 -0.03724932 -0.1519812 0.1770125 -0.02708452 0.1552702 0.1767485 -0.03801798 -0.1528621 0.2346945 0.03021585 -0.1556707 0.1776201 0.04038065 0.1515687 0.1773566 0.02955222 -0.1543818 0.2353019 -0.002309381 -0.09423118 0.2489676 0.02715903 -5.72964e-4 0.2491202 0.04010802 0.1525859 0.2350396 0.004153907 0.09399026 0.2488042 -0.02745336 0.1541115 0.2344304 -0.02531445 3.37792e-4 0.2486518 0.03418338 0.03048682 0.1681646 0.02715903 0 0.2491202 0.004153907 0.09399026 0.2488042 -0.02531445 0 0.2486518 -0.02902841 0 0.4385526 0.001903355 0.07782471 0.4387415 -0.03559374 0 1.02458 -0.001837909 0.07166373 1.024737 -0.03574895 0 1.411518 0.02351003 0 1.025106 0.02746647 0 0.4390629 0.01672142 0 1.41199 -0.006605625 0.04377585 1.411679 -0.01268178 0 1.764653 0.004153907 -0.09399026 0.2488042 0.001903355 -0.07782471 0.4387415 -0.001837909 -0.07166373 1.024737 -0.006605625 -0.04377585 1.411679</float_array>
          <technique_common>
            <accessor source="#Esfera_015-mesh-positions-array" count="45" stride="3">
              <param name="X" type="float"/>
              <param name="Y" type="float"/>
              <param name="Z" type="float"/>
            </accessor>
          </technique_common>
        </source>
        <source id="Esfera_015-mesh-normals">
          <float_array id="Esfera_015-mesh-normals-array" count="153">0.5905089 0.5558323 0.5851066 -0.6307022 0.6716918 0.3886449 -0.5625364 0.5944089 0.5746572 -0.6743098 -0.6272082 0.3897644 -0.6010967 -0.5544474 0.5755615 -0.5914662 -0.5585593 -0.5815318 0.66724 0.6280841 0.4003764 -0.5526875 0.5959697 -0.5825433 0.5520799 -0.5930305 0.5861082 0.5630168 -0.5973256 -0.5711516 0.6017652 0.5572339 -0.5721617 0.008949458 -0.001175642 -0.9999594 0.6236059 -0.6707402 0.4015262 0.8615926 0.2859703 -0.4193796 0.8379091 -0.3431022 -0.4244871 -0.8302177 0.3421109 -0.4401123 -0.853716 -0.2869683 -0.4345322 -0.5983456 -0.5720858 -0.5609818 0.006394326 -0.07739806 -0.9969798 -0.5499945 0.6272548 -0.5514142 -0.5800515 0.6340047 0.5114474 -0.6184647 -0.6035227 0.5032514 0.5708166 -0.6327737 0.5232264 0.5598189 -0.6284429 -0.5400578 0.6083561 0.5707301 -0.5515161 0.6093276 0.6046983 0.5128937 -0.01134562 -0.1043401 0.994477 0.7997019 -0.02691358 0.5997939 -0.006457924 0.1066591 0.9942747 -0.8103403 0.02831882 0.5852748 0.01151186 0.07510691 -0.9971091 0.008964836 -0.001191258 -0.9999592 0.004797697 -0.07647323 -0.9970602 0.01305979 0.07421141 -0.997157 -0.9492831 -1.51268e-5 -0.3144229 0.03050982 0.9995316 -0.002391934 0.03109407 0.9958848 0.08512812 -0.9071108 0.4207598 0.01056057 0.05055117 0.9978848 0.04087346 0.04854255 0.9963569 0.07011985 -0.793773 0.6068606 0.04055368 0.9010357 0.04640448 0.4312555 0.8343174 0 -0.5512844 0.46092 1.09923e-6 -0.8874416 0.9568299 1.268e-5 -0.2906487 -0.9247866 0.3801656 -0.01561462 0.9273803 0.3741182 0.001158833 0.03109407 -0.9958848 0.08512812 0.03050994 -0.9995316 -0.002391934 0.05055111 -0.9978848 0.04087346 0.04854255 -0.9963569 0.07011985</float_array>
          <technique_common>
            <accessor source="#Esfera_015-mesh-normals-array" count="51" stride="3">
              <param name="X" type="float"/>
              <param name="Y" type="float"/>
              <param name="Z" type="float"/>
            </accessor>
          </technique_common>
        </source>
        <source id="Esfera_015-mesh-map-0">
          <float_array id="Esfera_015-mesh-map-0-array" count="468">0.6521886 0.06251317 0.6459165 0.03752428 0.6515234 0.04267543 0.7038703 0.06105136 0.7092001 0.03577536 0.7038525 0.04103195 0.7092267 0.06665843 0.7427979 0.03570455 0.7092001 0.03577536 0.7089504 0.06812727 0.7428251 0.03779411 0.7092267 0.03752428 0.6722082 0.06184393 0.6469452 0.06812727 0.6521886 0.06251317 0.7089504 0.06562948 0.7425216 0.03467541 0.7425493 0.06562197 0.6469529 0.06846213 0.6768703 0.03675395 0.6459239 0.03779411 0.7092001 0.03648734 0.7425216 0.06742316 0.7089232 0.06709015 0.6767994 0.03648734 0.6722082 0.06184393 0.6715429 0.04200333 0.5484845 0.8289515 0.5283532 0.7339507 0.5483724 0.7339336 0.5489757 0.8289694 0.52999 0.7337728 0.5498306 0.7339507 0.5290186 0.7337728 0.549148 0.8287726 0.549038 0.7337549 0.6088526 0.06116139 0.6088345 0.04114371 0.6058843 0.002974212 0.6720982 0.06098902 0.7096004 0.03914362 0.6714308 0.04114985 0.6058843 0.002974212 0.6059676 0.09983599 0.6088526 0.06116139 0.7109462 0.1096299 0.6335271 0.09510737 0.6333044 0.1096967 0.6794418 0.1098503 0.6625459 0.09510737 0.6796097 0.09526103 0.6329199 0.1098503 0.7103031 0.09519439 0.7105604 0.109784 0.6057757 0.09866911 0.6056929 0.001811027 0.6086558 0.04047614 0.6623514 0.01167315 0.6794418 0.01128882 0.6713832 0.02650249 0.6788365 0.05019116 0.6713832 0.02650249 0.6794418 0.01128882 0.6329199 0.1098503 0.7105604 0.109784 0.6718224 0.1133453 0.6821116 0.08892923 0.6650236 0.08931505 0.6730179 0.07410877 0.6730179 0.07410877 0.6788365 0.05019116 0.6821116 0.08892923 0.6650236 0.1096299 0.6821807 0.09519439 0.6651169 0.09504055 0.6655646 0.05042153 0.6730179 0.07410877 0.6650236 0.08931505 0.7109462 0.1096299 0.6333044 0.1096967 0.6720527 0.1132268 0.6713832 0.02650249 0.6655646 0.05042153 0.6623514 0.01167315 0.6086558 0.04047614 0.6086738 0.06049776 0.6057757 0.09866911 0.6514133 0.04182374 0.6139056 0.06361669 0.652077 0.06166309 0.5298104 0.8287726 0.5504999 0.7339336 0.5306621 0.7337549 0.6521886 0.06251317 0.6469452 0.06812727 0.6459165 0.03752428 0.7038703 0.06105136 0.7092267 0.06665843 0.7092001 0.03577536 0.7092267 0.06665843 0.7428251 0.06665104 0.7427979 0.03570455 0.7089504 0.06812727 0.7425493 0.06846213 0.7428251 0.03779411 0.6722082 0.06184393 0.6778264 0.06709015 0.6469452 0.06812727 0.7089504 0.06562948 0.7089232 0.03474807 0.7425216 0.03467541 0.6469529 0.06846213 0.6778993 0.06742316 0.6768703 0.03675395 0.7092001 0.03648734 0.7427979 0.03675395 0.7425216 0.06742316 0.6767994 0.03648734 0.6778264 0.06709015 0.6722082 0.06184393 0.5484845 0.8289515 0.5284628 0.8289694 0.5283532 0.7339507 0.5489757 0.8289694 0.5291365 0.8287907 0.52999 0.7337728 0.5290186 0.7337728 0.5291303 0.8287907 0.549148 0.8287726 0.6720982 0.06098902 0.7107636 0.06041216 0.7096004 0.03914362 0.7109462 0.1096299 0.7112393 0.09504055 0.6335271 0.09510737 0.6794418 0.1098503 0.6623514 0.1096967 0.6625459 0.09510737 0.6329199 0.1098503 0.6325939 0.09526103 0.7103031 0.09519439 0.6650236 0.1096299 0.6821116 0.109784 0.6821807 0.09519439 0.6514133 0.04182374 0.6127388 0.04234808 0.6139056 0.06361669 0.5298104 0.8287726 0.5496498 0.8289515 0.5504999 0.7339336 0.9383345 0.6088275 0.9824024 0.6572862 0.991596 0.6088662 0.9824024 0.6572862 0.9387648 0.8066317 0.9788985 0.8066719 0.9630382 0.9053135 0.9387648 0.8066317 0.9389765 0.9052723 0.9384737 0.8067659 0.9630382 0.9053135 0.9386903 0.9053922 0.9384737 0.8067659 0.9824024 0.6572862 0.9788985 0.8066719 0.9390162 0.9952958 0.9386903 0.9053922 0.9630382 0.9053135 0.9389765 0.9052723 0.9390162 0.9952958 0.9630382 0.9053135 0.9824024 0.6572862 0.9378165 0.6089468 0.991596 0.6088662 0.9383345 0.6088275 0.9385361 0.6572381 0.9824024 0.6572862 0.9824024 0.6572862 0.9385361 0.6572381 0.9387648 0.8066317 0.9630382 0.9053135 0.9788985 0.8066719 0.9387648 0.8066317 0.9384737 0.8067659 0.9788985 0.8066719 0.9630382 0.9053135 0.9384737 0.8067659 0.9378604 0.6573682 0.9824024 0.6572862 0.9824024 0.6572862 0.9378604 0.6573682 0.9378165 0.6089468 0.9383345 0.6088275 0.991596 0.6088662 0.9824024 0.6572862 0.9824024 0.6572862 0.9788985 0.8066719 0.9387648 0.8066317 0.9630382 0.9053135 0.9389765 0.9052723 0.9387648 0.8066317 0.9384737 0.8067659 0.9386903 0.9053922 0.9630382 0.9053135 0.9384737 0.8067659 0.9788985 0.8066719 0.9824024 0.6572862 0.9390162 0.9952958 0.9630382 0.9053135 0.9386903 0.9053922 0.9389765 0.9052723 0.9630382 0.9053135 0.9390162 0.9952958 0.9824024 0.6572862 0.991596 0.6088662 0.9378165 0.6089468 0.9383345 0.6088275 0.9824024 0.6572862 0.9385361 0.6572381 0.9824024 0.6572862 0.9387648 0.8066317 0.9385361 0.6572381 0.9630382 0.9053135 0.9387648 0.8066317 0.9788985 0.8066719 0.9384737 0.8067659 0.9630382 0.9053135 0.9788985 0.8066719 0.9384737 0.8067659 0.9824024 0.6572862 0.9378604 0.6573682 0.9824024 0.6572862 0.9378165 0.6089468 0.9378604 0.6573682</float_array>
          <technique_common>
            <accessor source="#Esfera_015-mesh-map-0-array" count="234" stride="2">
              <param name="S" type="float"/>
              <param name="T" type="float"/>
            </accessor>
          </technique_common>
        </source>
        <source id="Esfera_015-mesh-map-1">
          <float_array id="Esfera_015-mesh-map-1-array" count="468">0.3280967 0.05582582 0.3222567 0.05435162 0.3222567 0.05582582 0.3222567 0.05582582 0.3157675 0.05435162 0.3157675 0.05582582 0.339936 0.05632609 0.3308943 0.08407503 0.339936 0.08407503 0.339936 0.03135198 0.3308943 0.05632609 0.339936 0.05632609 0.3222567 0.05582582 0.3157675 0.05435162 0.3157675 0.05582582 0.339936 0.08407503 0.3308943 0.05632609 0.3308943 0.08407503 0.32616 0.03565901 0.3154342 0.05158662 0.32616 0.05158662 0.339936 0.03135198 0.3308943 0.05632609 0.339936 0.05632609 0.3280967 0.05435162 0.3222567 0.05582582 0.3280967 0.05582582 0.3325517 0.08258616 0.3078351 0.05631399 0.3078351 0.08258616 0.3325517 0.05631399 0.3078351 0.03266865 0.3078351 0.05631399 0.3078351 0.08258616 0.3325517 0.05631399 0.3078351 0.05631399 0.3342002 0.05351054 0.3342002 0.07713878 0.3377811 0.08422797 0.3342002 0.05351054 0.3377811 0.03933346 0.3342002 0.03224521 0.3377811 0.08422797 0.3377811 0.04642266 0.3342002 0.05351054 0.3067902 0.03939205 0.3025569 0.08459836 0.3067902 0.08459836 0.3067902 0.03939205 0.3025569 0.03091496 0.3025569 0.03939205 0.3067902 0.03939205 0.3025569 0.08459836 0.3067902 0.08459836 0.3377811 0.08422797 0.3377811 0.04642266 0.3342002 0.05351054 0.3333149 0.03842312 0.3333149 0.04551213 0.3371592 0.05496299 0.3371592 0.07622843 0.3371592 0.05496299 0.3333149 0.04551213 0.3333149 0.04551213 0.3333149 0.08331763 0.3371592 0.07622843 0.3333149 0.03842312 0.3333149 0.04551213 0.3371592 0.05496299 0.3371592 0.05496299 0.3371592 0.03133475 0.3333149 0.03842312 0.3067902 0.03939205 0.3025569 0.03091496 0.3025569 0.03939205 0.3371592 0.07622843 0.3371592 0.05496299 0.3333149 0.04551213 0.3333149 0.04551213 0.3333149 0.08331763 0.3371592 0.07622843 0.3371592 0.05496299 0.3371592 0.03133475 0.3333149 0.03842312 0.3342002 0.05351054 0.3342002 0.07713878 0.3377811 0.08422797 0.3342002 0.05351054 0.3377811 0.03933346 0.3342002 0.03224521 0.3325517 0.05631399 0.3078351 0.03266865 0.3078351 0.05631399 0.3280967 0.05582582 0.3280967 0.05435162 0.3222567 0.05435162 0.3222567 0.05582582 0.3222567 0.05435162 0.3157675 0.05435162 0.339936 0.05632609 0.3308943 0.05632609 0.3308943 0.08407503 0.339936 0.03135198 0.3308943 0.03135198 0.3308943 0.05632609 0.3222567 0.05582582 0.3222567 0.05435162 0.3157675 0.05435162 0.339936 0.08407503 0.339936 0.05632609 0.3308943 0.05632609 0.32616 0.03565901 0.3154342 0.03565901 0.3154342 0.05158662 0.339936 0.03135198 0.3308943 0.03135198 0.3308943 0.05632609 0.3280967 0.05435162 0.3222567 0.05435162 0.3222567 0.05582582 0.3325517 0.08258616 0.3325517 0.05631399 0.3078351 0.05631399 0.3325517 0.05631399 0.3325517 0.03266865 0.3078351 0.03266865 0.3078351 0.08258616 0.3325517 0.08258616 0.3325517 0.05631399 0.3342002 0.05351054 0.3377811 0.04642266 0.3377811 0.03933346 0.3067902 0.03939205 0.3025569 0.03939205 0.3025569 0.08459836 0.3067902 0.03939205 0.3067902 0.03091496 0.3025569 0.03091496 0.3067902 0.03939205 0.3025569 0.03939205 0.3025569 0.08459836 0.3067902 0.03939205 0.3067902 0.03091496 0.3025569 0.03091496 0.3342002 0.05351054 0.3377811 0.04642266 0.3377811 0.03933346 0.3325517 0.05631399 0.3325517 0.03266865 0.3078351 0.03266865 0.3028112 0.05573117 0.2971773 0.0404672 0.3028112 0.0404672 0.2971773 0.0404672 0.2811059 0.05573117 0.2811059 0.04046106 0.2697218 0.0404672 0.2811059 0.05573117 0.2697218 0.05573117 0.2811059 0.05579888 0.2697218 0.0404672 0.2697218 0.05579888 0.2811059 0.05579888 0.2971773 0.0404672 0.2811059 0.04046106 0.2607221 0.05579036 0.2697218 0.05579888 0.2697218 0.0404672 0.2697218 0.05573117 0.2607221 0.05579036 0.2697218 0.0404672 0.2971773 0.0404672 0.3028112 0.05579888 0.3028112 0.0404672 0.3028112 0.05573117 0.2971773 0.05573117 0.2971773 0.0404672 0.2971773 0.0404672 0.2971773 0.05573117 0.2811059 0.05573117 0.2697218 0.0404672 0.2811059 0.04046106 0.2811059 0.05573117 0.2811059 0.05579888 0.2811059 0.04046106 0.2697218 0.0404672 0.2811059 0.05579888 0.2971773 0.05579888 0.2971773 0.0404672 0.2971773 0.0404672 0.2971773 0.05579888 0.3028112 0.05579888 0.3028112 0.05573117 0.3028112 0.0404672 0.2971773 0.0404672 0.2971773 0.0404672 0.2811059 0.04046106 0.2811059 0.05573117 0.2697218 0.0404672 0.2697218 0.05573117 0.2811059 0.05573117 0.2811059 0.05579888 0.2697218 0.05579888 0.2697218 0.0404672 0.2811059 0.05579888 0.2811059 0.04046106 0.2971773 0.0404672 0.2607221 0.05579036 0.2697218 0.0404672 0.2697218 0.05579888 0.2697218 0.05573117 0.2697218 0.0404672 0.2607221 0.05579036 0.2971773 0.0404672 0.3028112 0.0404672 0.3028112 0.05579888 0.3028112 0.05573117 0.2971773 0.0404672 0.2971773 0.05573117 0.2971773 0.0404672 0.2811059 0.05573117 0.2971773 0.05573117 0.2697218 0.0404672 0.2811059 0.05573117 0.2811059 0.04046106 0.2811059 0.05579888 0.2697218 0.0404672 0.2811059 0.04046106 0.2811059 0.05579888 0.2971773 0.0404672 0.2971773 0.05579888 0.2971773 0.0404672 0.3028112 0.05579888 0.2971773 0.05579888</float_array>
          <technique_common>
            <accessor source="#Esfera_015-mesh-map-1-array" count="234" stride="2">
              <param name="S" type="float"/>
              <param name="T" type="float"/>
            </accessor>
          </technique_common>
        </source>
        <vertices id="Esfera_015-mesh-vertices">
          <input semantic="POSITION" source="#Esfera_015-mesh-positions"/>
        </vertices>
        <triangles material="_2texturas_novas_zapo-material" count="78">
          <input semantic="VERTEX" source="#Esfera_015-mesh-vertices" offset="0"/>
          <input semantic="NORMAL" source="#Esfera_015-mesh-normals" offset="1"/>
          <input semantic="TEXCOORD" source="#Esfera_015-mesh-map-0" offset="2" set="0"/>
          <input semantic="TEXCOORD" source="#Esfera_015-mesh-map-1" offset="2" set="1"/>
          <p>5 0 0 0 1 1 1 2 2 1 2 3 2 3 4 12 4 5 0 1 6 9 5 7 2 3 8 4 6 9 3 7 10 0 1 11 10 8 12 4 6 13 5 0 14 4 6 15 8 9 16 7 10 17 7 11 18 9 11 19 3 11 20 2 3 21 8 9 22 6 12 23 2 3 24 10 8 25 12 4 26 27 13 27 10 8 28 5 0 29 11 14 30 12 4 31 10 8 32 12 4 33 14 15 34 1 2 35 14 15 36 13 16 37 15 17 38 11 18 39 15 18 40 13 18 41 15 17 42 16 19 43 14 15 44 25 20 45 15 17 46 17 21 47 20 22 48 15 17 49 18 23 50 20 22 51 19 24 52 23 25 53 19 24 54 18 23 55 11 14 56 17 21 57 20 22 58 21 26 59 22 27 60 21 26 61 20 22 62 20 22 63 23 25 64 22 27 65 23 25 66 25 20 67 24 28 68 24 28 69 22 27 70 23 25 71 25 20 72 19 24 73 16 19 74 26 29 75 24 28 76 25 20 77 25 20 78 17 21 79 26 29 80 21 26 81 26 29 82 17 21 83 11 14 84 27 13 85 19 24 86 14 30 87 19 30 88 27 30 89 14 15 90 5 0 91 1 2 92 5 0 93 4 6 94 0 1 95 1 2 96 0 1 97 2 3 98 0 1 99 3 7 100 9 5 101 4 6 102 7 10 103 3 7 104 10 8 105 6 12 106 4 6 107 4 6 108 6 12 109 8 9 110 7 31 111 8 31 112 9 31 113 2 3 114 9 5 115 8 9 116 2 3 117 6 12 118 10 8 119 27 13 120 11 14 121 10 8 122 11 14 123 13 16 124 12 4 125 12 4 126 13 16 127 14 15 128 11 32 129 18 32 130 15 32 131 25 20 132 16 19 133 15 17 134 20 22 135 17 21 136 15 17 137 20 22 138 18 23 139 19 24 140 25 20 141 23 25 142 19 24 143 14 33 144 16 33 145 19 33 146 14 15 147 27 13 148 5 0 149 30 34 150 32 35 151 29 36 152 32 35 153 33 37 154 34 38 155 39 39 156 33 37 157 35 40 158 36 41 159 39 39 160 38 42 161 36 41 162 32 35 163 34 38 164 40 43 165 38 42 166 39 39 167 35 40 168 40 43 169 39 39 170 32 35 171 28 44 172 29 36 173 30 34 174 31 45 175 32 35 176 32 35 177 31 45 178 33 37 179 39 39 180 34 38 181 33 37 182 36 41 183 34 38 184 39 39 185 36 41 186 37 46 187 32 35 188 32 35 189 37 46 190 28 44 191 30 34 192 41 47 193 42 48 194 42 48 195 43 49 196 33 37 197 44 50 198 35 40 199 33 37 200 36 41 201 38 42 202 44 50 203 36 41 204 43 49 205 42 48 206 40 43 207 44 50 208 38 42 209 35 40 210 44 50 211 40 43 212 42 48 213 41 47 214 28 44 215 30 34 216 42 48 217 31 45 218 42 48 219 33 37 220 31 45 221 44 50 222 33 37 223 43 49 224 36 41 225 44 50 226 43 49 227 36 41 228 42 48 229 37 46 230 42 48 231 28 44 232 37 46 233</p>
        </triangles>
      </mesh>
    </geometry>
  </library_geometries>
  <library_visual_scenes>
    <visual_scene id="Scene" name="Scene">
      <node id="bronze_sword_medit_01" name="bronze_sword_medit_01" type="NODE">
        <matrix sid="transform">1 0 0 0 0 1 0 0 0 0 1 0 0 0 0 1</matrix>
        <instance_geometry url="#Esfera_015-mesh" name="bronze_sword_medit_01">
          <bind_material>
            <technique_common>
              <instance_material symbol="_2texturas_novas_zapo-material" target="#_2texturas_novas_zapo-material">
                <bind_vertex_input semantic="Esfera_015-mesh-map-0" input_semantic="TEXCOORD" input_set="0"/>
                <bind_vertex_input semantic="Esfera_015-mesh-map-1" input_semantic="TEXCOORD" input_set="1"/>
              </instance_material>
            </technique_common>
          </bind_material>
        </instance_geometry>
      </node>
    </visual_scene>
  </library_visual_scenes>
  <scene>
    <instance_visual_scene url="#Scene"/>
  </scene>
</COLLADA>