<?xml version="1.0" encoding="utf-8"?>
<COLLADA xmlns="http://www.collada.org/2005/11/COLLADASchema" version="1.4.1" xmlns:xsi="http://www.w3.org/2001/XMLSchema-instance">
  <asset>
    <contributor>
      <author>Blender User</author>
      <authoring_tool>Blender 2.80.75 commit date:2019-07-29, commit time:14:47, hash:f6cb5f54494e</authoring_tool>
    </contributor>
    <created>2026-04-11T10:03:21</created>
    <modified>2026-04-11T10:03:21</modified>
    <unit name="meter" meter="1"/>
    <up_axis>Z_UP</up_axis>
  </asset>
  <library_effects>
    <effect id="Material_001-effect">
      <profile_COMMON>
        <newparam sid="bronze_age_materials_png-surface">
          <surface type="2D">
            <init_from>bronze_age_materials_png</init_from>
          </surface>
        </newparam>
        <newparam sid="bronze_age_materials_png-sampler">
          <sampler2D>
            <source>bronze_age_materials_png-surface</source>
          </sampler2D>
        </newparam>
        <technique sid="common">
          <lambert>
            <emission>
              <color sid="emission">0 0 0 1</color>
            </emission>
            <diffuse>
              <texture texture="bronze_age_materials_png-sampler" texcoord="UVMap"/>
            </diffuse>
            <index_of_refraction>
              <float sid="ior">1.45</float>
            </index_of_refraction>
          </lambert>
        </technique>
      </profile_COMMON>
    </effect>
  </library_effects>
  <library_images>
    <image id="bronze_age_materials_png" name="bronze_age_materials_png">
      <init_from>/home/welton/snap/0ad/721/.local/share/0ad/mods/aristeia/art/textures/skins/bronze_age_materials.png</init_from>
    </image>
  </library_images>
  <library_materials>
    <material id="Material_001-material" name="Material.001">
      <instance_effect url="#Material_001-effect"/>
    </material>
  </library_materials>
  <library_geometries>
    <geometry id="Cylinder-mesh" name="Cylinder">
      <mesh>
        <source id="Cylinder-mesh-positions">
          <float_array id="Cylinder-mesh-positions-array" count="234">-0.001458466 0.03749227 1.1706 -0.001458466 0.03749227 -0.7526535 0.03101074 0.01874613 1.1706 0.03101074 0.01874613 -0.7526535 0.03101074 -0.01874613 1.1706 0.03101074 -0.01874613 -0.7526535 -0.001458466 -0.03749227 1.1706 -0.001458466 -0.03749227 -0.7526535 -0.03392779 -0.01874613 1.1706 -0.03392779 -0.01874613 -0.7526535 -0.03392779 0.01874613 1.1706 -0.03392779 0.01874613 -0.7526535 -0.001458466 0.0539121 1.244734 0.04523074 0.02695602 1.244734 0.04523068 -0.02695602 1.244734 -0.001458525 -0.0539121 1.244734 -0.04814773 -0.02695602 1.244734 -0.04814773 0.02695602 1.244734 -0.001458466 0.0539121 1.168596 0.04523074 0.02695602 1.168596 0.04523068 -0.02695602 1.168596 -0.001458525 -0.0539121 1.168596 -0.04814773 -0.02695602 1.168596 -0.04814773 0.02695602 1.168596 -0.001458525 -0.06886672 1.206665 0.05818182 -0.03443336 1.206665 0.05818182 0.03443336 1.206665 -0.001458466 0.06886672 1.206665 -0.06109887 0.03443336 1.206665 -0.06109887 -0.03443336 1.206665 -0.01157289 -0.02613496 0.7880164 -0.01157289 -0.02613496 1.123547 7.91035e-4 -0.4211241 0.7888428 7.91035e-4 -0.4211241 1.12272 7.91034e-4 -0.302675 0.5974959 -0.005162 -0.2554427 0.655464 -0.005162 -0.1790068 0.7898773 -0.01157289 -0.1025708 0.8079781 -0.01157289 -0.1025709 1.103585 -0.005162 -0.1790068 1.121686 -0.005162 -0.2554427 1.256099 7.91034e-4 -0.302675 1.314067 0.01057493 -0.302675 0.5974959 0.01057493 -0.4211241 0.7888428 0.01057493 -0.4211241 1.12272 0.01057493 -0.302675 1.314067 0.02293884 -0.02613496 0.7880164 0.02293884 -0.1025708 0.8079781 0.02293884 -0.1025709 1.103585 0.02293884 -0.02613496 1.123547 0.01652801 -0.1790068 0.7898773 0.01652801 -0.1790068 1.121686 0.01652801 -0.2554427 0.655464 0.01652801 -0.2554427 1.256099 -0.01157289 0.02613496 0.7880164 -0.01157289 0.02613496 1.123547 7.91035e-4 0.4211241 0.7888428 7.91035e-4 0.4211241 1.12272 7.91034e-4 0.302675 0.5974959 -0.005162 0.2554427 0.655464 -0.005162 0.1790068 0.7898773 -0.01157289 0.1025708 0.8079781 -0.01157289 0.1025709 1.103585 -0.005162 0.1790068 1.121686 -0.005162 0.2554427 1.256099 7.91034e-4 0.302675 1.314067 0.01057493 0.302675 0.5974959 0.01057493 0.4211241 0.7888428 0.01057493 0.4211241 1.12272 0.01057493 0.302675 1.314067 0.02293884 0.02613496 0.7880164 0.02293884 0.1025708 0.8079781 0.02293884 0.1025709 1.103585 0.02293884 0.02613496 1.123547 0.01652801 0.1790068 0.7898773 0.01652801 0.1790068 1.121686 0.01652801 0.2554427 0.655464 0.01652801 0.2554427 1.256099</float_array>
          <technique_common>
            <accessor source="#Cylinder-mesh-positions-array" count="78" stride="3">
              <param name="X" type="float"/>
              <param name="Y" type="float"/>
              <param name="Z" type="float"/>
            </accessor>
          </technique_common>
        </source>
        <source id="Cylinder-mesh-normals">
          <float_array id="Cylinder-mesh-normals-array" count="261">0.5000001 0.8660254 0 1 0 0 0.4999998 -0.8660255 0 -0.5 -0.8660254 0 2.04011e-6 0 -1 -1 0 0 -0.5000001 0.8660254 0 -4.08023e-6 0 1 0 0 1 -0.9467154 0 0.3220714 0.4733579 -0.8198793 -0.3220719 0.4733563 0.8198801 -0.3220722 -0.4733573 0.8198796 -0.322072 -0.4733566 -0.8198799 -0.3220723 0.9467147 0 -0.3220737 -0.9467151 0 -0.3220722 0.9467153 -2.14798e-7 0.3220717 -0.4733589 -0.8198785 0.3220727 -0.4733582 0.8198788 0.3220727 0.4733563 0.8198797 0.3220731 0.4733563 -0.8198798 0.3220731 -0.5506041 -0.06332814 -0.832361 -0.6503999 -0.730605 0.2078374 -0.5506041 -0.06332814 0.832361 -0.7726792 -0.04358106 -0.633299 -0.5650953 0.5043314 0.6529298 -0.5650953 0.5043314 -0.6529298 -0.8076354 0.3333942 0.486388 -0.7726792 -0.04358106 0.633299 -0.7251216 0.5440472 -0.4221509 -0.8076354 0.3333942 -0.486388 -0.7251216 0.5440472 0.4221509 0.5506041 -0.06332814 -0.832361 0.6503999 -0.730605 0.2078374 0.6503999 -0.730605 -0.2078374 0.5650953 0.5043314 0.6529298 0.7726792 -0.04358106 -0.633299 0.5650953 0.5043314 -0.6529298 0.8076354 0.3333942 0.486388 0.8076354 0.3333942 -0.486388 0.7251216 0.5440472 -0.4221509 0.5506041 -0.06332814 0.832361 -0.6503999 -0.730605 -0.2078374 0.7726792 -0.04358106 0.633299 0.7251216 0.5440472 0.4221509 -0.5506041 0.06332814 -0.832361 -0.6503999 0.730605 0.2078374 -0.6503999 0.730605 -0.2078374 -0.5650953 -0.5043314 0.6529298 -0.7726792 0.04358106 -0.633299 -0.5650953 -0.5043314 -0.6529298 -0.8076354 -0.3333942 0.486388 -0.8076354 -0.3333942 -0.486388 -0.7251216 -0.5440472 -0.4221509 -0.5506041 0.06332814 0.832361 0.5506041 0.06332814 -0.832361 0.6503999 0.730605 0.2078374 0.5506041 0.06332814 0.832361 0.7726792 0.04358106 -0.633299 0.5650953 -0.5043314 0.6529298 0.5650953 -0.5043314 -0.6529298 0.8076354 -0.3333942 0.486388 0.7726792 0.04358106 0.633299 0.7251216 -0.5440472 -0.4221509 0.8076354 -0.3333942 -0.486388 0.7251216 -0.5440472 0.4221509 -0.7251216 -0.5440472 0.4221509 0.6503999 0.730605 -0.2078374 -0.7726792 0.04358106 0.633299 0.5 0.8660254 0 0.4999998 -0.8660255 0 0 0 -1 3.06017e-6 0 -1 1.53008e-5 0 1 1.22407e-5 0 1 -0.9467146 0 0.3220738 0.4733566 -0.81988 -0.3220723 0.4733592 0.8198787 -0.3220718 -0.4733566 0.81988 -0.3220722 -0.4733573 -0.8198796 -0.322072 0.9467149 -4.29597e-7 -0.3220729 -0.9467157 0 -0.3220707 0.9467151 0 0.3220724 -0.4733563 -0.8198798 0.3220731 -0.4733583 0.8198787 0.3220728 0.4733583 0.8198787 0.3220728 0.4733589 -0.8198783 0.3220727</float_array>
          <technique_common>
            <accessor source="#Cylinder-mesh-normals-array" count="87" stride="3">
              <param name="X" type="float"/>
              <param name="Y" type="float"/>
              <param name="Z" type="float"/>
            </accessor>
          </technique_common>
        </source>
        <source id="Cylinder-mesh-map-0">
          <float_array id="Cylinder-mesh-map-0-array" count="816">0.2584236 0.5032622 0.2109221 0.7258344 0.2109221 0.5032622 0.1834971 0.5032622 0.2383472 0.7258344 0.2383472 0.5032622 0.2109221 0.5032622 0.2584236 0.7258344 0.2584236 0.5032622 0.1634204 0.5032622 0.2109221 0.7258344 0.2109221 0.5032622 0.768602 0.9296866 0.7235544 0.9296866 0.7460783 0.9686989 0.2383472 0.5032622 0.1834971 0.7258344 0.1834971 0.5032622 0.2109221 0.5032622 0.1634204 0.7258344 0.1634204 0.5032622 0.7235544 0.9556949 0.7460783 0.9166826 0.768602 0.9556949 0.7539063 0.9039137 0.7880671 0.9236366 0.7880671 0.9630821 0.7197453 0.9630821 0.7102695 0.9181656 0.7197453 0.9236366 0.7539063 0.892972 0.7880671 0.9236366 0.7975429 0.9181656 0.7975429 0.968553 0.7539063 0.9828048 0.7539063 0.9937466 0.7539063 0.9937466 0.7197453 0.9630821 0.7102695 0.968553 0.7539063 0.892972 0.7197453 0.9236366 0.7539063 0.9039137 0.7975429 0.9181656 0.7880671 0.9630821 0.7975429 0.968553 0.7102695 0.968553 0.7197453 0.9236366 0.7102695 0.9181656 0.7880671 0.9236366 0.7975429 0.968553 0.7880671 0.9630821 0.7197453 0.9236366 0.7539063 0.892972 0.7539063 0.9039137 0.7539063 0.9828048 0.7102695 0.968553 0.7197453 0.9630821 0.7880671 0.9630821 0.7539063 0.9937466 0.7539063 0.9828048 0.7880671 0.9236366 0.7539063 0.892972 0.7975429 0.9181656 0.7736869 0.5795769 0.7264569 0.6016908 0.7094196 0.5795769 0.9266402 0.5980229 0.6324841 0.563539 0.9121245 0.563539 0.8081051 0.5577181 0.7062327 0.6011879 0.7121108 0.5577181 0.8029854 0.5980302 0.7218386 0.5791353 0.7795904 0.5791353 0.8225991 0.5793143 0.7193486 0.5965972 0.7284362 0.5793143 0.7736869 0.5795769 0.7264569 0.6016908 0.7566496 0.6016908 0.6324841 0.563539 0.9266402 0.5980229 0.9121245 0.563539 0.8081051 0.5577181 0.7062327 0.6011879 0.8139832 0.6011879 0.7218386 0.5791353 0.8029854 0.5980302 0.7795904 0.5791353 0.8225991 0.5793143 0.7193486 0.5965972 0.8316867 0.5965972 0.8045583 0.9531423 0.7747774 0.9917971 0.8045583 0.9531423 0.6922201 0.9531423 0.7013078 0.9358594 0.6922201 0.9531423 0.7747774 0.9917971 0.722001 0.9917971 0.7747774 0.9917971 0.7252178 0.8799216 0.7273972 0.8519528 0.7252178 0.8799216 0.7954706 0.9358594 0.8045583 0.9531423 0.7954706 0.9358594 0.7693812 0.8519528 0.7715606 0.8799216 0.7693812 0.8519528 0.7223801 0.9078905 0.7252178 0.8799216 0.7223801 0.9078905 0.7743983 0.9078905 0.7954706 0.9358594 0.7743983 0.9078905 0.722001 0.9917971 0.6922201 0.9531423 0.722001 0.9917971 0.7013078 0.9358594 0.7223801 0.9078905 0.7013078 0.9358594 0.7273972 0.8519528 0.7693812 0.8519528 0.7273972 0.8519528 0.7715606 0.8799216 0.7743983 0.9078905 0.7715606 0.8799216 0.7736869 0.5795769 0.7264569 0.6016908 0.7566496 0.6016908 0.6324841 0.563539 0.9266402 0.5980229 0.9121245 0.563539 0.8081051 0.5577181 0.7062327 0.6011879 0.8139832 0.6011879 0.7218386 0.5791353 0.8029854 0.5980302 0.7795904 0.5791353 0.8225991 0.5793143 0.7193486 0.5965972 0.8316867 0.5965972 0.7736869 0.5795769 0.7264569 0.6016908 0.7094196 0.5795769 0.9266402 0.5980229 0.6324841 0.563539 0.9121245 0.563539 0.8081051 0.5577181 0.7062327 0.6011879 0.7121108 0.5577181 0.8029854 0.5980302 0.7218386 0.5791353 0.7795904 0.5791353 0.8225991 0.5793143 0.7193486 0.5965972 0.7284362 0.5793143 0.7747774 0.9917971 0.8045583 0.9531423 0.8045583 0.9531423 0.7013078 0.9358594 0.6922201 0.9531423 0.6922201 0.9531423 0.722001 0.9917971 0.7747774 0.9917971 0.7747774 0.9917971 0.7273972 0.8519528 0.7252178 0.8799216 0.7252178 0.8799216 0.8045583 0.9531423 0.7954706 0.9358594 0.7954706 0.9358594 0.7715606 0.8799216 0.7693812 0.8519528 0.7693812 0.8519528 0.7252178 0.8799216 0.7223801 0.9078905 0.7223801 0.9078905 0.7954706 0.9358594 0.7743983 0.9078905 0.7743983 0.9078905 0.6922201 0.9531423 0.722001 0.9917971 0.722001 0.9917971 0.7223801 0.9078905 0.7013078 0.9358594 0.7013078 0.9358594 0.7693812 0.8519528 0.7273972 0.8519528 0.7273972 0.8519528 0.7743983 0.9078905 0.7715606 0.8799216 0.7715606 0.8799216 0.2584236 0.5032622 0.2584236 0.7258344 0.2109221 0.7258344 0.1834971 0.5032622 0.1834971 0.7258344 0.2383472 0.7258344 0.2109221 0.5032622 0.2109221 0.7258344 0.2584236 0.7258344 0.1634204 0.5032622 0.1634204 0.7258344 0.2109221 0.7258344 0.7460783 0.9686989 0.768602 0.9556949 0.768602 0.9296866 0.768602 0.9296866 0.7460783 0.9166826 0.7235544 0.9296866 0.7235544 0.9296866 0.7235544 0.9556949 0.7460783 0.9686989 0.2383472 0.5032622 0.2383472 0.7258344 0.1834971 0.7258344 0.2109221 0.5032622 0.2109221 0.7258344 0.1634204 0.7258344 0.768602 0.9556949 0.7460783 0.9686989 0.7235544 0.9556949 0.7235544 0.9556949 0.7235544 0.9296866 0.7460783 0.9166826 0.7460783 0.9166826 0.768602 0.9296866 0.768602 0.9556949 0.7880671 0.9630821 0.7539063 0.9828048 0.7539063 0.9039137 0.7539063 0.9828048 0.7197453 0.9630821 0.7539063 0.9039137 0.7197453 0.9630821 0.7197453 0.9236366 0.7539063 0.9039137 0.7197453 0.9630821 0.7102695 0.968553 0.7102695 0.9181656 0.7539063 0.892972 0.7539063 0.9039137 0.7880671 0.9236366 0.7975429 0.968553 0.7880671 0.9630821 0.7539063 0.9828048 0.7539063 0.9937466 0.7539063 0.9828048 0.7197453 0.9630821 0.7539063 0.892972 0.7102695 0.9181656 0.7197453 0.9236366 0.7975429 0.9181656 0.7880671 0.9236366 0.7880671 0.9630821 0.7102695 0.968553 0.7197453 0.9630821 0.7197453 0.9236366 0.7880671 0.9236366 0.7975429 0.9181656 0.7975429 0.968553 0.7197453 0.9236366 0.7102695 0.9181656 0.7539063 0.892972 0.7539063 0.9828048 0.7539063 0.9937466 0.7102695 0.968553 0.7880671 0.9630821 0.7975429 0.968553 0.7539063 0.9937466 0.7880671 0.9236366 0.7539063 0.9039137 0.7539063 0.892972 0.7736869 0.5795769 0.7566496 0.6016908 0.7264569 0.6016908 0.9266402 0.5980229 0.6179684 0.5980229 0.6324841 0.563539 0.8081051 0.5577181 0.8139832 0.6011879 0.7062327 0.6011879 0.8029854 0.5980302 0.6984435 0.5980302 0.7218386 0.5791353 0.8225991 0.5793143 0.8316867 0.5965972 0.7193486 0.5965972 0.7736869 0.5795769 0.7094196 0.5795769 0.7264569 0.6016908 0.6324841 0.563539 0.6179684 0.5980229 0.9266402 0.5980229 0.8081051 0.5577181 0.7121108 0.5577181 0.7062327 0.6011879 0.7218386 0.5791353 0.6984435 0.5980302 0.8029854 0.5980302 0.8225991 0.5793143 0.7284362 0.5793143 0.7193486 0.5965972 0.8045583 0.9531423 0.7747774 0.9917971 0.7747774 0.9917971 0.6922201 0.9531423 0.7013078 0.9358594 0.7013078 0.9358594 0.7747774 0.9917971 0.722001 0.9917971 0.722001 0.9917971 0.7252178 0.8799216 0.7273972 0.8519528 0.7273972 0.8519528 0.7954706 0.9358594 0.8045583 0.9531423 0.8045583 0.9531423 0.7693812 0.8519528 0.7715606 0.8799216 0.7715606 0.8799216 0.7223801 0.9078905 0.7252178 0.8799216 0.7252178 0.8799216 0.7743983 0.9078905 0.7954706 0.9358594 0.7954706 0.9358594 0.722001 0.9917971 0.6922201 0.9531423 0.6922201 0.9531423 0.7013078 0.9358594 0.7223801 0.9078905 0.7223801 0.9078905 0.7273972 0.8519528 0.7693812 0.8519528 0.7693812 0.8519528 0.7715606 0.8799216 0.7743983 0.9078905 0.7743983 0.9078905 0.7736869 0.5795769 0.7094196 0.5795769 0.7264569 0.6016908 0.6324841 0.563539 0.6179684 0.5980229 0.9266402 0.5980229 0.8081051 0.5577181 0.7121108 0.5577181 0.7062327 0.6011879 0.7218386 0.5791353 0.6984435 0.5980302 0.8029854 0.5980302 0.8225991 0.5793143 0.7284362 0.5793143 0.7193486 0.5965972 0.7736869 0.5795769 0.7566496 0.6016908 0.7264569 0.6016908 0.9266402 0.5980229 0.6179684 0.5980229 0.6324841 0.563539 0.8081051 0.5577181 0.8139832 0.6011879 0.7062327 0.6011879 0.8029854 0.5980302 0.6984435 0.5980302 0.7218386 0.5791353 0.8225991 0.5793143 0.8316867 0.5965972 0.7193486 0.5965972 0.7747774 0.9917971 0.7747774 0.9917971 0.8045583 0.9531423 0.7013078 0.9358594 0.7013078 0.9358594 0.6922201 0.9531423 0.722001 0.9917971 0.722001 0.9917971 0.7747774 0.9917971 0.7273972 0.8519528 0.7273972 0.8519528 0.7252178 0.8799216 0.8045583 0.9531423 0.8045583 0.9531423 0.7954706 0.9358594 0.7715606 0.8799216 0.7715606 0.8799216 0.7693812 0.8519528 0.7252178 0.8799216 0.7252178 0.8799216 0.7223801 0.9078905 0.7954706 0.9358594 0.7954706 0.9358594 0.7743983 0.9078905 0.6922201 0.9531423 0.6922201 0.9531423 0.722001 0.9917971 0.7223801 0.9078905 0.7223801 0.9078905 0.7013078 0.9358594 0.7693812 0.8519528 0.7693812 0.8519528 0.7273972 0.8519528 0.7743983 0.9078905 0.7743983 0.9078905 0.7715606 0.8799216</float_array>
          <technique_common>
            <accessor source="#Cylinder-mesh-map-0-array" count="408" stride="2">
              <param name="S" type="float"/>
              <param name="T" type="float"/>
            </accessor>
          </technique_common>
        </source>
        <vertices id="Cylinder-mesh-vertices">
          <input semantic="POSITION" source="#Cylinder-mesh-positions"/>
        </vertices>
        <triangles material="Material_001-material" count="136">
          <input semantic="VERTEX" source="#Cylinder-mesh-vertices" offset="0"/>
          <input semantic="NORMAL" source="#Cylinder-mesh-normals" offset="1"/>
          <input semantic="TEXCOORD" source="#Cylinder-mesh-map-0" offset="2" set="0"/>
          <p>2 0 0 1 0 1 0 0 2 4 1 3 3 1 4 2 1 5 6 2 6 5 2 7 4 2 8 8 3 9 7 3 10 6 3 11 5 4 12 9 4 13 1 4 14 10 5 15 9 5 16 8 5 17 0 6 18 11 6 19 10 6 20 10 7 21 6 7 22 2 7 23 15 8 24 14 8 25 13 8 26 17 9 27 29 9 28 16 9 29 24 10 30 20 10 31 25 10 32 26 11 33 18 11 34 27 11 35 27 12 36 23 12 37 28 12 38 24 13 39 22 13 40 21 13 41 25 14 42 19 14 43 26 14 44 28 15 45 22 15 46 29 15 47 14 16 48 26 16 49 13 16 50 16 17 51 24 17 52 15 17 53 12 18 54 28 18 55 17 18 56 13 19 57 27 19 58 12 19 59 14 20 60 24 20 61 25 20 62 34 21 63 33 22 64 41 23 65 37 24 66 31 25 67 30 26 68 37 24 69 39 27 70 38 28 71 35 29 72 39 27 73 36 30 74 35 29 75 41 23 76 40 31 77 42 32 78 44 33 79 43 34 80 49 35 81 47 36 82 46 37 83 47 36 84 51 38 85 50 39 86 51 38 87 52 40 88 50 39 89 52 40 90 45 41 91 42 32 92 42 32 93 32 42 94 34 21 95 45 41 96 40 31 97 41 23 98 43 34 99 33 22 100 32 42 101 48 43 102 31 25 103 38 28 104 52 40 105 34 21 106 35 29 107 46 37 108 37 24 109 30 26 110 51 38 111 38 28 112 39 27 113 50 39 114 35 29 115 36 30 116 44 33 117 41 23 118 33 22 119 53 44 120 39 27 121 40 31 122 49 35 123 30 26 124 31 25 125 47 36 126 36 30 127 37 24 128 58 45 129 57 46 130 56 47 131 55 48 132 61 49 133 54 50 134 61 49 135 63 51 136 60 52 137 63 51 138 59 53 139 60 52 140 59 53 141 65 54 142 58 45 143 66 55 144 68 56 145 69 57 146 71 58 147 73 59 148 70 60 149 71 58 150 75 61 151 72 62 152 76 63 153 75 61 154 74 64 155 76 63 156 69 57 157 77 65 158 56 47 159 66 55 160 58 45 161 64 66 162 69 57 163 65 54 164 57 46 165 67 67 166 56 47 167 55 48 168 72 62 169 62 68 170 58 45 171 76 63 172 59 53 173 61 49 174 70 60 175 54 50 176 62 68 177 75 61 178 63 51 179 59 53 180 74 64 181 60 52 182 65 54 183 68 56 184 57 46 185 63 51 186 77 65 187 64 66 188 54 50 189 73 59 190 55 48 191 60 52 192 71 58 193 61 49 194 2 69 195 3 69 196 1 69 197 4 1 198 5 1 199 3 1 200 6 70 201 7 70 202 5 70 203 8 3 204 9 3 205 7 3 206 1 71 207 3 71 208 5 71 209 5 71 210 7 71 211 9 71 212 9 72 213 11 72 214 1 72 215 10 5 216 11 5 217 9 5 218 0 6 219 1 6 220 11 6 221 2 8 222 0 8 223 10 8 224 10 73 225 8 73 226 6 73 227 6 74 228 4 74 229 2 74 230 13 8 231 12 8 232 15 8 233 12 8 234 17 8 235 15 8 236 17 8 237 16 8 238 15 8 239 17 75 240 28 75 241 29 75 242 24 76 243 21 76 244 20 76 245 26 77 246 19 77 247 18 77 248 27 78 249 18 78 250 23 78 251 24 79 252 29 79 253 22 79 254 25 80 255 20 80 256 19 80 257 28 81 258 23 81 259 22 81 260 14 82 261 25 82 262 26 82 263 16 83 264 29 83 265 24 83 266 12 84 267 27 84 268 28 84 269 13 85 270 26 85 271 27 85 272 14 86 273 15 86 274 24 86 275 34 21 276 32 42 277 33 22 278 37 24 279 38 28 280 31 25 281 37 24 282 36 30 283 39 27 284 35 29 285 40 31 286 39 27 287 35 29 288 34 21 289 41 23 290 42 32 291 45 41 292 44 33 293 49 35 294 48 43 295 47 36 296 47 36 297 48 43 298 51 38 299 51 38 300 53 44 301 52 40 302 52 40 303 53 44 304 45 41 305 42 32 306 43 34 307 32 42 308 45 41 309 53 44 310 40 31 311 43 34 312 44 33 313 33 22 314 48 43 315 49 35 316 31 25 317 52 40 318 42 32 319 34 21 320 46 37 321 47 36 322 37 24 323 51 38 324 48 43 325 38 28 326 50 39 327 52 40 328 35 29 329 44 33 330 45 41 331 41 23 332 53 44 333 51 38 334 39 27 335 49 35 336 46 37 337 30 26 338 47 36 339 50 39 340 36 30 341 58 45 342 65 54 343 57 46 344 55 48 345 62 68 346 61 49 347 61 49 348 62 68 349 63 51 350 63 51 351 64 66 352 59 53 353 59 53 354 64 66 355 65 54 356 66 55 357 67 67 358 68 56 359 71 58 360 72 62 361 73 59 362 71 58 363 74 64 364 75 61 365 76 63 366 77 65 367 75 61 368 76 63 369 66 55 370 69 57 371 56 47 372 67 67 373 66 55 374 64 66 375 77 65 376 69 57 377 57 46 378 68 56 379 67 67 380 55 48 381 73 59 382 72 62 383 58 45 384 66 55 385 76 63 386 61 49 387 71 58 388 70 60 389 62 68 390 72 62 391 75 61 392 59 53 393 76 63 394 74 64 395 65 54 396 69 57 397 68 56 398 63 51 399 75 61 400 77 65 401 54 50 402 70 60 403 73 59 404 60 52 405 74 64 406 71 58 407</p>
        </triangles>
      </mesh>
    </geometry>
  </library_geometries>
  <library_visual_scenes>
    <visual_scene id="Scene" name="Scene">
      <node id="minoan_cerimonial_axe" name="minoan_cerimonial_axe" type="NODE">
        <matrix sid="transform">1 0 0 0 0 1 0 0 0 0 1 0 0 0 0 1</matrix>
        <instance_geometry url="#Cylinder-mesh" name="minoan_cerimonial_axe">
          <bind_material>
            <technique_common>
              <instance_material symbol="Material_001-material" target="#Material_001-material">
                <bind_vertex_input semantic="UVMap" input_semantic="TEXCOORD" input_set="0"/>
              </instance_material>
            </technique_common>
          </bind_material>
        </instance_geometry>
      </node>
    </visual_scene>
  </library_visual_scenes>
  <scene>
    <instance_visual_scene url="#Scene"/>
  </scene>
</COLLADA>