<?xml version="1.0" encoding="utf-8"?>
<COLLADA xmlns="http://www.collada.org/2005/11/COLLADASchema" version="1.4.1" xmlns:xsi="http://www.w3.org/2001/XMLSchema-instance">
  <asset>
    <contributor>
      <author>Blender User</author>
      <authoring_tool>Blender 2.80.75 commit date:2019-07-29, commit time:14:47, hash:f6cb5f54494e</authoring_tool>
    </contributor>
    <created>2026-04-11T13:42:19</created>
    <modified>2026-04-11T13:42:19</modified>
    <unit name="meter" meter="1"/>
    <up_axis>Z_UP</up_axis>
  </asset>
  <library_effects>
    <effect id="Material-effect">
      <profile_COMMON>
        <newparam sid="axe_micenae_png-surface">
          <surface type="2D">
            <init_from>axe_micenae_png</init_from>
          </surface>
        </newparam>
        <newparam sid="axe_micenae_png-sampler">
          <sampler2D>
            <source>axe_micenae_png-surface</source>
          </sampler2D>
        </newparam>
        <technique sid="common">
          <lambert>
            <emission>
              <color sid="emission">0 0 0 1</color>
            </emission>
            <diffuse>
              <texture texture="axe_micenae_png-sampler" texcoord="UVMap"/>
            </diffuse>
            <index_of_refraction>
              <float sid="ior">1.45</float>
            </index_of_refraction>
          </lambert>
        </technique>
      </profile_COMMON>
    </effect>
  </library_effects>
  <library_images>
    <image id="axe_micenae_png" name="axe_micenae_png">
      <init_from>/home/welton/Downloads/axe_micenae.png</init_from>
    </image>
  </library_images>
  <library_materials>
    <material id="Material-material" name="Material">
      <instance_effect url="#Material-effect"/>
    </material>
  </library_materials>
  <library_geometries>
    <geometry id="Cylinder-mesh" name="Cylinder">
      <mesh>
        <source id="Cylinder-mesh-positions">
          <float_array id="Cylinder-mesh-positions-array" count="240">-0.001458466 0.03749227 1.1706 -0.001458466 0.05631178 -0.7526534 0.03101074 0.01874613 1.1706 0.04730892 0.02815592 -0.7526534 0.03101074 -0.01874613 1.1706 0.04730892 -0.02815592 -0.7526534 -0.001458466 -0.03749227 1.1706 -0.001458525 -0.05631184 -0.7526534 -0.03392779 -0.01874613 1.1706 -0.05022597 -0.02815592 -0.7526534 -0.03392779 0.01874613 1.1706 -0.05022597 0.02815586 -0.7526534 -0.01157289 0.02613496 0.7880164 -0.01157289 0.02613496 1.123547 0.02293884 0.02613496 0.7880164 0.02293884 0.02613496 1.123547 0.008018672 0.5502122 0.9182052 -0.008018434 0.5502122 0.9182052 0.008018672 0.5175024 0.7990856 -0.008018434 0.5175024 0.7990856 0.008018672 0.424353 0.698101 -0.008018434 0.424353 0.6981009 0.008018672 0.2849451 0.6306252 -0.008018434 0.2849451 0.6306251 0.04194027 0.1205022 0.6069309 -0.04194009 0.1205022 0.6069307 0.04194027 -0.04394054 0.6213725 -0.04194009 -0.04394054 0.6213725 0.04194027 -0.0439406 1.215038 -0.04194009 -0.0439406 1.215038 0.04194027 0.1205023 1.22948 -0.04194009 0.1205023 1.22948 0.008018672 0.2849452 1.205785 -0.008018434 0.2849452 1.205785 0.008018672 0.4243531 1.138309 -0.008018434 0.4243531 1.138309 0.008018672 0.5175026 1.037325 -0.008018434 0.5175026 1.037325 0.008018672 0.5502122 0.9182052 0.008018672 0.5175024 0.7990856 0.008018672 0.424353 0.698101 0.008018672 0.2849451 0.6306252 0.058797 0.1205022 0.6069309 0.058797 -0.04394054 0.6213725 0.03905695 -0.0439406 1.215038 0.03905695 0.1205023 1.22948 0.008018672 0.2849452 1.205785 0.008018672 0.4243531 1.138309 0.008018672 0.5175026 1.037325 -0.008018434 0.5502122 0.9182052 -0.008018434 0.5175024 0.7990856 -0.008018434 0.424353 0.6981009 -0.008018434 0.2849451 0.6306251 -0.05879676 0.1205022 0.6069307 -0.05879676 -0.04394054 0.6213725 -0.03905677 -0.0439406 1.215038 -0.03905671 0.1205023 1.22948 -0.008018434 0.2849452 1.205785 -0.008018434 0.4243531 1.138309 -0.008018434 0.5175026 1.037325 -0.001458466 0.03749227 0.5295156 -0.001458466 0.03749227 -0.1115689 0.03101074 0.01874613 -0.1115689 0.03101074 0.01874613 0.5295156 0.03101074 -0.01874613 -0.1115689 0.03101074 -0.01874613 0.5295156 -0.001458466 -0.03749227 -0.1115689 -0.001458466 -0.03749227 0.5295156 -0.03392779 -0.01874613 -0.1115689 -0.03392779 -0.01874613 0.5295156 -0.03392779 0.01874613 -0.1115689 -0.03392779 0.01874613 0.5295156 -0.004025995 -0.00828135 -0.8017274 -0.004025995 0.04722583 -0.4138391 -0.004025995 -0.3332748 -0.8017274 -0.004025995 -0.2777676 -0.4138391 0.02642714 -0.00828135 -0.8017274 0.02642714 0.04722583 -0.4138391 0.02642714 -0.3332748 -0.8017274 0.02642714 -0.2777676 -0.4138391</float_array>
          <technique_common>
            <accessor source="#Cylinder-mesh-positions-array" count="80" stride="3">
              <param name="X" type="float"/>
              <param name="Y" type="float"/>
              <param name="Z" type="float"/>
            </accessor>
          </technique_common>
        </source>
        <source id="Cylinder-mesh-normals">
          <float_array id="Cylinder-mesh-normals-array" count="183">0.4998385 0.8657457 0.02541464 0.9996771 0 0.02541464 0.4998383 -0.8657458 0.02541464 -0.4998385 -0.8657457 0.02541464 0 0 -1 -0.9996771 0 0.02541464 -0.4998386 0.8657456 0.02541464 -4.08023e-6 0 1 0 -1 0 0 0.8744393 -0.485135 0 1 0 0 0.5957924 -0.8031386 0 0.2836415 -0.9589304 0 0.01980686 -0.9998039 0 -0.08746713 -0.9961675 0 -0.08746713 0.9961675 0 0.01980686 0.9998039 0 0.2836415 0.9589304 0 0.5957924 0.8031386 0 0.8744393 0.485135 1 0 0 -1 0 0 -0.5000001 0.8660254 0 -0.5000001 0.8660254 0 -1 0 0 -0.5000001 -0.8660254 0 -0.5 -0.8660254 0 0.4999998 -0.8660255 0 0.4999999 -0.8660255 0 1 0 0 0.5000001 0.8660254 0 0.5 0.8660254 0 -1 0 0 0 -0.9899157 0.1416578 0 0 1 0.4998385 0.8657457 0.02541464 0.999677 0 0.02541464 0.4998384 -0.8657458 0.02541464 -0.4998385 -0.8657457 0.02541464 2.71306e-6 0 -1 -0.999677 0 0.02541464 -0.4998385 0.8657458 0.02541464 1.53008e-5 0 1 1.22407e-5 0 1 0.9826493 0.1854734 0 0.9994939 -0.002783298 0.03169232 0.9994435 0.002918541 0.03323256 0.9562677 0.290917 0.03032165 -1 0 0 -1 0 0 -1 0 0 -0.9562677 0.2909172 0.03032171 -0.9826493 0.1854732 0 -0.9994434 0.002918541 0.03323256 -0.9994938 -0.002783179 0.03169232 -1 0 0 -0.5000001 0.8660253 0 -0.5 -0.8660255 0 0.4999998 -0.8660255 0 -1 0 0 0 -0.9899157 0.1416578</float_array>
          <technique_common>
            <accessor source="#Cylinder-mesh-normals-array" count="61" stride="3">
              <param name="X" type="float"/>
              <param name="Y" type="float"/>
              <param name="Z" type="float"/>
            </accessor>
          </technique_common>
        </source>
        <source id="Cylinder-mesh-map-0">
          <float_array id="Cylinder-mesh-map-0-array" count="552">0.3071449 0.6212876 0.2699809 0.9103741 0.2699809 0.6212877 0.2485241 0.6212876 0.2914376 0.9103741 0.2914376 0.6212876 0.2699809 0.6212876 0.3071449 0.9103741 0.3071449 0.6212876 0.2328166 0.6212876 0.2699809 0.9103741 0.2699809 0.6212876 0.768602 0.9296866 0.7235544 0.9296866 0.7460783 0.9686989 0.2914376 0.6212876 0.2485241 0.9103741 0.2485241 0.6212876 0.2699809 0.6212877 0.2328166 0.9103741 0.2328166 0.6212876 0.7235544 0.9556949 0.7460783 0.9166826 0.768602 0.9556949 0.7693812 0.8519528 0.7273972 0.8519528 0.7273972 0.8519528 0.9485284 0.6469493 0.9398978 0.6739722 0.9485284 0.6739722 0.9485284 0.6240404 0.9398978 0.6469493 0.9485284 0.6469493 0.9485284 0.6672511 0.9398978 0.6988765 0.9485284 0.6988765 0.9485284 0.6299464 0.9398978 0.6672511 0.9485284 0.6672511 0.9485284 0.6299464 0.9398978 0.5926417 0.9398978 0.6299464 0.9485284 0.5926417 0.9398978 0.6299464 0.9398978 0.5926417 0.9485284 0.6672512 0.9398978 0.6299464 0.9485284 0.6299464 0.9485284 0.6988766 0.9398978 0.6672512 0.9485284 0.6672512 0.9485284 0.700995 0.9398978 0.723904 0.9485284 0.723904 0.9485284 0.6739722 0.9398978 0.700995 0.9485284 0.700995 0.8986529 0.4405915 0.9643941 0.5401571 0.9643941 0.7750483 0.898653 0.8746139 0.9643941 0.7750483 0.8986529 0.4405915 0.2699809 0.04311472 0.2328166 0.3322011 0.2328166 0.04311472 0.2699809 0.3322012 0.2328166 0.6212876 0.2328166 0.3322011 0.2914376 0.04311472 0.2485241 0.3322011 0.2485241 0.04311472 0.2914376 0.3322011 0.2485241 0.6212876 0.2485241 0.3322011 0.2328166 0.04311472 0.2699809 0.3322011 0.2699809 0.04311472 0.2328166 0.3322011 0.2699809 0.6212876 0.2699809 0.3322011 0.2699809 0.04311472 0.3071449 0.3322011 0.3071449 0.04311472 0.2699809 0.3322011 0.3071449 0.6212876 0.3071449 0.3322011 0.2485241 0.04311472 0.2914376 0.3322011 0.2914376 0.04311472 0.2485241 0.3322011 0.2914376 0.6212876 0.2914376 0.3322011 0.3071449 0.04311472 0.2699809 0.3322012 0.2699809 0.04311472 0.3071449 0.3322011 0.2699809 0.6212877 0.2699809 0.3322012 0.1150004 0.8184229 0.01728034 0.9724456 0.1356116 0.9727531 0.01728034 0.9724456 0.1150004 0.8184229 0.1356116 0.9727531 -0.003330826 0.8181154 0.01728034 0.9724456 -0.003330826 0.8181154 0.01728034 0.9724456 0.1356116 0.9727531 0.01728034 0.9724456 0.3071449 0.6212876 0.3071449 0.9103741 0.2699809 0.9103741 0.2485241 0.6212876 0.2485241 0.9103741 0.2914376 0.9103741 0.2699809 0.6212876 0.2699809 0.9103741 0.3071449 0.9103741 0.2328166 0.6212876 0.2328166 0.9103741 0.2699809 0.9103741 0.7460783 0.9686989 0.768602 0.9556949 0.768602 0.9296866 0.768602 0.9296866 0.7460783 0.9166826 0.7235544 0.9296866 0.7235544 0.9296866 0.7235544 0.9556949 0.7460783 0.9686989 0.2914376 0.6212876 0.2914376 0.9103741 0.2485241 0.9103741 0.2699809 0.6212877 0.2699809 0.9103741 0.2328166 0.9103741 0.768602 0.9556949 0.7460783 0.9686989 0.7235544 0.9556949 0.7235544 0.9556949 0.7235544 0.9296866 0.7460783 0.9166826 0.7460783 0.9166826 0.768602 0.9296866 0.768602 0.9556949 0.7693812 0.8519528 0.7693812 0.8519528 0.7273972 0.8519528 0.9485284 0.6469493 0.9398978 0.6469493 0.9398978 0.6739722 0.9485284 0.6240404 0.9398978 0.6240404 0.9398978 0.6469493 0.9485284 0.6672511 0.9398978 0.6672511 0.9398978 0.6988765 0.9485284 0.6299464 0.9398978 0.6299464 0.9398978 0.6672511 0.9485284 0.6299464 0.9485284 0.5926417 0.9398978 0.5926417 0.9485284 0.5926417 0.9485284 0.6299464 0.9398978 0.6299464 0.9485284 0.6672512 0.9398978 0.6672512 0.9398978 0.6299464 0.9485284 0.6988766 0.9398978 0.6988766 0.9398978 0.6672512 0.9485284 0.700995 0.9398978 0.700995 0.9398978 0.723904 0.9485284 0.6739722 0.9398978 0.6739722 0.9398978 0.700995 0.9643941 0.5401571 0.9874793 0.6576027 0.9643941 0.7750483 0.9643941 0.7750483 0.898653 0.874614 0.8986529 0.4405915 0.898653 0.874614 0.8002644 0.9411416 0.8002644 0.3740639 0.8986529 0.4405915 0.898653 0.874614 0.8002644 0.3740639 0.8002644 0.9411416 0.6842071 0.9645029 0.8002644 0.3740639 0.6842071 0.9645029 0.5681498 0.9502642 0.6842071 0.3507025 0.5681498 0.9502642 0.5681498 0.3649413 0.6842071 0.3507025 0.6842071 0.3507025 0.8002644 0.3740639 0.6842071 0.9645029 0.9874793 0.6576027 0.9643941 0.5401571 0.9643941 0.7750483 0.9643941 0.5401571 0.8986529 0.4405915 0.9643941 0.7750483 0.8986529 0.4405915 0.8002644 0.3740639 0.898653 0.8746139 0.8002644 0.3740639 0.6842071 0.3507024 0.6842071 0.9645029 0.8002644 0.9411416 0.8002644 0.3740639 0.6842071 0.9645029 0.6842071 0.3507024 0.5681498 0.3649412 0.5681498 0.9502642 0.5681498 0.9502642 0.6842071 0.9645029 0.6842071 0.3507024 0.8002644 0.9411416 0.898653 0.8746139 0.8002644 0.3740639 0.2699809 0.04311472 0.2699809 0.3322012 0.2328166 0.3322011 0.2699809 0.3322012 0.2699809 0.6212877 0.2328166 0.6212876 0.2914376 0.04311472 0.2914376 0.3322011 0.2485241 0.3322011 0.2914376 0.3322011 0.2914376 0.6212876 0.2485241 0.6212876 0.2328166 0.04311472 0.2328166 0.3322011 0.2699809 0.3322011 0.2328166 0.3322011 0.2328166 0.6212876 0.2699809 0.6212876 0.2699809 0.04311472 0.2699809 0.3322011 0.3071449 0.3322011 0.2699809 0.3322011 0.2699809 0.6212876 0.3071449 0.6212876 0.2485241 0.04311472 0.2485241 0.3322011 0.2914376 0.3322011 0.2485241 0.3322011 0.2485241 0.6212876 0.2914376 0.6212876 0.3071449 0.04311472 0.3071449 0.3322011 0.2699809 0.3322012 0.3071449 0.3322011 0.3071449 0.6212876 0.2699809 0.6212877 0.1150004 0.8184229 -0.003330826 0.8181154 0.01728034 0.9724456 0.01728034 0.9724456 -0.003330826 0.8181154 0.1150004 0.8184229 -0.003330826 0.8181154 0.01728034 0.9724456 0.01728034 0.9724456 0.01728034 0.9724456 0.1356116 0.9727531 0.1356116 0.9727531</float_array>
          <technique_common>
            <accessor source="#Cylinder-mesh-map-0-array" count="276" stride="2">
              <param name="S" type="float"/>
              <param name="T" type="float"/>
            </accessor>
          </technique_common>
        </source>
        <vertices id="Cylinder-mesh-vertices">
          <input semantic="POSITION" source="#Cylinder-mesh-positions"/>
        </vertices>
        <triangles material="Material-material" count="92">
          <input semantic="VERTEX" source="#Cylinder-mesh-vertices" offset="0"/>
          <input semantic="NORMAL" source="#Cylinder-mesh-normals" offset="1"/>
          <input semantic="TEXCOORD" source="#Cylinder-mesh-map-0" offset="2" set="0"/>
          <p>62 0 0 1 0 1 61 0 2 64 1 3 3 1 4 62 1 5 66 2 6 5 2 7 64 2 8 68 3 9 7 3 10 66 3 11 5 4 12 9 4 13 1 4 14 70 5 15 9 5 16 68 5 17 61 6 18 11 6 19 70 6 20 10 7 21 6 7 22 2 7 23 12 8 24 15 8 25 13 8 26 18 9 27 17 10 28 16 10 29 20 11 30 19 9 31 18 9 32 22 12 33 21 11 34 20 11 35 24 13 36 23 12 37 22 12 38 24 13 39 27 14 40 25 13 41 28 15 42 31 16 43 29 15 44 32 17 45 31 16 46 30 16 47 34 18 48 33 17 49 32 17 50 36 19 51 35 18 52 34 18 53 16 10 54 37 19 55 36 19 56 40 20 57 39 20 58 48 20 59 58 21 60 59 21 61 51 21 62 0 22 63 71 22 64 10 22 65 60 23 66 70 23 67 71 23 68 10 24 69 69 24 70 8 24 71 71 24 72 68 24 73 69 24 74 8 25 75 67 25 76 6 25 77 69 26 78 66 26 79 67 26 80 6 27 81 65 27 82 4 27 83 67 28 84 64 28 85 65 28 86 4 29 87 63 29 88 2 29 89 65 29 90 62 29 91 63 29 92 2 30 93 60 30 94 0 30 95 63 31 96 61 31 97 60 31 98 72 32 99 75 32 100 73 32 101 79 29 102 76 29 103 77 29 104 78 33 105 75 33 106 74 33 107 79 34 108 73 34 109 75 34 110 62 35 111 3 35 112 1 35 113 64 36 114 5 36 115 3 36 116 66 37 117 7 37 118 5 37 119 68 38 120 9 38 121 7 38 122 1 39 123 3 39 124 5 39 125 5 4 126 7 4 127 9 4 128 9 4 129 11 4 130 1 4 131 70 40 132 11 40 133 9 40 134 61 41 135 1 41 136 11 41 137 2 34 138 0 34 139 10 34 140 10 42 141 8 42 142 6 42 143 6 43 144 4 43 145 2 43 146 12 8 147 14 8 148 15 8 149 18 9 150 19 9 151 17 10 152 20 11 153 21 11 154 19 9 155 22 12 156 23 12 157 21 11 158 24 13 159 25 13 160 23 12 161 24 13 162 26 14 163 27 14 164 28 15 165 30 16 166 31 16 167 32 17 168 33 17 169 31 16 170 34 18 171 35 18 172 33 17 173 36 19 174 37 19 175 35 18 176 16 10 177 17 10 178 37 19 179 39 29 180 38 29 181 48 29 182 48 29 183 47 29 184 40 29 185 47 29 186 46 29 187 41 29 188 40 29 189 47 29 190 41 29 191 46 44 192 45 44 193 41 44 194 45 45 195 44 45 196 42 45 197 44 46 198 43 46 199 42 46 200 42 47 201 41 47 202 45 47 203 49 48 204 50 48 205 59 48 206 50 49 207 51 49 208 59 49 209 51 50 210 52 50 211 58 50 212 52 51 213 53 51 214 56 51 215 57 52 216 52 52 217 56 52 218 53 53 219 54 53 220 55 53 221 55 54 222 56 54 223 53 54 224 57 55 225 58 55 226 52 55 227 0 56 228 60 56 229 71 56 230 60 56 231 61 56 232 70 56 233 10 24 234 71 24 235 69 24 236 71 24 237 70 24 238 68 24 239 8 57 240 69 57 241 67 57 242 69 25 243 68 25 244 66 25 245 6 58 246 67 58 247 65 58 248 67 27 249 66 27 250 64 27 251 4 29 252 65 29 253 63 29 254 65 29 255 64 29 256 62 29 257 2 30 258 63 30 259 60 30 260 63 30 261 62 30 262 61 30 263 72 59 264 74 59 265 75 59 266 79 29 267 78 29 268 76 29 269 78 60 270 79 60 271 75 60 272 79 34 273 77 34 274 73 34 275</p>
        </triangles>
      </mesh>
    </geometry>
  </library_geometries>
  <library_visual_scenes>
    <visual_scene id="Scene" name="Scene">
      <node id="minoan_cerimonial_axe" name="minoan_cerimonial_axe" type="NODE">
        <matrix sid="transform">1 0 0 0 0 1 0 0 0 0 1 0 0 0 0 1</matrix>
        <instance_geometry url="#Cylinder-mesh" name="minoan_cerimonial_axe">
          <bind_material>
            <technique_common>
              <instance_material symbol="Material-material" target="#Material-material">
                <bind_vertex_input semantic="UVMap" input_semantic="TEXCOORD" input_set="0"/>
              </instance_material>
            </technique_common>
          </bind_material>
        </instance_geometry>
      </node>
    </visual_scene>
  </library_visual_scenes>
  <scene>
    <instance_visual_scene url="#Scene"/>
  </scene>
</COLLADA>