<?xml version="1.0" encoding="utf-8"?>
<COLLADA xmlns="http://www.collada.org/2005/11/COLLADASchema" version="1.4.1" xmlns:xsi="http://www.w3.org/2001/XMLSchema-instance">
  <asset>
    <contributor>
      <author>Blender User</author>
      <authoring_tool>Blender 2.80.75 commit date:2019-07-29, commit time:14:47, hash:f6cb5f54494e</authoring_tool>
    </contributor>
    <created>2026-04-11T13:56:20</created>
    <modified>2026-04-11T13:56:20</modified>
    <unit name="meter" meter="1"/>
    <up_axis>Z_UP</up_axis>
  </asset>
  <library_effects>
    <effect id="Material-effect">
      <profile_COMMON>
        <newparam sid="axe_micenae_png-surface">
          <surface type="2D">
            <init_from>axe_micenae_png</init_from>
          </surface>
        </newparam>
        <newparam sid="axe_micenae_png-sampler">
          <sampler2D>
            <source>axe_micenae_png-surface</source>
          </sampler2D>
        </newparam>
        <technique sid="common">
          <lambert>
            <emission>
              <color sid="emission">0 0 0 1</color>
            </emission>
            <diffuse>
              <texture texture="axe_micenae_png-sampler" texcoord="UVMap"/>
            </diffuse>
            <index_of_refraction>
              <float sid="ior">1.45</float>
            </index_of_refraction>
          </lambert>
        </technique>
      </profile_COMMON>
    </effect>
  </library_effects>
  <library_images>
    <image id="axe_micenae_png" name="axe_micenae_png">
      <init_from>/home/welton/Downloads/axe_micenae.png</init_from>
    </image>
  </library_images>
  <library_materials>
    <material id="Material-material" name="Material">
      <instance_effect url="#Material-effect"/>
    </material>
  </library_materials>
  <library_geometries>
    <geometry id="Cylinder-mesh" name="Cylinder">
      <mesh>
        <source id="Cylinder-mesh-positions">
          <float_array id="Cylinder-mesh-positions-array" count="240">0.001458466 -0.03749227 1.1706 0.001458525 -0.05631178 -0.7526534 -0.03101074 -0.01874613 1.1706 -0.04730892 -0.02815592 -0.7526534 -0.03101074 0.01874613 1.1706 -0.04730892 0.02815592 -0.7526534 0.001458466 0.03749227 1.1706 0.001458466 0.05631184 -0.7526534 0.03392779 0.01874613 1.1706 0.05022597 0.02815592 -0.7526534 0.03392779 -0.01874613 1.1706 0.05022597 -0.02815586 -0.7526534 0.01157289 -0.02613496 0.7880164 0.01157289 -0.02613496 1.123547 -0.02293884 -0.02613496 0.7880164 -0.02293884 -0.02613496 1.123547 -0.008018612 -0.5502122 0.9182052 0.008018493 -0.5502122 0.9182052 -0.008018612 -0.5175024 0.7990856 0.008018493 -0.5175024 0.7990856 -0.008018612 -0.424353 0.698101 0.008018434 -0.424353 0.6981009 -0.008018612 -0.2849451 0.6306252 0.008018434 -0.2849451 0.6306251 -0.04194027 -0.1205022 0.6069309 0.04194009 -0.1205022 0.6069307 -0.04194033 0.04394054 0.6213725 0.04194009 0.04394054 0.6213725 -0.04194033 0.0439406 1.215038 0.04194009 0.0439406 1.215038 -0.04194027 -0.1205023 1.22948 0.04194009 -0.1205023 1.22948 -0.008018612 -0.2849452 1.205785 0.008018434 -0.2849452 1.205785 -0.008018612 -0.4243531 1.138309 0.008018434 -0.4243531 1.138309 -0.008018612 -0.5175026 1.037325 0.008018493 -0.5175026 1.037325 -0.008018612 -0.5502122 0.9182052 -0.008018612 -0.5175024 0.7990856 -0.008018612 -0.424353 0.698101 -0.008018612 -0.2849451 0.6306252 -0.05879694 -0.1205022 0.6069309 -0.058797 0.04394054 0.6213725 -0.03905695 0.0439406 1.215038 -0.03905695 -0.1205023 1.22948 -0.008018612 -0.2849452 1.205785 -0.008018612 -0.4243531 1.138309 -0.008018612 -0.5175026 1.037325 0.008018493 -0.5502122 0.9182052 0.008018493 -0.5175024 0.7990856 0.008018434 -0.424353 0.6981009 0.008018434 -0.2849451 0.6306251 0.05879676 -0.1205022 0.6069307 0.05879676 0.04394054 0.6213725 0.03905677 0.0439406 1.215038 0.03905671 -0.1205023 1.22948 0.008018434 -0.2849452 1.205785 0.008018434 -0.4243531 1.138309 0.008018493 -0.5175026 1.037325 0.001458466 -0.03749227 0.5295156 0.001458466 -0.03749227 -0.1115689 -0.03101074 -0.01874613 -0.1115689 -0.03101074 -0.01874613 0.5295156 -0.03101074 0.01874613 -0.1115689 -0.03101074 0.01874613 0.5295156 0.001458466 0.03749227 -0.1115689 0.001458466 0.03749227 0.5295156 0.03392779 0.01874613 -0.1115689 0.03392779 0.01874613 0.5295156 0.03392779 -0.01874613 -0.1115689 0.03392779 -0.01874613 0.5295156 0.004025995 0.00828135 -0.8017274 0.004025995 -0.04722583 -0.4138391 0.004025995 0.3332748 -0.8017274 0.004025995 0.2777676 -0.4138391 -0.02642714 0.00828135 -0.8017274 -0.02642714 -0.04722583 -0.4138391 -0.02642714 0.3332748 -0.8017274 -0.02642714 0.2777676 -0.4138391</float_array>
          <technique_common>
            <accessor source="#Cylinder-mesh-positions-array" count="80" stride="3">
              <param name="X" type="float"/>
              <param name="Y" type="float"/>
              <param name="Z" type="float"/>
            </accessor>
          </technique_common>
        </source>
        <source id="Cylinder-mesh-normals">
          <float_array id="Cylinder-mesh-normals-array" count="201">-0.4998385 -0.8657457 0.02541464 -0.9996771 -1.5494e-7 0.02541464 -0.4998383 0.8657458 0.02541464 0.4998383 0.8657458 0.02541464 1.80871e-6 0 -1 0.9996771 0 0.02541464 0.4998387 -0.8657456 0.02541464 0 0 1 0 1 0 0 -0.8744393 -0.485135 0 -1 0 0 -0.5957924 -0.8031386 0 -0.2836415 -0.9589304 0 -0.01980686 -0.9998039 0 0.08746713 -0.9961675 0 -0.01980686 0.9998039 0 0.08746713 0.9961675 0 -0.2836415 0.9589304 0 -0.5957924 0.8031386 0 -0.8744393 0.485135 -1 0 0 1 0 0 0.5000002 -0.8660253 0 1 0 0 0.4999999 0.8660255 0 -0.4999998 0.8660256 0 -0.4999998 0.8660255 0 -1 -1.5499e-7 0 -0.5 -0.8660255 0 -0.5 -0.8660255 0 1 0 0 -1 0 0 0 0.9899157 0.1416578 -0.4998384 -0.8657458 0.02541464 -0.999677 0 0.02541464 -0.4998385 0.8657458 0.02541464 0.4998385 0.8657458 0.02541464 -2.71306e-6 0 -1 0 0 -1 -2.71306e-6 0 -1 0.999677 0 0.02541464 0.4998387 -0.8657457 0.02541464 -9.18051e-6 0 1 -1 0 0 -1 0 0 -1 0 0 -1 0 0 -0.9826493 -0.1854735 0 -0.9994939 0.002783179 0.03169232 -0.9994435 -0.002918601 0.03323256 -0.9562677 -0.2909169 0.03032165 1 0 0 1 0 0 1 0 0 0.9562678 -0.290917 0.03032171 0.9826494 -0.1854732 0 0.9994434 -0.002918481 0.03323256 0.9994938 0.002783238 0.03169232 1 0 0 0.5000002 -0.8660254 0 0.5 0.8660255 0 -0.4999998 0.8660255 0 -1 -3.09979e-7 0 -0.5000001 -0.8660254 0 1 0 0 -1 0 0 0 0.9899157 0.141658</float_array>
          <technique_common>
            <accessor source="#Cylinder-mesh-normals-array" count="67" stride="3">
              <param name="X" type="float"/>
              <param name="Y" type="float"/>
              <param name="Z" type="float"/>
            </accessor>
          </technique_common>
        </source>
        <source id="Cylinder-mesh-map-0">
          <float_array id="Cylinder-mesh-map-0-array" count="552">0.3071449 0.6212876 0.2699809 0.9103741 0.2699809 0.6212877 0.2485241 0.6212876 0.2914376 0.9103741 0.2914376 0.6212876 0.2699809 0.6212876 0.3071449 0.9103741 0.3071449 0.6212876 0.2328166 0.6212876 0.2699809 0.9103741 0.2699809 0.6212876 0.768602 0.9296866 0.7235544 0.9296866 0.7460783 0.9686989 0.2914376 0.6212876 0.2485241 0.9103741 0.2485241 0.6212876 0.2699809 0.6212877 0.2328166 0.9103741 0.2328166 0.6212876 0.7235544 0.9556949 0.7460783 0.9166826 0.768602 0.9556949 0.7693812 0.8519528 0.7273972 0.8519528 0.7273972 0.8519528 0.9485284 0.6469493 0.9398978 0.6739722 0.9485284 0.6739722 0.9485284 0.6240404 0.9398978 0.6469493 0.9485284 0.6469493 0.9485284 0.6672511 0.9398978 0.6988765 0.9485284 0.6988765 0.9485284 0.6299464 0.9398978 0.6672511 0.9485284 0.6672511 0.9485284 0.6299464 0.9398978 0.5926417 0.9398978 0.6299464 0.9485284 0.6299464 0.9398978 0.5926417 0.9485284 0.5926417 0.9485284 0.6672512 0.9398978 0.6299464 0.9485284 0.6299464 0.9485284 0.6988766 0.9398978 0.6672512 0.9485284 0.6672512 0.9485284 0.700995 0.9398978 0.723904 0.9485284 0.723904 0.9485284 0.6739722 0.9398978 0.700995 0.9485284 0.700995 0.8986529 0.4405915 0.9643941 0.5401571 0.9643941 0.7750483 0.898653 0.8746139 0.9643941 0.7750483 0.8986529 0.4405915 0.2699809 0.04311472 0.2328166 0.3322011 0.2328166 0.04311472 0.2699809 0.3322012 0.2328166 0.6212876 0.2328166 0.3322011 0.2914376 0.04311472 0.2485241 0.3322011 0.2485241 0.04311472 0.2914376 0.3322011 0.2485241 0.6212876 0.2485241 0.3322011 0.2328166 0.04311472 0.2699809 0.3322011 0.2699809 0.04311472 0.2328166 0.3322011 0.2699809 0.6212876 0.2699809 0.3322011 0.2699809 0.04311472 0.3071449 0.3322011 0.3071449 0.04311472 0.2699809 0.3322011 0.3071449 0.6212876 0.3071449 0.3322011 0.2485241 0.04311472 0.2914376 0.3322011 0.2914376 0.04311472 0.2485241 0.3322011 0.2914376 0.6212876 0.2914376 0.3322011 0.3071449 0.04311472 0.2699809 0.3322012 0.2699809 0.04311472 0.3071449 0.3322011 0.2699809 0.6212877 0.2699809 0.3322012 0.1150004 0.8184229 0.01728034 0.9724456 0.1356116 0.9727531 0.01728034 0.9724456 0.1150004 0.8184229 0.1356116 0.9727531 -0.003330826 0.8181154 0.01728034 0.9724456 -0.003330826 0.8181154 0.01728034 0.9724456 0.1356116 0.9727531 0.01728034 0.9724456 0.3071449 0.6212876 0.3071449 0.9103741 0.2699809 0.9103741 0.2485241 0.6212876 0.2485241 0.9103741 0.2914376 0.9103741 0.2699809 0.6212876 0.2699809 0.9103741 0.3071449 0.9103741 0.2328166 0.6212876 0.2328166 0.9103741 0.2699809 0.9103741 0.7460783 0.9686989 0.768602 0.9556949 0.768602 0.9296866 0.768602 0.9296866 0.7460783 0.9166826 0.7235544 0.9296866 0.7235544 0.9296866 0.7235544 0.9556949 0.7460783 0.9686989 0.2914376 0.6212876 0.2914376 0.9103741 0.2485241 0.9103741 0.2699809 0.6212877 0.2699809 0.9103741 0.2328166 0.9103741 0.768602 0.9556949 0.7460783 0.9686989 0.7235544 0.9556949 0.7235544 0.9556949 0.7235544 0.9296866 0.7460783 0.9166826 0.7460783 0.9166826 0.768602 0.9296866 0.768602 0.9556949 0.7693812 0.8519528 0.7693812 0.8519528 0.7273972 0.8519528 0.9485284 0.6469493 0.9398978 0.6469493 0.9398978 0.6739722 0.9485284 0.6240404 0.9398978 0.6240404 0.9398978 0.6469493 0.9485284 0.6672511 0.9398978 0.6672511 0.9398978 0.6988765 0.9485284 0.6299464 0.9398978 0.6299464 0.9398978 0.6672511 0.9485284 0.6299464 0.9485284 0.5926417 0.9398978 0.5926417 0.9485284 0.6299464 0.9398978 0.6299464 0.9398978 0.5926417 0.9485284 0.6672512 0.9398978 0.6672512 0.9398978 0.6299464 0.9485284 0.6988766 0.9398978 0.6988766 0.9398978 0.6672512 0.9485284 0.700995 0.9398978 0.700995 0.9398978 0.723904 0.9485284 0.6739722 0.9398978 0.6739722 0.9398978 0.700995 0.9643941 0.5401571 0.9874793 0.6576027 0.9643941 0.7750483 0.9643941 0.7750483 0.898653 0.874614 0.8986529 0.4405915 0.898653 0.874614 0.8002644 0.9411416 0.8002644 0.3740639 0.8986529 0.4405915 0.898653 0.874614 0.8002644 0.3740639 0.8002644 0.9411416 0.6842071 0.9645029 0.8002644 0.3740639 0.6842071 0.9645029 0.5681498 0.9502642 0.6842071 0.3507025 0.5681498 0.9502642 0.5681498 0.3649413 0.6842071 0.3507025 0.6842071 0.3507025 0.8002644 0.3740639 0.6842071 0.9645029 0.9874793 0.6576027 0.9643941 0.5401571 0.9643941 0.7750483 0.9643941 0.5401571 0.8986529 0.4405915 0.9643941 0.7750483 0.8986529 0.4405915 0.8002644 0.3740639 0.898653 0.8746139 0.8002644 0.3740639 0.6842071 0.3507024 0.6842071 0.9645029 0.8002644 0.9411416 0.8002644 0.3740639 0.6842071 0.9645029 0.6842071 0.3507024 0.5681498 0.3649412 0.5681498 0.9502642 0.5681498 0.9502642 0.6842071 0.9645029 0.6842071 0.3507024 0.8002644 0.9411416 0.898653 0.8746139 0.8002644 0.3740639 0.2699809 0.04311472 0.2699809 0.3322012 0.2328166 0.3322011 0.2699809 0.3322012 0.2699809 0.6212877 0.2328166 0.6212876 0.2914376 0.04311472 0.2914376 0.3322011 0.2485241 0.3322011 0.2914376 0.3322011 0.2914376 0.6212876 0.2485241 0.6212876 0.2328166 0.04311472 0.2328166 0.3322011 0.2699809 0.3322011 0.2328166 0.3322011 0.2328166 0.6212876 0.2699809 0.6212876 0.2699809 0.04311472 0.2699809 0.3322011 0.3071449 0.3322011 0.2699809 0.3322011 0.2699809 0.6212876 0.3071449 0.6212876 0.2485241 0.04311472 0.2485241 0.3322011 0.2914376 0.3322011 0.2485241 0.3322011 0.2485241 0.6212876 0.2914376 0.6212876 0.3071449 0.04311472 0.3071449 0.3322011 0.2699809 0.3322012 0.3071449 0.3322011 0.3071449 0.6212876 0.2699809 0.6212877 0.1150004 0.8184229 -0.003330826 0.8181154 0.01728034 0.9724456 0.01728034 0.9724456 -0.003330826 0.8181154 0.1150004 0.8184229 -0.003330826 0.8181154 0.01728034 0.9724456 0.01728034 0.9724456 0.01728034 0.9724456 0.1356116 0.9727531 0.1356116 0.9727531</float_array>
          <technique_common>
            <accessor source="#Cylinder-mesh-map-0-array" count="276" stride="2">
              <param name="S" type="float"/>
              <param name="T" type="float"/>
            </accessor>
          </technique_common>
        </source>
        <vertices id="Cylinder-mesh-vertices">
          <input semantic="POSITION" source="#Cylinder-mesh-positions"/>
        </vertices>
        <triangles material="Material-material" count="92">
          <input semantic="VERTEX" source="#Cylinder-mesh-vertices" offset="0"/>
          <input semantic="NORMAL" source="#Cylinder-mesh-normals" offset="1"/>
          <input semantic="TEXCOORD" source="#Cylinder-mesh-map-0" offset="2" set="0"/>
          <p>62 0 0 1 0 1 61 0 2 64 1 3 3 1 4 62 1 5 66 2 6 5 2 7 64 2 8 68 3 9 7 3 10 66 3 11 5 4 12 9 4 13 1 4 14 70 5 15 9 5 16 68 5 17 61 6 18 11 6 19 70 6 20 10 7 21 6 7 22 2 7 23 12 8 24 15 8 25 13 8 26 18 9 27 17 10 28 16 10 29 20 11 30 19 9 31 18 9 32 22 12 33 21 11 34 20 11 35 24 13 36 23 12 37 22 12 38 24 13 39 27 14 40 25 13 41 30 15 42 29 16 43 28 16 44 32 17 45 31 15 46 30 15 47 34 18 48 33 17 49 32 17 50 36 19 51 35 18 52 34 18 53 16 10 54 37 19 55 36 19 56 40 20 57 39 20 58 48 20 59 58 21 60 59 21 61 51 21 62 0 22 63 71 22 64 10 22 65 60 22 66 70 22 67 71 22 68 10 23 69 69 23 70 8 23 71 71 23 72 68 23 73 69 23 74 8 24 75 67 24 76 6 24 77 69 24 78 66 24 79 67 24 80 6 25 81 65 25 82 4 25 83 67 26 84 64 26 85 65 26 86 4 27 87 63 27 88 2 27 89 65 27 90 62 27 91 63 27 92 2 28 93 60 28 94 0 28 95 63 29 96 61 29 97 60 29 98 72 30 99 75 30 100 73 30 101 79 31 102 76 31 103 77 31 104 78 32 105 75 32 106 74 32 107 79 7 108 73 7 109 75 7 110 62 33 111 3 33 112 1 33 113 64 34 114 5 34 115 3 34 116 66 35 117 7 35 118 5 35 119 68 36 120 9 36 121 7 36 122 1 37 123 3 37 124 5 37 125 5 38 126 7 38 127 9 38 128 9 39 129 11 39 130 1 39 131 70 40 132 11 40 133 9 40 134 61 41 135 1 41 136 11 41 137 2 7 138 0 7 139 10 7 140 10 42 141 8 42 142 6 42 143 6 7 144 4 7 145 2 7 146 12 8 147 14 8 148 15 8 149 18 9 150 19 9 151 17 10 152 20 11 153 21 11 154 19 9 155 22 12 156 23 12 157 21 11 158 24 13 159 25 13 160 23 12 161 24 13 162 26 14 163 27 14 164 30 15 165 31 15 166 29 16 167 32 17 168 33 17 169 31 15 170 34 18 171 35 18 172 33 17 173 36 19 174 37 19 175 35 18 176 16 10 177 17 10 178 37 19 179 39 43 180 38 43 181 48 43 182 48 44 183 47 44 184 40 44 185 47 45 186 46 45 187 41 45 188 40 46 189 47 46 190 41 46 191 46 47 192 45 47 193 41 47 194 45 48 195 44 48 196 42 48 197 44 49 198 43 49 199 42 49 200 42 50 201 41 50 202 45 50 203 49 51 204 50 51 205 59 51 206 50 52 207 51 52 208 59 52 209 51 53 210 52 53 211 58 53 212 52 54 213 53 54 214 56 54 215 57 55 216 52 55 217 56 55 218 53 56 219 54 56 220 55 56 221 55 57 222 56 57 223 53 57 224 57 58 225 58 58 226 52 58 227 0 22 228 60 22 229 71 22 230 60 59 231 61 59 232 70 59 233 10 23 234 71 23 235 69 23 236 71 23 237 70 23 238 68 23 239 8 60 240 69 60 241 67 60 242 69 24 243 68 24 244 66 24 245 6 26 246 67 26 247 65 26 248 67 61 249 66 61 250 64 61 251 4 62 252 65 62 253 63 62 254 65 62 255 64 62 256 62 62 257 2 63 258 63 63 259 60 63 260 63 29 261 62 29 262 61 29 263 72 64 264 74 64 265 75 64 266 79 65 267 78 65 268 76 65 269 78 66 270 79 66 271 75 66 272 79 7 273 77 7 274 73 7 275</p>
        </triangles>
      </mesh>
    </geometry>
  </library_geometries>
  <library_visual_scenes>
    <visual_scene id="Scene" name="Scene">
      <node id="minoan_cerimonial_axe" name="minoan_cerimonial_axe" type="NODE">
        <matrix sid="transform">1 0 0 0 0 1 0 0 0 0 1 0 0 0 0 1</matrix>
        <instance_geometry url="#Cylinder-mesh" name="minoan_cerimonial_axe">
          <bind_material>
            <technique_common>
              <instance_material symbol="Material-material" target="#Material-material">
                <bind_vertex_input semantic="UVMap" input_semantic="TEXCOORD" input_set="0"/>
              </instance_material>
            </technique_common>
          </bind_material>
        </instance_geometry>
      </node>
    </visual_scene>
  </library_visual_scenes>
  <scene>
    <instance_visual_scene url="#Scene"/>
  </scene>
</COLLADA>