<?xml version="1.0" encoding="utf-8"?>
<COLLADA xmlns="http://www.collada.org/2005/11/COLLADASchema" version="1.4.1" xmlns:xsi="http://www.w3.org/2001/XMLSchema-instance">
  <asset>
    <contributor>
      <author>Blender User</author>
      <authoring_tool>Blender 4.3.1 commit date:2024-12-10, commit time:07:46, hash:33d812126174</authoring_tool>
    </contributor>
    <created>2026-04-28T21:21:35</created>
    <modified>2026-04-28T21:21:35</modified>
    <unit name="meter" meter="1"/>
    <up_axis>Z_UP</up_axis>
  </asset>
  <library_effects>
    <effect id="Kush_Bireme_001-effect">
      <profile_COMMON>
        <technique sid="common">
          <lambert>
            <emission>
              <color sid="emission">0 0 0 1</color>
            </emission>
            <diffuse>
              <color sid="diffuse">0.8 0.8 0.8 1</color>
            </diffuse>
            <index_of_refraction>
              <float sid="ior">1</float>
            </index_of_refraction>
          </lambert>
        </technique>
      </profile_COMMON>
    </effect>
  </library_effects>
  <library_images/>
  <library_materials>
    <material id="Kush_Bireme_001-material" name="Kush_Bireme.001">
      <instance_effect url="#Kush_Bireme_001-effect"/>
    </material>
  </library_materials>
  <library_geometries>
    <geometry id="Cubo_002-mesh" name="Cubo.002">
      <mesh>
        <source id="Cubo_002-mesh-positions">
          <float_array id="Cubo_002-mesh-positions-array" count="1311">2.32675 4.453308 3.963819 2.32675 4.246397 3.963819 2.32675 4.453308 4.062926 2.32675 4.246397 4.062926 2.32675 4.453308 1.633412 2.32675 4.246397 1.633412 2.301353 4.246397 3.96382 2.301353 4.453308 3.96382 2.301353 4.246397 4.073001 2.301353 4.453308 1.633412 2.301353 4.246397 1.633412 2.210756 4.246397 4.310043 2.210756 4.453308 4.310043 2.118767 4.246397 4.310043 2.118767 4.453308 4.310043 2.210756 4.246397 4.165754 2.210756 4.453308 4.165754 2.118767 4.246397 4.165754 2.118767 4.453308 4.165754 2.301353 4.453308 4.073001 2.25056 4.453308 3.963819 2.25056 4.246397 3.963819 2.25056 4.453308 1.633412 2.25056 4.246397 1.633412 2.352146 4.246397 3.96382 2.352146 4.453308 3.96382 2.352146 4.246397 4.073001 2.352146 4.453308 1.633412 2.352146 4.246397 1.633412 2.442744 4.246397 4.310043 2.442744 4.453308 4.310043 2.534732 4.246397 4.310043 2.534732 4.453308 4.310043 2.442744 4.246397 4.165754 2.442744 4.453308 4.165754 2.534732 4.246397 4.165754 2.534732 4.453308 4.165754 2.352146 4.453308 4.073001 2.402939 4.453308 3.963819 2.402939 4.246397 3.963819 2.402939 4.453308 1.633412 2.402939 4.246397 1.633412 -2.32675 4.453308 3.963819 -2.32675 4.246397 3.963819 -2.32675 4.453308 4.062926 -2.32675 4.246397 4.062926 -2.32675 4.453308 1.633412 -2.32675 4.246397 1.633412 -2.352146 4.246397 3.96382 -2.352146 4.453308 3.96382 -2.352146 4.246397 4.073001 -2.352146 4.453308 1.633412 -2.352146 4.246397 1.633412 -2.442744 4.246397 4.310043 -2.442744 4.453308 4.310043 -2.534732 4.246397 4.310043 -2.534732 4.453308 4.310043 -2.442744 4.246397 4.165754 -2.442744 4.453308 4.165754 -2.534732 4.246397 4.165754 -2.534732 4.453308 4.165754 -2.352146 4.453308 4.073001 -2.402939 4.453308 3.963819 -2.402939 4.246397 3.963819 -2.402939 4.453308 1.633412 -2.402939 4.246397 1.633412 -2.301353 4.246397 3.96382 -2.301353 4.453308 3.96382 -2.301353 4.246397 4.073001 -2.301353 4.453308 1.633412 -2.301353 4.246397 1.633412 -2.210756 4.246397 4.310043 -2.210756 4.453308 4.310043 -2.118767 4.246397 4.310043 -2.118767 4.453308 4.310043 -2.210756 4.246397 4.165754 -2.210756 4.453308 4.165754 -2.118767 4.246397 4.165754 -2.118767 4.453308 4.165754 -2.301353 4.453308 4.073001 -2.25056 4.453308 3.963819 -2.25056 4.246397 3.963819 -2.25056 4.453308 1.633412 -2.25056 4.246397 1.633412 2.32675 1.349641 3.963819 2.32675 1.14273 3.963819 2.32675 1.349641 4.062926 2.32675 1.14273 4.062926 2.32675 1.349641 1.633412 2.32675 1.14273 1.633412 2.301353 1.14273 3.96382 2.301353 1.349641 3.96382 2.301353 1.14273 4.073001 2.301353 1.349641 1.633412 2.301353 1.14273 1.633412 2.210756 1.14273 4.310043 2.210756 1.349641 4.310043 2.118767 1.14273 4.310043 2.118767 1.349641 4.310043 2.210756 1.14273 4.165754 2.210756 1.349641 4.165754 2.118767 1.14273 4.165754 2.118767 1.349641 4.165754 2.301353 1.349641 4.073001 2.25056 1.349641 3.963819 2.25056 1.14273 3.963819 2.25056 1.349641 1.633412 2.25056 1.14273 1.633412 2.352146 1.14273 3.96382 2.352146 1.349641 3.96382 2.352146 1.14273 4.073001 2.352146 1.349641 1.633412 2.352146 1.14273 1.633412 2.442744 1.14273 4.310043 2.442744 1.349641 4.310043 2.534732 1.14273 4.310043 2.534732 1.349641 4.310043 2.442744 1.14273 4.165754 2.442744 1.349641 4.165754 2.534732 1.14273 4.165754 2.534732 1.349641 4.165754 2.352146 1.349641 4.073001 2.402939 1.349641 3.963819 2.402939 1.14273 3.963819 2.402939 1.349641 1.633412 2.402939 1.14273 1.633412 -2.32675 1.349641 3.963819 -2.32675 1.14273 3.963819 -2.32675 1.349641 4.062926 -2.32675 1.14273 4.062926 -2.32675 1.349641 1.633412 -2.32675 1.14273 1.633412 -2.352146 1.14273 3.96382 -2.352146 1.349641 3.96382 -2.352146 1.14273 4.073001 -2.352146 1.349641 1.633412 -2.352146 1.14273 1.633412 -2.442744 1.14273 4.310043 -2.442744 1.349641 4.310043 -2.534732 1.14273 4.310043 -2.534732 1.349641 4.310043 -2.442744 1.14273 4.165754 -2.442744 1.349641 4.165754 -2.534732 1.14273 4.165754 -2.534732 1.349641 4.165754 -2.352146 1.349641 4.073001 -2.402939 1.349641 3.963819 -2.402939 1.14273 3.963819 -2.402939 1.349641 1.633412 -2.402939 1.14273 1.633412 -2.301353 1.14273 3.96382 -2.301353 1.349641 3.96382 -2.301353 1.14273 4.073001 -2.301353 1.349641 1.633412 -2.301353 1.14273 1.633412 -2.210756 1.14273 4.310043 -2.210756 1.349641 4.310043 -2.118767 1.14273 4.310043 -2.118767 1.349641 4.310043 -2.210756 1.14273 4.165754 -2.210756 1.349641 4.165754 -2.118767 1.14273 4.165754 -2.118767 1.349641 4.165754 -2.301353 1.349641 4.073001 -2.25056 1.349641 3.963819 -2.25056 1.14273 3.963819 -2.25056 1.349641 1.633412 -2.25056 1.14273 1.633412 2.32675 -1.754025 3.963819 2.32675 -1.960936 3.963819 2.32675 -1.754025 4.062926 2.32675 -1.960936 4.062926 2.32675 -1.754025 1.633412 2.32675 -1.960936 1.633412 2.301353 -1.960936 3.96382 2.301353 -1.754025 3.96382 2.301353 -1.960936 4.073001 2.301353 -1.754025 1.633412 2.301353 -1.960936 1.633412 2.210756 -1.960936 4.310043 2.210756 -1.754025 4.310043 2.118767 -1.960936 4.310043 2.118767 -1.754025 4.310043 2.210756 -1.960936 4.165754 2.210756 -1.754025 4.165754 2.118767 -1.960936 4.165754 2.118767 -1.754025 4.165754 2.301353 -1.754025 4.073001 2.25056 -1.754025 3.963819 2.25056 -1.960936 3.963819 2.25056 -1.754025 1.633412 2.25056 -1.960936 1.633412 2.352146 -1.960936 3.96382 2.352146 -1.754025 3.96382 2.352146 -1.960936 4.073001 2.352146 -1.754025 1.633412 2.352146 -1.960936 1.633412 2.442744 -1.960936 4.310043 2.442744 -1.754025 4.310043 2.534732 -1.960936 4.310043 2.534732 -1.754025 4.310043 2.442744 -1.960936 4.165754 2.442744 -1.754025 4.165754 2.534732 -1.960936 4.165754 2.534732 -1.754025 4.165754 2.352146 -1.754025 4.073001 2.402939 -1.754025 3.963819 2.402939 -1.960936 3.963819 2.402939 -1.754025 1.633412 2.402939 -1.960936 1.633412 -2.32675 -1.754025 3.963819 -2.32675 -1.960936 3.963819 -2.32675 -1.754025 4.062926 -2.32675 -1.960936 4.062926 -2.32675 -1.754025 1.633412 -2.32675 -1.960936 1.633412 -2.352146 -1.960936 3.96382 -2.352146 -1.754025 3.96382 -2.352146 -1.960936 4.073001 -2.352146 -1.754025 1.633412 -2.352146 -1.960936 1.633412 -2.442744 -1.960936 4.310043 -2.442744 -1.754025 4.310043 -2.534732 -1.960936 4.310043 -2.534732 -1.754025 4.310043 -2.442744 -1.960936 4.165754 -2.442744 -1.754025 4.165754 -2.534732 -1.960936 4.165754 -2.534732 -1.754025 4.165754 -2.352146 -1.754025 4.073001 -2.402939 -1.754025 3.963819 -2.402939 -1.960936 3.963819 -2.402939 -1.754025 1.633412 -2.402939 -1.960936 1.633412 -2.301353 -1.960936 3.96382 -2.301353 -1.754025 3.96382 -2.301353 -1.960936 4.073001 -2.301353 -1.754025 1.633412 -2.301353 -1.960936 1.633412 -2.210756 -1.960936 4.310043 -2.210756 -1.754025 4.310043 -2.118767 -1.960936 4.310043 -2.118767 -1.754025 4.310043 -2.210756 -1.960936 4.165754 -2.210756 -1.754025 4.165754 -2.118767 -1.960936 4.165754 -2.118767 -1.754025 4.165754 -2.301353 -1.754025 4.073001 -2.25056 -1.754025 3.963819 -2.25056 -1.960936 3.963819 -2.25056 -1.754025 1.633412 -2.25056 -1.960936 1.633412 2.32675 -4.857691 3.963819 2.32675 -5.064602 3.963819 2.32675 -4.857691 4.062926 2.32675 -5.064602 4.062926 2.32675 -4.857691 1.633412 2.32675 -5.064602 1.633412 2.301353 -5.064602 3.96382 2.301353 -4.857691 3.96382 2.301353 -5.064602 4.073001 2.301353 -4.857691 1.633412 2.301353 -5.064602 1.633412 2.210756 -5.064602 4.310043 2.210756 -4.857691 4.310043 2.118767 -5.064602 4.310043 2.118767 -4.857691 4.310043 2.210756 -5.064602 4.165754 2.210756 -4.857691 4.165754 2.118767 -5.064602 4.165754 2.118767 -4.857691 4.165754 2.301353 -4.857691 4.073001 2.25056 -4.857691 3.963819 2.25056 -5.064602 3.963819 2.25056 -4.857691 1.633412 2.25056 -5.064602 1.633412 2.352146 -5.064602 3.96382 2.352146 -4.857691 3.96382 2.352146 -5.064602 4.073001 2.352146 -4.857691 1.633412 2.352146 -5.064602 1.633412 2.442744 -5.064602 4.310043 2.442744 -4.857691 4.310043 2.534732 -5.064602 4.310043 2.534732 -4.857691 4.310043 2.442744 -5.064602 4.165754 2.442744 -4.857691 4.165754 2.534732 -5.064602 4.165754 2.534732 -4.857691 4.165754 2.352146 -4.857691 4.073001 2.402939 -4.857691 3.963819 2.402939 -5.064602 3.963819 2.402939 -4.857691 1.633412 2.402939 -5.064602 1.633412 -2.32675 -4.857691 3.963819 -2.32675 -5.064602 3.963819 -2.32675 -4.857691 4.062926 -2.32675 -5.064602 4.062926 -2.32675 -4.857691 1.633412 -2.32675 -5.064602 1.633412 -2.352146 -5.064602 3.96382 -2.352146 -4.857691 3.96382 -2.352146 -5.064602 4.073001 -2.352146 -4.857691 1.633412 -2.352146 -5.064602 1.633412 -2.442744 -5.064602 4.310043 -2.442744 -4.857691 4.310043 -2.534732 -5.064602 4.310043 -2.534732 -4.857691 4.310043 -2.442744 -5.064602 4.165754 -2.442744 -4.857691 4.165754 -2.534732 -5.064602 4.165754 -2.534732 -4.857691 4.165754 -2.352146 -4.857691 4.073001 -2.402939 -4.857691 3.963819 -2.402939 -5.064602 3.963819 -2.402939 -4.857691 1.633412 -2.402939 -5.064602 1.633412 -2.301353 -5.064602 3.96382 -2.301353 -4.857691 3.96382 -2.301353 -5.064602 4.073001 -2.301353 -4.857691 1.633412 -2.301353 -5.064602 1.633412 -2.210756 -5.064602 4.310043 -2.210756 -4.857691 4.310043 -2.118767 -5.064602 4.310043 -2.118767 -4.857691 4.310043 -2.210756 -5.064602 4.165754 -2.210756 -4.857691 4.165754 -2.118767 -5.064602 4.165754 -2.118767 -4.857691 4.165754 -2.301353 -4.857691 4.073001 -2.25056 -4.857691 3.963819 -2.25056 -5.064602 3.963819 -2.25056 -4.857691 1.633412 -2.25056 -5.064602 1.633412 -2.862435 -0.2928627 4.34131 -2.90939 -5.863389 4.337214 -2.832314 5.276533 4.426718 0 -5.863389 4.772559 0 5.276533 4.865001 2.862435 -0.2928627 4.34131 2.90939 -5.863389 4.337214 2.832314 5.276533 4.426718 2.32675 0.1034557 3.963819 2.32675 -0.1034553 3.963819 2.32675 0.1034557 4.062926 2.32675 -0.1034553 4.062926 2.32675 0.1034557 1.633412 2.32675 -0.1034553 1.633412 2.301353 -0.1034553 3.96382 2.301353 0.1034557 3.96382 2.301353 -0.1034553 4.073001 2.301353 0.1034557 1.633412 2.301353 -0.1034553 1.633412 2.210756 -0.1034553 4.310043 2.210756 0.1034557 4.310043 2.118767 -0.1034553 4.310043 2.118767 0.1034557 4.310043 2.210756 -0.1034553 4.165754 2.210756 0.1034557 4.165754 2.118767 -0.1034553 4.165754 2.118767 0.1034557 4.165754 2.301353 0.1034557 4.073001 2.25056 0.1034557 3.963819 2.25056 -0.1034553 3.963819 2.25056 0.1034557 1.633412 2.25056 -0.1034553 1.633412 2.352146 -0.1034553 3.96382 2.352146 0.1034557 3.96382 2.352146 -0.1034553 4.073001 2.352146 0.1034557 1.633412 2.352146 -0.1034553 1.633412 2.442744 -0.1034553 4.310043 2.442744 0.1034557 4.310043 2.534732 -0.1034553 4.310043 2.534732 0.1034557 4.310043 2.442744 -0.1034553 4.165754 2.442744 0.1034557 4.165754 2.534732 -0.1034553 4.165754 2.534732 0.1034557 4.165754 2.352146 0.1034557 4.073001 2.402939 0.1034557 3.963819 2.402939 -0.1034553 3.963819 2.402939 0.1034557 1.633412 2.402939 -0.1034553 1.633412 -2.32675 0.1034557 3.963819 -2.32675 -0.1034553 3.963819 -2.32675 0.1034557 4.062926 -2.32675 -0.1034553 4.062926 -2.32675 0.1034557 1.633412 -2.32675 -0.1034553 1.633412 -2.352146 -0.1034553 3.96382 -2.352146 0.1034557 3.96382 -2.352146 -0.1034553 4.073001 -2.352146 0.1034557 1.633412 -2.352146 -0.1034553 1.633412 -2.442744 -0.1034553 4.310043 -2.442744 0.1034557 4.310043 -2.534732 -0.1034553 4.310043 -2.534732 0.1034557 4.310043 -2.442744 -0.1034553 4.165754 -2.442744 0.1034557 4.165754 -2.534732 -0.1034553 4.165754 -2.534732 0.1034557 4.165754 -2.352146 0.1034557 4.073001 -2.402939 0.1034557 3.963819 -2.402939 -0.1034553 3.963819 -2.402939 0.1034557 1.633412 -2.402939 -0.1034553 1.633412 -2.301353 -0.1034553 3.96382 -2.301353 0.1034557 3.96382 -2.301353 -0.1034553 4.073001 -2.301353 0.1034557 1.633412 -2.301353 -0.1034553 1.633412 -2.210756 -0.1034553 4.310043 -2.210756 0.1034557 4.310043 -2.118767 -0.1034553 4.310043 -2.118767 0.1034557 4.310043 -2.210756 -0.1034553 4.165754 -2.210756 0.1034557 4.165754 -2.118767 -0.1034553 4.165754 -2.118767 0.1034557 4.165754 -2.301353 0.1034557 4.073001 -2.25056 0.1034557 3.963819 -2.25056 -0.1034553 3.963819 -2.25056 0.1034557 1.633412 -2.25056 -0.1034553 1.633412 -2.862435 -0.2944847 4.599769 -2.90939 -5.865012 4.595673 -2.832314 5.27491 4.685177 0 -0.2944853 4.527317 0 -5.865012 4.923478 0 5.27491 5.012982 2.862435 -0.2944847 4.599769 2.90939 -5.865012 4.595673 2.832314 5.27491 4.685177</float_array>
          <technique_common>
            <accessor source="#Cubo_002-mesh-positions-array" count="437" stride="3">
              <param name="X" type="float"/>
              <param name="Y" type="float"/>
              <param name="Z" type="float"/>
            </accessor>
          </technique_common>
        </source>
        <source id="Cubo_002-mesh-normals">
          <float_array id="Cubo_002-mesh-normals-array" count="651">0 1 0 0 1 3.30884e-7 0 -1 -3.60506e-7 0 -1 0 0 -1 -2.21514e-6 -1 0 0 0.3687431 0 0.9295313 0.5542116 0 0.8323758 0.5542019 0 0.8323823 0 -1 8.43171e-7 0 -1 1.24245e-6 0 0 1 -0.8374273 0 -0.5465489 -0.8374273 0 -0.5465489 -0.837427 0 -0.5465494 0 1 1.44684e-6 0 1 1.24245e-6 1 0 0 0.7153716 0 0.6987443 0 1 1.10756e-6 0 1 1.00746e-6 0 -1 3.30882e-7 -0.5542158 0 0.8323732 -0.3687584 0 0.9295254 -0.5542061 0 0.8323795 0 -1 1.44685e-6 0.8374273 0 -0.5465489 0.8374273 0 -0.5465489 0.837427 0 -0.5465494 0 1 3.19553e-6 0 1 2.48492e-6 -0.7153671 0 0.6987488 0 -1 1.24247e-6 0.3687598 0 0.9295248 -0.8374276 0 -0.5465483 0.7153751 0 0.6987407 -0.3687751 0 0.9295187 0.8374276 0 -0.5465483 -0.7153707 0 0.6987453 0 1 3.30882e-7 0.3687584 0 0.9295254 0.5542158 0 0.832373 0.5542061 0 0.8323795 0 1 1.44685e-6 0 1 1.24246e-6 0.7153671 0 0.6987488 -0.5542116 0 0.8323758 -0.3687431 0 0.9295313 -0.5542019 0 0.8323823 -0.7153716 0 0.6987443 0.3687751 0 0.9295187 0.7153707 0 0.6987453 -0.3687598 0 0.9295248 -0.7153751 0 0.6987407 0 1 2.55568e-7 0 1 5.53784e-7 0 -1 -1.65442e-7 0.3687435 0 0.9295312 0.5542113 0 0.832376 0.5542026 0 0.8323819 0 -1 -7.23416e-7 0 -1 -6.21227e-7 -0.8374276 0 -0.5465486 -0.8374275 0 -0.5465486 0 1 5.12625e-7 0 1 3.10612e-7 0.7153714 0 0.6987445 0 1 5.5378e-7 0 1 3.38289e-7 0 -1 0 0 -1 5.5378e-7 -0.5542151 0 0.8323735 -0.5542065 0 0.8323792 0 -1 -2.10797e-7 0.8374276 0 -0.5465486 0.8374275 0 -0.5465486 0 1 8.74341e-7 0 1 6.21231e-7 -0.7153667 0 0.6987493 0 -1 -3.10617e-7 0.3687607 0 0.9295245 0.7153729 0 0.6987429 -0.7153685 0 0.6987475 0 -1 0 0.5542151 0 0.8323735 0.5542065 0 0.8323792 0 1 8.7434e-7 0.7153667 0 0.6987493 0 1 3.38289e-7 -0.5542113 0 0.832376 -0.3687435 0 0.9295312 -0.5542026 0 0.8323819 0 -1 -7.23416e-7 0 1 8.74334e-7 0 1 6.21225e-7 -0.7153714 0 0.6987445 0.7153685 0 0.6987475 -0.3687607 0 0.9295245 -0.7153729 0 0.6987429 0 1 -5.11136e-7 0 1 -1.10757e-6 0.3687435 0 0.9295312 0.554211 0 0.8323763 0.5542027 0 0.8323817 -0.8374276 0 -0.5465484 0 1 -1.02525e-6 0 1 -6.21225e-7 0.7153714 0 0.6987445 0 -1 -1.65441e-7 -0.554215 0 0.8323736 -0.3687588 0 0.9295251 -0.554207 0 0.8323789 0 -1 -7.23424e-7 0.8374276 0 -0.5465484 -0.7153669 0 0.6987491 0 -1 -6.21233e-7 0.3687602 0 0.9295246 -0.8374277 0 -0.5465481 0.7153724 0 0.6987435 0.8374277 0 -0.5465481 -0.7153679 0 0.698748 0.3687588 0 0.9295251 0.554215 0 0.8323736 0.554207 0 0.8323789 0.7153669 0 0.6987491 0 1 -5.53784e-7 0 1 -3.38289e-7 -0.554211 0 0.8323763 -0.3687435 0 0.9295312 -0.5542027 0 0.8323817 0 1 -8.74334e-7 -0.7153714 0 0.6987445 0.7153679 0 0.698748 -0.3687602 0 0.9295246 -0.7153724 0 0.6987435 0 -1 1.02227e-6 0 -1 2.21514e-6 0.368744 0 0.929531 0.5542118 0 0.8323757 0.554203 0 0.8323816 0 -1 2.05049e-6 0.7153719 0 0.6987439 0.715374 0 0.6987418 0 1 3.16072e-7 -0.5542118 0 0.8323757 -0.368744 0 0.929531 -0.554203 0 0.8323816 0 -1 2.05049e-6 0 1 2.59184e-6 0 1 2.4849e-6 -0.7153719 0 0.6987439 -0.715374 0 0.6987418 0.554211 0 0.8323762 0.5542026 0 0.8323819 -0.8374274 0 -0.5465486 -0.8374275 0 -0.5465486 0.7153713 0 0.6987447 0 -1 0 0 -1 0 -0.554215 0 0.8323737 -0.3687584 0 0.9295253 -0.5542066 0 0.8323792 0 -1 0 0.8374274 0 -0.5465486 0.8374275 0 -0.5465486 -0.7153667 0 0.6987493 0.3687602 0 0.9295246 0.7153726 0 0.6987432 -0.3687752 0 0.9295187 -0.715368 0 0.6987479 0 -1 0 0.3687584 0 0.9295253 0.5542066 0 0.8323792 0.7153667 0 0.6987493 0 1 0 0 1 0 -0.554211 0 0.8323762 -0.5542026 0 0.8323819 0 1 0 -0.7153713 0 0.6987447 0.3687752 0 0.9295187 0.715368 0 0.6987479 -0.3687602 0 0.9295246 -0.7153726 0 0.6987432 0 0.0217058 0.9997645 0.00412172 0.01710897 0.9998452 -0.1119626 2.13073e-4 0.9937124 0 0.01703661 0.9998549 -0.07269072 -0.06517571 0.9952228 -0.00412178 0.01710897 0.9998452 0.1119626 2.13072e-4 0.9937124 0.07269072 -0.06517565 0.9952228 0 -0.08687275 0.9962194 0 -0.9999446 -0.01052647 9.48024e-4 -0.999979 -0.006417095 9.39705e-4 -0.9999799 -0.006280243 0.9999855 0.005407631 3.396e-5 0.9999762 0.006916582 4.33981e-5 0.9999762 0.00691998 4.34183e-5 -0.9999855 0.005407631 3.396e-5 -0.9999762 0.006916582 4.33981e-5 -0.9999854 0.005407631 3.39609e-5 -0.9999645 0.008428812 5.29255e-5 -0.9999762 0.00691998 4.34183e-5 -9.48024e-4 -0.999979 -0.006417095 0 -0.9999423 -0.01075494 0.9999645 0.008428812 5.29255e-5 0.9999645 0.008428812 5.29267e-5 0 0.9999426 0.01072168 -9.80939e-4 0.9999789 0.006423234 0 0.9999399 0.01096665 9.80939e-4 0.9999789 0.006423234 9.71793e-4 0.9999799 0.00627917 0.9999854 0.005407631 3.39609e-5 -0.9999645 0.008428812 5.29267e-5 -9.39705e-4 -0.9999799 -0.006280243 -9.71793e-4 0.9999799 0.00627917</float_array>
          <technique_common>
            <accessor source="#Cubo_002-mesh-normals-array" count="217" stride="3">
              <param name="X" type="float"/>
              <param name="Y" type="float"/>
              <param name="Z" type="float"/>
            </accessor>
          </technique_common>
        </source>
        <source id="Cubo_002-mesh-map-0">
          <float_array id="Cubo_002-mesh-map-0-array" count="4464">0.2508601 0.3807397 0.25086 0.388531 0.2608059 0.3807397 0.25086 0.388531 0.2508601 0.3807397 0.2608059 0.3807397 0.3158842 0.375633 0.3222692 0.3910509 0.3158842 0.3910509 0.1976478 0.3747835 0.3706501 0.3778597 0.1976478 0.3780024 0.2508601 0.3807397 0.2598882 0.376844 0.25086 0.376844 0.3399145 0.375633 0.3386734 0.3910509 0.3386733 0.375633 0.25086 0.388531 0.2692552 0.3946367 0.2692552 0.4087472 0.3222692 0.375633 0.3264644 0.3910509 0.3222692 0.3910509 0.3051148 0.375633 0.3158842 0.3910509 0.3051148 0.3910509 0.25086 0.388531 0.2692552 0.3946367 0.2608059 0.3807397 0.2692552 0.4087472 0.282399 0.3946367 0.2692552 0.3946367 0.3328493 0.3910509 0.3264644 0.375633 0.3328493 0.375633 0.2508601 0.3807397 0.2598882 0.376844 0.2608059 0.3807397 0.1979011 0.3778598 0.3706501 0.3917988 0.1979011 0.3917988 0.3386734 0.3910509 0.3328493 0.375633 0.3386733 0.375633 0.2692552 0.3946367 0.282399 0.4087472 0.2692552 0.4087472 0.1979011 0.3950114 0.3709034 0.3917931 0.3709034 0.3950133 0.1979011 0.3950114 0.3709034 0.3989896 0.1979011 0.3989874 0.1976478 0.3747835 0.3706501 0.3706665 0.3706501 0.3746408 0.2508601 0.3807397 0.2608059 0.3807397 0.25086 0.388531 0.25086 0.388531 0.2608059 0.3807397 0.2508601 0.3807397 0.3222692 0.3910509 0.3158842 0.375633 0.3158842 0.3910509 0.3706501 0.3778597 0.1976478 0.3747835 0.1976478 0.3780024 0.2598882 0.376844 0.2508601 0.3807397 0.25086 0.376844 0.3386734 0.3910509 0.3399145 0.375633 0.3386733 0.375633 0.25086 0.388531 0.2692552 0.3946367 0.2608059 0.3807397 0.3222692 0.375633 0.3264644 0.3910509 0.3264644 0.375633 0.3158842 0.3910509 0.3051148 0.375633 0.3051148 0.3910509 0.2692552 0.3946367 0.25086 0.388531 0.2608059 0.3807397 0.282399 0.3946367 0.2692552 0.4087472 0.2692552 0.3946367 0.3264644 0.375633 0.3328493 0.3910509 0.3328493 0.375633 0.2508601 0.3807397 0.2598882 0.376844 0.25086 0.376844 0.3706501 0.3917988 0.1979011 0.3778598 0.1979011 0.3917988 0.3328493 0.375633 0.3386734 0.3910509 0.3386733 0.375633 0.282399 0.4087472 0.2692552 0.3946367 0.2692552 0.4087472 0.1979011 0.3950114 0.3709034 0.3917931 0.1979011 0.3917988 0.3709034 0.3989896 0.1979011 0.3950114 0.1979011 0.3989874 0.1976478 0.3747835 0.3706501 0.3706665 0.1976478 0.3708095 0.3158842 0.375633 0.3222692 0.375633 0.3222692 0.3910509 0.1976478 0.3747835 0.3706501 0.3746408 0.3706501 0.3778597 0.2508601 0.3807397 0.2608059 0.3807397 0.2598882 0.376844 0.3399145 0.375633 0.3399145 0.3910509 0.3386734 0.3910509 0.25086 0.388531 0.2608059 0.3807397 0.2692552 0.3946367 0.3222692 0.375633 0.3264644 0.375633 0.3264644 0.3910509 0.3051148 0.375633 0.3158842 0.375633 0.3158842 0.3910509 0.25086 0.388531 0.2692552 0.4087472 0.2692552 0.3946367 0.2692552 0.4087472 0.282399 0.4087472 0.282399 0.3946367 0.3328493 0.3910509 0.3264644 0.3910509 0.3264644 0.375633 0.2508601 0.3807397 0.25086 0.376844 0.2598882 0.376844 0.1979011 0.3778598 0.3706501 0.3778597 0.3706501 0.3917988 0.3386734 0.3910509 0.3328493 0.3910509 0.3328493 0.375633 0.2692552 0.3946367 0.282399 0.3946367 0.282399 0.4087472 0.1979011 0.3950114 0.1979011 0.3917988 0.3709034 0.3917931 0.1979011 0.3950114 0.3709034 0.3950133 0.3709034 0.3989896 0.1976478 0.3747835 0.1976478 0.3708095 0.3706501 0.3706665 0.3222692 0.3910509 0.3222692 0.375633 0.3158842 0.375633 0.3706501 0.3778597 0.3706501 0.3746408 0.1976478 0.3747835 0.2598882 0.376844 0.2608059 0.3807397 0.2508601 0.3807397 0.3386734 0.3910509 0.3399145 0.3910509 0.3399145 0.375633 0.25086 0.388531 0.2692552 0.4087472 0.2692552 0.3946367 0.3222692 0.375633 0.3222692 0.3910509 0.3264644 0.3910509 0.3158842 0.3910509 0.3158842 0.375633 0.3051148 0.375633 0.2692552 0.3946367 0.2692552 0.4087472 0.25086 0.388531 0.282399 0.3946367 0.282399 0.4087472 0.2692552 0.4087472 0.3264644 0.375633 0.3264644 0.3910509 0.3328493 0.3910509 0.2508601 0.3807397 0.2608059 0.3807397 0.2598882 0.376844 0.3706501 0.3917988 0.3706501 0.3778597 0.1979011 0.3778598 0.3328493 0.375633 0.3328493 0.3910509 0.3386734 0.3910509 0.282399 0.4087472 0.282399 0.3946367 0.2692552 0.3946367 0.1979011 0.3950114 0.3709034 0.3950133 0.3709034 0.3917931 0.3709034 0.3989896 0.3709034 0.3950133 0.1979011 0.3950114 0.1976478 0.3747835 0.3706501 0.3746408 0.3706501 0.3706665 0.2508601 0.3807397 0.25086 0.388531 0.2608059 0.3807397 0.25086 0.388531 0.2508601 0.3807397 0.2608059 0.3807397 0.3158842 0.375633 0.3222692 0.3910509 0.3158842 0.3910509 0.1976478 0.3747835 0.3706501 0.3778597 0.1976478 0.3780024 0.2508601 0.3807397 0.2598882 0.376844 0.25086 0.376844 0.3399145 0.375633 0.3386734 0.3910509 0.3386733 0.375633 0.25086 0.388531 0.2692552 0.3946367 0.2692552 0.4087472 0.3222692 0.375633 0.3264644 0.3910509 0.3222692 0.3910509 0.3051148 0.375633 0.3158842 0.3910509 0.3051148 0.3910509 0.25086 0.388531 0.2692552 0.3946367 0.2608059 0.3807397 0.2692552 0.4087472 0.282399 0.3946367 0.2692552 0.3946367 0.3328493 0.3910509 0.3264644 0.375633 0.3328493 0.375633 0.2508601 0.3807397 0.2598882 0.376844 0.2608059 0.3807397 0.1979011 0.3778598 0.3706501 0.3917988 0.1979011 0.3917988 0.3386734 0.3910509 0.3328493 0.375633 0.3386733 0.375633 0.2692552 0.3946367 0.282399 0.4087472 0.2692552 0.4087472 0.1979011 0.3950114 0.3709034 0.3917931 0.3709034 0.3950133 0.1979011 0.3950114 0.3709034 0.3989896 0.1979011 0.3989874 0.1976478 0.3747835 0.3706501 0.3706665 0.3706501 0.3746408 0.2508601 0.3807397 0.2608059 0.3807397 0.25086 0.388531 0.25086 0.388531 0.2608059 0.3807397 0.2508601 0.3807397 0.3222692 0.3910509 0.3158842 0.375633 0.3158842 0.3910509 0.3706501 0.3778597 0.1976478 0.3747835 0.1976478 0.3780024 0.2598882 0.376844 0.2508601 0.3807397 0.25086 0.376844 0.3386734 0.3910509 0.3399145 0.375633 0.3386733 0.375633 0.25086 0.388531 0.2692552 0.3946367 0.2608059 0.3807397 0.3222692 0.375633 0.3264644 0.3910509 0.3264644 0.375633 0.3158842 0.3910509 0.3051148 0.375633 0.3051148 0.3910509 0.2692552 0.3946367 0.25086 0.388531 0.2608059 0.3807397 0.282399 0.3946367 0.2692552 0.4087472 0.2692552 0.3946367 0.3264644 0.375633 0.3328493 0.3910509 0.3328493 0.375633 0.2508601 0.3807397 0.2598882 0.376844 0.25086 0.376844 0.3706501 0.3917988 0.1979011 0.3778598 0.1979011 0.3917988 0.3328493 0.375633 0.3386734 0.3910509 0.3386733 0.375633 0.282399 0.4087472 0.2692552 0.3946367 0.2692552 0.4087472 0.1979011 0.3950114 0.3709034 0.3917931 0.1979011 0.3917988 0.3709034 0.3989896 0.1979011 0.3950114 0.1979011 0.3989874 0.1976478 0.3747835 0.3706501 0.3706665 0.1976478 0.3708095 0.3158842 0.375633 0.3222692 0.375633 0.3222692 0.3910509 0.1976478 0.3747835 0.3706501 0.3746408 0.3706501 0.3778597 0.2508601 0.3807397 0.2608059 0.3807397 0.2598882 0.376844 0.3399145 0.375633 0.3399145 0.3910509 0.3386734 0.3910509 0.25086 0.388531 0.2608059 0.3807397 0.2692552 0.3946367 0.3222692 0.375633 0.3264644 0.375633 0.3264644 0.3910509 0.3051148 0.375633 0.3158842 0.375633 0.3158842 0.3910509 0.25086 0.388531 0.2692552 0.4087472 0.2692552 0.3946367 0.2692552 0.4087472 0.282399 0.4087472 0.282399 0.3946367 0.3328493 0.3910509 0.3264644 0.3910509 0.3264644 0.375633 0.2508601 0.3807397 0.25086 0.376844 0.2598882 0.376844 0.1979011 0.3778598 0.3706501 0.3778597 0.3706501 0.3917988 0.3386734 0.3910509 0.3328493 0.3910509 0.3328493 0.375633 0.2692552 0.3946367 0.282399 0.3946367 0.282399 0.4087472 0.1979011 0.3950114 0.1979011 0.3917988 0.3709034 0.3917931 0.1979011 0.3950114 0.3709034 0.3950133 0.3709034 0.3989896 0.1976478 0.3747835 0.1976478 0.3708095 0.3706501 0.3706665 0.3222692 0.3910509 0.3222692 0.375633 0.3158842 0.375633 0.3706501 0.3778597 0.3706501 0.3746408 0.1976478 0.3747835 0.2598882 0.376844 0.2608059 0.3807397 0.2508601 0.3807397 0.3386734 0.3910509 0.3399145 0.3910509 0.3399145 0.375633 0.25086 0.388531 0.2692552 0.4087472 0.2692552 0.3946367 0.3222692 0.375633 0.3222692 0.3910509 0.3264644 0.3910509 0.3158842 0.3910509 0.3158842 0.375633 0.3051148 0.375633 0.2692552 0.3946367 0.2692552 0.4087472 0.25086 0.388531 0.282399 0.3946367 0.282399 0.4087472 0.2692552 0.4087472 0.3264644 0.375633 0.3264644 0.3910509 0.3328493 0.3910509 0.2508601 0.3807397 0.2608059 0.3807397 0.2598882 0.376844 0.3706501 0.3917988 0.3706501 0.3778597 0.1979011 0.3778598 0.3328493 0.375633 0.3328493 0.3910509 0.3386734 0.3910509 0.282399 0.4087472 0.282399 0.3946367 0.2692552 0.3946367 0.1979011 0.3950114 0.3709034 0.3950133 0.3709034 0.3917931 0.3709034 0.3989896 0.3709034 0.3950133 0.1979011 0.3950114 0.1976478 0.3747835 0.3706501 0.3746408 0.3706501 0.3706665 0.2508601 0.3807397 0.25086 0.388531 0.2608059 0.3807397 0.25086 0.388531 0.2508601 0.3807397 0.2608059 0.3807397 0.3158842 0.375633 0.3222692 0.3910509 0.3158842 0.3910509 0.1976478 0.3747835 0.3706501 0.3778597 0.1976478 0.3780024 0.2508601 0.3807397 0.2598882 0.376844 0.25086 0.376844 0.3399145 0.375633 0.3386734 0.3910509 0.3386733 0.375633 0.25086 0.388531 0.2692552 0.3946367 0.2692552 0.4087472 0.3222692 0.375633 0.3264644 0.3910509 0.3222692 0.3910509 0.3051148 0.375633 0.3158842 0.3910509 0.3051148 0.3910509 0.25086 0.388531 0.2692552 0.3946367 0.2608059 0.3807397 0.2692552 0.4087472 0.282399 0.3946367 0.2692552 0.3946367 0.3328493 0.3910509 0.3264644 0.375633 0.3328493 0.375633 0.2508601 0.3807397 0.2598882 0.376844 0.2608059 0.3807397 0.1979011 0.3778598 0.3706501 0.3917988 0.1979011 0.3917988 0.3386734 0.3910509 0.3328493 0.375633 0.3386733 0.375633 0.2692552 0.3946367 0.282399 0.4087472 0.2692552 0.4087472 0.1979011 0.3950114 0.3709034 0.3917931 0.3709034 0.3950133 0.1979011 0.3950114 0.3709034 0.3989896 0.1979011 0.3989874 0.1976478 0.3747835 0.3706501 0.3706665 0.3706501 0.3746408 0.2508601 0.3807397 0.2608059 0.3807397 0.25086 0.388531 0.25086 0.388531 0.2608059 0.3807397 0.2508601 0.3807397 0.3222692 0.3910509 0.3158842 0.375633 0.3158842 0.3910509 0.3706501 0.3778597 0.1976478 0.3747835 0.1976478 0.3780024 0.2598882 0.376844 0.2508601 0.3807397 0.25086 0.376844 0.3386734 0.3910509 0.3399145 0.375633 0.3386733 0.375633 0.25086 0.388531 0.2692552 0.3946367 0.2608059 0.3807397 0.3222692 0.375633 0.3264644 0.3910509 0.3264644 0.375633 0.3158842 0.3910509 0.3051148 0.375633 0.3051148 0.3910509 0.2692552 0.3946367 0.25086 0.388531 0.2608059 0.3807397 0.282399 0.3946367 0.2692552 0.4087472 0.2692552 0.3946367 0.3264644 0.375633 0.3328493 0.3910509 0.3328493 0.375633 0.2508601 0.3807397 0.2598882 0.376844 0.25086 0.376844 0.3706501 0.3917988 0.1979011 0.3778598 0.1979011 0.3917988 0.3328493 0.375633 0.3386734 0.3910509 0.3386733 0.375633 0.282399 0.4087472 0.2692552 0.3946367 0.2692552 0.4087472 0.1979011 0.3950114 0.3709034 0.3917931 0.1979011 0.3917988 0.3709034 0.3989896 0.1979011 0.3950114 0.1979011 0.3989874 0.1976478 0.3747835 0.3706501 0.3706665 0.1976478 0.3708095 0.3158842 0.375633 0.3222692 0.375633 0.3222692 0.3910509 0.1976478 0.3747835 0.3706501 0.3746408 0.3706501 0.3778597 0.2508601 0.3807397 0.2608059 0.3807397 0.2598882 0.376844 0.3399145 0.375633 0.3399145 0.3910509 0.3386734 0.3910509 0.25086 0.388531 0.2608059 0.3807397 0.2692552 0.3946367 0.3222692 0.375633 0.3264644 0.375633 0.3264644 0.3910509 0.3051148 0.375633 0.3158842 0.375633 0.3158842 0.3910509 0.25086 0.388531 0.2692552 0.4087472 0.2692552 0.3946367 0.2692552 0.4087472 0.282399 0.4087472 0.282399 0.3946367 0.3328493 0.3910509 0.3264644 0.3910509 0.3264644 0.375633 0.2508601 0.3807397 0.25086 0.376844 0.2598882 0.376844 0.1979011 0.3778598 0.3706501 0.3778597 0.3706501 0.3917988 0.3386734 0.3910509 0.3328493 0.3910509 0.3328493 0.375633 0.2692552 0.3946367 0.282399 0.3946367 0.282399 0.4087472 0.1979011 0.3950114 0.1979011 0.3917988 0.3709034 0.3917931 0.1979011 0.3950114 0.3709034 0.3950133 0.3709034 0.3989896 0.1976478 0.3747835 0.1976478 0.3708095 0.3706501 0.3706665 0.3222692 0.3910509 0.3222692 0.375633 0.3158842 0.375633 0.3706501 0.3778597 0.3706501 0.3746408 0.1976478 0.3747835 0.2598882 0.376844 0.2608059 0.3807397 0.2508601 0.3807397 0.3386734 0.3910509 0.3399145 0.3910509 0.3399145 0.375633 0.25086 0.388531 0.2692552 0.4087472 0.2692552 0.3946367 0.3222692 0.375633 0.3222692 0.3910509 0.3264644 0.3910509 0.3158842 0.3910509 0.3158842 0.375633 0.3051148 0.375633 0.2692552 0.3946367 0.2692552 0.4087472 0.25086 0.388531 0.282399 0.3946367 0.282399 0.4087472 0.2692552 0.4087472 0.3264644 0.375633 0.3264644 0.3910509 0.3328493 0.3910509 0.2508601 0.3807397 0.2608059 0.3807397 0.2598882 0.376844 0.3706501 0.3917988 0.3706501 0.3778597 0.1979011 0.3778598 0.3328493 0.375633 0.3328493 0.3910509 0.3386734 0.3910509 0.282399 0.4087472 0.282399 0.3946367 0.2692552 0.3946367 0.1979011 0.3950114 0.3709034 0.3950133 0.3709034 0.3917931 0.3709034 0.3989896 0.3709034 0.3950133 0.1979011 0.3950114 0.1976478 0.3747835 0.3706501 0.3746408 0.3706501 0.3706665 0.2508601 0.3807397 0.25086 0.388531 0.2608059 0.3807397 0.25086 0.388531 0.2508601 0.3807397 0.2608059 0.3807397 0.3158842 0.375633 0.3222692 0.3910509 0.3158842 0.3910509 0.1976478 0.3747835 0.3706501 0.3778597 0.1976478 0.3780024 0.2508601 0.3807397 0.2598882 0.376844 0.25086 0.376844 0.3399145 0.375633 0.3386734 0.3910509 0.3386733 0.375633 0.25086 0.388531 0.2692552 0.3946367 0.2692552 0.4087472 0.3222692 0.375633 0.3264644 0.3910509 0.3222692 0.3910509 0.3051148 0.375633 0.3158842 0.3910509 0.3051148 0.3910509 0.25086 0.388531 0.2692552 0.3946367 0.2608059 0.3807397 0.2692552 0.4087472 0.282399 0.3946367 0.2692552 0.3946367 0.3328493 0.3910509 0.3264644 0.375633 0.3328493 0.375633 0.2508601 0.3807397 0.2598882 0.376844 0.2608059 0.3807397 0.1979011 0.3778598 0.3706501 0.3917988 0.1979011 0.3917988 0.3386734 0.3910509 0.3328493 0.375633 0.3386733 0.375633 0.2692552 0.3946367 0.282399 0.4087472 0.2692552 0.4087472 0.1979011 0.3950114 0.3709034 0.3917931 0.3709034 0.3950133 0.1979011 0.3950114 0.3709034 0.3989896 0.1979011 0.3989874 0.1976478 0.3747835 0.3706501 0.3706665 0.3706501 0.3746408 0.2508601 0.3807397 0.2608059 0.3807397 0.25086 0.388531 0.25086 0.388531 0.2608059 0.3807397 0.2508601 0.3807397 0.3222692 0.3910509 0.3158842 0.375633 0.3158842 0.3910509 0.3706501 0.3778597 0.1976478 0.3747835 0.1976478 0.3780024 0.2598882 0.376844 0.2508601 0.3807397 0.25086 0.376844 0.3386734 0.3910509 0.3399145 0.375633 0.3386733 0.375633 0.25086 0.388531 0.2692552 0.3946367 0.2608059 0.3807397 0.3222692 0.375633 0.3264644 0.3910509 0.3264644 0.375633 0.3158842 0.3910509 0.3051148 0.375633 0.3051148 0.3910509 0.2692552 0.3946367 0.25086 0.388531 0.2608059 0.3807397 0.282399 0.3946367 0.2692552 0.4087472 0.2692552 0.3946367 0.3264644 0.375633 0.3328493 0.3910509 0.3328493 0.375633 0.2508601 0.3807397 0.2598882 0.376844 0.25086 0.376844 0.3706501 0.3917988 0.1979011 0.3778598 0.1979011 0.3917988 0.3328493 0.375633 0.3386734 0.3910509 0.3386733 0.375633 0.282399 0.4087472 0.2692552 0.3946367 0.2692552 0.4087472 0.1979011 0.3950114 0.3709034 0.3917931 0.1979011 0.3917988 0.3709034 0.3989896 0.1979011 0.3950114 0.1979011 0.3989874 0.1976478 0.3747835 0.3706501 0.3706665 0.1976478 0.3708095 0.3158842 0.375633 0.3222692 0.375633 0.3222692 0.3910509 0.1976478 0.3747835 0.3706501 0.3746408 0.3706501 0.3778597 0.2508601 0.3807397 0.2608059 0.3807397 0.2598882 0.376844 0.3399145 0.375633 0.3399145 0.3910509 0.3386734 0.3910509 0.25086 0.388531 0.2608059 0.3807397 0.2692552 0.3946367 0.3222692 0.375633 0.3264644 0.375633 0.3264644 0.3910509 0.3051148 0.375633 0.3158842 0.375633 0.3158842 0.3910509 0.25086 0.388531 0.2692552 0.4087472 0.2692552 0.3946367 0.2692552 0.4087472 0.282399 0.4087472 0.282399 0.3946367 0.3328493 0.3910509 0.3264644 0.3910509 0.3264644 0.375633 0.2508601 0.3807397 0.25086 0.376844 0.2598882 0.376844 0.1979011 0.3778598 0.3706501 0.3778597 0.3706501 0.3917988 0.3386734 0.3910509 0.3328493 0.3910509 0.3328493 0.375633 0.2692552 0.3946367 0.282399 0.3946367 0.282399 0.4087472 0.1979011 0.3950114 0.1979011 0.3917988 0.3709034 0.3917931 0.1979011 0.3950114 0.3709034 0.3950133 0.3709034 0.3989896 0.1976478 0.3747835 0.1976478 0.3708095 0.3706501 0.3706665 0.3222692 0.3910509 0.3222692 0.375633 0.3158842 0.375633 0.3706501 0.3778597 0.3706501 0.3746408 0.1976478 0.3747835 0.2598882 0.376844 0.2608059 0.3807397 0.2508601 0.3807397 0.3386734 0.3910509 0.3399145 0.3910509 0.3399145 0.375633 0.25086 0.388531 0.2692552 0.4087472 0.2692552 0.3946367 0.3222692 0.375633 0.3222692 0.3910509 0.3264644 0.3910509 0.3158842 0.3910509 0.3158842 0.375633 0.3051148 0.375633 0.2692552 0.3946367 0.2692552 0.4087472 0.25086 0.388531 0.282399 0.3946367 0.282399 0.4087472 0.2692552 0.4087472 0.3264644 0.375633 0.3264644 0.3910509 0.3328493 0.3910509 0.2508601 0.3807397 0.2608059 0.3807397 0.2598882 0.376844 0.3706501 0.3917988 0.3706501 0.3778597 0.1979011 0.3778598 0.3328493 0.375633 0.3328493 0.3910509 0.3386734 0.3910509 0.282399 0.4087472 0.282399 0.3946367 0.2692552 0.3946367 0.1979011 0.3950114 0.3709034 0.3950133 0.3709034 0.3917931 0.3709034 0.3989896 0.3709034 0.3950133 0.1979011 0.3950114 0.1976478 0.3747835 0.3706501 0.3746408 0.3706501 0.3706665 0.2508601 0.3807397 0.25086 0.388531 0.2608059 0.3807397 0.25086 0.388531 0.2508601 0.3807397 0.2608059 0.3807397 0.3158842 0.375633 0.3222692 0.3910509 0.3158842 0.3910509 0.1976478 0.3747835 0.3706501 0.3778597 0.1976478 0.3780024 0.2508601 0.3807397 0.2598882 0.376844 0.25086 0.376844 0.3399145 0.375633 0.3386734 0.3910509 0.3386733 0.375633 0.25086 0.388531 0.2692552 0.3946367 0.2692552 0.4087472 0.3222692 0.375633 0.3264644 0.3910509 0.3222692 0.3910509 0.3051148 0.375633 0.3158842 0.3910509 0.3051148 0.3910509 0.25086 0.388531 0.2692552 0.3946367 0.2608059 0.3807397 0.2692552 0.4087472 0.282399 0.3946367 0.2692552 0.3946367 0.3328493 0.3910509 0.3264644 0.375633 0.3328493 0.375633 0.2508601 0.3807397 0.2598882 0.376844 0.2608059 0.3807397 0.1979011 0.3778598 0.3706501 0.3917988 0.1979011 0.3917988 0.3386734 0.3910509 0.3328493 0.375633 0.3386733 0.375633 0.2692552 0.3946367 0.282399 0.4087472 0.2692552 0.4087472 0.1979011 0.3950114 0.3709034 0.3917931 0.3709034 0.3950133 0.1979011 0.3950114 0.3709034 0.3989896 0.1979011 0.3989874 0.1976478 0.3747835 0.3706501 0.3706665 0.3706501 0.3746408 0.2508601 0.3807397 0.2608059 0.3807397 0.25086 0.388531 0.25086 0.388531 0.2608059 0.3807397 0.2508601 0.3807397 0.3222692 0.3910509 0.3158842 0.375633 0.3158842 0.3910509 0.3706501 0.3778597 0.1976478 0.3747835 0.1976478 0.3780024 0.2598882 0.376844 0.2508601 0.3807397 0.25086 0.376844 0.3386734 0.3910509 0.3399145 0.375633 0.3386733 0.375633 0.25086 0.388531 0.2692552 0.3946367 0.2608059 0.3807397 0.3222692 0.375633 0.3264644 0.3910509 0.3264644 0.375633 0.3158842 0.3910509 0.3051148 0.375633 0.3051148 0.3910509 0.2692552 0.3946367 0.25086 0.388531 0.2608059 0.3807397 0.282399 0.3946367 0.2692552 0.4087472 0.2692552 0.3946367 0.3264644 0.375633 0.3328493 0.3910509 0.3328493 0.375633 0.2508601 0.3807397 0.2598882 0.376844 0.25086 0.376844 0.3706501 0.3917988 0.1979011 0.3778598 0.1979011 0.3917988 0.3328493 0.375633 0.3386734 0.3910509 0.3386733 0.375633 0.282399 0.4087472 0.2692552 0.3946367 0.2692552 0.4087472 0.1979011 0.3950114 0.3709034 0.3917931 0.1979011 0.3917988 0.3709034 0.3989896 0.1979011 0.3950114 0.1979011 0.3989874 0.1976478 0.3747835 0.3706501 0.3706665 0.1976478 0.3708095 0.3158842 0.375633 0.3222692 0.375633 0.3222692 0.3910509 0.1976478 0.3747835 0.3706501 0.3746408 0.3706501 0.3778597 0.2508601 0.3807397 0.2608059 0.3807397 0.2598882 0.376844 0.3399145 0.375633 0.3399145 0.3910509 0.3386734 0.3910509 0.25086 0.388531 0.2608059 0.3807397 0.2692552 0.3946367 0.3222692 0.375633 0.3264644 0.375633 0.3264644 0.3910509 0.3051148 0.375633 0.3158842 0.375633 0.3158842 0.3910509 0.25086 0.388531 0.2692552 0.4087472 0.2692552 0.3946367 0.2692552 0.4087472 0.282399 0.4087472 0.282399 0.3946367 0.3328493 0.3910509 0.3264644 0.3910509 0.3264644 0.375633 0.2508601 0.3807397 0.25086 0.376844 0.2598882 0.376844 0.1979011 0.3778598 0.3706501 0.3778597 0.3706501 0.3917988 0.3386734 0.3910509 0.3328493 0.3910509 0.3328493 0.375633 0.2692552 0.3946367 0.282399 0.3946367 0.282399 0.4087472 0.1979011 0.3950114 0.1979011 0.3917988 0.3709034 0.3917931 0.1979011 0.3950114 0.3709034 0.3950133 0.3709034 0.3989896 0.1976478 0.3747835 0.1976478 0.3708095 0.3706501 0.3706665 0.3222692 0.3910509 0.3222692 0.375633 0.3158842 0.375633 0.3706501 0.3778597 0.3706501 0.3746408 0.1976478 0.3747835 0.2598882 0.376844 0.2608059 0.3807397 0.2508601 0.3807397 0.3386734 0.3910509 0.3399145 0.3910509 0.3399145 0.375633 0.25086 0.388531 0.2692552 0.4087472 0.2692552 0.3946367 0.3222692 0.375633 0.3222692 0.3910509 0.3264644 0.3910509 0.3158842 0.3910509 0.3158842 0.375633 0.3051148 0.375633 0.2692552 0.3946367 0.2692552 0.4087472 0.25086 0.388531 0.282399 0.3946367 0.282399 0.4087472 0.2692552 0.4087472 0.3264644 0.375633 0.3264644 0.3910509 0.3328493 0.3910509 0.2508601 0.3807397 0.2608059 0.3807397 0.2598882 0.376844 0.3706501 0.3917988 0.3706501 0.3778597 0.1979011 0.3778598 0.3328493 0.375633 0.3328493 0.3910509 0.3386734 0.3910509 0.282399 0.4087472 0.282399 0.3946367 0.2692552 0.3946367 0.1979011 0.3950114 0.3709034 0.3950133 0.3709034 0.3917931 0.3709034 0.3989896 0.3709034 0.3950133 0.1979011 0.3950114 0.1976478 0.3747835 0.3706501 0.3746408 0.3706501 0.3706665 0.2508601 0.3807397 0.25086 0.388531 0.2608059 0.3807397 0.25086 0.388531 0.2508601 0.3807397 0.2608059 0.3807397 0.3158842 0.375633 0.3222692 0.3910509 0.3158842 0.3910509 0.1976478 0.3747835 0.3706501 0.3778597 0.1976478 0.3780024 0.2508601 0.3807397 0.2598882 0.376844 0.25086 0.376844 0.3399145 0.375633 0.3386734 0.3910509 0.3386733 0.375633 0.25086 0.388531 0.2692552 0.3946367 0.2692552 0.4087472 0.3222692 0.375633 0.3264644 0.3910509 0.3222692 0.3910509 0.3051148 0.375633 0.3158842 0.3910509 0.3051148 0.3910509 0.25086 0.388531 0.2692552 0.3946367 0.2608059 0.3807397 0.2692552 0.4087472 0.282399 0.3946367 0.2692552 0.3946367 0.3328493 0.3910509 0.3264644 0.375633 0.3328493 0.375633 0.2508601 0.3807397 0.2598882 0.376844 0.2608059 0.3807397 0.1979011 0.3778598 0.3706501 0.3917988 0.1979011 0.3917988 0.3386734 0.3910509 0.3328493 0.375633 0.3386733 0.375633 0.2692552 0.3946367 0.282399 0.4087472 0.2692552 0.4087472 0.1979011 0.3950114 0.3709034 0.3917931 0.3709034 0.3950133 0.1979011 0.3950114 0.3709034 0.3989896 0.1979011 0.3989874 0.1976478 0.3747835 0.3706501 0.3706665 0.3706501 0.3746408 0.2508601 0.3807397 0.2608059 0.3807397 0.25086 0.388531 0.25086 0.388531 0.2608059 0.3807397 0.2508601 0.3807397 0.3222692 0.3910509 0.3158842 0.375633 0.3158842 0.3910509 0.3706501 0.3778597 0.1976478 0.3747835 0.1976478 0.3780024 0.2598882 0.376844 0.2508601 0.3807397 0.25086 0.376844 0.3386734 0.3910509 0.3399145 0.375633 0.3386733 0.375633 0.25086 0.388531 0.2692552 0.3946367 0.2608059 0.3807397 0.3222692 0.375633 0.3264644 0.3910509 0.3264644 0.375633 0.3158842 0.3910509 0.3051148 0.375633 0.3051148 0.3910509 0.2692552 0.3946367 0.25086 0.388531 0.2608059 0.3807397 0.282399 0.3946367 0.2692552 0.4087472 0.2692552 0.3946367 0.3264644 0.375633 0.3328493 0.3910509 0.3328493 0.375633 0.2508601 0.3807397 0.2598882 0.376844 0.25086 0.376844 0.3706501 0.3917988 0.1979011 0.3778598 0.1979011 0.3917988 0.3328493 0.375633 0.3386734 0.3910509 0.3386733 0.375633 0.282399 0.4087472 0.2692552 0.3946367 0.2692552 0.4087472 0.1979011 0.3950114 0.3709034 0.3917931 0.1979011 0.3917988 0.3709034 0.3989896 0.1979011 0.3950114 0.1979011 0.3989874 0.1976478 0.3747835 0.3706501 0.3706665 0.1976478 0.3708095 0.3158842 0.375633 0.3222692 0.375633 0.3222692 0.3910509 0.1976478 0.3747835 0.3706501 0.3746408 0.3706501 0.3778597 0.2508601 0.3807397 0.2608059 0.3807397 0.2598882 0.376844 0.3399145 0.375633 0.3399145 0.3910509 0.3386734 0.3910509 0.25086 0.388531 0.2608059 0.3807397 0.2692552 0.3946367 0.3222692 0.375633 0.3264644 0.375633 0.3264644 0.3910509 0.3051148 0.375633 0.3158842 0.375633 0.3158842 0.3910509 0.25086 0.388531 0.2692552 0.4087472 0.2692552 0.3946367 0.2692552 0.4087472 0.282399 0.4087472 0.282399 0.3946367 0.3328493 0.3910509 0.3264644 0.3910509 0.3264644 0.375633 0.2508601 0.3807397 0.25086 0.376844 0.2598882 0.376844 0.1979011 0.3778598 0.3706501 0.3778597 0.3706501 0.3917988 0.3386734 0.3910509 0.3328493 0.3910509 0.3328493 0.375633 0.2692552 0.3946367 0.282399 0.3946367 0.282399 0.4087472 0.1979011 0.3950114 0.1979011 0.3917988 0.3709034 0.3917931 0.1979011 0.3950114 0.3709034 0.3950133 0.3709034 0.3989896 0.1976478 0.3747835 0.1976478 0.3708095 0.3706501 0.3706665 0.3222692 0.3910509 0.3222692 0.375633 0.3158842 0.375633 0.3706501 0.3778597 0.3706501 0.3746408 0.1976478 0.3747835 0.2598882 0.376844 0.2608059 0.3807397 0.2508601 0.3807397 0.3386734 0.3910509 0.3399145 0.3910509 0.3399145 0.375633 0.25086 0.388531 0.2692552 0.4087472 0.2692552 0.3946367 0.3222692 0.375633 0.3222692 0.3910509 0.3264644 0.3910509 0.3158842 0.3910509 0.3158842 0.375633 0.3051148 0.375633 0.2692552 0.3946367 0.2692552 0.4087472 0.25086 0.388531 0.282399 0.3946367 0.282399 0.4087472 0.2692552 0.4087472 0.3264644 0.375633 0.3264644 0.3910509 0.3328493 0.3910509 0.2508601 0.3807397 0.2608059 0.3807397 0.2598882 0.376844 0.3706501 0.3917988 0.3706501 0.3778597 0.1979011 0.3778598 0.3328493 0.375633 0.3328493 0.3910509 0.3386734 0.3910509 0.282399 0.4087472 0.282399 0.3946367 0.2692552 0.3946367 0.1979011 0.3950114 0.3709034 0.3950133 0.3709034 0.3917931 0.3709034 0.3989896 0.3709034 0.3950133 0.1979011 0.3950114 0.1976478 0.3747835 0.3706501 0.3746408 0.3706501 0.3706665 0.2508601 0.3807397 0.25086 0.388531 0.2608059 0.3807397 0.25086 0.388531 0.2508601 0.3807397 0.2608059 0.3807397 0.3158842 0.375633 0.3222692 0.3910509 0.3158842 0.3910509 0.1976478 0.3747835 0.3706501 0.3778597 0.1976478 0.3780024 0.2508601 0.3807397 0.2598882 0.376844 0.25086 0.376844 0.3399145 0.375633 0.3386734 0.3910509 0.3386733 0.375633 0.25086 0.388531 0.2692552 0.3946367 0.2692552 0.4087472 0.3222692 0.375633 0.3264644 0.3910509 0.3222692 0.3910509 0.3051148 0.375633 0.3158842 0.3910509 0.3051148 0.3910509 0.25086 0.388531 0.2692552 0.3946367 0.2608059 0.3807397 0.2692552 0.4087472 0.282399 0.3946367 0.2692552 0.3946367 0.3328493 0.3910509 0.3264644 0.375633 0.3328493 0.375633 0.2508601 0.3807397 0.2598882 0.376844 0.2608059 0.3807397 0.1979011 0.3778598 0.3706501 0.3917988 0.1979011 0.3917988 0.3386734 0.3910509 0.3328493 0.375633 0.3386733 0.375633 0.2692552 0.3946367 0.282399 0.4087472 0.2692552 0.4087472 0.1979011 0.3950114 0.3709034 0.3917931 0.3709034 0.3950133 0.1979011 0.3950114 0.3709034 0.3989896 0.1979011 0.3989874 0.1976478 0.3747835 0.3706501 0.3706665 0.3706501 0.3746408 0.2508601 0.3807397 0.2608059 0.3807397 0.25086 0.388531 0.25086 0.388531 0.2608059 0.3807397 0.2508601 0.3807397 0.3222692 0.3910509 0.3158842 0.375633 0.3158842 0.3910509 0.3706501 0.3778597 0.1976478 0.3747835 0.1976478 0.3780024 0.2598882 0.376844 0.2508601 0.3807397 0.25086 0.376844 0.3386734 0.3910509 0.3399145 0.375633 0.3386733 0.375633 0.25086 0.388531 0.2692552 0.3946367 0.2608059 0.3807397 0.3222692 0.375633 0.3264644 0.3910509 0.3264644 0.375633 0.3158842 0.3910509 0.3051148 0.375633 0.3051148 0.3910509 0.2692552 0.3946367 0.25086 0.388531 0.2608059 0.3807397 0.282399 0.3946367 0.2692552 0.4087472 0.2692552 0.3946367 0.3264644 0.375633 0.3328493 0.3910509 0.3328493 0.375633 0.2508601 0.3807397 0.2598882 0.376844 0.25086 0.376844 0.3706501 0.3917988 0.1979011 0.3778598 0.1979011 0.3917988 0.3328493 0.375633 0.3386734 0.3910509 0.3386733 0.375633 0.282399 0.4087472 0.2692552 0.3946367 0.2692552 0.4087472 0.1979011 0.3950114 0.3709034 0.3917931 0.1979011 0.3917988 0.3709034 0.3989896 0.1979011 0.3950114 0.1979011 0.3989874 0.1976478 0.3747835 0.3706501 0.3706665 0.1976478 0.3708095 0.3158842 0.375633 0.3222692 0.375633 0.3222692 0.3910509 0.1976478 0.3747835 0.3706501 0.3746408 0.3706501 0.3778597 0.2508601 0.3807397 0.2608059 0.3807397 0.2598882 0.376844 0.3399145 0.375633 0.3399145 0.3910509 0.3386734 0.3910509 0.25086 0.388531 0.2608059 0.3807397 0.2692552 0.3946367 0.3222692 0.375633 0.3264644 0.375633 0.3264644 0.3910509 0.3051148 0.375633 0.3158842 0.375633 0.3158842 0.3910509 0.25086 0.388531 0.2692552 0.4087472 0.2692552 0.3946367 0.2692552 0.4087472 0.282399 0.4087472 0.282399 0.3946367 0.3328493 0.3910509 0.3264644 0.3910509 0.3264644 0.375633 0.2508601 0.3807397 0.25086 0.376844 0.2598882 0.376844 0.1979011 0.3778598 0.3706501 0.3778597 0.3706501 0.3917988 0.3386734 0.3910509 0.3328493 0.3910509 0.3328493 0.375633 0.2692552 0.3946367 0.282399 0.3946367 0.282399 0.4087472 0.1979011 0.3950114 0.1979011 0.3917988 0.3709034 0.3917931 0.1979011 0.3950114 0.3709034 0.3950133 0.3709034 0.3989896 0.1976478 0.3747835 0.1976478 0.3708095 0.3706501 0.3706665 0.3222692 0.3910509 0.3222692 0.375633 0.3158842 0.375633 0.3706501 0.3778597 0.3706501 0.3746408 0.1976478 0.3747835 0.2598882 0.376844 0.2608059 0.3807397 0.2508601 0.3807397 0.3386734 0.3910509 0.3399145 0.3910509 0.3399145 0.375633 0.25086 0.388531 0.2692552 0.4087472 0.2692552 0.3946367 0.3222692 0.375633 0.3222692 0.3910509 0.3264644 0.3910509 0.3158842 0.3910509 0.3158842 0.375633 0.3051148 0.375633 0.2692552 0.3946367 0.2692552 0.4087472 0.25086 0.388531 0.282399 0.3946367 0.282399 0.4087472 0.2692552 0.4087472 0.3264644 0.375633 0.3264644 0.3910509 0.3328493 0.3910509 0.2508601 0.3807397 0.2608059 0.3807397 0.2598882 0.376844 0.3706501 0.3917988 0.3706501 0.3778597 0.1979011 0.3778598 0.3328493 0.375633 0.3328493 0.3910509 0.3386734 0.3910509 0.282399 0.4087472 0.282399 0.3946367 0.2692552 0.3946367 0.1979011 0.3950114 0.3709034 0.3950133 0.3709034 0.3917931 0.3709034 0.3989896 0.3709034 0.3950133 0.1979011 0.3950114 0.1976478 0.3747835 0.3706501 0.3746408 0.3706501 0.3706665 0.2508601 0.3807397 0.25086 0.388531 0.2608059 0.3807397 0.25086 0.388531 0.2508601 0.3807397 0.2608059 0.3807397 0.3158842 0.375633 0.3222692 0.3910509 0.3158842 0.3910509 0.1976478 0.3747835 0.3706501 0.3778597 0.1976478 0.3780024 0.2508601 0.3807397 0.2598882 0.376844 0.25086 0.376844 0.3399145 0.375633 0.3386734 0.3910509 0.3386733 0.375633 0.25086 0.388531 0.2692552 0.3946367 0.2692552 0.4087472 0.3222692 0.375633 0.3264644 0.3910509 0.3222692 0.3910509 0.3051148 0.375633 0.3158842 0.3910509 0.3051148 0.3910509 0.25086 0.388531 0.2692552 0.3946367 0.2608059 0.3807397 0.2692552 0.4087472 0.282399 0.3946367 0.2692552 0.3946367 0.3328493 0.3910509 0.3264644 0.375633 0.3328493 0.375633 0.2508601 0.3807397 0.2598882 0.376844 0.2608059 0.3807397 0.1979011 0.3778598 0.3706501 0.3917988 0.1979011 0.3917988 0.3386734 0.3910509 0.3328493 0.375633 0.3386733 0.375633 0.2692552 0.3946367 0.282399 0.4087472 0.2692552 0.4087472 0.1979011 0.3950114 0.3709034 0.3917931 0.3709034 0.3950133 0.1979011 0.3950114 0.3709034 0.3989896 0.1979011 0.3989874 0.1976478 0.3747835 0.3706501 0.3706665 0.3706501 0.3746408 0.2508601 0.3807397 0.2608059 0.3807397 0.25086 0.388531 0.25086 0.388531 0.2608059 0.3807397 0.2508601 0.3807397 0.3222692 0.3910509 0.3158842 0.375633 0.3158842 0.3910509 0.3706501 0.3778597 0.1976478 0.3747835 0.1976478 0.3780024 0.2598882 0.376844 0.2508601 0.3807397 0.25086 0.376844 0.3386734 0.3910509 0.3399145 0.375633 0.3386733 0.375633 0.25086 0.388531 0.2692552 0.3946367 0.2608059 0.3807397 0.3222692 0.375633 0.3264644 0.3910509 0.3264644 0.375633 0.3158842 0.3910509 0.3051148 0.375633 0.3051148 0.3910509 0.2692552 0.3946367 0.25086 0.388531 0.2608059 0.3807397 0.282399 0.3946367 0.2692552 0.4087472 0.2692552 0.3946367 0.3264644 0.375633 0.3328493 0.3910509 0.3328493 0.375633 0.2508601 0.3807397 0.2598882 0.376844 0.25086 0.376844 0.3706501 0.3917988 0.1979011 0.3778598 0.1979011 0.3917988 0.3328493 0.375633 0.3386734 0.3910509 0.3386733 0.375633 0.282399 0.4087472 0.2692552 0.3946367 0.2692552 0.4087472 0.1979011 0.3950114 0.3709034 0.3917931 0.1979011 0.3917988 0.3709034 0.3989896 0.1979011 0.3950114 0.1979011 0.3989874 0.1976478 0.3747835 0.3706501 0.3706665 0.1976478 0.3708095 0.3158842 0.375633 0.3222692 0.375633 0.3222692 0.3910509 0.1976478 0.3747835 0.3706501 0.3746408 0.3706501 0.3778597 0.2508601 0.3807397 0.2608059 0.3807397 0.2598882 0.376844 0.3399145 0.375633 0.3399145 0.3910509 0.3386734 0.3910509 0.25086 0.388531 0.2608059 0.3807397 0.2692552 0.3946367 0.3222692 0.375633 0.3264644 0.375633 0.3264644 0.3910509 0.3051148 0.375633 0.3158842 0.375633 0.3158842 0.3910509 0.25086 0.388531 0.2692552 0.4087472 0.2692552 0.3946367 0.2692552 0.4087472 0.282399 0.4087472 0.282399 0.3946367 0.3328493 0.3910509 0.3264644 0.3910509 0.3264644 0.375633 0.2508601 0.3807397 0.25086 0.376844 0.2598882 0.376844 0.1979011 0.3778598 0.3706501 0.3778597 0.3706501 0.3917988 0.3386734 0.3910509 0.3328493 0.3910509 0.3328493 0.375633 0.2692552 0.3946367 0.282399 0.3946367 0.282399 0.4087472 0.1979011 0.3950114 0.1979011 0.3917988 0.3709034 0.3917931 0.1979011 0.3950114 0.3709034 0.3950133 0.3709034 0.3989896 0.1976478 0.3747835 0.1976478 0.3708095 0.3706501 0.3706665 0.3222692 0.3910509 0.3222692 0.375633 0.3158842 0.375633 0.3706501 0.3778597 0.3706501 0.3746408 0.1976478 0.3747835 0.2598882 0.376844 0.2608059 0.3807397 0.2508601 0.3807397 0.3386734 0.3910509 0.3399145 0.3910509 0.3399145 0.375633 0.25086 0.388531 0.2692552 0.4087472 0.2692552 0.3946367 0.3222692 0.375633 0.3222692 0.3910509 0.3264644 0.3910509 0.3158842 0.3910509 0.3158842 0.375633 0.3051148 0.375633 0.2692552 0.3946367 0.2692552 0.4087472 0.25086 0.388531 0.282399 0.3946367 0.282399 0.4087472 0.2692552 0.4087472 0.3264644 0.375633 0.3264644 0.3910509 0.3328493 0.3910509 0.2508601 0.3807397 0.2608059 0.3807397 0.2598882 0.376844 0.3706501 0.3917988 0.3706501 0.3778597 0.1979011 0.3778598 0.3328493 0.375633 0.3328493 0.3910509 0.3386734 0.3910509 0.282399 0.4087472 0.282399 0.3946367 0.2692552 0.3946367 0.1979011 0.3950114 0.3709034 0.3950133 0.3709034 0.3917931 0.3709034 0.3989896 0.3709034 0.3950133 0.1979011 0.3950114 0.1976478 0.3747835 0.3706501 0.3746408 0.3706501 0.3706665 0.2508601 0.3807397 0.25086 0.388531 0.2608059 0.3807397 0.25086 0.388531 0.2508601 0.3807397 0.2608059 0.3807397 0.3158842 0.375633 0.3222692 0.3910509 0.3158842 0.3910509 0.1976478 0.3747835 0.3706501 0.3778597 0.1976478 0.3780024 0.2508601 0.3807397 0.2598882 0.376844 0.25086 0.376844 0.3399145 0.375633 0.3386734 0.3910509 0.3386733 0.375633 0.25086 0.388531 0.2692552 0.3946367 0.2692552 0.4087472 0.3222692 0.375633 0.3264644 0.3910509 0.3222692 0.3910509 0.3051148 0.375633 0.3158842 0.3910509 0.3051148 0.3910509 0.25086 0.388531 0.2692552 0.3946367 0.2608059 0.3807397 0.2692552 0.4087472 0.282399 0.3946367 0.2692552 0.3946367 0.3328493 0.3910509 0.3264644 0.375633 0.3328493 0.375633 0.2508601 0.3807397 0.2598882 0.376844 0.2608059 0.3807397 0.1979011 0.3778598 0.3706501 0.3917988 0.1979011 0.3917988 0.3386734 0.3910509 0.3328493 0.375633 0.3386733 0.375633 0.2692552 0.3946367 0.282399 0.4087472 0.2692552 0.4087472 0.1979011 0.3950114 0.3709034 0.3917931 0.3709034 0.3950133 0.1979011 0.3950114 0.3709034 0.3989896 0.1979011 0.3989874 0.1976478 0.3747835 0.3706501 0.3706665 0.3706501 0.3746408 0.2508601 0.3807397 0.2608059 0.3807397 0.25086 0.388531 0.25086 0.388531 0.2608059 0.3807397 0.2508601 0.3807397 0.3222692 0.3910509 0.3158842 0.375633 0.3158842 0.3910509 0.3706501 0.3778597 0.1976478 0.3747835 0.1976478 0.3780024 0.2598882 0.376844 0.2508601 0.3807397 0.25086 0.376844 0.3386734 0.3910509 0.3399145 0.375633 0.3386733 0.375633 0.25086 0.388531 0.2692552 0.3946367 0.2608059 0.3807397 0.3222692 0.375633 0.3264644 0.3910509 0.3264644 0.375633 0.3158842 0.3910509 0.3051148 0.375633 0.3051148 0.3910509 0.2692552 0.3946367 0.25086 0.388531 0.2608059 0.3807397 0.282399 0.3946367 0.2692552 0.4087472 0.2692552 0.3946367 0.3264644 0.375633 0.3328493 0.3910509 0.3328493 0.375633 0.2508601 0.3807397 0.2598882 0.376844 0.25086 0.376844 0.3706501 0.3917988 0.1979011 0.3778598 0.1979011 0.3917988 0.3328493 0.375633 0.3386734 0.3910509 0.3386733 0.375633 0.282399 0.4087472 0.2692552 0.3946367 0.2692552 0.4087472 0.1979011 0.3950114 0.3709034 0.3917931 0.1979011 0.3917988 0.3709034 0.3989896 0.1979011 0.3950114 0.1979011 0.3989874 0.1976478 0.3747835 0.3706501 0.3706665 0.1976478 0.3708095 0.3158842 0.375633 0.3222692 0.375633 0.3222692 0.3910509 0.1976478 0.3747835 0.3706501 0.3746408 0.3706501 0.3778597 0.2508601 0.3807397 0.2608059 0.3807397 0.2598882 0.376844 0.3399145 0.375633 0.3399145 0.3910509 0.3386734 0.3910509 0.25086 0.388531 0.2608059 0.3807397 0.2692552 0.3946367 0.3222692 0.375633 0.3264644 0.375633 0.3264644 0.3910509 0.3051148 0.375633 0.3158842 0.375633 0.3158842 0.3910509 0.25086 0.388531 0.2692552 0.4087472 0.2692552 0.3946367 0.2692552 0.4087472 0.282399 0.4087472 0.282399 0.3946367 0.3328493 0.3910509 0.3264644 0.3910509 0.3264644 0.375633 0.2508601 0.3807397 0.25086 0.376844 0.2598882 0.376844 0.1979011 0.3778598 0.3706501 0.3778597 0.3706501 0.3917988 0.3386734 0.3910509 0.3328493 0.3910509 0.3328493 0.375633 0.2692552 0.3946367 0.282399 0.3946367 0.282399 0.4087472 0.1979011 0.3950114 0.1979011 0.3917988 0.3709034 0.3917931 0.1979011 0.3950114 0.3709034 0.3950133 0.3709034 0.3989896 0.1976478 0.3747835 0.1976478 0.3708095 0.3706501 0.3706665 0.3222692 0.3910509 0.3222692 0.375633 0.3158842 0.375633 0.3706501 0.3778597 0.3706501 0.3746408 0.1976478 0.3747835 0.2598882 0.376844 0.2608059 0.3807397 0.2508601 0.3807397 0.3386734 0.3910509 0.3399145 0.3910509 0.3399145 0.375633 0.25086 0.388531 0.2692552 0.4087472 0.2692552 0.3946367 0.3222692 0.375633 0.3222692 0.3910509 0.3264644 0.3910509 0.3158842 0.3910509 0.3158842 0.375633 0.3051148 0.375633 0.2692552 0.3946367 0.2692552 0.4087472 0.25086 0.388531 0.282399 0.3946367 0.282399 0.4087472 0.2692552 0.4087472 0.3264644 0.375633 0.3264644 0.3910509 0.3328493 0.3910509 0.2508601 0.3807397 0.2608059 0.3807397 0.2598882 0.376844 0.3706501 0.3917988 0.3706501 0.3778597 0.1979011 0.3778598 0.3328493 0.375633 0.3328493 0.3910509 0.3386734 0.3910509 0.282399 0.4087472 0.282399 0.3946367 0.2692552 0.3946367 0.1979011 0.3950114 0.3709034 0.3950133 0.3709034 0.3917931 0.3709034 0.3989896 0.3709034 0.3950133 0.1979011 0.3950114 0.1976478 0.3747835 0.3706501 0.3746408 0.3706501 0.3706665 0.2508601 0.3807397 0.25086 0.388531 0.2608059 0.3807397 0.25086 0.388531 0.2508601 0.3807397 0.2608059 0.3807397 0.3158842 0.375633 0.3222692 0.3910509 0.3158842 0.3910509 0.1976478 0.3747835 0.3706501 0.3778597 0.1976478 0.3780024 0.2508601 0.3807397 0.2598882 0.376844 0.25086 0.376844 0.3399145 0.375633 0.3386734 0.3910509 0.3386733 0.375633 0.25086 0.388531 0.2692552 0.3946367 0.2692552 0.4087472 0.3222692 0.375633 0.3264644 0.3910509 0.3222692 0.3910509 0.3051148 0.375633 0.3158842 0.3910509 0.3051148 0.3910509 0.25086 0.388531 0.2692552 0.3946367 0.2608059 0.3807397 0.2692552 0.4087472 0.282399 0.3946367 0.2692552 0.3946367 0.3328493 0.3910509 0.3264644 0.375633 0.3328493 0.375633 0.2508601 0.3807397 0.2598882 0.376844 0.2608059 0.3807397 0.1979011 0.3778598 0.3706501 0.3917988 0.1979011 0.3917988 0.3386734 0.3910509 0.3328493 0.375633 0.3386733 0.375633 0.2692552 0.3946367 0.282399 0.4087472 0.2692552 0.4087472 0.1979011 0.3950114 0.3709034 0.3917931 0.3709034 0.3950133 0.1979011 0.3950114 0.3709034 0.3989896 0.1979011 0.3989874 0.1976478 0.3747835 0.3706501 0.3706665 0.3706501 0.3746408 0.2508601 0.3807397 0.2608059 0.3807397 0.25086 0.388531 0.25086 0.388531 0.2608059 0.3807397 0.2508601 0.3807397 0.3222692 0.3910509 0.3158842 0.375633 0.3158842 0.3910509 0.3706501 0.3778597 0.1976478 0.3747835 0.1976478 0.3780024 0.2598882 0.376844 0.2508601 0.3807397 0.25086 0.376844 0.3386734 0.3910509 0.3399145 0.375633 0.3386733 0.375633 0.25086 0.388531 0.2692552 0.3946367 0.2608059 0.3807397 0.3222692 0.375633 0.3264644 0.3910509 0.3264644 0.375633 0.3158842 0.3910509 0.3051148 0.375633 0.3051148 0.3910509 0.2692552 0.3946367 0.25086 0.388531 0.2608059 0.3807397 0.282399 0.3946367 0.2692552 0.4087472 0.2692552 0.3946367 0.3264644 0.375633 0.3328493 0.3910509 0.3328493 0.375633 0.2508601 0.3807397 0.2598882 0.376844 0.25086 0.376844 0.3706501 0.3917988 0.1979011 0.3778598 0.1979011 0.3917988 0.3328493 0.375633 0.3386734 0.3910509 0.3386733 0.375633 0.282399 0.4087472 0.2692552 0.3946367 0.2692552 0.4087472 0.1979011 0.3950114 0.3709034 0.3917931 0.1979011 0.3917988 0.3709034 0.3989896 0.1979011 0.3950114 0.1979011 0.3989874 0.1976478 0.3747835 0.3706501 0.3706665 0.1976478 0.3708095 0.3158842 0.375633 0.3222692 0.375633 0.3222692 0.3910509 0.1976478 0.3747835 0.3706501 0.3746408 0.3706501 0.3778597 0.2508601 0.3807397 0.2608059 0.3807397 0.2598882 0.376844 0.3399145 0.375633 0.3399145 0.3910509 0.3386734 0.3910509 0.25086 0.388531 0.2608059 0.3807397 0.2692552 0.3946367 0.3222692 0.375633 0.3264644 0.375633 0.3264644 0.3910509 0.3051148 0.375633 0.3158842 0.375633 0.3158842 0.3910509 0.25086 0.388531 0.2692552 0.4087472 0.2692552 0.3946367 0.2692552 0.4087472 0.282399 0.4087472 0.282399 0.3946367 0.3328493 0.3910509 0.3264644 0.3910509 0.3264644 0.375633 0.2508601 0.3807397 0.25086 0.376844 0.2598882 0.376844 0.1979011 0.3778598 0.3706501 0.3778597 0.3706501 0.3917988 0.3386734 0.3910509 0.3328493 0.3910509 0.3328493 0.375633 0.2692552 0.3946367 0.282399 0.3946367 0.282399 0.4087472 0.1979011 0.3950114 0.1979011 0.3917988 0.3709034 0.3917931 0.1979011 0.3950114 0.3709034 0.3950133 0.3709034 0.3989896 0.1976478 0.3747835 0.1976478 0.3708095 0.3706501 0.3706665 0.3222692 0.3910509 0.3222692 0.375633 0.3158842 0.375633 0.3706501 0.3778597 0.3706501 0.3746408 0.1976478 0.3747835 0.2598882 0.376844 0.2608059 0.3807397 0.2508601 0.3807397 0.3386734 0.3910509 0.3399145 0.3910509 0.3399145 0.375633 0.25086 0.388531 0.2692552 0.4087472 0.2692552 0.3946367 0.3222692 0.375633 0.3222692 0.3910509 0.3264644 0.3910509 0.3158842 0.3910509 0.3158842 0.375633 0.3051148 0.375633 0.2692552 0.3946367 0.2692552 0.4087472 0.25086 0.388531 0.282399 0.3946367 0.282399 0.4087472 0.2692552 0.4087472 0.3264644 0.375633 0.3264644 0.3910509 0.3328493 0.3910509 0.2508601 0.3807397 0.2608059 0.3807397 0.2598882 0.376844 0.3706501 0.3917988 0.3706501 0.3778597 0.1979011 0.3778598 0.3328493 0.375633 0.3328493 0.3910509 0.3386734 0.3910509 0.282399 0.4087472 0.282399 0.3946367 0.2692552 0.3946367 0.1979011 0.3950114 0.3709034 0.3950133 0.3709034 0.3917931 0.3709034 0.3989896 0.3709034 0.3950133 0.1979011 0.3950114 0.1976478 0.3747835 0.3706501 0.3746408 0.3706501 0.3706665 0.5319744 0.5024812 0.4121443 0.3602533 0.5319752 0.3579218 0.5317375 0.5024802 0.4119077 0.3617483 0.5317377 0.3602533 0.4121443 0.3602533 0.5319744 0.5024812 0.5319752 0.3579218 0.4119077 0.3617483 0.5317375 0.5024802 0.5317377 0.3602533 0.5319744 0.5024812 0.412144 0.5024802 0.4121443 0.3602533 0.5317375 0.5024802 0.4119072 0.5024788 0.4119077 0.3617483 0.4121443 0.3602533 0.412144 0.5024802 0.5319744 0.5024812 0.4119077 0.3617483 0.4119072 0.5024788 0.5317375 0.5024802 0.4751922 0.4690636 0.4405046 0.4648457 0.4405046 0.4586827 0.5416089 0.460817 0.4751876 0.4649434 0.475207 0.4587804 0.5416089 0.460817 0.4751876 0.4649434 0.5415895 0.46698 0.4087915 0.4586827 0.4751876 0.4649434 0.475207 0.4587804 0.4751922 0.4690636 0.5098798 0.4648457 0.4751922 0.4726623 0.4087915 0.4586827 0.4751876 0.4649434 0.4087722 0.4648457 0.4751922 0.4712679 0.4414235 0.46698 0.4751922 0.4747966 0.4751922 0.4712679 0.5089609 0.46698 0.5089609 0.460817 0.4751922 0.4690636 0.4751922 0.4726623 0.4405046 0.4648457 0.5416089 0.460817 0.5415895 0.46698 0.4751876 0.4649434 0.5416089 0.460817 0.475207 0.4587804 0.4751876 0.4649434 0.4087915 0.4586827 0.4087722 0.4648457 0.4751876 0.4649434 0.4751922 0.4690636 0.5098798 0.4586827 0.5098798 0.4648457 0.4087915 0.4586827 0.475207 0.4587804 0.4751876 0.4649434 0.4751922 0.4712679 0.4414235 0.460817 0.4414235 0.46698 0.4751922 0.4712679 0.4751922 0.4747966 0.5089609 0.46698</float_array>
          <technique_common>
            <accessor source="#Cubo_002-mesh-map-0-array" count="2232" stride="2">
              <param name="S" type="float"/>
              <param name="T" type="float"/>
            </accessor>
          </technique_common>
        </source>
        <source id="Cubo_002-mesh-map-1">
          <float_array id="Cubo_002-mesh-map-1-array" count="4464">0 0 0 0 0 0 0 0 0 0 0 0 0 0 0 0 0 0 0 0 0 0 0 0 0 0 0 0 0 0 0 0 0 0 0 0 0 0 0 0 0 0 0 0 0 0 0 0 0 0 0 0 0 0 0 0 0 0 0 0 0 0 0 0 0 0 0 0 0 0 0 0 0 0 0 0 0 0 0 0 0 0 0 0 0 0 0 0 0 0 0 0 0 0 0 0 0 0 0 0 0 0 0 0 0 0 0 0 0 0 0 0 0 0 0 0 0 0 0 0 0 0 0 0 0 0 0 0 0 0 0 0 0 0 0 0 0 0 0 0 0 0 0 0 0 0 0 0 0 0 0 0 0 0 0 0 0 0 0 0 0 0 0 0 0 0 0 0 0 0 0 0 0 0 0 0 0 0 0 0 0 0 0 0 0 0 0 0 0 0 0 0 0 0 0 0 0 0 0 0 0 0 0 0 0 0 0 0 0 0 0 0 0 0 0 0 0 0 0 0 0 0 0 0 0 0 0 0 0 0 0 0 0 0 0 0 0 0 0 0 0 0 0 0 0 0 0 0 0 0 0 0 0 0 0 0 0 0 0 0 0 0 0 0 0 0 0 0 0 0 0 0 0 0 0 0 0 0 0 0 0 0 0 0 0 0 0 0 0 0 0 0 0 0 0 0 0 0 0 0 0 0 0 0 0 0 0 0 0 0 0 0 0 0 0 0 0 0 0 0 0 0 0 0 0 0 0 0 0 0 0 0 0 0 0 0 0 0 0 0 0 0 0 0 0 0 0 0 0 0 0 0 0 0 0 0 0 0 0 0 0 0 0 0 0 0 0 0 0 0 0 0 0 0 0 0 0 0 0 0 0 0 0 0 0 0 0 0 0 0 0 0 0 0 0 0 0 0 0 0 0 0 0 0 0 0 0 0 0 0 0 0 0 0 0 0 0 0 0 0 0 0 0 0 0 0 0 0 0 0 0 0 0 0 0 0 0 0 0 0 0 0 0 0 0 0 0 0 0 0 0 0 0 0 0 0 0 0 0 0 0 0 0 0 0 0 0 0 0 0 0 0 0 0 0 0 0 0 0 0 0 0 0 0 0 0 0 0 0 0 0 0 0 0 0 0 0 0 0 0 0 0 0 0 0 0 0 0 0 0 0 0 0 0 0 0 0 0 0 0 0 0 0 0 0 0 0 0 0 0 0 0 0 0 0 0 0 0 0 0 0 0 0 0 0 0 0 0 0 0 0 0 0 0 0 0 0 0 0 0 0 0 0 0 0 0 0 0 0 0 0 0 0 0 0 0 0 0 0 0 0 0 0 0 0 0 0 0 0 0 0 0 0 0 0 0 0 0 0 0 0 0 0 0 0 0 0 0 0 0 0 0 0 0 0 0 0 0 0 0 0 0 0 0 0 0 0 0 0 0 0 0 0 0 0 0 0 0 0 0 0 0 0 0 0 0 0 0 0 0 0 0 0 0 0 0 0 0 0 0 0 0 0 0 0 0 0 0 0 0 0 0 0 0 0 0 0 0 0 0 0 0 0 0 0 0 0 0 0 0 0 0 0 0 0 0 0 0 0 0 0 0 0 0 0 0 0 0 0 0 0 0 0 0 0 0 0 0 0 0 0 0 0 0 0 0 0 0 0 0 0 0 0 0 0 0 0 0 0 0 0 0 0 0 0 0 0 0 0 0 0 0 0 0 0 0 0 0 0 0 0 0 0 0 0 0 0 0 0 0 0 0 0 0 0 0 0 0 0 0 0 0 0 0 0 0 0 0 0 0 0 0 0 0 0 0 0 0 0 0 0 0 0 0 0 0 0 0 0 0 0 0 0 0 0 0 0 0 0 0 0 0 0 0 0 0 0 0 0 0 0 0 0 0 0 0 0 0 0 0 0 0 0 0 0 0 0 0 0 0 0 0 0 0 0 0 0 0 0 0 0 0 0 0 0 0 0 0 0 0 0 0 0 0 0 0 0 0 0 0 0 0 0 0 0 0 0 0 0 0 0 0 0 0 0 0 0 0 0 0 0 0 0 0 0 0 0 0 0 0 0 0 0 0 0 0 0 0 0 0 0 0 0 0 0 0 0 0 0 0 0 0 0 0 0 0 0 0 0 0 0 0 0 0 0 0 0 0 0 0 0 0 0 0 0 0 0 0 0 0 0 0 0 0 0 0 0 0 0 0 0 0 0 0 0 0 0 0 0 0 0 0 0 0 0 0 0 0 0 0 0 0 0 0 0 0 0 0 0 0 0 0 0 0 0 0 0 0 0 0 0 0 0 0 0 0 0 0 0 0 0 0 0 0 0 0 0 0 0 0 0 0 0 0 0 0 0 0 0 0 0 0 0 0 0 0 0 0 0 0 0 0 0 0 0 0 0 0 0 0 0 0 0 0 0 0 0 0 0 0 0 0 0 0 0 0 0 0 0 0 0 0 0 0 0 0 0 0 0 0 0 0 0 0 0 0 0 0 0 0 0 0 0 0 0 0 0 0 0 0 0 0 0 0 0 0 0 0 0 0 0 0 0 0 0 0 0 0 0 0 0 0 0 0 0 0 0 0 0 0 0 0 0 0 0 0 0 0 0 0 0 0 0 0 0 0 0 0 0 0 0 0 0 0 0 0 0 0 0 0 0 0 0 0 0 0 0 0 0 0 0 0 0 0 0 0 0 0 0 0 0 0 0 0 0 0 0 0 0 0 0 0 0 0 0 0 0 0 0 0 0 0 0 0 0 0 0 0 0 0 0 0 0 0 0 0 0 0 0 0 0 0 0 0 0 0 0 0 0 0 0 0 0 0 0 0 0 0 0 0 0 0 0 0 0 0 0 0 0 0 0 0 0 0 0 0 0 0 0 0 0 0 0 0 0 0 0 0 0 0 0 0 0 0 0 0 0 0 0 0 0 0 0 0 0 0 0 0 0 0 0 0 0 0 0 0 0 0 0 0 0 0 0 0 0 0 0 0 0 0 0 0 0 0 0 0 0 0 0 0 0 0 0 0 0 0 0 0 0 0 0 0 0 0 0 0 0 0 0 0 0 0 0 0 0 0 0 0 0 0 0 0 0 0 0 0 0 0 0 0 0 0 0 0 0 0 0 0 0 0 0 0 0 0 0 0 0 0 0 0 0 0 0 0 0 0 0 0 0 0 0 0 0 0 0 0 0 0 0 0 0 0 0 0 0 0 0 0 0 0 0 0 0 0 0 0 0 0 0 0 0 0 0 0 0 0 0 0 0 0 0 0 0 0 0 0 0 0 0 0 0 0 0 0 0 0 0 0 0 0 0 0 0 0 0 0 0 0 0 0 0 0 0 0 0 0 0 0 0 0 0 0 0 0 0 0 0 0 0 0 0 0 0 0 0 0 0 0 0 0 0 0 0 0 0 0 0 0 0 0 0 0 0 0 0 0 0 0 0 0 0 0 0 0 0 0 0 0 0 0 0 0 0 0 0 0 0 0 0 0 0 0 0 0 0 0 0 0 0 0 0 0 0 0 0 0 0 0 0 0 0 0 0 0 0 0 0 0 0 0 0 0 0 0 0 0 0 0 0 0 0 0 0 0 0 0 0 0 0 0 0 0 0 0 0 0 0 0 0 0 0 0 0 0 0 0 0 0 0 0 0 0 0 0 0 0 0 0 0 0 0 0 0 0 0 0 0 0 0 0 0 0 0 0 0 0 0 0 0 0 0 0 0 0 0 0 0 0 0 0 0 0 0 0 0 0 0 0 0 0 0 0 0 0 0 0 0 0 0 0 0 0 0 0 0 0 0 0 0 0 0 0 0 0 0 0 0 0 0 0 0 0 0 0 0 0 0 0 0 0 0 0 0 0 0 0 0 0 0 0 0 0 0 0 0 0 0 0 0 0 0 0 0 0 0 0 0 0 0 0 0 0 0 0 0 0 0 0 0 0 0 0 0 0 0 0 0 0 0 0 0 0 0 0 0 0 0 0 0 0 0 0 0 0 0 0 0 0 0 0 0 0 0 0 0 0 0 0 0 0 0 0 0 0 0 0 0 0 0 0 0 0 0 0 0 0 0 0 0 0 0 0 0 0 0 0 0 0 0 0 0 0 0 0 0 0 0 0 0 0 0 0 0 0 0 0 0 0 0 0 0 0 0 0 0 0 0 0 0 0 0 0 0 0 0 0 0 0 0 0 0 0 0 0 0 0 0 0 0 0 0 0 0 0 0 0 0 0 0 0 0 0 0 0 0 0 0 0 0 0 0 0 0 0 0 0 0 0 0 0 0 0 0 0 0 0 0 0 0 0 0 0 0 0 0 0 0 0 0 0 0 0 0 0 0 0 0 0 0 0 0 0 0 0 0 0 0 0 0 0 0 0 0 0 0 0 0 0 0 0 0 0 0 0 0 0 0 0 0 0 0 0 0 0 0 0 0 0 0 0 0 0 0 0 0 0 0 0 0 0 0 0 0 0 0 0 0 0 0 0 0 0 0 0 0 0 0 0 0 0 0 0 0 0 0 0 0 0 0 0 0 0 0 0 0 0 0 0 0 0 0 0 0 0 0 0 0 0 0 0 0 0 0 0 0 0 0 0 0 0 0 0 0 0 0 0 0 0 0 0 0 0 0 0 0 0 0 0 0 0 0 0 0 0 0 0 0 0 0 0 0 0 0 0 0 0 0 0 0 0 0 0 0 0 0 0 0 0 0 0 0 0 0 0 0 0 0 0 0 0 0 0 0 0 0 0 0 0 0 0 0 0 0 0 0 0 0 0 0 0 0 0 0 0 0 0 0 0 0 0 0 0 0 0 0 0 0 0 0 0 0 0 0 0 0 0 0 0 0 0 0 0 0 0 0 0 0 0 0 0 0 0 0 0 0 0 0 0 0 0 0 0 0 0 0 0 0 0 0 0 0 0 0 0 0 0 0 0 0 0 0 0 0 0 0 0 0 0 0 0 0 0 0 0 0 0 0 0 0 0 0 0 0 0 0 0 0 0 0 0 0 0 0 0 0 0 0 0 0 0 0 0 0 0 0 0 0 0 0 0 0 0 0 0 0 0 0 0 0 0 0 0 0 0 0 0 0 0 0 0 0 0 0 0 0 0 0 0 0 0 0 0 0 0 0 0 0 0 0 0 0 0 0 0 0 0 0 0 0 0 0 0 0 0 0 0 0 0 0 0 0 0 0 0 0 0 0 0 0 0 0 0 0 0 0 0 0 0 0 0 0 0 0 0 0 0 0 0 0 0 0 0 0 0 0 0 0 0 0 0 0 0 0 0 0 0 0 0 0 0 0 0 0 0 0 0 0 0 0 0 0 0 0 0 0 0 0 0 0 0 0 0 0 0 0 0 0 0 0 0 0 0 0 0 0 0 0 0 0 0 0 0 0 0 0 0 0 0 0 0 0 0 0 0 0 0 0 0 0 0 0 0 0 0 0 0 0 0 0 0 0 0 0 0 0 0 0 0 0 0 0 0 0 0 0 0 0 0 0 0 0 0 0 0 0 0 0 0 0 0 0 0 0 0 0 0 0 0 0 0 0 0 0 0 0 0 0 0 0 0 0 0 0 0 0 0 0 0 0 0 0 0 0 0 0 0 0 0 0 0 0 0 0 0 0 0 0 0 0 0 0 0 0 0 0 0 0 0 0 0 0 0 0 0 0 0 0 0 0 0 0 0 0 0 0 0 0 0 0 0 0 0 0 0 0 0 0 0 0 0 0 0 0 0 0 0 0 0 0 0 0 0 0 0 0 0 0 0 0 0 0 0 0 0 0 0 0 0 0 0 0 0 0 0 0 0 0 0 0 0 0 0 0 0 0 0 0 0 0 0 0 0 0 0 0 0 0 0 0 0 0 0 0 0 0 0 0 0 0 0 0 0 0 0 0 0 0 0 0 0 0 0 0 0 0 0 0 0 0 0 0 0 0 0 0 0 0 0 0 0 0 0 0 0 0 0 0 0 0 0 0 0 0 0 0 0 0 0 0 0 0 0 0 0 0 0 0 0 0 0 0 0 0 0 0 0 0 0 0 0 0 0 0 0 0 0 0 0 0 0 0 0 0 0 0 0 0 0 0 0 0 0 0 0 0 0 0 0 0 0 0 0 0 0 0 0 0 0 0 0 0 0 0 0 0 0 0 0 0 0 0 0 0 0 0 0 0 0 0 0 0 0 0 0 0 0 0 0 0 0 0 0 0 0 0 0 0 0 0 0 0 0 0 0 0 0 0 0 0 0 0 0 0 0 0 0 0 0 0 0 0 0 0 0 0 0 0 0 0 0 0 0 0 0 0 0 0 0 0 0 0 0 0 0 0 0 0 0 0 0 0 0 0 0 0 0 0 0 0 0 0 0 0 0 0 0 0 0 0 0 0 0 0 0 0 0 0 0 0 0 0 0 0 0 0 0 0 0 0 0 0 0 0 0 0 0 0 0 0 0 0 0 0 0 0 0 0 0 0 0 0 0 0 0 0 0 0 0 0 0 0 0 0 0 0 0 0 0 0 0 0 0 0 0 0 0 0 0 0 0 0 0 0 0 0 0 0 0 0 0 0 0 0 0 0 0 0 0 0 0 0 0 0 0 0 0 0 0 0 0 0 0 0 0 0 0 0 0 0 0 0 0 0 0 0 0 0 0 0 0 0 0 0 0 0 0 0 0 0 0 0 0 0 0 0 0 0 0 0 0 0 0 0 0 0 0 0 0 0 0 0 0 0 0 0 0 0 0 0 0 0 0 0 0 0 0 0 0 0 0 0 0 0 0 0 0 0 0 0 0 0 0 0 0 0 0 0 0 0 0 0 0 0 0 0 0 0 0 0 0 0 0 0 0 0 0 0 0 0 0 0 0 0 0 0 0 0 0 0 0 0 0 0 0 0 0 0 0 0 0 0 0 0 0 0 0 0 0 0 0 0 0 0 0 0 0 0 0 0 0 0 0 0 0 0 0 0 0 0 0 0 0 0 0 0 0 0 0 0 0 0 0 0 0 0 0 0 0 0 0 0 0 0 0 0 0 0 0 0 0 0 0 0 0 0 0 0 0 0 0 0 0 0 0 0 0 0 0 0 0 0 0 0 0 0 0 0 0 0 0 0 0 0 0 0 0 0 0 0 0 0 0 0 0 0 0 0 0 0 0 0 0 0 0 0 0 0 0 0 0 0 0 0 0 0 0 0 0 0 0 0 0 0 0 0 0 0 0 0 0 0 0 0 0 0 0 0 0 0 0 0 0 0 0 0 0 0 0 0 0 0 0 0 0 0 0 0 0 0 0 0 0 0 0 0 0 0 0 0 0 0 0 0 0 0 0 0 0 0 0 0 0 0 0 0 0 0 0 0 0 0 0 0 0 0 0 0 0 0 0 0 0 0 0 0 0 0 0 0 0 0 0 0 0 0 0 0 0 0 0 0 0 0 0 0 0 0 0 0 0 0 0 0 0 0 0 0 0 0 0 0 0 0 0 0 0 0 0 0 0 0 0 0 0 0 0 0 0 0 0 0 0 0 0 0 0 0 0 0 0 0 0 0 0 0 0 0 0 0 0 0 0 0 0 0 0 0 0 0 0 0 0 0 0 0 0 0 0 0 0 0 0 0 0 0 0 0 0 0 0 0 0 0 0 0 0 0 0 0 0 0 0 0 0 0 0 0 0 0 0 0 0 0 0 0 0 0 0 0 0 0 0 0 0 0 0 0 0 0 0 0 0 0 0 0 0 0 0 0 0 0 0 0 0 0 0 0 0 0 0 0 0 0 0 0 0 0 0 0 0 0 0 0 0 0 0 0 0 0 0 0 0 0 0 0 0 0 0 0 0 0 0 0 0 0 0 0 0 0 0 0 0 0 0 0 0 0 0 0 0 0 0 0 0 0 0 0 0 0 0 0 0 0 0 0 0 0 0 0 0 0 0 0 0 0 0 0 0 0 0 0 0 0 0 0 0 0 0 0 0 0 0 0 0 0 0 0 0 0 0 0 0 0 0 0 0 0 0 0 0 0 0 0 0 0 0 0 0 0 0 0 0 0 0 0 0 0 0 0 0 0 0 0 0 0 0 0 0 0 0 0 0 0 0 0 0 0 0 0 0 0 0 0 0 0 0 0 0 0 0 0 0 0 0 0 0 0 0 0 0 0 0 0 0 0 0 0 0 0 0 0 0 0 0 0 0 0 0 0 0 0 0 0 0 0 0 0 0 0 0 0 0 0 0 0 0 0 0 0 0 0 0 0 0 0 0 0 0 0 0 0 0 0 0 0 0 0 0 0 0 0 0 0 0 0 0 0 0 0 0 0 0 0 0 0 0 0 0 0 0 0 0 0 0 0 0 0 0 0 0 0 0 0 0 0 0 0 0 0 0 0 0 0 0 0 0 0 0 0 0 0 0 0 0 0 0 0 0 0 0 0 0 0 0 0 0 0 0 0 0 0 0 0 0 0 0 0 0 0 0 0 0 0 0 0 0 0 0 0 0 0 0 0 0 0 0 0 0 0 0 0 0 0 0 0 0 0 0 0 0 0 0 0 0 0 0 0 0 0 0 0 0 0 0 0 0 0 0 0 0 0 0 0 0 0 0 0 0 0 0 0 0 0 0 0 0 0 0 0 0 0 0 0 0 0 0 0 0 0 0 0 0 0 0 0 0 0 0 0 0 0 0 0 0 0 0 0 0 0 0 0 0 0 0 0 0 0 0 0 0 0 0 0 0 0 0 0 0 0 0 0 0 0 0 0 0 0 0 0 0 0 0 0 0 0 0 0 0 0 0 0 0 0 0 0 0 0 0 0 0 0 0 0 0 0 0 0 0 0 0 0 0 0 0 0 0 0 0 0 0 0 0 0 0 0 0 0 0 0 0 0 0 0 0 0 0 0 0 0 0 0 0 0 0 0 0 0 0 0 0 0 0 0 0 0 0 0 0 0 0 0 0 0 0 0 0 0 0 0 0 0 0 0 0 0 0 0 0 0 0 0 0 0 0 0 0 0 0 0 0 0 0 0 0 0 0 0 0 0 0 0 0 0 0 0 0 0 0 0 0 0 0 0 0 0 0 0 0 0 0 0 0 0 0 0 0 0 0 0 0 0 0 0 0 0 0 0 0 0 0 0 0 0 0 0 0 0 0 0 0 0 0 0 0 0 0 0 0 0 0 0 0 0 0 0 0 0 0 0 0 0 0 0 0 0 0 0 0 0 0 0 0 0 0 0 0 0 0 0 0 0 0 0 0 0 0 0 0 0 0 0 0 0 0 0 0 0 0 0 0 0 0 0 0 0 0 0 0 0 0 0 0 0 0 0 0 0 0 0 0 0 0 0 0 0 0 0 0 0 0 0 0 0 0 0 0 0 0 0 0 0 0 0 0 0 0 0 0 0 0 0 0 0 0 0 0 0 0 0 0 0 0 0 0 0 0 0 0 0 0 0 0 0 0 0 0 0 0 0 0 0 0 0 0 0 0 0 0 0 0 0 0 0 0 0 0 0 0 0 0 0 0 0 0 0 0 0 0 0 0 0 0 0 0 0 0 0 0 0 0 0 0 0 0 0 0 0 0 0 0 0 0 0 0 0 0 0 0 0 0 0 0 0 0 0 0 0 0 0 0 0 0 0 0 0 0 0 0 0 0 0 0 0 0 0 0 0 0 0 0 0 0 0 0 0 0 0 0 0 0 0 0 0 0 0 0 0 0 0 0 0 0 0 0 0 0 0 0 0 0 0 0 0 0 0 0 0 0 0 0 0 0 0 0 0 0 0 0 0 0 0 0 0 0 0 0 0 0 0 0 0 0 0 0 0 0 0 0 0 0 0 0 0 0 0 0 0 0 0 0 0 0 0 0 0 0 0 0 0 0 0 0 0 0 0 0 0 0 0 0 0 0 0 0 0 0 0 0 0 0 0 0 0 0 0 0 0 0 0 0 0 0 0 0 0 0 0 0 0 0 0 0 0 0 0 0 0 0 0 0 0 0 0 0 0 0 0 0 0 0 0 0 0 0 0 0 0 0 0 0 0 0 0 0 0 0 0 0 0 0 0 0 0 0 0 0 0 0 0 0 0 0 0 0 0 0 0 0 0 0 0 0 0 0</float_array>
          <technique_common>
            <accessor source="#Cubo_002-mesh-map-1-array" count="2232" stride="2">
              <param name="S" type="float"/>
              <param name="T" type="float"/>
            </accessor>
          </technique_common>
        </source>
        <vertices id="Cubo_002-mesh-vertices">
          <input semantic="POSITION" source="#Cubo_002-mesh-positions"/>
        </vertices>
        <triangles material="Kush_Bireme_001-material" count="744">
          <input semantic="VERTEX" source="#Cubo_002-mesh-vertices" offset="0"/>
          <input semantic="NORMAL" source="#Cubo_002-mesh-normals" offset="1"/>
          <input semantic="TEXCOORD" source="#Cubo_002-mesh-map-0" offset="2" set="0"/>
          <input semantic="TEXCOORD" source="#Cubo_002-mesh-map-1" offset="2" set="1"/>
          <p>7 0 0 20 1 1 19 0 2 21 2 3 6 3 4 8 4 5 17 5 6 14 5 7 18 5 8 9 0 9 0 0 10 4 0 11 7 0 12 2 0 13 0 0 14 3 6 15 19 7 16 8 8 17 21 2 18 15 9 19 17 10 20 13 11 21 12 11 22 14 11 23 21 12 24 18 13 25 20 14 26 20 1 27 16 15 28 19 0 29 18 16 30 12 0 31 16 15 32 16 17 33 11 17 34 15 17 35 6 3 36 3 3 37 8 4 38 23 5 39 20 5 40 22 5 41 19 7 42 15 18 43 8 8 44 15 9 45 13 3 46 17 10 47 10 3 48 1 3 49 6 3 50 10 3 51 21 2 52 23 3 53 9 0 54 20 1 55 7 0 56 25 0 57 37 19 58 38 20 59 39 21 60 26 3 61 24 3 62 32 17 63 35 17 64 36 17 65 0 0 66 27 0 67 4 0 68 2 0 69 25 0 70 0 0 71 37 22 72 3 23 73 26 24 74 39 21 75 33 25 76 26 3 77 31 11 78 30 11 79 29 11 80 36 26 81 39 27 82 38 28 83 34 29 84 38 20 85 37 19 86 30 0 87 36 30 88 34 29 89 29 5 90 34 5 91 33 5 92 24 3 93 3 3 94 1 3 95 38 17 96 41 17 97 40 17 98 33 31 99 37 22 100 26 24 101 31 3 102 33 25 103 35 32 104 28 3 105 1 3 106 5 3 107 39 21 108 28 3 109 41 3 110 27 0 111 38 20 112 40 0 113 17 5 114 13 5 115 14 5 116 9 0 117 7 0 118 0 0 119 7 0 120 19 0 121 2 0 122 3 6 123 2 33 124 19 7 125 21 2 126 8 4 127 15 9 128 13 11 129 11 11 130 12 11 131 21 12 132 17 34 133 18 13 134 20 1 135 18 16 136 16 15 137 18 16 138 14 0 139 12 0 140 16 17 141 12 17 142 11 17 143 6 3 144 1 3 145 3 3 146 23 5 147 21 5 148 20 5 149 19 7 150 16 35 151 15 18 152 15 9 153 11 3 154 13 3 155 10 3 156 5 3 157 1 3 158 10 3 159 6 3 160 21 2 161 9 0 162 22 0 163 20 1 164 32 17 165 31 17 166 35 17 167 0 0 168 25 0 169 27 0 170 2 0 171 37 19 172 25 0 173 37 22 174 2 36 175 3 23 176 39 21 177 35 32 178 33 25 179 31 11 180 32 11 181 30 11 182 36 26 183 35 37 184 39 27 185 34 29 186 36 30 187 38 20 188 30 0 189 32 0 190 36 30 191 29 5 192 30 5 193 34 5 194 24 3 195 26 3 196 3 3 197 38 17 198 39 17 199 41 17 200 33 31 201 34 38 202 37 22 203 31 3 204 29 3 205 33 25 206 28 3 207 24 3 208 1 3 209 39 21 210 24 3 211 28 3 212 27 0 213 25 0 214 38 20 215 49 0 216 62 39 217 61 0 218 63 21 219 48 3 220 50 3 221 59 5 222 56 5 223 60 5 224 51 0 225 42 0 226 46 0 227 49 0 228 44 0 229 42 0 230 45 40 231 61 41 232 50 42 233 63 21 234 57 25 235 59 32 236 55 11 237 54 11 238 56 11 239 63 12 240 60 13 241 62 14 242 62 39 243 58 43 244 61 0 245 60 44 246 54 0 247 58 43 248 58 17 249 53 17 250 57 17 251 48 3 252 45 3 253 50 3 254 65 5 255 62 5 256 64 5 257 61 41 258 57 45 259 50 42 260 57 25 261 55 3 262 59 32 263 52 3 264 43 3 265 48 3 266 52 3 267 63 21 268 65 3 269 51 0 270 62 39 271 49 0 272 67 0 273 79 0 274 80 0 275 81 2 276 68 4 277 66 3 278 74 17 279 77 17 280 78 17 281 42 0 282 69 0 283 46 0 284 44 0 285 67 0 286 42 0 287 79 46 288 45 47 289 68 48 290 81 2 291 75 9 292 68 4 293 73 11 294 72 11 295 71 11 296 78 26 297 81 27 298 80 28 299 76 0 300 80 0 301 79 0 302 72 0 303 78 0 304 76 0 305 71 5 306 76 5 307 75 5 308 66 3 309 45 3 310 43 3 311 80 17 312 83 17 313 82 17 314 75 49 315 79 46 316 68 48 317 73 3 318 75 9 319 77 10 320 70 3 321 43 3 322 47 3 323 81 2 324 70 3 325 83 3 326 69 0 327 80 0 328 82 0 329 59 5 330 55 5 331 56 5 332 51 0 333 49 0 334 42 0 335 49 0 336 61 0 337 44 0 338 45 40 339 44 50 340 61 41 341 63 21 342 50 3 343 57 25 344 55 11 345 53 11 346 54 11 347 63 12 348 59 34 349 60 13 350 62 39 351 60 44 352 58 43 353 60 44 354 56 0 355 54 0 356 58 17 357 54 17 358 53 17 359 48 3 360 43 3 361 45 3 362 65 5 363 63 5 364 62 5 365 61 41 366 58 51 367 57 45 368 57 25 369 53 3 370 55 3 371 52 3 372 47 3 373 43 3 374 52 3 375 48 3 376 63 21 377 51 0 378 64 0 379 62 39 380 74 17 381 73 17 382 77 17 383 42 0 384 67 0 385 69 0 386 44 0 387 79 0 388 67 0 389 79 46 390 44 52 391 45 47 392 81 2 393 77 10 394 75 9 395 73 11 396 74 11 397 72 11 398 78 26 399 77 37 400 81 27 401 76 0 402 78 0 403 80 0 404 72 0 405 74 0 406 78 0 407 71 5 408 72 5 409 76 5 410 66 3 411 68 4 412 45 3 413 80 17 414 81 17 415 83 17 416 75 49 417 76 53 418 79 46 419 73 3 420 71 3 421 75 9 422 70 3 423 66 3 424 43 3 425 81 2 426 66 3 427 70 3 428 69 0 429 67 0 430 80 0 431 91 0 432 104 54 433 103 55 434 105 56 435 90 3 436 92 3 437 101 5 438 98 5 439 102 5 440 93 0 441 84 0 442 88 0 443 91 0 444 86 0 445 84 0 446 87 57 447 103 58 448 92 59 449 105 56 450 99 60 451 101 61 452 97 11 453 96 11 454 98 11 455 105 62 456 102 62 457 104 63 458 104 54 459 100 64 460 103 55 461 102 65 462 96 0 463 100 64 464 100 17 465 95 17 466 99 17 467 90 3 468 87 3 469 92 3 470 107 5 471 104 5 472 106 5 473 103 58 474 99 66 475 92 59 476 99 60 477 97 3 478 101 61 479 94 3 480 85 3 481 90 3 482 94 3 483 105 56 484 107 3 485 93 0 486 104 54 487 91 0 488 109 0 489 121 67 490 122 68 491 123 69 492 110 70 493 108 3 494 116 17 495 119 17 496 120 17 497 84 0 498 111 0 499 88 0 500 86 0 501 109 0 502 84 0 503 121 71 504 87 23 505 110 72 506 123 69 507 117 73 508 110 70 509 115 11 510 114 11 511 113 11 512 120 74 513 123 74 514 122 75 515 118 76 516 122 68 517 121 67 518 114 0 519 120 77 520 118 76 521 113 5 522 118 5 523 117 5 524 108 3 525 87 3 526 85 3 527 122 17 528 125 17 529 124 17 530 117 78 531 121 71 532 110 72 533 115 3 534 117 73 535 119 79 536 112 3 537 85 3 538 89 3 539 123 69 540 112 3 541 125 3 542 111 0 543 122 68 544 124 0 545 101 5 546 97 5 547 98 5 548 93 0 549 91 0 550 84 0 551 91 0 552 103 55 553 86 0 554 87 57 555 86 80 556 103 58 557 105 56 558 92 3 559 99 60 560 97 11 561 95 11 562 96 11 563 105 62 564 101 63 565 102 62 566 104 54 567 102 65 568 100 64 569 102 65 570 98 0 571 96 0 572 100 17 573 96 17 574 95 17 575 90 3 576 85 3 577 87 3 578 107 5 579 105 5 580 104 5 581 103 58 582 100 81 583 99 66 584 99 60 585 95 3 586 97 3 587 94 3 588 89 3 589 85 3 590 94 3 591 90 3 592 105 56 593 93 0 594 106 0 595 104 54 596 116 17 597 115 17 598 119 17 599 84 0 600 109 0 601 111 0 602 86 0 603 121 67 604 109 0 605 121 71 606 86 36 607 87 23 608 123 69 609 119 79 610 117 73 611 115 11 612 116 11 613 114 11 614 120 74 615 119 75 616 123 74 617 118 76 618 120 77 619 122 68 620 114 0 621 116 0 622 120 77 623 113 5 624 114 5 625 118 5 626 108 3 627 110 70 628 87 3 629 122 17 630 123 17 631 125 17 632 117 78 633 118 82 634 121 71 635 115 3 636 113 3 637 117 73 638 112 3 639 108 3 640 85 3 641 123 69 642 108 3 643 112 3 644 111 0 645 109 0 646 122 68 647 133 0 648 146 68 649 145 67 650 147 83 651 132 3 652 134 70 653 143 5 654 140 5 655 144 5 656 135 0 657 126 0 658 130 0 659 133 0 660 128 0 661 126 0 662 129 40 663 145 84 664 134 85 665 147 83 666 141 73 667 143 79 668 139 11 669 138 11 670 140 11 671 147 62 672 144 62 673 146 63 674 146 68 675 142 86 676 145 67 677 144 77 678 138 0 679 142 86 680 142 17 681 137 17 682 141 17 683 132 3 684 129 3 685 134 70 686 149 5 687 146 5 688 148 5 689 145 84 690 141 87 691 134 85 692 141 73 693 139 3 694 143 79 695 136 3 696 127 3 697 132 3 698 136 3 699 147 83 700 149 3 701 135 0 702 146 68 703 133 0 704 151 0 705 163 55 706 164 88 707 165 56 708 152 3 709 150 3 710 158 17 711 161 17 712 162 17 713 126 0 714 153 0 715 130 0 716 128 0 717 151 0 718 126 0 719 163 89 720 129 90 721 152 91 722 165 56 723 159 92 724 152 3 725 157 11 726 156 11 727 155 11 728 162 74 729 165 74 730 164 75 731 160 93 732 164 88 733 163 55 734 156 0 735 162 94 736 160 93 737 155 5 738 160 5 739 159 5 740 150 3 741 129 3 742 127 3 743 164 17 744 167 17 745 166 17 746 159 95 747 163 89 748 152 91 749 157 3 750 159 92 751 161 61 752 154 3 753 127 3 754 131 3 755 165 56 756 154 3 757 167 3 758 153 0 759 164 88 760 166 0 761 143 5 762 139 5 763 140 5 764 135 0 765 133 0 766 126 0 767 133 0 768 145 67 769 128 0 770 129 40 771 128 50 772 145 84 773 147 83 774 134 70 775 141 73 776 139 11 777 137 11 778 138 11 779 147 62 780 143 63 781 144 62 782 146 68 783 144 77 784 142 86 785 144 77 786 140 0 787 138 0 788 142 17 789 138 17 790 137 17 791 132 3 792 127 3 793 129 3 794 149 5 795 147 5 796 146 5 797 145 84 798 142 96 799 141 87 800 141 73 801 137 3 802 139 3 803 136 3 804 131 3 805 127 3 806 136 3 807 132 3 808 147 83 809 135 0 810 148 0 811 146 68 812 158 17 813 157 17 814 161 17 815 126 0 816 151 0 817 153 0 818 128 0 819 163 55 820 151 0 821 163 89 822 128 97 823 129 90 824 165 56 825 161 61 826 159 92 827 157 11 828 158 11 829 156 11 830 162 74 831 161 75 832 165 74 833 160 93 834 162 94 835 164 88 836 156 0 837 158 0 838 162 94 839 155 5 840 156 5 841 160 5 842 150 3 843 152 3 844 129 3 845 164 17 846 165 17 847 167 17 848 159 95 849 160 98 850 163 89 851 157 3 852 155 3 853 159 92 854 154 3 855 150 3 856 127 3 857 165 56 858 150 3 859 154 3 860 153 0 861 151 0 862 164 88 863 175 0 864 188 99 865 187 100 866 189 56 867 174 3 868 176 3 869 185 5 870 182 5 871 186 5 872 177 0 873 168 0 874 172 0 875 175 0 876 170 0 877 168 0 878 171 101 879 187 102 880 176 103 881 189 56 882 183 60 883 185 61 884 181 11 885 180 11 886 182 11 887 189 104 888 186 34 889 188 63 890 188 99 891 184 105 892 187 100 893 186 106 894 180 0 895 184 105 896 184 17 897 179 17 898 183 17 899 174 3 900 171 3 901 176 3 902 191 5 903 188 5 904 190 5 905 187 102 906 183 107 907 176 103 908 183 60 909 181 3 910 185 61 911 178 3 912 169 3 913 174 3 914 178 3 915 189 56 916 191 3 917 177 0 918 188 99 919 175 0 920 193 0 921 205 0 922 206 0 923 207 108 924 194 3 925 192 3 926 200 17 927 203 17 928 204 17 929 168 0 930 195 0 931 172 0 932 170 0 933 193 0 934 168 0 935 205 109 936 171 110 937 194 111 938 207 108 939 201 112 940 194 3 941 199 11 942 198 11 943 197 11 944 204 37 945 207 113 946 206 75 947 202 0 948 206 0 949 205 0 950 198 0 951 204 0 952 202 0 953 197 5 954 202 5 955 201 5 956 192 3 957 171 3 958 169 3 959 206 17 960 209 17 961 208 17 962 201 114 963 205 109 964 194 111 965 199 3 966 201 112 967 203 115 968 196 3 969 169 3 970 173 3 971 207 108 972 196 3 973 209 3 974 195 0 975 206 0 976 208 0 977 185 5 978 181 5 979 182 5 980 177 0 981 175 0 982 168 0 983 175 0 984 187 100 985 170 0 986 171 101 987 170 116 988 187 102 989 189 56 990 176 3 991 183 60 992 181 11 993 179 11 994 180 11 995 189 104 996 185 117 997 186 34 998 188 99 999 186 106 1000 184 105 1001 186 106 1002 182 0 1003 180 0 1004 184 17 1005 180 17 1006 179 17 1007 174 3 1008 169 3 1009 171 3 1010 191 5 1011 189 5 1012 188 5 1013 187 102 1014 184 118 1015 183 107 1016 183 60 1017 179 3 1018 181 3 1019 178 3 1020 173 3 1021 169 3 1022 178 3 1023 174 3 1024 189 56 1025 177 0 1026 190 0 1027 188 99 1028 200 17 1029 199 17 1030 203 17 1031 168 0 1032 193 0 1033 195 0 1034 170 0 1035 205 0 1036 193 0 1037 205 109 1038 170 36 1039 171 110 1040 207 108 1041 203 115 1042 201 112 1043 199 11 1044 200 11 1045 198 11 1046 204 37 1047 203 119 1048 207 113 1049 202 0 1050 204 0 1051 206 0 1052 198 0 1053 200 0 1054 204 0 1055 197 5 1056 198 5 1057 202 5 1058 192 3 1059 194 3 1060 171 3 1061 206 17 1062 207 17 1063 209 17 1064 201 114 1065 202 120 1066 205 109 1067 199 3 1068 197 3 1069 201 112 1070 196 3 1071 192 3 1072 169 3 1073 207 108 1074 192 3 1075 196 3 1076 195 0 1077 193 0 1078 206 0 1079 217 0 1080 230 0 1081 229 0 1082 231 108 1083 216 3 1084 218 3 1085 227 5 1086 224 5 1087 228 5 1088 219 0 1089 210 0 1090 214 0 1091 217 0 1092 212 0 1093 210 0 1094 213 121 1095 229 122 1096 218 123 1097 231 108 1098 225 112 1099 227 115 1100 223 11 1101 222 11 1102 224 11 1103 231 104 1104 228 34 1105 230 63 1106 230 0 1107 226 0 1108 229 0 1109 228 0 1110 222 0 1111 226 0 1112 226 17 1113 221 17 1114 225 17 1115 216 3 1116 213 3 1117 218 3 1118 233 5 1119 230 5 1120 232 5 1121 229 122 1122 225 124 1123 218 123 1124 225 112 1125 223 3 1126 227 115 1127 220 3 1128 211 3 1129 216 3 1130 220 3 1131 231 108 1132 233 3 1133 219 0 1134 230 0 1135 217 0 1136 235 0 1137 247 125 1138 248 126 1139 249 56 1140 236 3 1141 234 3 1142 242 17 1143 245 17 1144 246 17 1145 210 0 1146 237 0 1147 214 0 1148 212 0 1149 235 0 1150 210 0 1151 247 127 1152 213 128 1153 236 129 1154 249 56 1155 243 92 1156 236 3 1157 241 11 1158 240 11 1159 239 11 1160 246 37 1161 249 113 1162 248 75 1163 244 130 1164 248 126 1165 247 125 1166 240 0 1167 246 106 1168 244 130 1169 239 5 1170 244 5 1171 243 5 1172 234 3 1173 213 3 1174 211 3 1175 248 17 1176 251 17 1177 250 17 1178 243 131 1179 247 127 1180 236 129 1181 241 3 1182 243 92 1183 245 61 1184 238 3 1185 211 3 1186 215 3 1187 249 56 1188 238 3 1189 251 3 1190 237 0 1191 248 126 1192 250 0 1193 227 5 1194 223 5 1195 224 5 1196 219 0 1197 217 0 1198 210 0 1199 217 0 1200 229 0 1201 212 0 1202 213 121 1203 212 50 1204 229 122 1205 231 108 1206 218 3 1207 225 112 1208 223 11 1209 221 11 1210 222 11 1211 231 104 1212 227 117 1213 228 34 1214 230 0 1215 228 0 1216 226 0 1217 228 0 1218 224 0 1219 222 0 1220 226 17 1221 222 17 1222 221 17 1223 216 3 1224 211 3 1225 213 3 1226 233 5 1227 231 5 1228 230 5 1229 229 122 1230 226 132 1231 225 124 1232 225 112 1233 221 3 1234 223 3 1235 220 3 1236 215 3 1237 211 3 1238 220 3 1239 216 3 1240 231 108 1241 219 0 1242 232 0 1243 230 0 1244 242 17 1245 241 17 1246 245 17 1247 210 0 1248 235 0 1249 237 0 1250 212 0 1251 247 125 1252 235 0 1253 247 127 1254 212 133 1255 213 128 1256 249 56 1257 245 61 1258 243 92 1259 241 11 1260 242 11 1261 240 11 1262 246 37 1263 245 119 1264 249 113 1265 244 130 1266 246 106 1267 248 126 1268 240 0 1269 242 0 1270 246 106 1271 239 5 1272 240 5 1273 244 5 1274 234 3 1275 236 3 1276 213 3 1277 248 17 1278 249 17 1279 251 17 1280 243 131 1281 244 134 1282 247 127 1283 241 3 1284 239 3 1285 243 92 1286 238 3 1287 234 3 1288 211 3 1289 249 56 1290 234 3 1291 238 3 1292 237 0 1293 235 0 1294 248 126 1295 259 0 1296 272 1 1297 271 0 1298 273 135 1299 258 3 1300 260 136 1301 269 5 1302 266 5 1303 270 5 1304 261 0 1305 252 0 1306 256 0 1307 259 0 1308 254 0 1309 252 0 1310 255 137 1311 271 138 1312 260 139 1313 273 135 1314 267 140 1315 269 10 1316 265 11 1317 264 11 1318 266 11 1319 273 12 1320 270 13 1321 272 14 1322 272 1 1323 268 15 1324 271 0 1325 270 16 1326 264 0 1327 268 15 1328 268 17 1329 263 17 1330 267 17 1331 258 3 1332 255 3 1333 260 136 1334 275 5 1335 272 5 1336 274 5 1337 271 138 1338 267 141 1339 260 139 1340 267 140 1341 265 3 1342 269 10 1343 262 3 1344 253 3 1345 258 3 1346 262 3 1347 273 135 1348 275 3 1349 261 0 1350 272 1 1351 259 0 1352 277 0 1353 289 0 1354 290 0 1355 291 21 1356 278 3 1357 276 3 1358 284 17 1359 287 17 1360 288 17 1361 252 0 1362 279 0 1363 256 0 1364 254 0 1365 277 0 1366 252 0 1367 289 22 1368 255 23 1369 278 24 1370 291 21 1371 285 25 1372 278 3 1373 283 11 1374 282 11 1375 281 11 1376 288 26 1377 291 27 1378 290 28 1379 286 0 1380 290 0 1381 289 0 1382 282 0 1383 288 0 1384 286 0 1385 281 5 1386 286 5 1387 285 5 1388 276 3 1389 255 3 1390 253 3 1391 290 17 1392 293 17 1393 292 17 1394 285 31 1395 289 22 1396 278 24 1397 283 3 1398 285 25 1399 287 32 1400 280 3 1401 253 3 1402 257 3 1403 291 21 1404 280 3 1405 293 3 1406 279 0 1407 290 0 1408 292 0 1409 269 5 1410 265 5 1411 266 5 1412 261 0 1413 259 0 1414 252 0 1415 259 0 1416 271 0 1417 254 0 1418 255 137 1419 254 80 1420 271 138 1421 273 135 1422 260 136 1423 267 140 1424 265 11 1425 263 11 1426 264 11 1427 273 12 1428 269 34 1429 270 13 1430 272 1 1431 270 16 1432 268 15 1433 270 16 1434 266 0 1435 264 0 1436 268 17 1437 264 17 1438 263 17 1439 258 3 1440 253 3 1441 255 3 1442 275 5 1443 273 5 1444 272 5 1445 271 138 1446 268 142 1447 267 141 1448 267 140 1449 263 3 1450 265 3 1451 262 3 1452 257 3 1453 253 3 1454 262 3 1455 258 3 1456 273 135 1457 261 0 1458 274 0 1459 272 1 1460 284 17 1461 283 17 1462 287 17 1463 252 0 1464 277 0 1465 279 0 1466 254 0 1467 289 0 1468 277 0 1469 289 22 1470 254 36 1471 255 23 1472 291 21 1473 287 32 1474 285 25 1475 283 11 1476 284 11 1477 282 11 1478 288 26 1479 287 37 1480 291 27 1481 286 0 1482 288 0 1483 290 0 1484 282 0 1485 284 0 1486 288 0 1487 281 5 1488 282 5 1489 286 5 1490 276 3 1491 278 3 1492 255 3 1493 290 17 1494 291 17 1495 293 17 1496 285 31 1497 286 38 1498 289 22 1499 283 3 1500 281 3 1501 285 25 1502 280 3 1503 276 3 1504 253 3 1505 291 21 1506 276 3 1507 280 3 1508 279 0 1509 277 0 1510 290 0 1511 301 0 1512 314 39 1513 313 0 1514 315 21 1515 300 3 1516 302 3 1517 311 5 1518 308 5 1519 312 5 1520 303 0 1521 294 0 1522 298 0 1523 301 0 1524 296 0 1525 294 0 1526 297 40 1527 313 41 1528 302 42 1529 315 21 1530 309 25 1531 311 32 1532 307 11 1533 306 11 1534 308 11 1535 315 12 1536 312 13 1537 314 14 1538 314 39 1539 310 43 1540 313 0 1541 312 44 1542 306 0 1543 310 43 1544 310 17 1545 305 17 1546 309 17 1547 300 3 1548 297 3 1549 302 3 1550 317 5 1551 314 5 1552 316 5 1553 313 41 1554 309 45 1555 302 42 1556 309 25 1557 307 3 1558 311 32 1559 304 3 1560 295 3 1561 300 3 1562 304 3 1563 315 21 1564 317 3 1565 303 0 1566 314 39 1567 301 0 1568 319 0 1569 331 100 1570 332 143 1571 333 135 1572 320 136 1573 318 3 1574 326 17 1575 329 17 1576 330 17 1577 294 0 1578 321 0 1579 298 0 1580 296 0 1581 319 0 1582 294 0 1583 331 144 1584 297 145 1585 320 146 1586 333 135 1587 327 147 1588 320 136 1589 325 11 1590 324 11 1591 323 11 1592 330 26 1593 333 27 1594 332 28 1595 328 148 1596 332 143 1597 331 100 1598 324 0 1599 330 149 1600 328 148 1601 323 5 1602 328 5 1603 327 5 1604 318 3 1605 297 3 1606 295 3 1607 332 17 1608 335 17 1609 334 17 1610 327 150 1611 331 144 1612 320 146 1613 325 3 1614 327 147 1615 329 10 1616 322 3 1617 295 3 1618 299 3 1619 333 135 1620 322 3 1621 335 3 1622 321 0 1623 332 143 1624 334 0 1625 311 5 1626 307 5 1627 308 5 1628 303 0 1629 301 0 1630 294 0 1631 301 0 1632 313 0 1633 296 0 1634 297 40 1635 296 50 1636 313 41 1637 315 21 1638 302 3 1639 309 25 1640 307 11 1641 305 11 1642 306 11 1643 315 12 1644 311 34 1645 312 13 1646 314 39 1647 312 44 1648 310 43 1649 312 44 1650 308 0 1651 306 0 1652 310 17 1653 306 17 1654 305 17 1655 300 3 1656 295 3 1657 297 3 1658 317 5 1659 315 5 1660 314 5 1661 313 41 1662 310 51 1663 309 45 1664 309 25 1665 305 3 1666 307 3 1667 304 3 1668 299 3 1669 295 3 1670 304 3 1671 300 3 1672 315 21 1673 303 0 1674 316 0 1675 314 39 1676 326 17 1677 325 17 1678 329 17 1679 294 0 1680 319 0 1681 321 0 1682 296 0 1683 331 100 1684 319 0 1685 331 144 1686 296 97 1687 297 145 1688 333 135 1689 329 10 1690 327 147 1691 325 11 1692 326 11 1693 324 11 1694 330 26 1695 329 37 1696 333 27 1697 328 148 1698 330 149 1699 332 143 1700 324 0 1701 326 0 1702 330 149 1703 323 5 1704 324 5 1705 328 5 1706 318 3 1707 320 136 1708 297 3 1709 332 17 1710 333 17 1711 335 17 1712 327 150 1713 328 151 1714 331 144 1715 325 3 1716 323 3 1717 327 147 1718 322 3 1719 318 3 1720 295 3 1721 333 135 1722 318 3 1723 322 3 1724 321 0 1725 319 0 1726 332 143 1727 351 0 1728 364 0 1729 363 0 1730 365 3 1731 350 3 1732 352 3 1733 361 5 1734 358 5 1735 362 5 1736 353 0 1737 344 0 1738 348 0 1739 351 0 1740 346 0 1741 344 0 1742 347 101 1743 363 152 1744 352 153 1745 365 3 1746 359 3 1747 361 3 1748 357 11 1749 356 11 1750 358 11 1751 365 154 1752 362 154 1753 364 155 1754 364 0 1755 360 0 1756 363 0 1757 362 0 1758 356 0 1759 360 0 1760 360 17 1761 355 17 1762 359 17 1763 350 3 1764 347 3 1765 352 3 1766 367 5 1767 364 5 1768 366 5 1769 363 152 1770 359 156 1771 352 153 1772 359 3 1773 357 3 1774 361 3 1775 354 3 1776 345 3 1777 350 3 1778 354 3 1779 365 3 1780 367 3 1781 353 0 1782 364 0 1783 351 0 1784 369 0 1785 381 0 1786 382 0 1787 383 157 1788 370 158 1789 368 3 1790 376 17 1791 379 17 1792 380 17 1793 344 0 1794 371 0 1795 348 0 1796 346 0 1797 369 0 1798 344 0 1799 381 159 1800 347 160 1801 370 161 1802 383 157 1803 377 162 1804 370 158 1805 375 11 1806 374 11 1807 373 11 1808 380 163 1809 383 163 1810 382 164 1811 378 0 1812 382 0 1813 381 0 1814 374 0 1815 380 0 1816 378 0 1817 373 5 1818 378 5 1819 377 5 1820 368 3 1821 347 3 1822 345 3 1823 382 17 1824 385 17 1825 384 17 1826 377 165 1827 381 159 1828 370 161 1829 375 3 1830 377 162 1831 379 3 1832 372 3 1833 345 3 1834 349 3 1835 383 157 1836 372 3 1837 385 3 1838 371 0 1839 382 0 1840 384 0 1841 361 5 1842 357 5 1843 358 5 1844 353 0 1845 351 0 1846 344 0 1847 351 0 1848 363 0 1849 346 0 1850 347 101 1851 346 166 1852 363 152 1853 365 3 1854 352 3 1855 359 3 1856 357 11 1857 355 11 1858 356 11 1859 365 154 1860 361 155 1861 362 154 1862 364 0 1863 362 0 1864 360 0 1865 362 0 1866 358 0 1867 356 0 1868 360 17 1869 356 17 1870 355 17 1871 350 3 1872 345 3 1873 347 3 1874 367 5 1875 365 5 1876 364 5 1877 363 152 1878 360 167 1879 359 156 1880 359 3 1881 355 3 1882 357 3 1883 354 3 1884 349 3 1885 345 3 1886 354 3 1887 350 3 1888 365 3 1889 353 0 1890 366 0 1891 364 0 1892 376 17 1893 375 17 1894 379 17 1895 344 0 1896 369 0 1897 371 0 1898 346 0 1899 381 0 1900 369 0 1901 381 159 1902 346 168 1903 347 160 1904 383 157 1905 379 3 1906 377 162 1907 375 11 1908 376 11 1909 374 11 1910 380 163 1911 379 164 1912 383 163 1913 378 0 1914 380 0 1915 382 0 1916 374 0 1917 376 0 1918 380 0 1919 373 5 1920 374 5 1921 378 5 1922 368 3 1923 370 158 1924 347 3 1925 382 17 1926 383 17 1927 385 17 1928 377 165 1929 378 169 1930 381 159 1931 375 3 1932 373 3 1933 377 162 1934 372 3 1935 368 3 1936 345 3 1937 383 157 1938 368 3 1939 372 3 1940 371 0 1941 369 0 1942 382 0 1943 393 0 1944 406 0 1945 405 0 1946 407 170 1947 392 3 1948 394 158 1949 403 5 1950 400 5 1951 404 5 1952 395 0 1953 386 0 1954 390 0 1955 393 0 1956 388 0 1957 386 0 1958 389 171 1959 405 122 1960 394 172 1961 407 170 1962 401 162 1963 403 3 1964 399 11 1965 398 11 1966 400 11 1967 407 154 1968 404 154 1969 406 155 1970 406 0 1971 402 0 1972 405 0 1973 404 0 1974 398 0 1975 402 0 1976 402 17 1977 397 17 1978 401 17 1979 392 3 1980 389 3 1981 394 158 1982 409 5 1983 406 5 1984 408 5 1985 405 122 1986 401 173 1987 394 172 1988 401 162 1989 399 3 1990 403 3 1991 396 3 1992 387 3 1993 392 3 1994 396 3 1995 407 170 1996 409 3 1997 395 0 1998 406 0 1999 393 0 2000 411 0 2001 423 174 2002 424 175 2003 425 3 2004 412 3 2005 410 3 2006 418 17 2007 421 17 2008 422 17 2009 386 0 2010 413 0 2011 390 0 2012 388 0 2013 411 0 2014 386 0 2015 423 176 2016 389 128 2017 412 177 2018 425 3 2019 419 3 2020 412 3 2021 417 11 2022 416 11 2023 415 11 2024 422 163 2025 425 163 2026 424 164 2027 420 178 2028 424 175 2029 423 174 2030 416 0 2031 422 0 2032 420 178 2033 415 5 2034 420 5 2035 419 5 2036 410 3 2037 389 3 2038 387 3 2039 424 17 2040 427 17 2041 426 17 2042 419 179 2043 423 176 2044 412 177 2045 417 3 2046 419 3 2047 421 3 2048 414 3 2049 387 3 2050 391 3 2051 425 3 2052 414 3 2053 427 3 2054 413 0 2055 424 175 2056 426 0 2057 403 5 2058 399 5 2059 400 5 2060 395 0 2061 393 0 2062 386 0 2063 393 0 2064 405 0 2065 388 0 2066 389 171 2067 388 180 2068 405 122 2069 407 170 2070 394 158 2071 401 162 2072 399 11 2073 397 11 2074 398 11 2075 407 154 2076 403 155 2077 404 154 2078 406 0 2079 404 0 2080 402 0 2081 404 0 2082 400 0 2083 398 0 2084 402 17 2085 398 17 2086 397 17 2087 392 3 2088 387 3 2089 389 3 2090 409 5 2091 407 5 2092 406 5 2093 405 122 2094 402 181 2095 401 173 2096 401 162 2097 397 3 2098 399 3 2099 396 3 2100 391 3 2101 387 3 2102 396 3 2103 392 3 2104 407 170 2105 395 0 2106 408 0 2107 406 0 2108 418 17 2109 417 17 2110 421 17 2111 386 0 2112 411 0 2113 413 0 2114 388 0 2115 423 174 2116 411 0 2117 423 176 2118 388 182 2119 389 128 2120 425 3 2121 421 3 2122 419 3 2123 417 11 2124 418 11 2125 416 11 2126 422 163 2127 421 164 2128 425 163 2129 420 178 2130 422 0 2131 424 175 2132 416 0 2133 418 0 2134 422 0 2135 415 5 2136 416 5 2137 420 5 2138 410 3 2139 412 3 2140 389 3 2141 424 17 2142 425 17 2143 427 17 2144 419 179 2145 420 183 2146 423 176 2147 417 3 2148 415 3 2149 419 3 2150 414 3 2151 410 3 2152 387 3 2153 425 3 2154 410 3 2155 414 3 2156 413 0 2157 411 0 2158 424 175 2159 432 184 2160 428 185 2161 429 186 2162 431 187 2163 430 188 2164 428 185 2165 434 189 2166 432 184 2167 435 190 2168 436 191 2169 431 187 2170 434 189 2171 432 184 2172 431 187 2173 428 185 2174 431 187 2175 433 192 2176 430 188 2177 434 189 2178 431 187 2179 432 184 2180 436 191 2181 433 192 2182 431 187 2183 339 193 2184 429 194 2185 337 195 2186 343 196 2187 434 197 2188 341 198 2189 338 199 2190 428 200 2191 430 201 2192 337 202 2193 428 200 2194 336 203 2195 339 193 2196 435 204 2197 432 205 2198 342 206 2199 434 197 2200 435 207 2201 340 208 2202 430 209 2203 433 210 2204 340 208 2205 436 211 2206 343 212 2207 339 193 2208 432 205 2209 429 194 2210 343 196 2211 436 213 2212 434 197 2213 338 199 2214 336 203 2215 428 200 2216 337 202 2217 429 214 2218 428 200 2219 339 193 2220 342 215 2221 435 204 2222 342 206 2223 341 198 2224 434 197 2225 340 208 2226 338 216 2227 430 209 2228 340 208 2229 433 210 2230 436 211 2231</p>
        </triangles>
      </mesh>
    </geometry>
  </library_geometries>
  <library_visual_scenes>
    <visual_scene id="Scene" name="Scene">
      <node id="minoan_ship_l_002" name="minoan_ship_l.002" type="NODE">
        <matrix sid="transform">1 0 0 0 0 1 0 0 0 0 1 0 0 0 0 1</matrix>
        <instance_geometry url="#Cubo_002-mesh" name="minoan_ship_l.002">
          <bind_material>
            <technique_common>
              <instance_material symbol="Kush_Bireme_001-material" target="#Kush_Bireme_001-material">
                <bind_vertex_input semantic="Cubo_001-mesh-map-0" input_semantic="TEXCOORD" input_set="0"/>
                <bind_vertex_input semantic="Cubo_001-mesh-map-1" input_semantic="TEXCOORD" input_set="1"/>
              </instance_material>
            </technique_common>
          </bind_material>
        </instance_geometry>
      </node>
    </visual_scene>
  </library_visual_scenes>
  <scene>
    <instance_visual_scene url="#Scene"/>
  </scene>
</COLLADA>