<?xml version="1.0" encoding="utf-8"?>
<COLLADA xmlns="http://www.collada.org/2005/11/COLLADASchema" version="1.4.1" xmlns:xsi="http://www.w3.org/2001/XMLSchema-instance">
  <asset>
    <contributor>
      <author>Blender User</author>
      <authoring_tool>Blender 4.3.1 commit date:2024-12-10, commit time:07:46, hash:33d812126174</authoring_tool>
    </contributor>
    <created>2026-04-08T08:59:44</created>
    <modified>2026-04-08T08:59:44</modified>
    <unit name="meter" meter="1"/>
    <up_axis>Z_UP</up_axis>
  </asset>
  <library_effects>
    <effect id="Material_002-effect">
      <profile_COMMON>
        <newparam sid="minoans_shield_a_png-surface">
          <surface type="2D">
            <init_from>minoans_shield_a_png</init_from>
          </surface>
        </newparam>
        <newparam sid="minoans_shield_a_png-sampler">
          <sampler2D>
            <source>minoans_shield_a_png-surface</source>
          </sampler2D>
        </newparam>
        <technique sid="common">
          <lambert>
            <emission>
              <color sid="emission">0 0 0 1</color>
            </emission>
            <diffuse>
              <texture texture="minoans_shield_a_png-sampler" texcoord="Cylinder_002-mesh-map-0"/>
            </diffuse>
            <index_of_refraction>
              <float sid="ior">1.5</float>
            </index_of_refraction>
          </lambert>
        </technique>
      </profile_COMMON>
    </effect>
  </library_effects>
  <library_images>
    <image id="minoans_shield_a_png" name="minoans_shield_a_png">
      <init_from>/home/welton/Downloads/minoans_shield_a.png</init_from>
    </image>
  </library_images>
  <library_materials>
    <material id="Material_002-material" name="Material.002">
      <instance_effect url="#Material_002-effect"/>
    </material>
  </library_materials>
  <library_geometries>
    <geometry id="Cylinder_003-mesh" name="Cylinder.003">
      <mesh>
        <source id="Cylinder_003-mesh-positions">
          <float_array id="Cylinder_003-mesh-positions-array" count="624">-4.849869 -13.85906 3.455245 -5.437654 -13.80682 3.638945 -5.800925 -13.67006 4.119878 -5.800925 -13.50101 4.714343 -5.391269 -13.3964 5.082227 -5.688284 -13.28256 5.482541 -5.495663 -13.10563 6.104707 -4.849869 -13.02231 6.397714 -4.849869 -13.55191 5.355659 -4.849869 -13.84423 4.444908 -4.262084 -13.80682 3.638945 -3.898812 -13.67006 4.119878 -3.898812 -13.50101 4.714343 -4.308469 -13.3964 5.082227 -4.011453 -13.28256 5.482541 -4.204075 -13.10563 6.104707 -4.849869 -13.85906 3.455245 -5.437654 -13.80682 3.638945 -5.800925 -13.67006 4.119878 -5.800925 -13.50101 4.714343 -5.391269 -13.3964 5.082227 -5.688284 -13.28256 5.482541 -5.495663 -13.10563 6.104707 -4.849869 -13.02231 6.397714 -4.262084 -13.80682 3.638945 -3.898812 -13.67006 4.119878 -3.898812 -13.50101 4.714343 -4.308469 -13.3964 5.082227 -4.011453 -13.28256 5.482541 -4.204075 -13.10563 6.104707 -4.849869 -13.78891 3.435297 -5.437654 -13.73668 3.618997 -5.800925 -13.59991 4.099929 -5.800925 -13.43086 4.694395 -5.391269 -13.32625 5.062278 -5.688284 -13.21241 5.462593 -5.495663 -13.03549 6.084759 -4.849869 -12.95216 6.377766 -4.262084 -13.73668 3.618997 -3.898812 -13.59991 4.099929 -3.898812 -13.43086 4.694395 -4.308469 -13.32625 5.062278 -4.011453 -13.21241 5.462593 -4.204075 -13.03549 6.084759 -4.849869 -9.703125 11.55592 -5.437654 -9.650886 11.73962 -5.800925 -9.514122 12.22055 -5.800925 -9.345074 12.81502 -5.391269 -9.240459 13.1829 -5.688284 -9.126622 13.58321 -5.495663 -8.949696 14.20538 -4.849869 -8.866373 14.49839 -4.849869 -9.395967 13.45633 -4.849869 -9.688294 12.54558 -4.262084 -9.650886 11.73962 -3.898812 -9.514122 12.22055 -3.898812 -9.345074 12.81502 -4.308469 -9.240459 13.1829 -4.011453 -9.126622 13.58321 -4.204075 -8.949696 14.20538 -4.849869 -9.703125 11.55592 -5.437654 -9.650886 11.73962 -5.800925 -9.514122 12.22055 -5.800925 -9.345074 12.81502 -5.391269 -9.240459 13.1829 -5.688284 -9.126622 13.58321 -5.495663 -8.949696 14.20538 -4.849869 -8.866373 14.49839 -4.262084 -9.650886 11.73962 -3.898812 -9.514122 12.22055 -3.898812 -9.345074 12.81502 -4.308469 -9.240459 13.1829 -4.011453 -9.126622 13.58321 -4.204075 -8.949696 14.20538 -4.849869 -9.632976 11.53597 -5.437654 -9.580737 11.71967 -5.800925 -9.443974 12.2006 -5.800925 -9.274926 12.79507 -5.391269 -9.17031 13.16295 -5.688284 -9.056472 13.56327 -5.495663 -8.879547 14.18543 -4.849869 -8.796223 14.47844 -4.262084 -9.580737 11.71967 -3.898812 -9.443974 12.2006 -3.898812 -9.274926 12.79507 -4.308469 -9.17031 13.16295 -4.011453 -9.056472 13.56327 -4.204075 -8.879547 14.18543 4.722571 -9.703125 11.55592 4.134786 -9.650886 11.73962 3.771515 -9.514122 12.22055 3.771515 -9.345074 12.81502 4.181171 -9.240459 13.1829 3.884156 -9.126622 13.58321 4.076777 -8.949696 14.20538 4.722571 -8.866373 14.49839 4.722571 -9.395967 13.45633 4.722571 -9.688294 12.54558 5.310357 -9.650886 11.73962 5.673628 -9.514122 12.22055 5.673628 -9.345074 12.81502 5.263971 -9.240459 13.1829 5.560987 -9.126622 13.58321 5.368365 -8.949696 14.20538 4.722571 -9.703125 11.55592 4.134786 -9.650886 11.73962 3.771515 -9.514122 12.22055 3.771515 -9.345074 12.81502 4.181171 -9.240459 13.1829 3.884156 -9.126622 13.58321 4.076777 -8.949696 14.20538 4.722571 -8.866373 14.49839 5.310357 -9.650886 11.73962 5.673628 -9.514122 12.22055 5.673628 -9.345074 12.81502 5.263971 -9.240459 13.1829 5.560987 -9.126622 13.58321 5.368365 -8.949696 14.20538 4.722571 -9.632976 11.53597 4.134786 -9.580737 11.71967 3.771515 -9.443974 12.2006 3.771515 -9.274926 12.79507 4.181171 -9.17031 13.16295 3.884156 -9.056472 13.56327 4.076777 -8.879547 14.18543 4.722571 -8.796223 14.47844 5.310357 -9.580737 11.71967 5.673628 -9.443974 12.2006 5.673628 -9.274926 12.79507 5.263971 -9.17031 13.16295 5.560987 -9.056472 13.56327 5.368365 -8.879547 14.18543 4.722571 -13.85906 3.455245 4.134786 -13.80682 3.638945 3.771515 -13.67006 4.119878 3.771515 -13.50101 4.714343 4.181171 -13.3964 5.082227 3.884156 -13.28256 5.482541 4.076777 -13.10563 6.104707 4.722571 -13.02231 6.397714 4.722571 -13.55191 5.355659 4.722571 -13.84423 4.444908 5.310357 -13.80682 3.638945 5.673628 -13.67006 4.119878 5.673628 -13.50101 4.714343 5.263971 -13.3964 5.082227 5.560987 -13.28256 5.482541 5.368365 -13.10563 6.104707 4.722571 -13.85906 3.455245 4.134786 -13.80682 3.638945 3.771515 -13.67006 4.119878 3.771515 -13.50101 4.714343 4.181171 -13.3964 5.082227 3.884156 -13.28256 5.482541 4.076777 -13.10563 6.104707 4.722571 -13.02231 6.397714 5.310357 -13.80682 3.638945 5.673628 -13.67006 4.119878 5.673628 -13.50101 4.714343 5.263971 -13.3964 5.082227 5.560987 -13.28256 5.482541 5.368365 -13.10563 6.104707 4.722571 -13.78891 3.435297 4.134786 -13.73668 3.618997 3.771515 -13.59991 4.099929 3.771515 -13.43086 4.694395 4.181171 -13.32625 5.062278 3.884156 -13.21241 5.462593 4.076777 -13.03549 6.084759 4.722571 -12.95216 6.377766 5.310357 -13.73668 3.618997 5.673628 -13.59991 4.099929 5.673628 -13.43086 4.694395 5.263971 -13.32625 5.062278 5.560987 -13.21241 5.462593 5.368365 -13.03549 6.084759 4.722571 3.378258 11.55592 4.134786 3.430496 11.73962 3.771515 3.56726 12.22055 3.771515 3.736308 12.81502 4.181171 3.840923 13.1829 3.884156 3.954761 13.58321 4.076777 4.131686 14.20538 4.722571 4.21501 14.49839 4.722571 3.685415 13.45633 4.722571 3.393088 12.54558 5.310357 3.430496 11.73962 5.673628 3.56726 12.22055 5.673628 3.736308 12.81502 5.263971 3.840923 13.1829 5.560987 3.954761 13.58321 5.368365 4.131686 14.20538 -1.263043 3.025027 11.55592 -0.6828933 2.917108 11.73962 -0.3342805 2.746405 12.22055 -0.3503627 2.578123 12.81502 -0.7681136 2.512955 13.1829 -0.4832749 2.371377 13.58321 -0.6918545 2.213579 14.20538 -1.342646 2.19207 14.49839 -1.292264 2.719263 13.45633 -1.264454 3.010264 12.54558 -1.853132 3.028944 11.73962 -2.227766 2.92736 12.22055 -2.243849 2.759078 12.81502 -1.846003 2.615966 13.1829 -2.152501 2.530901 13.58321 -1.977584 2.336453 14.20538</float_array>
          <technique_common>
            <accessor source="#Cylinder_003-mesh-positions-array" count="208" stride="3">
              <param name="X" type="float"/>
              <param name="Y" type="float"/>
              <param name="Z" type="float"/>
            </accessor>
          </technique_common>
        </source>
        <source id="Cylinder_003-mesh-normals">
          <float_array id="Cylinder_003-mesh-normals-array" count="618">0 -0.9728693 0.2313556 0 -0.9539561 0.2999465 -0.2939105 -0.922579 0.2499296 0 -0.8914766 0.4530669 -0.1536378 -0.9014822 0.40463 -0.2635222 -0.9339758 0.2413405 -0.2259342 -0.9063506 0.3570467 -0.2397237 -0.9517828 0.1914212 -0.1518619 -0.9862637 0.06497722 0 -0.9998877 0.01498597 0.2939104 -0.922579 0.2499294 0.1536378 -0.9014822 0.40463 0.2635223 -0.9339758 0.2413406 0.2259342 -0.9063507 0.3570466 0.2397236 -0.9517828 0.1914212 0.1518619 -0.9862637 0.06497716 0.995011 0.02729231 0.0959593 0.9863851 -0.04497915 -0.1581822 0.9863855 -0.04497861 -0.158179 -0.9863854 -0.04498785 -0.1581768 -0.9950102 0.02729851 0.09596657 -0.9950103 0.02729761 0.09596502 0.7585327 0.1782403 0.6267844 -5.39121e-6 0.2735251 0.961865 -1.0216e-5 0.2735241 0.9618651 -0.7585278 0.1782409 0.6267901 -0.7585295 0.1782395 0.6267886 0.7585367 0.1782398 0.6267795 -0.9863854 -0.04498803 -0.1581773 0.9171802 0.10899 0.3832775 0.9950109 0.02729219 0.09596163 -0.9171824 0.1089891 0.3832725 -0.9171846 0.1089872 0.383268 0.9510567 -0.08452433 -0.297232 0.9171797 0.1089898 0.383279 -0.9510564 -0.08452075 -0.2972343 -0.9510561 -0.08452069 -0.2972348 0.5877822 -0.2212867 -0.7781674 0.9510555 -0.08452528 -0.2972353 -0.5877828 -0.2212839 -0.7781676 -0.5877815 -0.2212841 -0.7781686 8.37861e-7 -0.2735235 -0.9618654 0.5877801 -0.2212873 -0.7781687 -1.0947e-6 -0.2735236 -0.9618654 0 -0.9728694 0.231355 0 -0.9539557 0.299948 -0.2939093 -0.9225791 0.2499304 0 -0.8914765 0.4530669 -0.1536369 -0.9014821 0.4046305 -0.2635215 -0.9339756 0.2413423 -0.2259339 -0.9063512 0.3570454 -0.2397241 -0.9517825 0.1914219 -0.1518613 -0.9862639 0.06497645 0 -0.9998878 0.0149827 0.2939091 -0.9225792 0.2499302 0.1536369 -0.9014821 0.4046305 0.2635215 -0.9339755 0.2413423 0.2259338 -0.9063513 0.3570452 0.239724 -0.9517825 0.1914219 0.1518613 -0.9862639 0.06497645 0.9950103 0.02728837 0.09596818 0.9863849 -0.04498088 -0.1581824 0.9863846 -0.04498094 -0.1581842 -0.9863833 -0.04498285 -0.1581916 -0.9950112 0.02728432 0.09596097 -0.9950107 0.02728611 0.09596556 0.758538 0.1782441 0.6267769 2.89489e-6 0.2735379 0.9618612 -2.3285e-6 0.2735376 0.9618614 -0.7585337 0.178245 0.6267818 -0.7585355 0.1782438 0.62678 0.7585421 0.1782425 0.6267722 -0.9863842 -0.04498082 -0.1581867 0.9171791 0.10899 0.3832803 0.9950109 0.027287 0.09596335 -0.9171781 0.1089931 0.3832818 -0.9171793 0.1089927 0.3832789 0.9510564 -0.08452504 -0.2972327 0.9171795 0.10899 0.3832793 -0.951057 -0.08452957 -0.2972294 -0.9510561 -0.08452957 -0.2972325 0.5877838 -0.2212815 -0.7781677 0.951056 -0.08452504 -0.2972339 -0.5877833 -0.2212747 -0.7781699 -0.5877805 -0.2212754 -0.7781718 3.69057e-7 -0.2735329 -0.9618627 0.5877833 -0.2212817 -0.778168 -1.46252e-6 -0.2735323 -0.9618629 0 -0.9728694 0.231355 0 -0.9539556 0.2999479 -0.2939092 -0.9225791 0.2499303 0 -0.8914766 0.4530668 -0.1536369 -0.9014822 0.4046304 -0.2635216 -0.9339755 0.2413424 -0.2259338 -0.9063512 0.3570454 -0.239724 -0.9517826 0.1914219 -0.1518611 -0.9862639 0.06497639 0 -0.9998878 0.0149827 0.2939093 -0.9225791 0.2499305 0.1536368 -0.9014822 0.4046305 0.2635214 -0.9339756 0.2413421 0.2259339 -0.9063512 0.3570454 0.1518613 -0.9862638 0.06497645 0.9950103 0.02729231 0.09596788 0.9863849 -0.04498314 -0.1581822 0.9863845 -0.0449835 -0.1581839 -0.9863832 -0.04498547 -0.1581913 -0.995011 0.02728444 0.09596097 -0.9950106 0.02728664 0.0959655 0.7585373 0.1782482 0.6267765 2.49632e-6 0.2735369 0.9618616 -2.7061e-6 0.2735368 0.9618616 -0.7585336 0.1782461 0.6267815 -0.7585354 0.1782451 0.6267798 0.7585416 0.1782463 0.6267719 -0.986384 -0.04498386 -0.1581865 0.9171788 0.1089934 0.3832799 0.9950107 0.02729189 0.09596282 -0.9171781 0.1089936 0.3832818 -0.9171793 0.1089934 0.3832789 0.9510564 -0.08452451 -0.2972327 0.9171793 0.1089935 0.3832789 -0.9510574 -0.08452361 -0.2972298 -0.9510565 -0.08452439 -0.2972328 0.5877838 -0.221281 -0.7781677 0.9510561 -0.08452457 -0.2972339 -0.5877825 -0.2212801 -0.7781689 -0.5877795 -0.2212814 -0.7781708 2.29414e-7 -0.2735339 -0.9618624 0.5877833 -0.2212813 -0.778168 -1.59343e-6 -0.2735335 -0.9618625 0 -0.9728693 0.2313556 0 -0.9539561 0.2999464 -0.2939105 -0.922579 0.2499296 0 -0.8914766 0.4530668 -0.1536377 -0.9014822 0.4046298 -0.2635222 -0.9339758 0.2413405 -0.2397235 -0.9517828 0.1914211 -0.1518618 -0.9862637 0.0649771 0 -0.9998877 0.01498597 0.2939105 -0.922579 0.2499296 0.1536377 -0.9014822 0.4046298 0.2635221 -0.9339758 0.2413404 0.2259342 -0.9063506 0.3570467 0.2397235 -0.9517828 0.1914211 0.1518617 -0.9862637 0.0649771 0.9950112 0.02728807 0.09595978 0.9863847 -0.04498523 -0.158182 0.9863853 -0.04498368 -0.1581788 -0.9863855 -0.04498511 -0.1581771 -0.9950103 0.0272907 0.09596759 -0.9950105 0.0272904 0.09596592 0.7585321 0.1782431 0.6267843 -5.58e-6 0.2735269 0.9618644 -1.04677e-5 0.2735262 0.9618647 -0.7585278 0.1782406 0.6267902 -0.7585296 0.1782392 0.6267886 0.7585363 0.1782416 0.6267796 -0.9863855 -0.04498487 -0.1581776 0.91718 0.1089932 0.3832771 0.9950109 0.02728796 0.0959621 -0.9171822 0.108992 0.3832722 -0.9171843 0.1089907 0.3832675 0.9510567 -0.08452463 -0.297232 0.9171794 0.1089934 0.3832786 -0.9510561 -0.08452379 -0.2972341 -0.951056 -0.08452355 -0.2972347 0.5877817 -0.2212892 -0.778167 0.9510555 -0.08452576 -0.2972353 -0.5877828 -0.2212839 -0.7781676 -0.5877815 -0.221284 -0.7781686 8.77759e-7 -0.2735238 -0.9618653 0.5877797 -0.2212899 -0.7781683 -1.07476e-6 -0.2735239 -0.9618653 0 -0.9728694 0.2313551 0 -0.953956 0.2999468 -0.2939093 -0.9225793 0.2499297 0 -0.8914764 0.4530674 -0.1536369 -0.9014821 0.4046304 -0.2635217 -0.933976 0.2413403 -0.2259337 -0.9063506 0.3570472 -0.2397241 -0.9517829 0.1914203 -0.1518612 -0.9862639 0.06497514 0 -0.9998878 0.01498353 0.2939094 -0.9225793 0.2499299 0.1536369 -0.9014822 0.4046305 0.2635216 -0.9339761 0.2413402 0.2259337 -0.9063506 0.3570472 0.2397242 -0.9517829 0.1914204 0.1518613 -0.9862639 0.0649752 0.09255266 0.968457 0.2313551 0.09075367 0.9496293 0.2999468 0.3803462 0.8904336 0.2499294 0.0848093 0.8874331 0.4530674 0.2387009 0.8827775 0.4046304 0.3511793 0.9046702 0.2413403 0.311134 0.880746 0.3570468 0.3291838 0.92466 0.1914208 0.2449991 0.9673436 0.06497573 0.09512293 0.9953528 0.01498377 -0.2048087 0.9463556 0.2499293 -0.06717824 0.9120096 0.4046304 -0.1734728 0.95481 0.2413403 -0.1386848 0.9237338 0.357047 -0.14809 0.9702719 0.1914206 -0.05734539 0.9962378 0.06497538</float_array>
          <technique_common>
            <accessor source="#Cylinder_003-mesh-normals-array" count="206" stride="3">
              <param name="X" type="float"/>
              <param name="Y" type="float"/>
              <param name="Z" type="float"/>
            </accessor>
          </technique_common>
        </source>
        <source id="Cylinder_003-mesh-map-0">
          <float_array id="Cylinder_003-mesh-map-0-array" count="1248">0.4989358 0.3889998 0.499746 0.6631794 0.2351135 0.5956947 0.499746 0.6631794 0.4943756 0.9724201 0.2287477 0.9179785 0.2287477 0.9179785 0.1046055 0.7499687 0.499746 0.6631794 0.1046055 0.7499687 0.2351135 0.5956947 0.499746 0.6631794 0.2351135 0.5956947 0.03376311 0.4298202 0.4989358 0.3889998 0.03376311 0.4298202 0.03314971 0.3147546 0.4989358 0.3889998 0.03314971 0.3147546 0.1674713 0.1625841 0.4989358 0.3889998 0.1674713 0.1625841 0.4943932 0.09630364 0.4989358 0.3889998 0.4989358 0.3889998 0.2351135 0.5956947 0.499746 0.6631794 0.499746 0.6631794 0.2287477 0.9179785 0.4943756 0.9724201 0.2287477 0.9179785 0.499746 0.6631794 0.1046055 0.7499687 0.1046055 0.7499687 0.499746 0.6631794 0.2351135 0.5956947 0.2351135 0.5956947 0.4989358 0.3889998 0.03376311 0.4298202 0.03376311 0.4298202 0.4989358 0.3889998 0.03314971 0.3147546 0.03314971 0.3147546 0.4989358 0.3889998 0.1674713 0.1625841 0.1674713 0.1625841 0.4989358 0.3889998 0.4943932 0.09630364 0.05288887 0.3959925 0.04559439 0.3646172 0.05288887 0.3646172 0.04559439 0.3959925 0.05288887 0.4212185 0.04559439 0.4212185 0.05279082 0.3723774 0.04549634 0.3290877 0.05279082 0.3290877 0.04583686 0.3349053 0.0531314 0.3665847 0.04583686 0.3665847 0.05279082 0.4044384 0.04549634 0.3723774 0.05279082 0.3723774 0.04583686 0.3665847 0.0531314 0.4078739 0.04583686 0.4078739 0.05288887 0.3646172 0.04559439 0.3306391 0.05288887 0.3306391 0.04525381 0.3275362 0.05254822 0.3584691 0.04525381 0.3584691 0.05283975 0.367621 0.04554533 0.3368447 0.05283987 0.3368447 0.04525381 0.3584691 0.05254822 0.3938636 0.04525381 0.3938636 0.05283975 0.4055458 0.04554533 0.367621 0.05283975 0.367621 0.04578787 0.327924 0.05308222 0.3586061 0.04578793 0.3586061 0.04578793 0.3368111 0.05308222 0.3674932 0.04578793 0.3674932 0.04578793 0.3586061 0.05308222 0.3965314 0.04578793 0.3965314 0.05288887 0.3959925 0.04559439 0.3959925 0.04559439 0.3646172 0.04559439 0.3959925 0.05288887 0.3959925 0.05288887 0.4212185 0.05279082 0.3723774 0.04549634 0.3723774 0.04549634 0.3290877 0.04583686 0.3349053 0.0531314 0.3349053 0.0531314 0.3665847 0.05279082 0.4044384 0.04549634 0.4044384 0.04549634 0.3723774 0.04583686 0.3665847 0.0531314 0.3665847 0.0531314 0.4078739 0.05288887 0.3646172 0.04559439 0.3646172 0.04559439 0.3306391 0.04525381 0.3275362 0.05254822 0.3275362 0.05254822 0.3584691 0.05283975 0.367621 0.04554533 0.367621 0.04554533 0.3368447 0.04525381 0.3584691 0.05254822 0.3584691 0.05254822 0.3938636 0.05283975 0.4055458 0.04554533 0.4055458 0.04554533 0.367621 0.04578787 0.327924 0.05308222 0.327924 0.05308222 0.3586061 0.04578793 0.3368111 0.05308222 0.3368111 0.05308222 0.3674932 0.04578793 0.3586061 0.05308222 0.3586061 0.05308222 0.3965314 0.4989358 0.3889998 0.499746 0.6631794 0.2351135 0.5956947 0.499746 0.6631794 0.4943756 0.9724201 0.2287477 0.9179785 0.2287477 0.9179785 0.1046055 0.7499687 0.499746 0.6631794 0.1046055 0.7499687 0.2351135 0.5956947 0.499746 0.6631794 0.2351135 0.5956947 0.03376311 0.4298202 0.4989358 0.3889998 0.03376311 0.4298202 0.03314971 0.3147546 0.4989358 0.3889998 0.03314971 0.3147546 0.1674713 0.1625841 0.4989358 0.3889998 0.1674713 0.1625841 0.4943932 0.09630364 0.4989358 0.3889998 0.4989358 0.3889998 0.2351135 0.5956947 0.499746 0.6631794 0.499746 0.6631794 0.2287477 0.9179785 0.4943756 0.9724201 0.2287477 0.9179785 0.499746 0.6631794 0.1046055 0.7499687 0.1046055 0.7499687 0.499746 0.6631794 0.2351135 0.5956947 0.2351135 0.5956947 0.4989358 0.3889998 0.03376311 0.4298202 0.03376311 0.4298202 0.4989358 0.3889998 0.03314971 0.3147546 0.03314971 0.3147546 0.4989358 0.3889998 0.1674713 0.1625841 0.1674713 0.1625841 0.4989358 0.3889998 0.4943932 0.09630364 0.05288887 0.3959925 0.04559439 0.3646172 0.05288887 0.3646172 0.04559439 0.3959925 0.05288887 0.4212185 0.04559439 0.4212185 0.05279082 0.3723774 0.04549634 0.3290877 0.05279082 0.3290877 0.04583686 0.3349053 0.0531314 0.3665847 0.04583686 0.3665847 0.05279082 0.4044384 0.04549634 0.3723774 0.05279082 0.3723774 0.04583686 0.3665847 0.0531314 0.4078739 0.04583686 0.4078739 0.05288887 0.3646172 0.04559439 0.3306391 0.05288887 0.3306391 0.04525381 0.3275362 0.05254822 0.3584691 0.04525381 0.3584691 0.05283975 0.367621 0.04554533 0.3368447 0.05283987 0.3368447 0.04525381 0.3584691 0.05254822 0.3938636 0.04525381 0.3938636 0.05283975 0.4055458 0.04554533 0.367621 0.05283975 0.367621 0.04578787 0.327924 0.05308222 0.3586061 0.04578793 0.3586061 0.04578793 0.3368111 0.05308222 0.3674932 0.04578793 0.3674932 0.04578793 0.3586061 0.05308222 0.3965314 0.04578793 0.3965314 0.05288887 0.3959925 0.04559439 0.3959925 0.04559439 0.3646172 0.04559439 0.3959925 0.05288887 0.3959925 0.05288887 0.4212185 0.05279082 0.3723774 0.04549634 0.3723774 0.04549634 0.3290877 0.04583686 0.3349053 0.0531314 0.3349053 0.0531314 0.3665847 0.05279082 0.4044384 0.04549634 0.4044384 0.04549634 0.3723774 0.04583686 0.3665847 0.0531314 0.3665847 0.0531314 0.4078739 0.05288887 0.3646172 0.04559439 0.3646172 0.04559439 0.3306391 0.04525381 0.3275362 0.05254822 0.3275362 0.05254822 0.3584691 0.05283975 0.367621 0.04554533 0.367621 0.04554533 0.3368447 0.04525381 0.3584691 0.05254822 0.3584691 0.05254822 0.3938636 0.05283975 0.4055458 0.04554533 0.4055458 0.04554533 0.367621 0.04578787 0.327924 0.05308222 0.327924 0.05308222 0.3586061 0.04578793 0.3368111 0.05308222 0.3368111 0.05308222 0.3674932 0.04578793 0.3586061 0.05308222 0.3586061 0.05308222 0.3965314 0.4989358 0.3889998 0.499746 0.6631794 0.2351135 0.5956947 0.499746 0.6631794 0.4943756 0.9724201 0.2287477 0.9179785 0.2287477 0.9179785 0.1046055 0.7499687 0.499746 0.6631794 0.1046055 0.7499687 0.2351135 0.5956947 0.499746 0.6631794 0.2351135 0.5956947 0.03376311 0.4298202 0.4989358 0.3889998 0.03376311 0.4298202 0.03314971 0.3147546 0.4989358 0.3889998 0.03314971 0.3147546 0.1674713 0.1625841 0.4989358 0.3889998 0.1674713 0.1625841 0.4943932 0.09630364 0.4989358 0.3889998 0.4989358 0.3889998 0.2351135 0.5956947 0.499746 0.6631794 0.499746 0.6631794 0.2287477 0.9179785 0.4943756 0.9724201 0.2287477 0.9179785 0.499746 0.6631794 0.1046055 0.7499687 0.1046055 0.7499687 0.499746 0.6631794 0.2351135 0.5956947 0.2351135 0.5956947 0.4989358 0.3889998 0.03376311 0.4298202 0.03376311 0.4298202 0.4989358 0.3889998 0.03314971 0.3147546 0.03314971 0.3147546 0.4989358 0.3889998 0.1674713 0.1625841 0.1674713 0.1625841 0.4989358 0.3889998 0.4943932 0.09630364 0.05288887 0.3959925 0.04559439 0.3646172 0.05288887 0.3646172 0.04559439 0.3959925 0.05288887 0.4212185 0.04559439 0.4212185 0.05279082 0.3723774 0.04549634 0.3290877 0.05279082 0.3290877 0.04583686 0.3349053 0.0531314 0.3665847 0.04583686 0.3665847 0.05279082 0.4044384 0.04549634 0.3723774 0.05279082 0.3723774 0.04583686 0.3665847 0.0531314 0.4078739 0.04583686 0.4078739 0.05288887 0.3646172 0.04559439 0.3306391 0.05288887 0.3306391 0.04525381 0.3275362 0.05254822 0.3584691 0.04525381 0.3584691 0.05283975 0.367621 0.04554533 0.3368447 0.05283987 0.3368447 0.04525381 0.3584691 0.05254822 0.3938636 0.04525381 0.3938636 0.05283975 0.4055458 0.04554533 0.367621 0.05283975 0.367621 0.04578787 0.327924 0.05308222 0.3586061 0.04578793 0.3586061 0.04578793 0.3368111 0.05308222 0.3674932 0.04578793 0.3674932 0.04578793 0.3586061 0.05308222 0.3965314 0.04578793 0.3965314 0.05288887 0.3959925 0.04559439 0.3959925 0.04559439 0.3646172 0.04559439 0.3959925 0.05288887 0.3959925 0.05288887 0.4212185 0.05279082 0.3723774 0.04549634 0.3723774 0.04549634 0.3290877 0.04583686 0.3349053 0.0531314 0.3349053 0.0531314 0.3665847 0.05279082 0.4044384 0.04549634 0.4044384 0.04549634 0.3723774 0.04583686 0.3665847 0.0531314 0.3665847 0.0531314 0.4078739 0.05288887 0.3646172 0.04559439 0.3646172 0.04559439 0.3306391 0.04525381 0.3275362 0.05254822 0.3275362 0.05254822 0.3584691 0.05283975 0.367621 0.04554533 0.367621 0.04554533 0.3368447 0.04525381 0.3584691 0.05254822 0.3584691 0.05254822 0.3938636 0.05283975 0.4055458 0.04554533 0.4055458 0.04554533 0.367621 0.04578787 0.327924 0.05308222 0.327924 0.05308222 0.3586061 0.04578793 0.3368111 0.05308222 0.3368111 0.05308222 0.3674932 0.04578793 0.3586061 0.05308222 0.3586061 0.05308222 0.3965314 0.4989358 0.3889998 0.499746 0.6631794 0.2351135 0.5956947 0.499746 0.6631794 0.4943756 0.9724201 0.2287477 0.9179785 0.2287477 0.9179785 0.1046055 0.7499687 0.499746 0.6631794 0.1046055 0.7499687 0.2351135 0.5956947 0.499746 0.6631794 0.2351135 0.5956947 0.03376311 0.4298202 0.4989358 0.3889998 0.03376311 0.4298202 0.03314971 0.3147546 0.4989358 0.3889998 0.03314971 0.3147546 0.1674713 0.1625841 0.4989358 0.3889998 0.1674713 0.1625841 0.4943932 0.09630364 0.4989358 0.3889998 0.4989358 0.3889998 0.2351135 0.5956947 0.499746 0.6631794 0.499746 0.6631794 0.2287477 0.9179785 0.4943756 0.9724201 0.2287477 0.9179785 0.499746 0.6631794 0.1046055 0.7499687 0.1046055 0.7499687 0.499746 0.6631794 0.2351135 0.5956947 0.2351135 0.5956947 0.4989358 0.3889998 0.03376311 0.4298202 0.03376311 0.4298202 0.4989358 0.3889998 0.03314971 0.3147546 0.03314971 0.3147546 0.4989358 0.3889998 0.1674713 0.1625841 0.1674713 0.1625841 0.4989358 0.3889998 0.4943932 0.09630364 0.05288887 0.3959925 0.04559439 0.3646172 0.05288887 0.3646172 0.04559439 0.3959925 0.05288887 0.4212185 0.04559439 0.4212185 0.05279082 0.3723774 0.04549634 0.3290877 0.05279082 0.3290877 0.04583686 0.3349053 0.0531314 0.3665847 0.04583686 0.3665847 0.05279082 0.4044384 0.04549634 0.3723774 0.05279082 0.3723774 0.04583686 0.3665847 0.0531314 0.4078739 0.04583686 0.4078739 0.05288887 0.3646172 0.04559439 0.3306391 0.05288887 0.3306391 0.04525381 0.3275362 0.05254822 0.3584691 0.04525381 0.3584691 0.05283975 0.367621 0.04554533 0.3368447 0.05283987 0.3368447 0.04525381 0.3584691 0.05254822 0.3938636 0.04525381 0.3938636 0.05283975 0.4055458 0.04554533 0.367621 0.05283975 0.367621 0.04578787 0.327924 0.05308222 0.3586061 0.04578793 0.3586061 0.04578793 0.3368111 0.05308222 0.3674932 0.04578793 0.3674932 0.04578793 0.3586061 0.05308222 0.3965314 0.04578793 0.3965314 0.05288887 0.3959925 0.04559439 0.3959925 0.04559439 0.3646172 0.04559439 0.3959925 0.05288887 0.3959925 0.05288887 0.4212185 0.05279082 0.3723774 0.04549634 0.3723774 0.04549634 0.3290877 0.04583686 0.3349053 0.0531314 0.3349053 0.0531314 0.3665847 0.05279082 0.4044384 0.04549634 0.4044384 0.04549634 0.3723774 0.04583686 0.3665847 0.0531314 0.3665847 0.0531314 0.4078739 0.05288887 0.3646172 0.04559439 0.3646172 0.04559439 0.3306391 0.04525381 0.3275362 0.05254822 0.3275362 0.05254822 0.3584691 0.05283975 0.367621 0.04554533 0.367621 0.04554533 0.3368447 0.04525381 0.3584691 0.05254822 0.3584691 0.05254822 0.3938636 0.05283975 0.4055458 0.04554533 0.4055458 0.04554533 0.367621 0.04578787 0.327924 0.05308222 0.327924 0.05308222 0.3586061 0.04578793 0.3368111 0.05308222 0.3368111 0.05308222 0.3674932 0.04578793 0.3586061 0.05308222 0.3586061 0.05308222 0.3965314 0.4989358 0.3889998 0.499746 0.6631794 0.2351135 0.5956947 0.499746 0.6631794 0.4943756 0.9724201 0.2287477 0.9179785 0.2287477 0.9179785 0.1046055 0.7499687 0.499746 0.6631794 0.1046055 0.7499687 0.2351135 0.5956947 0.499746 0.6631794 0.2351135 0.5956947 0.03376311 0.4298202 0.4989358 0.3889998 0.03376311 0.4298202 0.03314971 0.3147546 0.4989358 0.3889998 0.03314971 0.3147546 0.1674713 0.1625841 0.4989358 0.3889998 0.1674713 0.1625841 0.4943932 0.09630364 0.4989358 0.3889998 0.4989358 0.3889998 0.2351135 0.5956947 0.499746 0.6631794 0.499746 0.6631794 0.2287477 0.9179785 0.4943756 0.9724201 0.2287477 0.9179785 0.499746 0.6631794 0.1046055 0.7499687 0.1046055 0.7499687 0.499746 0.6631794 0.2351135 0.5956947 0.2351135 0.5956947 0.4989358 0.3889998 0.03376311 0.4298202 0.03376311 0.4298202 0.4989358 0.3889998 0.03314971 0.3147546 0.03314971 0.3147546 0.4989358 0.3889998 0.1674713 0.1625841 0.1674713 0.1625841 0.4989358 0.3889998 0.4943932 0.09630364 0.4989358 0.3889998 0.499746 0.6631794 0.2351135 0.5956947 0.499746 0.6631794 0.4943756 0.9724201 0.2287477 0.9179785 0.2287477 0.9179785 0.1046055 0.7499687 0.499746 0.6631794 0.1046055 0.7499687 0.2351135 0.5956947 0.499746 0.6631794 0.2351135 0.5956947 0.03376311 0.4298202 0.4989358 0.3889998 0.03376311 0.4298202 0.03314971 0.3147546 0.4989358 0.3889998 0.03314971 0.3147546 0.1674713 0.1625841 0.4989358 0.3889998 0.1674713 0.1625841 0.4943932 0.09630364 0.4989358 0.3889998 0.4989358 0.3889998 0.2351135 0.5956947 0.499746 0.6631794 0.499746 0.6631794 0.2287477 0.9179785 0.4943756 0.9724201 0.2287477 0.9179785 0.499746 0.6631794 0.1046055 0.7499687 0.1046055 0.7499687 0.499746 0.6631794 0.2351135 0.5956947 0.2351135 0.5956947 0.4989358 0.3889998 0.03376311 0.4298202 0.03376311 0.4298202 0.4989358 0.3889998 0.03314971 0.3147546 0.03314971 0.3147546 0.4989358 0.3889998 0.1674713 0.1625841 0.1674713 0.1625841 0.4989358 0.3889998 0.4943932 0.09630364</float_array>
          <technique_common>
            <accessor source="#Cylinder_003-mesh-map-0-array" count="624" stride="2">
              <param name="S" type="float"/>
              <param name="T" type="float"/>
            </accessor>
          </technique_common>
        </source>
        <vertices id="Cylinder_003-mesh-vertices">
          <input semantic="POSITION" source="#Cylinder_003-mesh-positions"/>
        </vertices>
        <triangles material="Material_002-material" count="208">
          <input semantic="VERTEX" source="#Cylinder_003-mesh-vertices" offset="0"/>
          <input semantic="NORMAL" source="#Cylinder_003-mesh-normals" offset="1"/>
          <input semantic="TEXCOORD" source="#Cylinder_003-mesh-map-0" offset="2" set="0"/>
          <p>9 0 0 8 1 1 4 2 2 8 1 3 7 3 4 6 4 5 6 4 6 5 5 7 8 1 8 5 5 9 4 2 10 8 1 11 4 2 12 3 6 13 9 0 14 3 6 15 2 7 16 9 0 17 2 7 18 1 8 19 9 0 20 1 8 21 0 9 22 9 0 23 9 0 24 13 10 25 8 1 26 8 1 27 15 11 28 7 3 29 15 11 30 8 1 31 14 12 32 14 12 33 8 1 34 13 10 35 13 10 36 9 0 37 12 13 38 12 13 39 9 0 40 11 14 41 11 14 42 9 0 43 10 15 44 10 15 45 9 0 46 0 9 47 27 16 48 42 17 49 28 18 50 21 19 51 34 20 52 20 21 53 29 22 54 37 23 55 23 24 56 23 24 57 36 25 58 22 26 59 28 18 60 43 27 61 29 22 62 22 26 63 35 28 64 21 19 65 26 29 66 41 30 67 27 16 68 20 21 69 33 31 70 19 32 71 25 33 72 40 34 73 26 29 74 19 32 75 32 35 76 18 36 77 24 37 78 39 38 79 25 33 80 18 36 81 31 39 82 17 40 83 16 41 84 38 42 85 24 37 86 17 40 87 30 43 88 16 41 89 27 16 90 41 30 91 42 17 92 21 19 93 35 28 94 34 20 95 29 22 96 43 27 97 37 23 98 23 24 99 37 23 100 36 25 101 28 18 102 42 17 103 43 27 104 22 26 105 36 25 106 35 28 107 26 29 108 40 34 109 41 30 110 20 21 111 34 20 112 33 31 113 25 33 114 39 38 115 40 34 116 19 32 117 33 31 118 32 35 119 24 37 120 38 42 121 39 38 122 18 36 123 32 35 124 31 39 125 16 41 126 30 43 127 38 42 128 17 40 129 31 39 130 30 43 131 53 44 132 52 45 133 48 46 134 52 45 135 51 47 136 50 48 137 50 48 138 49 49 139 52 45 140 49 49 141 48 46 142 52 45 143 48 46 144 47 50 145 53 44 146 47 50 147 46 51 148 53 44 149 46 51 150 45 52 151 53 44 152 45 52 153 44 53 154 53 44 155 53 44 156 57 54 157 52 45 158 52 45 159 59 55 160 51 47 161 59 55 162 52 45 163 58 56 164 58 56 165 52 45 166 57 54 167 57 54 168 53 44 169 56 57 170 56 57 171 53 44 172 55 58 173 55 58 174 53 44 175 54 59 176 54 59 177 53 44 178 44 53 179 71 60 180 86 61 181 72 62 182 65 63 183 78 64 184 64 65 185 73 66 186 81 67 187 67 68 188 67 68 189 80 69 190 66 70 191 72 62 192 87 71 193 73 66 194 66 70 195 79 72 196 65 63 197 70 73 198 85 74 199 71 60 200 64 65 201 77 75 202 63 76 203 69 77 204 84 78 205 70 73 206 63 76 207 76 79 208 62 80 209 68 81 210 83 82 211 69 77 212 62 80 213 75 83 214 61 84 215 60 85 216 82 86 217 68 81 218 61 84 219 74 87 220 60 85 221 71 60 222 85 74 223 86 61 224 65 63 225 79 72 226 78 64 227 73 66 228 87 71 229 81 67 230 67 68 231 81 67 232 80 69 233 72 62 234 86 61 235 87 71 236 66 70 237 80 69 238 79 72 239 70 73 240 84 78 241 85 74 242 64 65 243 78 64 244 77 75 245 69 77 246 83 82 247 84 78 248 63 76 249 77 75 250 76 79 251 68 81 252 82 86 253 83 82 254 62 80 255 76 79 256 75 83 257 60 85 258 74 87 259 82 86 260 61 84 261 75 83 262 74 87 263 97 88 264 96 89 265 92 90 266 96 89 267 95 91 268 94 92 269 94 92 270 93 93 271 96 89 272 93 93 273 92 90 274 96 89 275 92 90 276 91 94 277 97 88 278 91 94 279 90 95 280 97 88 281 90 95 282 89 96 283 97 88 284 89 96 285 88 97 286 97 88 287 97 88 288 101 98 289 96 89 290 96 89 291 103 99 292 95 91 293 103 99 294 96 89 295 102 100 296 102 100 297 96 89 298 101 98 299 101 98 300 97 88 301 100 101 302 100 101 303 97 88 304 99 58 305 99 58 306 97 88 307 98 102 308 98 102 309 97 88 310 88 97 311 115 103 312 130 104 313 116 105 314 109 106 315 122 107 316 108 108 317 117 109 318 125 110 319 111 111 320 111 111 321 124 112 322 110 113 323 116 105 324 131 114 325 117 109 326 110 113 327 123 115 328 109 106 329 114 116 330 129 117 331 115 103 332 108 108 333 121 118 334 107 119 335 113 120 336 128 121 337 114 116 338 107 119 339 120 122 340 106 123 341 112 124 342 127 125 343 113 120 344 106 123 345 119 126 346 105 127 347 104 128 348 126 129 349 112 124 350 105 127 351 118 130 352 104 128 353 115 103 354 129 117 355 130 104 356 109 106 357 123 115 358 122 107 359 117 109 360 131 114 361 125 110 362 111 111 363 125 110 364 124 112 365 116 105 366 130 104 367 131 114 368 110 113 369 124 112 370 123 115 371 114 116 372 128 121 373 129 117 374 108 108 375 122 107 376 121 118 377 113 120 378 127 125 379 128 121 380 107 119 381 121 118 382 120 122 383 112 124 384 126 129 385 127 125 386 106 123 387 120 122 388 119 126 389 104 128 390 118 130 391 126 129 392 105 127 393 119 126 394 118 130 395 141 131 396 140 132 397 136 133 398 140 132 399 139 134 400 138 135 401 138 135 402 137 136 403 140 132 404 137 136 405 136 133 406 140 132 407 136 133 408 135 6 409 141 131 410 135 6 411 134 137 412 141 131 413 134 137 414 133 138 415 141 131 416 133 138 417 132 139 418 141 131 419 141 131 420 145 140 421 140 132 422 140 132 423 147 141 424 139 134 425 147 141 426 140 132 427 146 142 428 146 142 429 140 132 430 145 140 431 145 140 432 141 131 433 144 143 434 144 143 435 141 131 436 143 144 437 143 144 438 141 131 439 142 145 440 142 145 441 141 131 442 132 139 443 159 146 444 174 147 445 160 148 446 153 149 447 166 150 448 152 151 449 161 152 450 169 153 451 155 154 452 155 154 453 168 155 454 154 156 455 160 148 456 175 157 457 161 152 458 154 156 459 167 158 460 153 149 461 158 159 462 173 160 463 159 146 464 152 151 465 165 161 466 151 162 467 157 163 468 172 164 469 158 159 470 151 162 471 164 165 472 150 166 473 156 167 474 171 168 475 157 163 476 150 166 477 163 169 478 149 170 479 148 171 480 170 172 481 156 167 482 149 170 483 162 173 484 148 171 485 159 146 486 173 160 487 174 147 488 153 149 489 167 158 490 166 150 491 161 152 492 175 157 493 169 153 494 155 154 495 169 153 496 168 155 497 160 148 498 174 147 499 175 157 500 154 156 501 168 155 502 167 158 503 158 159 504 172 164 505 173 160 506 152 151 507 166 150 508 165 161 509 157 163 510 171 168 511 172 164 512 151 162 513 165 161 514 164 165 515 156 167 516 170 172 517 171 168 518 150 166 519 164 165 520 163 169 521 148 171 522 162 173 523 170 172 524 149 170 525 163 169 526 162 173 527 185 174 528 184 175 529 180 176 530 184 175 531 183 177 532 182 178 533 182 178 534 181 179 535 184 175 536 181 179 537 180 176 538 184 175 539 180 176 540 179 180 541 185 174 542 179 180 543 178 181 544 185 174 545 178 181 546 177 182 547 185 174 548 177 182 549 176 183 550 185 174 551 185 174 552 189 184 553 184 175 554 184 175 555 191 185 556 183 177 557 191 185 558 184 175 559 190 186 560 190 186 561 184 175 562 189 184 563 189 184 564 185 174 565 188 187 566 188 187 567 185 174 568 187 188 569 187 188 570 185 174 571 186 189 572 186 189 573 185 174 574 176 183 575 201 190 576 200 191 577 196 192 578 200 191 579 199 193 580 198 194 581 198 194 582 197 195 583 200 191 584 197 195 585 196 192 586 200 191 587 196 192 588 195 196 589 201 190 590 195 196 591 194 197 592 201 190 593 194 197 594 193 198 595 201 190 596 193 198 597 192 199 598 201 190 599 201 190 600 205 200 601 200 191 602 200 191 603 207 201 604 199 193 605 207 201 606 200 191 607 206 202 608 206 202 609 200 191 610 205 200 611 205 200 612 201 190 613 204 203 614 204 203 615 201 190 616 203 204 617 203 204 618 201 190 619 202 205 620 202 205 621 201 190 622 192 199 623</p>
        </triangles>
      </mesh>
    </geometry>
  </library_geometries>
  <library_visual_scenes>
    <visual_scene id="Scene" name="Scene">
      <node id="shields_fortress" name="shields_fortress" type="NODE">
        <matrix sid="transform">1 0 0 0 0 1 0 0 0 0 1 0 0 0 0 1</matrix>
        <instance_geometry url="#Cylinder_003-mesh" name="shields_fortress">
          <bind_material>
            <technique_common>
              <instance_material symbol="Material_002-material" target="#Material_002-material">
                <bind_vertex_input semantic="Cylinder_002-mesh-map-0" input_semantic="TEXCOORD" input_set="0"/>
              </instance_material>
            </technique_common>
          </bind_material>
        </instance_geometry>
      </node>
    </visual_scene>
  </library_visual_scenes>
  <scene>
    <instance_visual_scene url="#Scene"/>
  </scene>
</COLLADA>