<?xml version="1.0" encoding="utf-8"?>
<COLLADA xmlns="http://www.collada.org/2005/11/COLLADASchema" version="1.4.1" xmlns:xsi="http://www.w3.org/2001/XMLSchema-instance">
  <asset>
    <contributor>
      <author>Blender User</author>
      <authoring_tool>Blender 4.3.1 commit date:2024-12-10, commit time:07:46, hash:33d812126174</authoring_tool>
    </contributor>
    <created>2026-04-09T18:45:24</created>
    <modified>2026-04-09T18:45:24</modified>
    <unit name="inch" meter="0.0254"/>
    <up_axis>Z_UP</up_axis>
  </asset>
  <library_effects>
    <effect id="Render_001-effect">
      <profile_COMMON>
        <newparam sid="boar_tusk_helmet_png-surface">
          <surface type="2D">
            <init_from>boar_tusk_helmet_png</init_from>
          </surface>
        </newparam>
        <newparam sid="boar_tusk_helmet_png-sampler">
          <sampler2D>
            <source>boar_tusk_helmet_png-surface</source>
          </sampler2D>
        </newparam>
        <technique sid="common">
          <lambert>
            <emission>
              <color sid="emission">0 0 0 1</color>
            </emission>
            <diffuse>
              <texture texture="boar_tusk_helmet_png-sampler" texcoord="Esfera_002-mesh-map-0"/>
            </diffuse>
            <reflectivity>
              <float sid="specular">0.5</float>
            </reflectivity>
            <index_of_refraction>
              <float sid="ior">1.45</float>
            </index_of_refraction>
          </lambert>
        </technique>
      </profile_COMMON>
    </effect>
  </library_effects>
  <library_images>
    <image id="boar_tusk_helmet_png" name="boar_tusk_helmet_png">
      <init_from>boar_tusk_helmet.png</init_from>
    </image>
  </library_images>
  <library_materials>
    <material id="Render_001-material" name="Render.001">
      <instance_effect url="#Render_001-effect"/>
    </material>
  </library_materials>
  <library_geometries>
    <geometry id="Esfera_002-mesh" name="Esfera.002">
      <mesh>
        <source id="Esfera_002-mesh-positions">
          <float_array id="Esfera_002-mesh-positions-array" count="288">-0.1963289 0.07875651 0.4043633 -0.08774191 0.2098754 0.3932829 -0.1520825 0.1551781 0.3968212 -0.1855704 0.07724535 0.4966105 -0.1450036 0.1578086 0.4893066 -0.08161169 0.2097229 0.4810155 -0.2177138 0.08110374 0.3459197 -0.1632117 0.1617416 0.3397796 -0.09462738 0.2217181 0.336858 -0.07381594 0.0592997 0.7023578 -0.05669194 0.09454417 0.6954135 -0.03204101 0.1173023 0.6911492 -0.03918182 0.06047481 0.7305469 -0.03049814 0.08005416 0.7269555 -0.01761358 0.09271389 0.7248685 -0.01101148 0.05674237 0.7461321 -0.008560836 0.06238293 0.7450215 -0.00496596 0.06598621 0.7443329 -0.1923524 -0.1174826 0.4434173 -0.08771699 -0.2449957 0.491727 -0.2067586 -0.02181649 0.4192906 -0.1520197 -0.1933129 0.4682573 -0.198862 -0.0026654 0.5097502 -0.1855702 -0.08130079 0.5290393 -0.1450036 -0.1582128 0.5539454 -0.08160161 -0.2097178 0.5671643 -0.2177228 -0.1448292 0.3920825 -0.1628497 -0.2216792 0.4184951 -0.09402447 -0.2791322 0.4476482 -0.2349197 -0.03296506 0.3632246 -0.07790488 0.03461134 0.707453 -0.07381594 0.009921014 0.7124988 -0.05669194 -0.02530014 0.7200213 -0.03204101 -0.04802608 0.7250858 -0.0412535 0.04677391 0.733331 -0.03918182 0.03307998 0.7361718 -0.03049814 0.01354396 0.7406129 -0.01761358 9.33394e-4 0.743716 -0.0115984 0.05276888 0.746937 -0.008560836 0.04314589 0.748961 -0.00496596 0.03952902 0.7497515 -0.01101148 0.04879707 0.7477591 0.1963289 0.07875651 0.4043633 0.08774191 0.2098754 0.3932829 0.1520825 0.1551781 0.3968212 0.1855704 0.07724535 0.4966105 0.1450036 0.1578086 0.4893066 0.08161169 0.2097229 0.4810155 0.2177138 0.08110374 0.3459197 0.1632117 0.1617416 0.3397796 0.09462738 0.2217181 0.336858 0.07381594 0.0592997 0.7023578 0.05669194 0.09454417 0.6954135 0.03204101 0.1173023 0.6911492 0.03918182 0.06047481 0.7305469 0.03049814 0.08005416 0.7269555 0.01761358 0.09271389 0.7248685 0.01101148 0.05674237 0.7461321 0.008560836 0.06238293 0.7450215 0.00496596 0.06598621 0.7443329 0 0.2308973 0.3953479 0 0.2268732 0.4789455 0 0.2475694 0.3445892 0 0.1214929 0.690125 0 0.09659594 0.7239925 0.1923524 -0.1174826 0.4434173 0.08771699 -0.2449957 0.491727 0.2067586 -0.02181649 0.4192906 0.1520197 -0.1933129 0.4682573 0.198862 -0.0026654 0.5097502 0.1855702 -0.08130079 0.5290393 0.1450036 -0.1582128 0.5539454 0.08160161 -0.2097178 0.5671643 0.2177228 -0.1448292 0.3920825 0.1628497 -0.2216792 0.4184951 0.09402447 -0.2791322 0.4476482 0.2349197 -0.03296506 0.3632246 0.07790488 0.03461134 0.707453 0.07381594 0.009921014 0.7124988 0.05669194 -0.02530014 0.7200213 0.03204101 -0.04802608 0.7250858 0.0412535 0.04677391 0.733331 0.03918182 0.03307998 0.7361718 0.03049814 0.01354396 0.7406129 0.01761358 9.33394e-4 0.743716 0.0115984 0.05276888 0.746937 0 -0.2662645 0.5087822 0 -0.2286511 0.5745483 0 -0.2856386 0.4555066 0 -0.05222958 0.7257893 0 -0.003005623 0.7444464 0 0.06712931 0.7441047 0.008560836 0.04314589 0.748961 0.00496596 0.03952902 0.7497515 0 0.03838229 0.7499922 0.01101148 0.04879707 0.7477591</float_array>
          <technique_common>
            <accessor source="#Esfera_002-mesh-positions-array" count="96" stride="3">
              <param name="X" type="float"/>
              <param name="Y" type="float"/>
              <param name="Z" type="float"/>
            </accessor>
          </technique_common>
        </source>
        <source id="Esfera_002-mesh-normals">
          <float_array id="Esfera_002-mesh-normals-array" count="288">-0.9046866 0.3185612 0.2829505 -0.6150872 0.5525068 0.5624982 -0.7342054 0.6266162 0.2613325 0 -0.7800773 0.6256832 -0.3039485 -0.4601346 0.8342011 -0.4311841 -0.7008475 0.5682368 0 0.9844276 0.1757908 -0.4076609 0.8820832 0.2360975 0 0.9709532 0.2392697 -0.9599484 0.04677236 0.2762454 -0.8642348 0.3665079 0.3446307 -0.8970492 0.08886015 0.4329048 -0.320939 0.7768621 0.5417414 -0.9178026 0.3332607 0.2158145 -0.7330847 0.6384052 0.2345756 -0.757934 0.6383294 0.1344307 -0.4645289 0.8548107 0.2313259 -0.95472 0.0604285 0.2913043 -0.7259207 0.3404656 0.5975971 -0.4550961 0.8787909 0.1435765 0 0.9582703 0.2858641 -0.460717 0.4599924 0.7590435 -0.2582014 0.6327149 0.7300712 -0.5328281 0.174618 0.8280113 -0.7525216 0.1284392 0.6459217 -0.5275168 0.3105357 0.7907551 -0.210541 0.3161761 0.9250434 -1.19408e-6 0.4092428 0.9124256 0 0.7088134 0.7053961 -0.1231341 0.3843441 0.9149414 -0.2457643 0.1969325 0.949114 -0.2394033 0.2565975 0.9363994 0 -0.5144172 0.8575401 -0.2259328 -0.2016319 0.9530472 -0.5903761 -0.2692797 0.7608841 -0.9088401 -0.1951085 0.3687035 -0.7450773 -0.4666494 0.4765483 0 -0.911898 0.4104171 -0.8362459 -0.1898006 0.5144595 -0.7578751 -0.457184 0.465412 -0.9113299 -0.2238625 0.34549 -0.4069669 -0.7000386 0.5867913 -0.7847498 -0.4986569 0.3681157 -0.7116091 -0.07782781 0.6982517 -0.4539877 -0.7540928 0.4745938 0 -0.8953292 0.4454051 -0.4179549 -0.07624644 0.9052626 -0.4995082 0.04309391 0.8652368 -0.1960034 0.08858984 0.9765933 -1.39301e-7 0.01692265 0.9998568 -4.15477e-7 -0.2593621 0.9657803 -0.1113668 0.03484952 0.9931682 -0.2295842 0.1394021 0.9632539 0 0.8514711 0.5244017 0.9046866 0.3185612 0.2829506 0.6150872 0.5525067 0.5624981 0.7259206 0.3404656 0.5975974 0.3039484 -0.4601346 0.8342012 0.4076609 0.8820832 0.2360975 0.8642348 0.366508 0.3446307 0.9599484 0.04677236 0.2762453 0.8970493 0.08886009 0.4329047 0.7342054 0.6266162 0.2613325 0.3209388 0.7768621 0.5417414 0.7330847 0.6384052 0.2345756 0.9178025 0.3332607 0.2158145 0.4645289 0.8548108 0.2313259 0.757934 0.6383295 0.1344306 0.95472 0.0604285 0.2913043 0.7525213 0.1284391 0.6459218 0.455096 0.8787909 0.1435764 0.4607164 0.4599925 0.7590437 0.5275169 0.3105357 0.7907552 0.2582007 0.6327149 0.7300715 0.5328274 0.174618 0.8280118 0.210544 0.3161787 0.9250417 0.123126 0.3843444 0.9149423 0.2457633 0.1969326 0.9491144 0.2259324 -0.2016319 0.9530473 0.9088402 -0.1951085 0.3687034 0.5903761 -0.2692796 0.7608841 0.7450773 -0.4666495 0.4765481 0.4311841 -0.7008476 0.5682368 0.836246 -0.1898007 0.5144594 0.9113299 -0.2238625 0.34549 0.7578751 -0.4571839 0.4654121 0.7847498 -0.4986568 0.3681157 0.4069668 -0.7000386 0.5867913 0.7116092 -0.07782775 0.6982516 0.4539876 -0.7540929 0.4745938 0.4179548 -0.07624638 0.9052626 0.4995075 0.04309386 0.8652372 0.1959984 0.08859223 0.9765942 0.1113636 0.0348494 0.9931685 0.2295803 0.1394025 0.9632549 0.2394052 0.2565981 0.9363988</float_array>
          <technique_common>
            <accessor source="#Esfera_002-mesh-normals-array" count="96" stride="3">
              <param name="X" type="float"/>
              <param name="Y" type="float"/>
              <param name="Z" type="float"/>
            </accessor>
          </technique_common>
        </source>
        <source id="Esfera_002-mesh-map-0">
          <float_array id="Esfera_002-mesh-map-0-array" count="1044">0.5820032 0.4197366 0.6054399 0.2464232 0.6656653 0.3855416 0.2018679 0.2674423 0.3596317 0.2108961 0.2714339 0.3343291 0.8532922 0.3728534 0.7392765 0.3440434 0.8094525 0.2807241 0.5026145 0.5430451 0.6124701 0.5866071 0.5021157 0.6028018 0.6656653 0.3855416 0.6547077 0.2177146 0.7392765 0.3440434 0.6046549 0.5290535 0.7054106 0.5574435 0.6124701 0.5866071 0.6922907 0.4914036 0.7932162 0.5232586 0.7054106 0.5574435 0.6046549 0.5290535 0.6656653 0.3855416 0.6922907 0.4914036 0.504456 0.4296925 0.5454642 0.2639191 0.5820032 0.4197366 0.6656653 0.3855416 0.7732419 0.441794 0.6922907 0.4914036 0.5026145 0.5430451 0.5820032 0.4197366 0.6046549 0.5290535 0.8756129 0.4727578 0.7732419 0.441794 0.8532922 0.3728534 0.5454642 0.2639191 0.5438677 0.09924226 0.6054399 0.2464232 0.6054399 0.2464232 0.5615095 0.08354288 0.6547077 0.2177146 0.507122 0.1106972 0.5454642 0.2639191 0.5066634 0.2674732 0.538896 0.2501104 0.5427883 0.08732008 0.5949887 0.2337419 0.639763 0.2065532 0.5755307 0.04788082 0.6968559 0.1600342 0.5949887 0.2337419 0.5610574 0.07398337 0.639763 0.2065532 0.538896 0.2501104 0.5035293 0.09704583 0.518957 0.09535139 0.3153343 0.1557726 0.453161 0.07996797 0.3596317 0.2108961 0.4083576 0.241846 0.4273053 0.4161344 0.3446481 0.3785762 0.2714339 0.3343291 0.159686 0.3496342 0.2018679 0.2674423 0.3927552 0.59389 0.5026145 0.5430451 0.5021157 0.6028018 0.3596317 0.2108961 0.3446481 0.3785762 0.2714339 0.3343291 0.3021494 0.5715517 0.4028609 0.5244882 0.3927552 0.59389 0.1880592 0.5256651 0.3158954 0.4824964 0.3021494 0.5715517 0.4028609 0.5244882 0.3446481 0.3785762 0.4273053 0.4161344 0.4679599 0.262098 0.504456 0.4296925 0.4273053 0.4161344 0.2374886 0.425451 0.3446481 0.3785762 0.3158954 0.4824964 0.4273053 0.4161344 0.5026145 0.5430451 0.4028609 0.5244882 0.2374886 0.425451 0.1084974 0.4534347 0.159686 0.3496342 0.4705621 0.09683018 0.4679599 0.262098 0.4083576 0.241846 0.453161 0.07996797 0.4083576 0.241846 0.3596317 0.2108961 0.4925143 0.1077293 0.5066634 0.2674732 0.4679599 0.262098 0.4645093 0.08552992 0.4646564 0.2484402 0.4089434 0.2295646 0.4326848 0.04459995 0.36478 0.2003619 0.3251514 0.1473459 0.4465517 0.07135987 0.4089434 0.2295646 0.36478 0.2003619 0.4881478 0.09464651 0.5017304 0.2535801 0.4646564 0.2484402 0.6547077 0.2177146 0.8094525 0.2807241 0.7392765 0.3440434 0.5615095 0.08354288 0.7000727 0.1647648 0.6547077 0.2177146 0.5820032 0.4197366 0.6054399 0.2464232 0.5454642 0.2639191 0.2018679 0.2674423 0.3596317 0.2108961 0.3153343 0.1557726 0.7392765 0.3440434 0.8532922 0.3728534 0.8094525 0.2807241 0.6124701 0.5866071 0.5026145 0.5430451 0.5021157 0.6028018 0.6656653 0.3855416 0.6547077 0.2177146 0.6054399 0.2464232 0.7054106 0.5574435 0.6046549 0.5290535 0.6124701 0.5866071 0.7932162 0.5232586 0.6922907 0.4914036 0.7054106 0.5574435 0.6046549 0.5290535 0.6656653 0.3855416 0.5820032 0.4197366 0.504456 0.4296925 0.5454642 0.2639191 0.5066634 0.2674732 0.7732419 0.441794 0.6656653 0.3855416 0.6922907 0.4914036 0.5820032 0.4197366 0.5026145 0.5430451 0.6046549 0.5290535 0.7732419 0.441794 0.8756129 0.4727578 0.8532922 0.3728534 0.5454642 0.2639191 0.5438677 0.09924226 0.521766 0.1086937 0.6054399 0.2464232 0.5615095 0.08354288 0.5438677 0.09924226 0.5454642 0.2639191 0.507122 0.1106972 0.5066634 0.2674732 0.5427883 0.08732008 0.538896 0.2501104 0.5949887 0.2337419 0.5755307 0.04788082 0.639763 0.2065532 0.6968559 0.1600342 0.5610574 0.07398337 0.5949887 0.2337419 0.639763 0.2065532 0.538896 0.2501104 0.5035293 0.09704583 0.5017304 0.2535801 0.3153343 0.1557726 0.453161 0.07996797 0.4375465 0.04935532 0.4273053 0.4161344 0.4083576 0.241846 0.3446481 0.3785762 0.159686 0.3496342 0.2714339 0.3343291 0.2018679 0.2674423 0.5026145 0.5430451 0.3927552 0.59389 0.5021157 0.6028018 0.3446481 0.3785762 0.3596317 0.2108961 0.2714339 0.3343291 0.4028609 0.5244882 0.3021494 0.5715517 0.3927552 0.59389 0.3158954 0.4824964 0.1880592 0.5256651 0.3021494 0.5715517 0.4028609 0.5244882 0.3446481 0.3785762 0.3158954 0.4824964 0.504456 0.4296925 0.4679599 0.262098 0.4273053 0.4161344 0.3446481 0.3785762 0.2374886 0.425451 0.3158954 0.4824964 0.5026145 0.5430451 0.4273053 0.4161344 0.4028609 0.5244882 0.1084974 0.4534347 0.2374886 0.425451 0.159686 0.3496342 0.4679599 0.262098 0.4705621 0.09683018 0.4083576 0.241846 0.4083576 0.241846 0.453161 0.07996797 0.3596317 0.2108961 0.5066634 0.2674732 0.4925143 0.1077293 0.4679599 0.262098 0.4646564 0.2484402 0.4645093 0.08552992 0.4089434 0.2295646 0.36478 0.2003619 0.4326848 0.04459995 0.3251514 0.1473459 0.4089434 0.2295646 0.4465517 0.07135987 0.36478 0.2003619 0.5017304 0.2535801 0.4881478 0.09464651 0.4646564 0.2484402 0.8094525 0.2807241 0.6547077 0.2177146 0.7392765 0.3440434 0.2374595 0.6231201 0.218631 0.6030443 0.2614074 0.6148347 0.7000727 0.1647648 0.5615095 0.08354288 0.6547077 0.2177146 0.5820032 0.4197366 0.5454642 0.2639191 0.6054399 0.2464232 0.2018679 0.2674423 0.3153343 0.1557726 0.3596317 0.2108961 0.8532922 0.3728534 0.7732419 0.441794 0.7392765 0.3440434 0.5026145 0.5430451 0.6046549 0.5290535 0.6124701 0.5866071 0.6656653 0.3855416 0.6054399 0.2464232 0.6547077 0.2177146 0.6046549 0.5290535 0.6922907 0.4914036 0.7054106 0.5574435 0.6922907 0.4914036 0.7732419 0.441794 0.7932162 0.5232586 0.6046549 0.5290535 0.5820032 0.4197366 0.6656653 0.3855416 0.504456 0.4296925 0.5066634 0.2674732 0.5454642 0.2639191 0.6656653 0.3855416 0.7392765 0.3440434 0.7732419 0.441794 0.5026145 0.5430451 0.504456 0.4296925 0.5820032 0.4197366 0.8756129 0.4727578 0.7932162 0.5232586 0.7732419 0.441794 0.5454642 0.2639191 0.521766 0.1086937 0.5438677 0.09924226 0.6054399 0.2464232 0.5438677 0.09924226 0.5615095 0.08354288 0.507122 0.1106972 0.521766 0.1086937 0.5454642 0.2639191 0.538896 0.2501104 0.518957 0.09535139 0.5427883 0.08732008 0.639763 0.2065532 0.5610574 0.07398337 0.5755307 0.04788082 0.5949887 0.2337419 0.5427883 0.08732008 0.5610574 0.07398337 0.538896 0.2501104 0.5017304 0.2535801 0.5035293 0.09704583 0.3153343 0.1557726 0.4375465 0.04935532 0.453161 0.07996797 0.4083576 0.241846 0.4679599 0.262098 0.4273053 0.4161344 0.2714339 0.3343291 0.2374886 0.425451 0.159686 0.3496342 0.3927552 0.59389 0.4028609 0.5244882 0.5026145 0.5430451 0.3596317 0.2108961 0.4083576 0.241846 0.3446481 0.3785762 0.3021494 0.5715517 0.3158954 0.4824964 0.4028609 0.5244882 0.1880592 0.5256651 0.2374886 0.425451 0.3158954 0.4824964 0.4028609 0.5244882 0.3158954 0.4824964 0.3446481 0.3785762 0.4679599 0.262098 0.5066634 0.2674732 0.504456 0.4296925 0.2374886 0.425451 0.2714339 0.3343291 0.3446481 0.3785762 0.4273053 0.4161344 0.504456 0.4296925 0.5026145 0.5430451 0.2374886 0.425451 0.1880592 0.5256651 0.1084974 0.4534347 0.4705621 0.09683018 0.4925143 0.1077293 0.4679599 0.262098 0.453161 0.07996797 0.4705621 0.09683018 0.4083576 0.241846 0.4925143 0.1077293 0.507122 0.1106972 0.5066634 0.2674732 0.4645093 0.08552992 0.4881478 0.09464651 0.4646564 0.2484402 0.4326848 0.04459995 0.4465517 0.07135987 0.36478 0.2003619 0.4465517 0.07135987 0.4645093 0.08552992 0.4089434 0.2295646 0.4881478 0.09464651 0.5035293 0.09704583 0.5017304 0.2535801 0.6547077 0.2177146 0.7000727 0.1647648 0.8094525 0.2807241 0.5615095 0.08354288 0.5775794 0.05399668 0.7000727 0.1647648 0.5820032 0.4197366 0.6656653 0.3855416 0.6054399 0.2464232 0.2018679 0.2674423 0.2714339 0.3343291 0.3596317 0.2108961 0.7392765 0.3440434 0.7732419 0.441794 0.8532922 0.3728534 0.6124701 0.5866071 0.6046549 0.5290535 0.5026145 0.5430451 0.6656653 0.3855416 0.7392765 0.3440434 0.6547077 0.2177146 0.7054106 0.5574435 0.6922907 0.4914036 0.6046549 0.5290535 0.7932162 0.5232586 0.7732419 0.441794 0.6922907 0.4914036 0.6046549 0.5290535 0.6922907 0.4914036 0.6656653 0.3855416 0.504456 0.4296925 0.5820032 0.4197366 0.5454642 0.2639191 0.7732419 0.441794 0.7392765 0.3440434 0.6656653 0.3855416 0.5820032 0.4197366 0.504456 0.4296925 0.5026145 0.5430451 0.7732419 0.441794 0.7932162 0.5232586 0.8756129 0.4727578 0.5454642 0.2639191 0.6054399 0.2464232 0.5438677 0.09924226 0.6054399 0.2464232 0.6547077 0.2177146 0.5615095 0.08354288 0.5454642 0.2639191 0.521766 0.1086937 0.507122 0.1106972 0.5427883 0.08732008 0.518957 0.09535139 0.538896 0.2501104 0.5755307 0.04788082 0.5610574 0.07398337 0.639763 0.2065532 0.5610574 0.07398337 0.5427883 0.08732008 0.5949887 0.2337419 0.538896 0.2501104 0.518957 0.09535139 0.5035293 0.09704583 0.3153343 0.1557726 0.3596317 0.2108961 0.453161 0.07996797 0.4273053 0.4161344 0.4679599 0.262098 0.4083576 0.241846 0.159686 0.3496342 0.2374886 0.425451 0.2714339 0.3343291 0.5026145 0.5430451 0.4028609 0.5244882 0.3927552 0.59389 0.3446481 0.3785762 0.4083576 0.241846 0.3596317 0.2108961 0.4028609 0.5244882 0.3158954 0.4824964 0.3021494 0.5715517 0.3158954 0.4824964 0.2374886 0.425451 0.1880592 0.5256651 0.4028609 0.5244882 0.4273053 0.4161344 0.3446481 0.3785762 0.504456 0.4296925 0.5066634 0.2674732 0.4679599 0.262098 0.3446481 0.3785762 0.2714339 0.3343291 0.2374886 0.425451 0.5026145 0.5430451 0.504456 0.4296925 0.4273053 0.4161344 0.1084974 0.4534347 0.1880592 0.5256651 0.2374886 0.425451 0.4679599 0.262098 0.4925143 0.1077293 0.4705621 0.09683018 0.4083576 0.241846 0.4705621 0.09683018 0.453161 0.07996797 0.5066634 0.2674732 0.507122 0.1106972 0.4925143 0.1077293 0.4646564 0.2484402 0.4881478 0.09464651 0.4645093 0.08552992 0.36478 0.2003619 0.4465517 0.07135987 0.4326848 0.04459995 0.4089434 0.2295646 0.4645093 0.08552992 0.4465517 0.07135987 0.5017304 0.2535801 0.5035293 0.09704583 0.4881478 0.09464651 0.8094525 0.2807241 0.7000727 0.1647648 0.6547077 0.2177146 0.7000727 0.1647648 0.5775794 0.05399668 0.5615095 0.08354288 0.2155526 0.584492 0.216233 0.5721943 0.2741872 0.5881682 0.216233 0.5721943 0.219847 0.5606998 0.2748685 0.5758653 0.219847 0.5606998 0.2290288 0.5454385 0.2748685 0.5758653 0.2290288 0.5454385 0.2399705 0.5370537 0.2529978 0.5370362 0.2748685 0.5758653 0.2290288 0.5454385 0.2718052 0.5572289 0.2529978 0.5370362 0.2647842 0.543893 0.2718052 0.5572289 0.2748685 0.5758653 0.2741872 0.5881682 0.216233 0.5721943 0.2741872 0.5881682 0.2705741 0.5996575 0.2155526 0.584492 0.2705741 0.5996575 0.2614074 0.6148347 0.2155526 0.584492 0.2614074 0.6148347 0.2504837 0.6231201 0.2374595 0.6231201 0.2155526 0.584492 0.2614074 0.6148347 0.218631 0.6030443 0.2374595 0.6231201 0.22567 0.6162808 0.218631 0.6030443 0.2529978 0.5370362 0.2718052 0.5572289 0.2290288 0.5454385</float_array>
          <technique_common>
            <accessor source="#Esfera_002-mesh-map-0-array" count="522" stride="2">
              <param name="S" type="float"/>
              <param name="T" type="float"/>
            </accessor>
          </technique_common>
        </source>
        <vertices id="Esfera_002-mesh-vertices">
          <input semantic="POSITION" source="#Esfera_002-mesh-positions"/>
        </vertices>
        <triangles material="Render_001-material" count="174">
          <input semantic="VERTEX" source="#Esfera_002-mesh-vertices" offset="0"/>
          <input semantic="NORMAL" source="#Esfera_002-mesh-normals" offset="1"/>
          <input semantic="TEXCOORD" source="#Esfera_002-mesh-map-0" offset="2" set="0"/>
          <p>3 0 0 10 1 1 4 2 2 87 3 3 33 4 4 25 5 5 60 6 6 5 7 7 61 8 8 20 9 9 6 10 10 29 11 11 4 2 12 11 12 13 5 7 14 0 13 15 7 14 16 6 10 17 2 15 18 8 16 19 7 14 20 0 13 21 4 2 22 2 15 23 22 17 24 9 18 25 3 0 26 4 2 27 1 19 28 2 15 29 20 9 30 3 0 31 0 13 32 62 20 33 1 19 34 60 6 35 9 18 36 13 21 37 10 1 38 10 1 39 14 22 40 11 12 41 34 23 42 9 18 43 30 24 44 12 25 45 16 26 46 13 21 47 14 22 48 91 27 49 64 28 50 13 21 51 17 29 52 14 22 53 12 25 54 38 30 55 15 31 56 89 32 57 37 33 58 33 4 59 32 34 60 23 35 61 24 36 62 25 5 63 86 37 64 87 3 65 26 38 66 20 9 67 29 11 68 33 4 69 24 36 70 25 5 71 27 39 72 18 40 73 26 38 74 28 41 75 21 42 76 27 39 77 18 40 78 24 36 79 23 35 80 31 43 81 22 17 82 23 35 83 19 44 84 24 36 85 21 42 86 23 35 87 20 9 88 18 40 89 19 44 90 88 45 91 86 37 92 36 46 93 31 43 94 32 34 95 37 33 96 32 34 97 33 4 98 35 47 99 30 24 100 31 43 101 39 48 102 35 47 103 36 46 104 94 49 105 37 33 106 90 50 107 40 51 108 36 46 109 37 33 110 41 52 111 34 23 112 35 47 113 11 12 114 61 8 115 5 7 116 14 22 117 63 53 118 11 12 119 45 54 120 52 55 121 51 56 122 87 3 123 80 57 124 89 32 125 47 58 126 60 6 127 61 8 128 48 59 129 67 60 130 76 61 131 46 62 132 53 63 133 52 55 134 49 64 135 42 65 136 48 59 137 50 66 138 44 67 139 49 64 140 42 65 141 46 62 142 45 54 143 69 68 144 51 56 145 77 69 146 43 70 147 46 62 148 44 67 149 45 54 150 67 60 151 42 65 152 43 70 153 62 20 154 60 6 155 51 56 156 55 71 157 54 72 158 52 55 159 56 73 160 55 71 161 51 56 162 81 74 163 77 69 164 58 75 165 54 72 166 55 71 167 91 27 168 56 73 169 64 28 170 59 76 171 55 71 172 56 73 173 54 72 174 85 77 175 81 74 176 89 32 177 84 78 178 90 50 179 70 79 180 79 80 181 71 81 182 86 37 183 72 82 184 87 3 185 67 60 186 73 83 187 76 61 188 71 81 189 80 57 190 72 82 191 65 84 192 74 85 193 73 83 194 68 86 195 75 87 196 74 85 197 65 84 198 71 81 199 68 86 200 69 68 201 78 88 202 70 79 203 71 81 204 66 89 205 68 86 206 67 60 207 70 79 208 65 84 209 88 45 210 66 89 211 86 37 212 78 88 213 83 90 214 79 80 215 79 80 216 84 78 217 80 57 218 77 69 219 82 91 220 78 88 221 82 91 222 92 92 223 83 90 224 84 78 225 94 49 226 90 50 227 83 90 228 93 93 229 84 78 230 81 74 231 95 94 232 82 91 233 61 8 234 53 63 235 47 58 236 91 27 237 16 26 238 58 75 239 63 53 240 56 73 241 53 63 242 3 0 243 9 18 244 10 1 245 87 3 246 89 32 247 33 4 248 60 6 249 1 19 250 5 7 251 20 9 252 0 13 253 6 10 254 4 2 255 10 1 256 11 12 257 0 13 258 2 15 259 7 14 260 2 15 261 1 19 262 8 16 263 0 13 264 3 0 265 4 2 266 22 17 267 30 24 268 9 18 269 4 2 270 5 7 271 1 19 272 20 9 273 22 17 274 3 0 275 62 20 276 8 16 277 1 19 278 9 18 279 12 25 280 13 21 281 10 1 282 13 21 283 14 22 284 34 23 285 12 25 286 9 18 287 12 25 288 15 31 289 16 26 290 14 22 291 17 29 292 91 27 293 13 21 294 16 26 295 17 29 296 12 25 297 34 23 298 38 30 299 89 32 300 90 50 301 37 33 302 32 34 303 31 43 304 23 35 305 25 5 306 19 44 307 86 37 308 26 38 309 18 40 310 20 9 311 33 4 312 32 34 313 24 36 314 27 39 315 21 42 316 18 40 317 28 41 318 19 44 319 21 42 320 18 40 321 21 42 322 24 36 323 31 43 324 30 24 325 22 17 326 19 44 327 25 5 328 24 36 329 23 35 330 22 17 331 20 9 332 19 44 333 28 41 334 88 45 335 36 46 336 35 47 337 31 43 338 37 33 339 36 46 340 32 34 341 35 47 342 34 23 343 30 24 344 39 48 345 41 52 346 35 47 347 94 49 348 40 51 349 37 33 350 40 51 351 39 48 352 36 46 353 41 52 354 38 30 355 34 23 356 11 12 357 63 53 358 61 8 359 14 22 360 64 28 361 63 53 362 45 54 363 46 62 364 52 55 365 87 3 366 72 82 367 80 57 368 47 58 369 43 70 370 60 6 371 48 59 372 42 65 373 67 60 374 46 62 375 47 58 376 53 63 377 49 64 378 44 67 379 42 65 380 50 66 381 43 70 382 44 67 383 42 65 384 44 67 385 46 62 386 69 68 387 45 54 388 51 56 389 43 70 390 47 58 391 46 62 392 45 54 393 69 68 394 67 60 395 43 70 396 50 66 397 62 20 398 51 56 399 52 55 400 55 71 401 52 55 402 53 63 403 56 73 404 51 56 405 54 72 406 81 74 407 58 75 408 57 95 409 54 72 410 91 27 411 59 76 412 56 73 413 59 76 414 58 75 415 55 71 416 54 72 417 57 95 418 85 77 419 89 32 420 80 57 421 84 78 422 70 79 423 78 88 424 79 80 425 86 37 426 66 89 427 72 82 428 67 60 429 65 84 430 73 83 431 71 81 432 79 80 433 80 57 434 65 84 435 68 86 436 74 85 437 68 86 438 66 89 439 75 87 440 65 84 441 70 79 442 71 81 443 69 68 444 77 69 445 78 88 446 71 81 447 72 82 448 66 89 449 67 60 450 69 68 451 70 79 452 88 45 453 75 87 454 66 89 455 78 88 456 82 91 457 83 90 458 79 80 459 83 90 460 84 78 461 77 69 462 81 74 463 82 91 464 82 91 465 95 94 466 92 92 467 84 78 468 93 93 469 94 49 470 83 90 471 92 92 472 93 93 473 81 74 474 85 77 475 95 94 476 61 8 477 63 53 478 53 63 479 63 53 480 64 28 481 56 73 482 15 31 483 38 30 484 85 77 485 38 30 486 41 52 487 95 94 488 41 52 489 39 48 490 95 94 491 39 48 492 40 51 493 94 49 494 95 94 495 39 48 496 92 92 497 94 49 498 93 93 499 92 92 500 95 94 501 85 77 502 38 30 503 85 77 504 57 95 505 15 31 506 57 95 507 58 75 508 15 31 509 58 75 510 59 76 511 91 27 512 15 31 513 58 75 514 16 26 515 91 27 516 17 29 517 16 26 518 94 49 519 92 92 520 39 48 521</p>
        </triangles>
      </mesh>
    </geometry>
  </library_geometries>
  <library_visual_scenes>
    <visual_scene id="Scene" name="Scene">
      <node id="boar_tusk_helmet_001" name="boar_tusk_helmet.001" type="NODE">
        <matrix sid="transform">1 0 0 0 0 1 0 0 0 0 1 0 0 0 0 1</matrix>
        <instance_geometry url="#Esfera_002-mesh" name="boar_tusk_helmet.001">
          <bind_material>
            <technique_common>
              <instance_material symbol="Render_001-material" target="#Render_001-material">
                <bind_vertex_input semantic="Esfera_002-mesh-map-0" input_semantic="TEXCOORD" input_set="0"/>
              </instance_material>
            </technique_common>
          </bind_material>
        </instance_geometry>
        <node id="prop_01" name="prop_01" type="NODE">
          <matrix sid="transform">1 0 0 0 0 1 0 0.05998475 0 0 1 0.6958748 0 0 0 1</matrix>
        </node>
      </node>
    </visual_scene>
  </library_visual_scenes>
  <scene>
    <instance_visual_scene url="#Scene"/>
  </scene>
</COLLADA>