<?xml version="1.0" encoding="utf-8"?>
<COLLADA xmlns="http://www.collada.org/2005/11/COLLADASchema" version="1.4.1" xmlns:xsi="http://www.w3.org/2001/XMLSchema-instance">
  <asset>
    <contributor>
      <author>Blender User</author>
      <authoring_tool>Blender 2.80.75 commit date:2019-07-29, commit time:14:47, hash:f6cb5f54494e</authoring_tool>
    </contributor>
    <created>2026-04-15T08:44:27</created>
    <modified>2026-04-15T08:44:27</modified>
    <unit name="meter" meter="1"/>
    <up_axis>Z_UP</up_axis>
  </asset>
  <library_effects>
    <effect id="Render_004-effect">
      <profile_COMMON>
        <newparam sid="bronze_conical_01_png-surface">
          <surface type="2D">
            <init_from>bronze_conical_01_png</init_from>
          </surface>
        </newparam>
        <newparam sid="bronze_conical_01_png-sampler">
          <sampler2D>
            <source>bronze_conical_01_png-surface</source>
          </sampler2D>
        </newparam>
        <technique sid="common">
          <lambert>
            <emission>
              <color sid="emission">0 0 0 1</color>
            </emission>
            <diffuse>
              <texture texture="bronze_conical_01_png-sampler" texcoord="Cube_018-mesh-map-0"/>
            </diffuse>
            <reflectivity>
              <float sid="specular">0.5</float>
            </reflectivity>
            <index_of_refraction>
              <float sid="ior">1.45</float>
            </index_of_refraction>
          </lambert>
        </technique>
      </profile_COMMON>
    </effect>
  </library_effects>
  <library_images>
    <image id="bronze_conical_01_png" name="bronze_conical_01_png">
      <init_from>/home/welton/snap/0ad/721/.local/share/0ad/mods/aristeia/art/textures/skins/props/helmet/bronze_conical_01.png</init_from>
    </image>
  </library_images>
  <library_materials>
    <material id="Render_004-material" name="Render.004">
      <instance_effect url="#Render_004-effect"/>
    </material>
  </library_materials>
  <library_geometries>
    <geometry id="Cube_018-mesh" name="Cube.018">
      <mesh>
        <source id="Cube_018-mesh-positions">
          <float_array id="Cube_018-mesh-positions-array" count="387">-0.00347203 0.01411706 0.9423539 -0.06766653 -0.1977257 0.6755282 -0.07990193 -0.2509877 0.5771688 -0.08671748 -0.2912297 0.4159834 -0.009160935 0.01853376 0.9417838 -0.1277768 -0.1523666 0.6696735 -0.1503849 -0.1962662 0.5701057 -0.1629784 -0.2320225 0.4083413 -0.01296204 0.0251438 0.9409306 -0.1679413 -0.08448189 0.6609113 -0.19748 -0.1143701 0.559535 -0.2139343 -0.1434127 0.3969041 -0.01429677 0.0329408 0.9399242 -0.1820452 -0.004406452 0.6505757 -0.2140176 -0.01776689 0.5470662 -0.2318277 -0.03889024 0.3834128 -0.01296204 0.0407378 0.9389179 -0.1679412 0.07566881 0.64024 -0.1974799 0.07883626 0.5345969 -0.2139343 0.06563204 0.3699218 -0.009160935 0.04734796 0.9380646 -0.1277767 0.1435534 0.6314778 -0.1503847 0.1607323 0.5240263 -0.1629784 0.1542418 0.3584845 -0.00347203 0.05176448 0.9374946 -0.06766653 0.1889123 0.6256231 -0.07990181 0.2154536 0.5169631 -0.08671736 0.213449 0.3508425 -0.0105074 -0.01610773 0.863632 -0.02216053 -0.007060647 0.8624642 -0.02994698 0.006479442 0.8607164 -0.03268104 0.0224511 0.858655 -0.02994698 0.03842276 0.8565934 -0.02216053 0.05196291 0.8548458 -0.0105074 0.06101012 0.8536781 -0.08671736 0.2106249 0.3285368 -0.1629784 0.1513994 0.3360354 -0.2139343 -0.1464822 0.3731228 -0.08671748 -0.2942993 0.3922021 -0.2318277 -0.04195982 0.3596317 -0.1629784 -0.2350921 0.38456 -0.2179763 0.06276249 0.3472579 -0.04107326 -0.1022061 0.7559363 -0.07863891 -0.07649654 0.752618 -0.1037394 -0.03801929 0.7476515 -0.1125536 0.007367253 0.7417933 -0.1037394 0.0527541 0.735935 -0.07863891 0.09123122 0.7309686 -0.04107326 0.1169406 0.7276502 -0.02123123 -0.04982274 0.8085796 -0.04197543 -0.03463453 0.8066191 -0.05583631 -0.01190364 0.8036852 -0.06070375 0.01490908 0.8002242 -0.05583631 0.04172199 0.7967633 -0.04197543 0.064453 0.7938293 -0.02123117 0.07964134 0.7918689 0.00347203 0.01411706 0.9423539 0.06766653 -0.1977257 0.6755282 0.07990193 -0.2509877 0.5771688 0.08671748 -0.2912297 0.4159834 0.009160935 0.01853376 0.9417838 0.1277768 -0.1523666 0.6696735 0.1503849 -0.1962662 0.5701057 0.1629784 -0.2320225 0.4083413 0.01296204 0.0251438 0.9409306 0.1679413 -0.08448189 0.6609113 0.19748 -0.1143701 0.559535 0.2139343 -0.1434127 0.3969041 0.01429677 0.0329408 0.9399242 0.1820452 -0.004406452 0.6505757 0.2140176 -0.01776689 0.5470662 0.2318277 -0.03889024 0.3834128 0.01296204 0.0407378 0.9389179 0.1679412 0.07566881 0.64024 0.1974799 0.07883626 0.5345969 0.2139343 0.06563204 0.3699218 0.009160935 0.04734796 0.9380646 0.1277767 0.1435534 0.6314778 0.1503847 0.1607323 0.5240263 0.1629784 0.1542418 0.3584845 0.00347203 0.05176448 0.9374946 0.06766653 0.1889123 0.6256231 0.07990181 0.2154536 0.5169631 0.08671736 0.213449 0.3508425 0.0105074 -0.01610773 0.863632 0.02216053 -0.007060647 0.8624642 0.02994698 0.006479442 0.8607164 0.03268104 0.0224511 0.858655 0.02994698 0.03842276 0.8565934 0.02216053 0.05196291 0.8548458 0.0105074 0.06101012 0.8536781 0 0.05331552 0.9372943 0 0.2048406 0.6235671 0 0.2346694 0.5144829 0 0.2342399 0.3481589 0 0.01256603 0.942554 0 -0.2136537 0.677584 0 -0.2702031 0.5796491 0 -0.3120205 0.418667 0 -0.01928484 0.8640421 0 0.06418716 0.8532678 0 0.2314159 0.3258532 0.08671736 0.2106249 0.3285368 0.1629784 0.1513994 0.3360354 0.2139343 -0.1464822 0.3731228 0.08671748 -0.2942993 0.3922021 0.2318277 -0.04195982 0.3596317 0.1629784 -0.2350921 0.38456 0.2179763 0.06276249 0.3472579 0 -0.3150902 0.3948857 0 -0.1112342 0.7571018 0.04107326 -0.1022061 0.7559363 0.07863891 -0.07649654 0.752618 0.1037394 -0.03801929 0.7476515 0.1125536 0.007367253 0.7417933 0.1037394 0.0527541 0.735935 0.07863891 0.09123122 0.7309686 0.04107326 0.1169406 0.7276502 0 0.1259688 0.7264849 0 -0.05515629 0.8092679 0.02123123 -0.04982274 0.8085796 0.04197543 -0.03463453 0.8066191 0.05583631 -0.01190364 0.8036852 0.06070375 0.01490908 0.8002242 0.05583631 0.04172199 0.7967633 0.04197543 0.064453 0.7938293 0.02123117 0.07964134 0.7918689 0 0.08497482 0.7911806 0 0.03294086 0.939924</float_array>
          <technique_common>
            <accessor source="#Cube_018-mesh-positions-array" count="129" stride="3">
              <param name="X" type="float"/>
              <param name="Y" type="float"/>
              <param name="Z" type="float"/>
            </accessor>
          </technique_common>
        </source>
        <source id="Cube_018-mesh-normals">
          <float_array id="Cube_018-mesh-normals-array" count="387">-0.4202222 -0.8353172 0.3544833 0 -0.764292 0.6448704 -0.3642225 -0.6931031 0.6220532 -0.9201555 0.355885 0.163278 -0.6493843 0.6352235 0.4180804 -0.7344816 0.6635848 0.1420986 -0.7548637 0.6553709 -0.02588033 -0.4202143 0.8979567 0.1307428 -0.4340466 0.8992841 -0.05377513 -0.4328875 -0.780931 0.4502835 -0.6154791 -0.4892826 0.6178901 -0.3585066 -0.6791392 0.6405021 -0.3642115 0.8283416 0.4256764 -0.9295133 0.3584442 0.08673459 -0.7785309 0.3644537 0.5109434 -0.710456 0.6541481 0.2595046 -0.6154775 0.6301572 0.4733808 -0.9201558 -0.3027511 0.2483047 -0.9982038 -5.18817e-4 0.05990809 -0.9400558 -0.3268923 0.09714293 -0.6493893 -0.5082377 0.565675 -0.8314709 -0.2451929 0.4985346 -0.5026181 0.5226082 0.6886622 -0.8877043 0.3578345 0.2897163 -0.6241764 0.3152011 0.7148791 -0.9439906 0.04223859 0.3272578 -0.6241723 -0.1233573 0.7714869 -0.662442 0.09589016 0.7429507 0 0.9029796 0.4296836 0 -0.8797076 0.4755151 0 -0.7543625 0.6564583 0 -0.9271767 0.3746246 -0.4340193 -0.8836951 0.1752436 0 -0.9818767 0.1895208 -0.7548261 -0.6406852 0.1405704 -0.7104597 -0.5668051 0.4171078 -0.7785418 -0.2227587 0.5867293 -0.7344791 -0.6057484 0.3059567 -0.887707 -0.2725349 0.3710809 -0.8316556 0.07107985 0.5507239 -0.9797916 0.02560567 0.1983754 -0.8935343 0.05746722 0.4453023 0 0.7760431 0.63068 -0.4328844 0.8696752 0.2372257 -0.3344302 0.6420035 0.6899188 -0.8314726 0.3637616 0.4199175 -0.3585112 0.8195064 0.4470784 0 -0.5904649 0.8070633 -0.3344369 -0.4457735 0.8303241 -0.5026131 -0.3306096 0.7987976 -0.9998139 -0.01913559 0.002441525 -0.7551732 0.6515902 -0.07172065 0 0.9919161 0.1268964 -0.9286618 0.3549661 0.1076404 -0.3069308 0.759499 0.5735459 -0.4355716 -0.8927509 0.1152104 -0.756755 -0.6483201 0.08368372 0 0.9978989 -0.06479108 -0.4355359 0.8930454 -0.1130421 0 0.9716178 0.2365564 -0.7182769 -0.1979495 0.6670041 -0.7766203 0.08063149 0.6247876 -0.5521281 -0.4327968 0.71263 -0.3069341 -0.5889644 0.7476045 0 -0.6463595 0.7630332 -0.5521293 0.5995567 0.5793833 -0.7182728 0.3608302 0.594883 0 0.8189178 0.5739108 0 0.8963297 0.4433885 0 0.1279965 0.9917747 0.4202222 -0.8353172 0.3544833 0.9201555 0.355885 0.163278 0.6493843 0.6352235 0.4180804 0.8314726 0.3637616 0.4199175 0.7548637 0.6553709 -0.02588033 0.4202143 0.8979567 0.1307428 0.7344816 0.6635848 0.1420986 0.6154791 -0.4892826 0.6178901 0.4328875 -0.780931 0.4502835 0.3585066 -0.6791392 0.6405021 0.3642115 0.8283416 0.4256764 0.9295133 0.3584442 0.08673459 0.710456 0.6541481 0.2595046 0.7785309 0.3644537 0.5109434 0.6154775 0.6301572 0.4733808 0.9982038 -5.18817e-4 0.05990809 0.9201558 -0.3027511 0.2483047 0.9400558 -0.3268923 0.09714293 0.6493893 -0.5082377 0.565675 0.7344791 -0.6057484 0.3059567 0.5026181 0.5226082 0.6886622 0.8877043 0.3578345 0.2897163 0.6241723 -0.1233573 0.7714869 0.9439906 0.04223859 0.3272578 0.662442 0.09589016 0.7429507 0.4340193 -0.8836951 0.1752436 0.7548261 -0.6406852 0.1405704 0.7785418 -0.2227587 0.5867293 0.7104597 -0.5668051 0.4171078 0.3642225 -0.6931031 0.6220532 0.8316556 0.07107985 0.5507239 0.887707 -0.2725349 0.3710809 0.9797916 0.02560567 0.1983754 0.8314709 -0.2451929 0.4985346 0.4328844 0.8696752 0.2372257 0.8935343 0.05746722 0.4453023 0.3585112 0.8195064 0.4470784 0.3344369 -0.4457735 0.8303241 0.5026131 -0.3306096 0.7987976 0.6241764 0.3152011 0.7148791 0.3344302 0.6420035 0.6899188 0.9998145 -0.01910507 0.002441525 0.4340466 0.8992841 -0.05377513 0.7551732 0.6515902 -0.07172065 0.4355359 0.8930454 -0.1130421 0.9286618 0.3549661 0.1076404 0.3069308 0.759499 0.5735459 0.5521293 0.5995567 0.5793833 0.4355716 -0.8927509 0.1152104 0.756755 -0.6483201 0.08368372 0.9416742 -0.3337595 0.04306274 0 0.9920828 -0.1255859 0.7182769 -0.1979495 0.6670041 0.5521281 -0.4327968 0.71263 0.3069341 -0.5889644 0.7476045 0.7182728 0.3608302 0.594883 0.7766203 0.08063149 0.6247876 -0.9416742 -0.3337595 0.04306274 0 -0.9917747 0.1279965</float_array>
          <technique_common>
            <accessor source="#Cube_018-mesh-normals-array" count="129" stride="3">
              <param name="X" type="float"/>
              <param name="Y" type="float"/>
              <param name="Z" type="float"/>
            </accessor>
          </technique_common>
        </source>
        <source id="Cube_018-mesh-map-0">
          <float_array id="Cube_018-mesh-map-0-array" count="1440">0.5189149 0.480571 0.5641139 0.4042373 0.5168704 0.4103047 0.297343 0.4157329 0.2907156 0.3320142 0.246649 0.3856358 0.1869345 0.4768038 0.2009116 0.3509851 0.131609 0.4394177 0.493696 0.2181795 0.4738789 0.2706378 0.4947437 0.2714436 0.246649 0.3856358 0.2541599 0.3000975 0.2009116 0.3509851 0.2478274 0.5105612 0.246649 0.3856358 0.1869345 0.4768038 0.4089572 0.2464397 0.4295071 0.1907936 0.3906584 0.2324948 0.4084101 0.46066 0.3131022 0.5392199 0.3799427 0.5617389 0.4084101 0.46066 0.4703627 0.4070289 0.4236639 0.3964356 0.4765349 0.1307983 0.4411355 0.1988506 0.4822283 0.1342942 0.4541335 0.2059358 0.4951136 0.1400917 0.4885168 0.1374365 0.2235867 0.2603097 0.2009116 0.3509851 0.2541599 0.3000975 0.50545 0.2188987 0.4947437 0.2714436 0.5136939 0.2685155 0.5742595 0.4807882 0.5088636 0.5870396 0.570035 0.591284 0.5189149 0.480571 0.4457162 0.5775917 0.5088636 0.5870396 0.4810858 0.2158012 0.451882 0.2660486 0.4738789 0.2706378 0.4642695 0.4739245 0.5168704 0.4103047 0.4703627 0.4070289 0.4642695 0.4739245 0.3799427 0.5617389 0.4457162 0.5775917 0.4677147 0.2116835 0.4297645 0.2578903 0.451882 0.2660486 0.4297645 0.2578903 0.4411355 0.1988506 0.4089572 0.2464397 0.3520426 0.4410267 0.4236639 0.3964356 0.3771882 0.3797942 0.4672687 0.1228371 0.419742 0.1820972 0.4715636 0.127004 0.3520426 0.4410267 0.3321977 0.3583402 0.297343 0.4157329 0.3131022 0.5392199 0.297343 0.4157329 0.2478274 0.5105612 0.3906584 0.2324948 0.419742 0.1820972 0.375817 0.2165982 0.5150125 0.1441741 0.493696 0.2181795 0.50545 0.2188987 0.4810858 0.2158012 0.5083824 0.1435016 0.5017773 0.1421371 0.5017773 0.1421371 0.4677147 0.2116835 0.4810858 0.2158012 0.4822283 0.1342942 0.4541335 0.2059358 0.4885168 0.1374365 0.4715636 0.127004 0.4295071 0.1907936 0.4765349 0.1307983 0.3073769 0.5541614 0.3799427 0.5617389 0.3131022 0.5392199 0.131609 0.4394177 0.1787975 0.4900456 0.1869345 0.4768038 0.1588272 0.3104436 0.131609 0.4394177 0.2009116 0.3509851 0.241674 0.5250456 0.3131022 0.5392199 0.2478274 0.5105612 0.32682 0.2511702 0.3906584 0.2324948 0.375817 0.2165982 0.5071019 0.6028781 0.570035 0.591284 0.5088636 0.5870396 0.3799427 0.5617389 0.4426708 0.5932279 0.4457162 0.5775917 0.08084034 0.3984419 0.1222993 0.4521992 0.131609 0.4394177 0.1787975 0.4900456 0.2478274 0.5105612 0.1869345 0.4768038 0.4119085 0.1728739 0.375817 0.2165982 0.419742 0.1820972 0.2907156 0.3320142 0.32682 0.2511702 0.2541599 0.3000975 0.3771882 0.3797942 0.4368615 0.3229644 0.4057258 0.3122365 0.4236639 0.3964356 0.4692503 0.3284426 0.4368615 0.3229644 0.4703627 0.4070289 0.5018767 0.3278586 0.4692503 0.3284426 0.5168704 0.4103047 0.5333911 0.3204512 0.5018767 0.3278586 0.3321977 0.3583402 0.3496031 0.2763416 0.2907156 0.3320142 0.3771882 0.3797942 0.3763715 0.296725 0.3321977 0.3583402 0.2541599 0.3000975 0.3096511 0.22157 0.2235867 0.2603097 0.3650531 0.1993103 0.32682 0.2511702 0.375817 0.2165982 0.3496031 0.2763416 0.4089572 0.2464397 0.3906584 0.2324948 0.3763715 0.296725 0.4297645 0.2578903 0.4089572 0.2464397 0.4368615 0.3229644 0.4297645 0.2578903 0.4057258 0.3122365 0.4692503 0.3284426 0.451882 0.2660486 0.4368615 0.3229644 0.5018767 0.3278586 0.4738789 0.2706378 0.4692503 0.3284426 0.5136939 0.2685155 0.5018767 0.3278586 0.5333911 0.3204512 0.4426708 0.5932279 0.5088636 0.5870396 0.4457162 0.5775917 0.5030218 0.9351612 0.5315742 0.9499378 0.5452477 0.8614026 0.5315742 0.9499378 0.5622089 0.9512358 0.5452477 0.8614026 0.5282869 0.7715696 0.5002349 0.783948 0.5452477 0.8614026 0.5002349 0.783948 0.4790354 0.8081179 0.5452477 0.8614026 0.4790354 0.8081179 0.4679161 0.8404003 0.5452477 0.8614026 0.4679161 0.8404003 0.4685702 0.87588 0.5452477 0.8614026 0.4685702 0.87588 0.4808974 0.9091554 0.5452477 0.8614026 0.4808974 0.9091554 0.5030218 0.9351612 0.5452477 0.8614026 0.5189149 0.480571 0.5641139 0.4042373 0.5742595 0.4807882 0.297343 0.4157329 0.2907156 0.3320142 0.3321977 0.3583402 0.1869345 0.4768038 0.2009116 0.3509851 0.246649 0.3856358 0.4738789 0.2706378 0.493696 0.2181795 0.4947437 0.2714436 0.246649 0.3856358 0.2541599 0.3000975 0.2907156 0.3320142 0.2478274 0.5105612 0.246649 0.3856358 0.297343 0.4157329 0.4295071 0.1907936 0.4089572 0.2464397 0.3906584 0.2324948 0.3131022 0.5392199 0.4084101 0.46066 0.3799427 0.5617389 0.4084101 0.46066 0.4703627 0.4070289 0.4642695 0.4739245 0.4765349 0.1307983 0.4411355 0.1988506 0.4295071 0.1907936 0.4951136 0.1400917 0.4541335 0.2059358 0.4885168 0.1374365 0.2235867 0.2603097 0.2009116 0.3509851 0.1588272 0.3104436 0.4947437 0.2714436 0.50545 0.2188987 0.5136939 0.2685155 0.5088636 0.5870396 0.5742595 0.4807882 0.570035 0.591284 0.4457162 0.5775917 0.5189149 0.480571 0.5088636 0.5870396 0.451882 0.2660486 0.4810858 0.2158012 0.4738789 0.2706378 0.4642695 0.4739245 0.5168704 0.4103047 0.5189149 0.480571 0.3799427 0.5617389 0.4642695 0.4739245 0.4457162 0.5775917 0.4297645 0.2578903 0.4677147 0.2116835 0.451882 0.2660486 0.4411355 0.1988506 0.4297645 0.2578903 0.4089572 0.2464397 0.3520426 0.4410267 0.4236639 0.3964356 0.4084101 0.46066 0.4672687 0.1228371 0.419742 0.1820972 0.4119085 0.1728739 0.3520426 0.4410267 0.3321977 0.3583402 0.3771882 0.3797942 0.3131022 0.5392199 0.297343 0.4157329 0.3520426 0.4410267 0.419742 0.1820972 0.3906584 0.2324948 0.375817 0.2165982 0.5150125 0.1441741 0.493696 0.2181795 0.5083824 0.1435016 0.5083824 0.1435016 0.4810858 0.2158012 0.5017773 0.1421371 0.5017773 0.1421371 0.4677147 0.2116835 0.4951136 0.1400917 0.4541335 0.2059358 0.4822283 0.1342942 0.4885168 0.1374365 0.4295071 0.1907936 0.4715636 0.127004 0.4765349 0.1307983 0.3799427 0.5617389 0.3073769 0.5541614 0.3131022 0.5392199 0.131609 0.4394177 0.1787975 0.4900456 0.1222993 0.4521992 0.1588272 0.3104436 0.131609 0.4394177 0.08084034 0.3984419 0.3131022 0.5392199 0.241674 0.5250456 0.2478274 0.5105612 0.32682 0.2511702 0.3906584 0.2324948 0.3496031 0.2763416 0.570035 0.591284 0.5071019 0.6028781 0.5088636 0.5870396 0.3799427 0.5617389 0.4426708 0.5932279 0.3755308 0.577053 0.08084034 0.3984419 0.1222993 0.4521992 0.07002866 0.4114349 0.2478274 0.5105612 0.1787975 0.4900456 0.1869345 0.4768038 0.375817 0.2165982 0.4119085 0.1728739 0.419742 0.1820972 0.2907156 0.3320142 0.32682 0.2511702 0.3496031 0.2763416 0.3771882 0.3797942 0.4368615 0.3229644 0.4236639 0.3964356 0.4236639 0.3964356 0.4692503 0.3284426 0.4703627 0.4070289 0.4703627 0.4070289 0.5018767 0.3278586 0.5168704 0.4103047 0.5168704 0.4103047 0.5333911 0.3204512 0.5641139 0.4042373 0.3321977 0.3583402 0.3496031 0.2763416 0.3763715 0.296725 0.3771882 0.3797942 0.3763715 0.296725 0.4057258 0.3122365 0.2541599 0.3000975 0.3096511 0.22157 0.32682 0.2511702 0.32682 0.2511702 0.3650531 0.1993103 0.375817 0.2165982 0.3496031 0.2763416 0.4089572 0.2464397 0.3763715 0.296725 0.3763715 0.296725 0.4297645 0.2578903 0.4057258 0.3122365 0.4368615 0.3229644 0.4297645 0.2578903 0.451882 0.2660486 0.4692503 0.3284426 0.451882 0.2660486 0.4738789 0.2706378 0.5018767 0.3278586 0.4738789 0.2706378 0.4947437 0.2714436 0.5018767 0.3278586 0.5136939 0.2685155 0.5333911 0.3204512 0.5088636 0.5870396 0.4426708 0.5932279 0.4457162 0.5775917 0.5030218 0.9351612 0.5452477 0.8614026 0.5315742 0.9499378 0.5315742 0.9499378 0.5452477 0.8614026 0.5622089 0.9512358 0.5282869 0.7715696 0.5452477 0.8614026 0.5002349 0.783948 0.5002349 0.783948 0.5452477 0.8614026 0.4790354 0.8081179 0.4790354 0.8081179 0.5452477 0.8614026 0.4679161 0.8404003 0.4679161 0.8404003 0.5452477 0.8614026 0.4685702 0.87588 0.4685702 0.87588 0.5452477 0.8614026 0.4808974 0.9091554 0.4808974 0.9091554 0.5452477 0.8614026 0.5030218 0.9351612 0.5189149 0.480571 0.5742595 0.4807882 0.5641139 0.4042373 0.297343 0.4157329 0.3321977 0.3583402 0.2907156 0.3320142 0.1869345 0.4768038 0.246649 0.3856358 0.2009116 0.3509851 0.493696 0.2181795 0.4810858 0.2158012 0.4738789 0.2706378 0.246649 0.3856358 0.2907156 0.3320142 0.2541599 0.3000975 0.2478274 0.5105612 0.297343 0.4157329 0.246649 0.3856358 0.4089572 0.2464397 0.4411355 0.1988506 0.4295071 0.1907936 0.4084101 0.46066 0.3520426 0.4410267 0.3131022 0.5392199 0.4084101 0.46066 0.4642695 0.4739245 0.4703627 0.4070289 0.4765349 0.1307983 0.4295071 0.1907936 0.4411355 0.1988506 0.4541335 0.2059358 0.4677147 0.2116835 0.4951136 0.1400917 0.2235867 0.2603097 0.1588272 0.3104436 0.2009116 0.3509851 0.50545 0.2188987 0.493696 0.2181795 0.4947437 0.2714436 0.5742595 0.4807882 0.5189149 0.480571 0.5088636 0.5870396 0.5189149 0.480571 0.4642695 0.4739245 0.4457162 0.5775917 0.4810858 0.2158012 0.4677147 0.2116835 0.451882 0.2660486 0.4642695 0.4739245 0.5189149 0.480571 0.5168704 0.4103047 0.4642695 0.4739245 0.4084101 0.46066 0.3799427 0.5617389 0.4677147 0.2116835 0.4541335 0.2059358 0.4297645 0.2578903 0.4297645 0.2578903 0.4541335 0.2059358 0.4411355 0.1988506 0.3520426 0.4410267 0.4084101 0.46066 0.4236639 0.3964356 0.4672687 0.1228371 0.4119085 0.1728739 0.419742 0.1820972 0.3520426 0.4410267 0.3771882 0.3797942 0.3321977 0.3583402 0.3131022 0.5392199 0.3520426 0.4410267 0.297343 0.4157329 0.3906584 0.2324948 0.4295071 0.1907936 0.419742 0.1820972 0.5150125 0.1441741 0.5083824 0.1435016 0.493696 0.2181795 0.4810858 0.2158012 0.493696 0.2181795 0.5083824 0.1435016 0.5017773 0.1421371 0.4951136 0.1400917 0.4677147 0.2116835 0.4822283 0.1342942 0.4411355 0.1988506 0.4541335 0.2059358 0.4715636 0.127004 0.419742 0.1820972 0.4295071 0.1907936 0.3073769 0.5541614 0.3755308 0.577053 0.3799427 0.5617389 0.131609 0.4394177 0.1222993 0.4521992 0.1787975 0.4900456 0.1588272 0.3104436 0.08084034 0.3984419 0.131609 0.4394177 0.241674 0.5250456 0.3073769 0.5541614 0.3131022 0.5392199 0.32682 0.2511702 0.3496031 0.2763416 0.3906584 0.2324948 0.5071019 0.6028781 0.5688813 0.6073222 0.570035 0.591284 0.3799427 0.5617389 0.3755308 0.577053 0.4426708 0.5932279 0.08084034 0.3984419 0.07002866 0.4114349 0.1222993 0.4521992 0.1787975 0.4900456 0.241674 0.5250456 0.2478274 0.5105612 0.4119085 0.1728739 0.3650531 0.1993103 0.375817 0.2165982 0.2907156 0.3320142 0.3496031 0.2763416 0.32682 0.2511702 0.3771882 0.3797942 0.4236639 0.3964356 0.4368615 0.3229644 0.4236639 0.3964356 0.4703627 0.4070289 0.4692503 0.3284426 0.4703627 0.4070289 0.5168704 0.4103047 0.5018767 0.3278586 0.5168704 0.4103047 0.5641139 0.4042373 0.5333911 0.3204512 0.3321977 0.3583402 0.3763715 0.296725 0.3496031 0.2763416 0.3771882 0.3797942 0.4057258 0.3122365 0.3763715 0.296725 0.2541599 0.3000975 0.32682 0.2511702 0.3096511 0.22157 0.3650531 0.1993103 0.3096511 0.22157 0.32682 0.2511702 0.3496031 0.2763416 0.3763715 0.296725 0.4089572 0.2464397 0.3763715 0.296725 0.4057258 0.3122365 0.4297645 0.2578903 0.4368615 0.3229644 0.451882 0.2660486 0.4297645 0.2578903 0.4692503 0.3284426 0.4738789 0.2706378 0.451882 0.2660486 0.5018767 0.3278586 0.4947437 0.2714436 0.4738789 0.2706378 0.5136939 0.2685155 0.4947437 0.2714436 0.5018767 0.3278586 0.4426708 0.5932279 0.5071019 0.6028781 0.5088636 0.5870396 0.5189149 0.480571 0.5168704 0.4103047 0.5641139 0.4042373 0.297343 0.4157329 0.246649 0.3856358 0.2907156 0.3320142 0.1869345 0.4768038 0.131609 0.4394177 0.2009116 0.3509851 0.4738789 0.2706378 0.4810858 0.2158012 0.493696 0.2181795 0.246649 0.3856358 0.2009116 0.3509851 0.2541599 0.3000975 0.2478274 0.5105612 0.1869345 0.4768038 0.246649 0.3856358 0.4295071 0.1907936 0.4411355 0.1988506 0.4089572 0.2464397 0.3131022 0.5392199 0.3520426 0.4410267 0.4084101 0.46066 0.4084101 0.46066 0.4236639 0.3964356 0.4703627 0.4070289 0.4765349 0.1307983 0.4822283 0.1342942 0.4411355 0.1988506 0.4951136 0.1400917 0.4677147 0.2116835 0.4541335 0.2059358 0.2235867 0.2603097 0.2541599 0.3000975 0.2009116 0.3509851 0.4947437 0.2714436 0.493696 0.2181795 0.50545 0.2188987 0.5088636 0.5870396 0.5189149 0.480571 0.5742595 0.4807882 0.4457162 0.5775917 0.4642695 0.4739245 0.5189149 0.480571 0.451882 0.2660486 0.4677147 0.2116835 0.4810858 0.2158012 0.4642695 0.4739245 0.4703627 0.4070289 0.5168704 0.4103047 0.3799427 0.5617389 0.4084101 0.46066 0.4642695 0.4739245 0.4297645 0.2578903 0.4541335 0.2059358 0.4677147 0.2116835 0.4411355 0.1988506 0.4541335 0.2059358 0.4297645 0.2578903 0.3520426 0.4410267 0.3771882 0.3797942 0.4236639 0.3964356 0.4672687 0.1228371 0.4715636 0.127004 0.419742 0.1820972 0.3520426 0.4410267 0.297343 0.4157329 0.3321977 0.3583402 0.3131022 0.5392199 0.2478274 0.5105612 0.297343 0.4157329 0.419742 0.1820972 0.4295071 0.1907936 0.3906584 0.2324948 0.5150125 0.1441741 0.50545 0.2188987 0.493696 0.2181795 0.5083824 0.1435016 0.493696 0.2181795 0.4810858 0.2158012 0.5017773 0.1421371 0.4810858 0.2158012 0.4677147 0.2116835 0.4541335 0.2059358 0.4411355 0.1988506 0.4822283 0.1342942 0.4295071 0.1907936 0.419742 0.1820972 0.4715636 0.127004 0.3799427 0.5617389 0.3755308 0.577053 0.3073769 0.5541614 0.131609 0.4394177 0.1869345 0.4768038 0.1787975 0.4900456 0.1588272 0.3104436 0.2009116 0.3509851 0.131609 0.4394177 0.3131022 0.5392199 0.3073769 0.5541614 0.241674 0.5250456 0.32682 0.2511702 0.375817 0.2165982 0.3906584 0.2324948 0.570035 0.591284 0.5688813 0.6073222 0.5071019 0.6028781 0.3799427 0.5617389 0.4457162 0.5775917 0.4426708 0.5932279 0.08084034 0.3984419 0.131609 0.4394177 0.1222993 0.4521992 0.2478274 0.5105612 0.241674 0.5250456 0.1787975 0.4900456 0.375817 0.2165982 0.3650531 0.1993103 0.4119085 0.1728739 0.2907156 0.3320142 0.2541599 0.3000975 0.32682 0.2511702 0.3771882 0.3797942 0.4057258 0.3122365 0.4368615 0.3229644 0.4236639 0.3964356 0.4368615 0.3229644 0.4692503 0.3284426 0.4703627 0.4070289 0.4692503 0.3284426 0.5018767 0.3278586 0.5168704 0.4103047 0.5018767 0.3278586 0.5333911 0.3204512 0.3321977 0.3583402 0.2907156 0.3320142 0.3496031 0.2763416 0.3771882 0.3797942 0.3321977 0.3583402 0.3763715 0.296725 0.2541599 0.3000975 0.2235867 0.2603097 0.3096511 0.22157 0.32682 0.2511702 0.3096511 0.22157 0.3650531 0.1993103 0.3496031 0.2763416 0.3906584 0.2324948 0.4089572 0.2464397 0.3763715 0.296725 0.4089572 0.2464397 0.4297645 0.2578903 0.4368615 0.3229644 0.4057258 0.3122365 0.4297645 0.2578903 0.4692503 0.3284426 0.4368615 0.3229644 0.451882 0.2660486 0.5018767 0.3278586 0.4692503 0.3284426 0.4738789 0.2706378 0.5018767 0.3278586 0.4947437 0.2714436 0.5136939 0.2685155 0.5088636 0.5870396 0.5071019 0.6028781 0.4426708 0.5932279</float_array>
          <technique_common>
            <accessor source="#Cube_018-mesh-map-0-array" count="720" stride="2">
              <param name="S" type="float"/>
              <param name="T" type="float"/>
            </accessor>
          </technique_common>
        </source>
        <vertices id="Cube_018-mesh-vertices">
          <input semantic="POSITION" source="#Cube_018-mesh-positions"/>
        </vertices>
        <triangles material="Render_004-material" count="240">
          <input semantic="VERTEX" source="#Cube_018-mesh-vertices" offset="0"/>
          <input semantic="NORMAL" source="#Cube_018-mesh-normals" offset="1"/>
          <input semantic="TEXCOORD" source="#Cube_018-mesh-map-0" offset="2" set="0"/>
          <p>2 0 0 96 1 1 1 2 2 18 3 3 21 4 4 22 5 5 23 6 6 26 7 7 27 8 8 28 9 9 50 10 10 49 11 11 22 5 12 25 12 13 26 7 14 19 13 15 22 5 16 23 6 17 53 14 18 33 15 19 54 16 20 10 17 21 15 18 22 11 19 23 10 17 24 5 20 25 9 21 26 20 22 27 32 23 28 16 24 29 31 25 30 8 26 31 12 27 32 92 28 33 26 7 34 25 12 35 99 29 36 49 11 37 119 30 38 97 31 39 3 32 40 98 33 41 2 0 42 7 34 43 3 32 44 29 35 45 51 36 46 50 10 47 6 37 48 1 2 49 5 20 50 6 37 51 11 19 52 7 34 53 30 38 54 52 39 55 51 36 56 52 39 57 32 23 58 53 14 59 14 40 60 9 21 61 13 41 62 91 42 63 34 43 64 24 44 65 14 40 66 17 45 67 18 3 68 15 18 69 18 3 70 19 13 71 54 16 72 34 43 73 55 46 74 95 47 75 28 9 76 99 29 77 29 35 78 0 48 79 4 49 80 4 49 81 30 38 82 29 35 83 16 24 84 31 25 85 12 27 86 24 44 87 33 15 88 20 22 89 39 50 90 11 19 91 15 18 92 27 8 93 36 51 94 23 6 95 93 52 96 27 8 97 26 7 98 41 53 99 15 18 100 19 13 101 48 54 102 54 16 103 55 46 104 38 55 105 98 33 106 3 32 107 11 19 108 40 56 109 7 34 110 94 57 111 35 58 112 27 8 113 36 51 114 19 13 115 23 6 116 100 59 117 55 46 118 34 43 119 21 4 120 48 54 121 25 12 122 13 41 123 44 60 124 45 61 125 9 21 126 43 62 127 44 60 128 5 20 129 42 63 130 43 62 131 1 2 132 110 64 133 42 63 134 17 45 135 47 65 136 21 4 137 13 41 138 46 66 139 17 45 140 25 12 141 118 67 142 92 28 143 127 68 144 48 54 145 55 46 146 47 65 147 53 14 148 54 16 149 46 66 150 52 39 151 53 14 152 44 60 153 52 39 154 45 61 155 43 62 156 51 36 157 44 60 158 42 63 159 50 10 160 43 62 161 119 30 162 42 63 163 110 64 164 40 56 165 3 32 166 7 34 167 4 49 168 0 48 169 128 69 170 0 48 171 95 47 172 128 69 173 91 42 174 24 44 175 128 69 176 24 44 177 20 22 178 128 69 179 20 22 180 16 24 181 128 69 182 16 24 183 12 27 184 128 69 185 12 27 186 8 26 187 128 69 188 8 26 189 4 49 190 128 69 191 58 70 192 96 1 193 97 31 194 74 71 195 77 72 196 73 73 197 79 74 198 82 75 199 78 76 200 121 77 201 84 78 202 120 79 203 78 76 204 81 80 205 77 72 206 75 81 207 78 76 208 74 71 209 89 82 210 124 83 211 125 84 212 71 85 213 66 86 214 67 87 215 66 86 216 61 88 217 62 89 218 76 90 219 88 91 220 89 82 221 64 92 222 87 93 223 68 94 224 92 28 225 82 75 226 93 52 227 120 79 228 99 29 229 119 30 230 59 95 231 97 31 232 98 33 233 63 96 234 58 70 235 59 95 236 122 97 237 85 98 238 121 77 239 62 89 240 57 99 241 58 70 242 67 87 243 62 89 244 63 96 245 123 100 246 86 101 247 122 97 248 88 91 249 123 100 250 124 83 251 70 102 252 65 103 253 66 86 254 91 42 255 90 104 256 100 59 257 70 102 258 73 73 259 69 105 260 71 85 261 74 71 262 70 102 263 90 104 264 125 84 265 126 106 266 95 47 267 84 78 268 56 107 269 56 107 270 85 98 271 60 108 272 60 108 273 86 101 274 64 92 275 87 93 276 72 109 277 68 94 278 89 82 279 80 110 280 76 90 281 67 87 282 106 111 283 71 85 284 83 112 285 103 113 286 102 114 287 93 52 288 83 112 289 94 57 290 71 85 291 108 115 292 75 81 293 117 116 294 125 84 295 116 117 296 98 33 297 105 118 298 59 95 299 67 87 300 107 119 301 104 120 302 94 57 303 102 114 304 101 121 305 75 81 306 103 113 307 79 74 308 126 106 309 100 59 310 90 104 311 77 72 312 117 116 313 116 117 314 69 105 315 113 122 316 65 103 317 65 103 318 112 123 319 61 88 320 61 88 321 111 124 322 57 99 323 57 99 324 110 64 325 96 1 326 73 73 327 116 117 328 115 125 329 69 105 330 115 125 331 114 126 332 81 80 333 118 67 334 117 116 335 117 116 336 127 68 337 126 106 338 116 117 339 124 83 340 115 125 341 115 125 342 123 100 343 114 126 344 113 122 345 123 100 346 122 97 347 112 123 348 122 97 349 121 77 350 111 124 351 121 77 352 120 79 353 111 124 354 119 30 355 110 64 356 59 95 357 107 119 358 63 96 359 60 108 360 128 69 361 56 107 362 56 107 363 128 69 364 95 47 365 91 42 366 128 69 367 80 110 368 80 110 369 128 69 370 76 90 371 76 90 372 128 69 373 72 109 374 72 109 375 128 69 376 68 94 377 68 94 378 128 69 379 64 92 380 64 92 381 128 69 382 60 108 383 2 0 384 97 31 385 96 1 386 18 3 387 17 45 388 21 4 389 23 6 390 22 5 391 26 7 392 28 9 393 29 35 394 50 10 395 22 5 396 21 4 397 25 12 398 19 13 399 18 3 400 22 5 401 53 14 402 32 23 403 33 15 404 10 17 405 14 40 406 15 18 407 10 17 408 6 37 409 5 20 410 20 22 411 33 15 412 32 23 413 31 25 414 30 38 415 8 26 416 92 28 417 93 52 418 26 7 419 99 29 420 28 9 421 49 11 422 97 31 423 2 0 424 3 32 425 2 0 426 6 37 427 7 34 428 29 35 429 30 38 430 51 36 431 6 37 432 2 0 433 1 2 434 6 37 435 10 17 436 11 19 437 30 38 438 31 25 439 52 39 440 52 39 441 31 25 442 32 23 443 14 40 444 10 17 445 9 21 446 91 42 447 100 59 448 34 43 449 14 40 450 13 41 451 17 45 452 15 18 453 14 40 454 18 3 455 54 16 456 33 15 457 34 43 458 95 47 459 0 48 460 28 9 461 29 35 462 28 9 463 0 48 464 4 49 465 8 26 466 30 38 467 16 24 468 32 23 469 31 25 470 24 44 471 34 43 472 33 15 473 39 50 474 37 127 475 11 19 476 27 8 477 35 58 478 36 51 479 93 52 480 94 57 481 27 8 482 41 53 483 39 50 484 15 18 485 48 54 486 47 65 487 54 16 488 38 55 489 109 128 490 98 33 491 11 19 492 37 127 493 40 56 494 94 57 495 101 121 496 35 58 497 36 51 498 41 53 499 19 13 500 100 59 501 127 68 502 55 46 503 21 4 504 47 65 505 48 54 506 13 41 507 9 21 508 44 60 509 9 21 510 5 20 511 43 62 512 5 20 513 1 2 514 42 63 515 1 2 516 96 1 517 110 64 518 17 45 519 46 66 520 47 65 521 13 41 522 45 61 523 46 66 524 25 12 525 48 54 526 118 67 527 127 68 528 118 67 529 48 54 530 47 65 531 46 66 532 53 14 533 46 66 534 45 61 535 52 39 536 44 60 537 51 36 538 52 39 539 43 62 540 50 10 541 51 36 542 42 63 543 49 11 544 50 10 545 119 30 546 49 11 547 42 63 548 40 56 549 38 55 550 3 32 551 58 70 552 57 99 553 96 1 554 74 71 555 78 76 556 77 72 557 79 74 558 83 112 559 82 75 560 121 77 561 85 98 562 84 78 563 78 76 564 82 75 565 81 80 566 75 81 567 79 74 568 78 76 569 89 82 570 88 91 571 124 83 572 71 85 573 70 102 574 66 86 575 66 86 576 65 103 577 61 88 578 76 90 579 72 109 580 88 91 581 64 92 582 86 101 583 87 93 584 92 28 585 81 80 586 82 75 587 120 79 588 84 78 589 99 29 590 59 95 591 58 70 592 97 31 593 63 96 594 62 89 595 58 70 596 122 97 597 86 101 598 85 98 599 62 89 600 61 88 601 57 99 602 67 87 603 66 86 604 62 89 605 123 100 606 87 93 607 86 101 608 88 91 609 87 93 610 123 100 611 70 102 612 69 105 613 65 103 614 91 42 615 80 110 616 90 104 617 70 102 618 74 71 619 73 73 620 71 85 621 75 81 622 74 71 623 90 104 624 89 82 625 125 84 626 95 47 627 99 29 628 84 78 629 56 107 630 84 78 631 85 98 632 60 108 633 85 98 634 86 101 635 87 93 636 88 91 637 72 109 638 89 82 639 90 104 640 80 110 641 67 87 642 104 120 643 106 111 644 83 112 645 79 74 646 103 113 647 93 52 648 82 75 649 83 112 650 71 85 651 106 111 652 108 115 653 117 116 654 126 106 655 125 84 656 98 33 657 109 128 658 105 118 659 67 87 660 63 96 661 107 119 662 94 57 663 83 112 664 102 114 665 75 81 666 108 115 667 103 113 668 126 106 669 127 68 670 100 59 671 77 72 672 81 80 673 117 116 674 69 105 675 114 126 676 113 122 677 65 103 678 113 122 679 112 123 680 61 88 681 112 123 682 111 124 683 57 99 684 111 124 685 110 64 686 73 73 687 77 72 688 116 117 689 69 105 690 73 73 691 115 125 692 81 80 693 92 28 694 118 67 695 117 116 696 118 67 697 127 68 698 116 117 699 125 84 700 124 83 701 115 125 702 124 83 703 123 100 704 113 122 705 114 126 706 123 100 707 112 123 708 113 122 709 122 97 710 111 124 711 112 123 712 121 77 713 111 124 714 120 79 715 119 30 716 59 95 717 105 118 718 107 119 719</p>
        </triangles>
      </mesh>
    </geometry>
  </library_geometries>
  <library_visual_scenes>
    <visual_scene id="Scene" name="Scene">
      <node id="Pers_conical_01" name="Pers_conical_01" type="NODE">
        <matrix sid="transform">1 0 0 0 0 1 0 0 0 0 1 0 0 0 0 1</matrix>
        <instance_geometry url="#Cube_018-mesh" name="Pers_conical_01">
          <bind_material>
            <technique_common>
              <instance_material symbol="Render_004-material" target="#Render_004-material">
                <bind_vertex_input semantic="Cube_018-mesh-map-0" input_semantic="TEXCOORD" input_set="0"/>
              </instance_material>
            </technique_common>
          </bind_material>
        </instance_geometry>
        <node id="prop_hair" name="prop_hair" type="NODE">
          <matrix sid="transform">0.1383678 0 0 0 0 0.1371338 0.01843761 0.03278786 0 -0.01843761 0.1371338 0.9395974 0 0 0 1</matrix>
        </node>
      </node>
    </visual_scene>
  </library_visual_scenes>
  <scene>
    <instance_visual_scene url="#Scene"/>
  </scene>
</COLLADA>