<?xml version="1.0" encoding="utf-8"?>
<COLLADA xmlns="http://www.collada.org/2005/11/COLLADASchema" version="1.4.1" xmlns:xsi="http://www.w3.org/2001/XMLSchema-instance">
  <asset>
    <contributor>
      <author>Blender User</author>
      <authoring_tool>Blender 4.3.1 commit date:2024-12-10, commit time:07:46, hash:33d812126174</authoring_tool>
    </contributor>
    <created>2026-04-28T19:22:41</created>
    <modified>2026-04-28T19:22:41</modified>
    <unit name="meter" meter="1"/>
    <up_axis>Z_UP</up_axis>
  </asset>
  <library_effects>
    <effect id="Materiais-effect">
      <profile_COMMON>
        <newparam sid="pers_merc_dds-surface">
          <surface type="2D">
            <init_from>pers_merc_dds</init_from>
          </surface>
        </newparam>
        <newparam sid="pers_merc_dds-sampler">
          <sampler2D>
            <source>pers_merc_dds-surface</source>
          </sampler2D>
        </newparam>
        <technique sid="common">
          <lambert>
            <emission>
              <color sid="emission">0 0 0 1</color>
            </emission>
            <diffuse>
              <texture texture="pers_merc_dds-sampler" texcoord="pers_merc_ship_mesh_002-mesh-map-0"/>
            </diffuse>
            <index_of_refraction>
              <float sid="ior">1.5</float>
            </index_of_refraction>
          </lambert>
        </technique>
      </profile_COMMON>
    </effect>
  </library_effects>
  <library_images>
    <image id="pers_merc_dds" name="pers_merc_dds">
      <init_from>/home/welton/Downloads/pers_merc.dds</init_from>
    </image>
  </library_images>
  <library_materials>
    <material id="Materiais-material" name="Materiais">
      <instance_effect url="#Materiais-effect"/>
    </material>
  </library_materials>
  <library_geometries>
    <geometry id="pers_merc_ship_mesh_002-mesh" name="pers_merc_ship_mesh.002">
      <mesh>
        <source id="pers_merc_ship_mesh_002-mesh-positions">
          <float_array id="pers_merc_ship_mesh_002-mesh-positions-array" count="1182">-0.9638119 10.61559 0.3109738 -1.048286 10.61177 0.3241948 -1.046558 10.70008 0.3558658 -0.9620839 10.70389 0.3426447 -0.2501479 8.76993 4.439733 -0.3346219 8.76612 4.452945 -0.3328939 8.854434 4.484625 -0.2484198 8.858242 4.471404 -1.233488 11.90395 -1.111188 -1.362989 11.42567 -1.496514 -1.278515 11.42949 -1.509735 -0.9896149 11.22597 0.2886537 -1.401833 5.59849 1.385808 1.387159 5.59849 1.385808 -1.401833 2.66549 1.177836 1.387159 2.66549 1.177836 -1.401833 2.66549 1.437162 -1.401833 5.59849 1.645134 1.387159 5.59849 1.645134 1.387159 2.66549 1.437162 -1.259831 5.43573 1.634109 1.245157 5.43573 1.634109 -1.259831 2.82824 1.448187 1.245157 2.82824 1.448187 -1.259831 2.82824 0.5698317 -1.259831 5.43573 0.7557538 1.245157 5.43573 0.7557538 1.245157 2.82824 0.5698317 1.245157 -2.82824 1.327596 1.245157 -5.43573 1.513518 -1.259831 -5.43573 1.513518 -1.259831 -2.82824 1.327596 1.245157 -2.82824 1.448187 -1.259831 -2.82824 1.448187 1.245157 -5.43573 1.634109 -1.259831 -5.43573 1.634109 1.387159 -2.66549 1.437162 1.387159 -5.59849 1.645134 -1.401833 -5.59849 1.645134 -1.401833 -2.66549 1.437162 1.387159 -2.66549 1.177836 -1.401833 -2.66549 1.177836 1.387159 -5.59849 1.385808 -1.401833 -5.59849 1.385808 0.1793951 -12.04294 5.605341 0.1793951 12.03073 5.605341 -0.1940689 -12.04294 5.605341 -0.1940689 12.03073 5.605341 0.1793951 -13.22719 5.605341 0.1793951 13.21498 5.605341 -0.1940689 -13.22719 5.605341 -0.1940689 13.21498 5.605341 -0.3143269 -13.03804 3.138567 -0.3143269 13.02584 3.138567 -0.3143269 -12.20056 3.138567 -0.3143269 12.18835 3.138567 0.2996531 -12.20056 3.138567 0.2996531 12.18835 3.138567 0.2996531 -13.03804 3.138567 0.2996531 13.02584 3.138567 0.3593591 -12.87055 1.096728 0.3593591 12.85834 1.096728 -0.3740329 -12.87055 1.096728 -0.3740329 12.85834 1.096728 0.3593591 -6.117285 -1.507062 0.3593591 6.105079 -1.507062 -0.3740329 -6.117285 -1.507062 -0.3740329 6.105079 -1.507062 0.3593591 -6.117285 -0.5911141 0.3593591 6.105079 -0.5911141 -0.3740329 -6.117285 -0.5911141 -0.3740329 6.105079 -0.5911141 0.3593591 -0.006102681 -2.470917 -0.3740329 -0.006102681 -2.470917 0.3593591 -0.006102681 -1.554969 -0.3740329 -0.006102681 -1.554969 0.3593591 -9.172877 0.2550657 0.3593591 9.16067 0.2550657 -0.3740329 -9.172877 0.2550657 -0.3740329 9.16067 0.2550657 -0.3740329 -9.172877 -0.5752475 -0.3740329 9.16067 -0.5752475 0.3593591 -9.172877 -0.5752475 0.3593591 9.16067 -0.5752475 0.3593591 -3.061694 -1.218432 0.3593591 3.049488 -1.218432 -0.3740329 -3.061694 -1.218432 -0.3740329 3.049488 -1.218432 0.3593591 -3.061694 -2.13438 0.3593591 3.049488 -2.13438 -0.3740329 -3.061694 -2.13438 -0.3740329 3.049488 -2.13438 0.3593591 -11.37942 1.656366 0.3593591 11.36721 1.656366 -0.3740329 -11.37942 1.656366 -0.3740329 11.36721 1.656366 0.1937951 -12.63507 5.397036 0.1937951 12.62287 5.397036 -0.2084689 -12.63507 5.397036 -0.2084689 12.62287 5.397036 -0.7525909 11.28744 1.602726 0.7379171 11.28744 1.602726 -0.7525909 -11.29965 1.602726 0.7379171 -11.29965 1.602726 -0.960824 11.28744 2.728788 0.9461502 11.28744 2.728788 -0.960824 -11.29965 2.728788 0.9461502 -11.29965 2.728788 -2.161847 -0.006102681 0.4838728 2.147173 -0.006102681 0.4838728 -2.912753 -0.006102681 2.379894 2.898079 -0.006102681 2.379894 -1.778159 6.105079 0.7754908 1.763485 6.105079 0.7754908 -1.778159 -6.117285 0.7754908 1.763485 -6.117285 0.7754908 -2.466317 6.10509 2.459193 2.451643 6.10509 2.459193 -2.466317 -6.117296 2.459193 2.451643 -6.117296 2.459193 -0.007336795 11.28744 0.6398338 -0.007336795 -11.29965 0.6398338 -0.705953 11.28744 2.728788 0.6912791 11.28744 2.728788 -0.705953 -11.29965 2.728788 0.6912791 -11.29965 2.728788 -0.007336795 -0.006102681 -2.261424 -2.639774 -0.006102681 2.379894 2.6251 -0.006102681 2.379894 -0.007336795 6.105079 -1.279803 -0.007336795 -6.117285 -1.279803 -2.185175 6.105079 2.459193 2.170501 6.105079 2.459193 -2.185175 -6.117285 2.459193 2.170501 -6.117285 2.459193 -1.2908 9.160682 1.139703 1.276117 9.160682 1.139703 -1.290791 -9.172887 1.139703 1.276126 -9.172887 1.139703 -1.808291 9.160682 2.570199 1.793617 9.160682 2.570199 -1.808291 -9.172887 2.570199 1.793617 -9.172887 2.570199 -0.007336795 9.16067 -0.4175675 -0.007336795 -9.172877 -0.4175675 -1.497998 9.160682 2.570199 1.483324 9.160682 2.570199 -1.497998 -9.172887 2.570199 1.483324 -9.172887 2.570199 -2.03456 3.049488 0.5700208 2.019886 3.049488 0.5700208 -2.03456 -3.061694 0.5700208 2.019886 -3.061694 0.5700208 -2.760014 3.049499 2.395752 2.74534 3.049499 2.395752 -2.760014 -3.061705 2.395752 2.74534 -3.061705 2.395752 -0.007336795 3.049488 -1.916004 -0.007336795 -3.061694 -1.916004 -2.491769 3.049488 2.395752 2.477095 3.049488 2.395752 -2.491769 -3.061694 2.395752 2.477095 -3.061694 2.395752 -0.007336795 12.61369 1.904307 -0.007336795 -12.6259 1.904307 -0.007336795 12.72762 2.887377 -0.007336795 -12.73982 2.887377 -0.2087299 12.72762 2.887377 0.194056 12.72762 2.887377 -0.2087299 -12.73982 2.887377 0.194056 -12.73982 2.887377 -0.1610029 12.69416 2.139198 0.1463291 12.69416 2.139198 -0.1610029 -12.70636 2.139198 0.1463291 -12.70636 2.139198 -0.007336795 12.04526 2.380209 -0.007336795 -12.05746 2.380209 -1.955837 3.049488 1.237245 1.941163 3.049488 1.237245 -1.955837 -3.061694 1.237245 -1.054487 9.182287 1.770711 -1.054487 -9.194492 1.770711 -1.66214 6.06802 1.423158 1.647466 6.06802 1.423158 -1.66214 -6.080225 1.423158 -2.093645 -0.006102681 1.221387 -0.5010409 11.28744 2.117283 -0.5010409 -11.29965 2.117283 -0.9620569 11.28744 2.210604 0.8884421 11.28744 2.210604 -0.9620569 -11.29965 2.210604 0.8884421 -11.29965 2.210604 -2.675315 -0.006102681 1.424688 2.660641 -0.006102681 1.424688 -2.218421 6.10509 1.620573 2.203747 6.10509 1.620573 -2.218421 -6.117296 1.620573 2.203747 -6.117296 1.620573 -1.633808 9.160682 1.87494 1.619134 9.160682 1.87494 -1.633808 -9.172887 1.87494 1.619134 -9.172887 1.87494 -2.516555 3.049488 1.498884 2.501881 3.049488 1.498884 -2.516555 -3.061694 1.498884 2.501881 -3.061694 1.498884 -0.1945639 12.75166 2.550318 0.17989 12.75166 2.550318 -0.1945639 -12.76387 2.550318 0.17989 -12.76387 2.550318 0.4863672 11.28744 2.117283 0.4863672 -11.29965 2.117283 2.078971 -0.006102681 1.221387 1.039813 9.182287 1.770711 1.039813 -9.194492 1.770711 -1.306136 6.06802 1.423158 1.291462 6.06802 1.423158 1.647466 -6.080225 1.423158 -1.320041 3.049488 1.237245 1.305367 3.049488 1.237245 1.941163 -3.061694 1.237245 -0.2501479 8.76993 4.439733 -0.2501479 8.76993 4.439733 -0.2484198 8.858242 4.471404 -0.2484198 8.858242 4.471404 -0.3328939 8.854434 4.484625 -0.3328939 8.854434 4.484625 -0.3346219 8.76612 4.452945 -0.3346219 8.76612 4.452945 -0.9638119 10.61559 0.3109738 -1.048286 10.61177 0.3241948 -1.046558 10.70008 0.3558658 -0.9620839 10.70389 0.3426447 -1.362989 11.42567 -1.496514 -1.362989 11.42567 -1.496514 -1.278515 11.42949 -1.509735 -1.278515 11.42949 -1.509735 -1.233488 11.90395 -1.111188 -1.233488 11.90395 -1.111188 -0.9896149 11.22597 0.2886537 -0.9896149 11.22597 0.2886537 1.245157 5.43573 0.7557538 1.245157 2.82824 0.5698317 -1.259831 5.43573 0.7557538 -1.259831 2.82824 0.5698317 -1.401833 5.59849 1.385808 -1.401833 5.59849 1.645134 -1.401833 5.59849 1.645134 1.387159 5.59849 1.645134 1.387159 5.59849 1.645134 1.387159 5.59849 1.385808 -1.401833 2.66549 1.177836 -1.401833 2.66549 1.437162 -1.401833 2.66549 1.437162 1.387159 2.66549 1.437162 1.387159 2.66549 1.437162 1.387159 2.66549 1.177836 -1.259831 2.82824 1.448187 -1.259831 2.82824 1.448187 1.245157 2.82824 1.448187 1.245157 2.82824 1.448187 -1.259831 5.43573 1.634109 -1.259831 5.43573 1.634109 1.245157 5.43573 1.634109 1.245157 5.43573 1.634109 1.245157 -2.82824 1.327596 1.245157 -2.82824 1.327596 1.245157 -2.82824 1.448187 1.245157 -2.82824 1.448187 -1.259831 -2.82824 1.448187 -1.259831 -2.82824 1.448187 -1.259831 -2.82824 1.327596 -1.259831 -2.82824 1.327596 1.245157 -5.43573 1.634109 1.245157 -5.43573 1.634109 1.245157 -5.43573 1.513518 1.245157 -5.43573 1.513518 -1.259831 -5.43573 1.634109 -1.259831 -5.43573 1.634109 -1.259831 -5.43573 1.513518 -1.259831 -5.43573 1.513518 1.387159 -5.59849 1.645134 1.387159 -5.59849 1.645134 -1.401833 -5.59849 1.645134 -1.401833 -5.59849 1.645134 1.387159 -2.66549 1.437162 1.387159 -2.66549 1.437162 -1.401833 -2.66549 1.437162 -1.401833 -2.66549 1.437162 -1.401833 -2.66549 1.177836 1.387159 -2.66549 1.177836 1.387159 -5.59849 1.385808 -1.401833 -5.59849 1.385808 0.1793951 -12.04294 5.605341 0.1793951 -12.04294 5.605341 0.2996531 -12.20056 3.138567 -0.1940689 -12.04294 5.605341 -0.1940689 -12.04294 5.605341 -0.3143269 -12.20056 3.138567 0.1793951 12.03073 5.605341 0.1793951 12.03073 5.605341 -0.1940689 12.03073 5.605341 -0.1940689 12.03073 5.605341 -0.3143269 12.18835 3.138567 0.2996531 12.18835 3.138567 0.1793951 -13.22719 5.605341 0.1793951 -13.22719 5.605341 0.2996531 -13.03804 3.138567 -0.1940689 -13.22719 5.605341 -0.1940689 -13.22719 5.605341 -0.3143269 -13.03804 3.138567 0.1793951 13.21498 5.605341 0.1793951 13.21498 5.605341 -0.1940689 13.21498 5.605341 -0.1940689 13.21498 5.605341 0.2996531 13.02584 3.138567 -0.3143269 13.02584 3.138567 0.3593591 -12.87055 1.096728 -0.3740329 -12.87055 1.096728 0.3593591 12.85834 1.096728 -0.3740329 12.85834 1.096728 0.3593591 -11.37942 1.656366 0.3593591 11.36721 1.656366 -0.3740329 -11.37942 1.656366 -0.3740329 11.36721 1.656366 0.3593591 -9.172877 -0.5752475 0.3593591 9.16067 -0.5752475 -0.3740329 -9.172877 -0.5752475 -0.3740329 9.16067 -0.5752475 0.3593591 -6.117285 -1.507062 0.3593591 6.105079 -1.507062 -0.3740329 -6.117285 -1.507062 -0.3740329 6.105079 -1.507062 0.3593591 -3.061694 -2.13438 -0.3740329 -3.061694 -2.13438 0.3593591 3.049488 -2.13438 -0.3740329 3.049488 -2.13438 0.3593591 -0.006102681 -2.470917 -0.3740329 -0.006102681 -2.470917 -0.2084689 -12.63507 5.397036 0.1937951 -12.63507 5.397036 -0.2084689 12.62287 5.397036 0.1937951 12.62287 5.397036 -0.007336795 11.28744 0.6398338 -0.007336795 9.16067 -0.4175675 -0.007336795 -11.29965 0.6398338 -0.007336795 -9.172877 -0.4175675 -0.007336795 6.105079 -1.279803 -0.007336795 -6.117285 -1.279803 -0.960824 11.28744 2.728788 -1.808291 9.160682 2.570199 0.9461502 11.28744 2.728788 1.793617 9.160682 2.570199 -0.960824 -11.29965 2.728788 -1.808291 -9.172887 2.570199 0.9461502 -11.29965 2.728788 1.793617 -9.172887 2.570199 -2.466317 6.10509 2.459193 2.451643 6.10509 2.459193 -2.466317 -6.117296 2.459193 2.451643 -6.117296 2.459193 -0.007336795 3.049488 -1.916004 -0.007336795 -3.061694 -1.916004 -0.007336795 -0.006102681 -2.261424 -2.760014 3.049499 2.395752 -2.491769 3.049488 2.395752 2.74534 3.049499 2.395752 2.477095 3.049488 2.395752 -2.760014 -3.061705 2.395752 -2.491769 -3.061694 2.395752 2.74534 -3.061705 2.395752 2.477095 -3.061694 2.395752 -2.912753 -0.006102681 2.379894 -2.639774 -0.006102681 2.379894 2.898079 -0.006102681 2.379894 2.6251 -0.006102681 2.379894 -0.007336795 12.72762 2.887377 -0.007336795 12.72762 2.887377 -0.2087299 12.72762 2.887377 0.194056 12.72762 2.887377 -0.007336795 -12.73982 2.887377 -0.007336795 -12.73982 2.887377 -0.2087299 -12.73982 2.887377 0.194056 -12.73982 2.887377 -0.007336795 12.61369 1.904307 -0.007336795 -12.6259 1.904307 -2.093645 -0.006102681 1.221387 2.078971 -0.006102681 1.221387 1.326936 5.483443 1.532747 1.326936 2.708175 1.308366 -1.341609 2.708175 1.308366 -1.341609 5.483443 1.532747 -1.31757 5.496362 1.423158 1.302896 5.496362 1.423158</float_array>
          <technique_common>
            <accessor source="#pers_merc_ship_mesh_002-mesh-positions-array" count="394" stride="3">
              <param name="X" type="float"/>
              <param name="Y" type="float"/>
              <param name="Z" type="float"/>
            </accessor>
          </technique_common>
        </source>
        <source id="pers_merc_ship_mesh_002-mesh-normals">
          <float_array id="pers_merc_ship_mesh_002-mesh-normals-array" count="945">0.1604149 -0.3359801 0.928108 0.1603015 -0.3360639 0.9280973 -0.02208584 -0.9141277 -0.4048243 -0.02201664 -0.9141272 -0.4048292 -0.9873299 -0.03611004 0.1545181 -0.9873293 -0.03610014 0.1545246 -0.9851573 0.008098542 0.1714628 -0.9873297 -0.03609907 0.1545222 0.09438472 0.6173974 0.7809686 0.02214837 0.9141325 0.4048104 0.02214813 0.9141325 0.4048104 0.09896367 0.5890076 0.8020451 0.9873301 0.03610181 -0.1545187 0.9873289 0.03609651 -0.1545276 -0.02201783 -0.9141253 -0.4048335 -0.02201753 -0.9141274 -0.4048289 -0.1466059 0.6443636 -0.7505347 0.1488769 0.1094849 0.9827761 0.9873296 0.03610008 -0.1545231 -0.9681139 0.1259091 0.2165695 -0.9726428 0.09123927 0.2136386 -0.9725639 0.09507334 0.2123219 0.9873298 0.03608494 -0.1545246 0.98733 0.03609985 -0.1545199 0 1 0 -1 0 0 -1 0 0 1 0 0 0 -1 0 0 -0.06758654 0.9977134 0 -0.06758701 0.9977135 -0.004075348 -0.07112193 0.9974594 0.003619253 -0.07072943 0.997489 0.004074513 -0.07112199 0.9974594 -0.003620147 -0.07072955 0.997489 0 -0.06758272 0.9977138 0 -0.06758272 0.9977137 -1 0 0 -1 0 0 -1 0 0 -1 0 0 0 0.06758272 0.9977137 0 0.06758272 0.9977138 -0.003619253 0.07072949 0.997489 0.004075348 0.07112193 0.9974594 0.003620147 0.07072937 0.997489 -0.004074513 0.07112199 0.9974594 0 0.06758695 0.9977135 0 0.06758648 0.9977135 -1 0 0 0 0.07112246 0.9974676 0 0.07112246 0.9974676 0 0.9979648 -0.06376725 0 0.9739196 0.2268935 0 0.9739173 0.2269034 0 0.9979648 -0.06376731 0 -0.9979649 -0.06376707 0 -0.9979649 -0.06376683 0 -0.9739174 0.2269031 0 -0.9739198 0.2268931 0 -0.9970731 -0.07645446 0 -0.9970732 -0.07645362 0 0.9970734 -0.07645064 0 0.9970735 -0.07645004 0 -0.8141598 -0.580641 0 -0.9966525 -0.08175522 0 -0.9966524 -0.08175522 0 -0.8141695 -0.5806275 0 0.9966521 -0.08176028 0 0.996652 -0.08176058 0 0.8141587 -0.5806427 0 0.8141683 -0.5806289 0.9992759 -0.002272248 0.03798335 0.9992556 -5.93149e-4 0.03857517 0.999786 -0.00538963 0.01997113 0.999903 -0.004893064 0.0130375 0.999786 0.00538963 0.01997113 0.9992556 5.93152e-4 0.03857517 0.9992759 0.002272248 0.03798335 0.999903 0.004893064 0.01303744 -0.999786 -0.00538963 0.01997113 -0.9992556 -5.93161e-4 0.03857517 -0.9992759 -0.002272248 0.03798335 -0.999903 -0.004893064 0.0130375 -0.9992759 0.002272248 0.03798335 -0.9992556 5.93165e-4 0.03857517 -0.999786 0.00538963 0.01997113 -0.999903 0.004893064 0.01303744 -1 0 0 -1 0 0 1 0 0 1 0 0 1 0 0 1 0 0 -1 0 0 -1 0 0 0 -0.3525789 -0.9357822 0 -0.3525803 -0.9357817 0 0.3525806 -0.9357815 0 0.3525791 -0.9357821 0 -0.2466684 -0.9690999 0 -0.24667 -0.9690995 0 0.24667 -0.9690995 0 0.2466685 -0.9690999 0 -0.1554582 -0.9878425 0 -0.1554598 -0.9878423 0 0.1554598 -0.9878423 0 0.1554582 -0.9878425 0 0 -1 0 0 -1 1 0 0 1 0 0 1 0 0 -1 0 0 -1 0 0 1 0 0 1 0 0 -1 0 0 -1 0 0 0 0.8747339 0.4846037 0 0.8747338 0.4846038 0 -0.8747338 0.4846038 0 -0.8747338 0.4846038 0 -0.3318541 0.9433308 0 -0.3318542 0.9433307 0 5.72002e-6 1 0 -9.43983e-7 1 0 -1.13686e-5 1 0 0.3318489 0.9433326 0 0.3318489 0.9433327 0 -4.46989e-6 1 0 0.3318582 0.9433293 0 0.331858 0.9433294 0 -0.3318634 0.9433276 0 -0.3318629 0.9433277 0.9988451 -4.13209e-5 0.0480479 0.9988451 4.14562e-5 0.04804795 -0.9988451 -4.13216e-5 0.04804784 -0.9988451 4.14572e-5 0.0480479 0.9988097 0.007324874 0.04822492 0.9988096 -0.007324755 0.04822498 -0.9988097 0.007325053 0.04822492 -0.9988096 -0.007324934 0.04822492 0.9988141 -0.007358908 0.04812896 0.9988141 0.007359027 0.04812908 -0.9988141 -0.007359027 0.04812896 -0.9988141 0.007359147 0.04812902 -0.8203521 0.2558628 -0.5114261 -0.8079148 0.4008761 -0.4319401 -0.7257782 0.375768 -0.576233 -0.7464355 0.2350398 -0.6225675 0.7257795 0.3757666 -0.5762323 0.8280779 0.3935066 -0.3992987 0.8211172 0.2599704 -0.5081161 0.7464371 0.23504 -0.6225656 -0.7257798 -0.3757668 -0.5762318 -0.8079153 -0.400875 -0.4319402 -0.8203504 -0.2558631 -0.5114287 -0.7464371 -0.2350399 -0.6225656 0.8211192 -0.2599695 -0.5081134 0.8280768 -0.3935087 -0.3992989 0.7257789 -0.3757681 -0.5762321 0.7464358 -0.2350397 -0.6225673 -0.754399 0.1464527 -0.6398702 -0.8203127 0.1505618 -0.5517413 0.8203126 0.150562 -0.5517413 0.754399 0.1464527 -0.6398701 -0.8203125 -0.150562 -0.5517413 -0.7543991 -0.1464527 -0.6398702 0.7543991 -0.1464527 -0.6398701 0.8203126 -0.1505617 -0.5517414 0 -0.08697593 0.9962105 0 -0.05156761 0.9986695 0.4790445 -0.1911886 0.8567165 0.5231285 -0.2824895 0.8040749 -0.4790446 -0.1911886 0.8567166 0 -0.05156749 0.9986695 0 -0.08697611 0.9962104 -0.5231285 -0.2824897 0.8040749 0.4790444 0.1911884 0.8567168 0 0.05156749 0.9986695 0 0.08697617 0.9962104 0.5231279 0.2824903 0.8040751 0 0.08697611 0.9962104 0 0.05156749 0.9986695 -0.4790445 0.1911884 0.8567166 -0.5231279 0.2824903 0.804075 -1.08247e-6 -0.02774143 0.9996152 0.5037584 -0.1095432 0.856871 -0.5037583 -0.1095432 0.856871 1.07763e-6 -0.02774143 0.9996152 0.5037581 0.1095432 0.8568711 -1.60956e-6 0.02774143 0.9996152 1.60779e-6 0.02774143 0.9996152 -0.503758 0.1095432 0.8568711 -0.7750872 0.09281921 -0.6249997 -0.8310427 0.08136874 -0.5502247 0.8310427 0.08136868 -0.5502247 0.7750872 0.09281921 -0.6249996 -0.8310427 -0.08136868 -0.5502249 -0.7750872 -0.09281921 -0.6249997 0.7750872 -0.09281921 -0.6249996 0.8310427 -0.08136868 -0.5502247 -0.7866676 0 -0.6173769 -0.8336344 0 -0.5523168 0.8336344 0 -0.5523167 0.7866676 0 -0.6173769 0 -0.01260787 0.9999206 0 -0.0133354 0.9999111 0 -0.01333546 0.9999111 0 -0.01260793 0.9999206 -6.07118e-7 0.0133354 0.9999111 -5.54287e-7 0.01260787 0.9999206 5.56466e-7 0.01260793 0.9999206 6.05677e-7 0.01333546 0.9999111 0 0 1 0 0 1 0 0 1 0 0 1 0 -0.1094563 0.9939916 0 -0.1094564 0.9939917 0 -0.1094562 0.9939916 0 0.1094568 0.9939916 0 0.1094569 0.9939916 0 0.109457 0.9939916 0 0.109457 0.9939915 -0.823229 0.4785987 -0.3053483 -0.5974159 0.5533719 -0.5804083 0.823229 0.4785986 -0.3053485 0.5974162 0.5533716 -0.5804084 -0.8232269 -0.478599 -0.3053532 -0.5974377 -0.5533606 -0.5803965 0.823227 -0.478599 -0.305353 0.5974379 -0.5533604 -0.5803967 -2.42862e-7 -0.7079143 0.7062984 0.5326191 -0.3615316 0.7652528 -3.41261e-7 -0.5478644 0.8365673 -0.5326214 -0.3615322 0.7652509 0.5326188 0.3615329 0.7652524 0 0.707916 0.7062967 2.77273e-7 0.5478657 0.8365663 -0.5326212 0.3615335 0.7652505 0.9048988 -0.07123154 0.4196238 0.5370656 -0.06226122 0.8412397 0.5204818 -0.1446196 0.8415367 -0.5370657 -0.06226122 0.8412396 -0.9048989 -0.0712316 0.4196238 -0.5204817 -0.1446195 0.8415367 0.5370488 0.06226074 0.8412504 0.9048988 0.0712316 0.4196239 0.5204794 0.1446195 0.8415381 -0.904899 0.0712316 0.4196238 -0.5370592 0.06226134 0.8412437 -0.520474 0.1446185 0.8415416 0.904533 0 0.4264036 0.9053041 0 0.4247643 -0.9053041 0 0.4247643 -0.904533 0 0.4264036 0.4978637 -0.238865 0.8337118 -0.4978723 -0.2388669 0.833706 0.4978671 0.2388655 0.8337096 -0.4978615 0.2388643 0.8337133 -0.9275619 0.2893389 -0.2364574 -0.9078507 0.274383 -0.3170508 -0.9163458 0.1562674 -0.3686338 -0.9476575 0.1571471 -0.2779391 0.9163458 0.1562673 -0.3686339 0.9050451 0.2806962 -0.3195358 0.9275618 0.289339 -0.2364578 0.9476576 0.1571469 -0.2779391 -0.9163459 -0.1562674 -0.3686339 -0.907849 -0.2743834 -0.3170552 -0.9275617 -0.2893387 -0.236458 -0.9476576 -0.1571471 -0.277939 0.9275618 -0.2893388 -0.2364579 0.9050468 -0.2806954 -0.3195317 0.9163458 -0.1562674 -0.3686339 0.9476576 -0.1571471 -0.277939 -0.9053714 0.3948088 -0.1562973 0.9033266 0.3941215 -0.1693208 -0.9053717 -0.3948083 -0.1562972 0.9033265 -0.3941221 -0.1693198 -0.9183721 0.3952235 -0.01977509 0.905165 0.4097826 -0.1129359 -0.9183716 -0.3952246 -0.01977533 0.9051647 -0.4097837 -0.1129359 -0.9628127 0.07633888 -0.2591607 -0.9280669 0.07812422 -0.3641273 -0.9309049 0 -0.3652617 -0.9704676 0 -0.2412317 0.9309049 0 -0.3652616 0.9280669 0.07812416 -0.3641272 0.9628127 0.07633882 -0.2591606 0.9704676 0 -0.2412315 -0.9280668 -0.07812416 -0.3641272 -0.9628127 -0.07633888 -0.2591606 0.9628127 -0.07633888 -0.2591606 0.9280669 -0.07812416 -0.3641272 -0.8849365 0.459103 -0.07817745 0.8960347 0.4383599 -0.07044583 -0.8849368 -0.4591037 -0.07817304 0.8960348 -0.4383604 -0.07043963 -0.8855398 0.4645548 -0.002869844 0.8959449 0.4434897 -0.02449065 -0.8855407 -0.4645532 -0.002858281 0.8959461 -0.4434882 -0.02447664 0 -0.07068097 0.997499 0 -0.07068067 0.997499 0 -0.02399617 0.9997121 0 0 1 0 2.12579e-7 1 0 -0.02399617 0.9997121 0 -0.08058726 0.9967477 0 -0.08058726 0.9967477 0 0 1</float_array>
          <technique_common>
            <accessor source="#pers_merc_ship_mesh_002-mesh-normals-array" count="315" stride="3">
              <param name="X" type="float"/>
              <param name="Y" type="float"/>
              <param name="Z" type="float"/>
            </accessor>
          </technique_common>
        </source>
        <source id="pers_merc_ship_mesh_002-mesh-map-0">
          <float_array id="pers_merc_ship_mesh_002-mesh-map-0-array" count="2340">0.70072 0.9207 0.6894 0.92521 0.68989 0.9271 0.68989 0.9271 0.70121 0.92258 0.70072 0.9207 0.96628 0.44319 0.9664 0.8151 0.98078 0.81512 0.98078 0.81512 0.98066 0.44322 0.96628 0.44319 0.98037 0.44435 0.98048 0.81626 0.9661 0.81623 0.9661 0.81623 0.96599 0.44433 0.98037 0.44435 0.98066 0.44322 0.98048 0.81626 0.9664 0.8151 0.9664 0.8151 0.96628 0.44319 0.98066 0.44322 0.98078 0.81512 0.98066 0.44322 0.96628 0.44319 0.96628 0.44319 0.9664 0.8151 0.98078 0.81512 0.96967 0.77753 0.96932 0.77945 0.9837 0.50016 0.9837 0.50016 0.98404 0.49824 0.96967 0.77753 0.98404 0.49824 0.9837 0.50016 0.90496 0.52419 0.9575 0.77687 0.89998 0.74174 0.95715 0.77878 0.90496 0.52419 0.89998 0.74174 0.98404 0.49824 0.89998 0.74174 0.90496 0.52419 0.9837 0.50016 0.9837 0.50016 0.96932 0.77945 0.95715 0.77878 0.9837 0.50016 0.95715 0.77878 0.89998 0.74174 0.98404 0.49824 0.89998 0.74174 0.9575 0.77687 0.9575 0.77687 0.96967 0.77753 0.98404 0.49824 0.31886 0.61425 0.11373 0.61425 0.1134999 0.63303 0.1134999 0.63303 0.31863 0.63303 0.31886 0.61425 0.11373 0.61425 0.31886 0.61425 0.31863 0.63303 0.31863 0.63303 0.1134999 0.63303 0.11373 0.61425 0.11373 0.61425 0.1134999 0.63303 0.31863 0.63303 0.31863 0.63303 0.31886 0.61425 0.11373 0.61425 0.31886 0.61425 0.11373 0.61425 0.1134999 0.63303 0.1134999 0.63303 0.31863 0.63303 0.31886 0.61425 0.03560996 0.6636 0.30939 0.6636 0.32589 0.64658 0.32589 0.64658 0.01910996 0.64658 0.03560996 0.6636 0.30887 0.66308 0.03612995 0.66308 0.01910996 0.64658 0.01910996 0.64658 0.32589 0.64658 0.30887 0.66308 0.01910996 0.64658 0.03612995 0.66308 0.30887 0.66308 0.30887 0.66308 0.32589 0.64658 0.01910996 0.64658 0.03560996 0.6636 0.30939 0.6636 0.32589 0.64658 0.32589 0.64658 0.01910996 0.64658 0.03560996 0.6636 0.10836 0.50387 0.29778 0.50387 0.29778 0.60406 0.29778 0.60406 0.10836 0.60406 0.10836 0.50387 0.29778 0.50387 0.10836 0.50387 0.10836 0.60406 0.10836 0.60406 0.29778 0.60406 0.29778 0.50387 0.10836 0.60406 0.10836 0.50387 0.29778 0.50387 0.29778 0.50387 0.29778 0.60406 0.10836 0.60406 0.10836 0.50387 0.29778 0.50387 0.29778 0.60406 0.29778 0.60406 0.10836 0.60406 0.10836 0.50387 0.10836 0.60406 0.10836 0.59335 0.29778 0.59335 0.29778 0.59335 0.29778 0.60406 0.10836 0.60406 0.10836 0.59335 0.29778 0.59335 0.29778 0.60406 0.29778 0.60406 0.10836 0.60406 0.10836 0.59335 0.29778 0.60406 0.29778 0.59335 0.10836 0.59335 0.10836 0.59335 0.10836 0.60406 0.29778 0.60406 0.10836 0.60406 0.10836 0.59335 0.29778 0.59335 0.29778 0.59335 0.29778 0.60406 0.10836 0.60406 0.03560996 0.6636 0.01910996 0.64658 0.32589 0.64658 0.32589 0.64658 0.30939 0.6636 0.03560996 0.6636 0.01910996 0.64658 0.32589 0.64658 0.30887 0.66308 0.30887 0.66308 0.03612995 0.66308 0.01910996 0.64658 0.30887 0.66308 0.32589 0.64658 0.01910996 0.64658 0.01910996 0.64658 0.03612995 0.66308 0.30887 0.66308 0.03560996 0.6636 0.01910996 0.64658 0.32589 0.64658 0.32589 0.64658 0.30939 0.6636 0.03560996 0.6636 0.31886 0.61425 0.31863 0.63303 0.1134999 0.63303 0.1134999 0.63303 0.11373 0.61425 0.31886 0.61425 0.11373 0.61425 0.31886 0.61425 0.31863 0.63303 0.31863 0.63303 0.1134999 0.63303 0.11373 0.61425 0.11373 0.61425 0.1134999 0.63303 0.31863 0.63303 0.31863 0.63303 0.31886 0.61425 0.11373 0.61425 0.31886 0.61425 0.31863 0.63303 0.1134999 0.63303 0.1134999 0.63303 0.11373 0.61425 0.31886 0.61425 0.32902 0.58951 0.32902 0.42831 0.51698 0.42831 0.51698 0.42831 0.51698 0.58951 0.32902 0.58951 0.19621 0.008649945 0.07792997 0.002869904 0.07792997 0.03226995 0.07792997 0.03226995 0.19621 0.02652972 0.19621 0.008649945 0.19621 0.008649945 0.19621 0.02652972 0.07792997 0.03226995 0.07792997 0.03226995 0.07792997 0.002869904 0.19621 0.008649945 0.36498 0.002899885 0.2466999 0.008659958 0.2466999 0.02652972 0.2466999 0.02652972 0.36498 0.03227972 0.36498 0.002899885 0.2466999 0.02652972 0.2466999 0.008659958 0.36498 0.002899885 0.36498 0.002899885 0.36498 0.03227972 0.2466999 0.02652972 0.4629 3e-5 0.36498 0.002899885 0.36498 0.03227972 0.36498 0.03227972 0.4629 0.03512996 0.4629 3e-5 0.36498 0.03227972 0.36498 0.002899885 0.4629 3e-5 0.4629 3e-5 0.4629 0.03512996 0.36498 0.03227972 0.04749995 0.2424499 0.02221995 0.2424499 0.02726984 0.16711 0.02726984 0.16711 0.07229 0.1877599 0.04749995 0.2424499 0.02726984 0.16711 0.02221995 0.2424499 0.04749995 0.2424499 0.04749995 0.2424499 0.07229 0.1877599 0.02726984 0.16711 0.02726984 0.16711 0.02221995 0.2424499 0.04749995 0.2424499 0.04749995 0.2424499 0.07229 0.1877599 0.02726984 0.16711 0.04749995 0.2424499 0.02221995 0.2424499 0.02726984 0.16711 0.02726984 0.16711 0.07229 0.1877599 0.04749995 0.2424499 0.02726984 0.16711 0.1389 0.10543 0.1389 0.1360599 0.1389 0.1360599 0.07229 0.1877599 0.02726984 0.16711 0.1389 0.1360599 0.1389 0.10543 0.02726984 0.16711 0.02726984 0.16711 0.07229 0.1877599 0.1389 0.1360599 0.1389 0.1360599 0.1389 0.10543 0.02726984 0.16711 0.02726984 0.16711 0.07229 0.1877599 0.1389 0.1360599 0.02726984 0.16711 0.1389 0.10543 0.1389 0.1360599 0.1389 0.1360599 0.07229 0.1877599 0.02726984 0.16711 0.1389 0.10543 0.23114 0.07103997 0.23114 0.10484 0.23114 0.10484 0.1389 0.1360599 0.1389 0.10543 0.23114 0.10484 0.23114 0.07103997 0.1389 0.10543 0.1389 0.10543 0.1389 0.1360599 0.23114 0.10484 0.23114 0.10484 0.23114 0.07103997 0.1389 0.10543 0.1389 0.10543 0.1389 0.1360599 0.23114 0.10484 0.1389 0.10543 0.23114 0.07103997 0.23114 0.10484 0.23114 0.10484 0.1389 0.1360599 0.1389 0.10543 0.6283 0.03511995 0.6283 2e-5 0.4629 3e-5 0.4629 3e-5 0.4629 0.03512996 0.6283 0.03511995 0.4629 3e-5 0.6283 2e-5 0.6283 0.03511995 0.6283 0.03511995 0.4629 0.03512996 0.4629 3e-5 0.75596 0.03510975 0.75596 10e-6 0.6283 2e-5 0.6283 2e-5 0.6283 0.03511995 0.75596 0.03510975 0.6283 2e-5 0.75596 10e-6 0.75596 0.03510975 0.75596 0.03510975 0.6283 0.03511995 0.6283 2e-5 0.8793 0.03509998 0.87929 10e-6 0.75596 10e-6 0.75596 10e-6 0.75596 0.03510975 0.8793 0.03509998 0.75596 10e-6 0.87929 10e-6 0.8793 0.03509998 0.8793 0.03509998 0.75596 0.03510975 0.75596 10e-6 1 0.03508991 1 0 0.87929 10e-6 0.87929 10e-6 0.8793 0.03509998 1 0.03508991 0.87929 10e-6 1 0 1 0.03508991 1 0.03508991 0.8793 0.03509998 0.87929 10e-6 0.23114 0.07103997 0.32338 0.04789996 0.32338 0.08168995 0.32338 0.08168995 0.23114 0.10484 0.23114 0.07103997 0.32338 0.08168995 0.32338 0.04789996 0.23114 0.07103997 0.23114 0.07103997 0.23114 0.10484 0.32338 0.08168995 0.32338 0.08168995 0.32338 0.04789996 0.23114 0.07103997 0.23114 0.07103997 0.23114 0.10484 0.32338 0.08168995 0.23114 0.07103997 0.32338 0.04789996 0.32338 0.08168995 0.32338 0.08168995 0.23114 0.10484 0.23114 0.07103997 0.32338 0.04789996 0.41563 0.03547996 0.41563 0.06927996 0.41563 0.06927996 0.32338 0.08168995 0.32338 0.04789996 0.41563 0.06927996 0.41563 0.03547996 0.32338 0.04789996 0.32338 0.04789996 0.32338 0.08168995 0.41563 0.06927996 0.41563 0.06927996 0.41563 0.03547996 0.32338 0.04789996 0.32338 0.04789996 0.32338 0.08168995 0.41563 0.06927996 0.32338 0.04789996 0.41563 0.03547996 0.41563 0.06927996 0.41563 0.06927996 0.32338 0.08168995 0.32338 0.04789996 0 0.03511995 0.07792997 0.03226995 0.07792997 0.002869904 0.07792997 0.002869904 10e-6 0 0 0.03511995 0.07792997 0.002869904 0.07792997 0.03226995 0 0.03511995 0 0.03511995 10e-6 0 0.07792997 0.002869904 0.19621 0.008649945 0.19621 0.02652972 0.22146 0.02721995 0.22146 0.02721995 0.22146 0.007969975 0.19621 0.008649945 0.22146 0.02721995 0.19621 0.02652972 0.19621 0.008649945 0.19621 0.008649945 0.22146 0.007969975 0.22146 0.02721995 0.22146 0.007969975 0.22146 0.02721995 0.2466999 0.02652972 0.2466999 0.02652972 0.2466999 0.008659958 0.22146 0.007969975 0.2466999 0.02652972 0.22146 0.02721995 0.22146 0.007969975 0.22146 0.007969975 0.2466999 0.008659958 0.2466999 0.02652972 0.03437978 0.32578 0.02221995 0.2424499 0.04749995 0.2424499 0.04749995 0.2424499 0.02221995 0.2424499 0.03437978 0.32578 0.04749995 0.2424499 0.02221995 0.2424499 0.03437978 0.32578 0.03437978 0.32578 0.02221995 0.2424499 0.04749995 0.2424499 0.05225998 0.33347 0.03437978 0.32578 0.04749995 0.2424499 0.04749995 0.2424499 0.03437978 0.32578 0.05225998 0.33347 0.04749995 0.2424499 0.03437978 0.32578 0.05225998 0.33347 0.05225998 0.33347 0.03437978 0.32578 0.04749995 0.2424499 0.03437978 0.32578 0.01650995 0.33347 0.02221995 0.2424499 0.02221995 0.2424499 0.01650995 0.33347 0.03437978 0.32578 0.02221995 0.2424499 0.01650995 0.33347 0.03437978 0.32578 0.03437978 0.32578 0.01650995 0.33347 0.02221995 0.2424499 0.1540192 0.8200511 0.07048916 0.8364043 0.07048916 0.7928372 0.07048916 0.7928372 0.1540192 0.7343055 0.1540192 0.8200511 0.07668995 0.80549 0.07668995 0.85475 0.16022 0.83626 0.16022 0.83626 0.16022 0.73931 0.07668995 0.80549 0.9167892 0.7913601 0.9167892 0.834945 0.8329592 0.8188837 0.8329592 0.8188837 0.8329592 0.7331292 0.9167892 0.7913601 0.83916 0.83494 0.92299 0.8531 0.92299 0.80382 0.92299 0.80382 0.83916 0.73798 0.83916 0.83494 0.1540192 0.7343055 0.2684692 0.6943556 0.2684692 0.803981 0.2684692 0.803981 0.1540192 0.8200511 0.1540192 0.7343055 0.27467 0.81809 0.27467 0.69414 0.16022 0.73931 0.16022 0.73931 0.16022 0.83626 0.27467 0.81809 0.7184292 0.8032027 0.7184292 0.6935685 0.8329592 0.7331292 0.8329592 0.7331292 0.8329592 0.8188837 0.7184292 0.8032027 0.83916 0.73798 0.72463 0.69325 0.72463 0.81721 0.72463 0.81721 0.83916 0.83494 0.83916 0.73798 0.9155375 0.867245 0.8299353 0.867245 0.8302785 0.8560403 0.8302785 0.8560403 0.9156845 0.8560403 0.9155375 0.867245 0.8302785 0.8560403 0.8299353 0.867245 0.9155375 0.867245 0.9155375 0.867245 0.9156845 0.8560403 0.8302785 0.8560403 0.153277 0.8560403 0.153532 0.867245 0.06849867 0.867245 0.06849867 0.867245 0.06833195 0.8560403 0.153277 0.8560403 0.06849867 0.867245 0.153532 0.867245 0.153277 0.8560403 0.153277 0.8560403 0.06833195 0.8560403 0.06849867 0.867245 0.8299353 0.867245 0.7190057 0.867245 0.7190155 0.8560403 0.7190155 0.8560403 0.8302785 0.8560403 0.8299353 0.867245 0.7190155 0.8560403 0.7190057 0.867245 0.8299353 0.867245 0.8299353 0.867245 0.8302785 0.8560403 0.7190155 0.8560403 0.2632164 0.8560403 0.2633047 0.867245 0.153532 0.867245 0.153532 0.867245 0.153277 0.8560403 0.2632164 0.8560403 0.153532 0.867245 0.2633047 0.867245 0.2632164 0.8560403 0.2632164 0.8560403 0.153277 0.8560403 0.153532 0.867245 0.2684692 0.6943556 0.3812892 0.6671416 0.3812892 0.7955082 0.3812892 0.7955082 0.2684692 0.803981 0.2684692 0.6943556 0.38749 0.80851 0.38749 0.66337 0.27467 0.69414 0.27467 0.69414 0.27467 0.81809 0.38749 0.80851 0.6055492 0.7951279 0.6055492 0.6667436 0.7184292 0.6935685 0.7184292 0.6935685 0.7184292 0.8032027 0.6055492 0.7951279 0.72463 0.69325 0.61175 0.66292 0.61175 0.80808 0.61175 0.80808 0.72463 0.81721 0.72463 0.69325 0.3812892 0.6671416 0.4932492 0.6523805 0.4935592 0.7899451 0.4935592 0.7899451 0.3812892 0.7955082 0.3812892 0.6671416 0.49976 0.80222 0.49945 0.64668 0.38749 0.66337 0.38749 0.66337 0.38749 0.80851 0.49976 0.80222 0.4935592 0.7899451 0.4932492 0.6523805 0.6055492 0.6667436 0.6055492 0.6667436 0.6055492 0.7951279 0.4935592 0.7899451 0.61175 0.66292 0.49945 0.64668 0.49976 0.80222 0.49976 0.80222 0.61175 0.80808 0.61175 0.66292 0.7190057 0.867245 0.6053109 0.867245 0.605252 0.8560403 0.605252 0.8560403 0.7190155 0.8560403 0.7190057 0.867245 0.605252 0.8560403 0.6053109 0.867245 0.7190057 0.867245 0.7190057 0.867245 0.7190155 0.8560403 0.605252 0.8560403 0.3770387 0.8560403 0.3770485 0.867245 0.2633047 0.867245 0.2633047 0.867245 0.2632164 0.8560403 0.3770387 0.8560403 0.2633047 0.867245 0.3770485 0.867245 0.3770387 0.8560403 0.3770387 0.8560403 0.2632164 0.8560403 0.2633047 0.867245 0.6053109 0.867245 0.4912728 0.867245 0.4912336 0.8560403 0.4912336 0.8560403 0.605252 0.8560403 0.6053109 0.867245 0.4912336 0.8560403 0.4912728 0.867245 0.6053109 0.867245 0.6053109 0.867245 0.605252 0.8560403 0.4912336 0.8560403 0.4912336 0.8560403 0.4912728 0.867245 0.3770485 0.867245 0.3770485 0.867245 0.3770387 0.8560403 0.4912336 0.8560403 0.3770485 0.867245 0.4912728 0.867245 0.4912336 0.8560403 0.4912336 0.8560403 0.3770387 0.8560403 0.3770485 0.867245 0.9155375 0.867245 0.9156845 0.8560403 0.9751354 0.8560403 0.9751354 0.8560403 0.9750078 0.867245 0.9155375 0.867245 0.9751354 0.8560403 0.9156845 0.8560403 0.9155375 0.867245 0.9155375 0.867245 0.9750078 0.867245 0.9751354 0.8560403 0.008802831 0.8560403 0.06833195 0.8560403 0.06849867 0.867245 0.06849867 0.867245 0.008940041 0.867245 0.008802831 0.8560403 0.06849867 0.867245 0.06833195 0.8560403 0.008802831 0.8560403 0.008802831 0.8560403 0.008940041 0.867245 0.06849867 0.867245 0.07048916 0.7928372 0.07048916 0.8364043 0.0165292 0.8539957 0.0165292 0.8539957 0.0140292 0.8465046 0.07048916 0.7928372 0.02272999 0.87464 0.07668995 0.85475 0.07668995 0.80549 0.07668995 0.80549 0.02022999 0.86617 0.02272999 0.87464 0.9707192 0.8523507 0.9167892 0.834945 0.9167892 0.7913601 0.9167892 0.7913601 0.9731892 0.8448418 0.9707192 0.8523507 0.92299 0.80382 0.92299 0.8531 0.97692 0.87278 0.97692 0.87278 0.97939 0.86429 0.92299 0.80382 0.9690951 0.8466482 0.915057 0.8471512 0.915057 0.8223571 0.915057 0.8223571 0.9434929 0.8260775 0.9690951 0.8466482 0.915057 0.8223571 0.915057 0.8471512 0.9690951 0.8466482 0.9690951 0.8466482 0.9434929 0.8260775 0.915057 0.8223571 0.06758677 0.8223571 0.06758677 0.8471512 0.01354867 0.8466482 0.01354867 0.8466482 0.03915083 0.8260775 0.06758677 0.8223571 0.01354867 0.8466482 0.06758677 0.8471512 0.06758677 0.8223571 0.06758677 0.8223571 0.03915083 0.8260775 0.01354867 0.8466482 0.7206138 0.8466309 0.6059678 0.8466569 0.6059678 0.7996703 0.6059678 0.7996703 0.7192214 0.804605 0.7206138 0.8466309 0.6059678 0.7996703 0.6059678 0.8466569 0.7206138 0.8466309 0.7206138 0.8466309 0.7192214 0.804605 0.6059678 0.7996703 0.3766759 0.7996703 0.3766759 0.8466569 0.2620299 0.8466309 0.2620299 0.8466309 0.2634223 0.804605 0.3766759 0.7996703 0.2620299 0.8466309 0.3766759 0.8466569 0.3766759 0.7996703 0.3766759 0.7996703 0.2634223 0.804605 0.2620299 0.8466309 0.6059678 0.8466569 0.4913219 0.8466656 0.4913219 0.7996791 0.4913219 0.7996791 0.6059678 0.7996703 0.6059678 0.8466569 0.4913219 0.7996791 0.4913219 0.8466656 0.6059678 0.8466569 0.6059678 0.8466569 0.6059678 0.7996703 0.4913219 0.7996791 0.4913219 0.7996791 0.4913219 0.8466656 0.3766759 0.8466569 0.3766759 0.8466569 0.3766759 0.7996703 0.4913219 0.7996791 0.3766759 0.8466569 0.4913219 0.8466656 0.4913219 0.7996791 0.4913219 0.7996791 0.3766759 0.7996703 0.3766759 0.8466569 0.8352597 0.8465788 0.7206138 0.8466309 0.7192214 0.804605 0.7192214 0.804605 0.8360736 0.8141531 0.8352597 0.8465788 0.7192214 0.804605 0.7206138 0.8466309 0.8352597 0.8465788 0.8352597 0.8465788 0.8360736 0.8141531 0.7192214 0.804605 0.2634223 0.804605 0.2620299 0.8466309 0.1473839 0.8465788 0.1473839 0.8465788 0.14657 0.8141531 0.2634223 0.804605 0.1473839 0.8465788 0.2620299 0.8466309 0.2634223 0.804605 0.2634223 0.804605 0.14657 0.8141531 0.1473839 0.8465788 0.915057 0.8471512 0.8352597 0.8465788 0.8360736 0.8141531 0.8360736 0.8141531 0.915057 0.8223571 0.915057 0.8471512 0.8360736 0.8141531 0.8352597 0.8465788 0.915057 0.8471512 0.915057 0.8471512 0.915057 0.8223571 0.8360736 0.8141531 0.14657 0.8141531 0.1473839 0.8465788 0.06758677 0.8471512 0.06758677 0.8471512 0.06758677 0.8223571 0.14657 0.8141531 0.06758677 0.8471512 0.1473839 0.8465788 0.14657 0.8141531 0.14657 0.8141531 0.06758677 0.8223571 0.06758677 0.8471512 0.1540192 0.8731171 0.1540192 0.8479108 0.2684692 0.8395352 0.2684692 0.8395352 0.2684692 0.8731083 0.1540192 0.8731171 0.27467 0.85829 0.16022 0.86776 0.16022 0.89626 0.16022 0.89626 0.27467 0.89625 0.27467 0.85829 0.7184292 0.8387657 0.8329592 0.8467434 0.8329592 0.8719409 0.8329592 0.8719409 0.7184292 0.87233 0.7184292 0.8387657 0.83916 0.89493 0.83916 0.86644 0.72463 0.85742 0.72463 0.85742 0.72463 0.89537 0.83916 0.89493 0.1540192 0.8479108 0.1540192 0.8200511 0.2684692 0.803981 0.2684692 0.803981 0.2684692 0.8395352 0.1540192 0.8479108 0.27467 0.81809 0.16022 0.83626 0.16022 0.86776 0.16022 0.86776 0.27467 0.85829 0.27467 0.81809 0.7184292 0.8032027 0.8329592 0.8188837 0.8329592 0.8467434 0.8329592 0.8467434 0.7184292 0.8387657 0.7184292 0.8032027 0.83916 0.86644 0.83916 0.83494 0.72463 0.81721 0.72463 0.81721 0.72463 0.85742 0.83916 0.86644 0.07048916 0.8547829 0.07048916 0.8364043 0.1540192 0.8200511 0.1540192 0.8200511 0.1540192 0.8479108 0.07048916 0.8547829 0.16022 0.83626 0.07668995 0.85475 0.07668995 0.87553 0.07668995 0.87553 0.16022 0.86776 0.16022 0.83626 0.8329592 0.8188837 0.9167892 0.834945 0.9167892 0.8533235 0.9167892 0.8533235 0.8329592 0.8467434 0.8329592 0.8188837 0.92299 0.87388 0.92299 0.8531 0.83916 0.83494 0.83916 0.83494 0.83916 0.86644 0.92299 0.87388 0.1540192 0.8479108 0.1540192 0.8731171 0.07048916 0.8722858 0.07048916 0.8722858 0.07048916 0.8547829 0.1540192 0.8479108 0.07668995 0.89532 0.16022 0.89626 0.16022 0.86776 0.16022 0.86776 0.07668995 0.87553 0.07668995 0.89532 0.9167892 0.8708176 0.8329592 0.8719409 0.8329592 0.8467434 0.8329592 0.8467434 0.9167892 0.8533235 0.9167892 0.8708176 0.83916 0.86644 0.83916 0.89493 0.92299 0.89366 0.92299 0.89366 0.92299 0.87388 0.83916 0.86644 0.3812892 0.8718878 0.3812892 0.8351131 0.4936492 0.831991 0.4936492 0.831991 0.4937392 0.8709768 0.3812892 0.8718878 0.49985 0.84976 0.38749 0.85329 0.38749 0.89487 0.38749 0.89487 0.49994 0.89384 0.49985 0.84976 0.4936492 0.831991 0.6055492 0.8347239 0.6055492 0.8714986 0.6055492 0.8714986 0.4937392 0.8709768 0.4936492 0.831991 0.61175 0.89443 0.61175 0.85285 0.49985 0.84976 0.49985 0.84976 0.49994 0.89384 0.61175 0.89443 0.3812892 0.8351131 0.3812892 0.7955082 0.4935592 0.7899451 0.4935592 0.7899451 0.4936492 0.831991 0.3812892 0.8351131 0.49976 0.80222 0.38749 0.80851 0.38749 0.85329 0.38749 0.85329 0.49985 0.84976 0.49976 0.80222 0.4935592 0.7899451 0.6055492 0.7951279 0.6055492 0.8347239 0.6055492 0.8347239 0.4936492 0.831991 0.4935592 0.7899451 0.61175 0.85285 0.61175 0.80808 0.49976 0.80222 0.49976 0.80222 0.49985 0.84976 0.61175 0.85285 0.2684692 0.8731083 0.2684692 0.8395352 0.3812892 0.8351131 0.3812892 0.8351131 0.3812892 0.8718878 0.2684692 0.8731083 0.38749 0.85329 0.27467 0.85829 0.27467 0.89625 0.27467 0.89625 0.38749 0.89487 0.38749 0.85329 0.6055492 0.8347239 0.7184292 0.8387657 0.7184292 0.87233 0.7184292 0.87233 0.6055492 0.8714986 0.6055492 0.8347239 0.72463 0.89537 0.72463 0.85742 0.61175 0.85285 0.61175 0.85285 0.61175 0.89443 0.72463 0.89537 0.2684692 0.8395352 0.2684692 0.803981 0.3812892 0.7955082 0.3812892 0.7955082 0.3812892 0.8351131 0.2684692 0.8395352 0.38749 0.80851 0.27467 0.81809 0.27467 0.85829 0.27467 0.85829 0.38749 0.85329 0.38749 0.80851 0.6055492 0.7951279 0.7184292 0.8032027 0.7184292 0.8387657 0.7184292 0.8387657 0.6055492 0.8347239 0.6055492 0.7951279 0.72463 0.85742 0.72463 0.81721 0.61175 0.80808 0.61175 0.80808 0.61175 0.85285 0.72463 0.85742 0.07048916 0.8364043 0.07048916 0.8547829 0.0112192 0.8628842 0.0112192 0.8628842 0.0165292 0.8539957 0.07048916 0.8364043 0.01741999 0.88469 0.07668995 0.87553 0.07668995 0.85475 0.07668995 0.85475 0.02272999 0.87464 0.01741999 0.88469 0.9760692 0.8612127 0.9167892 0.8533235 0.9167892 0.834945 0.9167892 0.834945 0.9707192 0.8523507 0.9760692 0.8612127 0.92299 0.8531 0.92299 0.87388 0.98227 0.8828 0.98227 0.8828 0.97692 0.87278 0.92299 0.8531 0.07048916 0.8547829 0.07048916 0.8722858 0.005439162 0.8714455 0.005439162 0.8714455 0.0112192 0.8628842 0.07048916 0.8547829 0.01163995 0.89437 0.07668995 0.89532 0.07668995 0.87553 0.07668995 0.87553 0.01741999 0.88469 0.01163995 0.89437 0.9818892 0.8697652 0.9167892 0.8708176 0.9167892 0.8533235 0.9167892 0.8533235 0.9760692 0.8612127 0.9818892 0.8697652 0.92299 0.87388 0.92299 0.89366 0.98809 0.89247 0.98809 0.89247 0.98227 0.8828 0.92299 0.87388 0.09431999 0.26305 0.1746 0.23725 0.1746 0.33487 0.1746 0.33487 0.09431999 0.30907 0.09431999 0.26305 0.87548 0.33487 0.87548 0.23725 0.95577 0.26305 0.95577 0.26305 0.95577 0.30907 0.87548 0.33487 0.06540995 0.28606 0.09431999 0.26305 0.09431999 0.30907 0.95577 0.30907 0.95577 0.26305 0.98467 0.28606 0.29338 0.20892 0.29338 0.22552 0.1746 0.23725 0.1746 0.33487 0.29338 0.3466 0.29338 0.3632 0.4085 0.22487 0.4085 0.19523 0.52504 0.1888099 0.52504 0.38331 0.4085 0.37689 0.4085 0.34725 0.4085 0.19523 0.4085 0.22487 0.29338 0.22552 0.29338 0.22552 0.29338 0.20892 0.4085 0.19523 0.29338 0.3466 0.4085 0.34725 0.4085 0.37689 0.4085 0.37689 0.29338 0.3632 0.29338 0.3466 0.7567 0.3632 0.64158 0.37689 0.64158 0.19523 0.64158 0.19523 0.7567 0.20892 0.7567 0.3632 0.87548 0.33487 0.7567 0.3632 0.7567 0.20892 0.7567 0.20892 0.87548 0.23725 0.87548 0.33487 0.52504 0.38331 0.52504 0.1888099 0.64158 0.19523 0.64158 0.19523 0.64158 0.37689 0.52504 0.38331 0.52504 0.1888099 0.52504 0.38331 0.4085 0.34725 0.4085 0.34725 0.4085 0.22487 0.52504 0.1888099 0.1746 0.23725 0.29338 0.22552 0.29338 0.3466 0.29338 0.3466 0.1746 0.33487 0.1746 0.23725 0.32902 0.58951 0.32902 0.42831 0.51698 0.42831 0.51698 0.42831 0.51698 0.58951 0.32902 0.58951 0.29338 0.22552 0.29338 0.3466 0.29338 0.3466 0.29338 0.22552 0.29338 0.22552 0.29338 0.3466</float_array>
          <technique_common>
            <accessor source="#pers_merc_ship_mesh_002-mesh-map-0-array" count="1170" stride="2">
              <param name="S" type="float"/>
              <param name="T" type="float"/>
            </accessor>
          </technique_common>
        </source>
        <vertices id="pers_merc_ship_mesh_002-mesh-vertices">
          <input semantic="POSITION" source="#pers_merc_ship_mesh_002-mesh-positions"/>
        </vertices>
        <triangles material="Materiais-material" count="390">
          <input semantic="VERTEX" source="#pers_merc_ship_mesh_002-mesh-vertices" offset="0"/>
          <input semantic="NORMAL" source="#pers_merc_ship_mesh_002-mesh-normals" offset="1"/>
          <input semantic="TEXCOORD" source="#pers_merc_ship_mesh_002-mesh-map-0" offset="2" set="0"/>
          <p>221 0 0 223 0 1 225 0 2 225 1 3 227 1 4 221 1 5 229 2 6 222 2 7 228 2 8 228 3 9 230 3 10 229 3 11 1 4 12 5 4 13 226 4 14 226 5 15 231 6 16 1 7 17 2 8 18 6 9 19 224 10 20 224 10 21 232 11 22 2 8 23 4 12 24 0 12 25 3 12 26 3 13 27 7 13 28 4 13 29 229 14 30 230 14 31 233 14 32 233 15 33 235 15 34 229 15 35 236 16 36 234 16 37 237 16 38 232 11 39 239 17 40 2 8 41 238 18 42 240 18 43 10 18 44 11 19 45 8 20 46 9 21 47 9 21 48 1 7 49 231 6 50 9 21 51 231 6 52 11 19 53 10 22 54 240 22 55 3 22 56 3 23 57 0 23 58 10 23 59 250 24 60 245 24 61 246 24 62 246 24 63 248 24 64 250 24 65 12 25 66 251 25 67 252 25 68 252 26 69 247 26 70 12 26 71 13 27 72 249 27 73 254 27 74 254 27 75 256 27 76 13 27 77 14 28 78 15 28 79 255 28 80 255 28 81 253 28 82 14 28 83 259 29 84 257 29 85 16 29 86 16 30 87 19 30 88 259 30 89 257 31 90 261 31 91 17 31 92 17 32 93 16 32 94 257 32 95 18 33 96 263 33 97 259 33 98 259 34 99 19 34 100 18 34 101 261 35 102 263 35 103 18 35 104 18 36 105 17 36 106 261 36 107 243 28 108 241 28 109 264 28 110 264 28 111 262 28 112 243 28 113 244 27 114 25 27 115 20 27 116 20 27 117 258 27 118 244 27 119 21 37 120 26 37 121 242 37 122 242 38 123 260 38 124 21 38 125 27 24 126 24 24 127 22 24 128 22 24 129 23 24 130 27 24 131 265 28 132 267 28 133 269 28 134 269 28 135 271 28 136 265 28 137 273 39 138 268 39 139 266 39 140 266 40 141 275 40 142 273 40 143 272 27 144 270 27 145 277 27 146 277 27 147 279 27 148 272 27 149 280 24 150 278 24 151 274 24 152 274 24 153 276 24 154 280 24 155 35 41 156 283 41 157 281 41 158 281 42 159 34 42 160 35 42 161 281 43 162 285 43 163 32 43 164 32 44 165 34 44 166 281 44 167 33 45 168 287 45 169 283 45 170 283 46 171 35 46 172 33 46 173 32 47 174 285 47 175 287 47 176 287 48 177 33 48 178 32 48 179 289 24 180 288 24 181 286 24 182 286 24 183 290 24 184 289 24 185 291 27 186 40 27 187 36 27 188 36 27 189 282 27 190 291 27 191 292 26 192 284 26 193 39 26 194 39 49 195 41 49 196 292 49 197 42 28 198 37 28 199 38 28 200 38 28 201 43 28 202 42 28 203 28 50 204 31 50 205 30 50 206 30 51 207 29 51 208 28 51 209 293 52 210 295 53 211 298 54 212 298 54 213 296 55 214 293 52 215 299 56 216 301 57 217 303 58 218 303 58 219 304 59 220 299 56 221 307 60 222 305 60 223 308 60 224 308 61 225 310 61 226 307 61 227 313 62 228 311 62 229 315 62 230 315 63 231 316 63 232 313 63 233 317 64 234 307 65 235 310 66 236 310 66 237 318 67 238 317 64 239 316 68 240 315 69 241 319 70 242 319 70 243 320 71 244 316 68 245 56 72 246 58 73 247 60 74 248 60 74 249 321 75 250 56 72 251 61 76 252 59 77 253 57 78 254 57 78 255 322 79 256 61 76 257 62 80 258 52 81 259 54 82 260 54 82 261 323 83 262 62 80 263 55 84 264 53 85 265 63 86 266 63 86 267 324 87 268 55 84 269 60 74 270 325 27 271 76 27 272 76 27 273 321 75 274 60 74 275 77 27 276 326 27 277 61 76 278 61 76 279 322 79 280 77 27 281 78 26 282 327 26 283 62 80 284 62 80 285 323 83 286 78 26 287 63 86 288 328 88 289 79 89 290 79 89 291 324 87 292 63 86 293 325 90 294 329 90 295 68 90 296 68 91 297 76 91 298 325 91 299 69 92 300 330 92 301 326 92 302 326 93 303 77 93 304 69 93 305 70 26 306 331 26 307 327 26 308 327 94 309 78 94 310 70 94 311 328 26 312 332 26 313 71 26 314 71 95 315 79 95 316 328 95 317 80 96 318 82 97 319 317 64 320 317 64 321 318 67 322 80 96 323 319 70 324 83 98 325 81 99 326 81 99 327 320 71 328 319 70 329 66 100 330 64 101 331 82 97 332 82 97 333 80 96 334 66 100 335 83 98 336 65 102 337 67 103 338 67 103 339 81 99 340 83 98 341 334 104 342 333 105 343 64 101 344 64 101 345 66 100 346 334 104 347 65 102 348 335 106 349 336 107 350 336 107 351 67 103 352 65 102 353 338 108 354 337 109 355 333 105 356 333 105 357 334 104 358 338 108 359 335 106 360 337 109 361 338 108 362 338 108 363 336 107 364 335 106 365 329 110 366 88 110 367 84 110 368 84 110 369 68 110 370 329 110 371 85 111 372 89 111 373 330 111 374 330 112 375 69 112 376 85 112 377 86 113 378 90 113 379 331 113 380 331 26 381 70 26 382 86 26 383 332 114 384 91 114 385 87 114 386 87 26 387 71 26 388 332 26 389 88 27 390 72 27 391 74 27 392 74 27 393 84 27 394 88 27 395 74 115 396 72 115 397 89 115 398 89 116 399 85 116 400 74 116 401 75 26 402 73 26 403 90 26 404 90 117 405 86 117 406 75 117 407 91 26 408 73 26 409 75 26 410 75 118 411 87 118 412 91 118 413 94 119 414 298 54 415 295 53 416 295 53 417 92 120 418 94 119 419 304 59 420 303 58 421 95 121 422 95 121 423 93 122 424 304 59 425 294 123 426 297 124 427 339 125 428 339 125 429 340 126 430 294 123 431 341 127 432 302 128 433 300 129 434 300 129 435 342 130 436 341 127 437 340 126 438 339 125 439 309 131 440 309 131 441 306 132 442 340 126 443 314 133 444 341 127 445 342 130 446 342 130 447 312 134 448 314 133 449 96 135 450 58 73 451 56 72 452 57 78 453 59 77 454 97 136 455 54 82 456 52 81 457 98 137 458 99 138 459 53 85 460 55 84 461 44 139 462 96 135 463 56 72 464 57 78 465 97 136 466 45 140 467 54 82 468 98 137 469 46 141 470 47 142 471 99 138 472 55 84 473 96 135 474 48 143 475 58 73 476 59 77 477 49 144 478 97 136 479 52 81 480 50 145 481 98 137 482 99 138 483 51 146 484 53 85 485 135 147 486 100 148 487 343 149 488 343 149 489 344 150 490 135 147 491 120 151 492 101 152 493 136 153 494 136 153 495 143 154 496 120 151 497 345 155 498 102 156 499 137 157 500 137 157 501 346 158 502 345 155 503 138 159 504 103 160 505 121 161 506 121 161 507 144 162 508 138 159 509 344 150 510 347 163 511 112 164 512 112 164 513 135 147 514 344 150 515 113 165 516 129 166 517 143 154 518 143 154 519 136 153 520 113 165 521 114 167 522 348 168 523 346 158 524 346 158 525 137 157 526 114 167 527 144 162 528 130 169 529 115 170 530 115 170 531 138 159 532 144 162 533 349 171 534 350 172 535 145 173 536 145 173 537 122 174 538 349 171 539 146 175 540 352 176 541 351 177 542 351 177 543 123 178 544 146 175 545 147 179 546 354 180 547 353 181 548 353 181 549 124 182 550 147 179 551 355 183 552 356 184 553 148 185 554 148 185 555 125 186 556 355 183 557 350 172 558 357 187 559 131 188 560 131 188 561 145 173 562 350 172 563 132 189 564 358 190 565 352 176 566 352 176 567 146 175 568 132 189 569 133 191 570 359 192 571 354 180 572 354 180 573 147 179 574 133 191 575 356 184 576 360 193 577 134 194 578 134 194 579 148 185 580 356 184 581 347 163 582 361 195 583 149 196 584 149 196 585 112 164 586 347 163 587 150 197 588 157 198 589 129 166 590 129 166 591 113 165 592 150 197 593 151 199 594 362 200 595 348 168 596 348 168 597 114 167 598 151 199 599 130 169 600 158 201 601 152 202 602 152 202 603 115 170 604 130 169 605 361 195 606 363 203 607 108 204 608 108 204 609 149 196 610 361 195 611 109 205 612 126 206 613 157 198 614 157 198 615 150 197 616 109 205 617 108 204 618 363 203 619 362 200 620 362 200 621 151 199 622 108 204 623 158 201 624 126 206 625 109 205 626 109 205 627 152 202 628 158 201 629 357 187 630 364 207 631 365 208 632 365 208 633 131 188 634 357 187 635 367 209 636 366 210 637 358 190 638 358 190 639 132 189 640 367 209 641 369 211 642 368 212 643 359 192 644 359 192 645 133 191 646 369 211 647 360 193 648 370 213 649 371 214 650 371 214 651 134 194 652 360 193 653 364 207 654 372 215 655 373 216 656 373 216 657 365 208 658 364 207 659 375 217 660 374 218 661 366 210 662 366 210 663 367 209 664 375 217 665 373 216 666 372 215 667 368 212 668 368 212 669 369 211 670 373 216 671 370 213 672 374 218 673 375 217 674 375 217 675 371 214 676 370 213 677 349 171 678 122 174 679 376 219 680 376 219 681 378 220 682 349 171 683 377 221 684 123 178 685 351 177 686 351 177 687 379 221 688 377 221 689 380 222 690 124 182 691 353 181 692 353 181 693 382 223 694 380 222 695 355 183 696 125 186 697 381 224 698 381 224 699 383 225 700 355 183 701 343 149 702 100 148 703 171 226 704 171 226 705 384 227 706 343 149 707 172 228 708 101 152 709 120 151 710 120 151 711 163 229 712 172 228 713 173 230 714 102 156 715 345 155 716 345 155 717 385 231 718 173 230 719 121 161 720 103 160 721 174 232 722 174 232 723 164 233 724 121 161 725 165 234 726 122 174 727 186 235 728 186 235 729 175 236 730 165 234 731 210 237 732 123 178 733 165 234 734 165 234 735 175 236 736 210 237 737 187 238 738 124 182 739 166 239 740 166 239 741 176 240 742 187 238 743 166 239 744 125 186 745 211 241 746 211 241 747 176 240 748 166 239 749 131 188 750 159 242 751 177 243 752 177 243 753 182 244 754 131 188 755 178 245 756 160 246 757 132 189 758 132 189 759 183 247 760 178 245 761 179 248 762 161 249 763 133 191 764 133 191 765 184 250 766 179 248 767 134 194 768 162 251 769 220 252 770 220 252 771 217 253 772 134 194 773 159 242 774 127 254 775 386 255 776 386 255 777 177 243 778 159 242 779 387 256 780 128 257 781 160 246 782 160 246 783 178 245 784 387 256 785 386 255 786 127 254 787 161 249 788 161 249 789 179 248 790 386 255 791 162 251 792 128 257 793 387 256 794 387 256 795 220 252 796 162 251 797 145 173 798 131 188 799 182 244 800 182 244 801 180 258 802 145 173 803 183 247 804 132 189 805 146 175 806 146 175 807 213 259 808 183 247 809 184 250 810 133 191 811 147 179 812 147 179 813 181 260 814 184 250 815 148 185 816 134 194 817 217 253 818 217 253 819 214 261 820 148 185 821 122 174 822 145 173 823 180 258 824 180 258 825 186 235 826 122 174 827 213 259 828 146 175 829 123 178 830 123 178 831 210 237 832 213 259 833 181 260 834 147 179 835 124 182 836 124 182 837 187 238 838 181 260 839 125 186 840 148 185 841 214 261 842 214 261 843 211 241 844 125 186 845 139 262 846 198 263 847 194 264 848 194 264 849 116 265 850 139 262 851 195 266 852 199 267 853 140 268 854 140 268 855 117 269 856 195 266 857 196 270 858 200 271 859 141 272 860 141 272 861 118 273 862 196 270 863 142 274 864 201 275 865 197 276 866 197 276 867 119 277 868 142 274 869 198 263 870 135 147 871 112 164 872 112 164 873 194 264 874 198 263 875 113 165 876 136 153 877 199 267 878 199 267 879 195 266 880 113 165 881 114 167 882 137 157 883 200 271 884 200 271 885 196 270 886 114 167 887 201 275 888 138 159 889 115 170 890 115 170 891 197 276 892 201 275 893 188 278 894 100 148 895 135 147 896 135 147 897 198 263 898 188 278 899 136 153 900 101 152 901 189 279 902 189 279 903 199 267 904 136 153 905 137 157 906 102 156 907 190 280 908 190 280 909 200 271 910 137 157 911 191 281 912 103 160 913 138 159 914 138 159 915 201 275 916 191 281 917 198 263 918 139 262 919 104 282 920 104 282 921 188 278 922 198 263 923 105 283 924 140 268 925 199 267 926 199 267 927 189 279 928 105 283 929 106 284 930 141 272 931 200 271 932 200 271 933 190 280 934 106 284 935 201 275 936 142 274 937 107 285 938 107 285 939 191 281 940 201 275 941 153 286 942 202 287 943 192 288 944 192 288 945 110 289 946 153 286 947 193 290 948 203 291 949 154 292 950 154 292 951 111 293 952 193 290 953 192 288 954 204 294 955 155 295 956 155 295 957 110 289 958 192 288 959 156 296 960 205 297 961 193 290 962 193 290 963 111 293 964 156 296 965 202 287 966 149 196 967 108 204 968 108 204 969 192 288 970 202 287 971 109 205 972 150 197 973 203 291 974 203 291 975 193 290 976 109 205 977 108 204 978 151 199 979 204 294 980 204 294 981 192 288 982 108 204 983 205 297 984 152 202 985 109 205 986 109 205 987 193 290 988 205 297 989 116 265 990 194 264 991 202 287 992 202 287 993 153 286 994 116 265 995 203 291 996 195 266 997 117 269 998 117 269 999 154 292 1000 203 291 1001 204 294 1002 196 270 1003 118 273 1004 118 273 1005 155 295 1006 204 294 1007 119 277 1008 197 276 1009 205 297 1010 205 297 1011 156 296 1012 119 277 1013 194 264 1014 112 164 1015 149 196 1016 149 196 1017 202 287 1018 194 264 1019 150 197 1020 113 165 1021 195 266 1022 195 266 1023 203 291 1024 150 197 1025 151 199 1026 114 167 1027 196 270 1028 196 270 1029 204 294 1030 151 199 1031 197 276 1032 115 170 1033 152 202 1034 152 202 1035 205 297 1036 197 276 1037 100 148 1038 188 278 1039 206 298 1040 206 298 1041 171 226 1042 100 148 1043 207 299 1044 189 279 1045 101 152 1046 101 152 1047 172 228 1048 207 299 1049 208 300 1050 190 280 1051 102 156 1052 102 156 1053 173 230 1054 208 300 1055 103 160 1056 191 281 1057 209 301 1058 209 301 1059 174 232 1060 103 160 1061 188 278 1062 104 282 1063 167 302 1064 167 302 1065 206 298 1066 188 278 1067 168 303 1068 105 283 1069 189 279 1070 189 279 1071 207 299 1072 168 303 1073 169 304 1074 106 284 1075 190 280 1076 190 280 1077 208 300 1078 169 304 1079 191 281 1080 107 285 1081 170 305 1082 170 305 1083 209 301 1084 191 281 1085 186 235 1086 180 258 1087 213 259 1088 213 259 1089 210 237 1090 186 235 1091 214 261 1092 181 260 1093 187 238 1094 187 238 1095 211 241 1096 214 261 1097 175 236 1098 186 235 1099 210 237 1100 211 241 1101 187 238 1102 176 240 1103 182 244 1104 215 306 1105 180 258 1106 213 259 1107 216 307 1108 183 247 1109 218 308 1110 177 243 1111 185 309 1112 212 310 1113 178 245 1114 219 311 1115 177 243 1116 218 308 1117 215 306 1118 215 306 1119 182 244 1120 177 243 1121 216 307 1122 219 311 1123 178 245 1124 178 245 1125 183 247 1126 216 307 1127 217 253 1128 220 252 1129 179 248 1130 179 248 1131 184 250 1132 217 253 1133 214 261 1134 217 253 1135 184 250 1136 184 250 1137 181 260 1138 214 261 1139 212 310 1140 185 309 1141 179 248 1142 179 248 1143 220 252 1144 212 310 1145 185 309 1146 212 310 1147 219 311 1148 219 311 1149 218 308 1150 185 309 1151 180 258 1152 215 306 1153 216 307 1154 216 307 1155 213 259 1156 180 258 1157 388 312 1158 391 312 1159 390 312 1160 390 313 1161 389 313 1162 388 313 1163 215 306 1164 393 314 1165 216 307 1166 215 306 1167 392 314 1168 393 314 1169</p>
        </triangles>
      </mesh>
    </geometry>
  </library_geometries>
  <library_visual_scenes>
    <visual_scene id="Scene" name="Scene">
      <node id="ugarit_ship" name="ugarit_ship" type="NODE">
        <matrix sid="transform">0.999998 0 0 0 0 1 0 0 0 0 1 0 0 0 0 1</matrix>
        <instance_geometry url="#pers_merc_ship_mesh_002-mesh" name="ugarit_ship">
          <bind_material>
            <technique_common>
              <instance_material symbol="Materiais-material" target="#Materiais-material">
                <bind_vertex_input semantic="pers_merc_ship_mesh_002-mesh-map-0" input_semantic="TEXCOORD" input_set="0"/>
              </instance_material>
            </technique_common>
          </bind_material>
        </instance_geometry>
        <node id="prop_garrisoned" name="prop_garrisoned" type="NODE">
          <matrix sid="transform">1.94708e-7 1.000002 0 -0.02812306 -1.000002 1.94708e-7 0 0.029296 0 0 1 10.57605 0 0 0 1</matrix>
        </node>
        <node id="prop_projectile" name="prop_projectile" type="NODE">
          <matrix sid="transform">1.200002 0 0 0 0 1.2 0 -10.41083 0 0 1.2 2.046453 0 0 0 1</matrix>
        </node>
        <node id="prop_row_R_005" name="prop_row_R_005" type="NODE">
          <matrix sid="transform">0.3582305 -0.7918287 5.68668e-7 2.855031 -6.25676e-7 -6.38041e-7 -1.010189 -6.236524 1.104725 0.2567673 -7.56537e-7 1.774495 0 0 0 1</matrix>
        </node>
        <node id="prop_row_R_004" name="prop_row_R_004" type="NODE">
          <matrix sid="transform">0.3643281 -0.9571837 2.82762e-7 3.542981 -7.31429e-7 -5.21422e-7 -0.9366167 -2.882879 1.123528 0.3103874 -7.01439e-7 1.81508 0 0 0 1</matrix>
        </node>
        <node id="prop_row_R_003" name="prop_row_R_003" type="NODE">
          <matrix sid="transform">0.3643281 -0.9571837 6.6937e-7 3.433278 -7.31429e-7 -5.21422e-7 -2.217216 0.3940439 1.123528 0.3103874 -1.66049e-6 1.855664 0 0 0 1</matrix>
        </node>
        <node id="prop_row_R_002" name="prop_row_R_002" type="NODE">
          <matrix sid="transform">0.3643281 -0.9571837 4.26033e-7 3.127082 -7.31429e-7 -5.21422e-7 -1.411189 3.573293 1.123528 0.3103874 -1.05685e-6 2.018002 0 0 0 1</matrix>
        </node>
        <node id="prop_row_R_001" name="prop_row_R_001" type="NODE">
          <matrix sid="transform">0.361652 -0.8880758 5.10143e-7 2.680588 -7.07911e-7 -6.39627e-7 -1.095984 6.834419 1.115276 0.2879775 -8.61091e-7 2.151875 0 0 0 1</matrix>
        </node>
        <node id="prop_row_L_005" name="prop_row_L_005" type="NODE">
          <matrix sid="transform">-0.3643266 0.9571841 -1.88507e-7 -3.583717 7.79105e-7 4.28139e-7 0.9366167 -2.882878 1.123528 0.3103861 -7.10619e-7 1.786615 0 0 0 1</matrix>
        </node>
        <node id="prop_row_L_004" name="prop_row_L_004" type="NODE">
          <matrix sid="transform">-0.3643266 0.9571841 -4.46245e-7 -3.474015 7.79105e-7 4.28139e-7 2.217216 0.4630357 1.123528 0.3103861 -1.68222e-6 1.827199 0 0 0 1</matrix>
        </node>
        <node id="prop_row_L_003" name="prop_row_L_003" type="NODE">
          <matrix sid="transform">-0.3643266 0.9571841 -2.84021e-7 -3.167818 7.79105e-7 4.28139e-7 1.411189 3.573293 1.123528 0.3103861 -1.07068e-6 1.989537 0 0 0 1</matrix>
        </node>
        <node id="prop_row_L_002" name="prop_row_L_002" type="NODE">
          <matrix sid="transform">-0.3616507 0.8880764 -2.26891e-7 -2.721325 8.53321e-7 4.23518e-7 1.095984 6.834419 1.115276 0.2879765 -9.12134e-7 2.151875 0 0 0 1</matrix>
        </node>
        <node id="prop_row_L_001" name="prop_row_L_001" type="NODE">
          <matrix sid="transform">-0.3582293 0.7918289 -3.20774e-7 -2.895768 8.05657e-7 4.6513e-7 1.010189 -6.346438 1.104725 0.2567664 -8.40731e-7 1.67839 0 0 0 1</matrix>
        </node>
      </node>
    </visual_scene>
  </library_visual_scenes>
  <scene>
    <instance_visual_scene url="#Scene"/>
  </scene>
</COLLADA>